0
SECTION
2
HEADER
9
$INSUNITS
70
4
9
$ACADVER
1
AC1014
9
$HANDSEED
5
FFFF
0
ENDSEC
0
SECTION
2
TABLES
0
TABLE
2
VPORT
5
8
100
AcDbSymbolTable
0
ENDTAB
0
TABLE
2
LTYPE
5
5
100
AcDbSymbolTable
0
LTYPE
5
14
100
AcDbSymbolTableRecord
100
AcDbLinetypeTableRecord
2
BYBLOCK
70
0
0
LTYPE
5
15
100
AcDbSymbolTableRecord
100
AcDbLinetypeTableRecord
2
BYLAYER
70
0
0
LTYPE
5
16
100
AcDbSymbolTableRecord
100
AcDbLinetypeTableRecord
2
DASHED
70
0
3
Dashed __ __ __ __ __ __ __ __ __ __ __ __ __ _
72
65
73
2
40
0.75
49
0.5
74
0
49
-0.25
74
0
0
ENDTAB
0
TABLE
2
LAYER
5
2
100
AcDbSymbolTable
70
2
0
LAYER
5
50
100
AcDbSymbolTableRecord
100
AcDbLayerTableRecord
2
0
70
0
62
7
6
CONTINUOUS
0
ENDTAB
0
TABLE
2
STYLE
5
3
100
AcDbSymbolTable
70
1
0
STYLE
5
11
100
AcDbSymbolTableRecord
100
AcDbTextStyleTableRecord
2
STANDARD
70
0
0
ENDTAB
0
TABLE
2
VIEW
5
6
100
AcDbSymbolTable
70
0
0
ENDTAB
0
TABLE
2
UCS
5
7
100
AcDbSymbolTable
70
0
0
ENDTAB
0
TABLE
2
APPID
5
9
100
AcDbSymbolTable
70
2
0
APPID
5
12
100
AcDbSymbolTableRecord
100
AcDbRegAppTableRecord
2
ACAD
70
0
0
ENDTAB
0
TABLE
2
DIMSTYLE
5
A
100
AcDbSymbolTable
70
1
0
ENDTAB
0
TABLE
2
BLOCK_RECORD
5
1
100
AcDbSymbolTable
70
1
0
BLOCK_RECORD
5
1F
100
AcDbSymbolTableRecord
100
AcDbBlockTableRecord
2
*MODEL_SPACE
0
BLOCK_RECORD
5
1B
100
AcDbSymbolTableRecord
100
AcDbBlockTableRecord
2
*PAPER_SPACE
0
ENDTAB
0
ENDSEC
0
SECTION
2
BLOCKS
0
BLOCK
5
20
100
AcDbEntity
100
AcDbBlockBegin
2
*MODEL_SPACE
0
ENDBLK
5
21
100
AcDbEntity
100
AcDbBlockEnd
0
BLOCK
5
1C
100
AcDbEntity
100
AcDbBlockBegin
2
*PAPER_SPACE
0
ENDBLK
5
1D
100
AcDbEntity
100
AcDbBlockEnd
0
ENDSEC
0
SECTION
2
ENTITIES
0
POINT
5
100
100
AcDbEntity
8
0
100
AcDbPoint
10
0
20
0
30
0
0
POINT
5
101
100
AcDbEntity
8
0
100
AcDbPoint
10
-4.9999999999999964
20
4.5000000000000089
30
0
0
POINT
5
102
100
AcDbEntity
8
0
100
AcDbPoint
10
-9.9999999999999982
20
4.5000000000000204
30
0
0
LWPOLYLINE
5
103
100
AcDbEntity
8
0
100
AcDbPolyline
90
8
70
1
43
0.0
10
-97.5
20
-4.5
42
0.41421356237309381
10
-94.5
20
-7.4999999999999929
10
4.4999999999999929
20
-7.5
42
0.41421356237309548
10
7.5000000000000018
20
-4.5
10
7.5
20
4.5
42
0.41421356237309576
10
4.499999999999992
20
7.5
10
-94.5
20
7.5
42
0.41421356237309181
10
-97.5
20
4.4999999999999982
0
CIRCLE
5
104
100
AcDbEntity
8
0
100
AcDbCircle
10
-10
20
0
30
0
40
2.5
210
0
220
-0
230
1
0
CIRCLE
5
105
100
AcDbEntity
8
0
100
AcDbCircle
10
-30
20
0
30
0
40
2.5
210
0
220
-0
230
1
0
CIRCLE
5
106
100
AcDbEntity
8
0
100
AcDbCircle
10
-20
20
0
30
0
40
2.5
210
0
220
-0
230
1
0
CIRCLE
5
107
100
AcDbEntity
8
0
100
AcDbCircle
10
-50
20
0
30
0
40
2.5
210
0
220
-0
230
1
0
CIRCLE
5
108
100
AcDbEntity
8
0
100
AcDbCircle
10
0
20
0
30
0
40
2.5
210
0
220
-0
230
1
0
CIRCLE
5
109
100
AcDbEntity
8
0
100
AcDbCircle
10
-60
20
0
30
0
40
2.5
210
0
220
-0
230
1
0
CIRCLE
5
110
100
AcDbEntity
8
0
100
AcDbCircle
10
-70
20
0
30
0
40
2.5
210
0
220
-0
230
1
0
CIRCLE
5
111
100
AcDbEntity
8
0
100
AcDbCircle
10
-40
20
0
30
0
40
2.5
210
0
220
-0
230
1
0
LINE
5
112
100
AcDbEntity
8
0
100
AcDbLine
10
-1.4999999999999869
20
3.0000000000000062
30
0
11
-2.6826282962084523e-16
21
4.5000000000000195
31
0
0
LINE
5
113
100
AcDbEntity
8
0
100
AcDbLine
10
-2.6826282962084523e-16
20
4.5000000000000195
30
0
11
-1.500000000000012
21
6.0000000000000018
31
0
0
LINE
5
114
100
AcDbEntity
8
0
100
AcDbLine
10
-1.500000000000012
20
6.0000000000000018
30
0
11
-1.4999999999999989
21
4.9999999999999991
31
0
0
LINE
5
115
100
AcDbEntity
8
0
100
AcDbLine
10
-1.4999999999999989
20
4.9999999999999991
30
0
11
-8.5
21
5.0000000000000169
31
0
0
LINE
5
116
100
AcDbEntity
8
0
100
AcDbLine
10
-8.5
20
5.0000000000000169
30
0
11
-8.5000000000000018
21
6.0000000000000187
31
0
0
LINE
5
117
100
AcDbEntity
8
0
100
AcDbLine
10
-8.5000000000000018
20
6.0000000000000187
30
0
11
-10
21
4.5000000000000204
31
0
0
LINE
5
118
100
AcDbEntity
8
0
100
AcDbLine
10
-10
20
4.5000000000000204
30
0
11
-8.500000000000016
21
3.0000000000000053
31
0
0
LINE
5
119
100
AcDbEntity
8
0
100
AcDbLine
10
-8.500000000000016
20
3.0000000000000053
30
0
11
-8.4999999999999858
21
4.0000000000000089
31
0
0
LINE
5
120
100
AcDbEntity
8
0
100
AcDbLine
10
-8.4999999999999858
20
4.0000000000000089
30
0
11
-1.4999999999999858
21
4.0000000000000089
31
0
0
LINE
5
121
100
AcDbEntity
8
0
100
AcDbLine
10
-1.4999999999999858
20
4.0000000000000089
30
0
11
-1.4999999999999869
21
3.0000000000000062
31
0
0
SPLINE
5
122
100
AcDbEntity
8
0
100
AcDbSpline
70
0
71
2
72
6
73
3
74
0
42
0.000000001
43
0.0000000001
44
0.0000000001
40
0
40
0
40
0
40
1
40
1
40
1
10
0.74293791886408334
20
-4.9267750473879452
30
0
10
0.74293791886408334
20
-5.1047412546537991
30
0
10
0.71186445292074685
20
-5.2883570881746884
30
0
0
SPLINE
5
123
100
AcDbEntity
8
0
100
AcDbSpline
70
0
71
2
72
6
73
3
74
0
42
0.000000001
43
0.0000000001
44
0.0000000001
40
0
40
0
40
0
40
1
40
1
40
1
10
0.71186445292074685
20
-5.2883570881746884
30
0
10
0.67796617384989266
20
-5.4719729216955777
30
0
10
0.59604525204737191
20
-5.6216904016398068
30
0
0
SPLINE
5
124
100
AcDbEntity
8
0
100
AcDbSpline
70
0
71
2
72
6
73
3
74
0
42
0.000000001
43
0.0000000001
44
0.0000000001
40
0
40
0
40
0
40
1
40
1
40
1
10
0.59604525204737191
20
-5.6216904016398068
30
0
10
0.51129947986443047
20
-5.7714078815840359
30
0
10
0.36723166342813973
20
-5.8646282049082394
30
0
0
SPLINE
5
125
100
AcDbEntity
8
0
100
AcDbSpline
70
0
71
2
72
6
73
3
74
0
42
0.000000001
43
0.0000000001
44
0.0000000001
40
0
40
0
40
0
40
1
40
1
40
1
10
0.36723166342813973
20
-5.8646282049082394
30
0
10
0.22316388424475198
20
-5.9606734903715726
30
0
10
-3.6136388326113433e-09
20
-5.9606734903715726
30
0
0
SPLINE
5
126
100
AcDbEntity
8
0
100
AcDbSpline
70
0
71
2
72
6
73
3
74
0
42
0.000000001
43
0.0000000001
44
0.0000000001
40
0
40
0
40
0
40
1
40
1
40
1
10
-3.6136388326113433e-09
20
-5.9606734903715726
30
0
10
-0.22316381696622367
20
-5.9606734903715726
30
0
10
-0.36723159614961143
20
-5.8646282049082394
30
0
0
SPLINE
5
127
100
AcDbEntity
8
0
100
AcDbSpline
70
0
71
2
72
6
73
3
74
0
42
0.000000001
43
0.0000000001
44
0.0000000001
40
0
40
0
40
0
40
1
40
1
40
1
10
-0.36723159614961143
20
-5.8646282049082394
30
0
10
-0.51129937533299918
20
-5.7714078815840359
30
0
10
-0.59322029713551994
20
-5.6216904016398068
30
0
0
SPLINE
5
128
100
AcDbEntity
8
0
100
AcDbSpline
70
0
71
2
72
6
73
3
74
0
42
0.000000001
43
0.0000000001
44
0.0000000001
40
0
40
0
40
0
40
1
40
1
40
1
10
-0.59322029713551994
20
-5.6216904016398068
30
0
10
-0.67796603206555839
20
-5.4719729216955777
30
0
10
-0.70903957251470084
20
-5.2883570881746884
30
0
0
SPLINE
5
129
100
AcDbEntity
8
0
100
AcDbSpline
70
0
71
2
72
6
73
3
74
0
42
0.000000001
43
0.0000000001
44
0.0000000001
40
0
40
0
40
0
40
1
40
1
40
1
10
-0.70903957251470084
20
-5.2883570881746884
30
0
10
-0.74293777707974906
20
-5.1047412546537991
30
0
10
-0.74293777707974906
20
-4.9267750473879452
30
0
0
SPLINE
5
130
100
AcDbEntity
8
0
100
AcDbSpline
70
0
71
2
72
6
73
3
74
0
42
0.000000001
43
0.0000000001
44
0.0000000001
40
0
40
0
40
0
40
1
40
1
40
1
10
-0.74293777707974906
20
-4.9267750473879452
30
0
10
-0.74293777707974906
20
-4.7488089891337033
30
0
10
-0.70903957251470084
20
-4.5651933046244269
30
0
0
SPLINE
5
131
100
AcDbEntity
8
0
100
AcDbSpline
70
0
71
2
72
6
73
3
74
0
42
0.000000001
43
0.0000000001
44
0.0000000001
40
0
40
0
40
0
40
1
40
1
40
1
10
-0.70903957251470084
20
-4.5651933046244269
30
0
10
-0.67796603206555839
20
-4.3815773220919256
30
0
10
-0.59322029713551994
20
-4.2318599911593084
30
0
0
SPLINE
5
132
100
AcDbEntity
8
0
100
AcDbSpline
70
0
71
2
72
6
73
3
74
0
42
0.000000001
43
0.0000000001
44
0.0000000001
40
0
40
0
40
0
40
1
40
1
40
1
10
-0.59322029713551994
20
-4.2318599911593084
30
0
10
-0.51129937533299918
20
-4.0821423622034674
30
0
10
-0.36723159614961143
20
-3.9860972257517462
30
0
0
SPLINE
5
133
100
AcDbEntity
8
0
100
AcDbSpline
70
0
71
2
72
6
73
3
74
0
42
0.000000001
43
0.0000000001
44
0.0000000001
40
0
40
0
40
0
40
1
40
1
40
1
10
-0.36723159614961143
20
-3.9860972257517462
30
0
10
-0.22316381696622367
20
-3.8928767534159308
30
0
10
-3.6136388326113433e-09
20
-3.8928767534159308
30
0
0
SPLINE
5
134
100
AcDbEntity
8
0
100
AcDbSpline
70
0
71
2
72
6
73
3
74
0
42
0.000000001
43
0.0000000001
44
0.0000000001
40
0
40
0
40
0
40
1
40
1
40
1
10
-3.6136388326113433e-09
20
-3.8928767534159308
30
0
10
0.22316388424475198
20
-3.8928767534159308
30
0
10
0.36723166342813973
20
-3.9860972257517462
30
0
0
SPLINE
5
135
100
AcDbEntity
8
0
100
AcDbSpline
70
0
71
2
72
6
73
3
74
0
42
0.000000001
43
0.0000000001
44
0.0000000001
40
0
40
0
40
0
40
1
40
1
40
1
10
0.36723166342813973
20
-3.9860972257517462
30
0
10
0.51129947986443047
20
-4.0821423622034674
30
0
10
0.59604525204737191
20
-4.2318599911593084
30
0
0
SPLINE
5
136
100
AcDbEntity
8
0
100
AcDbSpline
70
0
71
2
72
6
73
3
74
0
42
0.000000001
43
0.0000000001
44
0.0000000001
40
0
40
0
40
0
40
1
40
1
40
1
10
0.59604525204737191
20
-4.2318599911593084
30
0
10
0.67796617384989266
20
-4.3815773220919256
30
0
10
0.71186445292074685
20
-4.5651933046244269
30
0
0
SPLINE
5
137
100
AcDbEntity
8
0
100
AcDbSpline
70
0
71
2
72
6
73
3
74
0
42
0.000000001
43
0.0000000001
44
0.0000000001
40
0
40
0
40
0
40
1
40
1
40
1
10
0.71186445292074685
20
-4.5651933046244269
30
0
10
0.74293791886408334
20
-4.7488089891337033
30
0
10
0.74293791886408334
20
-4.9267750473879452
30
0
0
SPLINE
5
138
100
AcDbEntity
8
0
100
AcDbSpline
70
0
71
2
72
6
73
3
74
0
42
0.000000001
43
0.0000000001
44
0.0000000001
40
0
40
0
40
0
40
1
40
1
40
1
10
0.31920909520227914
20
-4.9267750473879452
30
0
10
0.31920909520227914
20
-4.8476790877245541
30
0
10
0.31355935718853478
20
-4.7375095876120206
30
0
0
SPLINE
5
139
100
AcDbEntity
8
0
100
AcDbSpline
70
0
71
2
72
6
73
3
74
0
42
0.000000001
43
0.0000000001
44
0.0000000001
40
0
40
0
40
0
40
1
40
1
40
1
10
0.31355935718853478
20
-4.7375095876120206
30
0
10
0.30508476879436974
20
-4.6273400874994879
30
0
10
0.27401134010393624
20
-4.5256450267695074
30
0
0
SPLINE
5
140
100
AcDbEntity
8
0
100
AcDbSpline
70
0
71
2
72
6
73
3
74
0
42
0.000000001
43
0.0000000001
44
0.0000000001
40
0
40
0
40
0
40
1
40
1
40
1
10
0.27401134010393624
20
-4.5256450267695074
30
0
10
0.24293787416059975
20
-4.4239502640627508
30
0
10
0.18079101677973275
20
-4.3533288927935248
30
0
0
SPLINE
5
141
100
AcDbEntity
8
0
100
AcDbSpline
70
0
71
2
72
6
73
3
74
0
42
0.000000001
43
0.0000000001
44
0.0000000001
40
0
40
0
40
0
40
1
40
1
40
1
10
0.18079101677973275
20
-4.3533288927935248
30
0
10
0.11581927176554208
20
-4.2827072235010748
30
0
10
-3.6136388326113433e-09
20
-4.2827072235010748
30
0
0
SPLINE
5
142
100
AcDbEntity
8
0
100
AcDbSpline
70
0
71
2
72
6
73
3
74
0
42
0.000000001
43
0.0000000001
44
0.0000000001
40
0
40
0
40
0
40
1
40
1
40
1
10
-3.6136388326113433e-09
20
-4.2827072235010748
30
0
10
-0.1129943168536901
20
-4.2827072235010748
30
0
10
-0.17796606186788078
20
-4.3533288927935248
30
0
0
SPLINE
5
143
100
AcDbEntity
8
0
100
AcDbSpline
70
0
71
2
72
6
73
3
74
0
42
0.000000001
43
0.0000000001
44
0.0000000001
40
0
40
0
40
0
40
1
40
1
40
1
10
-0.17796606186788078
20
-4.3533288927935248
30
0
10
-0.24293780688207145
20
-4.4239502640627508
30
0
10
-0.27401127282540794
20
-4.5256450267695074
30
0
0
SPLINE
5
144
100
AcDbEntity
8
0
100
AcDbSpline
70
0
71
2
72
6
73
3
74
0
42
0.000000001
43
0.0000000001
44
0.0000000001
40
0
40
0
40
0
40
1
40
1
40
1
10
-0.27401127282540794
20
-4.5256450267695074
30
0
10
-0.30508473876874442
20
-4.6273400874994879
30
0
10
-0.31073443952958579
20
-4.7375095876120206
30
0
0
SPLINE
5
145
100
AcDbEntity
8
0
100
AcDbSpline
70
0
71
2
72
6
73
3
74
0
42
0.000000001
43
0.0000000001
44
0.0000000001
40
0
40
0
40
0
40
1
40
1
40
1
10
-0.31073443952958579
20
-4.7375095876120206
30
0
10
-0.31920902792375083
20
-4.8476790877245541
30
0
10
-0.31920902792375083
20
-4.9267750473879452
30
0
0
SPLINE
5
146
100
AcDbEntity
8
0
100
AcDbSpline
70
0
71
2
72
6
73
3
74
0
42
0.000000001
43
0.0000000001
44
0.0000000001
40
0
40
0
40
0
40
1
40
1
40
1
10
-0.31920902792375083
20
-4.9267750473879452
30
0
10
-0.31920902792375083
20
-5.0058711560629483
30
0
10
-0.31073443952958579
20
-5.1160406561754819
30
0
0
SPLINE
5
147
100
AcDbEntity
8
0
100
AcDbSpline
70
0
71
2
72
6
73
3
74
0
42
0.000000001
43
0.0000000001
44
0.0000000001
40
0
40
0
40
0
40
1
40
1
40
1
10
-0.31073443952958579
20
-5.1160406561754819
30
0
10
-0.30508473876874442
20
-5.2262101562880154
30
0
10
-0.27401127282540794
20
-5.327905068006384
30
0
0
SPLINE
5
148
100
AcDbEntity
8
0
100
AcDbSpline
70
0
71
2
72
6
73
3
74
0
42
0.000000001
43
0.0000000001
44
0.0000000001
40
0
40
0
40
0
40
1
40
1
40
1
10
-0.27401127282540794
20
-5.327905068006384
30
0
10
-0.24293780688207145
20
-5.4295999797247525
30
0
10
-0.17796606186788078
20
-5.5002215000055905
30
0
0
SPLINE
5
149
100
AcDbEntity
8
0
100
AcDbSpline
70
0
71
2
72
6
73
3
74
0
42
0.000000001
43
0.0000000001
44
0.0000000001
40
0
40
0
40
0
40
1
40
1
40
1
10
-0.17796606186788078
20
-5.5002215000055905
30
0
10
-0.1129943168536901
20
-5.5708428712748166
30
0
10
-3.6136388326113433e-09
20
-5.5708428712748166
30
0
0
SPLINE
5
150
100
AcDbEntity
8
0
100
AcDbSpline
70
0
71
2
72
6
73
3
74
0
42
0.000000001
43
0.0000000001
44
0.0000000001
40
0
40
0
40
0
40
1
40
1
40
1
10
-3.6136388326113433e-09
20
-5.5708428712748166
30
0
10
0.11581927176554208
20
-5.5708428712748166
30
0
10
0.18079101677973275
20
-5.5002215000055905
30
0
0
SPLINE
5
151
100
AcDbEntity
8
0
100
AcDbSpline
70
0
71
2
72
6
73
3
74
0
42
0.000000001
43
0.0000000001
44
0.0000000001
40
0
40
0
40
0
40
1
40
1
40
1
10
0.18079101677973275
20
-5.5002215000055905
30
0
10
0.24293787416059975
20
-5.4295999797247525
30
0
10
0.27401134010393624
20
-5.327905068006384
30
0
0
SPLINE
5
152
100
AcDbEntity
8
0
100
AcDbSpline
70
0
71
2
72
6
73
3
74
0
42
0.000000001
43
0.0000000001
44
0.0000000001
40
0
40
0
40
0
40
1
40
1
40
1
10
0.27401134010393624
20
-5.327905068006384
30
0
10
0.30508476879436974
20
-5.2262101562880154
30
0
10
0.31355935718853478
20
-5.1160406561754819
30
0
0
SPLINE
5
153
100
AcDbEntity
8
0
100
AcDbSpline
70
0
71
2
72
6
73
3
74
0
42
0.000000001
43
0.0000000001
44
0.0000000001
40
0
40
0
40
0
40
1
40
1
40
1
10
0.31355935718853478
20
-5.1160406561754819
30
0
10
0.31920909520227914
20
-5.0058711560629483
30
0
10
0.31920909520227914
20
-4.9267750473879452
30
0
0
LINE
5
154
100
AcDbEntity
8
0
100
AcDbLine
10
-9.9774011260644677
20
-5.4521989317797299
30
0
11
-9.576271142698932
21
-5.0990914793871518
31
0
0
LINE
5
155
100
AcDbEntity
8
0
100
AcDbLine
10
-9.576271142698932
20
-5.0990914793871518
30
0
11
-9.3361581153051141
21
-5.3759276362322446
31
0
0
LINE
5
156
100
AcDbEntity
8
0
100
AcDbLine
10
-9.3361581153051141
20
-5.3759276362322446
30
0
11
-9.9887005275861505
21
-5.9267751367949124
31
0
0
LINE
5
157
100
AcDbEntity
8
0
100
AcDbLine
10
-9.9887005275861505
20
-5.9267751367949124
30
0
11
-10.384180772937942
21
-5.9267751367949124
31
0
0
LINE
5
158
100
AcDbEntity
8
0
100
AcDbLine
10
-10.384180772937942
20
-5.9267751367949124
30
0
11
-10.384180772937942
21
-3.9267751069925905
31
0
0
LINE
5
159
100
AcDbEntity
8
0
100
AcDbLine
10
-10.384180772937942
20
-3.9267751069925909
30
0
11
-9.9774011260644677
21
-3.9267751069925909
31
0
0
LINE
5
160
100
AcDbEntity
8
0
100
AcDbLine
10
-9.9774011260644677
20
-3.9267751069925909
30
0
11
-9.9774011260644677
21
-5.4521989317797299
31
0
0
LINE
5
161
100
AcDbEntity
8
0
100
AcDbLine
10
-19.30225983623426
20
-4.3759276958368902
30
0
11
-20.079096037782836
21
-5.0736677142046567
31
0
0
SPLINE
5
162
100
AcDbEntity
8
0
100
AcDbSpline
70
0
71
2
72
6
73
3
74
0
42
0.000000001
43
0.0000000001
44
0.0000000001
40
0
40
0
40
0
40
1
40
1
40
1
10
-20.079096037782836
20
-5.0736677142046567
30
0
10
-20.138418082036186
20
-5.1273402067087765
30
0
10
-20.197740051783729
20
-5.1951367648504849
30
0
0
SPLINE
5
163
100
AcDbEntity
8
0
100
AcDbSpline
70
0
71
2
72
6
73
3
74
0
42
0.000000001
43
0.0000000001
44
0.0000000001
40
0
40
0
40
0
40
1
40
1
40
1
10
-20.197740051783729
20
-5.1951367648504849
30
0
10
-20.257062096037078
20
-5.2629333229921933
30
0
10
-20.257062096037078
20
-5.3533288331888791
30
0
0
SPLINE
5
164
100
AcDbEntity
8
0
100
AcDbSpline
70
0
71
2
72
6
73
3
74
0
42
0.000000001
43
0.0000000001
44
0.0000000001
40
0
40
0
40
0
40
1
40
1
40
1
10
-20.257062096037078
20
-5.3533288331888791
30
0
10
-20.257062096037078
20
-5.4550237449072476
30
0
10
-20.183615762628722
20
-5.5115209015272733
30
0
0
SPLINE
5
165
100
AcDbEntity
8
0
100
AcDbSpline
70
0
71
2
72
6
73
3
74
0
42
0.000000001
43
0.0000000001
44
0.0000000001
40
0
40
0
40
0
40
1
40
1
40
1
10
-20.183615762628722
20
-5.5115209015272733
30
0
10
-20.110169429220367
20
-5.5708428712748166
30
0
10
-20.011299405135322
20
-5.5708428712748166
30
0
0
SPLINE
5
166
100
AcDbEntity
8
0
100
AcDbSpline
70
0
71
2
72
6
73
3
74
0
42
0.000000001
43
0.0000000001
44
0.0000000001
40
0
40
0
40
0
40
1
40
1
40
1
10
-20.011299405135322
20
-5.5708428712748166
30
0
10
-19.892655316628623
20
-5.5708428712748166
30
0
10
-19.824858758486915
20
-5.4973965378664609
30
0
0
SPLINE
5
167
100
AcDbEntity
8
0
100
AcDbSpline
70
0
71
2
72
6
73
3
74
0
42
0.000000001
43
0.0000000001
44
0.0000000001
40
0
40
0
40
0
40
1
40
1
40
1
10
-19.824858758486915
20
-5.4973965378664609
30
0
10
-19.759886976219821
20
-5.4239503534697171
30
0
10
-19.751412387825656
20
-5.3166056664847012
30
0
0
LINE
5
168
100
AcDbEntity
8
0
100
AcDbLine
10
-19.751412387825656
20
-5.3166056664847012
30
0
11
-19.327683526910949
21
-5.3476790579222317
31
0
0
SPLINE
5
169
100
AcDbEntity
8
0
100
AcDbSpline
70
0
71
2
72
6
73
3
74
0
42
0.000000001
43
0.0000000001
44
0.0000000001
40
0
40
0
40
0
40
1
40
1
40
1
10
-19.327683526910949
20
-5.3476790579222317
30
0
10
-19.336158115305114
20
-5.5030463131331082
30
0
10
-19.392655346430946
20
-5.6160406263731595
30
0
0
SPLINE
5
170
100
AcDbEntity
8
0
100
AcDbSpline
70
0
71
2
72
6
73
3
74
0
42
0.000000001
43
0.0000000001
44
0.0000000001
40
0
40
0
40
0
40
1
40
1
40
1
10
-19.392655346430946
20
-5.6160406263731595
30
0
10
-19.449152503050971
20
-5.7318599017523404
30
0
10
-19.542372826375175
20
-5.8081310482882138
30
0
0
SPLINE
5
171
100
AcDbEntity
8
0
100
AcDbSpline
70
0
71
2
72
6
73
3
74
0
42
0.000000001
43
0.0000000001
44
0.0000000001
40
0
40
0
40
0
40
1
40
1
40
1
10
-19.542372826375175
20
-5.8081310482882138
30
0
10
-19.635593186952281
20
-5.8844023438356992
30
0
10
-19.759886976219821
20
-5.9211253615282651
30
0
0
SPLINE
5
172
100
AcDbEntity
8
0
100
AcDbSpline
70
0
71
2
72
6
73
3
74
0
42
0.000000001
43
0.0000000001
44
0.0000000001
40
0
40
0
40
0
40
1
40
1
40
1
10
-19.759886976219821
20
-5.9211253615282651
30
0
10
-19.887005615867782
20
-5.9606734903715726
30
0
10
-20.033898282684493
20
-5.9606734903715726
30
0
0
SPLINE
5
173
100
AcDbEntity
8
0
100
AcDbSpline
70
0
71
2
72
6
73
3
74
0
42
0.000000001
43
0.0000000001
44
0.0000000001
40
0
40
0
40
0
40
1
40
1
40
1
10
-20.033898282684493
20
-5.9606734903715726
30
0
10
-20.169491473473716
20
-5.9606734903715726
30
0
10
-20.288135561980415
20
-5.9211253615282651
30
0
0
SPLINE
5
174
100
AcDbEntity
8
0
100
AcDbSpline
70
0
71
2
72
6
73
3
74
0
42
0.000000001
43
0.0000000001
44
0.0000000001
40
0
40
0
40
0
40
1
40
1
40
1
10
-20.288135561980415
20
-5.9211253615282651
30
0
10
-20.406779650487113
20
-5.8844023438356992
30
0
10
-20.494350198544669
20
-5.8081310482882138
30
0
0
SPLINE
5
175
100
AcDbEntity
8
0
100
AcDbSpline
70
0
71
2
72
6
73
3
74
0
42
0.000000001
43
0.0000000001
44
0.0000000001
40
0
40
0
40
0
40
1
40
1
40
1
10
-20.494350198544669
20
-5.8081310482882138
30
0
10
-20.581920895613838
20
-5.7346847148798581
30
0
10
-20.629943463839698
20
-5.6216904016398068
30
0
0
SPLINE
5
176
100
AcDbEntity
8
0
100
AcDbSpline
70
0
71
2
72
6
73
3
74
0
42
0.000000001
43
0.0000000001
44
0.0000000001
40
0
40
0
40
0
40
1
40
1
40
1
10
-20.629943463839698
20
-5.6216904016398068
30
0
10
-20.680790994204688
20
-5.5086960883997556
30
0
10
-20.680790994204688
20
-5.3589784594439145
30
0
0
SPLINE
5
177
100
AcDbEntity
8
0
100
AcDbSpline
70
0
71
2
72
6
73
3
74
0
42
0.000000001
43
0.0000000001
44
0.0000000001
40
0
40
0
40
0
40
1
40
1
40
1
10
-20.680790994204688
20
-5.3589784594439145
30
0
10
-20.680790994204688
20
-5.2629333229921933
30
0
10
-20.661017004288841
20
-5.1838372143171902
30
0
0
SPLINE
5
178
100
AcDbEntity
8
0
100
AcDbSpline
70
0
71
2
72
6
73
3
74
0
42
0.000000001
43
0.0000000001
44
0.0000000001
40
0
40
0
40
0
40
1
40
1
40
1
10
-20.661017004288841
20
-5.1838372143171902
30
0
10
-20.641242865361381
20
-5.1075660677813168
30
0
10
-20.604519698657203
20
-5.0425943227671262
30
0
0
SPLINE
5
179
100
AcDbEntity
8
0
100
AcDbSpline
70
0
71
2
72
6
73
3
74
0
42
0.000000001
43
0.0000000001
44
0.0000000001
40
0
40
0
40
0
40
1
40
1
40
1
10
-20.604519698657203
20
-5.0425943227671262
30
0
10
-20.570621494092155
20
-4.9804475398920651
30
0
10
-20.522598776854682
20
-4.9267750473879452
30
0
0
SPLINE
5
180
100
AcDbEntity
8
0
100
AcDbSpline
70
0
71
2
72
6
73
3
74
0
42
0.000000001
43
0.0000000001
44
0.0000000001
40
0
40
0
40
0
40
1
40
1
40
1
10
-20.522598776854682
20
-4.9267750473879452
30
0
10
-20.474576208628822
20
-4.8731028529070493
30
0
10
-20.418079052008796
20
-4.822255322542059
30
0
0
LINE
5
181
100
AcDbEntity
8
0
100
AcDbLine
10
-20.418079052008796
20
-4.822255322542059
30
0
11
-19.810734394826103
21
-4.299656400289404
31
0
0
LINE
5
182
100
AcDbEntity
8
0
100
AcDbLine
10
-19.810734394826103
20
-4.2996564002894049
30
0
11
-20.697740170993018
21
-4.2996564002894049
31
0
0
LINE
5
183
100
AcDbEntity
8
0
100
AcDbLine
10
-20.697740170993018
20
-4.2996564002894049
30
0
11
-20.697740170993018
21
-3.9267751069925909
31
0
0
LINE
5
184
100
AcDbEntity
8
0
100
AcDbLine
10
-20.697740170993018
20
-3.9267751069925909
30
0
11
-19.30225983623426
21
-3.9267751069925909
31
0
0
LINE
5
185
100
AcDbEntity
8
0
100
AcDbLine
10
-19.30225983623426
20
-3.9267751069925909
30
0
11
-19.30225983623426
21
-4.3759276958368902
31
0
0
LINE
5
186
100
AcDbEntity
8
0
100
AcDbLine
10
-29.774011265374828
20
-5.1386394592188473
30
0
11
-29.912429381050277
21
-5.1386394592188473
31
0
0
SPLINE
5
187
100
AcDbEntity
8
0
100
AcDbSpline
70
0
71
2
72
6
73
3
74
0
42
0.000000001
43
0.0000000001
44
0.0000000001
40
0
40
0
40
0
40
1
40
1
40
1
10
-29.912429381050277
20
-5.1386394592188473
30
0
10
-29.97175135079782
20
-5.1386394592188473
30
0
10
-30.028248581923652
20
-5.1471140476130124
30
0
0
SPLINE
5
188
100
AcDbEntity
8
0
100
AcDbSpline
70
0
71
2
72
6
73
3
74
0
42
0.000000001
43
0.0000000001
44
0.0000000001
40
0
40
0
40
0
40
1
40
1
40
1
10
-30.028248581923652
20
-5.1471140476130124
30
0
10
-30.084745738543678
20
-5.1555886360071774
30
0
10
-30.129943493642021
20
-5.1781875880621548
30
0
0
SPLINE
5
189
100
AcDbEntity
8
0
100
AcDbSpline
70
0
71
2
72
6
73
3
74
0
42
0.000000001
43
0.0000000001
44
0.0000000001
40
0
40
0
40
0
40
1
40
1
40
1
10
-30.129943493642021
20
-5.1781875880621548
30
0
10
-30.177966061867881
20
-5.20361135324465
30
0
10
-30.206214640177894
20
-5.2459841462038632
30
0
0
SPLINE
5
190
100
AcDbEntity
8
0
100
AcDbSpline
70
0
71
2
72
6
73
3
74
0
42
0.000000001
43
0.0000000001
44
0.0000000001
40
0
40
0
40
0
40
1
40
1
40
1
10
-30.206214640177894
20
-5.2459841462038632
30
0
10
-30.234463218487907
20
-5.2911819013022061
30
0
10
-30.234463218487907
20
-5.3618034215830441
30
0
0
SPLINE
5
191
100
AcDbEntity
8
0
100
AcDbSpline
70
0
71
2
72
6
73
3
74
0
42
0.000000001
43
0.0000000001
44
0.0000000001
40
0
40
0
40
0
40
1
40
1
40
1
10
-30.234463218487907
20
-5.3618034215830441
30
0
10
-30.234463218487907
20
-5.4521989317797299
30
0
10
-30.161016885079551
20
-5.5115209015272733
30
0
0
SPLINE
5
192
100
AcDbEntity
8
0
100
AcDbSpline
70
0
71
2
72
6
73
3
74
0
42
0.000000001
43
0.0000000001
44
0.0000000001
40
0
40
0
40
0
40
1
40
1
40
1
10
-30.161016885079551
20
-5.5115209015272733
30
0
10
-30.090395439304519
20
-5.5708428712748166
30
0
10
-29.985875639952827
20
-5.5708428712748166
30
0
0
SPLINE
5
193
100
AcDbEntity
8
0
100
AcDbSpline
70
0
71
2
72
6
73
3
74
0
42
0.000000001
43
0.0000000001
44
0.0000000001
40
0
40
0
40
0
40
1
40
1
40
1
10
-29.985875639952827
20
-5.5708428712748166
30
0
10
-29.887005615867782
20
-5.5708428712748166
30
0
10
-29.822033870853591
20
-5.5171706767939206
30
0
0
SPLINE
5
194
100
AcDbEntity
8
0
100
AcDbSpline
70
0
71
2
72
6
73
3
74
0
42
0.000000001
43
0.0000000001
44
0.0000000001
40
0
40
0
40
0
40
1
40
1
40
1
10
-29.822033870853591
20
-5.5171706767939206
30
0
10
-29.757062125839401
20
-5.4634983333014127
30
0
10
-29.73728809867065
20
-5.3844022246264096
30
0
0
LINE
5
195
100
AcDbEntity
8
0
100
AcDbLine
10
-29.73728809867065
20
-5.3844022246264096
30
0
11
-29.271186370290923
21
-5.4804475100897427
31
0
0
SPLINE
5
196
100
AcDbEntity
8
0
100
AcDbSpline
70
0
71
2
72
6
73
3
74
0
42
0.000000001
43
0.0000000001
44
0.0000000001
40
0
40
0
40
0
40
1
40
1
40
1
10
-29.271186370290923
20
-5.4804475100897427
30
0
10
-29.305084723867584
20
-5.6103910001181241
30
0
10
-29.372881282009292
20
-5.7007865103148099
30
0
0
SPLINE
5
197
100
AcDbEntity
8
0
100
AcDbSpline
70
0
71
2
72
6
73
3
74
0
42
0.000000001
43
0.0000000001
44
0.0000000001
40
0
40
0
40
0
40
1
40
1
40
1
10
-29.372881282009292
20
-5.7007865103148099
30
0
10
-29.440677914656806
20
-5.7940068336390134
30
0
10
-29.533898275233913
20
-5.850503990259039
30
0
0
SPLINE
5
198
100
AcDbEntity
8
0
100
AcDbSpline
70
0
71
2
72
6
73
3
74
0
42
0.000000001
43
0.0000000001
44
0.0000000001
40
0
40
0
40
0
40
1
40
1
40
1
10
-29.533898275233913
20
-5.850503990259039
30
0
10
-29.627118598558116
20
-5.9070011468790646
30
0
10
-29.740112949051071
20
-5.9324249120615598
30
0
0
SPLINE
5
199
100
AcDbEntity
8
0
100
AcDbSpline
70
0
71
2
72
6
73
3
74
0
42
0.000000001
43
0.0000000001
44
0.0000000001
40
0
40
0
40
0
40
1
40
1
40
1
10
-29.740112949051071
20
-5.9324249120615598
30
0
10
-29.855932149924445
20
-5.9606734903715726
30
0
10
-29.983050826825309
20
-5.9606734903715726
30
0
0
SPLINE
5
200
100
AcDbEntity
8
0
100
AcDbSpline
70
0
71
2
72
6
73
3
74
0
42
0.000000001
43
0.0000000001
44
0.0000000001
40
0
40
0
40
0
40
1
40
1
40
1
10
-29.983050826825309
20
-5.9606734903715726
30
0
10
-30.115819204487014
20
-5.9606734903715726
30
0
10
-30.23728810612123
20
-5.9267751367949124
30
0
0
SPLINE
5
201
100
AcDbEntity
8
0
100
AcDbSpline
70
0
71
2
72
6
73
3
74
0
42
0.000000001
43
0.0000000001
44
0.0000000001
40
0
40
0
40
0
40
1
40
1
40
1
10
-30.23728810612123
20
-5.9267751367949124
30
0
10
-30.36158189538877
20
-5.8957017453573819
30
0
10
-30.454802218712974
20
-5.8250802250765439
30
0
0
SPLINE
5
202
100
AcDbEntity
8
0
100
AcDbSpline
70
0
71
2
72
6
73
3
74
0
42
0.000000001
43
0.0000000001
44
0.0000000001
40
0
40
0
40
0
40
1
40
1
40
1
10
-30.454802218712974
20
-5.8250802250765439
30
0
10
-30.548022542037177
20
-5.7572836669348355
30
0
10
-30.601694885529685
20
-5.6527637930773373
30
0
0
SPLINE
5
203
100
AcDbEntity
8
0
100
AcDbSpline
70
0
71
2
72
6
73
3
74
0
42
0.000000001
43
0.0000000001
44
0.0000000001
40
0
40
0
40
0
40
1
40
1
40
1
10
-30.601694885529685
20
-5.6527637930773373
30
0
10
-30.658192042149711
20
-5.5482440682314511
30
0
10
-30.658192042149711
20
-5.4041762145422574
30
0
0
SPLINE
5
204
100
AcDbEntity
8
0
100
AcDbSpline
70
0
71
2
72
6
73
3
74
0
42
0.000000001
43
0.0000000001
44
0.0000000001
40
0
40
0
40
0
40
1
40
1
40
1
10
-30.658192042149711
20
-5.4041762145422574
30
0
10
-30.658192042149711
20
-5.2375095578096982
30
0
10
-30.570621494092155
20
-5.1188656183146115
30
0
0
SPLINE
5
205
100
AcDbEntity
8
0
100
AcDbSpline
70
0
71
2
72
6
73
3
74
0
42
0.000000001
43
0.0000000001
44
0.0000000001
40
0
40
0
40
0
40
1
40
1
40
1
10
-30.570621494092155
20
-5.1188656183146115
30
0
10
-30.483050797022987
20
-5.000221380796301
30
0
10
-30.316384140290427
20
-4.9663231762312527
30
0
0
LINE
5
206
100
AcDbEntity
8
0
100
AcDbLine
10
-30.316384140290427
20
-4.9663231762312527
30
0
11
-30.316384140290427
21
-4.9578485878370877
31
0
0
SPLINE
5
207
100
AcDbEntity
8
0
100
AcDbSpline
70
0
71
2
72
6
73
3
74
0
42
0.000000001
43
0.0000000001
44
0.0000000001
40
0
40
0
40
0
40
1
40
1
40
1
10
-30.316384140290427
20
-4.9578485878370877
30
0
10
-30.406779650487113
20
-4.946549186315405
30
0
10
-30.474576208628822
20
-4.9041762443445798
30
0
0
SPLINE
5
208
100
AcDbEntity
8
0
100
AcDbSpline
70
0
71
2
72
6
73
3
74
0
42
0.000000001
43
0.0000000001
44
0.0000000001
40
0
40
0
40
0
40
1
40
1
40
1
10
-30.474576208628822
20
-4.9041762443445798
30
0
10
-30.54519772890966
20
-4.8618033023737546
30
0
10
-30.59322029713552
20
-4.7996565194986935
30
0
0
SPLINE
5
209
100
AcDbEntity
8
0
100
AcDbSpline
70
0
71
2
72
6
73
3
74
0
42
0.000000001
43
0.0000000001
44
0.0000000001
40
0
40
0
40
0
40
1
40
1
40
1
10
-30.59322029713552
20
-4.7996565194986935
30
0
10
-30.641242865361381
20
-4.7375095876120206
30
0
10
-30.666666630543876
20
-4.6584134789370175
30
0
0
SPLINE
5
210
100
AcDbEntity
8
0
100
AcDbSpline
70
0
71
2
72
6
73
3
74
0
42
0.000000001
43
0.0000000001
44
0.0000000001
40
0
40
0
40
0
40
1
40
1
40
1
10
-30.666666630543876
20
-4.6584134789370175
30
0
10
-30.692090395726371
20
-4.5793175192736273
30
0
10
-30.692090395726371
20
-4.4917469712160711
30
0
0
SPLINE
5
211
100
AcDbEntity
8
0
100
AcDbSpline
70
0
71
2
72
6
73
3
74
0
42
0.000000001
43
0.0000000001
44
0.0000000001
40
0
40
0
40
0
40
1
40
1
40
1
10
-30.692090395726371
20
-4.4917469712160711
30
0
10
-30.692090395726371
20
-4.3420293422602301
30
0
10
-30.632768276967216
20
-4.2290350290201788
30
0
0
SPLINE
5
212
100
AcDbEntity
8
0
100
AcDbSpline
70
0
71
2
72
6
73
3
74
0
42
0.000000001
43
0.0000000001
44
0.0000000001
40
0
40
0
40
0
40
1
40
1
40
1
10
-30.632768276967216
20
-4.2290350290201788
30
0
10
-30.57627112034719
20
-4.1160407157801275
30
0
10
-30.477401170767951
20
-4.0397694202326422
30
0
0
SPLINE
5
213
100
AcDbEntity
8
0
100
AcDbSpline
70
0
71
2
72
6
73
3
74
0
42
0.000000001
43
0.0000000001
44
0.0000000001
40
0
40
0
40
0
40
1
40
1
40
1
10
-30.477401170767951
20
-4.0397694202326422
30
0
10
-30.381355885304618
20
-3.9663230868242865
30
0
10
-30.248587582148719
20
-3.9296000691317206
30
0
0
SPLINE
5
214
100
AcDbEntity
8
0
100
AcDbSpline
70
0
71
2
72
6
73
3
74
0
42
0.000000001
43
0.0000000001
44
0.0000000001
40
0
40
0
40
0
40
1
40
1
40
1
10
-30.248587582148719
20
-3.9296000691317206
30
0
10
-30.118644017614532
20
-3.8928767534159308
30
0
10
-29.97175135079782
20
-3.8928767534159308
30
0
0
SPLINE
5
215
100
AcDbEntity
8
0
100
AcDbSpline
70
0
71
2
72
6
73
3
74
0
42
0.000000001
43
0.0000000001
44
0.0000000001
40
0
40
0
40
0
40
1
40
1
40
1
10
-29.97175135079782
20
-3.8928767534159308
30
0
10
-29.703389782346893
20
-3.8928767534159308
30
0
10
-29.508474547304321
20
-4.0171706171892767
30
0
0
SPLINE
5
216
100
AcDbEntity
8
0
100
AcDbSpline
70
0
71
2
72
6
73
3
74
0
42
0.000000001
43
0.0000000001
44
0.0000000001
40
0
40
0
40
0
40
1
40
1
40
1
10
-29.508474547304321
20
-4.0171706171892767
30
0
10
-29.316384125389266
20
-4.1414644809626227
30
0
10
-29.254237268008399
20
-4.4098260494135504
30
0
0
LINE
5
217
100
AcDbEntity
8
0
100
AcDbLine
10
-29.254237268008399
20
-4.4098260494135504
30
0
11
-29.700564931966472
21
-4.5143457742594366
31
0
0
SPLINE
5
218
100
AcDbEntity
8
0
100
AcDbSpline
70
0
71
2
72
6
73
3
74
0
42
0.000000001
43
0.0000000001
44
0.0000000001
40
0
40
0
40
0
40
1
40
1
40
1
10
-29.700564931966472
20
-4.5143457742594366
30
0
10
-29.723163809515643
20
-4.4070010872744207
30
0
10
-29.790960404910255
20
-4.3448543043993597
30
0
0
SPLINE
5
219
100
AcDbEntity
8
0
100
AcDbSpline
70
0
71
2
72
6
73
3
74
0
42
0.000000001
43
0.0000000001
44
0.0000000001
40
0
40
0
40
0
40
1
40
1
40
1
10
-29.790960404910255
20
-4.3448543043993597
30
0
10
-29.861581850685287
20
-4.2827072235010748
30
0
10
-29.997175115980315
20
-4.2827072235010748
30
0
0
SPLINE
5
220
100
AcDbEntity
8
0
100
AcDbSpline
70
0
71
2
72
6
73
3
74
0
42
0.000000001
43
0.0000000001
44
0.0000000001
40
0
40
0
40
0
40
1
40
1
40
1
10
-29.997175115980315
20
-4.2827072235010748
30
0
10
-30.135593194402862
20
-4.2827072235010748
30
0
10
-30.200564939417053
20
-4.3533288927935248
30
0
0
SPLINE
5
221
100
AcDbEntity
8
0
100
AcDbSpline
70
0
71
2
72
6
73
3
74
0
42
0.000000001
43
0.0000000001
44
0.0000000001
40
0
40
0
40
0
40
1
40
1
40
1
10
-30.200564939417053
20
-4.3533288927935248
30
0
10
-30.268361572064567
20
-4.4267752262018805
30
0
10
-30.268361572064567
20
-4.5397695394419317
30
0
0
SPLINE
5
222
100
AcDbEntity
8
0
100
AcDbSpline
70
0
71
2
72
6
73
3
74
0
42
0.000000001
43
0.0000000001
44
0.0000000001
40
0
40
0
40
0
40
1
40
1
40
1
10
-30.268361572064567
20
-4.5397695394419317
30
0
10
-30.268361572064567
20
-4.6245151253603582
30
0
10
-30.231638405360389
20
-4.6697130294703122
30
0
0
SPLINE
5
223
100
AcDbEntity
8
0
100
AcDbSpline
70
0
71
2
72
6
73
3
74
0
42
0.000000001
43
0.0000000001
44
0.0000000001
40
0
40
0
40
0
40
1
40
1
40
1
10
-30.231638405360389
20
-4.6697130294703122
30
0
10
-30.197740051783729
20
-4.7177355976961728
30
0
10
-30.141242895163703
20
-4.7403344007395383
30
0
0
SPLINE
5
224
100
AcDbEntity
8
0
100
AcDbSpline
70
0
71
2
72
6
73
3
74
0
42
0.000000001
43
0.0000000001
44
0.0000000001
40
0
40
0
40
0
40
1
40
1
40
1
10
-30.141242895163703
20
-4.7403344007395383
30
0
10
-30.084745738543678
20
-4.7629333527945157
30
0
10
-30.014124292768646
20
-4.7657581659220334
30
0
0
SPLINE
5
225
100
AcDbEntity
8
0
100
AcDbSpline
70
0
71
2
72
6
73
3
74
0
42
0.000000001
43
0.0000000001
44
0.0000000001
40
0
40
0
40
0
40
1
40
1
40
1
10
-30.014124292768646
20
-4.7657581659220334
30
0
10
-29.943502772487808
20
-4.7714077921770688
30
0
10
-29.872881326712776
20
-4.7714077921770688
30
0
0
LINE
5
226
100
AcDbEntity
8
0
100
AcDbLine
10
-29.872881326712776
20
-4.7714077921770688
30
0
11
-29.774011265374828
21
-4.7714077921770688
31
0
0
LINE
5
227
100
AcDbEntity
8
0
100
AcDbLine
10
-29.774011265374828
20
-4.7714077921770688
30
0
11
-29.774011265374828
21
-5.1386394592188473
31
0
0
LINE
5
228
100
AcDbEntity
8
0
100
AcDbLine
10
-40.104519728459529
20
-4.3279051276110296
30
0
11
-39.231638390459231
21
-4.3279051276110296
31
0
0
LINE
5
229
100
AcDbEntity
8
0
100
AcDbLine
10
-39.231638390459224
20
-4.3279051276110296
30
0
11
-39.231638390459224
21
-4.6838372441195135
31
0
0
LINE
5
230
100
AcDbEntity
8
0
100
AcDbLine
10
-39.231638390459224
20
-4.6838372441195126
30
0
11
-40.048022571839503
21
-5.9267751367949124
31
0
0
LINE
5
231
100
AcDbEntity
8
0
100
AcDbLine
10
-40.048022571839503
20
-5.9267751367949124
30
0
11
-40.511299375333003
21
-5.9267751367949124
31
0
0
LINE
5
232
100
AcDbEntity
8
0
100
AcDbLine
10
-40.511299375333003
20
-5.9267751367949124
30
0
11
-40.511299375333003
21
-4.6838372441195126
31
0
0
LINE
5
233
100
AcDbEntity
8
0
100
AcDbLine
10
-40.511299375333003
20
-4.6838372441195126
30
0
11
-40.768361542262248
21
-4.6838372441195126
31
0
0
LINE
5
234
100
AcDbEntity
8
0
100
AcDbLine
10
-40.768361542262248
20
-4.6838372441195126
30
0
11
-40.768361542262248
21
-4.3279051276110287
31
0
0
LINE
5
235
100
AcDbEntity
8
0
100
AcDbLine
10
-40.768361542262248
20
-4.3279051276110296
30
0
11
-40.511299375333003
21
-4.3279051276110296
31
0
0
LINE
5
236
100
AcDbEntity
8
0
100
AcDbLine
10
-40.511299375333003
20
-4.3279051276110296
30
0
11
-40.511299375333003
21
-3.9267751069925909
31
0
0
LINE
5
237
100
AcDbEntity
8
0
100
AcDbLine
10
-40.511299375333003
20
-3.9267751069925909
30
0
11
-40.104519728459529
21
-3.9267751069925909
31
0
0
LINE
5
238
100
AcDbEntity
8
0
100
AcDbLine
10
-40.104519728459529
20
-3.9267751069925909
30
0
11
-40.104519728459529
21
-4.3279051276110296
31
0
0
LINE
5
239
100
AcDbEntity
8
0
100
AcDbLine
10
-40.104519728459529
20
-5.3731028231047269
30
0
11
-40.098870027698688
21
-5.3731028231047269
31
0
0
LINE
5
240
100
AcDbEntity
8
0
100
AcDbLine
10
-40.098870027698688
20
-5.3731028231047269
30
0
11
-39.655367176868133
21
-4.6838372441195126
31
0
0
LINE
5
241
100
AcDbEntity
8
0
100
AcDbLine
10
-39.655367176868126
20
-4.6838372441195126
30
0
11
-40.104519728459529
21
-4.6838372441195126
31
0
0
LINE
5
242
100
AcDbEntity
8
0
100
AcDbLine
10
-40.104519728459529
20
-4.6838372441195126
30
0
11
-40.104519728459529
21
-5.3731028231047269
31
0
0
LINE
5
243
100
AcDbEntity
8
0
100
AcDbLine
10
-50.624293837584666
20
-5.5538938434980984
30
0
11
-49.83050845924776
21
-5.5538938434980984
31
0
0
LINE
5
244
100
AcDbEntity
8
0
100
AcDbLine
10
-49.83050845924776
20
-5.5538938434980984
30
0
11
-49.822033870853595
21
-5.2459841462038632
31
0
0
SPLINE
5
245
100
AcDbEntity
8
0
100
AcDbSpline
70
0
71
2
72
6
73
3
74
0
42
0.000000001
43
0.0000000001
44
0.0000000001
40
0
40
0
40
0
40
1
40
1
40
1
10
-49.822033870853595
20
-5.2459841462038632
30
0
10
-49.887005615867785
20
-5.2685830982588406
30
0
10
-50.000000003613643
20
-5.2685830982588406
30
0
0
SPLINE
5
246
100
AcDbEntity
8
0
100
AcDbSpline
70
0
71
2
72
6
73
3
74
0
42
0.000000001
43
0.0000000001
44
0.0000000001
40
0
40
0
40
0
40
1
40
1
40
1
10
-50.000000003613643
20
-5.2685830982588406
30
0
10
-50.152542371191196
20
-5.2685830982588406
30
0
10
-50.279660973586253
20
-5.2233853431604977
30
0
0
SPLINE
5
247
100
AcDbEntity
8
0
100
AcDbSpline
70
0
71
2
72
6
73
3
74
0
42
0.000000001
43
0.0000000001
44
0.0000000001
40
0
40
0
40
0
40
1
40
1
40
1
10
-50.279660973586253
20
-5.2233853431604977
30
0
10
-50.406779650487117
20
-5.1781875880621548
30
0
10
-50.497175160683803
20
-5.0906168909929868
30
0
0
SPLINE
5
248
100
AcDbEntity
8
0
100
AcDbSpline
70
0
71
2
72
6
73
3
74
0
42
0.000000001
43
0.0000000001
44
0.0000000001
40
0
40
0
40
0
40
1
40
1
40
1
10
-50.497175160683803
20
-5.0906168909929868
30
0
10
-50.590395484008006
20
-5.0058711560629483
30
0
10
-50.641242865361384
20
-4.8815774413012143
30
0
0
SPLINE
5
249
100
AcDbEntity
8
0
100
AcDbSpline
70
0
71
2
72
6
73
3
74
0
42
0.000000001
43
0.0000000001
44
0.0000000001
40
0
40
0
40
0
40
1
40
1
40
1
10
-50.641242865361384
20
-4.8815774413012143
30
0
10
-50.692090395726375
20
-4.760108539666998
30
0
10
-50.692090395726375
20
-4.607566246595252
30
0
0
SPLINE
5
250
100
AcDbEntity
8
0
100
AcDbSpline
70
0
71
2
72
6
73
3
74
0
42
0.000000001
43
0.0000000001
44
0.0000000001
40
0
40
0
40
0
40
1
40
1
40
1
10
-50.692090395726375
20
-4.607566246595252
30
0
10
-50.692090395726375
20
-4.4380744787119513
30
0
10
-50.632768276967219
20
-4.3053063245676642
30
0
0
SPLINE
5
251
100
AcDbEntity
8
0
100
AcDbSpline
70
0
71
2
72
6
73
3
74
0
42
0.000000001
43
0.0000000001
44
0.0000000001
40
0
40
0
40
0
40
1
40
1
40
1
10
-50.632768276967219
20
-4.3053063245676642
30
0
10
-50.576271120347194
20
-4.1725378724001532
30
0
10
-50.474576208628825
20
-4.0793174000643377
30
0
0
SPLINE
5
252
100
AcDbEntity
8
0
100
AcDbSpline
70
0
71
2
72
6
73
3
74
0
42
0.000000001
43
0.0000000001
44
0.0000000001
40
0
40
0
40
0
40
1
40
1
40
1
10
-50.474576208628825
20
-4.0793174000643377
30
0
10
-50.372881296910457
20
-3.9889218898676519
30
0
10
-50.231638405360393
20
-3.9408993216417914
30
0
0
SPLINE
5
253
100
AcDbEntity
8
0
100
AcDbSpline
70
0
71
2
72
6
73
3
74
0
42
0.000000001
43
0.0000000001
44
0.0000000001
40
0
40
0
40
0
40
1
40
1
40
1
10
-50.231638405360393
20
-3.9408993216417914
30
0
10
-50.093220326937846
20
-3.8928767534159308
30
0
10
-49.929378483332805
20
-3.8928767534159308
30
0
0
SPLINE
5
254
100
AcDbEntity
8
0
100
AcDbSpline
70
0
71
2
72
6
73
3
74
0
42
0.000000001
43
0.0000000001
44
0.0000000001
40
0
40
0
40
0
40
1
40
1
40
1
10
-49.929378483332805
20
-3.8928767534159308
30
0
10
-49.669491503276042
20
-3.8928767534159308
30
0
10
-49.494350258149318
20
-4.0199955793284063
30
0
0
SPLINE
5
255
100
AcDbEntity
8
0
100
AcDbSpline
70
0
71
2
72
6
73
3
74
0
42
0.000000001
43
0.0000000001
44
0.0000000001
40
0
40
0
40
0
40
1
40
1
40
1
10
-49.494350258149318
20
-4.0199955793284063
30
0
10
-49.319209013022594
20
-4.1471141072176581
30
0
10
-49.254237268008403
20
-4.4041761251352911
30
0
0
LINE
5
256
100
AcDbEntity
8
0
100
AcDbLine
10
-49.254237268008403
20
-4.4041761251352911
30
0
11
-49.697740081586055
21
-4.5058711858652716
31
0
0
SPLINE
5
257
100
AcDbEntity
8
0
100
AcDbSpline
70
0
71
2
72
6
73
3
74
0
42
0.000000001
43
0.0000000001
44
0.0000000001
40
0
40
0
40
0
40
1
40
1
40
1
10
-49.697740081586055
20
-4.5058711858652716
30
0
10
-49.714689221121482
20
-4.3985264988802557
30
0
10
-49.788135554529838
20
-4.3307297917269354
30
0
0
SPLINE
5
258
100
AcDbEntity
8
0
100
AcDbSpline
70
0
71
2
72
6
73
3
74
0
42
0.000000001
43
0.0000000001
44
0.0000000001
40
0
40
0
40
0
40
1
40
1
40
1
10
-49.788135554529838
20
-4.3307297917269354
30
0
10
-49.86158185068529
20
-4.2657580467127447
30
0
10
-49.971751350797824
20
-4.2657580467127447
30
0
0
SPLINE
5
259
100
AcDbEntity
8
0
100
AcDbSpline
70
0
71
2
72
6
73
3
74
0
42
0.000000001
43
0.0000000001
44
0.0000000001
40
0
40
0
40
0
40
1
40
1
40
1
10
-49.971751350797824
20
-4.2657580467127447
30
0
10
-50.107344616092853
20
-4.2657580467127447
30
0
10
-50.18644065026205
20
-4.3505039306543951
30
0
0
SPLINE
5
260
100
AcDbEntity
8
0
100
AcDbSpline
70
0
71
2
72
6
73
3
74
0
42
0.000000001
43
0.0000000001
44
0.0000000001
40
0
40
0
40
0
40
1
40
1
40
1
10
-50.18644065026205
20
-4.3505039306543951
30
0
10
-50.26836157206457
20
-4.4352498145960455
30
0
10
-50.26836157206457
20
-4.5651933046244269
30
0
0
SPLINE
5
261
100
AcDbEntity
8
0
100
AcDbSpline
70
0
71
2
72
6
73
3
74
0
42
0.000000001
43
0.0000000001
44
0.0000000001
40
0
40
0
40
0
40
1
40
1
40
1
10
-50.26836157206457
20
-4.5651933046244269
30
0
10
-50.26836157206457
20
-4.6640632542036649
30
0
10
-50.225988704599551
20
-4.7262101860903378
30
0
0
SPLINE
5
262
100
AcDbEntity
8
0
100
AcDbSpline
70
0
71
2
72
6
73
3
74
0
42
0.000000001
43
0.0000000001
44
0.0000000001
40
0
40
0
40
0
40
1
40
1
40
1
10
-50.225988704599551
20
-4.7262101860903378
30
0
10
-50.18644065026205
20
-4.7911819311045285
30
0
10
-50.118644017614535
20
-4.8279050978087064
30
0
0
SPLINE
5
263
100
AcDbEntity
8
0
100
AcDbSpline
70
0
71
2
72
6
73
3
74
0
42
0.000000001
43
0.0000000001
44
0.0000000001
40
0
40
0
40
0
40
1
40
1
40
1
10
-50.118644017614535
20
-4.8279050978087064
30
0
10
-50.053672272600345
20
-4.8674530776404019
30
0
10
-49.971751350797824
20
-4.8815774413012143
30
0
0
SPLINE
5
264
100
AcDbEntity
8
0
100
AcDbSpline
70
0
71
2
72
6
73
3
74
0
42
0.000000001
43
0.0000000001
44
0.0000000001
40
0
40
0
40
0
40
1
40
1
40
1
10
-49.971751350797824
20
-4.8815774413012143
30
0
10
-49.889830503501109
20
-4.8957016559504147
30
0
10
-49.807909581698588
20
-4.8957016559504147
30
0
0
SPLINE
5
265
100
AcDbEntity
8
0
100
AcDbSpline
70
0
71
2
72
6
73
3
74
0
42
0.000000001
43
0.0000000001
44
0.0000000001
40
0
40
0
40
0
40
1
40
1
40
1
10
-49.807909581698588
20
-4.8957016559504147
30
0
10
-49.703389782346896
20
-4.8957016559504147
30
0
10
-49.596045169867686
20
-4.875927666034567
30
0
0
SPLINE
5
266
100
AcDbEntity
8
0
100
AcDbSpline
70
0
71
2
72
6
73
3
74
0
42
0.000000001
43
0.0000000001
44
0.0000000001
40
0
40
0
40
0
40
1
40
1
40
1
10
-49.596045169867686
20
-4.875927666034567
30
0
10
-49.491525370515994
20
-4.8561536761187192
30
0
10
-49.392655346430949
20
-4.822255322542059
30
0
0
LINE
5
267
100
AcDbEntity
8
0
100
AcDbLine
10
-49.392655346430949
20
-4.822255322542059
30
0
11
-49.415254186727218
21
-5.9267751367949124
31
0
0
LINE
5
268
100
AcDbEntity
8
0
100
AcDbLine
10
-49.415254186727218
20
-5.9267751367949124
30
0
11
-50.624293837584666
21
-5.9267751367949124
31
0
0
LINE
5
269
100
AcDbEntity
8
0
100
AcDbLine
10
-50.624293837584666
20
-5.9267751367949124
30
0
11
-50.624293837584666
21
-5.5538938434980984
31
0
0
SPLINE
5
270
100
AcDbEntity
8
0
100
AcDbSpline
70
0
71
2
72
6
73
3
74
0
42
0.000000001
43
0.0000000001
44
0.0000000001
40
0
40
0
40
0
40
1
40
1
40
1
10
-59.974576238431148
20
-5.212085941638815
30
0
10
-60.008474517502002
20
-5.2205603810213681
30
0
10
-60.042372871078662
20
-5.2262101562880154
30
0
0
SPLINE
5
271
100
AcDbEntity
8
0
100
AcDbSpline
70
0
71
2
72
6
73
3
74
0
42
0.000000001
43
0.0000000001
44
0.0000000001
40
0
40
0
40
0
40
1
40
1
40
1
10
-60.042372871078662
20
-5.2262101562880154
30
0
10
-60.076271150149516
20
-5.2318599315546628
30
0
10
-60.112994316853694
20
-5.2318599315546628
30
0
0
SPLINE
5
272
100
AcDbEntity
8
0
100
AcDbSpline
70
0
71
2
72
6
73
3
74
0
42
0.000000001
43
0.0000000001
44
0.0000000001
40
0
40
0
40
0
40
1
40
1
40
1
10
-60.112994316853694
20
-5.2318599315546628
30
0
10
-60.254237282909564
20
-5.2318599315546628
30
0
10
-60.370056483782939
20
-5.1810124011896725
30
0
0
SPLINE
5
273
100
AcDbEntity
8
0
100
AcDbSpline
70
0
71
2
72
6
73
3
74
0
42
0.000000001
43
0.0000000001
44
0.0000000001
40
0
40
0
40
0
40
1
40
1
40
1
10
-60.370056483782939
20
-5.1810124011896725
30
0
10
-60.48587575916212
20
-5.1301648708246823
30
0
10
-60.567796531953029
20
-5.0425943227671262
30
0
0
SPLINE
5
274
100
AcDbEntity
8
0
100
AcDbSpline
70
0
71
2
72
6
73
3
74
0
42
0.000000001
43
0.0000000001
44
0.0000000001
40
0
40
0
40
0
40
1
40
1
40
1
10
-60.567796531953029
20
-5.0425943227671262
30
0
10
-60.649717453755549
20
-4.95502377470957
30
0
10
-60.694915208853892
20
-4.8335548730753537
30
0
0
SPLINE
5
275
100
AcDbEntity
8
0
100
AcDbSpline
70
0
71
2
72
6
73
3
74
0
42
0.000000001
43
0.0000000001
44
0.0000000001
40
0
40
0
40
0
40
1
40
1
40
1
10
-60.694915208853892
20
-4.8335548730753537
30
0
10
-60.740112963952235
20
-4.7149106355570432
30
0
10
-60.740112963952235
20
-4.5793175192736273
30
0
0
SPLINE
5
276
100
AcDbEntity
8
0
100
AcDbSpline
70
0
71
2
72
6
73
3
74
0
42
0.000000001
43
0.0000000001
44
0.0000000001
40
0
40
0
40
0
40
1
40
1
40
1
10
-60.740112963952235
20
-4.5793175192736273
30
0
10
-60.740112963952235
20
-4.4239502640627508
30
0
10
-60.680790994204692
20
-4.2968317361734991
30
0
0
SPLINE
5
277
100
AcDbEntity
8
0
100
AcDbSpline
70
0
71
2
72
6
73
3
74
0
42
0.000000001
43
0.0000000001
44
0.0000000001
40
0
40
0
40
0
40
1
40
1
40
1
10
-60.680790994204692
20
-4.2968317361734991
30
0
10
-60.624293837584666
20
-4.1725378724001532
30
0
10
-60.522598776854686
20
-4.0821423622034674
30
0
0
SPLINE
5
278
100
AcDbEntity
8
0
100
AcDbSpline
70
0
71
2
72
6
73
3
74
0
42
0.000000001
43
0.0000000001
44
0.0000000001
40
0
40
0
40
0
40
1
40
1
40
1
10
-60.522598776854686
20
-4.0821423622034674
30
0
10
-60.423728827275447
20
-3.9917468520067816
30
0
10
-60.285310674347095
20
-3.9408993216417914
30
0
0
SPLINE
5
279
100
AcDbEntity
8
0
100
AcDbSpline
70
0
71
2
72
6
73
3
74
0
42
0.000000001
43
0.0000000001
44
0.0000000001
40
0
40
0
40
0
40
1
40
1
40
1
10
-60.285310674347095
20
-3.9408993216417914
30
0
10
-60.149717483557872
20
-3.8928767534159308
30
0
10
-59.994350228346995
20
-3.8928767534159308
30
0
0
SPLINE
5
280
100
AcDbEntity
8
0
100
AcDbSpline
70
0
71
2
72
6
73
3
74
0
42
0.000000001
43
0.0000000001
44
0.0000000001
40
0
40
0
40
0
40
1
40
1
40
1
10
-59.994350228346995
20
-3.8928767534159308
30
0
10
-59.836158160008601
20
-3.8928767534159308
30
0
10
-59.700564931966476
20
-3.9408993216417914
30
0
0
SPLINE
5
281
100
AcDbEntity
8
0
100
AcDbSpline
70
0
71
2
72
6
73
3
74
0
42
0.000000001
43
0.0000000001
44
0.0000000001
40
0
40
0
40
0
40
1
40
1
40
1
10
-59.700564931966476
20
-3.9408993216417914
30
0
10
-59.56497170392435
20
-3.9917468520067816
30
0
10
-59.463276792205981
20
-4.0821423622034674
30
0
0
SPLINE
5
282
100
AcDbEntity
8
0
100
AcDbSpline
70
0
71
2
72
6
73
3
74
0
42
0.000000001
43
0.0000000001
44
0.0000000001
40
0
40
0
40
0
40
1
40
1
40
1
10
-59.463276792205981
20
-4.0821423622034674
30
0
10
-59.36440669361513
20
-4.1725378724001532
30
0
10
-59.305084723867587
20
-4.2968317361734991
30
0
0
SPLINE
5
283
100
AcDbEntity
8
0
100
AcDbSpline
70
0
71
2
72
6
73
3
74
0
42
0.000000001
43
0.0000000001
44
0.0000000001
40
0
40
0
40
0
40
1
40
1
40
1
10
-59.305084723867587
20
-4.2968317361734991
30
0
10
-59.248587492741756
20
-4.4239502640627508
30
0
10
-59.248587492741756
20
-4.5793175192736273
30
0
0
SPLINE
5
284
100
AcDbEntity
8
0
100
AcDbSpline
70
0
71
2
72
6
73
3
74
0
42
0.000000001
43
0.0000000001
44
0.0000000001
40
0
40
0
40
0
40
1
40
1
40
1
10
-59.248587492741756
20
-4.5793175192736273
30
0
10
-59.248587492741756
20
-4.6866622062586423
30
0
10
-59.268361557163409
20
-4.7742327543161984
30
0
0
SPLINE
5
285
100
AcDbEntity
8
0
100
AcDbSpline
70
0
71
2
72
6
73
3
74
0
42
0.000000001
43
0.0000000001
44
0.0000000001
40
0
40
0
40
0
40
1
40
1
40
1
10
-59.268361557163409
20
-4.7742327543161984
30
0
10
-59.288135547079257
20
-4.8646282645128842
30
0
10
-59.319209013022594
20
-4.9437242241762753
30
0
0
SPLINE
5
286
100
AcDbEntity
8
0
100
AcDbSpline
70
0
71
2
72
6
73
3
74
0
42
0.000000001
43
0.0000000001
44
0.0000000001
40
0
40
0
40
0
40
1
40
1
40
1
10
-59.319209013022594
20
-4.9437242241762753
30
0
10
-59.353107292093448
20
-5.0228203328512784
30
0
10
-59.395480159558467
20
-5.0934418531321164
30
0
0
SPLINE
5
287
100
AcDbEntity
8
0
100
AcDbSpline
70
0
71
2
72
6
73
3
74
0
42
0.000000001
43
0.0000000001
44
0.0000000001
40
0
40
0
40
0
40
1
40
1
40
1
10
-59.395480159558467
20
-5.0934418531321164
30
0
10
-59.44067791465681
20
-5.1668881865404721
30
0
10
-59.488700520135573
20
-5.2431593330763455
30
0
0
LINE
5
288
100
AcDbEntity
8
0
100
AcDbLine
10
-59.488700520135573
20
-5.2431593330763455
30
0
11
-59.926553670205287
21
-5.9267751367949124
31
0
0
LINE
5
289
100
AcDbEntity
8
0
100
AcDbLine
10
-59.926553670205287
20
-5.9267751367949124
30
0
11
-60.443502817191295
21
-5.9267751367949124
31
0
0
LINE
5
290
100
AcDbEntity
8
0
100
AcDbLine
10
-60.443502817191295
20
-5.9267751367949124
30
0
11
-59.974576238431148
21
-5.212085941638815
31
0
0
SPLINE
5
291
100
AcDbEntity
8
0
100
AcDbSpline
70
0
71
2
72
6
73
3
74
0
42
0.000000001
43
0.0000000001
44
0.0000000001
40
0
40
0
40
0
40
1
40
1
40
1
10
-60.316384140290431
20
-4.5962666960619574
30
0
10
-60.316384140290431
20
-4.7318598123453732
30
0
10
-60.225988704599551
20
-4.8194305094145413
30
0
0
SPLINE
5
292
100
AcDbEntity
8
0
100
AcDbSpline
70
0
71
2
72
6
73
3
74
0
42
0.000000001
43
0.0000000001
44
0.0000000001
40
0
40
0
40
0
40
1
40
1
40
1
10
-60.225988704599551
20
-4.8194305094145413
30
0
10
-60.138418082036189
20
-4.9098258705996152
30
0
10
-59.994350228346995
20
-4.9098258705996152
30
0
0
SPLINE
5
293
100
AcDbEntity
8
0
100
AcDbSpline
70
0
71
2
72
6
73
3
74
0
42
0.000000001
43
0.0000000001
44
0.0000000001
40
0
40
0
40
0
40
1
40
1
40
1
10
-59.994350228346995
20
-4.9098258705996152
30
0
10
-59.850282449163608
20
-4.9098258705996152
30
0
10
-59.759886976219825
20
-4.8194305094145413
30
0
0
SPLINE
5
294
100
AcDbEntity
8
0
100
AcDbSpline
70
0
71
2
72
6
73
3
74
0
42
0.000000001
43
0.0000000001
44
0.0000000001
40
0
40
0
40
0
40
1
40
1
40
1
10
-59.759886976219825
20
-4.8194305094145413
30
0
10
-59.672316353656463
20
-4.7318598123453732
30
0
10
-59.672316353656463
20
-4.5962666960619574
30
0
0
SPLINE
5
295
100
AcDbEntity
8
0
100
AcDbSpline
70
0
71
2
72
6
73
3
74
0
42
0.000000001
43
0.0000000001
44
0.0000000001
40
0
40
0
40
0
40
1
40
1
40
1
10
-59.672316353656463
20
-4.5962666960619574
30
0
10
-59.672316353656463
20
-4.4606735797785406
30
0
10
-59.759886976219825
20
-4.3702780695818548
30
0
0
SPLINE
5
296
100
AcDbEntity
8
0
100
AcDbSpline
70
0
71
2
72
6
73
3
74
0
42
0.000000001
43
0.0000000001
44
0.0000000001
40
0
40
0
40
0
40
1
40
1
40
1
10
-59.759886976219825
20
-4.3702780695818548
30
0
10
-59.850282449163608
20
-4.2827072235010748
30
0
10
-59.994350228346995
20
-4.2827072235010748
30
0
0
SPLINE
5
297
100
AcDbEntity
8
0
100
AcDbSpline
70
0
71
2
72
6
73
3
74
0
42
0.000000001
43
0.0000000001
44
0.0000000001
40
0
40
0
40
0
40
1
40
1
40
1
10
-59.994350228346995
20
-4.2827072235010748
30
0
10
-60.138418082036189
20
-4.2827072235010748
30
0
10
-60.225988704599551
20
-4.3702780695818548
30
0
0
SPLINE
5
298
100
AcDbEntity
8
0
100
AcDbSpline
70
0
71
2
72
6
73
3
74
0
42
0.000000001
43
0.0000000001
44
0.0000000001
40
0
40
0
40
0
40
1
40
1
40
1
10
-60.225988704599551
20
-4.3702780695818548
30
0
10
-60.316384140290431
20
-4.4606735797785406
30
0
10
-60.316384140290431
20
-4.5962666960619574
30
0
0
LINE
5
299
100
AcDbEntity
8
0
100
AcDbLine
10
-70.257062096037089
20
-5.5369446667097684
30
0
11
-69.268361557163416
21
-5.5369446667097684
31
0
0
LINE
5
300
100
AcDbEntity
8
0
100
AcDbLine
10
-69.268361557163416
20
-5.5369446667097684
30
0
11
-69.268361557163416
21
-5.9267751367949124
31
0
0
LINE
5
301
100
AcDbEntity
8
0
100
AcDbLine
10
-69.268361557163416
20
-5.9267751367949124
30
0
11
-70.731638375558077
21
-5.9267751367949124
31
0
0
LINE
5
302
100
AcDbEntity
8
0
100
AcDbLine
10
-70.731638375558077
20
-5.9267751367949124
30
0
11
-70.731638375558077
21
-5.5538938434980984
31
0
0
LINE
5
303
100
AcDbEntity
8
0
100
AcDbLine
10
-70.731638375558077
20
-5.5538938434980984
30
0
11
-69.932203370966135
21
-3.9267751069925905
31
0
0
LINE
5
304
100
AcDbEntity
8
0
100
AcDbLine
10
-69.932203370966135
20
-3.9267751069925909
30
0
11
-69.437853064276396
21
-3.9267751069925909
31
0
0
LINE
5
305
100
AcDbEntity
8
0
100
AcDbLine
10
-69.437853064276396
20
-3.9267751069925909
30
0
11
-70.257062096037089
21
-5.5369446667097684
31
0
0
LINE
5
306
100
AcDbEntity
8
0
100
AcDbLine
10
-9.9774011260644677
20
-5.4521989317797299
30
0
11
-9.576271142698932
21
-5.0990914793871518
31
0
0
LINE
5
307
100
AcDbEntity
8
0
100
AcDbLine
10
-9.576271142698932
20
-5.0990914793871518
30
0
11
-9.3361581153051141
21
-5.3759276362322446
31
0
0
LINE
5
308
100
AcDbEntity
8
0
100
AcDbLine
10
-9.3361581153051141
20
-5.3759276362322446
30
0
11
-9.9887005275861505
21
-5.9267751367949124
31
0
0
LINE
5
309
100
AcDbEntity
8
0
100
AcDbLine
10
-9.9887005275861505
20
-5.9267751367949124
30
0
11
-10.384180772937942
21
-5.9267751367949124
31
0
0
LINE
5
310
100
AcDbEntity
8
0
100
AcDbLine
10
-10.384180772937942
20
-5.9267751367949124
30
0
11
-10.384180772937942
21
-3.9267751069925905
31
0
0
LINE
5
311
100
AcDbEntity
8
0
100
AcDbLine
10
-10.384180772937942
20
-3.9267751069925909
30
0
11
-9.9774011260644677
21
-3.9267751069925909
31
0
0
LINE
5
312
100
AcDbEntity
8
0
100
AcDbLine
10
-9.9774011260644677
20
-3.9267751069925909
30
0
11
-9.9774011260644677
21
-5.4521989317797299
31
0
0
LINE
5
313
100
AcDbEntity
8
0
100
AcDbLine
10
-11.098090149462223
20
3.9745762135740801
30
0
11
-10.696960277855396
21
4.3276836659666582
31
0
0
LINE
5
314
100
AcDbEntity
8
0
100
AcDbLine
10
-10.696960277855396
20
4.3276836659666582
30
0
11
-10.456847287714481
21
4.0508475091215654
31
0
0
LINE
5
315
100
AcDbEntity
8
0
100
AcDbLine
10
-10.456847287714481
20
4.0508475091215654
30
0
11
-11.109389699995518
21
3.5000000085588976
31
0
0
LINE
5
316
100
AcDbEntity
8
0
100
AcDbLine
10
-11.109389699995518
20
3.5000000085588976
30
0
11
-11.504869796335697
21
3.5000000085588976
31
0
0
LINE
5
317
100
AcDbEntity
8
0
100
AcDbLine
10
-11.504869796335697
20
3.5000000085588976
30
0
11
-11.504869796335695
21
5.50000003836122
31
0
0
LINE
5
318
100
AcDbEntity
8
0
100
AcDbLine
10
-11.504869796335697
20
5.50000003836122
30
0
11
-11.098090149462223
21
5.50000003836122
31
0
0
LINE
5
319
100
AcDbEntity
8
0
100
AcDbLine
10
-11.098090149462223
20
5.50000003836122
30
0
11
-11.098090149462225
21
3.9745762135740801
31
0
0
SPLINE
5
320
100
AcDbEntity
8
0
100
AcDbSpline
70
0
71
2
72
6
73
3
74
0
42
0.000000001
43
0.0000000001
44
0.0000000001
40
0
40
0
40
0
40
1
40
1
40
1
10
-13.035943545401096
20
4.5706214692350908
30
0
10
-13.004869855940342
20
4.5254237141367479
30
0
10
-12.948372699320316
20
4.4971751358267351
30
0
0
SPLINE
5
321
100
AcDbEntity
8
0
100
AcDbSpline
70
0
71
2
72
6
73
3
74
0
42
0.000000001
43
0.0000000001
44
0.0000000001
40
0
40
0
40
0
40
1
40
1
40
1
10
-12.948372699320316
20
4.4971751358267351
30
0
10
-12.891875542700291
20
4.4661017443892046
30
0
10
-12.8269037976861
20
4.4661017443892046
30
0
0
SPLINE
5
322
100
AcDbEntity
8
0
100
AcDbSpline
70
0
71
2
72
6
73
3
74
0
42
0.000000001
43
0.0000000001
44
0.0000000001
40
0
40
0
40
0
40
1
40
1
40
1
10
-12.8269037976861
20
4.4661017443892046
30
0
10
-12.665886916220188
20
4.4661017443892046
30
0
10
-12.575491406023502
20
4.5621468808409258
30
0
0
SPLINE
5
323
100
AcDbEntity
8
0
100
AcDbSpline
70
0
71
2
72
6
73
3
74
0
42
0.000000001
43
0.0000000001
44
0.0000000001
40
0
40
0
40
0
40
1
40
1
40
1
10
-12.575491406023502
20
4.5621468808409258
30
0
10
-12.487920857965946
20
4.658192017292647
30
0
10
-12.487920857965946
20
4.8135592725035234
30
0
0
SPLINE
5
324
100
AcDbEntity
8
0
100
AcDbSpline
70
0
71
2
72
6
73
3
74
0
42
0.000000001
43
0.0000000001
44
0.0000000001
40
0
40
0
40
0
40
1
40
1
40
1
10
-12.487920857965946
20
4.8135592725035234
30
0
10
-12.487920857965946
20
4.9689265277143999
30
0
10
-12.575491406023502
20
5.0649716641661211
30
0
0
SPLINE
5
325
100
AcDbEntity
8
0
100
AcDbSpline
70
0
71
2
72
6
73
3
74
0
42
0.000000001
43
0.0000000001
44
0.0000000001
40
0
40
0
40
0
40
1
40
1
40
1
10
-12.575491406023502
20
5.0649716641661211
30
0
10
-12.665886916220188
20
5.1610170986410662
30
0
10
-12.8269037976861
20
5.1610170986410662
30
0
0
SPLINE
5
326
100
AcDbEntity
8
0
100
AcDbSpline
70
0
71
2
72
6
73
3
74
0
42
0.000000001
43
0.0000000001
44
0.0000000001
40
0
40
0
40
0
40
1
40
1
40
1
10
-12.8269037976861
20
5.1610170986410662
30
0
10
-12.89752546697855
20
5.1610170986410662
30
0
10
-12.948372699320316
20
5.1299434091803118
30
0
0
SPLINE
5
327
100
AcDbEntity
8
0
100
AcDbSpline
70
0
71
2
72
6
73
3
74
0
42
0.000000001
43
0.0000000001
44
0.0000000001
40
0
40
0
40
0
40
1
40
1
40
1
10
-12.948372699320316
20
5.1299434091803118
30
0
10
-12.999220229685307
20
5.0988700177427813
30
0
10
-13.035943545401096
20
5.0564970757719561
30
0
0
LINE
5
328
100
AcDbEntity
8
0
100
AcDbLine
10
-13.035943545401096
20
5.0564970757719561
30
0
11
-13.315604366362095
21
5.3502824094053789
31
0
0
SPLINE
5
329
100
AcDbEntity
8
0
100
AcDbSpline
70
0
71
2
72
6
73
3
74
0
42
0.000000001
43
0.0000000001
44
0.0000000001
40
0
40
0
40
0
40
1
40
1
40
1
10
-13.315604366362095
20
5.3502824094053789
30
0
10
-13.216734267771244
20
5.4519774701353594
30
0
10
-13.081141151487827
20
5.4943504121061846
30
0
0
SPLINE
5
330
100
AcDbEntity
8
0
100
AcDbSpline
70
0
71
2
72
6
73
3
74
0
42
0.000000001
43
0.0000000001
44
0.0000000001
40
0
40
0
40
0
40
1
40
1
40
1
10
-13.081141151487827
20
5.4943504121061846
30
0
10
-12.948372699320316
20
5.5338983919378801
30
0
10
-12.8269037976861
20
5.5338983919378801
30
0
0
SPLINE
5
331
100
AcDbEntity
8
0
100
AcDbSpline
70
0
71
2
72
6
73
3
74
0
42
0.000000001
43
0.0000000001
44
0.0000000001
40
0
40
0
40
0
40
1
40
1
40
1
10
-12.8269037976861
20
5.5338983919378801
30
0
10
-12.668711580336094
20
5.5338983919378801
30
0
10
-12.527468837797642
20
5.4830508615728899
30
0
0
SPLINE
5
332
100
AcDbEntity
8
0
100
AcDbSpline
70
0
71
2
72
6
73
3
74
0
42
0.000000001
43
0.0000000001
44
0.0000000001
40
0
40
0
40
0
40
1
40
1
40
1
10
-12.527468837797642
20
5.4830508615728899
30
0
10
-12.389050759375095
20
5.4322033312078997
30
0
10
-12.284531034529209
20
5.3389831568953081
30
0
0
SPLINE
5
333
100
AcDbEntity
8
0
100
AcDbSpline
70
0
71
2
72
6
73
3
74
0
42
0.000000001
43
0.0000000001
44
0.0000000001
40
0
40
0
40
0
40
1
40
1
40
1
10
-12.284531034529209
20
5.3389831568953081
30
0
10
-12.182836122810841
20
5.2429380204435869
30
0
10
-12.123514004051685
20
5.1101695682760759
30
0
0
SPLINE
5
334
100
AcDbEntity
8
0
100
AcDbSpline
70
0
71
2
72
6
73
3
74
0
42
0.000000001
43
0.0000000001
44
0.0000000001
40
0
40
0
40
0
40
1
40
1
40
1
10
-12.123514004051685
20
5.1101695682760759
30
0
10
-12.064192034304142
20
4.9774011161085649
30
0
10
-12.064192034304142
20
4.8135592725035234
30
0
0
SPLINE
5
335
100
AcDbEntity
8
0
100
AcDbSpline
70
0
71
2
72
6
73
3
74
0
42
0.000000001
43
0.0000000001
44
0.0000000001
40
0
40
0
40
0
40
1
40
1
40
1
10
-12.064192034304142
20
4.8135592725035234
30
0
10
-12.064192034304142
20
4.6497174288984819
30
0
10
-12.123514004051685
20
4.5169492747541948
30
0
0
SPLINE
5
336
100
AcDbEntity
8
0
100
AcDbSpline
70
0
71
2
72
6
73
3
74
0
42
0.000000001
43
0.0000000001
44
0.0000000001
40
0
40
0
40
0
40
1
40
1
40
1
10
-12.123514004051685
20
4.5169492747541948
30
0
10
-12.182836122810841
20
4.3841808225866838
30
0
10
-12.284531034529209
20
4.2909604992624804
30
0
0
SPLINE
5
337
100
AcDbEntity
8
0
100
AcDbSpline
70
0
71
2
72
6
73
3
74
0
42
0.000000001
43
0.0000000001
44
0.0000000001
40
0
40
0
40
0
40
1
40
1
40
1
10
-12.284531034529209
20
4.2909604992624804
30
0
10
-12.389050759375095
20
4.1949152137991472
30
0
10
-12.527468837797642
20
4.1440678324457689
30
0
0
SPLINE
5
338
100
AcDbEntity
8
0
100
AcDbSpline
70
0
71
2
72
6
73
3
74
0
42
0.000000001
43
0.0000000001
44
0.0000000001
40
0
40
0
40
0
40
1
40
1
40
1
10
-12.527468837797642
20
4.1440678324457689
30
0
10
-12.668711580336094
20
4.0932203020807787
30
0
10
-12.8269037976861
20
4.0932203020807787
30
0
0
SPLINE
5
339
100
AcDbEntity
8
0
100
AcDbSpline
70
0
71
2
72
6
73
3
74
0
42
0.000000001
43
0.0000000001
44
0.0000000001
40
0
40
0
40
0
40
1
40
1
40
1
10
-12.8269037976861
20
4.0932203020807787
30
0
10
-12.948372699320316
20
4.0932203020807787
30
0
10
-13.081141151487827
20
4.1355932440516039
30
0
0
SPLINE
5
340
100
AcDbEntity
8
0
100
AcDbSpline
70
0
71
2
72
6
73
3
74
0
42
0.000000001
43
0.0000000001
44
0.0000000001
40
0
40
0
40
0
40
1
40
1
40
1
10
-13.081141151487827
20
4.1355932440516039
30
0
10
-13.216734267771244
20
4.1751412238832994
30
0
10
-13.315604366362095
20
4.276836135601668
30
0
0
LINE
5
341
100
AcDbEntity
8
0
100
AcDbLine
10
-13.315604366362095
20
4.276836135601668
30
0
11
-13.035943545401096
21
4.5706214692350908
31
0
0
LINE
5
342
100
AcDbEntity
8
0
100
AcDbLine
10
-13.468146957457066
20
4.1271186556574389
30
0
11
-13.87492660433054
21
4.1271186556574389
31
0
0
LINE
5
343
100
AcDbEntity
8
0
100
AcDbLine
10
-13.87492660433054
20
4.1271186556574389
30
0
11
-13.87492660433054
21
4.3135593023058458
31
0
0
LINE
5
344
100
AcDbEntity
8
0
100
AcDbLine
10
-13.87492660433054
20
4.3135593023058458
30
0
11
-13.880576528608799
21
4.3135593023058458
31
0
0
SPLINE
5
345
100
AcDbEntity
8
0
100
AcDbSpline
70
0
71
2
72
6
73
3
74
0
42
0.000000001
43
0.0000000001
44
0.0000000001
40
0
40
0
40
0
40
1
40
1
40
1
10
-13.880576528608799
20
4.3135593023058458
30
0
10
-13.900350369513035
20
4.2740113224741503
30
0
10
-13.937073685228825
20
4.2344633426424547
30
0
0
SPLINE
5
346
100
AcDbEntity
8
0
100
AcDbSpline
70
0
71
2
72
6
73
3
74
0
42
0.000000001
43
0.0000000001
44
0.0000000001
40
0
40
0
40
0
40
1
40
1
40
1
10
-13.937073685228825
20
4.2344633426424547
30
0
10
-13.973796702921391
20
4.1949152137991472
30
0
10
-14.024644233286381
20
4.1638418223616167
30
0
0
SPLINE
5
347
100
AcDbEntity
8
0
100
AcDbSpline
70
0
71
2
72
6
73
3
74
0
42
0.000000001
43
0.0000000001
44
0.0000000001
40
0
40
0
40
0
40
1
40
1
40
1
10
-14.024644233286381
20
4.1638418223616167
30
0
10
-14.075491763651371
20
4.1327684309240862
30
0
10
-14.140463508665562
20
4.1129942919966265
30
0
0
SPLINE
5
348
100
AcDbEntity
8
0
100
AcDbSpline
70
0
71
2
72
6
73
3
74
0
42
0.000000001
43
0.0000000001
44
0.0000000001
40
0
40
0
40
0
40
1
40
1
40
1
10
-14.140463508665562
20
4.1129942919966265
30
0
10
-14.205435253679752
20
4.0932203020807787
30
0
10
-14.281706251204014
20
4.0932203020807787
30
0
0
SPLINE
5
349
100
AcDbEntity
8
0
100
AcDbSpline
70
0
71
2
72
6
73
3
74
0
42
0.000000001
43
0.0000000001
44
0.0000000001
40
0
40
0
40
0
40
1
40
1
40
1
10
-14.281706251204014
20
4.0932203020807787
30
0
10
-14.425774253904819
20
4.0932203020807787
30
0
10
-14.535943605005741
20
4.152542420839934
30
0
0
SPLINE
5
350
100
AcDbEntity
8
0
100
AcDbSpline
70
0
71
2
72
6
73
3
74
0
42
0.000000001
43
0.0000000001
44
0.0000000001
40
0
40
0
40
0
40
1
40
1
40
1
10
-14.535943605005741
20
4.152542420839934
30
0
10
-14.648937918245792
20
4.2118643905874773
30
0
10
-14.705435074865818
20
4.338983067488341
30
0
0
SPLINE
5
351
100
AcDbEntity
8
0
100
AcDbSpline
70
0
71
2
72
6
73
3
74
0
42
0.000000001
43
0.0000000001
44
0.0000000001
40
0
40
0
40
0
40
1
40
1
40
1
10
-14.705435074865818
20
4.338983067488341
30
0
10
-14.778881408274174
20
4.2062147643324419
30
0
10
-14.883400835096836
20
4.1497174587008043
30
0
0
SPLINE
5
352
100
AcDbEntity
8
0
100
AcDbSpline
70
0
71
2
72
6
73
3
74
0
42
0.000000001
43
0.0000000001
44
0.0000000001
40
0
40
0
40
0
40
1
40
1
40
1
10
-14.883400835096836
20
4.1497174587008043
30
0
10
-14.98792115598917
20
4.0932203020807787
30
0
10
-15.140463747084141
20
4.0932203020807787
30
0
0
SPLINE
5
353
100
AcDbEntity
8
0
100
AcDbSpline
70
0
71
2
72
6
73
3
74
0
42
0.000000001
43
0.0000000001
44
0.0000000001
40
0
40
0
40
0
40
1
40
1
40
1
10
-15.140463747084141
20
4.0932203020807787
30
0
10
-15.278881229460239
20
4.0932203020807787
30
0
10
-15.372101701796055
20
4.1412430193182512
30
0
0
SPLINE
5
354
100
AcDbEntity
8
0
100
AcDbSpline
70
0
71
2
72
6
73
3
74
0
42
0.000000001
43
0.0000000001
44
0.0000000001
40
0
40
0
40
0
40
1
40
1
40
1
10
-15.372101701796055
20
4.1412430193182512
30
0
10
-15.468147434294224
20
4.1864406254049822
30
0
10
-15.521819032728672
20
4.2683615472075029
30
0
0
SPLINE
5
355
100
AcDbEntity
8
0
100
AcDbSpline
70
0
71
2
72
6
73
3
74
0
42
0.000000001
43
0.0000000001
44
0.0000000001
40
0
40
0
40
0
40
1
40
1
40
1
10
-15.521819032728672
20
4.2683615472075029
30
0
10
-15.578317083418369
20
4.347457655882506
30
0
10
-15.600915588438511
20
4.4576271559950396
30
0
0
SPLINE
5
356
100
AcDbEntity
8
0
100
AcDbSpline
70
0
71
2
72
6
73
3
74
0
42
0.000000001
43
0.0000000001
44
0.0000000001
40
0
40
0
40
0
40
1
40
1
40
1
10
-15.600915588438511
20
4.4576271559950396
30
0
10
-15.626339353621006
20
4.5649718429800554
30
0
10
-15.626339353621006
20
4.6892655577417894
30
0
0
LINE
5
357
100
AcDbEntity
8
0
100
AcDbLine
10
-15.626339353621006
20
4.6892655577417894
30
0
11
-15.626339353621006
21
5.50000003836122
31
0
0
LINE
5
358
100
AcDbEntity
8
0
100
AcDbLine
10
-15.626339353621004
20
5.50000003836122
30
0
11
-15.202609933912752
21
5.50000003836122
31
0
0
LINE
5
359
100
AcDbEntity
8
0
100
AcDbLine
10
-15.202609933912752
20
5.50000003836122
30
0
11
-15.202609933912752
21
4.7005649592634722
31
0
0
SPLINE
5
360
100
AcDbEntity
8
0
100
AcDbSpline
70
0
71
2
72
6
73
3
74
0
42
0.000000001
43
0.0000000001
44
0.0000000001
40
0
40
0
40
0
40
1
40
1
40
1
10
-15.202609933912754
20
4.7005649592634722
30
0
10
-15.202609933912754
20
4.604519822811751
30
0
10
-15.160236991941929
20
4.5367231156584307
30
0
0
SPLINE
5
361
100
AcDbEntity
8
0
100
AcDbSpline
70
0
71
2
72
6
73
3
74
0
42
0.000000001
43
0.0000000001
44
0.0000000001
40
0
40
0
40
0
40
1
40
1
40
1
10
-15.160236991941929
20
4.5367231156584307
30
0
10
-15.120689310133457
20
4.4661017443892046
30
0
10
-15.016169585287571
20
4.4661017443892046
30
0
0
SPLINE
5
362
100
AcDbEntity
8
0
100
AcDbSpline
70
0
71
2
72
6
73
3
74
0
42
0.000000001
43
0.0000000001
44
0.0000000001
40
0
40
0
40
0
40
1
40
1
40
1
10
-15.016169585287571
20
4.4661017443892046
30
0
10
-14.942722953855991
20
4.4661017443892046
30
0
10
-14.891875423491001
20
4.4915255095716997
30
0
0
SPLINE
5
363
100
AcDbEntity
8
0
100
AcDbSpline
70
0
71
2
72
6
73
3
74
0
42
0.000000001
43
0.0000000001
44
0.0000000001
40
0
40
0
40
0
40
1
40
1
40
1
10
-14.891875423491001
20
4.4915255095716997
30
0
10
-14.843853153288364
20
4.5141243126150652
30
0
10
-14.812779761850834
20
4.5564972545858904
30
0
0
SPLINE
5
364
100
AcDbEntity
8
0
100
AcDbSpline
70
0
71
2
72
6
73
3
74
0
42
0.000000001
43
0.0000000001
44
0.0000000001
40
0
40
0
40
0
40
1
40
1
40
1
10
-14.812779761850834
20
4.5564972545858904
30
0
10
-14.784531332552433
20
4.5988700475451036
30
0
10
-14.770406819880009
20
4.6553673531767412
30
0
0
SPLINE
5
365
100
AcDbEntity
8
0
100
AcDbSpline
70
0
71
2
72
6
73
3
74
0
42
0.000000001
43
0.0000000001
44
0.0000000001
40
0
40
0
40
0
40
1
40
1
40
1
10
-14.770406819880009
20
4.6553673531767412
30
0
10
-14.759107567369938
20
4.7118645097967669
30
0
10
-14.759107567369938
20
4.7740112926718279
30
0
0
LINE
5
366
100
AcDbEntity
8
0
100
AcDbLine
10
-14.759107567369938
20
4.7740112926718279
30
0
11
-14.759107567369938
21
5.50000003836122
31
0
0
LINE
5
367
100
AcDbEntity
8
0
100
AcDbLine
10
-14.759107567369938
20
5.50000003836122
30
0
11
-14.335378743708134
21
5.50000003836122
31
0
0
LINE
5
368
100
AcDbEntity
8
0
100
AcDbLine
10
-14.335378743708134
20
5.50000003836122
30
0
11
-14.335378743708134
21
4.7740112926718279
31
0
0
SPLINE
5
369
100
AcDbEntity
8
0
100
AcDbSpline
70
0
71
2
72
6
73
3
74
0
42
0.000000001
43
0.0000000001
44
0.0000000001
40
0
40
0
40
0
40
1
40
1
40
1
10
-14.335378743708134
20
4.7740112926718279
30
0
10
-14.335378743708134
20
4.73728812596765
30
0
10
-14.332553781569004
20
4.6836157824751421
30
0
0
SPLINE
5
370
100
AcDbEntity
8
0
100
AcDbSpline
70
0
71
2
72
6
73
3
74
0
42
0.000000001
43
0.0000000001
44
0.0000000001
40
0
40
0
40
0
40
1
40
1
40
1
10
-14.332553781569004
20
4.6836157824751421
30
0
10
-14.329728819429874
20
4.6299435879942461
30
0
10
-14.312779642641544
20
4.5819210197683855
30
0
0
SPLINE
5
371
100
AcDbEntity
8
0
100
AcDbSpline
70
0
71
2
72
6
73
3
74
0
42
0.000000001
43
0.0000000001
44
0.0000000001
40
0
40
0
40
0
40
1
40
1
40
1
10
-14.312779642641544
20
4.5819210197683855
30
0
10
-14.295830763876438
20
4.533898302530913
30
0
10
-14.256282486021519
20
4.5000000979658648
30
0
0
SPLINE
5
372
100
AcDbEntity
8
0
100
AcDbSpline
70
0
71
2
72
6
73
3
74
0
42
0.000000001
43
0.0000000001
44
0.0000000001
40
0
40
0
40
0
40
1
40
1
40
1
10
-14.256282486021519
20
4.5000000979658648
30
0
10
-14.219559468328953
20
4.4661017443892046
30
0
10
-14.146113134920597
20
4.4661017443892046
30
0
0
SPLINE
5
373
100
AcDbEntity
8
0
100
AcDbSpline
70
0
71
2
72
6
73
3
74
0
42
0.000000001
43
0.0000000001
44
0.0000000001
40
0
40
0
40
0
40
1
40
1
40
1
10
-14.146113134920597
20
4.4661017443892046
30
0
10
-14.064192213118076
20
4.4661017443892046
30
0
10
-14.013344682753086
20
4.4971751358267351
30
0
0
SPLINE
5
374
100
AcDbEntity
8
0
100
AcDbSpline
70
0
71
2
72
6
73
3
74
0
42
0.000000001
43
0.0000000001
44
0.0000000001
40
0
40
0
40
0
40
1
40
1
40
1
10
-14.013344682753086
20
4.4971751358267351
30
0
10
-13.962497152388096
20
4.5254237141367479
30
0
10
-13.934248723089695
20
4.5762710954901262
30
0
0
SPLINE
5
375
100
AcDbEntity
8
0
100
AcDbSpline
70
0
71
2
72
6
73
3
74
0
42
0.000000001
43
0.0000000001
44
0.0000000001
40
0
40
0
40
0
40
1
40
1
40
1
10
-13.934248723089695
20
4.5762710954901262
30
0
10
-13.9088249579072
20
4.6242938127275988
30
0
10
-13.900350369513035
20
4.6864407446142717
30
0
0
SPLINE
5
376
100
AcDbEntity
8
0
100
AcDbSpline
70
0
71
2
72
6
73
3
74
0
42
0.000000001
43
0.0000000001
44
0.0000000001
40
0
40
0
40
0
40
1
40
1
40
1
10
-13.900350369513035
20
4.6864407446142717
30
0
10
-13.89187578111887
20
4.7485875274893328
30
0
10
-13.89187578111887
20
4.8163842346426531
30
0
0
LINE
5
377
100
AcDbEntity
8
0
100
AcDbLine
10
-13.89187578111887
20
4.8163842346426531
30
0
11
-13.89187578111887
21
5.50000003836122
31
0
0
LINE
5
378
100
AcDbEntity
8
0
100
AcDbLine
10
-13.89187578111887
20
5.50000003836122
30
0
11
-13.468146957457066
21
5.50000003836122
31
0
0
LINE
5
379
100
AcDbEntity
8
0
100
AcDbLine
10
-13.468146957457066
20
5.50000003836122
30
0
11
-13.468146957457067
21
4.1271186556574389
31
0
0
ENDSEC
0
SECTION
2
OBJECTS
0
DICTIONARY
5
C
100
AcDbDictionary
3
ACAD_GROUP
350
D
3
ACAD_MLINESTYLE
350
17
0
DICTIONARY
5
D
100
AcDbDictionary
0
DICTIONARY
5
1A
330
C
100
AcDbDictionary
0
DICTIONARY
5
17
100
AcDbDictionary
0
ENDSEC
0
EOF
