0
SECTION
2
HEADER
9
$INSUNITS
70
4
9
$ACADVER
1
AC1014
9
$HANDSEED
5
FFFF
0
ENDSEC
0
SECTION
2
TABLES
0
TABLE
2
VPORT
5
8
100
AcDbSymbolTable
0
ENDTAB
0
TABLE
2
LTYPE
5
5
100
AcDbSymbolTable
0
LTYPE
5
14
100
AcDbSymbolTableRecord
100
AcDbLinetypeTableRecord
2
BYBLOCK
70
0
0
LTYPE
5
15
100
AcDbSymbolTableRecord
100
AcDbLinetypeTableRecord
2
BYLAYER
70
0
0
LTYPE
5
16
100
AcDbSymbolTableRecord
100
AcDbLinetypeTableRecord
2
DASHED
70
0
3
Dashed __ __ __ __ __ __ __ __ __ __ __ __ __ _
72
65
73
2
40
0.75
49
0.5
74
0
49
-0.25
74
0
0
ENDTAB
0
TABLE
2
LAYER
5
2
100
AcDbSymbolTable
70
2
0
LAYER
5
50
100
AcDbSymbolTableRecord
100
AcDbLayerTableRecord
2
0
70
0
62
7
6
CONTINUOUS
0
ENDTAB
0
TABLE
2
STYLE
5
3
100
AcDbSymbolTable
70
1
0
STYLE
5
11
100
AcDbSymbolTableRecord
100
AcDbTextStyleTableRecord
2
STANDARD
70
0
0
ENDTAB
0
TABLE
2
VIEW
5
6
100
AcDbSymbolTable
70
0
0
ENDTAB
0
TABLE
2
UCS
5
7
100
AcDbSymbolTable
70
0
0
ENDTAB
0
TABLE
2
APPID
5
9
100
AcDbSymbolTable
70
2
0
APPID
5
12
100
AcDbSymbolTableRecord
100
AcDbRegAppTableRecord
2
ACAD
70
0
0
ENDTAB
0
TABLE
2
DIMSTYLE
5
A
100
AcDbSymbolTable
70
1
0
ENDTAB
0
TABLE
2
BLOCK_RECORD
5
1
100
AcDbSymbolTable
70
1
0
BLOCK_RECORD
5
1F
100
AcDbSymbolTableRecord
100
AcDbBlockTableRecord
2
*MODEL_SPACE
0
BLOCK_RECORD
5
1B
100
AcDbSymbolTableRecord
100
AcDbBlockTableRecord
2
*PAPER_SPACE
0
ENDTAB
0
ENDSEC
0
SECTION
2
BLOCKS
0
BLOCK
5
20
100
AcDbEntity
100
AcDbBlockBegin
2
*MODEL_SPACE
0
ENDBLK
5
21
100
AcDbEntity
100
AcDbBlockEnd
0
BLOCK
5
1C
100
AcDbEntity
100
AcDbBlockBegin
2
*PAPER_SPACE
0
ENDBLK
5
1D
100
AcDbEntity
100
AcDbBlockEnd
0
ENDSEC
0
SECTION
2
ENTITIES
0
LWPOLYLINE
5
100
100
AcDbEntity
8
0
100
AcDbPolyline
90
8
70
1
43
0.0
10
4.4708333333333306
20
141.1972916666667
42
0.41421356237309359
10
1.4708333333333292
20
144.1972916666667
10
-234.38354166666667
20
144.1972916666667
42
0.41421356237309331
10
-237.38354166666667
20
141.1972916666667
10
-237.38354166666667
20
-11.939414503022547
42
0.41421356237308937
10
-234.3835416666667
20
-14.939414503022569
10
1.4708333333333456
20
-14.939414503022551
42
0.4142135623730932
10
4.470833333333327
20
-11.939414503022551
0
CIRCLE
5
101
100
AcDbEntity
8
0
100
AcDbCircle
10
-66.675000000000011
20
104.80145833333336
30
0
40
1.5000000000000036
210
0
220
-0
230
1
0
CIRCLE
5
102
100
AcDbEntity
8
0
100
AcDbCircle
10
-200.76583333333335
20
104.80145833333336
30
0
40
1.4999999999999858
210
0
220
-0
230
1
0
CIRCLE
5
103
100
AcDbEntity
8
0
100
AcDbCircle
10
-122.21104166666669
20
19.050000000000004
30
0
40
1.5000000000000036
210
0
220
-0
230
1
0
CIRCLE
5
104
100
AcDbEntity
8
0
100
AcDbCircle
10
-163.35375000000002
20
60.21916666666668
30
0
40
1.4999999999999858
210
0
220
-0
230
1
0
LWPOLYLINE
5
105
100
AcDbEntity
8
0
100
AcDbPolyline
90
4
70
1
43
0.0
10
-40.529166666666669
20
-6.6240026809987649
42
0.99999999999999989
10
-40.529166666666669
20
-3.6240026810429491
10
-192.38354166666667
20
-3.62400268104297
42
0.99999999999999989
10
-192.38354166666667
20
-6.6240026809987951
0
CIRCLE
5
106
100
AcDbEntity
8
0
100
AcDbCircle
10
-19.050000000000004
20
104.80145833333336
30
0
40
1.4999999999999991
210
0
220
-0
230
1
0
CIRCLE
5
107
100
AcDbEntity
8
0
100
AcDbCircle
10
-91.661075112452224
20
26.481273716417842
30
0
40
8.2000000000000028
210
0
220
-0
230
1
0
SPLINE
5
108
100
AcDbEntity
8
0
100
AcDbSpline
70
0
71
2
72
6
73
3
74
0
42
0.000000001
43
0.0000000001
44
0.0000000001
40
0
40
0
40
0
40
1
40
1
40
1
10
-15.119562653700683
20
64.354370592192311
30
0
10
-14.144986180464594
20
64.862845895842213
30
0
10
-13.085663823286859
20
65.088834522322315
30
0
0
SPLINE
5
109
100
AcDbEntity
8
0
100
AcDbSpline
70
0
71
2
72
6
73
3
74
0
42
0.000000001
43
0.0000000001
44
0.0000000001
40
0
40
0
40
0
40
1
40
1
40
1
10
-13.085663823286859
20
65.088834522322315
30
0
10
-12.026342062155573
20
65.314823148802418
30
0
10
-10.924646763007013
20
65.314823148802418
30
0
0
SPLINE
5
110
100
AcDbEntity
8
0
100
AcDbSpline
70
0
71
2
72
6
73
3
74
0
42
0.000000001
43
0.0000000001
44
0.0000000001
40
0
40
0
40
0
40
1
40
1
40
1
10
-10.924646763007013
20
65.314823148802418
30
0
10
-9.7523303906124514
20
65.314823148802418
30
0
10
-8.7636300007503927
20
64.947590587690968
30
0
0
SPLINE
5
111
100
AcDbEntity
8
0
100
AcDbSpline
70
0
71
2
72
6
73
3
74
0
42
0.000000001
43
0.0000000001
44
0.0000000001
40
0
40
0
40
0
40
1
40
1
40
1
10
-8.7636300007503927
20
64.947590587690968
30
0
10
-7.7749293128651082
20
64.580359218672413
30
0
10
-7.054590342442367
20
63.902393339232106
30
0
0
SPLINE
5
112
100
AcDbEntity
8
0
100
AcDbSpline
70
0
71
2
72
6
73
3
74
0
42
0.000000001
43
0.0000000001
44
0.0000000001
40
0
40
0
40
0
40
1
40
1
40
1
10
-7.054590342442367
20
63.902393339232106
30
0
10
-6.334251372019625
20
63.210303543165821
30
0
10
-5.9246469120186358
20
62.235727069929737
30
0
0
SPLINE
5
113
100
AcDbEntity
8
0
100
AcDbSpline
70
0
71
2
72
6
73
3
74
0
42
0.000000001
43
0.0000000001
44
0.0000000001
40
0
40
0
40
0
40
1
40
1
40
1
10
-5.9246469120186358
20
62.235727069929737
30
0
10
-5.5291666666668497
20
61.261150596693653
30
0
10
-5.5291666666668533
20
60.060585496977467
30
0
0
SPLINE
5
114
100
AcDbEntity
8
0
100
AcDbSpline
70
0
71
2
72
6
73
3
74
0
42
0.000000001
43
0.0000000001
44
0.0000000001
40
0
40
0
40
0
40
1
40
1
40
1
10
-5.5291666666668533
20
60.060585496977467
30
0
10
-5.5291666666668586
20
58.860020993307728
30
0
10
-5.9246469120186527
20
57.885445116118092
30
0
0
SPLINE
5
115
100
AcDbEntity
8
0
100
AcDbSpline
70
0
71
2
72
6
73
3
74
0
42
0.000000001
43
0.0000000001
44
0.0000000001
40
0
40
0
40
0
40
1
40
1
40
1
10
-5.9246469120186527
20
57.885445116118092
30
0
10
-6.3342513720196481
20
56.910868642882008
30
0
10
-7.0545903424423964
20
56.2329027634417
30
0
0
SPLINE
5
116
100
AcDbEntity
8
0
100
AcDbSpline
70
0
71
2
72
6
73
3
74
0
42
0.000000001
43
0.0000000001
44
0.0000000001
40
0
40
0
40
0
40
1
40
1
40
1
10
-7.0545903424423964
20
56.2329027634417
30
0
10
-7.7749293128651438
20
55.540812371328968
30
0
10
-8.7636300007504282
20
55.173580406263966
30
0
0
SPLINE
5
117
100
AcDbEntity
8
0
100
AcDbSpline
70
0
71
2
72
6
73
3
74
0
42
0.000000001
43
0.0000000001
44
0.0000000001
40
0
40
0
40
0
40
1
40
1
40
1
10
-8.7636300007504282
20
55.173580406263966
30
0
10
-9.7523303906124923
20
54.806349037245411
30
0
10
-10.924646763007054
20
54.806349037245411
30
0
0
SPLINE
5
118
100
AcDbEntity
8
0
100
AcDbSpline
70
0
71
2
72
6
73
3
74
0
42
0.000000001
43
0.0000000001
44
0.0000000001
40
0
40
0
40
0
40
1
40
1
40
1
10
-10.924646763007054
20
54.806349037245411
30
0
10
-12.125211862723241
20
54.806349037245411
30
0
10
-13.128036765257725
20
55.10295903499474
30
0
0
SPLINE
5
119
100
AcDbEntity
8
0
100
AcDbSpline
70
0
71
2
72
6
73
3
74
0
42
0.000000001
43
0.0000000001
44
0.0000000001
40
0
40
0
40
0
40
1
40
1
40
1
10
-13.128036765257725
20
55.10295903499474
30
0
10
-14.144986180464631
20
55.385445116118092
30
0
10
-14.907697943846587
20
56.0916594248568
30
0
0
LINE
5
120
100
AcDbEntity
8
0
100
AcDbLine
10
-14.907697943846587
20
56.0916594248568
30
0
11
-13.354025391737816
21
57.786574719504017
31
0
0
SPLINE
5
121
100
AcDbEntity
8
0
100
AcDbSpline
70
0
71
2
72
6
73
3
74
0
42
0.000000001
43
0.0000000001
44
0.0000000001
40
0
40
0
40
0
40
1
40
1
40
1
10
-13.354025391737816
20
57.786574719504017
30
0
10
-12.902048138777612
20
57.320472953871388
30
0
10
-12.337076572577356
20
57.080360410765309
30
0
0
SPLINE
5
122
100
AcDbEntity
8
0
100
AcDbSpline
70
0
71
2
72
6
73
3
74
0
42
0.000000001
43
0.0000000001
44
0.0000000001
40
0
40
0
40
0
40
1
40
1
40
1
10
-12.337076572577356
20
57.080360410765309
30
0
10
-11.772104410330652
20
56.840247271612782
30
0
10
-10.924646763007043
20
56.840247271612782
30
0
0
SPLINE
5
123
100
AcDbEntity
8
0
100
AcDbSpline
70
0
71
2
72
6
73
3
74
0
42
0.000000001
43
0.0000000001
44
0.0000000001
40
0
40
0
40
0
40
1
40
1
40
1
10
-10.924646763007043
20
56.840247271612782
30
0
10
-10.218432454268335
20
56.840247271612782
30
0
10
-9.6393360773724304
20
57.080360410765309
30
0
0
SPLINE
5
124
100
AcDbEntity
8
0
100
AcDbSpline
70
0
71
2
72
6
73
3
74
0
42
0.000000001
43
0.0000000001
44
0.0000000001
40
0
40
0
40
0
40
1
40
1
40
1
10
-9.6393360773724304
20
57.080360410765309
30
0
10
-9.074364511172174
20
57.320472953871388
30
0
10
-8.6647599021595685
20
57.758326290205616
30
0
0
SPLINE
5
125
100
AcDbEntity
8
0
100
AcDbSpline
70
0
71
2
72
6
73
3
74
0
42
0.000000001
43
0.0000000001
44
0.0000000001
40
0
40
0
40
0
40
1
40
1
40
1
10
-8.6647599021595685
20
57.758326290205616
30
0
10
-8.2551552931469629
20
58.18205511386742
30
0
10
-8.0291666666668586
20
58.775275109366078
30
0
0
SPLINE
5
126
100
AcDbEntity
8
0
100
AcDbSpline
70
0
71
2
72
6
73
3
74
0
42
0.000000001
43
0.0000000001
44
0.0000000001
40
0
40
0
40
0
40
1
40
1
40
1
10
-8.0291666666668586
20
58.775275109366078
30
0
10
-7.8173022548359539
20
59.368495700911183
30
0
10
-7.8173022548359512
20
60.060585496977467
30
0
0
SPLINE
5
127
100
AcDbEntity
8
0
100
AcDbSpline
70
0
71
2
72
6
73
3
74
0
42
0.000000001
43
0.0000000001
44
0.0000000001
40
0
40
0
40
0
40
1
40
1
40
1
10
-7.8173022548359512
20
60.060585496977467
30
0
10
-7.8173022548359494
20
60.766800401762623
30
0
10
-8.0291666666668497
20
61.36002039726128
30
0
0
SPLINE
5
128
100
AcDbEntity
8
0
100
AcDbSpline
70
0
71
2
72
6
73
3
74
0
42
0.000000001
43
0.0000000001
44
0.0000000001
40
0
40
0
40
0
40
1
40
1
40
1
10
-8.0291666666668497
20
61.36002039726128
30
0
10
-8.2551552931469487
20
61.939116476133961
30
0
10
-8.6647599021595507
20
62.37696981246819
30
0
0
SPLINE
5
129
100
AcDbEntity
8
0
100
AcDbSpline
70
0
71
2
72
6
73
3
74
0
42
0.000000001
43
0.0000000001
44
0.0000000001
40
0
40
0
40
0
40
1
40
1
40
1
10
-8.6647599021595507
20
62.37696981246819
30
0
10
-9.0743645111721527
20
62.800699232176441
30
0
10
-9.6393360773724091
20
63.040811775282521
30
0
0
SPLINE
5
130
100
AcDbEntity
8
0
100
AcDbSpline
70
0
71
2
72
6
73
3
74
0
42
0.000000001
43
0.0000000001
44
0.0000000001
40
0
40
0
40
0
40
1
40
1
40
1
10
-9.6393360773724091
20
63.040811775282521
30
0
10
-10.218432454268314
20
63.2809243183886
30
0
10
-10.924646763007022
20
63.2809243183886
30
0
0
SPLINE
5
131
100
AcDbEntity
8
0
100
AcDbSpline
70
0
71
2
72
6
73
3
74
0
42
0.000000001
43
0.0000000001
44
0.0000000001
40
0
40
0
40
0
40
1
40
1
40
1
10
-10.924646763007022
20
63.2809243183886
30
0
10
-11.644986180464603
20
63.2809243183886
30
0
10
-12.167584804694034
20
63.125557659224171
30
0
0
SPLINE
5
132
100
AcDbEntity
8
0
100
AcDbSpline
70
0
71
2
72
6
73
3
74
0
42
0.000000001
43
0.0000000001
44
0.0000000001
40
0
40
0
40
0
40
1
40
1
40
1
10
-12.167584804694034
20
63.125557659224171
30
0
10
-12.690183428923465
20
62.95606589134087
30
0
10
-13.000917939345218
20
62.786574123457569
30
0
0
LINE
5
133
100
AcDbEntity
8
0
100
AcDbLine
10
-13.000917939345218
20
62.786574123457569
30
0
11
-13.000917939345225
21
61.162280796126026
31
0
0
LINE
5
134
100
AcDbEntity
8
0
100
AcDbLine
10
-13.000917939345225
20
61.162280796126026
30
0
11
-11.207132844130381
21
61.162280796126026
31
0
0
LINE
5
135
100
AcDbEntity
8
0
100
AcDbLine
10
-11.207132844130381
20
61.162280796126026
30
0
11
-11.207132844130388
21
59.128382561758656
31
0
0
LINE
5
136
100
AcDbEntity
8
0
100
AcDbLine
10
-11.207132844130388
20
59.128382561758656
30
0
11
-15.119562653700701
21
59.128382561758656
31
0
0
LINE
5
137
100
AcDbEntity
8
0
100
AcDbLine
10
-15.119562653700701
20
59.128382561758656
30
0
11
-15.11956265370068
21
64.354370592192311
31
0
0
SPLINE
5
138
100
AcDbEntity
8
0
100
AcDbSpline
70
0
71
2
72
6
73
3
74
0
42
0.000000001
43
0.0000000001
44
0.0000000001
40
0
40
0
40
0
40
1
40
1
40
1
10
-23.283403424422119
20
63.874144313887257
30
0
10
-22.774929312865112
20
64.523862360075611
30
0
10
-21.99809363285717
20
64.87696981246819
30
0
0
SPLINE
5
139
100
AcDbEntity
8
0
100
AcDbSpline
70
0
71
2
72
6
73
3
74
0
42
0.000000001
43
0.0000000001
44
0.0000000001
40
0
40
0
40
0
40
1
40
1
40
1
10
-21.99809363285717
20
64.87696981246819
30
0
10
-21.22125676075634
20
65.230077264860768
30
0
10
-20.387924222151604
20
65.230077264860768
30
0
0
SPLINE
5
140
100
AcDbEntity
8
0
100
AcDbSpline
70
0
71
2
72
6
73
3
74
0
42
0.000000001
43
0.0000000001
44
0.0000000001
40
0
40
0
40
0
40
1
40
1
40
1
10
-20.387924222151604
20
65.230077264860768
30
0
10
-19.596963433424797
20
65.230077264860768
30
0
10
-18.890748528639641
20
64.975839613035816
30
0
0
SPLINE
5
141
100
AcDbEntity
8
0
100
AcDbSpline
70
0
71
2
72
6
73
3
74
0
42
0.000000001
43
0.0000000001
44
0.0000000001
40
0
40
0
40
0
40
1
40
1
40
1
10
-18.890748528639641
20
64.975839613035816
30
0
10
-18.198657540480461
20
64.721601961210865
30
0
10
-17.676059512297485
20
64.255500791624684
30
0
0
SPLINE
5
142
100
AcDbEntity
8
0
100
AcDbSpline
70
0
71
2
72
6
73
3
74
0
42
0.000000001
43
0.0000000001
44
0.0000000001
40
0
40
0
40
0
40
1
40
1
40
1
10
-17.676059512297485
20
64.255500791624684
30
0
10
-17.167584208647582
20
63.77527451331963
30
0
10
-16.870974806944705
20
63.111432550505299
30
0
0
SPLINE
5
143
100
AcDbEntity
8
0
100
AcDbSpline
70
0
71
2
72
6
73
3
74
0
42
0.000000001
43
0.0000000001
44
0.0000000001
40
0
40
0
40
0
40
1
40
1
40
1
10
-16.870974806944705
20
63.111432550505299
30
0
10
-16.574364213148929
20
62.447591779783863
30
0
10
-16.574364213148932
20
61.628381965712208
30
0
0
SPLINE
5
144
100
AcDbEntity
8
0
100
AcDbSpline
70
0
71
2
72
6
73
3
74
0
42
0.000000001
43
0.0000000001
44
0.0000000001
40
0
40
0
40
0
40
1
40
1
40
1
10
-16.574364213148932
20
61.628381965712208
30
0
10
-16.574364213148939
20
60.809173343733448
30
0
10
-16.870974806944716
20
60.145331380919117
30
0
0
SPLINE
5
145
100
AcDbEntity
8
0
100
AcDbSpline
70
0
71
2
72
6
73
3
74
0
42
0.000000001
43
0.0000000001
44
0.0000000001
40
0
40
0
40
0
40
1
40
1
40
1
10
-16.870974806944716
20
60.145331380919117
30
0
10
-17.1675842086476
20
59.481489418104786
30
0
10
-17.676059512297503
20
59.015387652472157
30
0
0
SPLINE
5
146
100
AcDbEntity
8
0
100
AcDbSpline
70
0
71
2
72
6
73
3
74
0
42
0.000000001
43
0.0000000001
44
0.0000000001
40
0
40
0
40
0
40
1
40
1
40
1
10
-17.676059512297503
20
59.015387652472157
30
0
10
-18.19865754048049
20
58.535161970213551
30
0
10
-18.890748528639669
20
58.2809243183886
30
0
0
SPLINE
5
147
100
AcDbEntity
8
0
100
AcDbSpline
70
0
71
2
72
6
73
3
74
0
42
0.000000001
43
0.0000000001
44
0.0000000001
40
0
40
0
40
0
40
1
40
1
40
1
10
-18.890748528639669
20
58.2809243183886
30
0
10
-19.596963433424825
20
58.026687262610096
30
0
10
-20.387924222151632
20
58.026687262610096
30
0
0
SPLINE
5
148
100
AcDbEntity
8
0
100
AcDbSpline
70
0
71
2
72
6
73
3
74
0
42
0.000000001
43
0.0000000001
44
0.0000000001
40
0
40
0
40
0
40
1
40
1
40
1
10
-20.387924222151632
20
58.026687262610096
30
0
10
-21.122386960188742
20
58.026687262610096
30
0
10
-21.715606955687399
20
58.2809243183886
30
0
0
SPLINE
5
149
100
AcDbEntity
8
0
100
AcDbSpline
70
0
71
2
72
6
73
3
74
0
42
0.000000001
43
0.0000000001
44
0.0000000001
40
0
40
0
40
0
40
1
40
1
40
1
10
-21.715606955687399
20
58.2809243183886
30
0
10
-22.322952059904928
20
58.535161970213551
30
0
10
-22.732556370894304
20
59.015387652472157
30
0
0
SPLINE
5
150
100
AcDbEntity
8
0
100
AcDbSpline
70
0
71
2
72
6
73
3
74
0
42
0.000000001
43
0.0000000001
44
0.0000000001
40
0
40
0
40
0
40
1
40
1
40
1
10
-22.732556370894304
20
59.015387652472157
30
0
10
-23.156285790602556
20
59.481489418104786
30
0
10
-23.382274417082655
20
60.145331380919117
30
0
0
SPLINE
5
151
100
AcDbEntity
8
0
100
AcDbSpline
70
0
71
2
72
6
73
3
74
0
42
0.000000001
43
0.0000000001
44
0.0000000001
40
0
40
0
40
0
40
1
40
1
40
1
10
-23.382274417082655
20
60.145331380919117
30
0
10
-23.608263043562758
20
60.809173343733448
30
0
10
-23.608263043562751
20
61.628381965712208
30
0
0
LINE
5
152
100
AcDbEntity
8
0
100
AcDbLine
10
-23.608263043562751
20
61.628381965712208
30
0
11
-23.608263043562747
21
62.292223928526539
31
0
0
LINE
5
153
100
AcDbEntity
8
0
100
AcDbLine
10
-23.608263043562751
20
62.292223928526539
30
0
11
-18.693008927504401
21
62.292223928526539
31
0
0
SPLINE
5
154
100
AcDbEntity
8
0
100
AcDbSpline
70
0
71
2
72
6
73
3
74
0
42
0.000000001
43
0.0000000001
44
0.0000000001
40
0
40
0
40
0
40
1
40
1
40
1
10
-18.693008927504401
20
62.292223928526539
30
0
10
-18.820126561323978
20
62.899569032744068
30
0
10
-19.24385598103223
20
63.266800401762623
30
0
0
SPLINE
5
155
100
AcDbEntity
8
0
100
AcDbSpline
70
0
71
2
72
6
73
3
74
0
42
0.000000001
43
0.0000000001
44
0.0000000001
40
0
40
0
40
0
40
1
40
1
40
1
10
-19.24385598103223
20
63.266800401762623
30
0
10
-19.667584208647582
20
63.619907854155201
30
0
10
-20.289053229491088
20
63.619907854155201
30
0
0
SPLINE
5
156
100
AcDbEntity
8
0
100
AcDbSpline
70
0
71
2
72
6
73
3
74
0
42
0.000000001
43
0.0000000001
44
0.0000000001
40
0
40
0
40
0
40
1
40
1
40
1
10
-20.289053229491088
20
63.619907854155201
30
0
10
-20.811652449766967
20
63.619907854155201
30
0
10
-21.164759902159549
20
63.393919227675099
30
0
0
SPLINE
5
157
100
AcDbEntity
8
0
100
AcDbSpline
70
0
71
2
72
6
73
3
74
0
42
0.000000001
43
0.0000000001
44
0.0000000001
40
0
40
0
40
0
40
1
40
1
40
1
10
-21.164759902159549
20
63.393919227675099
30
0
10
-21.531991271178104
20
63.153805492476124
30
0
10
-21.800352839629031
20
62.786574123457569
30
0
0
LINE
5
158
100
AcDbEntity
8
0
100
AcDbLine
10
-21.800352839629031
20
62.786574123457569
30
0
11
-23.283403424422119
21
63.874144313887257
31
0
0
SPLINE
5
159
100
AcDbEntity
8
0
100
AcDbSpline
70
0
71
2
72
6
73
3
74
0
42
0.000000001
43
0.0000000001
44
0.0000000001
40
0
40
0
40
0
40
1
40
1
40
1
10
-21.489618329207289
20
60.851546285704273
30
0
10
-21.503743437926161
20
60.314823148802418
30
0
10
-21.136510876814715
20
59.933466671064991
30
0
0
SPLINE
5
160
100
AcDbEntity
8
0
100
AcDbSpline
70
0
71
2
72
6
73
3
74
0
42
0.000000001
43
0.0000000001
44
0.0000000001
40
0
40
0
40
0
40
1
40
1
40
1
10
-21.136510876814715
20
59.933466671064991
30
0
10
-20.76927950779616
20
59.552110789374012
30
0
10
-20.190183428923479
20
59.552110789374012
30
0
0
SPLINE
5
161
100
AcDbEntity
8
0
100
AcDbSpline
70
0
71
2
72
6
73
3
74
0
42
0.000000001
43
0.0000000001
44
0.0000000001
40
0
40
0
40
0
40
1
40
1
40
1
10
-20.190183428923479
20
59.552110789374012
30
0
10
-19.837075976530901
20
59.552110789374012
30
0
10
-19.568714408079973
20
59.665105102614064
30
0
0
SPLINE
5
162
100
AcDbEntity
8
0
100
AcDbSpline
70
0
71
2
72
6
73
3
74
0
42
0.000000001
43
0.0000000001
44
0.0000000001
40
0
40
0
40
0
40
1
40
1
40
1
10
-19.568714408079973
20
59.665105102614064
30
0
10
-19.300352839629046
20
59.778099415854115
30
0
10
-19.102613238493792
20
59.96171569640984
30
0
0
SPLINE
5
163
100
AcDbEntity
8
0
100
AcDbSpline
70
0
71
2
72
6
73
3
74
0
42
0.000000001
43
0.0000000001
44
0.0000000001
40
0
40
0
40
0
40
1
40
1
40
1
10
-19.102613238493792
20
59.96171569640984
30
0
10
-18.918997553984511
20
60.131206868246693
30
0
10
-18.806002644698012
20
60.37132000739922
30
0
0
SPLINE
5
164
100
AcDbEntity
8
0
100
AcDbSpline
70
0
71
2
72
6
73
3
74
0
42
0.000000001
43
0.0000000001
44
0.0000000001
40
0
40
0
40
0
40
1
40
1
40
1
10
-18.806002644698012
20
60.37132000739922
30
0
10
-18.707132844130385
20
60.597308633879322
30
0
10
-18.693008927504408
20
60.851546285704273
30
0
0
LINE
5
165
100
AcDbEntity
8
0
100
AcDbLine
10
-18.693008927504408
20
60.851546285704273
30
0
11
-21.489618329207289
21
60.851546285704273
31
0
0
LINE
5
166
100
AcDbEntity
8
0
100
AcDbLine
10
-29.201484231154296
20
64.199003933027882
30
0
11
-29.173236397902343
21
64.199003933027882
31
0
0
SPLINE
5
167
100
AcDbEntity
8
0
100
AcDbSpline
70
0
71
2
72
6
73
3
74
0
42
0.000000001
43
0.0000000001
44
0.0000000001
40
0
40
0
40
0
40
1
40
1
40
1
10
-29.173236397902343
20
64.199003933027882
30
0
10
-28.820128945509758
20
64.749850986555714
30
0
10
-28.226907757918205
20
64.989963529661793
30
0
0
SPLINE
5
168
100
AcDbEntity
8
0
100
AcDbSpline
70
0
71
2
72
6
73
3
74
0
42
0.000000001
43
0.0000000001
44
0.0000000001
40
0
40
0
40
0
40
1
40
1
40
1
10
-28.226907757918205
20
64.989963529661793
30
0
10
-27.647810486952629
20
65.230077264860768
30
0
10
-26.99809363285717
20
65.230077264860768
30
0
0
SPLINE
5
169
100
AcDbEntity
8
0
100
AcDbSpline
70
0
71
2
72
6
73
3
74
0
42
0.000000001
43
0.0000000001
44
0.0000000001
40
0
40
0
40
0
40
1
40
1
40
1
10
-26.99809363285717
20
65.230077264860768
30
0
10
-26.517868546645012
20
65.230077264860768
30
0
10
-26.065891293684807
20
65.088834522322315
30
0
0
SPLINE
5
170
100
AcDbEntity
8
0
100
AcDbSpline
70
0
71
2
72
6
73
3
74
0
42
0.000000001
43
0.0000000001
44
0.0000000001
40
0
40
0
40
0
40
1
40
1
40
1
10
-26.065891293684807
20
65.088834522322315
30
0
10
-25.628037957350578
20
64.96171569640984
30
0
10
-25.289054421583977
20
64.693354127958912
30
0
0
SPLINE
5
171
100
AcDbEntity
8
0
100
AcDbSpline
70
0
71
2
72
6
73
3
74
0
42
0.000000001
43
0.0000000001
44
0.0000000001
40
0
40
0
40
0
40
1
40
1
40
1
10
-25.289054421583977
20
64.693354127958912
30
0
10
-24.950070885817382
20
64.424992559507984
30
0
10
-24.752331284682128
20
64.029512165144581
30
0
0
SPLINE
5
172
100
AcDbEntity
8
0
100
AcDbSpline
70
0
71
2
72
6
73
3
74
0
42
0.000000001
43
0.0000000001
44
0.0000000001
40
0
40
0
40
0
40
1
40
1
40
1
10
-24.752331284682128
20
64.029512165144581
30
0
10
-24.554590491453979
20
63.634031770781178
30
0
10
-24.554590491453983
20
63.111432550505299
30
0
0
SPLINE
5
173
100
AcDbEntity
8
0
100
AcDbSpline
70
0
71
2
72
6
73
3
74
0
42
0.000000001
43
0.0000000001
44
0.0000000001
40
0
40
0
40
0
40
1
40
1
40
1
10
-24.554590491453983
20
63.111432550505299
30
0
10
-24.554590491453983
20
62.518212555006642
30
0
10
-24.766455201308112
20
62.108608244017262
30
0
0
SPLINE
5
174
100
AcDbEntity
8
0
100
AcDbSpline
70
0
71
2
72
6
73
3
74
0
42
0.000000001
43
0.0000000001
44
0.0000000001
40
0
40
0
40
0
40
1
40
1
40
1
10
-24.766455201308112
20
62.108608244017262
30
0
10
-24.992443827788215
20
61.699003933027882
30
0
10
-25.359676388899665
20
61.430642364576954
30
0
0
SPLINE
5
175
100
AcDbEntity
8
0
100
AcDbSpline
70
0
71
2
72
6
73
3
74
0
42
0.000000001
43
0.0000000001
44
0.0000000001
40
0
40
0
40
0
40
1
40
1
40
1
10
-25.359676388899665
20
61.430642364576954
30
0
10
-25.741031674544196
20
61.162280796126026
30
0
10
-26.221256760756354
20
61.021038053587574
30
0
0
SPLINE
5
176
100
AcDbEntity
8
0
100
AcDbSpline
70
0
71
2
72
6
73
3
74
0
42
0.000000001
43
0.0000000001
44
0.0000000001
40
0
40
0
40
0
40
1
40
1
40
1
10
-26.221256760756354
20
61.021038053587574
30
0
10
-26.701484231154311
20
60.86567020233025
30
0
10
-27.209959534804213
20
60.795048831061024
30
0
0
SPLINE
5
177
100
AcDbEntity
8
0
100
AcDbSpline
70
0
71
2
72
6
73
3
74
0
42
0.000000001
43
0.0000000001
44
0.0000000001
40
0
40
0
40
0
40
1
40
1
40
1
10
-27.209959534804213
20
60.795048831061024
30
0
10
-27.732556370894301
20
60.724427459791798
30
0
10
-28.241031674544203
20
60.710302947119374
30
0
0
SPLINE
5
178
100
AcDbEntity
8
0
100
AcDbSpline
70
0
71
2
72
6
73
3
74
0
42
0.000000001
43
0.0000000001
44
0.0000000001
40
0
40
0
40
0
40
1
40
1
40
1
10
-28.241031674544203
20
60.710302947119374
30
0
10
-28.763630894820082
20
60.696178434446949
30
0
10
-29.201484231154311
20
60.696178434446949
30
0
0
SPLINE
5
179
100
AcDbEntity
8
0
100
AcDbSpline
70
0
71
2
72
6
73
3
74
0
42
0.000000001
43
0.0000000001
44
0.0000000001
40
0
40
0
40
0
40
1
40
1
40
1
10
-29.201484231154311
20
60.696178434446949
30
0
10
-29.201484231154311
20
60.131206868246693
30
0
10
-28.791878728072035
20
59.806348441198963
30
0
0
SPLINE
5
180
100
AcDbEntity
8
0
100
AcDbSpline
70
0
71
2
72
6
73
3
74
0
42
0.000000001
43
0.0000000001
44
0.0000000001
40
0
40
0
40
0
40
1
40
1
40
1
10
-28.791878728072035
20
59.806348441198963
30
0
10
-28.396399525801531
20
59.467364905432362
30
0
10
-27.845552472273699
20
59.467364905432362
30
0
0
SPLINE
5
181
100
AcDbEntity
8
0
100
AcDbSpline
70
0
71
2
72
6
73
3
74
0
42
0.000000001
43
0.0000000001
44
0.0000000001
40
0
40
0
40
0
40
1
40
1
40
1
10
-27.845552472273699
20
59.467364905432362
30
0
10
-27.32295325199782
20
59.467364905432362
30
0
10
-26.885099915663591
20
59.693354127958912
30
0
0
SPLINE
5
182
100
AcDbEntity
8
0
100
AcDbSpline
70
0
71
2
72
6
73
3
74
0
42
0.000000001
43
0.0000000001
44
0.0000000001
40
0
40
0
40
0
40
1
40
1
40
1
10
-26.885099915663591
20
59.693354127958912
30
0
10
-26.461370495955336
20
59.90521824176659
30
0
10
-26.122386960188734
20
60.286574123457569
30
0
0
LINE
5
183
100
AcDbEntity
8
0
100
AcDbLine
10
-26.122386960188734
20
60.286574123457569
30
0
11
-24.992443827788225
21
59.128381965712208
31
0
0
SPLINE
5
184
100
AcDbEntity
8
0
100
AcDbSpline
70
0
71
2
72
6
73
3
74
0
42
0.000000001
43
0.0000000001
44
0.0000000001
40
0
40
0
40
0
40
1
40
1
40
1
10
-24.992443827788225
20
59.128381965712208
30
0
10
-25.585663823286882
20
58.577534912184376
30
0
10
-26.376624612013693
20
58.309173343733448
30
0
0
SPLINE
5
185
100
AcDbEntity
8
0
100
AcDbSpline
70
0
71
2
72
6
73
3
74
0
42
0.000000001
43
0.0000000001
44
0.0000000001
40
0
40
0
40
0
40
1
40
1
40
1
10
-26.376624612013693
20
58.309173343733448
30
0
10
-27.167585400740499
20
58.026687262610096
30
0
10
-28.015044240157003
20
58.026687262610096
30
0
0
SPLINE
5
186
100
AcDbEntity
8
0
100
AcDbSpline
70
0
71
2
72
6
73
3
74
0
42
0.000000001
43
0.0000000001
44
0.0000000001
40
0
40
0
40
0
40
1
40
1
40
1
10
-28.015044240157003
20
58.026687262610096
30
0
10
-28.947246579329367
20
58.026687262610096
30
0
10
-29.540467766920919
20
58.266800401762623
30
0
0
SPLINE
5
187
100
AcDbEntity
8
0
100
AcDbSpline
70
0
71
2
72
6
73
3
74
0
42
0.000000001
43
0.0000000001
44
0.0000000001
40
0
40
0
40
0
40
1
40
1
40
1
10
-29.540467766920919
20
58.266800401762623
30
0
10
-30.147812871138449
20
58.492789028242711
30
0
10
-30.500920323531023
20
58.944766281202917
30
0
0
SPLINE
5
188
100
AcDbEntity
8
0
100
AcDbSpline
70
0
71
2
72
6
73
3
74
0
42
0.000000001
43
0.0000000001
44
0.0000000001
40
0
40
0
40
0
40
1
40
1
40
1
10
-30.500920323531023
20
58.944766281202917
30
0
10
-30.868151692549578
20
59.396743534163122
30
0
10
-31.009393242995131
20
60.060585496977453
30
0
0
SPLINE
5
189
100
AcDbEntity
8
0
100
AcDbSpline
70
0
71
2
72
6
73
3
74
0
42
0.000000001
43
0.0000000001
44
0.0000000001
40
0
40
0
40
0
40
1
40
1
40
1
10
-31.009393242995131
20
60.060585496977453
30
0
10
-31.150637177626479
20
60.710302947119359
30
0
10
-31.150637177626471
20
61.571885107115406
30
0
0
LINE
5
190
100
AcDbEntity
8
0
100
AcDbLine
10
-31.150637177626471
20
61.571885107115406
30
0
11
-31.150637177626457
21
65.060585496977467
31
0
0
LINE
5
191
100
AcDbEntity
8
0
100
AcDbLine
10
-31.150637177626457
20
65.060585496977467
30
0
11
-29.201484231154289
21
65.060585496977467
31
0
0
LINE
5
192
100
AcDbEntity
8
0
100
AcDbLine
10
-29.201484231154289
20
65.060585496977467
30
0
11
-29.201484231154296
21
64.199003933027882
31
0
0
SPLINE
5
193
100
AcDbEntity
8
0
100
AcDbSpline
70
0
71
2
72
6
73
3
74
0
42
0.000000001
43
0.0000000001
44
0.0000000001
40
0
40
0
40
0
40
1
40
1
40
1
10
-28.678885010878425
20
62.052110193327565
30
0
10
-28.43877127567945
20
62.052110193327565
30
0
10
-28.071539906660892
20
62.080359218672413
30
0
0
SPLINE
5
194
100
AcDbEntity
8
0
100
AcDbSpline
70
0
71
2
72
6
73
3
74
0
42
0.000000001
43
0.0000000001
44
0.0000000001
40
0
40
0
40
0
40
1
40
1
40
1
10
-28.071539906660892
20
62.080359218672413
30
0
10
-27.718432454268314
20
62.094484327391285
30
0
10
-27.379448918501712
20
62.193354127958912
30
0
0
SPLINE
5
195
100
AcDbEntity
8
0
100
AcDbSpline
70
0
71
2
72
6
73
3
74
0
42
0.000000001
43
0.0000000001
44
0.0000000001
40
0
40
0
40
0
40
1
40
1
40
1
10
-27.379448918501712
20
62.193354127958912
30
0
10
-27.054591683546878
20
62.292223928526539
30
0
10
-26.814477948347903
20
62.489963529661793
30
0
0
SPLINE
5
196
100
AcDbEntity
8
0
100
AcDbSpline
70
0
71
2
72
6
73
3
74
0
42
0.000000001
43
0.0000000001
44
0.0000000001
40
0
40
0
40
0
40
1
40
1
40
1
10
-26.814477948347903
20
62.489963529661793
30
0
10
-26.588490513960696
20
62.687704322889942
30
0
10
-26.588490513960696
20
63.040811775282521
30
0
0
SPLINE
5
197
100
AcDbEntity
8
0
100
AcDbSpline
70
0
71
2
72
6
73
3
74
0
42
0.000000001
43
0.0000000001
44
0.0000000001
40
0
40
0
40
0
40
1
40
1
40
1
10
-26.588490513960696
20
63.040811775282521
30
0
10
-26.588490513960693
20
63.422167060927052
30
0
10
-26.913347748915527
20
63.605782745436329
30
0
0
SPLINE
5
198
100
AcDbEntity
8
0
100
AcDbSpline
70
0
71
2
72
6
73
3
74
0
42
0.000000001
43
0.0000000001
44
0.0000000001
40
0
40
0
40
0
40
1
40
1
40
1
10
-26.913347748915527
20
63.605782745436329
30
0
10
-27.238207368056152
20
63.789399622038502
30
0
10
-27.59131482044873
20
63.789399622038502
30
0
0
SPLINE
5
199
100
AcDbEntity
8
0
100
AcDbSpline
70
0
71
2
72
6
73
3
74
0
42
0.000000001
43
0.0000000001
44
0.0000000001
40
0
40
0
40
0
40
1
40
1
40
1
10
-27.59131482044873
20
63.789399622038502
30
0
10
-27.902048138777587
20
63.789399622038502
30
0
10
-28.184536008040283
20
63.704653738096852
30
0
0
SPLINE
5
200
100
AcDbEntity
8
0
100
AcDbSpline
70
0
71
2
72
6
73
3
74
0
42
0.000000001
43
0.0000000001
44
0.0000000001
40
0
40
0
40
0
40
1
40
1
40
1
10
-28.184536008040283
20
63.704653738096852
30
0
10
-28.481145409743164
20
63.619907854155201
30
0
10
-28.707132844130371
20
63.464540002897877
30
0
0
SPLINE
5
201
100
AcDbEntity
8
0
100
AcDbSpline
70
0
71
2
72
6
73
3
74
0
42
0.000000001
43
0.0000000001
44
0.0000000001
40
0
40
0
40
0
40
1
40
1
40
1
10
-28.707132844130371
20
63.464540002897877
30
0
10
-28.933122662703369
20
63.309173343733448
30
0
10
-29.060240296522952
20
63.069059608534474
30
0
0
SPLINE
5
202
100
AcDbEntity
8
0
100
AcDbSpline
70
0
71
2
72
6
73
3
74
0
42
0.000000001
43
0.0000000001
44
0.0000000001
40
0
40
0
40
0
40
1
40
1
40
1
10
-29.060240296522952
20
63.069059608534474
30
0
10
-29.2014842311543
20
62.828947065428395
30
0
10
-29.2014842311543
20
62.504088638380665
30
0
0
LINE
5
203
100
AcDbEntity
8
0
100
AcDbLine
10
-29.2014842311543
20
62.504088638380665
30
0
11
-29.2014842311543
21
62.052110193327565
31
0
0
LINE
5
204
100
AcDbEntity
8
0
100
AcDbLine
10
-29.201484231154303
20
62.052110193327565
30
0
11
-28.678885010878425
21
62.052110193327565
31
0
0
LINE
5
205
100
AcDbEntity
8
0
100
AcDbLine
10
-32.478318719069357
20
58.196178434446935
30
0
11
-34.596963433424825
21
58.196178434446935
31
0
0
LINE
5
206
100
AcDbEntity
8
0
100
AcDbLine
10
-34.596963433424825
20
58.196178434446935
30
0
11
-34.596963433424818
21
59.297873733595495
31
0
0
LINE
5
207
100
AcDbEntity
8
0
100
AcDbLine
10
-34.596963433424818
20
59.297873733595495
30
0
11
-34.625211266676772
21
59.297873733595495
31
0
0
SPLINE
5
208
100
AcDbEntity
8
0
100
AcDbSpline
70
0
71
2
72
6
73
3
74
0
42
0.000000001
43
0.0000000001
44
0.0000000001
40
0
40
0
40
0
40
1
40
1
40
1
10
-34.625211266676772
20
59.297873733595495
30
0
10
-34.964194802443373
20
58.662280200079564
30
0
10
-35.430298356215353
20
58.351545689657812
30
0
0
SPLINE
5
209
100
AcDbEntity
8
0
100
AcDbSpline
70
0
71
2
72
6
73
3
74
0
42
0.000000001
43
0.0000000001
44
0.0000000001
40
0
40
0
40
0
40
1
40
1
40
1
10
-35.430298356215353
20
58.351545689657812
30
0
10
-35.896399525801534
20
58.026687262610082
30
0
10
-36.602614430586691
20
58.026687262610082
30
0
0
SPLINE
5
210
100
AcDbEntity
8
0
100
AcDbSpline
70
0
71
2
72
6
73
3
74
0
42
0.000000001
43
0.0000000001
44
0.0000000001
40
0
40
0
40
0
40
1
40
1
40
1
10
-36.602614430586691
20
58.026687262610082
30
0
10
-36.786230115095968
20
58.026687262610082
30
0
10
-36.969845799605245
20
58.040811179236059
30
0
0
SPLINE
5
211
100
AcDbEntity
8
0
100
AcDbSpline
70
0
71
2
72
6
73
3
74
0
42
0.000000001
43
0.0000000001
44
0.0000000001
40
0
40
0
40
0
40
1
40
1
40
1
10
-36.969845799605245
20
58.040811179236059
30
0
10
-37.153461484114523
20
58.054935691908483
30
0
10
-37.308829335371847
20
58.097308633879308
30
0
0
LINE
5
212
100
AcDbEntity
8
0
100
AcDbLine
10
-37.308829335371847
20
58.097308633879308
30
0
11
-37.30882933537184
21
60.032337067679052
31
0
0
SPLINE
5
213
100
AcDbEntity
8
0
100
AcDbSpline
70
0
71
2
72
6
73
3
74
0
42
0.000000001
43
0.0000000001
44
0.0000000001
40
0
40
0
40
0
40
1
40
1
40
1
10
-37.30882933537184
20
60.032337067679052
30
0
10
-37.082839516798842
20
59.961715696409826
30
0
10
-36.856849698225844
20
59.933466671064977
30
0
0
SPLINE
5
214
100
AcDbEntity
8
0
100
AcDbSpline
70
0
71
2
72
6
73
3
74
0
42
0.000000001
43
0.0000000001
44
0.0000000001
40
0
40
0
40
0
40
1
40
1
40
1
10
-36.856849698225844
20
59.933466671064977
30
0
10
-36.644986180464613
20
59.891093729094152
30
0
10
-36.404872445265639
20
59.891093729094152
30
0
0
SPLINE
5
215
100
AcDbEntity
8
0
100
AcDbSpline
70
0
71
2
72
6
73
3
74
0
42
0.000000001
43
0.0000000001
44
0.0000000001
40
0
40
0
40
0
40
1
40
1
40
1
10
-36.404872445265639
20
59.891093729094152
30
0
10
-35.7975297252339
20
59.891093729094152
30
0
10
-35.444422272841322
20
60.060585496977453
30
0
0
SPLINE
5
216
100
AcDbEntity
8
0
100
AcDbSpline
70
0
71
2
72
6
73
3
74
0
42
0.000000001
43
0.0000000001
44
0.0000000001
40
0
40
0
40
0
40
1
40
1
40
1
10
-35.444422272841322
20
60.060585496977453
30
0
10
-35.091314820448744
20
60.230077264860753
30
0
10
-34.893572835127699
20
60.540811775282506
30
0
0
SPLINE
5
217
100
AcDbEntity
8
0
100
AcDbSpline
70
0
71
2
72
6
73
3
74
0
42
0.000000001
43
0.0000000001
44
0.0000000001
40
0
40
0
40
0
40
1
40
1
40
1
10
-34.893572835127699
20
60.540811775282506
30
0
10
-34.709957150618422
20
60.837421773031835
30
0
10
-34.653461484114509
20
61.261150596693639
30
0
0
SPLINE
5
218
100
AcDbEntity
8
0
100
AcDbSpline
70
0
71
2
72
6
73
3
74
0
42
0.000000001
43
0.0000000001
44
0.0000000001
40
0
40
0
40
0
40
1
40
1
40
1
10
-34.653461484114509
20
61.261150596693639
30
0
10
-34.596963433424811
20
61.684878824308996
30
0
10
-34.596963433424804
20
62.193354127958898
30
0
0
LINE
5
219
100
AcDbEntity
8
0
100
AcDbLine
10
-34.596963433424804
20
62.193354127958898
30
0
11
-34.596963433424797
21
65.060585496977453
31
0
0
LINE
5
220
100
AcDbEntity
8
0
100
AcDbLine
10
-34.596963433424797
20
65.060585496977453
30
0
11
-32.478318719069328
21
65.060585496977453
31
0
0
LINE
5
221
100
AcDbEntity
8
0
100
AcDbLine
10
-32.478318719069328
20
65.060585496977467
30
0
11
-32.478318719069357
21
58.196178434446949
31
0
0
LINE
5
222
100
AcDbEntity
8
0
100
AcDbLine
10
-49.611089734236565
20
65.060585496977453
30
0
11
-47.661936787764397
21
65.060585496977453
31
0
0
LINE
5
223
100
AcDbEntity
8
0
100
AcDbLine
10
-47.661936787764397
20
65.060585496977453
30
0
11
-47.661936787764397
21
64.156630991057042
31
0
0
LINE
5
224
100
AcDbEntity
8
0
100
AcDbLine
10
-47.661936787764397
20
64.156630991057042
30
0
11
-47.633688954512444
21
64.156630991057042
31
0
0
SPLINE
5
225
100
AcDbEntity
8
0
100
AcDbSpline
70
0
71
2
72
6
73
3
74
0
42
0.000000001
43
0.0000000001
44
0.0000000001
40
0
40
0
40
0
40
1
40
1
40
1
10
-47.633688954512444
20
64.156630991057042
30
0
10
-47.506568936507072
20
64.34024667556632
30
0
10
-47.294705418745842
20
64.537986276701574
30
0
0
SPLINE
5
226
100
AcDbEntity
8
0
100
AcDbSpline
70
0
71
2
72
6
73
3
74
0
42
0.000000001
43
0.0000000001
44
0.0000000001
40
0
40
0
40
0
40
1
40
1
40
1
10
-47.294705418745842
20
64.537986276701574
30
0
10
-47.096965817610588
20
64.721601961210851
30
0
10
-46.814477948347893
20
64.876969812468175
30
0
0
SPLINE
5
227
100
AcDbEntity
8
0
100
AcDbSpline
70
0
71
2
72
6
73
3
74
0
42
0.000000001
43
0.0000000001
44
0.0000000001
40
0
40
0
40
0
40
1
40
1
40
1
10
-46.814477948347893
20
64.876969812468175
30
0
10
-46.546113995711174
20
65.032336471632604
30
0
10
-46.207135228316154
20
65.131207464293126
30
0
0
SPLINE
5
228
100
AcDbEntity
8
0
100
AcDbSpline
70
0
71
2
72
6
73
3
74
0
42
0.000000001
43
0.0000000001
44
0.0000000001
40
0
40
0
40
0
40
1
40
1
40
1
10
-46.207135228316154
20
65.131207464293126
30
0
10
-45.882275609175529
20
65.230077264860753
30
0
10
-45.529168156782951
20
65.230077264860753
30
0
0
SPLINE
5
229
100
AcDbEntity
8
0
100
AcDbSpline
70
0
71
2
72
6
73
3
74
0
42
0.000000001
43
0.0000000001
44
0.0000000001
40
0
40
0
40
0
40
1
40
1
40
1
10
-45.529168156782951
20
65.230077264860753
30
0
10
-44.766455201308098
20
65.230077264860753
30
0
10
-44.144986180464592
20
64.975839613035802
30
0
0
SPLINE
5
230
100
AcDbEntity
8
0
100
AcDbSpline
70
0
71
2
72
6
73
3
74
0
42
0.000000001
43
0.0000000001
44
0.0000000001
40
0
40
0
40
0
40
1
40
1
40
1
10
-44.144986180464592
20
64.975839613035802
30
0
10
-43.523517159621086
20
64.707478044584875
30
0
10
-43.071539906660888
20
64.241376874998693
30
0
0
SPLINE
5
231
100
AcDbEntity
8
0
100
AcDbSpline
70
0
71
2
72
6
73
3
74
0
42
0.000000001
43
0.0000000001
44
0.0000000001
40
0
40
0
40
0
40
1
40
1
40
1
10
-43.071539906660888
20
64.241376874998693
30
0
10
-42.63368657032666
20
63.761150596693639
30
0
10
-42.393572835127685
20
63.111432550505285
30
0
0
SPLINE
5
232
100
AcDbEntity
8
0
100
AcDbSpline
70
0
71
2
72
6
73
3
74
0
42
0.000000001
43
0.0000000001
44
0.0000000001
40
0
40
0
40
0
40
1
40
1
40
1
10
-42.393572835127685
20
63.111432550505285
30
0
10
-42.153461484114501
20
62.461715696409826
30
0
10
-42.153461484114516
20
61.684878824308996
30
0
0
SPLINE
5
233
100
AcDbEntity
8
0
100
AcDbSpline
70
0
71
2
72
6
73
3
74
0
42
0.000000001
43
0.0000000001
44
0.0000000001
40
0
40
0
40
0
40
1
40
1
40
1
10
-42.153461484114516
20
61.684878824308996
30
0
10
-42.153461484114516
20
60.964540002897863
30
0
10
-42.365325001875746
20
60.314823148802404
30
0
0
SPLINE
5
234
100
AcDbEntity
8
0
100
AcDbSpline
70
0
71
2
72
6
73
3
74
0
42
0.000000001
43
0.0000000001
44
0.0000000001
40
0
40
0
40
0
40
1
40
1
40
1
10
-42.365325001875746
20
60.314823148802404
30
0
10
-42.591314820448751
20
59.650981185988073
30
0
10
-42.986794022719259
20
59.142506478384618
30
0
0
SPLINE
5
235
100
AcDbEntity
8
0
100
AcDbSpline
70
0
71
2
72
6
73
3
74
0
42
0.000000001
43
0.0000000001
44
0.0000000001
40
0
40
0
40
0
40
1
40
1
40
1
10
-42.986794022719259
20
59.142506478384618
30
0
10
-43.396399525801534
20
58.634031770781164
30
0
10
-43.97549441258132
20
58.337421773031835
30
0
0
SPLINE
5
236
100
AcDbEntity
8
0
100
AcDbSpline
70
0
71
2
72
6
73
3
74
0
42
0.000000001
43
0.0000000001
44
0.0000000001
40
0
40
0
40
0
40
1
40
1
40
1
10
-43.97549441258132
20
58.337421773031835
30
0
10
-44.554591683546896
20
58.026687262610082
30
0
10
-45.289052037398214
20
58.026687262610082
30
0
0
SPLINE
5
237
100
AcDbEntity
8
0
100
AcDbSpline
70
0
71
2
72
6
73
3
74
0
42
0.000000001
43
0.0000000001
44
0.0000000001
40
0
40
0
40
0
40
1
40
1
40
1
10
-45.289052037398214
20
58.026687262610082
30
0
10
-45.952895192305441
20
58.026687262610082
30
0
10
-46.517866162459249
20
58.23855137641776
30
0
0
SPLINE
5
238
100
AcDbEntity
8
0
100
AcDbSpline
70
0
71
2
72
6
73
3
74
0
42
0.000000001
43
0.0000000001
44
0.0000000001
40
0
40
0
40
0
40
1
40
1
40
1
10
-46.517866162459249
20
58.23855137641776
30
0
10
-47.096965817610617
20
58.436291573599462
30
0
10
-47.464197186629171
20
58.930641768530492
30
0
0
LINE
5
239
100
AcDbEntity
8
0
100
AcDbLine
10
-47.464197186629171
20
58.930641768530492
30
0
11
-47.492445019881124
21
58.930641768530492
31
0
0
LINE
5
240
100
AcDbEntity
8
0
100
AcDbLine
10
-47.492445019881124
20
58.930641768530492
30
0
11
-47.492445019881146
21
54.382619617537145
31
0
0
LINE
5
241
100
AcDbEntity
8
0
100
AcDbLine
10
-47.492445019881146
20
54.382619617537145
30
0
11
-49.611089734236614
21
54.382619617537145
31
0
0
LINE
5
242
100
AcDbEntity
8
0
100
AcDbLine
10
-49.611089734236614
20
54.382619617537145
30
0
11
-49.611089734236565
21
65.060585496977453
31
0
0
SPLINE
5
243
100
AcDbEntity
8
0
100
AcDbSpline
70
0
71
2
72
6
73
3
74
0
42
0.000000001
43
0.0000000001
44
0.0000000001
40
0
40
0
40
0
40
1
40
1
40
1
10
-47.661936787764404
20
61.628381965712194
30
0
10
-47.661936787764418
20
60.851546285704259
30
0
10
-47.209957150618422
20
60.371320007399206
30
0
0
SPLINE
5
244
100
AcDbEntity
8
0
100
AcDbSpline
70
0
71
2
72
6
73
3
74
0
42
0.000000001
43
0.0000000001
44
0.0000000001
40
0
40
0
40
0
40
1
40
1
40
1
10
-47.209957150618422
20
60.371320007399206
30
0
10
-46.772106198469984
20
59.891093729094152
30
0
10
-45.96701910893141
20
59.891093729094152
30
0
0
SPLINE
5
245
100
AcDbEntity
8
0
100
AcDbSpline
70
0
71
2
72
6
73
3
74
0
42
0.000000001
43
0.0000000001
44
0.0000000001
40
0
40
0
40
0
40
1
40
1
40
1
10
-45.96701910893141
20
59.891093729094152
30
0
10
-45.161936787764418
20
59.891093729094152
30
0
10
-44.709957150618422
20
60.371320007399206
30
0
0
SPLINE
5
246
100
AcDbEntity
8
0
100
AcDbSpline
70
0
71
2
72
6
73
3
74
0
42
0.000000001
43
0.0000000001
44
0.0000000001
40
0
40
0
40
0
40
1
40
1
40
1
10
-44.709957150618422
20
60.371320007399206
30
0
10
-44.272103814284193
20
60.851546285704259
30
0
10
-44.272103814284193
20
61.628381965712194
30
0
0
SPLINE
5
247
100
AcDbEntity
8
0
100
AcDbSpline
70
0
71
2
72
6
73
3
74
0
42
0.000000001
43
0.0000000001
44
0.0000000001
40
0
40
0
40
0
40
1
40
1
40
1
10
-44.272103814284193
20
61.628381965712194
30
0
10
-44.272103814284179
20
62.405217645720128
30
0
10
-44.709957150618408
20
62.885443924025182
30
0
0
SPLINE
5
248
100
AcDbEntity
8
0
100
AcDbSpline
70
0
71
2
72
6
73
3
74
0
42
0.000000001
43
0.0000000001
44
0.0000000001
40
0
40
0
40
0
40
1
40
1
40
1
10
-44.709957150618408
20
62.885443924025182
30
0
10
-45.161936787764404
20
63.365670202330236
30
0
10
-45.967019108931396
20
63.365670202330236
30
0
0
SPLINE
5
249
100
AcDbEntity
8
0
100
AcDbSpline
70
0
71
2
72
6
73
3
74
0
42
0.000000001
43
0.0000000001
44
0.0000000001
40
0
40
0
40
0
40
1
40
1
40
1
10
-45.967019108931396
20
63.365670202330236
30
0
10
-46.77210619846997
20
63.365670202330236
30
0
10
-47.209957150618408
20
62.885443924025182
30
0
0
SPLINE
5
250
100
AcDbEntity
8
0
100
AcDbSpline
70
0
71
2
72
6
73
3
74
0
42
0.000000001
43
0.0000000001
44
0.0000000001
40
0
40
0
40
0
40
1
40
1
40
1
10
-47.209957150618408
20
62.885443924025182
30
0
10
-47.661936787764404
20
62.405217645720128
30
0
10
-47.661936787764404
20
61.628381965712194
30
0
0
SPLINE
5
251
100
AcDbEntity
8
0
100
AcDbSpline
70
0
71
2
72
6
73
3
74
0
42
0.000000001
43
0.0000000001
44
0.0000000001
40
0
40
0
40
0
40
1
40
1
40
1
10
-57.803180722395744
20
63.874144313887243
30
0
10
-57.294705418745842
20
64.523862360075597
30
0
10
-56.517870930830803
20
64.876969812468175
30
0
0
SPLINE
5
252
100
AcDbEntity
8
0
100
AcDbSpline
70
0
71
2
72
6
73
3
74
0
42
0.000000001
43
0.0000000001
44
0.0000000001
40
0
40
0
40
0
40
1
40
1
40
1
10
-56.517870930830803
20
64.876969812468175
30
0
10
-55.741031674544182
20
65.230077264860753
30
0
10
-54.907701520125237
20
65.230077264860753
30
0
0
SPLINE
5
253
100
AcDbEntity
8
0
100
AcDbSpline
70
0
71
2
72
6
73
3
74
0
42
0.000000001
43
0.0000000001
44
0.0000000001
40
0
40
0
40
0
40
1
40
1
40
1
10
-54.907701520125237
20
65.230077264860753
30
0
10
-54.116738347212639
20
65.230077264860753
30
0
10
-53.410523442427483
20
64.975839613035802
30
0
0
SPLINE
5
254
100
AcDbEntity
8
0
100
AcDbSpline
70
0
71
2
72
6
73
3
74
0
42
0.000000001
43
0.0000000001
44
0.0000000001
40
0
40
0
40
0
40
1
40
1
40
1
10
-53.410523442427483
20
64.975839613035802
30
0
10
-52.718432454268303
20
64.721601961210851
30
0
10
-52.195833233992424
20
64.255500791624669
30
0
0
SPLINE
5
255
100
AcDbEntity
8
0
100
AcDbSpline
70
0
71
2
72
6
73
3
74
0
42
0.000000001
43
0.0000000001
44
0.0000000001
40
0
40
0
40
0
40
1
40
1
40
1
10
-52.195833233992424
20
64.255500791624669
30
0
10
-51.687362698714111
20
63.775274513319616
30
0
10
-51.390750912825439
20
63.111432550505285
30
0
0
SPLINE
5
256
100
AcDbEntity
8
0
100
AcDbSpline
70
0
71
2
72
6
73
3
74
0
42
0.000000001
43
0.0000000001
44
0.0000000001
40
0
40
0
40
0
40
1
40
1
40
1
10
-51.390750912825439
20
63.111432550505285
30
0
10
-51.094139126936767
20
62.447591779783849
30
0
10
-51.094139126936767
20
61.628381965712194
30
0
0
SPLINE
5
257
100
AcDbEntity
8
0
100
AcDbSpline
70
0
71
2
72
6
73
3
74
0
42
0.000000001
43
0.0000000001
44
0.0000000001
40
0
40
0
40
0
40
1
40
1
40
1
10
-51.094139126936767
20
61.628381965712194
30
0
10
-51.094139126936781
20
60.809173343733434
30
0
10
-51.390750912825453
20
60.145331380919103
30
0
0
SPLINE
5
258
100
AcDbEntity
8
0
100
AcDbSpline
70
0
71
2
72
6
73
3
74
0
42
0.000000001
43
0.0000000001
44
0.0000000001
40
0
40
0
40
0
40
1
40
1
40
1
10
-51.390750912825453
20
60.145331380919103
30
0
10
-51.687362698714125
20
59.481489418104772
30
0
10
-52.195833233992452
20
59.015387652472143
30
0
0
SPLINE
5
259
100
AcDbEntity
8
0
100
AcDbSpline
70
0
71
2
72
6
73
3
74
0
42
0.000000001
43
0.0000000001
44
0.0000000001
40
0
40
0
40
0
40
1
40
1
40
1
10
-52.195833233992452
20
59.015387652472143
30
0
10
-52.718432454268331
20
58.535161970213537
30
0
10
-53.410523442427511
20
58.280924318388585
30
0
0
SPLINE
5
260
100
AcDbEntity
8
0
100
AcDbSpline
70
0
71
2
72
6
73
3
74
0
42
0.000000001
43
0.0000000001
44
0.0000000001
40
0
40
0
40
0
40
1
40
1
40
1
10
-53.410523442427511
20
58.280924318388585
30
0
10
-54.116738347212667
20
58.026687262610082
30
0
10
-54.907701520125265
20
58.026687262610082
30
0
0
SPLINE
5
261
100
AcDbEntity
8
0
100
AcDbSpline
70
0
71
2
72
6
73
3
74
0
42
0.000000001
43
0.0000000001
44
0.0000000001
40
0
40
0
40
0
40
1
40
1
40
1
10
-54.907701520125265
20
58.026687262610082
30
0
10
-55.642164258162374
20
58.026687262610082
30
0
10
-56.235383061568136
20
58.280924318388585
30
0
0
SPLINE
5
262
100
AcDbEntity
8
0
100
AcDbSpline
70
0
71
2
72
6
73
3
74
0
42
0.000000001
43
0.0000000001
44
0.0000000001
40
0
40
0
40
0
40
1
40
1
40
1
10
-56.235383061568136
20
58.280924318388585
30
0
10
-56.842725781599874
20
58.535161970213537
30
0
10
-57.252333668867941
20
59.015387652472143
30
0
0
SPLINE
5
263
100
AcDbEntity
8
0
100
AcDbSpline
70
0
71
2
72
6
73
3
74
0
42
0.000000001
43
0.0000000001
44
0.0000000001
40
0
40
0
40
0
40
1
40
1
40
1
10
-57.252333668867941
20
59.015387652472143
30
0
10
-57.676060704390395
20
59.481489418104772
30
0
10
-57.902048138777602
20
60.145331380919103
30
0
0
SPLINE
5
264
100
AcDbEntity
8
0
100
AcDbSpline
70
0
71
2
72
6
73
3
74
0
42
0.000000001
43
0.0000000001
44
0.0000000001
40
0
40
0
40
0
40
1
40
1
40
1
10
-57.902048138777602
20
60.145331380919103
30
0
10
-58.128040341536391
20
60.809173343733434
30
0
10
-58.128040341536376
20
61.628381965712194
30
0
0
LINE
5
265
100
AcDbEntity
8
0
100
AcDbLine
10
-58.128040341536376
20
61.628381965712194
30
0
11
-58.128040341536376
21
62.292223928526525
31
0
0
LINE
5
266
100
AcDbEntity
8
0
100
AcDbLine
10
-58.128040341536376
20
62.292223928526525
30
0
11
-53.212783841292236
21
62.292223928526525
31
0
0
SPLINE
5
267
100
AcDbEntity
8
0
100
AcDbSpline
70
0
71
2
72
6
73
3
74
0
42
0.000000001
43
0.0000000001
44
0.0000000001
40
0
40
0
40
0
40
1
40
1
40
1
10
-53.212783841292236
20
62.292223928526525
30
0
10
-53.339903859297607
20
62.899569032744054
30
0
10
-53.763630894820068
20
63.266800401762609
30
0
0
SPLINE
5
268
100
AcDbEntity
8
0
100
AcDbSpline
70
0
71
2
72
6
73
3
74
0
42
0.000000001
43
0.0000000001
44
0.0000000001
40
0
40
0
40
0
40
1
40
1
40
1
10
-53.763630894820068
20
63.266800401762609
30
0
10
-54.187362698714111
20
63.619907854155187
30
0
10
-54.808829335371826
20
63.619907854155187
30
0
0
SPLINE
5
269
100
AcDbEntity
8
0
100
AcDbSpline
70
0
71
2
72
6
73
3
74
0
42
0.000000001
43
0.0000000001
44
0.0000000001
40
0
40
0
40
0
40
1
40
1
40
1
10
-54.808829335371826
20
63.619907854155187
30
0
10
-55.331428555647705
20
63.619907854155187
30
0
10
-55.684536008040283
20
63.393919227675084
30
0
0
SPLINE
5
270
100
AcDbEntity
8
0
100
AcDbSpline
70
0
71
2
72
6
73
3
74
0
42
0.000000001
43
0.0000000001
44
0.0000000001
40
0
40
0
40
0
40
1
40
1
40
1
10
-55.684536008040283
20
63.393919227675084
30
0
10
-56.051767377058837
20
63.15380549247611
30
0
10
-56.320131329695556
20
62.786574123457555
30
0
0
LINE
5
271
100
AcDbEntity
8
0
100
AcDbLine
10
-56.320131329695556
20
62.786574123457555
30
0
11
-57.803180722395751
21
63.874144313887243
31
0
0
SPLINE
5
272
100
AcDbEntity
8
0
100
AcDbSpline
70
0
71
2
72
6
73
3
74
0
42
0.000000001
43
0.0000000001
44
0.0000000001
40
0
40
0
40
0
40
1
40
1
40
1
10
-56.009395627180922
20
60.851546285704259
30
0
10
-56.023519543806898
20
60.314823148802404
30
0
10
-55.656288174788344
20
59.933466671064977
30
0
0
SPLINE
5
273
100
AcDbEntity
8
0
100
AcDbSpline
70
0
71
2
72
6
73
3
74
0
42
0.000000001
43
0.0000000001
44
0.0000000001
40
0
40
0
40
0
40
1
40
1
40
1
10
-55.656288174788344
20
59.933466671064977
30
0
10
-55.289056805769789
20
59.552110789373998
30
0
10
-54.709961918990004
20
59.552110789373998
30
0
0
SPLINE
5
274
100
AcDbEntity
8
0
100
AcDbSpline
70
0
71
2
72
6
73
3
74
0
42
0.000000001
43
0.0000000001
44
0.0000000001
40
0
40
0
40
0
40
1
40
1
40
1
10
-54.709961918990004
20
59.552110789373998
30
0
10
-54.356854466597426
20
59.552110789373998
30
0
10
-54.088490513960707
20
59.665105102614049
30
0
0
SPLINE
5
275
100
AcDbEntity
8
0
100
AcDbSpline
70
0
71
2
72
6
73
3
74
0
42
0.000000001
43
0.0000000001
44
0.0000000001
40
0
40
0
40
0
40
1
40
1
40
1
10
-54.088490513960707
20
59.665105102614049
30
0
10
-53.82013132969557
20
59.778099415854101
30
0
10
-53.622386960188734
20
59.961715696409826
30
0
0
SPLINE
5
276
100
AcDbEntity
8
0
100
AcDbSpline
70
0
71
2
72
6
73
3
74
0
42
0.000000001
43
0.0000000001
44
0.0000000001
40
0
40
0
40
0
40
1
40
1
40
1
10
-53.622386960188734
20
59.961715696409826
30
0
10
-53.438771275679457
20
60.131206868246679
30
0
10
-53.325779942671645
20
60.371320007399206
30
0
0
SPLINE
5
277
100
AcDbEntity
8
0
100
AcDbSpline
70
0
71
2
72
6
73
3
74
0
42
0.000000001
43
0.0000000001
44
0.0000000001
40
0
40
0
40
0
40
1
40
1
40
1
10
-53.325779942671645
20
60.371320007399206
30
0
10
-53.226907757918227
20
60.597308633879308
30
0
10
-53.21278384129225
20
60.851546285704259
30
0
0
LINE
5
278
100
AcDbEntity
8
0
100
AcDbLine
10
-53.21278384129225
20
60.851546285704259
30
0
11
-56.009395627180922
21
60.851546285704259
31
0
0
LINE
5
279
100
AcDbEntity
8
0
100
AcDbLine
10
-59.413345364729757
20
58.196178434446935
30
0
11
-61.447246579329367
21
58.196178434446935
31
0
0
LINE
5
280
100
AcDbEntity
8
0
100
AcDbLine
10
-61.447246579329367
20
58.196178434446935
30
0
11
-61.447246579329367
21
59.128381965712194
31
0
0
LINE
5
281
100
AcDbEntity
8
0
100
AcDbLine
10
-61.447246579329367
20
59.128381965712194
30
0
11
-61.47549441258132
21
59.128381965712194
31
0
0
SPLINE
5
282
100
AcDbEntity
8
0
100
AcDbSpline
70
0
71
2
72
6
73
3
74
0
42
0.000000001
43
0.0000000001
44
0.0000000001
40
0
40
0
40
0
40
1
40
1
40
1
10
-61.47549441258132
20
59.128381965712194
30
0
10
-61.574361828963156
20
58.930641768530492
30
0
10
-61.757977513472433
20
58.732901571348791
30
0
0
SPLINE
5
283
100
AcDbEntity
8
0
100
AcDbSpline
70
0
71
2
72
6
73
3
74
0
42
0.000000001
43
0.0000000001
44
0.0000000001
40
0
40
0
40
0
40
1
40
1
40
1
10
-61.757977513472433
20
58.732901571348791
30
0
10
-61.94159319798171
20
58.535161970213537
30
0
10
-62.195833233992452
20
58.37979471500266
30
0
0
SPLINE
5
284
100
AcDbEntity
8
0
100
AcDbSpline
70
0
71
2
72
6
73
3
74
0
42
0.000000001
43
0.0000000001
44
0.0000000001
40
0
40
0
40
0
40
1
40
1
40
1
10
-62.195833233992452
20
58.37979471500266
30
0
10
-62.450068501631613
20
58.224427459791784
30
0
10
-62.774928120772238
20
58.125557063177709
30
0
0
SPLINE
5
285
100
AcDbEntity
8
0
100
AcDbSpline
70
0
71
2
72
6
73
3
74
0
42
0.000000001
43
0.0000000001
44
0.0000000001
40
0
40
0
40
0
40
1
40
1
40
1
10
-62.774928120772238
20
58.125557063177709
30
0
10
-63.099787739912863
20
58.026687262610082
30
0
10
-63.481143025557394
20
58.026687262610082
30
0
0
SPLINE
5
286
100
AcDbEntity
8
0
100
AcDbSpline
70
0
71
2
72
6
73
3
74
0
42
0.000000001
43
0.0000000001
44
0.0000000001
40
0
40
0
40
0
40
1
40
1
40
1
10
-63.481143025557394
20
58.026687262610082
30
0
10
-64.201481846968534
20
58.026687262610082
30
0
10
-64.752328900496366
20
58.323297260359411
30
0
0
SPLINE
5
287
100
AcDbEntity
8
0
100
AcDbSpline
70
0
71
2
72
6
73
3
74
0
42
0.000000001
43
0.0000000001
44
0.0000000001
40
0
40
0
40
0
40
1
40
1
40
1
10
-64.752328900496366
20
58.323297260359411
30
0
10
-65.317299870650174
20
58.619907258108739
30
0
10
-65.599787739912855
20
59.255500791624669
30
0
0
SPLINE
5
288
100
AcDbEntity
8
0
100
AcDbSpline
70
0
71
2
72
6
73
3
74
0
42
0.000000001
43
0.0000000001
44
0.0000000001
40
0
40
0
40
0
40
1
40
1
40
1
10
-65.599787739912855
20
59.255500791624669
30
0
10
-65.967019108931424
20
58.591658828810338
30
0
10
-66.489618329207303
20
58.309173343733434
30
0
0
SPLINE
5
289
100
AcDbEntity
8
0
100
AcDbSpline
70
0
71
2
72
6
73
3
74
0
42
0.000000001
43
0.0000000001
44
0.0000000001
40
0
40
0
40
0
40
1
40
1
40
1
10
-66.489618329207303
20
58.309173343733434
30
0
10
-67.012217549483182
20
58.026687262610082
30
0
10
-67.774928120772245
20
58.026687262610082
30
0
0
SPLINE
5
290
100
AcDbEntity
8
0
100
AcDbSpline
70
0
71
2
72
6
73
3
74
0
42
0.000000001
43
0.0000000001
44
0.0000000001
40
0
40
0
40
0
40
1
40
1
40
1
10
-67.774928120772245
20
58.026687262610082
30
0
10
-68.467019108931424
20
58.026687262610075
30
0
10
-68.933122662703397
20
58.266800401762602
30
0
0
SPLINE
5
291
100
AcDbEntity
8
0
100
AcDbSpline
70
0
71
2
72
6
73
3
74
0
42
0.000000001
43
0.0000000001
44
0.0000000001
40
0
40
0
40
0
40
1
40
1
40
1
10
-68.933122662703397
20
58.266800401762602
30
0
10
-69.413345364729764
20
58.492789028242704
30
0
10
-69.681709317366483
20
58.902393339232084
30
0
0
SPLINE
5
292
100
AcDbEntity
8
0
100
AcDbSpline
70
0
71
2
72
6
73
3
74
0
42
0.000000001
43
0.0000000001
44
0.0000000001
40
0
40
0
40
0
40
1
40
1
40
1
10
-69.681709317366483
20
58.902393339232084
30
0
10
-69.964192418257582
20
59.297873733595488
30
0
10
-70.077188519636977
20
59.84872078712332
30
0
0
SPLINE
5
293
100
AcDbEntity
8
0
100
AcDbSpline
70
0
71
2
72
6
73
3
74
0
42
0.000000001
43
0.0000000001
44
0.0000000001
40
0
40
0
40
0
40
1
40
1
40
1
10
-70.077188519636977
20
59.84872078712332
30
0
10
-70.204308537642348
20
60.385443924025175
30
0
10
-70.204308537642348
20
61.006912944868681
30
0
0
LINE
5
294
100
AcDbEntity
8
0
100
AcDbLine
10
-70.204308537642348
20
61.006912944868681
30
0
11
-70.204308537642333
21
65.060585496977438
31
0
0
LINE
5
295
100
AcDbEntity
8
0
100
AcDbLine
10
-70.204308537642333
20
65.060585496977438
30
0
11
-68.085663823286865
21
65.060585496977438
31
0
0
LINE
5
296
100
AcDbEntity
8
0
100
AcDbLine
10
-68.085663823286865
20
65.060585496977438
30
0
11
-68.085663823286879
21
61.063409803465483
31
0
0
SPLINE
5
297
100
AcDbEntity
8
0
100
AcDbSpline
70
0
71
2
72
6
73
3
74
0
42
0.000000001
43
0.0000000001
44
0.0000000001
40
0
40
0
40
0
40
1
40
1
40
1
10
-68.085663823286879
20
61.063409803465483
30
0
10
-68.085663823286879
20
60.583184717253332
30
0
10
-67.873800305525648
20
60.24420118148673
30
0
0
SPLINE
5
298
100
AcDbEntity
8
0
100
AcDbSpline
70
0
71
2
72
6
73
3
74
0
42
0.000000001
43
0.0000000001
44
0.0000000001
40
0
40
0
40
0
40
1
40
1
40
1
10
-67.873800305525648
20
60.24420118148673
30
0
10
-67.676055936018813
20
59.891093729094152
30
0
10
-67.153461484114516
20
59.891093729094152
30
0
0
SPLINE
5
299
100
AcDbEntity
8
0
100
AcDbSpline
70
0
71
2
72
6
73
3
74
0
42
0.000000001
43
0.0000000001
44
0.0000000001
40
0
40
0
40
0
40
1
40
1
40
1
10
-67.153461484114516
20
59.891093729094152
30
0
10
-66.786230115095961
20
59.891093729094152
30
0
10
-66.531990079085219
20
60.018212555006627
30
0
0
SPLINE
5
300
100
AcDbEntity
8
0
100
AcDbSpline
70
0
71
2
72
6
73
3
74
0
42
0.000000001
43
0.0000000001
44
0.0000000001
40
0
40
0
40
0
40
1
40
1
40
1
10
-66.531990079085219
20
60.018212555006627
30
0
10
-66.291878728072035
20
60.131206868246679
30
0
10
-66.136510876814711
20
60.343070982054357
30
0
0
SPLINE
5
301
100
AcDbEntity
8
0
100
AcDbSpline
70
0
71
2
72
6
73
3
74
0
42
0.000000001
43
0.0000000001
44
0.0000000001
40
0
40
0
40
0
40
1
40
1
40
1
10
-66.136510876814711
20
60.343070982054357
30
0
10
-65.995266942183363
20
60.554935691908483
30
0
10
-65.92464735905348
20
60.837421773031835
30
0
0
SPLINE
5
302
100
AcDbEntity
8
0
100
AcDbSpline
70
0
71
2
72
6
73
3
74
0
42
0.000000001
43
0.0000000001
44
0.0000000001
40
0
40
0
40
0
40
1
40
1
40
1
10
-65.92464735905348
20
60.837421773031835
30
0
10
-65.868146924177992
20
61.11990785415518
30
0
10
-65.868146924177992
20
61.430642364576933
30
0
0
LINE
5
303
100
AcDbEntity
8
0
100
AcDbLine
10
-65.868146924177992
20
61.430642364576933
30
0
11
-65.868146924177978
21
65.060585496977438
31
0
0
LINE
5
304
100
AcDbEntity
8
0
100
AcDbLine
10
-65.868146924177978
20
65.060585496977438
30
0
11
-63.749506978194084
21
65.060585496977438
31
0
0
LINE
5
305
100
AcDbEntity
8
0
100
AcDbLine
10
-63.749506978194084
20
65.060585496977453
30
0
11
-63.749506978194105
21
61.43064236457694
31
0
0
SPLINE
5
306
100
AcDbEntity
8
0
100
AcDbSpline
70
0
71
2
72
6
73
3
74
0
42
0.000000001
43
0.0000000001
44
0.0000000001
40
0
40
0
40
0
40
1
40
1
40
1
10
-63.749506978194105
20
61.43064236457694
30
0
10
-63.749506978194105
20
61.247025487974767
30
0
10
-63.735378293196547
20
60.978663919523839
30
0
0
SPLINE
5
307
100
AcDbEntity
8
0
100
AcDbSpline
70
0
71
2
72
6
73
3
74
0
42
0.000000001
43
0.0000000001
44
0.0000000001
40
0
40
0
40
0
40
1
40
1
40
1
10
-63.735378293196547
20
60.978663919523839
30
0
10
-63.72125437657057
20
60.710302947119359
30
0
10
-63.636510876814711
20
60.470189807966833
30
0
0
SPLINE
5
308
100
AcDbEntity
8
0
100
AcDbSpline
70
0
71
2
72
6
73
3
74
0
42
0.000000001
43
0.0000000001
44
0.0000000001
40
0
40
0
40
0
40
1
40
1
40
1
10
-63.636510876814711
20
60.470189807966833
30
0
10
-63.55176260868727
20
60.230077264860753
30
0
10
-63.354023007552016
20
60.060585496977453
30
0
0
SPLINE
5
309
100
AcDbEntity
8
0
100
AcDbSpline
70
0
71
2
72
6
73
3
74
0
42
0.000000001
43
0.0000000001
44
0.0000000001
40
0
40
0
40
0
40
1
40
1
40
1
10
-63.354023007552016
20
60.060585496977453
30
0
10
-63.170407323042738
20
59.891093729094152
30
0
10
-62.803175954024184
20
59.891093729094152
30
0
0
SPLINE
5
310
100
AcDbEntity
8
0
100
AcDbSpline
70
0
71
2
72
6
73
3
74
0
42
0.000000001
43
0.0000000001
44
0.0000000001
40
0
40
0
40
0
40
1
40
1
40
1
10
-62.803175954024184
20
59.891093729094152
30
0
10
-62.393572835127699
20
59.891093729094152
30
0
10
-62.139332799116957
20
60.046460984305028
30
0
0
SPLINE
5
311
100
AcDbEntity
8
0
100
AcDbSpline
70
0
71
2
72
6
73
3
74
0
42
0.000000001
43
0.0000000001
44
0.0000000001
40
0
40
0
40
0
40
1
40
1
40
1
10
-62.139332799116957
20
60.046460984305028
30
0
10
-61.885097531477797
20
60.187704322889928
30
0
10
-61.743853596846449
20
60.441941378668432
30
0
0
SPLINE
5
312
100
AcDbEntity
8
0
100
AcDbSpline
70
0
71
2
72
6
73
3
74
0
42
0.000000001
43
0.0000000001
44
0.0000000001
40
0
40
0
40
0
40
1
40
1
40
1
10
-61.743853596846449
20
60.441941378668432
30
0
10
-61.61673834721266
20
60.682054517820958
30
0
10
-61.574361828963148
20
60.992789028242711
30
0
0
SPLINE
5
313
100
AcDbEntity
8
0
100
AcDbSpline
70
0
71
2
72
6
73
3
74
0
42
0.000000001
43
0.0000000001
44
0.0000000001
40
0
40
0
40
0
40
1
40
1
40
1
10
-61.574361828963148
20
60.992789028242711
30
0
10
-61.531990079085219
20
61.303523538664464
30
0
10
-61.531990079085205
20
61.642507074431066
30
0
0
LINE
5
314
100
AcDbEntity
8
0
100
AcDbLine
10
-61.531990079085205
20
61.642507074431066
30
0
11
-61.531990079085197
21
65.060585496977453
31
0
0
LINE
5
315
100
AcDbEntity
8
0
100
AcDbLine
10
-61.531990079085197
20
65.060585496977453
30
0
11
-59.413345364729729
21
65.060585496977453
31
0
0
LINE
5
316
100
AcDbEntity
8
0
100
AcDbLine
10
-59.413345364729729
20
65.060585496977453
30
0
11
-59.413345364729757
21
58.196178434446935
31
0
0
SPLINE
5
317
100
AcDbEntity
8
0
100
AcDbSpline
70
0
71
2
72
6
73
3
74
0
42
0.000000001
43
0.0000000001
44
0.0000000001
40
0
40
0
40
0
40
1
40
1
40
1
10
-71.447246579329345
20
61.628381965712187
30
0
10
-71.447246579329359
20
60.809173343733427
30
0
10
-71.743858365218031
20
60.145331380919096
30
0
0
SPLINE
5
318
100
AcDbEntity
8
0
100
AcDbSpline
70
0
71
2
72
6
73
3
74
0
42
0.000000001
43
0.0000000001
44
0.0000000001
40
0
40
0
40
0
40
1
40
1
40
1
10
-71.743858365218031
20
60.145331380919096
30
0
10
-72.040465382735121
20
59.481489418104765
30
0
10
-72.548940686385038
20
59.015387652472135
30
0
0
SPLINE
5
319
100
AcDbEntity
8
0
100
AcDbSpline
70
0
71
2
72
6
73
3
74
0
42
0.000000001
43
0.0000000001
44
0.0000000001
40
0
40
0
40
0
40
1
40
1
40
1
10
-72.548940686385038
20
59.015387652472135
30
0
10
-73.071539906660917
20
58.53516197021353
30
0
10
-73.763630894820096
20
58.280924318388578
30
0
0
SPLINE
5
320
100
AcDbEntity
8
0
100
AcDbSpline
70
0
71
2
72
6
73
3
74
0
42
0.000000001
43
0.0000000001
44
0.0000000001
40
0
40
0
40
0
40
1
40
1
40
1
10
-73.763630894820096
20
58.280924318388578
30
0
10
-74.469845799605253
20
58.026687262610075
30
0
10
-75.260804204146268
20
58.026687262610075
30
0
0
SPLINE
5
321
100
AcDbEntity
8
0
100
AcDbSpline
70
0
71
2
72
6
73
3
74
0
42
0.000000001
43
0.0000000001
44
0.0000000001
40
0
40
0
40
0
40
1
40
1
40
1
10
-75.260804204146268
20
58.026687262610075
30
0
10
-76.051767377058866
20
58.026687262610075
30
0
10
-76.743858365218045
20
58.280924318388578
30
0
0
SPLINE
5
322
100
AcDbEntity
8
0
100
AcDbSpline
70
0
71
2
72
6
73
3
74
0
42
0.000000001
43
0.0000000001
44
0.0000000001
40
0
40
0
40
0
40
1
40
1
40
1
10
-76.743858365218045
20
58.280924318388578
30
0
10
-77.45006850163162
20
58.53516197021353
30
0
10
-77.958543805281522
20
59.015387652472135
30
0
0
SPLINE
5
323
100
AcDbEntity
8
0
100
AcDbSpline
70
0
71
2
72
6
73
3
74
0
42
0.000000001
43
0.0000000001
44
0.0000000001
40
0
40
0
40
0
40
1
40
1
40
1
10
-77.958543805281522
20
59.015387652472135
30
0
10
-78.481143025557387
20
59.481489418104765
30
0
10
-78.777754811446059
20
60.145331380919096
30
0
0
SPLINE
5
324
100
AcDbEntity
8
0
100
AcDbSpline
70
0
71
2
72
6
73
3
74
0
42
0.000000001
43
0.0000000001
44
0.0000000001
40
0
40
0
40
0
40
1
40
1
40
1
10
-78.777754811446059
20
60.145331380919096
30
0
10
-79.07436659733473
20
60.809173343733427
30
0
10
-79.074366597334716
20
61.628381965712187
30
0
0
SPLINE
5
325
100
AcDbEntity
8
0
100
AcDbSpline
70
0
71
2
72
6
73
3
74
0
42
0.000000001
43
0.0000000001
44
0.0000000001
40
0
40
0
40
0
40
1
40
1
40
1
10
-79.074366597334716
20
61.628381965712187
30
0
10
-79.074366597334716
20
62.447591779783842
30
0
10
-78.777754811446044
20
63.111432550505278
30
0
0
SPLINE
5
326
100
AcDbEntity
8
0
100
AcDbSpline
70
0
71
2
72
6
73
3
74
0
42
0.000000001
43
0.0000000001
44
0.0000000001
40
0
40
0
40
0
40
1
40
1
40
1
10
-78.777754811446044
20
63.111432550505278
30
0
10
-78.481143025557373
20
63.775274513319609
30
0
10
-77.958543805281494
20
64.255500791624655
30
0
0
SPLINE
5
327
100
AcDbEntity
8
0
100
AcDbSpline
70
0
71
2
72
6
73
3
74
0
42
0.000000001
43
0.0000000001
44
0.0000000001
40
0
40
0
40
0
40
1
40
1
40
1
10
-77.958543805281494
20
64.255500791624655
30
0
10
-77.450068501631591
20
64.721601961210837
30
0
10
-76.743858365218017
20
64.975839613035788
30
0
0
SPLINE
5
328
100
AcDbEntity
8
0
100
AcDbSpline
70
0
71
2
72
6
73
3
74
0
42
0.000000001
43
0.0000000001
44
0.0000000001
40
0
40
0
40
0
40
1
40
1
40
1
10
-76.743858365218017
20
64.975839613035788
30
0
10
-76.051767377058837
20
65.230077264860739
30
0
10
-75.26080420414624
20
65.230077264860739
30
0
0
SPLINE
5
329
100
AcDbEntity
8
0
100
AcDbSpline
70
0
71
2
72
6
73
3
74
0
42
0.000000001
43
0.0000000001
44
0.0000000001
40
0
40
0
40
0
40
1
40
1
40
1
10
-75.26080420414624
20
65.230077264860739
30
0
10
-74.469845799605224
20
65.230077264860739
30
0
10
-73.763630894820068
20
64.975839613035788
30
0
0
SPLINE
5
330
100
AcDbEntity
8
0
100
AcDbSpline
70
0
71
2
72
6
73
3
74
0
42
0.000000001
43
0.0000000001
44
0.0000000001
40
0
40
0
40
0
40
1
40
1
40
1
10
-73.763630894820068
20
64.975839613035788
30
0
10
-73.071539906660888
20
64.721601961210837
30
0
10
-72.548940686385009
20
64.255500791624655
30
0
0
SPLINE
5
331
100
AcDbEntity
8
0
100
AcDbSpline
70
0
71
2
72
6
73
3
74
0
42
0.000000001
43
0.0000000001
44
0.0000000001
40
0
40
0
40
0
40
1
40
1
40
1
10
-72.548940686385009
20
64.255500791624655
30
0
10
-72.040465382735107
20
63.775274513319609
30
0
10
-71.743858365218017
20
63.111432550505278
30
0
0
SPLINE
5
332
100
AcDbEntity
8
0
100
AcDbSpline
70
0
71
2
72
6
73
3
74
0
42
0.000000001
43
0.0000000001
44
0.0000000001
40
0
40
0
40
0
40
1
40
1
40
1
10
-71.743858365218017
20
63.111432550505278
30
0
10
-71.447246579329345
20
62.447591779783842
30
0
10
-71.447246579329345
20
61.628381965712187
30
0
0
SPLINE
5
333
100
AcDbEntity
8
0
100
AcDbSpline
70
0
71
2
72
6
73
3
74
0
42
0.000000001
43
0.0000000001
44
0.0000000001
40
0
40
0
40
0
40
1
40
1
40
1
10
-73.565891293684814
20
61.628381965712187
30
0
10
-73.565891293684814
20
62.405217645720121
30
0
10
-74.003742245833251
20
62.885443924025175
30
0
0
SPLINE
5
334
100
AcDbEntity
8
0
100
AcDbSpline
70
0
71
2
72
6
73
3
74
0
42
0.000000001
43
0.0000000001
44
0.0000000001
40
0
40
0
40
0
40
1
40
1
40
1
10
-74.003742245833251
20
62.885443924025175
30
0
10
-74.455721882979248
20
63.365670202330229
30
0
10
-75.26080420414624
20
63.365670202330229
30
0
0
SPLINE
5
335
100
AcDbEntity
8
0
100
AcDbSpline
70
0
71
2
72
6
73
3
74
0
42
0.000000001
43
0.0000000001
44
0.0000000001
40
0
40
0
40
0
40
1
40
1
40
1
10
-75.26080420414624
20
63.365670202330229
30
0
10
-76.065891293684814
20
63.365670202330229
30
0
10
-76.503742245833251
20
62.885443924025175
30
0
0
SPLINE
5
336
100
AcDbEntity
8
0
100
AcDbSpline
70
0
71
2
72
6
73
3
74
0
42
0.000000001
43
0.0000000001
44
0.0000000001
40
0
40
0
40
0
40
1
40
1
40
1
10
-76.503742245833251
20
62.885443924025175
30
0
10
-76.955721882979248
20
62.405217645720121
30
0
10
-76.955721882979248
20
61.628381965712187
30
0
0
SPLINE
5
337
100
AcDbEntity
8
0
100
AcDbSpline
70
0
71
2
72
6
73
3
74
0
42
0.000000001
43
0.0000000001
44
0.0000000001
40
0
40
0
40
0
40
1
40
1
40
1
10
-76.955721882979248
20
61.628381965712187
30
0
10
-76.955721882979262
20
60.851546285704252
30
0
10
-76.503742245833266
20
60.371320007399198
30
0
0
SPLINE
5
338
100
AcDbEntity
8
0
100
AcDbSpline
70
0
71
2
72
6
73
3
74
0
42
0.000000001
43
0.0000000001
44
0.0000000001
40
0
40
0
40
0
40
1
40
1
40
1
10
-76.503742245833266
20
60.371320007399198
30
0
10
-76.065891293684828
20
59.891093729094145
30
0
10
-75.260804204146254
20
59.891093729094145
30
0
0
SPLINE
5
339
100
AcDbEntity
8
0
100
AcDbSpline
70
0
71
2
72
6
73
3
74
0
42
0.000000001
43
0.0000000001
44
0.0000000001
40
0
40
0
40
0
40
1
40
1
40
1
10
-75.260804204146254
20
59.891093729094145
30
0
10
-74.455721882979262
20
59.891093729094145
30
0
10
-74.003742245833266
20
60.371320007399198
30
0
0
SPLINE
5
340
100
AcDbEntity
8
0
100
AcDbSpline
70
0
71
2
72
6
73
3
74
0
42
0.000000001
43
0.0000000001
44
0.0000000001
40
0
40
0
40
0
40
1
40
1
40
1
10
-74.003742245833266
20
60.371320007399198
30
0
10
-73.565891293684828
20
60.851546285704252
30
0
10
-73.565891293684814
20
61.628381965712187
30
0
0
ENDSEC
0
SECTION
2
OBJECTS
0
DICTIONARY
5
C
100
AcDbDictionary
3
ACAD_GROUP
350
D
3
ACAD_MLINESTYLE
350
17
0
DICTIONARY
5
D
100
AcDbDictionary
0
DICTIONARY
5
1A
330
C
100
AcDbDictionary
0
DICTIONARY
5
17
100
AcDbDictionary
0
ENDSEC
0
EOF
