0
SECTION
2
HEADER
9
$INSUNITS
70
4
9
$ACADVER
1
AC1014
9
$HANDSEED
5
FFFF
0
ENDSEC
0
SECTION
2
TABLES
0
TABLE
2
VPORT
5
8
100
AcDbSymbolTable
0
ENDTAB
0
TABLE
2
LTYPE
5
5
100
AcDbSymbolTable
0
LTYPE
5
14
100
AcDbSymbolTableRecord
100
AcDbLinetypeTableRecord
2
BYBLOCK
70
0
0
LTYPE
5
15
100
AcDbSymbolTableRecord
100
AcDbLinetypeTableRecord
2
BYLAYER
70
0
0
LTYPE
5
16
100
AcDbSymbolTableRecord
100
AcDbLinetypeTableRecord
2
DASHED
70
0
3
Dashed __ __ __ __ __ __ __ __ __ __ __ __ __ _
72
65
73
2
40
0.75
49
0.5
74
0
49
-0.25
74
0
0
ENDTAB
0
TABLE
2
LAYER
5
2
100
AcDbSymbolTable
70
2
0
LAYER
5
50
100
AcDbSymbolTableRecord
100
AcDbLayerTableRecord
2
0
70
0
62
7
6
CONTINUOUS
0
ENDTAB
0
TABLE
2
STYLE
5
3
100
AcDbSymbolTable
70
1
0
STYLE
5
11
100
AcDbSymbolTableRecord
100
AcDbTextStyleTableRecord
2
STANDARD
70
0
0
ENDTAB
0
TABLE
2
VIEW
5
6
100
AcDbSymbolTable
70
0
0
ENDTAB
0
TABLE
2
UCS
5
7
100
AcDbSymbolTable
70
0
0
ENDTAB
0
TABLE
2
APPID
5
9
100
AcDbSymbolTable
70
2
0
APPID
5
12
100
AcDbSymbolTableRecord
100
AcDbRegAppTableRecord
2
ACAD
70
0
0
ENDTAB
0
TABLE
2
DIMSTYLE
5
A
100
AcDbSymbolTable
70
1
0
ENDTAB
0
TABLE
2
BLOCK_RECORD
5
1
100
AcDbSymbolTable
70
1
0
BLOCK_RECORD
5
1F
100
AcDbSymbolTableRecord
100
AcDbBlockTableRecord
2
*MODEL_SPACE
0
BLOCK_RECORD
5
1B
100
AcDbSymbolTableRecord
100
AcDbBlockTableRecord
2
*PAPER_SPACE
0
ENDTAB
0
ENDSEC
0
SECTION
2
BLOCKS
0
BLOCK
5
20
100
AcDbEntity
100
AcDbBlockBegin
2
*MODEL_SPACE
0
ENDBLK
5
21
100
AcDbEntity
100
AcDbBlockEnd
0
BLOCK
5
1C
100
AcDbEntity
100
AcDbBlockBegin
2
*PAPER_SPACE
0
ENDBLK
5
1D
100
AcDbEntity
100
AcDbBlockEnd
0
ENDSEC
0
SECTION
2
ENTITIES
0
SPLINE
5
100
100
AcDbEntity
8
0
100
AcDbSpline
70
4
71
3
72
8
73
4
74
0
42
0.000000001
43
0.0000000001
44
0.0000000001
40
0
40
0
40
0
40
0
40
1
40
1
40
1
40
1
41
1
41
1
41
1
41
1
10
-18.679582929611207
20
58.711040051778163
30
0
10
-19.314583333333339
20
58.711040051778163
30
0
10
-19.817292070388795
20
59.21374677022299
30
0
10
-19.817292070388795
20
59.848749192555751
30
0
0
SPLINE
5
101
100
AcDbEntity
8
0
100
AcDbSpline
70
4
71
3
72
8
73
4
74
0
42
0.000000001
43
0.0000000001
44
0.0000000001
40
0
40
0
40
0
40
0
40
1
40
1
40
1
40
1
41
1
41
1
41
1
41
1
10
-19.817292070388795
20
59.848749192555751
30
0
10
-19.817292070388795
20
60.483751614888519
30
0
10
-19.314583333333339
20
60.986458333333346
30
0
10
-18.679582929611207
20
60.986458333333346
30
0
0
SPLINE
5
102
100
AcDbEntity
8
0
100
AcDbSpline
70
4
71
3
72
8
73
4
74
0
42
0.000000001
43
0.0000000001
44
0.0000000001
40
0
40
0
40
0
40
0
40
1
40
1
40
1
40
1
41
1
41
1
41
1
41
1
10
-18.679582929611207
20
60.986458333333346
30
0
10
-18.04458252588908
20
60.986458333333346
30
0
10
-17.541873788833623
20
60.483751614888519
30
0
10
-17.541873788833623
20
59.848749192555751
30
0
0
SPLINE
5
103
100
AcDbEntity
8
0
100
AcDbSpline
70
4
71
3
72
8
73
4
74
0
42
0.000000001
43
0.0000000001
44
0.0000000001
40
0
40
0
40
0
40
0
40
1
40
1
40
1
40
1
41
1
41
1
41
1
41
1
10
-17.541873788833623
20
59.848749192555751
30
0
10
-17.541873788833623
20
59.21374677022299
30
0
10
-18.04458252588908
20
58.711040051778163
30
0
10
-18.679582929611207
20
58.711040051778163
30
0
0
LINE
5
104
100
AcDbEntity
8
0
100
AcDbLine
10
-32.490846252441408
20
65.113935724894219
30
0
11
-32.30562459627788
21
65.008124192555755
31
0
0
LINE
5
105
100
AcDbEntity
8
0
100
AcDbLine
10
-32.30562459627788
20
65.008124192555755
30
0
11
-32.146875000000009
21
64.902292474110936
31
0
0
LINE
5
106
100
AcDbEntity
8
0
100
AcDbLine
10
-32.146875000000009
20
64.902292474110936
30
0
11
-31.988125403722133
21
64.770000807444262
31
0
0
LINE
5
107
100
AcDbEntity
8
0
100
AcDbLine
10
-31.988125403722133
20
64.770000807444262
30
0
11
-31.723542070388795
21
64.505417474110928
31
0
0
LINE
5
108
100
AcDbEntity
8
0
100
AcDbLine
10
-31.723542070388795
20
64.505417474110928
30
0
11
-31.591250403722132
21
64.346665859222426
31
0
0
LINE
5
109
100
AcDbEntity
8
0
100
AcDbLine
10
-31.591250403722132
20
64.346665859222426
30
0
11
-31.485416666666669
21
64.187914244333911
31
0
0
LINE
5
110
100
AcDbEntity
8
0
100
AcDbLine
10
-31.485416666666669
20
64.187914244333911
30
0
11
-31.37958292961121
21
64.002706718444827
31
0
0
LINE
5
111
100
AcDbEntity
8
0
100
AcDbLine
10
-31.37958292961121
20
64.002706718444827
30
0
11
-31.300207122166952
21
63.817499192555751
31
0
0
LINE
5
112
100
AcDbEntity
8
0
100
AcDbLine
10
-31.300207122166952
20
63.817499192555751
30
0
11
-31.194375403722134
21
63.447084140777591
31
0
0
LINE
5
113
100
AcDbEntity
8
0
100
AcDbLine
10
-31.194375403722134
20
63.447084140777591
30
0
11
-31.194375403722134
21
63.261876614888514
31
0
0
LINE
5
114
100
AcDbEntity
8
0
100
AcDbLine
10
-31.194375403722134
20
63.261876614888514
30
0
11
-31.141459544499721
21
63.076669088999438
31
0
0
LINE
5
115
100
AcDbEntity
8
0
100
AcDbLine
10
-31.141459544499721
20
63.076669088999438
30
0
11
-31.141459544499721
21
62.521042474110935
31
0
0
LINE
5
116
100
AcDbEntity
8
0
100
AcDbLine
10
-31.141459544499721
20
62.521042474110935
30
0
11
-31.220835351943975
21
62.335834948221844
31
0
0
LINE
5
117
100
AcDbEntity
8
0
100
AcDbLine
10
-31.220835351943975
20
62.335834948221844
30
0
11
-31.273751211166388
21
62.150627422332775
31
0
0
LINE
5
118
100
AcDbEntity
8
0
100
AcDbLine
10
-31.273751211166388
20
62.150627422332775
30
0
11
-31.432502826054897
21
61.780212370554608
31
0
0
LINE
5
119
100
AcDbEntity
8
0
100
AcDbLine
10
-31.432502826054897
20
61.780212370554608
30
0
11
-31.538336563110356
21
61.621460755666106
31
0
0
LINE
5
120
100
AcDbEntity
8
0
100
AcDbLine
10
-31.538336563110356
20
61.621460755666106
30
0
11
-31.80291989644369
21
61.303957525889089
31
0
0
LINE
5
121
100
AcDbEntity
8
0
100
AcDbLine
10
-31.80291989644369
20
61.303957525889089
30
0
11
-31.935211563110357
21
61.171665859222415
31
0
0
LINE
5
122
100
AcDbEntity
8
0
100
AcDbLine
10
-31.935211563110357
20
61.171665859222415
30
0
11
-32.093961159388229
21
61.039374192555755
31
0
0
LINE
5
123
100
AcDbEntity
8
0
100
AcDbLine
10
-32.093961159388229
20
61.039374192555755
30
0
11
-32.411460351943973
21
60.827710755666111
31
0
0
LINE
5
124
100
AcDbEntity
8
0
100
AcDbLine
10
-32.411460351943973
20
60.827710755666111
30
0
11
-32.781875403722132
21
60.668959140777602
31
0
0
LINE
5
125
100
AcDbEntity
8
0
100
AcDbLine
10
-32.781875403722132
20
60.668959140777602
30
0
11
-32.967082929611209
21
60.616043281555186
31
0
0
LINE
5
126
100
AcDbEntity
8
0
100
AcDbLine
10
-32.967082929611209
20
60.616043281555186
30
0
11
-33.152290455500285
21
60.616043281555186
31
0
0
LINE
5
127
100
AcDbEntity
8
0
100
AcDbLine
10
-33.152290455500285
20
60.616043281555186
30
0
11
-33.337497981389369
21
60.563127422332776
31
0
0
LINE
5
128
100
AcDbEntity
8
0
100
AcDbLine
10
-33.337497981389369
20
60.563127422332776
30
0
11
-34.977915859222421
21
59.557709948221856
31
0
0
LINE
5
129
100
AcDbEntity
8
0
100
AcDbLine
10
-34.977915859222421
20
59.557709948221856
30
0
11
-34.898540051778163
21
58.261253229777026
31
0
0
LINE
5
130
100
AcDbEntity
8
0
100
AcDbLine
10
-34.898540051778163
20
58.261253229777026
30
0
11
-33.125832525889081
21
57.46750322977703
31
0
0
LINE
5
131
100
AcDbEntity
8
0
100
AcDbLine
10
-33.125832525889081
20
57.46750322977703
30
0
11
-32.570207929611207
21
57.46750322977703
31
0
0
SPLINE
5
132
100
AcDbEntity
8
0
100
AcDbSpline
70
0
71
2
72
6
73
3
74
0
42
0.000000001
43
0.0000000001
44
0.0000000001
40
0
40
0
40
0
40
1
40
1
40
1
10
-32.570207929611207
20
57.46750322977703
30
0
10
-32.570207929611207
20
57.441043281555181
30
0
10
-32.385000403722131
20
57.388127422332772
30
0
0
LINE
5
133
100
AcDbEntity
8
0
100
AcDbLine
10
-32.385000403722131
20
57.388127422332772
30
0
11
-32.199792877833055
21
57.335211563110356
31
0
0
LINE
5
134
100
AcDbEntity
8
0
100
AcDbLine
10
-32.199792877833055
20
57.335211563110356
30
0
11
-31.829377826054895
21
57.176459948221854
31
0
0
LINE
5
135
100
AcDbEntity
8
0
100
AcDbLine
10
-31.829377826054895
20
57.176459948221854
30
0
11
-31.511878633499151
21
56.964796511332203
31
0
0
LINE
5
136
100
AcDbEntity
8
0
100
AcDbLine
10
-31.511878633499151
20
56.964796511332203
30
0
11
-31.353129037221276
21
56.832504844665536
31
0
0
LINE
5
137
100
AcDbEntity
8
0
100
AcDbLine
10
-31.353129037221276
20
56.832504844665536
30
0
11
-31.220837370554612
21
56.700213177998862
31
0
0
LINE
5
138
100
AcDbEntity
8
0
100
AcDbLine
10
-31.220837370554612
20
56.700213177998862
30
0
11
-31.088545703887945
21
56.54146156311036
31
0
0
LINE
5
139
100
AcDbEntity
8
0
100
AcDbLine
10
-31.088545703887945
20
56.54146156311036
30
0
11
-30.876878229777024
21
56.223958333333343
31
0
0
LINE
5
140
100
AcDbEntity
8
0
100
AcDbLine
10
-30.876878229777024
20
56.223958333333343
30
0
11
-30.718126614888511
21
55.853543281555183
31
0
0
LINE
5
141
100
AcDbEntity
8
0
100
AcDbLine
10
-30.718126614888511
20
55.853543281555183
30
0
11
-30.665210755666102
21
55.668335755666106
31
0
0
LINE
5
142
100
AcDbEntity
8
0
100
AcDbLine
10
-30.665210755666102
20
55.668335755666106
30
0
11
-30.665210755666102
21
55.483128229777023
31
0
0
LINE
5
143
100
AcDbEntity
8
0
100
AcDbLine
10
-30.665210755666102
20
55.483128229777023
30
0
11
-30.612294896443689
21
55.297920703887947
31
0
0
LINE
5
144
100
AcDbEntity
8
0
100
AcDbLine
10
-30.612294896443689
20
55.297920703887947
30
0
11
-30.612294896443689
21
54.742294088999444
31
0
0
LINE
5
145
100
AcDbEntity
8
0
100
AcDbLine
10
-30.612294896443689
20
54.742294088999444
30
0
11
-30.718126614888511
21
54.371879037221277
31
0
0
LINE
5
146
100
AcDbEntity
8
0
100
AcDbLine
10
-30.718126614888511
20
54.371879037221277
30
0
11
-30.876878229777024
21
54.001463985443117
31
0
0
LINE
5
147
100
AcDbEntity
8
0
100
AcDbLine
10
-30.876878229777024
20
54.001463985443117
30
0
11
-31.088545703887945
21
53.683960755666106
31
0
0
LINE
5
148
100
AcDbEntity
8
0
100
AcDbLine
10
-31.088545703887945
20
53.683960755666106
30
0
11
-31.220837370554612
21
53.525209140777591
31
0
0
LINE
5
149
100
AcDbEntity
8
0
100
AcDbLine
10
-31.220837370554612
20
53.525209140777591
30
0
11
-31.353129037221276
21
53.392917474110924
31
0
0
LINE
5
150
100
AcDbEntity
8
0
100
AcDbLine
10
-31.353129037221276
20
53.392917474110924
30
0
11
-31.511878633499148
21
53.260625807444264
31
0
0
LINE
5
151
100
AcDbEntity
8
0
100
AcDbLine
10
-31.511878633499148
20
53.260625807444264
30
0
11
-31.670628229777019
21
53.154794088999438
31
0
0
LINE
5
152
100
AcDbEntity
8
0
100
AcDbLine
10
-31.670628229777019
20
53.154794088999438
30
0
11
-32.596669896443693
21
51.461462370554614
31
0
0
LINE
5
153
100
AcDbEntity
8
0
100
AcDbLine
10
-32.596669896443693
20
51.461462370554614
30
0
11
-31.882295703887941
21
50.376669088999435
31
0
0
LINE
5
154
100
AcDbEntity
8
0
100
AcDbLine
10
-31.882295703887941
20
50.376669088999435
30
0
11
-29.950836563110357
21
50.561876614888519
31
0
0
LINE
5
155
100
AcDbEntity
8
0
100
AcDbLine
10
-29.950836563110357
20
50.561876614888519
30
0
11
-29.792086966832482
21
50.667708333333337
31
0
0
LINE
5
156
100
AcDbEntity
8
0
100
AcDbLine
10
-29.792086966832482
20
50.667708333333337
30
0
11
-29.421671915054329
21
50.826459948221853
31
0
0
LINE
5
157
100
AcDbEntity
8
0
100
AcDbLine
10
-29.421671915054329
20
50.826459948221853
30
0
11
-29.051256863276169
21
50.932291666666671
31
0
0
LINE
5
158
100
AcDbEntity
8
0
100
AcDbLine
10
-29.051256863276169
20
50.932291666666671
30
0
11
-28.125215196609503
21
50.932291666666671
31
0
0
SPLINE
5
159
100
AcDbEntity
8
0
100
AcDbSpline
70
0
71
2
72
6
73
3
74
0
42
0.000000001
43
0.0000000001
44
0.0000000001
40
0
40
0
40
0
40
1
40
1
40
1
10
-28.125215196609503
20
50.932291666666671
30
0
10
-28.125215196609503
20
50.90583171844483
30
0
10
-27.940007670720423
20
50.852915859222421
30
0
0
LINE
5
160
100
AcDbEntity
8
0
100
AcDbLine
10
-27.940007670720423
20
50.852915859222421
30
0
11
-27.569592618942266
21
50.694164244333912
31
0
0
LINE
5
161
100
AcDbEntity
8
0
100
AcDbLine
10
-27.569592618942266
20
50.694164244333912
30
0
11
-27.252093426386523
21
50.482500807444268
31
0
0
LINE
5
162
100
AcDbEntity
8
0
100
AcDbLine
10
-27.252093426386523
20
50.482500807444268
30
0
11
-27.093343830108651
21
50.350209140777594
31
0
0
LINE
5
163
100
AcDbEntity
8
0
100
AcDbLine
10
-27.093343830108651
20
50.350209140777594
30
0
11
-26.961052163441977
21
50.217917474110926
31
0
0
LINE
5
164
100
AcDbEntity
8
0
100
AcDbLine
10
-26.961052163441977
20
50.217917474110926
30
0
11
-26.828760496775313
21
50.059165859222418
31
0
0
LINE
5
165
100
AcDbEntity
8
0
100
AcDbLine
10
-26.828760496775313
20
50.059165859222418
30
0
11
-26.617093022664392
21
49.741662629445401
31
0
0
LINE
5
166
100
AcDbEntity
8
0
100
AcDbLine
10
-26.617093022664392
20
49.741662629445401
30
0
11
-26.45834140777588
21
49.371247577667241
31
0
0
LINE
5
167
100
AcDbEntity
8
0
100
AcDbLine
10
-26.45834140777588
20
49.371247577667241
30
0
11
-26.352509689331058
21
49.000832525889081
31
0
0
LINE
5
168
100
AcDbEntity
8
0
100
AcDbLine
10
-26.352509689331058
20
49.000832525889081
30
0
11
-26.352509689331058
21
48.815625000000004
31
0
0
LINE
5
169
100
AcDbEntity
8
0
100
AcDbLine
10
-26.352509689331058
20
48.815625000000004
30
0
11
-26.299593830108648
21
48.630417474110928
31
0
0
LINE
5
170
100
AcDbEntity
8
0
100
AcDbLine
10
-26.299593830108648
20
48.630417474110928
30
0
11
-26.299593830108648
21
48.074790859222425
31
0
0
LINE
5
171
100
AcDbEntity
8
0
100
AcDbLine
10
-26.299593830108648
20
48.074790859222425
30
0
11
-26.378969637552903
21
47.889583333333334
31
0
0
LINE
5
172
100
AcDbEntity
8
0
100
AcDbLine
10
-26.378969637552903
20
47.889583333333334
30
0
11
-26.431885496775315
21
47.704375807444265
31
0
0
LINE
5
173
100
AcDbEntity
8
0
100
AcDbLine
10
-26.431885496775315
20
47.704375807444265
30
0
11
-26.51126130421957
21
47.519168281555181
31
0
0
LINE
5
174
100
AcDbEntity
8
0
100
AcDbLine
10
-26.51126130421957
20
47.519168281555181
30
0
11
-26.458345444997157
21
45.587709140777591
31
0
0
LINE
5
175
100
AcDbEntity
8
0
100
AcDbLine
10
-26.458345444997157
20
45.587709140777591
30
0
11
-25.294178374608357
21
45.005626614888513
31
0
0
LINE
5
176
100
AcDbEntity
8
0
100
AcDbLine
10
-25.294178374608357
20
45.005626614888513
30
0
11
-23.706678374608362
21
46.143335755666108
31
0
0
LINE
5
177
100
AcDbEntity
8
0
100
AcDbLine
10
-23.706678374608362
20
46.143335755666108
30
0
11
-23.600844637552903
21
46.328543281555184
31
0
0
LINE
5
178
100
AcDbEntity
8
0
100
AcDbLine
10
-23.600844637552903
20
46.328543281555184
30
0
11
-23.495010900497441
21
46.487294896443686
31
0
0
LINE
5
179
100
AcDbEntity
8
0
100
AcDbLine
10
-23.495010900497441
20
46.487294896443686
30
0
11
-23.362719233830774
21
46.646046511332202
31
0
0
LINE
5
180
100
AcDbEntity
8
0
100
AcDbLine
10
-23.362719233830774
20
46.646046511332202
30
0
11
-23.098135900497439
21
46.910629844665543
31
0
0
LINE
5
181
100
AcDbEntity
8
0
100
AcDbLine
10
-23.098135900497439
20
46.910629844665543
30
0
11
-22.939386304219568
21
47.042921511332203
31
0
0
LINE
5
182
100
AcDbEntity
8
0
100
AcDbLine
10
-22.939386304219568
20
47.042921511332203
30
0
11
-22.780636707941696
21
47.148753229777029
31
0
0
LINE
5
183
100
AcDbEntity
8
0
100
AcDbLine
10
-22.780636707941696
20
47.148753229777029
30
0
11
-22.595429182052619
21
47.254584948221847
31
0
0
LINE
5
184
100
AcDbEntity
8
0
100
AcDbLine
10
-22.595429182052619
20
47.254584948221847
30
0
11
-22.410221656163539
21
47.333960755666098
31
0
0
LINE
5
185
100
AcDbEntity
8
0
100
AcDbLine
10
-22.410221656163539
20
47.333960755666098
30
0
11
-22.039806604385383
21
47.439792474110931
31
0
0
LINE
5
186
100
AcDbEntity
8
0
100
AcDbLine
10
-22.039806604385383
20
47.439792474110931
30
0
11
-21.8545990784963
21
47.439792474110931
31
0
0
SPLINE
5
187
100
AcDbEntity
8
0
100
AcDbSpline
70
0
71
2
72
6
73
3
74
0
42
0.000000001
43
0.0000000001
44
0.0000000001
40
0
40
0
40
0
40
1
40
1
40
1
10
-21.8545990784963
20
47.439792474110931
30
0
10
-21.8545990784963
20
47.466252422332772
30
0
10
-21.669391552607223
20
47.49270833333334
30
0
0
LINE
5
188
100
AcDbEntity
8
0
100
AcDbLine
10
-21.669391552607223
20
47.49270833333334
30
0
11
-21.113766956329346
21
47.49270833333334
31
0
0
SPLINE
5
189
100
AcDbEntity
8
0
100
AcDbSpline
70
0
71
2
72
6
73
3
74
0
42
0.000000001
43
0.0000000001
44
0.0000000001
40
0
40
0
40
0
40
1
40
1
40
1
10
-21.113766956329346
20
47.49270833333334
30
0
10
-21.113766956329346
20
47.466248385111498
30
0
10
-20.92855943044027
20
47.413332525889089
30
0
0
LINE
5
190
100
AcDbEntity
8
0
100
AcDbLine
10
-20.92855943044027
20
47.413332525889089
30
0
11
-20.743351904551194
21
47.36041666666668
31
0
0
LINE
5
191
100
AcDbEntity
8
0
100
AcDbLine
10
-20.743351904551194
20
47.36041666666668
30
0
11
-20.372936852773034
21
47.201665051778164
31
0
0
LINE
5
192
100
AcDbEntity
8
0
100
AcDbLine
10
-20.372936852773034
20
47.201665051778164
30
0
11
-20.214187256495162
21
47.095833333333346
31
0
0
LINE
5
193
100
AcDbEntity
8
0
100
AcDbLine
10
-20.214187256495162
20
47.095833333333346
30
0
11
-19.896688063939418
21
46.831250000000004
31
0
0
LINE
5
194
100
AcDbEntity
8
0
100
AcDbLine
10
-19.896688063939418
20
46.831250000000004
30
0
11
-19.764396397272751
21
46.698958333333337
31
0
0
LINE
5
195
100
AcDbEntity
8
0
100
AcDbLine
10
-19.764396397272751
20
46.698958333333337
30
0
11
-19.632104730606081
21
46.540206718444836
31
0
0
LINE
5
196
100
AcDbEntity
8
0
100
AcDbLine
10
-19.632104730606081
20
46.540206718444836
30
0
11
-19.420437256495159
21
46.222703488667811
31
0
0
LINE
5
197
100
AcDbEntity
8
0
100
AcDbLine
10
-19.420437256495159
20
46.222703488667811
30
0
11
-19.26168564160665
21
45.852288436889651
31
0
0
LINE
5
198
100
AcDbEntity
8
0
100
AcDbLine
10
-19.26168564160665
20
45.852288436889651
30
0
11
-19.208769782384241
21
45.667080911000575
31
0
0
LINE
5
199
100
AcDbEntity
8
0
100
AcDbLine
10
-19.208769782384241
20
45.667080911000575
30
0
11
-19.208769782384238
21
45.481873385111491
31
0
0
LINE
5
200
100
AcDbEntity
8
0
100
AcDbLine
10
-19.208769782384238
20
45.481873385111491
30
0
11
-19.155853923161828
21
45.296665859222415
31
0
0
LINE
5
201
100
AcDbEntity
8
0
100
AcDbLine
10
-19.155853923161828
20
45.296665859222415
30
0
11
-18.150436449050908
21
43.656250000000007
31
0
0
LINE
5
202
100
AcDbEntity
8
0
100
AcDbLine
10
-18.150436449050908
20
43.656250000000007
30
0
11
-16.853977711995444
21
43.735625807444258
31
0
0
LINE
5
203
100
AcDbEntity
8
0
100
AcDbLine
10
-16.853977711995444
20
43.735625807444258
30
0
11
-16.060227711995445
21
45.50833333333334
31
0
0
LINE
5
204
100
AcDbEntity
8
0
100
AcDbLine
10
-16.060227711995445
20
45.50833333333334
30
0
11
-16.060227711995445
21
46.06395994822185
31
0
0
LINE
5
205
100
AcDbEntity
8
0
100
AcDbLine
10
-16.060227711995445
20
46.06395994822185
30
0
11
-15.980852913856509
21
46.249167474110926
31
0
0
LINE
5
206
100
AcDbEntity
8
0
100
AcDbLine
10
-15.980852913856509
20
46.249167474110926
30
0
11
-15.927936045328778
21
46.43437500000001
31
0
0
LINE
5
207
100
AcDbEntity
8
0
100
AcDbLine
10
-15.927936045328778
20
46.43437500000001
30
0
11
-15.769186449050906
21
46.804790051778163
31
0
0
LINE
5
208
100
AcDbEntity
8
0
100
AcDbLine
10
-15.769186449050906
20
46.804790051778163
30
0
11
-15.557518974939983
21
47.122293281555187
31
0
0
LINE
5
209
100
AcDbEntity
8
0
100
AcDbLine
10
-15.557518974939983
20
47.122293281555187
30
0
11
-15.425227308273318
21
47.281044896443696
31
0
0
LINE
5
210
100
AcDbEntity
8
0
100
AcDbLine
10
-15.425227308273318
20
47.281044896443696
30
0
11
-15.29293564160665
21
47.413336563110363
31
0
0
LINE
5
211
100
AcDbEntity
8
0
100
AcDbLine
10
-15.29293564160665
20
47.413336563110363
30
0
11
-15.134186045328779
21
47.54562822977703
31
0
0
LINE
5
212
100
AcDbEntity
8
0
100
AcDbLine
10
-15.134186045328779
20
47.54562822977703
30
0
11
-14.816686852773033
21
47.757291666666674
31
0
0
LINE
5
213
100
AcDbEntity
8
0
100
AcDbLine
10
-14.816686852773033
20
47.757291666666674
30
0
11
-14.44626978238424
21
47.916043281555183
31
0
0
LINE
5
214
100
AcDbEntity
8
0
100
AcDbLine
10
-14.44626978238424
20
47.916043281555183
30
0
11
-14.261061247189842
21
47.968959140777592
31
0
0
LINE
5
215
100
AcDbEntity
8
0
100
AcDbLine
10
-14.261061247189842
20
47.968959140777592
30
0
11
-14.075852711995445
21
47.968959140777592
31
0
0
SPLINE
5
216
100
AcDbEntity
8
0
100
AcDbSpline
70
0
71
2
72
6
73
3
74
0
42
0.000000001
43
0.0000000001
44
0.0000000001
40
0
40
0
40
0
40
1
40
1
40
1
10
-14.075852711995445
20
47.968959140777592
30
0
10
-14.075852711995445
20
47.995419088999434
30
0
10
-13.890644176801048
20
48.021875000000009
30
0
0
LINE
5
217
100
AcDbEntity
8
0
100
AcDbLine
10
-13.890644176801048
20
48.021875000000009
30
0
11
-13.335019580523175
21
48.021875000000009
31
0
0
LINE
5
218
100
AcDbEntity
8
0
100
AcDbLine
10
-13.335019580523175
20
48.021875000000009
30
0
11
-12.964602510134382
21
47.916043281555183
31
0
0
LINE
5
219
100
AcDbEntity
8
0
100
AcDbLine
10
-12.964602510134382
20
47.916043281555183
30
0
11
-12.594185439745587
21
47.757291666666681
31
0
0
LINE
5
220
100
AcDbEntity
8
0
100
AcDbLine
10
-12.594185439745587
20
47.757291666666681
30
0
11
-12.276686247189843
21
47.54562822977703
31
0
0
LINE
5
221
100
AcDbEntity
8
0
100
AcDbLine
10
-12.276686247189843
20
47.54562822977703
30
0
11
-12.117936650911968
21
47.413336563110356
31
0
0
LINE
5
222
100
AcDbEntity
8
0
100
AcDbLine
10
-12.117936650911968
20
47.413336563110356
30
0
11
-11.985644984245303
21
47.281044896443689
31
0
0
LINE
5
223
100
AcDbEntity
8
0
100
AcDbLine
10
-11.985644984245303
20
47.281044896443689
30
0
11
-11.853353317578637
21
47.122293281555187
31
0
0
LINE
5
224
100
AcDbEntity
8
0
100
AcDbLine
10
-11.853353317578637
20
47.122293281555187
30
0
11
-11.747519580523173
21
46.963541666666671
31
0
0
LINE
5
225
100
AcDbEntity
8
0
100
AcDbLine
10
-11.747519580523173
20
46.963541666666671
30
0
11
-10.054185843467716
21
46.037500000000009
31
0
0
LINE
5
226
100
AcDbEntity
8
0
100
AcDbLine
10
-10.054185843467716
20
46.037500000000009
30
0
11
-8.9693945805231738
21
46.751874192555753
31
0
0
LINE
5
227
100
AcDbEntity
8
0
100
AcDbLine
10
-8.9693945805231738
20
46.751874192555753
30
0
11
-9.1546031157175705
21
48.683333333333337
31
0
0
LINE
5
228
100
AcDbEntity
8
0
100
AcDbLine
10
-9.1546031157175705
20
48.683333333333337
30
0
11
-9.2604368527730312
21
48.842084948221853
31
0
0
LINE
5
229
100
AcDbEntity
8
0
100
AcDbLine
10
-9.2604368527730312
20
48.842084948221853
30
0
11
-9.4191864490509047
21
49.212500000000006
31
0
0
LINE
5
230
100
AcDbEntity
8
0
100
AcDbLine
10
-9.4191864490509047
20
49.212500000000006
30
0
11
-9.5250201861063655
21
49.582915051778173
31
0
0
LINE
5
231
100
AcDbEntity
8
0
100
AcDbLine
10
-9.5250201861063655
20
49.582915051778173
30
0
11
-9.5250201861063655
21
50.508956718444836
31
0
0
LINE
5
232
100
AcDbEntity
8
0
100
AcDbLine
10
-9.5250201861063655
20
50.508956718444836
30
0
11
-9.286895791689556
21
51.064579296112072
31
0
0
LINE
5
233
100
AcDbEntity
8
0
100
AcDbLine
10
-9.286895791689556
20
51.064579296112072
30
0
11
-9.0752283175786346
21
51.382082525889089
31
0
0
LINE
5
234
100
AcDbEntity
8
0
100
AcDbLine
10
-9.0752283175786346
20
51.382082525889089
30
0
11
-8.9429366509119692
21
51.540834140777598
31
0
0
LINE
5
235
100
AcDbEntity
8
0
100
AcDbLine
10
-8.9429366509119692
20
51.540834140777598
30
0
11
-8.8106449842453021
21
51.673125807444265
31
0
0
LINE
5
236
100
AcDbEntity
8
0
100
AcDbLine
10
-8.8106449842453021
20
51.673125807444265
30
0
11
-8.6518953879674285
21
51.805417474110925
31
0
0
LINE
5
237
100
AcDbEntity
8
0
100
AcDbLine
10
-8.6518953879674285
20
51.805417474110925
30
0
11
-8.4931457916895567
21
51.911249192555751
31
0
0
LINE
5
238
100
AcDbEntity
8
0
100
AcDbLine
10
-8.4931457916895567
20
51.911249192555751
30
0
11
-8.334395690759024
21
52.017080911000576
31
0
0
LINE
5
239
100
AcDbEntity
8
0
100
AcDbLine
10
-8.334395690759024
20
52.017080911000576
30
0
11
-7.963978620370229
21
52.175832525889085
31
0
0
LINE
5
240
100
AcDbEntity
8
0
100
AcDbLine
10
-7.963978620370229
20
52.175832525889085
30
0
11
-7.5935615499814357
21
52.281664244333903
31
0
0
LINE
5
241
100
AcDbEntity
8
0
100
AcDbLine
10
-7.5935615499814357
20
52.281664244333903
30
0
11
-7.4083530147870391
21
52.281664244333911
31
0
0
LINE
5
242
100
AcDbEntity
8
0
100
AcDbLine
10
-7.4083530147870391
20
52.281664244333911
30
0
11
-7.2231444795926425
21
52.334580103556327
31
0
0
LINE
5
243
100
AcDbEntity
8
0
100
AcDbLine
10
-7.2231444795926425
20
52.334580103556327
30
0
11
-6.6675193786621101
21
52.334580103556327
31
0
0
SPLINE
5
244
100
AcDbEntity
8
0
100
AcDbSpline
70
0
71
2
72
6
73
3
74
0
42
0.000000001
43
0.0000000001
44
0.0000000001
40
0
40
0
40
0
40
1
40
1
40
1
10
-6.6675193786621101
20
52.334580103556327
30
0
10
-6.6675193786621101
20
52.308120155334478
30
0
10
-6.4823108434677135
20
52.255204296112069
30
0
0
LINE
5
245
100
AcDbEntity
8
0
100
AcDbLine
10
-6.4823108434677135
20
52.255204296112069
30
0
11
-6.2971023082733169
21
52.202288436889653
31
0
0
LINE
5
246
100
AcDbEntity
8
0
100
AcDbLine
10
-6.2971023082733169
20
52.202288436889653
30
0
11
-6.1118937730789202
21
52.122912629445402
31
0
0
LINE
5
247
100
AcDbEntity
8
0
100
AcDbLine
10
-6.1118937730789202
20
52.122912629445402
30
0
11
-4.1804353892803192
21
52.175828488667818
31
0
0
LINE
5
248
100
AcDbEntity
8
0
100
AcDbLine
10
-4.1804353892803192
20
52.175828488667818
30
0
11
-3.5983521064122526
21
53.339993540445974
31
0
0
LINE
5
249
100
AcDbEntity
8
0
100
AcDbLine
10
-3.5983521064122526
20
53.339993540445974
30
0
11
-4.7360602378845229
21
54.927493540445973
31
0
0
LINE
5
250
100
AcDbEntity
8
0
100
AcDbLine
10
-4.7360602378845229
20
54.927493540445973
30
0
11
-4.9212687730789195
21
55.033325258890791
31
0
0
LINE
5
251
100
AcDbEntity
8
0
100
AcDbLine
10
-4.9212687730789195
20
55.033325258890791
30
0
11
-5.0800188740094505
21
55.139156977335617
31
0
0
LINE
5
252
100
AcDbEntity
8
0
100
AcDbLine
10
-5.0800188740094505
20
55.139156977335617
30
0
11
-5.2387689749399824
21
55.271448644002291
31
0
0
LINE
5
253
100
AcDbEntity
8
0
100
AcDbLine
10
-5.2387689749399824
20
55.271448644002291
30
0
11
-5.5033523082733149
21
55.536031977335625
31
0
0
LINE
5
254
100
AcDbEntity
8
0
100
AcDbLine
10
-5.5033523082733149
20
55.536031977335625
30
0
11
-5.6356439749399811
21
55.694783592224127
31
0
0
LINE
5
255
100
AcDbEntity
8
0
100
AcDbLine
10
-5.6356439749399811
20
55.694783592224127
30
0
11
-5.7414772073427844
21
55.853535207112643
31
0
0
LINE
5
256
100
AcDbEntity
8
0
100
AcDbLine
10
-5.7414772073427844
20
55.853535207112643
30
0
11
-5.847310439745586
21
56.038742733001719
31
0
0
LINE
5
257
100
AcDbEntity
8
0
100
AcDbLine
10
-5.847310439745586
20
56.038742733001719
30
0
11
-5.9266852378845218
21
56.223950258890802
31
0
0
LINE
5
258
100
AcDbEntity
8
0
100
AcDbLine
10
-5.9266852378845218
20
56.223950258890802
30
0
11
-6.0325189749399843
21
56.594365310668955
31
0
0
LINE
5
259
100
AcDbEntity
8
0
100
AcDbLine
10
-6.0325189749399843
20
56.594365310668955
30
0
11
-6.0325189749399843
21
56.779572836558039
31
0
0
LINE
5
260
100
AcDbEntity
8
0
100
AcDbLine
10
-6.0325189749399843
20
56.779572836558039
30
0
11
-6.0854358434677147
21
56.964780362447115
31
0
0
LINE
5
261
100
AcDbEntity
8
0
100
AcDbLine
10
-6.0854358434677147
20
56.964780362447115
30
0
11
-6.0854358434677147
21
57.520406977335618
31
0
0
SPLINE
5
262
100
AcDbEntity
8
0
100
AcDbSpline
70
0
71
2
72
6
73
3
74
0
42
0.000000001
43
0.0000000001
44
0.0000000001
40
0
40
0
40
0
40
1
40
1
40
1
10
-6.0854358434677138
20
57.520406977335618
30
0
10
-6.0589774092038482
20
57.520406977335618
30
0
10
-6.0060610453287762
20
57.705614503224695
30
0
0
LINE
5
263
100
AcDbEntity
8
0
100
AcDbLine
10
-6.0060610453287762
20
57.705614503224695
30
0
11
-5.9531441768010467
21
57.890822029113778
31
0
0
LINE
5
264
100
AcDbEntity
8
0
100
AcDbLine
10
-5.9531441768010467
20
57.890822029113778
30
0
11
-5.7943945805231749
21
58.261237080891931
31
0
0
LINE
5
265
100
AcDbEntity
8
0
100
AcDbLine
10
-5.7943945805231749
20
58.261237080891931
30
0
11
-5.6885613481203734
21
58.419988695780447
31
0
0
LINE
5
266
100
AcDbEntity
8
0
100
AcDbLine
10
-5.6885613481203734
20
58.419988695780447
30
0
11
-5.4239780147870409
21
58.737491925557464
31
0
0
LINE
5
267
100
AcDbEntity
8
0
100
AcDbLine
10
-5.4239780147870409
20
58.737491925557464
30
0
11
-5.291686348120372
21
58.869783592224138
31
0
0
LINE
5
268
100
AcDbEntity
8
0
100
AcDbLine
10
-5.291686348120372
20
58.869783592224138
30
0
11
-5.132936247189841
21
59.002075258890798
31
0
0
LINE
5
269
100
AcDbEntity
8
0
100
AcDbLine
10
-5.132936247189841
20
59.002075258890798
30
0
11
-4.8154360453287754
21
59.213738695780442
31
0
0
LINE
5
270
100
AcDbEntity
8
0
100
AcDbLine
10
-4.8154360453287754
20
59.213738695780442
30
0
11
-4.4450189749399822
21
59.372490310668951
31
0
0
LINE
5
271
100
AcDbEntity
8
0
100
AcDbLine
10
-4.4450189749399822
20
59.372490310668951
30
0
11
-4.2598104397455856
21
59.42540616989136
31
0
0
LINE
5
272
100
AcDbEntity
8
0
100
AcDbLine
10
-4.2598104397455856
20
59.42540616989136
30
0
11
-4.0746021568775177
21
59.42540616989136
31
0
0
SPLINE
5
273
100
AcDbEntity
8
0
100
AcDbSpline
70
0
71
2
72
6
73
3
74
0
42
0.000000001
43
0.0000000001
44
0.0000000001
40
0
40
0
40
0
40
1
40
1
40
1
10
-4.0746021568775177
20
59.42540616989136
30
0
10
-4.0746021568775177
20
59.451866118113216
30
0
10
-3.8893938740094507
20
59.478322029113777
30
0
0
LINE
5
274
100
AcDbEntity
8
0
100
AcDbLine
10
-3.8893938740094507
20
59.478322029113777
30
0
11
-2.2489772578080491
21
60.483739503224697
31
0
0
LINE
5
275
100
AcDbEntity
8
0
100
AcDbLine
10
-2.2489772578080491
20
60.483739503224697
30
0
11
-2.328352308273316
21
61.780196221669527
31
0
0
LINE
5
276
100
AcDbEntity
8
0
100
AcDbLine
10
-2.328352308273316
20
61.780196221669527
30
0
11
-4.1010605911413833
21
62.573946221669523
31
0
0
LINE
5
277
100
AcDbEntity
8
0
100
AcDbLine
10
-4.1010605911413833
20
62.573946221669523
30
0
11
-4.656685439745587
21
62.573946221669523
31
0
0
LINE
5
278
100
AcDbEntity
8
0
100
AcDbLine
10
-4.656685439745587
20
62.573946221669523
30
0
11
-4.8418939749399836
21
62.653322029113774
31
0
0
LINE
5
279
100
AcDbEntity
8
0
100
AcDbLine
10
-4.8418939749399836
20
62.653322029113774
30
0
11
-5.0271025101343803
21
62.70623788833619
31
0
0
LINE
5
280
100
AcDbEntity
8
0
100
AcDbLine
10
-5.0271025101343803
20
62.70623788833619
30
0
11
-5.3975195805231735
21
62.864989503224692
31
0
0
LINE
5
281
100
AcDbEntity
8
0
100
AcDbLine
10
-5.3975195805231735
20
62.864989503224692
30
0
11
-5.7150197823842364
21
63.07665294011435
31
0
0
LINE
5
282
100
AcDbEntity
8
0
100
AcDbLine
10
-5.7150197823842364
20
63.07665294011435
30
0
11
-5.87376988331477
21
63.208944606781017
31
0
0
LINE
5
283
100
AcDbEntity
8
0
100
AcDbLine
10
-5.87376988331477
20
63.208944606781017
30
0
11
-6.0060615499814363
21
63.341236273447691
31
0
0
LINE
5
284
100
AcDbEntity
8
0
100
AcDbLine
10
-6.0060615499814363
20
63.341236273447691
30
0
11
-6.1383532166481025
21
63.499987888336193
31
0
0
LINE
5
285
100
AcDbEntity
8
0
100
AcDbLine
10
-6.1383532166481025
20
63.499987888336193
30
0
11
-6.3500196814537047
21
63.81749111811321
31
0
0
LINE
5
286
100
AcDbEntity
8
0
100
AcDbLine
10
-6.3500196814537047
20
63.81749111811321
30
0
11
-6.5087692777315764
21
64.187906169891363
31
0
0
LINE
5
287
100
AcDbEntity
8
0
100
AcDbLine
10
-6.5087692777315764
20
64.187906169891363
30
0
11
-6.5616861462593086
21
64.373113695780447
31
0
0
LINE
5
288
100
AcDbEntity
8
0
100
AcDbLine
10
-6.5616861462593086
20
64.373113695780447
30
0
11
-6.5616861462593086
21
64.55832122166953
31
0
0
LINE
5
289
100
AcDbEntity
8
0
100
AcDbLine
10
-6.5616861462593086
20
64.55832122166953
30
0
11
-6.6146030147870398
21
64.743528747558599
31
0
0
LINE
5
290
100
AcDbEntity
8
0
100
AcDbLine
10
-6.6146030147870398
20
64.743528747558599
30
0
11
-6.6146030147870398
21
65.299155362447124
31
0
0
LINE
5
291
100
AcDbEntity
8
0
100
AcDbLine
10
-6.6146030147870398
20
65.299155362447124
30
0
11
-6.5087692777315791
21
65.669570414225277
31
0
0
LINE
5
292
100
AcDbEntity
8
0
100
AcDbLine
10
-6.5087692777315791
20
65.669570414225277
30
0
11
-6.3500196814537047
21
66.039985466003429
31
0
0
LINE
5
293
100
AcDbEntity
8
0
100
AcDbLine
10
-6.3500196814537047
20
66.039985466003429
30
0
11
-6.1383532166481025
21
66.357488695780447
31
0
0
LINE
5
294
100
AcDbEntity
8
0
100
AcDbLine
10
-6.1383532166481025
20
66.357488695780447
30
0
11
-6.0060615499814363
21
66.516240310668962
31
0
0
LINE
5
295
100
AcDbEntity
8
0
100
AcDbLine
10
-6.0060615499814363
20
66.516240310668962
30
0
11
-5.87376988331477
21
66.648531977335622
31
0
0
LINE
5
296
100
AcDbEntity
8
0
100
AcDbLine
10
-5.87376988331477
20
66.648531977335622
30
0
11
-5.7150197823842364
21
66.780823644002282
31
0
0
LINE
5
297
100
AcDbEntity
8
0
100
AcDbLine
10
-5.7150197823842364
20
66.780823644002282
30
0
11
-5.5562696814537071
21
66.886655362447115
31
0
0
LINE
5
298
100
AcDbEntity
8
0
100
AcDbLine
10
-5.5562696814537071
20
66.886655362447115
30
0
11
-4.6302280147870389
21
68.579987080891939
31
0
0
LINE
5
299
100
AcDbEntity
8
0
100
AcDbLine
10
-4.6302280147870389
20
68.579987080891939
30
0
11
-5.3446032166481032
21
69.664780362447118
31
0
0
LINE
5
300
100
AcDbEntity
8
0
100
AcDbLine
10
-5.3446032166481032
20
69.664780362447118
30
0
11
-7.276061852773033
21
69.479568799336761
31
0
0
LINE
5
301
100
AcDbEntity
8
0
100
AcDbLine
10
-7.276061852773033
20
69.479568799336761
30
0
11
-7.434811953703564
21
69.373737080891942
31
0
0
LINE
5
302
100
AcDbEntity
8
0
100
AcDbLine
10
-7.434811953703564
20
69.373737080891942
30
0
11
-7.8052290240923572
21
69.214993540445974
31
0
0
LINE
5
303
100
AcDbEntity
8
0
100
AcDbLine
10
-7.8052290240923572
20
69.214993540445974
30
0
11
-8.1756460944811504
21
69.109153747558608
31
0
0
LINE
5
304
100
AcDbEntity
8
0
100
AcDbLine
10
-8.1756460944811504
20
69.109153747558608
30
0
11
-8.360854629675547
21
69.109153747558608
31
0
0
SPLINE
5
305
100
AcDbEntity
8
0
100
AcDbSpline
70
0
71
2
72
6
73
3
74
0
42
0.000000001
43
0.0000000001
44
0.0000000001
40
0
40
0
40
0
40
1
40
1
40
1
10
-8.3608546296755488
20
69.109153747558608
30
0
10
-8.3608546296755488
20
69.082693799336766
30
0
10
-8.5460626602172862
20
69.082693799336766
30
0
0
LINE
5
306
100
AcDbEntity
8
0
100
AcDbLine
10
-8.5460626602172862
20
69.082693799336766
30
0
11
-8.9164797306060812
21
69.082693799336766
31
0
0
SPLINE
5
307
100
AcDbEntity
8
0
100
AcDbSpline
70
0
71
2
72
6
73
3
74
0
42
0.000000001
43
0.0000000001
44
0.0000000001
40
0
40
0
40
0
40
1
40
1
40
1
10
-8.9164797306060812
20
69.082693799336766
30
0
10
-8.9164797306060812
20
69.109153747558608
30
0
10
-9.1016882658004779
20
69.109153747558608
30
0
0
LINE
5
308
100
AcDbEntity
8
0
100
AcDbLine
10
-9.1016882658004779
20
69.109153747558608
30
0
11
-9.6573138713836677
21
69.347269058227553
31
0
0
LINE
5
309
100
AcDbEntity
8
0
100
AcDbLine
10
-9.6573138713836677
20
69.347269058227553
30
0
11
-9.9748130639394148
21
69.55893249511719
31
0
0
LINE
5
310
100
AcDbEntity
8
0
100
AcDbLine
10
-9.9748130639394148
20
69.55893249511719
30
0
11
-10.133562660217287
21
69.691224161783865
31
0
0
LINE
5
311
100
AcDbEntity
8
0
100
AcDbLine
10
-10.133562660217287
20
69.691224161783865
30
0
11
-10.265854326883952
21
69.823515828450539
31
0
0
LINE
5
312
100
AcDbEntity
8
0
100
AcDbLine
10
-10.265854326883952
20
69.823515828450539
30
0
11
-10.398145993550621
21
69.98226744333904
31
0
0
LINE
5
313
100
AcDbEntity
8
0
100
AcDbLine
10
-10.398145993550621
20
69.98226744333904
30
0
11
-10.609813467661542
21
70.299770673116058
31
0
0
LINE
5
314
100
AcDbEntity
8
0
100
AcDbLine
10
-10.609813467661542
20
70.299770673116058
30
0
11
-10.768563063939414
21
70.670193799336758
31
0
0
LINE
5
315
100
AcDbEntity
8
0
100
AcDbLine
10
-10.768563063939414
20
70.670193799336758
30
0
11
-10.874396800994875
21
71.040616925557472
31
0
0
LINE
5
316
100
AcDbEntity
8
0
100
AcDbLine
10
-10.874396800994875
20
71.040616925557472
30
0
11
-10.874396800994875
21
71.225828488667815
31
0
0
LINE
5
317
100
AcDbEntity
8
0
100
AcDbLine
10
-10.874396800994875
20
71.225828488667815
30
0
11
-10.927313669522604
21
71.411040051778173
31
0
0
LINE
5
318
100
AcDbEntity
8
0
100
AcDbLine
10
-10.927313669522604
20
71.411040051778173
30
0
11
-10.927313669522604
21
71.966666666666669
31
0
0
LINE
5
319
100
AcDbEntity
8
0
100
AcDbLine
10
-10.927313669522604
20
71.966666666666669
30
0
11
-10.847938871383668
21
72.151878229777026
31
0
0
LINE
5
320
100
AcDbEntity
8
0
100
AcDbLine
10
-10.847938871383668
20
72.151878229777026
30
0
11
-10.795022002855939
21
72.337089792887383
31
0
0
LINE
5
321
100
AcDbEntity
8
0
100
AcDbLine
10
-10.795022002855939
20
72.337089792887383
30
0
11
-10.715647204717003
21
72.522301355997726
31
0
0
LINE
5
322
100
AcDbEntity
8
0
100
AcDbLine
10
-10.715647204717003
20
72.522301355997726
30
0
11
-10.768564073244733
21
74.453756459554057
31
0
0
LINE
5
323
100
AcDbEntity
8
0
100
AcDbLine
10
-10.768564073244733
20
74.453756459554057
30
0
11
-11.932731143633525
21
75.035843022664409
31
0
0
LINE
5
324
100
AcDbEntity
8
0
100
AcDbLine
10
-11.932731143633525
20
75.035843022664409
30
0
11
-13.520231143633525
21
73.89813791910808
31
0
0
LINE
5
325
100
AcDbEntity
8
0
100
AcDbLine
10
-13.520231143633525
20
73.89813791910808
30
0
11
-13.626064880688988
21
73.712926355997737
31
0
0
LINE
5
326
100
AcDbEntity
8
0
100
AcDbLine
10
-13.626064880688988
20
73.712926355997737
30
0
11
-13.731898617744447
21
73.554174741109222
31
0
0
LINE
5
327
100
AcDbEntity
8
0
100
AcDbLine
10
-13.731898617744447
20
73.554174741109222
30
0
11
-13.864190284411112
21
73.395423126220706
31
0
0
LINE
5
328
100
AcDbEntity
8
0
100
AcDbLine
10
-13.864190284411112
20
73.395423126220706
30
0
11
-14.128773617744448
21
73.130839792887372
31
0
0
LINE
5
329
100
AcDbEntity
8
0
100
AcDbLine
10
-14.128773617744448
20
73.130839792887372
30
0
11
-14.28752321402232
21
72.998548126220712
31
0
0
LINE
5
330
100
AcDbEntity
8
0
100
AcDbLine
10
-14.28752321402232
20
72.998548126220712
30
0
11
-14.446272810300192
21
72.892716407775893
31
0
0
LINE
5
331
100
AcDbEntity
8
0
100
AcDbLine
10
-14.446272810300192
20
72.892716407775893
30
0
11
-14.63148134549459
21
72.78688468933106
31
0
0
LINE
5
332
100
AcDbEntity
8
0
100
AcDbLine
10
-14.63148134549459
20
72.78688468933106
30
0
11
-14.816689880688987
21
72.707512919108083
31
0
0
LINE
5
333
100
AcDbEntity
8
0
100
AcDbLine
10
-14.816689880688987
20
72.707512919108083
30
0
11
-15.18710695107778
21
72.601673126220717
31
0
0
LINE
5
334
100
AcDbEntity
8
0
100
AcDbLine
10
-15.18710695107778
20
72.601673126220717
30
0
11
-15.372315486272178
21
72.601673126220717
31
0
0
SPLINE
5
335
100
AcDbEntity
8
0
100
AcDbSpline
70
0
71
2
72
6
73
3
74
0
42
0.000000001
43
0.0000000001
44
0.0000000001
40
0
40
0
40
0
40
1
40
1
40
1
10
-15.372315486272178
20
72.601673126220717
30
0
10
-15.372315486272178
20
72.575213177998876
30
0
10
-15.557524021466575
20
72.54875322977702
30
0
0
LINE
5
336
100
AcDbEntity
8
0
100
AcDbLine
10
-15.557524021466575
20
72.54875322977702
30
0
11
-16.11314861774445
21
72.54875322977702
31
0
0
LINE
5
337
100
AcDbEntity
8
0
100
AcDbLine
10
-16.11314861774445
20
72.54875322977702
30
0
11
-16.298357152938845
21
72.628125000000011
31
0
0
LINE
5
338
100
AcDbEntity
8
0
100
AcDbLine
10
-16.298357152938845
20
72.628125000000011
30
0
11
-16.48356568813324
21
72.681044896443694
31
0
0
LINE
5
339
100
AcDbEntity
8
0
100
AcDbLine
10
-16.48356568813324
20
72.681044896443694
30
0
11
-16.853982758522037
21
72.839788436889663
31
0
0
LINE
5
340
100
AcDbEntity
8
0
100
AcDbLine
10
-16.853982758522037
20
72.839788436889663
30
0
11
-17.012733364105227
21
72.945620155334481
31
0
0
LINE
5
341
100
AcDbEntity
8
0
100
AcDbLine
10
-17.012733364105227
20
72.945620155334481
30
0
11
-17.33023255666097
21
73.21020348866783
31
0
0
LINE
5
342
100
AcDbEntity
8
0
100
AcDbLine
10
-17.33023255666097
20
73.21020348866783
30
0
11
-17.462524223327637
21
73.34249515533449
31
0
0
LINE
5
343
100
AcDbEntity
8
0
100
AcDbLine
10
-17.462524223327637
20
73.34249515533449
30
0
11
-17.594815889994308
21
73.501246770222991
31
0
0
LINE
5
344
100
AcDbEntity
8
0
100
AcDbLine
10
-17.594815889994308
20
73.501246770222991
30
0
11
-17.806483364105226
21
73.818750000000009
31
0
0
LINE
5
345
100
AcDbEntity
8
0
100
AcDbLine
10
-17.806483364105226
20
73.818750000000009
30
0
11
-17.965234978993735
21
74.189173126220709
31
0
0
LINE
5
346
100
AcDbEntity
8
0
100
AcDbLine
10
-17.965234978993735
20
74.189173126220709
30
0
11
-18.018150838216147
21
74.374384689331066
31
0
0
LINE
5
347
100
AcDbEntity
8
0
100
AcDbLine
10
-18.018150838216147
20
74.374384689331066
30
0
11
-18.018150838216151
21
74.559596252441423
31
0
0
LINE
5
348
100
AcDbEntity
8
0
100
AcDbLine
10
-18.018150838216151
20
74.559596252441423
30
0
11
-18.07106669743856
21
74.744807815551766
31
0
0
LINE
5
349
100
AcDbEntity
8
0
100
AcDbLine
10
-18.07106669743856
20
74.744807815551766
30
0
11
-19.076484171549481
21
76.385227711995455
31
0
0
LINE
5
350
100
AcDbEntity
8
0
100
AcDbLine
10
-19.076484171549481
20
76.385227711995455
30
0
11
-20.372942908604941
21
76.305855941772464
31
0
0
LINE
5
351
100
AcDbEntity
8
0
100
AcDbLine
10
-20.372942908604941
20
76.305855941772464
30
0
11
-21.166692908604944
21
74.533144378662115
31
0
0
LINE
5
352
100
AcDbEntity
8
0
100
AcDbLine
10
-21.166692908604944
20
74.533144378662115
30
0
11
-21.166692908604944
21
73.977517763773619
31
0
0
LINE
5
353
100
AcDbEntity
8
0
100
AcDbLine
10
-21.166692908604944
20
73.977517763773619
30
0
11
-21.246068716049198
21
73.792306200663262
31
0
0
LINE
5
354
100
AcDbEntity
8
0
100
AcDbLine
10
-21.246068716049198
20
73.792306200663262
30
0
11
-21.298984575271611
21
73.607094637552905
31
0
0
LINE
5
355
100
AcDbEntity
8
0
100
AcDbLine
10
-21.298984575271611
20
73.607094637552905
30
0
11
-21.457736190160119
21
73.236671511332204
31
0
0
LINE
5
356
100
AcDbEntity
8
0
100
AcDbLine
10
-21.457736190160119
20
73.236671511332204
30
0
11
-21.669403664271041
21
72.919168281555187
31
0
0
LINE
5
357
100
AcDbEntity
8
0
100
AcDbLine
10
-21.669403664271041
20
72.919168281555187
30
0
11
-21.801695330937708
21
72.760416666666686
31
0
0
LINE
5
358
100
AcDbEntity
8
0
100
AcDbLine
10
-21.801695330937708
20
72.760416666666686
30
0
11
-21.933986997604372
21
72.628125000000011
31
0
0
LINE
5
359
100
AcDbEntity
8
0
100
AcDbLine
10
-21.933986997604372
20
72.628125000000011
30
0
11
-22.092736593882243
21
72.495833333333337
31
0
0
LINE
5
360
100
AcDbEntity
8
0
100
AcDbLine
10
-22.092736593882243
20
72.495833333333337
30
0
11
-22.410235786437987
21
72.2841698964437
31
0
0
LINE
5
361
100
AcDbEntity
8
0
100
AcDbLine
10
-22.410235786437987
20
72.2841698964437
30
0
11
-22.780650838216147
21
72.125426355997732
31
0
0
LINE
5
362
100
AcDbEntity
8
0
100
AcDbLine
10
-22.780650838216147
20
72.125426355997732
30
0
11
-22.965858364105223
21
72.072506459554035
31
0
0
LINE
5
363
100
AcDbEntity
8
0
100
AcDbLine
10
-22.965858364105223
20
72.072506459554035
30
0
11
-23.151065889994307
21
72.072506459554049
31
0
0
SPLINE
5
364
100
AcDbEntity
8
0
100
AcDbSpline
70
0
71
2
72
6
73
3
74
0
42
0.000000001
43
0.0000000001
44
0.0000000001
40
0
40
0
40
0
40
1
40
1
40
1
10
-23.151065889994307
20
72.072506459554049
30
0
10
-23.151065889994307
20
72.046046511332207
30
0
10
-23.336273415883383
20
72.019586563110366
30
0
0
LINE
5
365
100
AcDbEntity
8
0
100
AcDbLine
10
-23.336273415883383
20
72.019586563110352
30
0
11
-23.89189801216126
21
72.019586563110366
31
0
0
LINE
5
366
100
AcDbEntity
8
0
100
AcDbLine
10
-23.89189801216126
20
72.019586563110366
30
0
11
-24.262313063939413
21
72.125426355997732
31
0
0
LINE
5
367
100
AcDbEntity
8
0
100
AcDbLine
10
-24.262313063939413
20
72.125426355997732
30
0
11
-24.632728115717573
21
72.2841698964437
31
0
0
LINE
5
368
100
AcDbEntity
8
0
100
AcDbLine
10
-24.632728115717573
20
72.2841698964437
30
0
11
-24.950227308273316
21
72.495833333333351
31
0
0
LINE
5
369
100
AcDbEntity
8
0
100
AcDbLine
10
-24.950227308273316
20
72.495833333333351
30
0
11
-25.108976904551191
21
72.628125000000011
31
0
0
LINE
5
370
100
AcDbEntity
8
0
100
AcDbLine
10
-25.108976904551191
20
72.628125000000011
30
0
11
-25.241268571217859
21
72.760416666666686
31
0
0
LINE
5
371
100
AcDbEntity
8
0
100
AcDbLine
10
-25.241268571217859
20
72.760416666666686
30
0
11
-25.373560237884526
21
72.919168281555187
31
0
0
LINE
5
372
100
AcDbEntity
8
0
100
AcDbLine
10
-25.373560237884526
20
72.919168281555187
30
0
11
-25.479393974939985
21
73.077919896443703
31
0
0
LINE
5
373
100
AcDbEntity
8
0
100
AcDbLine
10
-25.479393974939985
20
73.077919896443703
30
0
11
-27.172727711995446
21
74.003961563110366
31
0
0
LINE
5
374
100
AcDbEntity
8
0
100
AcDbLine
10
-27.172727711995446
20
74.003961563110366
30
0
11
-28.257518974939984
21
73.28958333333334
31
0
0
LINE
5
375
100
AcDbEntity
8
0
100
AcDbLine
10
-28.257518974939984
20
73.28958333333334
30
0
11
-28.072311449050908
21
71.358128229777023
31
0
0
LINE
5
376
100
AcDbEntity
8
0
100
AcDbLine
10
-28.072311449050908
20
71.358128229777023
30
0
11
-27.966477711995449
21
71.199376614888507
31
0
0
LINE
5
377
100
AcDbEntity
8
0
100
AcDbLine
10
-27.966477711995449
20
71.199376614888507
30
0
11
-27.807726097106936
21
70.828953488667821
31
0
0
LINE
5
378
100
AcDbEntity
8
0
100
AcDbLine
10
-27.807726097106936
20
70.828953488667821
30
0
11
-27.701894378662114
21
70.458530362447107
31
0
0
LINE
5
379
100
AcDbEntity
8
0
100
AcDbLine
10
-27.701894378662114
20
70.458530362447107
30
0
11
-27.701894378662114
21
69.532488695780444
31
0
0
LINE
5
380
100
AcDbEntity
8
0
100
AcDbLine
10
-27.701894378662114
20
69.532488695780444
30
0
11
-27.940021800994877
21
68.9768540064494
31
0
0
LINE
5
381
100
AcDbEntity
8
0
100
AcDbLine
10
-27.940021800994877
20
68.9768540064494
30
0
11
-28.151689275105799
21
68.659350776672369
31
0
0
LINE
5
382
100
AcDbEntity
8
0
100
AcDbLine
10
-28.151689275105799
20
68.659350776672369
30
0
11
-28.283980941772462
21
68.500599161783867
31
0
0
LINE
5
383
100
AcDbEntity
8
0
100
AcDbLine
10
-28.283980941772462
20
68.500599161783867
30
0
11
-28.416272608439129
21
68.368307495117193
31
0
0
LINE
5
384
100
AcDbEntity
8
0
100
AcDbLine
10
-28.416272608439129
20
68.368307495117193
30
0
11
-28.575022204717001
21
68.236015828450519
31
0
0
LINE
5
385
100
AcDbEntity
8
0
100
AcDbLine
10
-28.575022204717001
20
68.236015828450519
30
0
11
-28.892521397272752
21
68.024352391560882
31
0
0
LINE
5
386
100
AcDbEntity
8
0
100
AcDbLine
10
-28.892521397272752
20
68.024352391560882
30
0
11
-29.262936449050905
21
67.865608851114928
31
0
0
LINE
5
387
100
AcDbEntity
8
0
100
AcDbLine
10
-29.262936449050905
20
67.865608851114928
30
0
11
-29.633351500829065
21
67.759769058227548
31
0
0
LINE
5
388
100
AcDbEntity
8
0
100
AcDbLine
10
-29.633351500829065
20
67.759769058227548
30
0
11
-29.818559026718141
21
67.759769058227548
31
0
0
LINE
5
389
100
AcDbEntity
8
0
100
AcDbLine
10
-29.818559026718141
20
67.759769058227548
30
0
11
-30.003766552607225
21
67.706853199005138
31
0
0
LINE
5
390
100
AcDbEntity
8
0
100
AcDbLine
10
-30.003766552607225
20
67.706853199005138
30
0
11
-30.559391148885098
21
67.706853199005138
31
0
0
SPLINE
5
391
100
AcDbEntity
8
0
100
AcDbSpline
70
0
71
2
72
6
73
3
74
0
42
0.000000001
43
0.0000000001
44
0.0000000001
40
0
40
0
40
0
40
1
40
1
40
1
10
-30.559391148885098
20
67.706853199005138
30
0
10
-30.559391148885098
20
67.73331314722698
30
0
10
-30.744598674774174
20
67.786229006449389
30
0
0
LINE
5
392
100
AcDbEntity
8
0
100
AcDbLine
10
-30.744598674774174
20
67.786229006449389
30
0
11
-30.929806200663251
21
67.839148902893086
31
0
0
LINE
5
393
100
AcDbEntity
8
0
100
AcDbLine
10
-30.929806200663251
20
67.839148902893086
30
0
11
-31.115013726552331
21
67.918520673116063
31
0
0
LINE
5
394
100
AcDbEntity
8
0
100
AcDbLine
10
-31.115013726552331
20
67.918520673116063
30
0
11
-33.046472867329925
21
67.865600776672366
31
0
0
LINE
5
395
100
AcDbEntity
8
0
100
AcDbLine
10
-33.046472867329925
20
67.865600776672366
30
0
11
-33.628555393219003
21
66.70143572489421
31
0
0
LINE
5
396
100
AcDbEntity
8
0
100
AcDbLine
10
-33.628555393219003
20
66.70143572489421
30
0
11
-32.490846252441408
21
65.113935724894219
31
0
0
ENDSEC
0
SECTION
2
OBJECTS
0
DICTIONARY
5
C
100
AcDbDictionary
3
ACAD_GROUP
350
D
3
ACAD_MLINESTYLE
350
17
0
DICTIONARY
5
D
100
AcDbDictionary
0
DICTIONARY
5
1A
330
C
100
AcDbDictionary
0
DICTIONARY
5
17
100
AcDbDictionary
0
ENDSEC
0
EOF
