0
SECTION
2
HEADER
9
$INSUNITS
70
4
9
$ACADVER
1
AC1014
9
$HANDSEED
5
FFFF
0
ENDSEC
0
SECTION
2
TABLES
0
TABLE
2
VPORT
5
8
100
AcDbSymbolTable
0
ENDTAB
0
TABLE
2
LTYPE
5
5
100
AcDbSymbolTable
0
LTYPE
5
14
100
AcDbSymbolTableRecord
100
AcDbLinetypeTableRecord
2
BYBLOCK
70
0
0
LTYPE
5
15
100
AcDbSymbolTableRecord
100
AcDbLinetypeTableRecord
2
BYLAYER
70
0
0
LTYPE
5
16
100
AcDbSymbolTableRecord
100
AcDbLinetypeTableRecord
2
DASHED
70
0
3
Dashed __ __ __ __ __ __ __ __ __ __ __ __ __ _
72
65
73
2
40
0.75
49
0.5
74
0
49
-0.25
74
0
0
ENDTAB
0
TABLE
2
LAYER
5
2
100
AcDbSymbolTable
70
2
0
LAYER
5
50
100
AcDbSymbolTableRecord
100
AcDbLayerTableRecord
2
0
70
0
62
7
6
CONTINUOUS
0
ENDTAB
0
TABLE
2
STYLE
5
3
100
AcDbSymbolTable
70
1
0
STYLE
5
11
100
AcDbSymbolTableRecord
100
AcDbTextStyleTableRecord
2
STANDARD
70
0
0
ENDTAB
0
TABLE
2
VIEW
5
6
100
AcDbSymbolTable
70
0
0
ENDTAB
0
TABLE
2
UCS
5
7
100
AcDbSymbolTable
70
0
0
ENDTAB
0
TABLE
2
APPID
5
9
100
AcDbSymbolTable
70
2
0
APPID
5
12
100
AcDbSymbolTableRecord
100
AcDbRegAppTableRecord
2
ACAD
70
0
0
ENDTAB
0
TABLE
2
DIMSTYLE
5
A
100
AcDbSymbolTable
70
1
0
ENDTAB
0
TABLE
2
BLOCK_RECORD
5
1
100
AcDbSymbolTable
70
1
0
BLOCK_RECORD
5
1F
100
AcDbSymbolTableRecord
100
AcDbBlockTableRecord
2
*MODEL_SPACE
0
BLOCK_RECORD
5
1B
100
AcDbSymbolTableRecord
100
AcDbBlockTableRecord
2
*PAPER_SPACE
0
ENDTAB
0
ENDSEC
0
SECTION
2
BLOCKS
0
BLOCK
5
20
100
AcDbEntity
100
AcDbBlockBegin
2
*MODEL_SPACE
0
ENDBLK
5
21
100
AcDbEntity
100
AcDbBlockEnd
0
BLOCK
5
1C
100
AcDbEntity
100
AcDbBlockBegin
2
*PAPER_SPACE
0
ENDBLK
5
1D
100
AcDbEntity
100
AcDbBlockEnd
0
ENDSEC
0
SECTION
2
ENTITIES
0
SPLINE
5
100
100
AcDbEntity
8
0
100
AcDbSpline
70
4
71
3
72
8
73
4
74
0
42
0.000000001
43
0.0000000001
44
0.0000000001
40
0
40
0
40
0
40
0
40
1
40
1
40
1
40
1
41
1
41
1
41
1
41
1
10
-119.9091698964437
20
79.004593022664395
30
0
10
-120.54416828155519
20
79.004593022664395
30
0
10
-121.04687500000003
20
79.507299741109222
30
0
10
-121.04687500000003
20
80.142298126220709
30
0
0
SPLINE
5
101
100
AcDbEntity
8
0
100
AcDbSpline
70
4
71
3
72
8
73
4
74
0
42
0.000000001
43
0.0000000001
44
0.0000000001
40
0
40
0
40
0
40
0
40
1
40
1
40
1
40
1
41
1
41
1
41
1
41
1
10
-121.04687500000003
20
80.142298126220709
30
0
10
-121.04687500000003
20
80.777296511332196
30
0
10
-120.54416828155519
20
81.280003229777037
30
0
10
-119.9091698964437
20
81.280003229777037
30
0
0
SPLINE
5
102
100
AcDbEntity
8
0
100
AcDbSpline
70
4
71
3
72
8
73
4
74
0
42
0.000000001
43
0.0000000001
44
0.0000000001
40
0
40
0
40
0
40
0
40
1
40
1
40
1
40
1
41
1
41
1
41
1
41
1
10
-119.9091698964437
20
81.280003229777037
30
0
10
-119.27417151133221
20
81.280003229777037
30
0
10
-118.77146479288739
20
80.777296511332196
30
0
10
-118.77146479288739
20
80.142298126220709
30
0
0
SPLINE
5
103
100
AcDbEntity
8
0
100
AcDbSpline
70
4
71
3
72
8
73
4
74
0
42
0.000000001
43
0.0000000001
44
0.0000000001
40
0
40
0
40
0
40
0
40
1
40
1
40
1
40
1
41
1
41
1
41
1
41
1
10
-118.77146479288739
20
80.142298126220709
30
0
10
-118.77146479288739
20
79.507299741109222
30
0
10
-119.27417151133221
20
79.004593022664395
30
0
10
-119.9091698964437
20
79.004593022664395
30
0
0
LINE
5
104
100
AcDbEntity
8
0
100
AcDbLine
10
-147.6375484466553
20
83.185006459554046
30
0
11
-147.63750000000002
21
83.158538436889671
31
0
0
LINE
5
105
100
AcDbEntity
8
0
100
AcDbLine
10
-147.63750000000002
20
83.158538436889671
30
0
11
-147.63750000000002
21
82.94687500000002
31
0
0
LINE
5
106
100
AcDbEntity
8
0
100
AcDbLine
10
-147.63750000000002
20
82.94687500000002
30
0
11
-147.74333979288738
21
82.523548126220717
31
0
0
LINE
5
107
100
AcDbEntity
8
0
100
AcDbLine
10
-147.74333979288738
20
82.523548126220717
30
0
11
-147.82271156311037
21
82.311884689331066
31
0
0
LINE
5
108
100
AcDbEntity
8
0
100
AcDbLine
10
-147.82271156311037
20
82.311884689331066
30
0
11
-147.90208333333334
21
82.126673126220723
31
0
0
LINE
5
109
100
AcDbEntity
8
0
100
AcDbLine
10
-147.90208333333334
20
82.126673126220723
30
0
11
-148.00792312622073
21
81.941461563110366
31
0
0
LINE
5
110
100
AcDbEntity
8
0
100
AcDbLine
10
-148.00792312622073
20
81.941461563110366
30
0
11
-148.14021479288738
21
81.756250000000023
31
0
0
LINE
5
111
100
AcDbEntity
8
0
100
AcDbLine
10
-148.14021479288738
20
81.756250000000023
30
0
11
-148.27250645955405
21
81.597498385111521
31
0
0
LINE
5
112
100
AcDbEntity
8
0
100
AcDbLine
10
-148.27250645955405
20
81.597498385111521
30
0
11
-148.43125000000003
21
81.438746770222991
31
0
0
LINE
5
113
100
AcDbEntity
8
0
100
AcDbLine
10
-148.43125000000003
20
81.438746770222991
30
0
11
-148.58999354044599
21
81.306455103556331
31
0
0
LINE
5
114
100
AcDbEntity
8
0
100
AcDbLine
10
-148.58999354044599
20
81.306455103556331
30
0
11
-148.77520510355635
21
81.174163436889657
31
0
0
LINE
5
115
100
AcDbEntity
8
0
100
AcDbLine
10
-148.77520510355635
20
81.174163436889657
30
0
11
-148.96041666666667
21
81.068331718444838
31
0
0
LINE
5
116
100
AcDbEntity
8
0
100
AcDbLine
10
-148.96041666666667
20
81.068331718444838
30
0
11
-149.14562822977703
21
80.988959948221861
31
0
0
LINE
5
117
100
AcDbEntity
8
0
100
AcDbLine
10
-149.14562822977703
20
80.988959948221861
30
0
11
-149.3572916666667
21
80.909588177998884
31
0
0
LINE
5
118
100
AcDbEntity
8
0
100
AcDbLine
10
-149.3572916666667
20
80.909588177998884
30
0
11
-149.56895510355633
21
80.856668281555187
31
0
0
LINE
5
119
100
AcDbEntity
8
0
100
AcDbLine
10
-149.56895510355633
20
80.856668281555187
30
0
11
-149.780618540446
21
80.856668281555187
31
0
0
SPLINE
5
120
100
AcDbEntity
8
0
100
AcDbSpline
70
0
71
2
72
6
73
3
74
0
42
0.000000001
43
0.0000000001
44
0.0000000001
40
0
40
0
40
0
40
1
40
1
40
1
10
-149.780618540446
20
80.856668281555187
30
0
10
-149.780618540446
20
80.830208333333346
30
0
10
-149.99228197733564
20
80.803748385111504
30
0
0
LINE
5
121
100
AcDbEntity
8
0
100
AcDbLine
10
-149.99228197733564
20
80.803748385111533
30
0
11
-151.42103843688966
21
79.798334948221864
31
0
0
LINE
5
122
100
AcDbEntity
8
0
100
AcDbLine
10
-151.42103843688966
20
79.798334948221864
30
0
11
-151.42103843688966
21
78.581250000000011
31
0
0
LINE
5
123
100
AcDbEntity
8
0
100
AcDbLine
10
-151.42103843688966
20
78.581250000000011
30
0
11
-149.88645833333334
21
77.655208333333348
31
0
0
LINE
5
124
100
AcDbEntity
8
0
100
AcDbLine
10
-149.88645833333334
20
77.655208333333348
30
0
11
-149.46313145955406
21
77.655208333333348
31
0
0
LINE
5
125
100
AcDbEntity
8
0
100
AcDbLine
10
-149.46313145955406
20
77.655208333333348
30
0
11
-149.03980458577476
21
77.549368540445982
31
0
0
LINE
5
126
100
AcDbEntity
8
0
100
AcDbLine
10
-149.03980458577476
20
77.549368540445982
30
0
11
-148.82814114888509
21
77.469996770222991
31
0
0
LINE
5
127
100
AcDbEntity
8
0
100
AcDbLine
10
-148.82814114888509
20
77.469996770222991
30
0
11
-148.45771802266441
21
77.258333333333354
31
0
0
LINE
5
128
100
AcDbEntity
8
0
100
AcDbLine
10
-148.45771802266441
20
77.258333333333354
30
0
11
-148.27250645955405
21
77.12604166666668
31
0
0
LINE
5
129
100
AcDbEntity
8
0
100
AcDbLine
10
-148.27250645955405
20
77.12604166666668
30
0
11
-148.1137629191081
21
76.993750000000006
31
0
0
LINE
5
130
100
AcDbEntity
8
0
100
AcDbLine
10
-148.1137629191081
20
76.993750000000006
30
0
11
-147.95501937866214
21
76.834998385111504
31
0
0
LINE
5
131
100
AcDbEntity
8
0
100
AcDbLine
10
-147.95501937866214
20
76.834998385111504
30
0
11
-147.82272771199547
21
76.676246770223003
31
0
0
LINE
5
132
100
AcDbEntity
8
0
100
AcDbLine
10
-147.82272771199547
20
76.676246770223003
30
0
11
-147.61104812622074
21
76.305823644002288
31
0
0
LINE
5
133
100
AcDbEntity
8
0
100
AcDbLine
10
-147.61104812622074
20
76.305823644002288
30
0
11
-147.53167635599775
21
76.094160207112637
31
0
0
LINE
5
134
100
AcDbEntity
8
0
100
AcDbLine
10
-147.53167635599775
20
76.094160207112637
30
0
11
-147.42583656311038
21
75.670833333333348
31
0
0
LINE
5
135
100
AcDbEntity
8
0
100
AcDbLine
10
-147.42583656311038
20
75.670833333333348
30
0
11
-147.42583656311038
21
75.035834948221861
31
0
0
LINE
5
136
100
AcDbEntity
8
0
100
AcDbLine
10
-147.42583656311038
20
75.035834948221861
30
0
11
-147.53167635599772
21
74.612508074442559
31
0
0
LINE
5
137
100
AcDbEntity
8
0
100
AcDbLine
10
-147.53167635599772
20
74.612508074442559
30
0
11
-147.61104812622074
21
74.400844637552922
31
0
0
LINE
5
138
100
AcDbEntity
8
0
100
AcDbLine
10
-147.61104812622074
20
74.400844637552922
30
0
11
-147.6904198964437
21
74.215633074442565
31
0
0
LINE
5
139
100
AcDbEntity
8
0
100
AcDbLine
10
-147.6904198964437
20
74.215633074442565
30
0
11
-147.79625968933109
21
74.030421511332207
31
0
0
LINE
5
140
100
AcDbEntity
8
0
100
AcDbLine
10
-147.79625968933109
20
74.030421511332207
30
0
11
-147.92855135599774
21
73.84520994822185
31
0
0
LINE
5
141
100
AcDbEntity
8
0
100
AcDbLine
10
-147.92855135599774
20
73.84520994822185
30
0
11
-148.06084302266441
21
73.686458333333348
31
0
0
LINE
5
142
100
AcDbEntity
8
0
100
AcDbLine
10
-148.06084302266441
20
73.686458333333348
30
0
11
-148.21958656311037
21
73.527706718444833
31
0
0
LINE
5
143
100
AcDbEntity
8
0
100
AcDbLine
10
-148.21958656311037
20
73.527706718444833
30
0
11
-148.37833010355635
21
73.395415051778173
31
0
0
LINE
5
144
100
AcDbEntity
8
0
100
AcDbLine
10
-148.37833010355635
20
73.395415051778173
30
0
11
-148.56354166666671
21
73.263123385111498
31
0
0
LINE
5
145
100
AcDbEntity
8
0
100
AcDbLine
10
-148.56354166666671
20
73.263123385111498
30
0
11
-148.74875322977704
21
73.15729166666668
31
0
0
LINE
5
146
100
AcDbEntity
8
0
100
AcDbLine
10
-148.74875322977704
20
73.15729166666668
30
0
11
-148.93396479288739
21
73.077919896443703
31
0
0
LINE
5
147
100
AcDbEntity
8
0
100
AcDbLine
10
-148.93396479288739
20
73.077919896443703
30
0
11
-149.14562822977703
21
72.998548126220712
31
0
0
LINE
5
148
100
AcDbEntity
8
0
100
AcDbLine
10
-149.14562822977703
20
72.998548126220712
30
0
11
-150.25688145955405
21
71.649171511332213
31
0
0
LINE
5
149
100
AcDbEntity
8
0
100
AcDbLine
10
-150.25688145955405
20
71.649171511332213
30
0
11
-149.91292635599774
21
70.485006459554043
31
0
0
LINE
5
150
100
AcDbEntity
8
0
100
AcDbLine
10
-149.91292635599774
20
70.485006459554043
30
0
11
-148.24605458577477
21
69.982299741109216
31
0
0
LINE
5
151
100
AcDbEntity
8
0
100
AcDbLine
10
-148.24605458577477
20
69.982299741109216
30
0
11
-148.03439114888511
21
70.035219637552913
31
0
0
LINE
5
152
100
AcDbEntity
8
0
100
AcDbLine
10
-148.03439114888511
20
70.035219637552913
30
0
11
-147.82272771199547
21
70.035219637552913
31
0
0
LINE
5
153
100
AcDbEntity
8
0
100
AcDbLine
10
-147.82272771199547
20
70.035219637552913
30
0
11
-147.6110642751058
21
70.088139533996596
31
0
0
LINE
5
154
100
AcDbEntity
8
0
100
AcDbLine
10
-147.6110642751058
20
70.088139533996596
30
0
11
-147.18773740132653
21
70.088139533996596
31
0
0
SPLINE
5
155
100
AcDbEntity
8
0
100
AcDbSpline
70
0
71
2
72
6
73
3
74
0
42
0.000000001
43
0.0000000001
44
0.0000000001
40
0
40
0
40
0
40
1
40
1
40
1
10
-147.18773740132653
20
70.088139533996596
30
0
10
-147.18773740132653
20
70.061679585774755
30
0
10
-146.97607396443686
20
70.008767763773619
30
0
0
LINE
5
156
100
AcDbEntity
8
0
100
AcDbLine
10
-146.97607396443686
20
70.008767763773619
30
0
11
-146.76441052754723
21
69.955847867329922
31
0
0
LINE
5
157
100
AcDbEntity
8
0
100
AcDbLine
10
-146.76441052754723
20
69.955847867329922
30
0
11
-146.55274709065759
21
69.876476097106945
31
0
0
LINE
5
158
100
AcDbEntity
8
0
100
AcDbLine
10
-146.55274709065759
20
69.876476097106945
30
0
11
-146.18232396443688
21
69.664812660217294
31
0
0
LINE
5
159
100
AcDbEntity
8
0
100
AcDbLine
10
-146.18232396443688
20
69.664812660217294
30
0
11
-145.99711240132652
21
69.532520993550634
31
0
0
LINE
5
160
100
AcDbEntity
8
0
100
AcDbLine
10
-145.99711240132652
20
69.532520993550634
30
0
11
-145.67962532043458
21
69.215017763773602
31
0
0
LINE
5
161
100
AcDbEntity
8
0
100
AcDbLine
10
-145.67962532043458
20
69.215017763773602
30
0
11
-145.54733365376794
21
69.029806200663259
31
0
0
LINE
5
162
100
AcDbEntity
8
0
100
AcDbLine
10
-145.54733365376794
20
69.029806200663259
30
0
11
-145.33565406799318
21
68.659383074442559
31
0
0
LINE
5
163
100
AcDbEntity
8
0
100
AcDbLine
10
-145.33565406799318
20
68.659383074442559
30
0
11
-145.25628229777021
21
68.447719637552908
31
0
0
LINE
5
164
100
AcDbEntity
8
0
100
AcDbLine
10
-145.25628229777021
20
68.447719637552908
30
0
11
-145.15044250488285
21
68.024392763773619
31
0
0
LINE
5
165
100
AcDbEntity
8
0
100
AcDbLine
10
-145.15044250488285
20
68.024392763773619
30
0
11
-145.15044250488285
21
67.389394378662118
31
0
0
LINE
5
166
100
AcDbEntity
8
0
100
AcDbLine
10
-145.15044250488285
20
67.389394378662118
30
0
11
-145.25628229777021
21
66.966059430440282
31
0
0
LINE
5
167
100
AcDbEntity
8
0
100
AcDbLine
10
-145.25628229777021
20
66.966059430440282
30
0
11
-145.33565406799318
21
66.754391956329357
31
0
0
LINE
5
168
100
AcDbEntity
8
0
100
AcDbLine
10
-145.33565406799318
20
66.754391956329357
30
0
11
-145.41502583821617
21
66.569184430440274
31
0
0
LINE
5
169
100
AcDbEntity
8
0
100
AcDbLine
10
-145.41502583821617
20
66.569184430440274
30
0
11
-145.52086563110353
21
66.38397690455119
31
0
0
LINE
5
170
100
AcDbEntity
8
0
100
AcDbLine
10
-145.52086563110353
20
66.38397690455119
30
0
11
-145.65315729777021
21
66.198769378662121
31
0
0
LINE
5
171
100
AcDbEntity
8
0
100
AcDbLine
10
-145.65315729777021
20
66.198769378662121
30
0
11
-145.78544896443688
21
66.040017763773605
31
0
0
LINE
5
172
100
AcDbEntity
8
0
100
AcDbLine
10
-145.78544896443688
20
66.040017763773605
30
0
11
-145.94419250488284
21
65.881266148885103
31
0
0
LINE
5
173
100
AcDbEntity
8
0
100
AcDbLine
10
-145.94419250488284
20
65.881266148885103
30
0
11
-146.10293604532879
21
65.748974482218429
31
0
0
LINE
5
174
100
AcDbEntity
8
0
100
AcDbLine
10
-146.10293604532879
20
65.748974482218429
30
0
11
-146.28814760843915
21
65.616682815551769
31
0
0
LINE
5
175
100
AcDbEntity
8
0
100
AcDbLine
10
-146.28814760843915
20
65.616682815551769
30
0
11
-147.02897771199545
21
64.029182815551763
31
0
0
LINE
5
176
100
AcDbEntity
8
0
100
AcDbLine
10
-147.02897771199545
20
64.029182815551763
30
0
11
-146.39397125244142
21
62.997309430440282
31
0
0
LINE
5
177
100
AcDbEntity
8
0
100
AcDbLine
10
-146.39397125244142
20
62.997309430440282
30
0
11
-144.64772771199546
21
62.944393571217873
31
0
0
LINE
5
178
100
AcDbEntity
8
0
100
AcDbLine
10
-144.64772771199546
20
62.944393571217873
30
0
11
-144.46251614888513
21
63.050225289662684
31
0
0
LINE
5
179
100
AcDbEntity
8
0
100
AcDbLine
10
-144.46251614888513
20
63.050225289662684
30
0
11
-144.27730458577477
21
63.129601097106942
31
0
0
LINE
5
180
100
AcDbEntity
8
0
100
AcDbLine
10
-144.27730458577477
20
63.129601097106942
30
0
11
-144.06564114888513
21
63.208976904551193
31
0
0
LINE
5
181
100
AcDbEntity
8
0
100
AcDbLine
10
-144.06564114888513
20
63.208976904551193
30
0
11
-143.85397771199547
21
63.261892763773602
31
0
0
LINE
5
182
100
AcDbEntity
8
0
100
AcDbLine
10
-143.85397771199547
20
63.261892763773602
30
0
11
-143.64231427510583
21
63.261892763773616
31
0
0
SPLINE
5
183
100
AcDbEntity
8
0
100
AcDbSpline
70
0
71
2
72
6
73
3
74
0
42
0.000000001
43
0.0000000001
44
0.0000000001
40
0
40
0
40
0
40
1
40
1
40
1
10
-143.64231427510583
20
63.261892763773616
30
0
10
-143.64231427510583
20
63.288352711995451
30
0
10
-143.43065083821617
20
63.314808622996026
30
0
0
LINE
5
184
100
AcDbEntity
8
0
100
AcDbLine
10
-143.43065083821617
20
63.314808622996026
30
0
11
-143.00732396443689
21
63.314808622996026
31
0
0
LINE
5
185
100
AcDbEntity
8
0
100
AcDbLine
10
-143.00732396443689
20
63.314808622996026
30
0
11
-142.79566052754723
21
63.235432815551775
31
0
0
LINE
5
186
100
AcDbEntity
8
0
100
AcDbLine
10
-142.79566052754723
20
63.235432815551775
30
0
11
-142.58399709065759
21
63.182516956329351
31
0
0
LINE
5
187
100
AcDbEntity
8
0
100
AcDbLine
10
-142.58399709065759
20
63.182516956329351
30
0
11
-142.37233365376792
21
63.103141148885101
31
0
0
LINE
5
188
100
AcDbEntity
8
0
100
AcDbLine
10
-142.37233365376792
20
63.103141148885101
30
0
11
-142.00191052754721
21
62.891477711995456
31
0
0
LINE
5
189
100
AcDbEntity
8
0
100
AcDbLine
10
-142.00191052754721
20
62.891477711995456
30
0
11
-141.84316698710126
21
62.759186045328775
31
0
0
LINE
5
190
100
AcDbEntity
8
0
100
AcDbLine
10
-141.84316698710126
20
62.759186045328775
30
0
11
-141.68442344665527
21
62.600434430440274
31
0
0
LINE
5
191
100
AcDbEntity
8
0
100
AcDbLine
10
-141.68442344665527
20
62.600434430440274
30
0
11
-141.55213177998863
21
62.441682815551765
31
0
0
LINE
5
192
100
AcDbEntity
8
0
100
AcDbLine
10
-141.55213177998863
20
62.441682815551765
30
0
11
-141.41984011332195
21
62.256475289662689
31
0
0
LINE
5
193
100
AcDbEntity
8
0
100
AcDbLine
10
-141.41984011332195
20
62.256475289662689
30
0
11
-141.20816052754722
21
61.886060237884529
31
0
0
LINE
5
194
100
AcDbEntity
8
0
100
AcDbLine
10
-141.20816052754722
20
61.886060237884529
30
0
11
-141.12878875732426
21
61.674392763773611
31
0
0
LINE
5
195
100
AcDbEntity
8
0
100
AcDbLine
10
-141.12878875732426
20
61.674392763773611
30
0
11
-141.02294896443686
21
61.251057815551768
31
0
0
LINE
5
196
100
AcDbEntity
8
0
100
AcDbLine
10
-141.02294896443686
20
61.251057815551768
30
0
11
-141.02294896443686
21
60.616059430440281
31
0
0
LINE
5
197
100
AcDbEntity
8
0
100
AcDbLine
10
-141.02294896443686
20
60.616059430440281
30
0
11
-141.12878875732423
21
60.192724482218438
31
0
0
LINE
5
198
100
AcDbEntity
8
0
100
AcDbLine
10
-141.12878875732423
20
60.192724482218438
30
0
11
-141.20816052754722
21
59.981057008107513
31
0
0
LINE
5
199
100
AcDbEntity
8
0
100
AcDbLine
10
-141.20816052754722
20
59.981057008107513
30
0
11
-141.28753229777021
21
59.795849482218429
31
0
0
LINE
5
200
100
AcDbEntity
8
0
100
AcDbLine
10
-141.28753229777021
20
59.795849482218429
30
0
11
-141.39337209065758
21
59.610641956329353
31
0
0
LINE
5
201
100
AcDbEntity
8
0
100
AcDbLine
10
-141.39337209065758
20
59.610641956329353
30
0
11
-141.52566375732425
21
59.425434430440269
31
0
0
LINE
5
202
100
AcDbEntity
8
0
100
AcDbLine
10
-141.52566375732425
20
59.425434430440269
30
0
11
-141.6579554239909
21
59.266682815551768
31
0
0
LINE
5
203
100
AcDbEntity
8
0
100
AcDbLine
10
-141.6579554239909
20
59.266682815551768
30
0
11
-141.94899063110353
21
57.546891148885102
31
0
0
LINE
5
204
100
AcDbEntity
8
0
100
AcDbLine
10
-141.94899063110353
20
57.546891148885102
30
0
11
-141.07586886088055
21
56.726681200663258
31
0
0
LINE
5
205
100
AcDbEntity
8
0
100
AcDbLine
10
-141.07586886088055
20
56.726681200663258
30
0
11
-139.38252906799318
21
57.123556200663259
31
0
0
LINE
5
206
100
AcDbEntity
8
0
100
AcDbLine
10
-139.38252906799318
20
57.123556200663259
30
0
11
-139.22378552754722
21
57.282307815551768
31
0
0
LINE
5
207
100
AcDbEntity
8
0
100
AcDbLine
10
-139.22378552754722
20
57.282307815551768
30
0
11
-139.06504198710127
21
57.414599482218442
31
0
0
LINE
5
208
100
AcDbEntity
8
0
100
AcDbLine
10
-139.06504198710127
20
57.414599482218442
30
0
11
-138.87983042399091
21
57.546891148885102
31
0
0
LINE
5
209
100
AcDbEntity
8
0
100
AcDbLine
10
-138.87983042399091
20
57.546891148885102
30
0
11
-138.69461886088055
21
57.652722867329928
31
0
0
LINE
5
210
100
AcDbEntity
8
0
100
AcDbLine
10
-138.69461886088055
20
57.652722867329928
30
0
11
-138.5094072977702
21
57.732098674774178
31
0
0
LINE
5
211
100
AcDbEntity
8
0
100
AcDbLine
10
-138.5094072977702
20
57.732098674774178
30
0
11
-138.29774386088056
21
57.811474482218429
31
0
0
LINE
5
212
100
AcDbEntity
8
0
100
AcDbLine
10
-138.29774386088056
20
57.811474482218429
30
0
11
-138.08608042399092
21
57.864390341440846
31
0
0
LINE
5
213
100
AcDbEntity
8
0
100
AcDbLine
10
-138.08608042399092
20
57.864390341440846
30
0
11
-137.87441698710126
21
57.864390341440846
31
0
0
LINE
5
214
100
AcDbEntity
8
0
100
AcDbLine
10
-137.87441698710126
20
57.864390341440846
30
0
11
-137.66275355021162
21
57.917306200663255
31
0
0
LINE
5
215
100
AcDbEntity
8
0
100
AcDbLine
10
-137.66275355021162
20
57.917306200663255
30
0
11
-137.23942667643232
21
57.917306200663255
31
0
0
LINE
5
216
100
AcDbEntity
8
0
100
AcDbLine
10
-137.23942667643232
20
57.917306200663255
30
0
11
-137.02776323954265
21
57.837930393219004
31
0
0
LINE
5
217
100
AcDbEntity
8
0
100
AcDbLine
10
-137.02776323954265
20
57.837930393219004
30
0
11
-136.81609980265301
21
57.785014533996595
31
0
0
LINE
5
218
100
AcDbEntity
8
0
100
AcDbLine
10
-136.81609980265301
20
57.785014533996595
30
0
11
-136.60443636576338
21
57.705638726552344
31
0
0
LINE
5
219
100
AcDbEntity
8
0
100
AcDbLine
10
-136.60443636576338
20
57.705638726552344
30
0
11
-136.23401323954266
21
57.493975289662693
31
0
0
LINE
5
220
100
AcDbEntity
8
0
100
AcDbLine
10
-136.23401323954266
20
57.493975289662693
30
0
11
-136.07526969909668
21
57.361683622996019
31
0
0
LINE
5
221
100
AcDbEntity
8
0
100
AcDbLine
10
-136.07526969909668
20
57.361683622996019
30
0
11
-135.91652615865075
21
57.20293200810751
31
0
0
LINE
5
222
100
AcDbEntity
8
0
100
AcDbLine
10
-135.91652615865075
20
57.20293200810751
30
0
11
-135.78423449198408
21
57.044180393219001
31
0
0
LINE
5
223
100
AcDbEntity
8
0
100
AcDbLine
10
-135.78423449198408
20
57.044180393219001
30
0
11
-135.65194282531741
21
56.858972867329918
31
0
0
LINE
5
224
100
AcDbEntity
8
0
100
AcDbLine
10
-135.65194282531741
20
56.858972867329918
30
0
11
-135.54610303243004
21
56.673765341440841
31
0
0
LINE
5
225
100
AcDbEntity
8
0
100
AcDbLine
10
-135.54610303243004
20
56.673765341440841
30
0
11
-135.44027131398519
21
56.488557815551765
31
0
0
LINE
5
226
100
AcDbEntity
8
0
100
AcDbLine
10
-135.44027131398519
20
56.488557815551765
30
0
11
-135.36089954376223
21
56.27689034144084
31
0
0
LINE
5
227
100
AcDbEntity
8
0
100
AcDbLine
10
-135.36089954376223
20
56.27689034144084
30
0
11
-135.30797964731855
21
56.065222867329922
31
0
0
LINE
5
228
100
AcDbEntity
8
0
100
AcDbLine
10
-135.30797964731855
20
56.065222867329922
30
0
11
-135.30797964731855
21
55.853555393218997
31
0
0
SPLINE
5
229
100
AcDbEntity
8
0
100
AcDbSpline
70
0
71
2
72
6
73
3
74
0
42
0.000000001
43
0.0000000001
44
0.0000000001
40
0
40
0
40
0
40
1
40
1
40
1
10
-135.30797964731855
20
55.853555393218997
30
0
10
-135.28151969909669
20
55.853555393218997
30
0
10
-135.25505975087486
20
55.641887919108079
30
0
0
LINE
5
230
100
AcDbEntity
8
0
100
AcDbLine
10
-135.25505975087486
20
55.641887919108079
30
0
11
-135.25505975087486
21
55.006889533996592
31
0
0
LINE
5
231
100
AcDbEntity
8
0
100
AcDbLine
10
-135.25505975087486
20
55.006889533996592
30
0
11
-135.36089146931968
21
54.795222059885667
31
0
0
LINE
5
232
100
AcDbEntity
8
0
100
AcDbLine
10
-135.36089146931968
20
54.795222059885667
30
0
11
-135.44026323954265
21
54.583554585774749
31
0
0
LINE
5
233
100
AcDbEntity
8
0
100
AcDbLine
10
-135.44026323954265
20
54.583554585774749
30
0
11
-135.54610303243004
21
54.398347059885666
31
0
0
LINE
5
234
100
AcDbEntity
8
0
100
AcDbLine
10
-135.54610303243004
20
54.398347059885666
30
0
11
-135.38735141754154
21
52.652095444997158
31
0
0
LINE
5
235
100
AcDbEntity
8
0
100
AcDbLine
10
-135.38735141754154
20
52.652095444997158
30
0
11
-134.3290180842082
21
52.07001291910808
31
0
0
LINE
5
236
100
AcDbEntity
8
0
100
AcDbLine
10
-134.3290180842082
20
52.07001291910808
30
0
11
-132.79443798065188
21
52.890222867329932
31
0
0
LINE
5
237
100
AcDbEntity
8
0
100
AcDbLine
10
-132.79443798065188
20
52.890222867329932
30
0
11
-132.68860626220706
21
53.075430393219001
31
0
0
LINE
5
238
100
AcDbEntity
8
0
100
AcDbLine
10
-132.68860626220706
20
53.075430393219001
30
0
11
-132.55631459554039
21
53.260637919108085
31
0
0
LINE
5
239
100
AcDbEntity
8
0
100
AcDbLine
10
-132.55631459554039
20
53.260637919108085
30
0
11
-132.42402292887371
21
53.419389533996593
31
0
0
LINE
5
240
100
AcDbEntity
8
0
100
AcDbLine
10
-132.42402292887371
20
53.419389533996593
30
0
11
-132.26527131398521
21
53.578141148885095
31
0
0
LINE
5
241
100
AcDbEntity
8
0
100
AcDbLine
10
-132.26527131398521
20
53.578141148885095
30
0
11
-132.10651969909671
21
53.710432815551769
31
0
0
LINE
5
242
100
AcDbEntity
8
0
100
AcDbLine
10
-132.10651969909671
20
53.710432815551769
30
0
11
-131.92130813598635
21
53.842724482218436
31
0
0
LINE
5
243
100
AcDbEntity
8
0
100
AcDbLine
10
-131.92130813598635
20
53.842724482218436
30
0
11
-131.73609657287599
21
53.948556200663248
31
0
0
LINE
5
244
100
AcDbEntity
8
0
100
AcDbLine
10
-131.73609657287599
20
53.948556200663248
30
0
11
-131.31276969909669
21
54.107307815551763
31
0
0
LINE
5
245
100
AcDbEntity
8
0
100
AcDbLine
10
-131.31276969909669
20
54.107307815551763
30
0
11
-131.10110626220705
21
54.160223674774173
31
0
0
LINE
5
246
100
AcDbEntity
8
0
100
AcDbLine
10
-131.10110626220705
20
54.160223674774173
30
0
11
-130.46610787709557
21
54.16022367477418
31
0
0
LINE
5
247
100
AcDbEntity
8
0
100
AcDbLine
10
-130.46610787709557
20
54.16022367477418
30
0
11
-130.04278100331626
21
54.054391956329354
31
0
0
LINE
5
248
100
AcDbEntity
8
0
100
AcDbLine
10
-130.04278100331626
20
54.054391956329354
30
0
11
-129.61945412953696
21
53.895640341440853
31
0
0
LINE
5
249
100
AcDbEntity
8
0
100
AcDbLine
10
-129.61945412953696
20
53.895640341440853
30
0
11
-129.4342425664266
21
53.78980862299602
31
0
0
LINE
5
250
100
AcDbEntity
8
0
100
AcDbLine
10
-129.4342425664266
20
53.78980862299602
30
0
11
-129.24903100331625
21
53.657516956329346
31
0
0
LINE
5
251
100
AcDbEntity
8
0
100
AcDbLine
10
-129.24903100331625
20
53.657516956329346
30
0
11
-129.09027938842775
21
53.525225289662686
31
0
0
LINE
5
252
100
AcDbEntity
8
0
100
AcDbLine
10
-129.09027938842775
20
53.525225289662686
30
0
11
-128.93152777353924
21
53.366473674774177
31
0
0
LINE
5
253
100
AcDbEntity
8
0
100
AcDbLine
10
-128.93152777353924
20
53.366473674774177
30
0
11
-128.79923610687257
21
53.207722059885668
31
0
0
LINE
5
254
100
AcDbEntity
8
0
100
AcDbLine
10
-128.79923610687257
20
53.207722059885668
30
0
11
-128.6669444402059
21
53.022514533996585
31
0
0
LINE
5
255
100
AcDbEntity
8
0
100
AcDbLine
10
-128.6669444402059
20
53.022514533996585
30
0
11
-128.45528100331626
21
52.652099482218432
31
0
0
LINE
5
256
100
AcDbEntity
8
0
100
AcDbLine
10
-128.45528100331626
20
52.652099482218432
30
0
11
-128.3759092330933
21
52.440432008107507
31
0
0
LINE
5
257
100
AcDbEntity
8
0
100
AcDbLine
10
-128.3759092330933
20
52.440432008107507
30
0
11
-128.32298933664961
21
52.228764533996582
31
0
0
LINE
5
258
100
AcDbEntity
8
0
100
AcDbLine
10
-128.32298933664961
20
52.228764533996582
30
0
11
-128.32298933664961
21
52.017097059885664
31
0
0
LINE
5
259
100
AcDbEntity
8
0
100
AcDbLine
10
-128.32298933664961
20
52.017097059885664
30
0
11
-128.27006944020593
21
51.805429585774746
31
0
0
LINE
5
260
100
AcDbEntity
8
0
100
AcDbLine
10
-128.27006944020593
20
51.805429585774746
30
0
11
-128.2700694402059
21
51.382094637552896
31
0
0
LINE
5
261
100
AcDbEntity
8
0
100
AcDbLine
10
-128.2700694402059
20
51.382094637552896
30
0
11
-128.32298933664958
21
51.170427163441985
31
0
0
LINE
5
262
100
AcDbEntity
8
0
100
AcDbLine
10
-128.32298933664958
20
51.170427163441985
30
0
11
-127.71445089975995
21
49.53001130421957
31
0
0
LINE
5
263
100
AcDbEntity
8
0
100
AcDbLine
10
-127.71445089975995
20
49.53001130421957
30
0
11
-126.5502858479818
21
49.265427970886236
31
0
0
LINE
5
264
100
AcDbEntity
8
0
100
AcDbLine
10
-126.5502858479818
20
49.265427970886236
30
0
11
-125.28028907775882
21
50.45605297088624
31
0
0
LINE
5
265
100
AcDbEntity
8
0
100
AcDbLine
10
-125.28028907775882
20
50.45605297088624
30
0
11
-125.22736918131513
21
50.667720444997158
31
0
0
LINE
5
266
100
AcDbEntity
8
0
100
AcDbLine
10
-125.22736918131513
20
50.667720444997158
30
0
11
-125.14799741109215
21
50.879387919108083
31
0
0
LINE
5
267
100
AcDbEntity
8
0
100
AcDbLine
10
-125.14799741109215
20
50.879387919108083
30
0
11
-124.93633397420248
21
51.249802970886236
31
0
0
LINE
5
268
100
AcDbEntity
8
0
100
AcDbLine
10
-124.93633397420248
20
51.249802970886236
30
0
11
-124.80404230753581
21
51.43501049677532
31
0
0
LINE
5
269
100
AcDbEntity
8
0
100
AcDbLine
10
-124.80404230753581
20
51.43501049677532
30
0
11
-124.67175064086916
21
51.593762111663828
31
0
0
LINE
5
270
100
AcDbEntity
8
0
100
AcDbLine
10
-124.67175064086916
20
51.593762111663828
30
0
11
-124.51299902598066
21
51.752513726552337
31
0
0
LINE
5
271
100
AcDbEntity
8
0
100
AcDbLine
10
-124.51299902598066
20
51.752513726552337
30
0
11
-124.35424741109215
21
51.884805393219004
31
0
0
LINE
5
272
100
AcDbEntity
8
0
100
AcDbLine
10
-124.35424741109215
20
51.884805393219004
30
0
11
-123.98382428487145
21
52.096468830108648
31
0
0
LINE
5
273
100
AcDbEntity
8
0
100
AcDbLine
10
-123.98382428487145
20
52.096468830108648
30
0
11
-123.77216084798179
21
52.175844637552899
31
0
0
LINE
5
274
100
AcDbEntity
8
0
100
AcDbLine
10
-123.77216084798179
20
52.175844637552899
30
0
11
-123.34883397420249
21
52.281676355997732
31
0
0
LINE
5
275
100
AcDbEntity
8
0
100
AcDbLine
10
-123.34883397420249
20
52.281676355997732
30
0
11
-123.13717053731284
21
52.281676355997732
31
0
0
SPLINE
5
276
100
AcDbEntity
8
0
100
AcDbSpline
70
0
71
2
72
6
73
3
74
0
42
0.000000001
43
0.0000000001
44
0.0000000001
40
0
40
0
40
0
40
1
40
1
40
1
10
-123.13717053731284
20
52.281676355997732
30
0
10
-123.13717053731284
20
52.308136304219566
30
0
10
-122.9255071004232
20
52.308136304219566
30
0
0
LINE
5
277
100
AcDbEntity
8
0
100
AcDbLine
10
-122.9255071004232
20
52.308136304219566
30
0
11
-122.71384366353357
21
52.308136304219566
31
0
0
LINE
5
278
100
AcDbEntity
8
0
100
AcDbLine
10
-122.71384366353357
20
52.308136304219566
30
0
11
-122.29051678975425
21
52.202304585774748
31
0
0
LINE
5
279
100
AcDbEntity
8
0
100
AcDbLine
10
-122.29051678975425
20
52.202304585774748
30
0
11
-122.07885335286461
21
52.122928778330497
31
0
0
LINE
5
280
100
AcDbEntity
8
0
100
AcDbLine
10
-122.07885335286461
20
52.122928778330497
30
0
11
-121.89364178975426
21
52.043552970886246
31
0
0
LINE
5
281
100
AcDbEntity
8
0
100
AcDbLine
10
-121.89364178975426
20
52.043552970886246
30
0
11
-121.70843022664388
21
51.937721252441413
31
0
0
LINE
5
282
100
AcDbEntity
8
0
100
AcDbLine
10
-121.70843022664388
20
51.937721252441413
30
0
11
-121.52321866353354
21
51.805429585774746
31
0
0
LINE
5
283
100
AcDbEntity
8
0
100
AcDbLine
10
-121.52321866353354
20
51.805429585774746
30
0
11
-121.36446704864504
21
51.673137919108072
31
0
0
LINE
5
284
100
AcDbEntity
8
0
100
AcDbLine
10
-121.36446704864504
20
51.673137919108072
30
0
11
-121.20571543375654
21
51.51438630421957
31
0
0
LINE
5
285
100
AcDbEntity
8
0
100
AcDbLine
10
-121.20571543375654
20
51.51438630421957
30
0
11
-121.07342376708985
21
51.355634689331062
31
0
0
LINE
5
286
100
AcDbEntity
8
0
100
AcDbLine
10
-121.07342376708985
20
51.355634689331062
30
0
11
-120.9411321004232
21
51.170427163441978
31
0
0
LINE
5
287
100
AcDbEntity
8
0
100
AcDbLine
10
-120.9411321004232
20
51.170427163441978
30
0
11
-120.83530038197837
21
50.985219637552902
31
0
0
LINE
5
288
100
AcDbEntity
8
0
100
AcDbLine
10
-120.83530038197837
20
50.985219637552902
30
0
11
-120.75592861175539
21
50.800012111663825
31
0
0
LINE
5
289
100
AcDbEntity
8
0
100
AcDbLine
10
-120.75592861175539
20
50.800012111663825
30
0
11
-120.6765568415324
21
50.5883446375529
31
0
0
LINE
5
290
100
AcDbEntity
8
0
100
AcDbLine
10
-120.6765568415324
20
50.5883446375529
30
0
11
-120.62363694508873
21
50.376677163441983
31
0
0
LINE
5
291
100
AcDbEntity
8
0
100
AcDbLine
10
-120.62363694508873
20
50.376677163441983
30
0
11
-120.62363694508873
21
50.165009689331058
31
0
0
LINE
5
292
100
AcDbEntity
8
0
100
AcDbLine
10
-120.62363694508873
20
50.165009689331058
30
0
11
-120.57071704864505
21
49.95334221522014
31
0
0
LINE
5
293
100
AcDbEntity
8
0
100
AcDbLine
10
-120.57071704864505
20
49.95334221522014
30
0
11
-119.56530361175538
21
48.524593830108643
31
0
0
LINE
5
294
100
AcDbEntity
8
0
100
AcDbLine
10
-119.56530361175538
20
48.524593830108643
30
0
11
-118.34821866353353
21
48.524593830108657
31
0
0
LINE
5
295
100
AcDbEntity
8
0
100
AcDbLine
10
-118.34821866353353
20
48.524593830108657
30
0
11
-117.4221769968669
21
50.059177970886239
31
0
0
LINE
5
296
100
AcDbEntity
8
0
100
AcDbLine
10
-117.4221769968669
20
50.059177970886239
30
0
11
-117.42217699686688
21
50.482512919108082
31
0
0
LINE
5
297
100
AcDbEntity
8
0
100
AcDbLine
10
-117.42217699686688
20
50.482512919108082
30
0
11
-117.31633720397951
21
50.905847867329925
31
0
0
LINE
5
298
100
AcDbEntity
8
0
100
AcDbLine
10
-117.31633720397951
20
50.905847867329925
30
0
11
-117.23696543375654
21
51.117515341440843
31
0
0
LINE
5
299
100
AcDbEntity
8
0
100
AcDbLine
10
-117.23696543375654
20
51.117515341440843
30
0
11
-117.02530199686689
21
51.48793039321901
31
0
0
LINE
5
300
100
AcDbEntity
8
0
100
AcDbLine
10
-117.02530199686689
20
51.48793039321901
30
0
11
-116.89301033020021
21
51.673137919108079
31
0
0
LINE
5
301
100
AcDbEntity
8
0
100
AcDbLine
10
-116.89301033020021
20
51.673137919108079
30
0
11
-116.76071866353354
21
51.831889533996588
31
0
0
LINE
5
302
100
AcDbEntity
8
0
100
AcDbLine
10
-116.76071866353354
20
51.831889533996588
30
0
11
-116.60196704864504
21
51.990641148885103
31
0
0
LINE
5
303
100
AcDbEntity
8
0
100
AcDbLine
10
-116.60196704864504
20
51.990641148885103
30
0
11
-116.44321543375654
21
52.122932815551771
31
0
0
LINE
5
304
100
AcDbEntity
8
0
100
AcDbLine
10
-116.44321543375654
20
52.122932815551771
30
0
11
-116.07279230753582
21
52.334596252441408
31
0
0
LINE
5
305
100
AcDbEntity
8
0
100
AcDbLine
10
-116.07279230753582
20
52.334596252441408
30
0
11
-115.86112887064617
21
52.413972059885666
31
0
0
LINE
5
306
100
AcDbEntity
8
0
100
AcDbLine
10
-115.86112887064617
20
52.413972059885666
30
0
11
-115.43780199686688
21
52.519803778330491
31
0
0
LINE
5
307
100
AcDbEntity
8
0
100
AcDbLine
10
-115.43780199686688
20
52.519803778330491
30
0
11
-115.01446704864505
21
52.519803778330491
31
0
0
SPLINE
5
308
100
AcDbEntity
8
0
100
AcDbSpline
70
0
71
2
72
6
73
3
74
0
42
0.000000001
43
0.0000000001
44
0.0000000001
40
0
40
0
40
0
40
1
40
1
40
1
10
-115.01446704864505
20
52.519803778330491
30
0
10
-115.01446704864505
20
52.54626372655234
30
0
10
-114.80280361175538
20
52.54626372655234
30
0
0
LINE
5
309
100
AcDbEntity
8
0
100
AcDbLine
10
-114.80280361175538
20
52.54626372655234
30
0
11
-114.37947673797609
21
52.440432008107514
31
0
0
LINE
5
310
100
AcDbEntity
8
0
100
AcDbLine
10
-114.37947673797609
20
52.440432008107514
30
0
11
-114.16781330108645
21
52.361056200663256
31
0
0
LINE
5
311
100
AcDbEntity
8
0
100
AcDbLine
10
-114.16781330108645
20
52.361056200663256
30
0
11
-113.9826017379761
21
52.281680393219006
31
0
0
LINE
5
312
100
AcDbEntity
8
0
100
AcDbLine
10
-113.9826017379761
20
52.281680393219006
30
0
11
-113.79739017486574
21
52.175848674774187
31
0
0
LINE
5
313
100
AcDbEntity
8
0
100
AcDbLine
10
-113.79739017486574
20
52.175848674774187
30
0
11
-113.6121786117554
21
52.043557008107506
31
0
0
LINE
5
314
100
AcDbEntity
8
0
100
AcDbLine
10
-113.6121786117554
20
52.043557008107506
30
0
11
-113.45342699686688
21
51.911265341440838
31
0
0
LINE
5
315
100
AcDbEntity
8
0
100
AcDbLine
10
-113.45342699686688
20
51.911265341440838
30
0
11
-113.29467538197838
21
51.75251372655233
31
0
0
LINE
5
316
100
AcDbEntity
8
0
100
AcDbLine
10
-113.29467538197838
20
51.75251372655233
30
0
11
-113.16238371531171
21
51.593762111663821
31
0
0
LINE
5
317
100
AcDbEntity
8
0
100
AcDbLine
10
-113.16238371531171
20
51.593762111663821
30
0
11
-113.03009204864503
21
51.408554585774752
31
0
0
LINE
5
318
100
AcDbEntity
8
0
100
AcDbLine
10
-113.03009204864503
20
51.408554585774752
30
0
11
-112.92426033020021
21
51.223347059885668
31
0
0
LINE
5
319
100
AcDbEntity
8
0
100
AcDbLine
10
-112.92426033020021
20
51.223347059885668
30
0
11
-112.84488855997724
21
51.038139533996585
31
0
0
LINE
5
320
100
AcDbEntity
8
0
100
AcDbLine
10
-112.84488855997724
20
51.038139533996585
30
0
11
-112.76551678975424
21
50.826472059885674
31
0
0
LINE
5
321
100
AcDbEntity
8
0
100
AcDbLine
10
-112.76551678975424
20
50.826472059885674
30
0
11
-111.41614017486575
21
49.715222867329921
31
0
0
LINE
5
322
100
AcDbEntity
8
0
100
AcDbLine
10
-111.41614017486575
20
49.715222867329921
30
0
11
-110.25197512308759
21
50.059182008107513
31
0
0
LINE
5
323
100
AcDbEntity
8
0
100
AcDbLine
10
-110.25197512308759
20
50.059182008107513
30
0
11
-109.74926840464276
21
51.726057815551769
31
0
0
LINE
5
324
100
AcDbEntity
8
0
100
AcDbLine
10
-109.74926840464276
20
51.726057815551769
30
0
11
-109.80218830108643
21
51.937725289662694
31
0
0
LINE
5
325
100
AcDbEntity
8
0
100
AcDbLine
10
-109.80218830108643
20
51.937725289662694
30
0
11
-109.80218830108643
21
52.149392763773612
31
0
0
SPLINE
5
326
100
AcDbEntity
8
0
100
AcDbSpline
70
0
71
2
72
6
73
3
74
0
42
0.000000001
43
0.0000000001
44
0.0000000001
40
0
40
0
40
0
40
1
40
1
40
1
10
-109.80218830108643
20
52.149392763773612
30
0
10
-109.82864824930829
20
52.149392763773612
30
0
10
-109.85510819753011
20
52.361060237884523
30
0
0
LINE
5
327
100
AcDbEntity
8
0
100
AcDbLine
10
-109.8551081975301
20
52.361060237884523
30
0
11
-109.85510819753011
21
52.784395186106366
31
0
0
LINE
5
328
100
AcDbEntity
8
0
100
AcDbLine
10
-109.85510819753011
20
52.784395186106366
30
0
11
-109.77573642730715
21
52.996062660217291
31
0
0
LINE
5
329
100
AcDbEntity
8
0
100
AcDbLine
10
-109.77573642730715
20
52.996062660217291
30
0
11
-109.72281653086347
21
53.207730134328209
31
0
0
LINE
5
330
100
AcDbEntity
8
0
100
AcDbLine
10
-109.72281653086347
20
53.207730134328209
30
0
11
-109.64344476064049
21
53.419397608439134
31
0
0
LINE
5
331
100
AcDbEntity
8
0
100
AcDbLine
10
-109.64344476064049
20
53.419397608439134
30
0
11
-109.43178132375083
21
53.789812660217294
31
0
0
LINE
5
332
100
AcDbEntity
8
0
100
AcDbLine
10
-109.43178132375083
20
53.789812660217294
30
0
11
-109.29948965708417
21
53.975020186106377
31
0
0
LINE
5
333
100
AcDbEntity
8
0
100
AcDbLine
10
-109.29948965708417
20
53.975020186106377
30
0
11
-108.98198642730716
21
54.292523415883387
31
0
0
LINE
5
334
100
AcDbEntity
8
0
100
AcDbLine
10
-108.98198642730716
20
54.292523415883387
30
0
11
-108.79677486419679
21
54.424815082550062
31
0
0
LINE
5
335
100
AcDbEntity
8
0
100
AcDbLine
10
-108.79677486419679
20
54.424815082550062
30
0
11
-108.42635173797609
21
54.636478519439706
31
0
0
LINE
5
336
100
AcDbEntity
8
0
100
AcDbLine
10
-108.42635173797609
20
54.636478519439706
30
0
11
-108.21468830108644
21
54.715854326883957
31
0
0
LINE
5
337
100
AcDbEntity
8
0
100
AcDbLine
10
-108.21468830108644
20
54.715854326883957
30
0
11
-107.79136142730715
21
54.821686045328789
31
0
0
LINE
5
338
100
AcDbEntity
8
0
100
AcDbLine
10
-107.79136142730715
20
54.821686045328789
30
0
11
-107.3680264790853
21
54.821686045328789
31
0
0
SPLINE
5
339
100
AcDbEntity
8
0
100
AcDbSpline
70
0
71
2
72
6
73
3
74
0
42
0.000000001
43
0.0000000001
44
0.0000000001
40
0
40
0
40
0
40
1
40
1
40
1
10
-107.3680264790853
20
54.821686045328789
30
0
10
-107.3680264790853
20
54.848145993550624
30
0
10
-107.15636304219565
20
54.848145993550624
30
0
0
LINE
5
340
100
AcDbEntity
8
0
100
AcDbLine
10
-107.15636304219565
20
54.848145993550624
30
0
11
-106.73303616841636
21
54.742314275105805
31
0
0
LINE
5
341
100
AcDbEntity
8
0
100
AcDbLine
10
-106.73303616841636
20
54.742314275105805
30
0
11
-106.52137273152672
21
54.662938467661554
31
0
0
LINE
5
342
100
AcDbEntity
8
0
100
AcDbLine
10
-106.52137273152672
20
54.662938467661554
30
0
11
-106.33616116841635
21
54.583562660217297
31
0
0
LINE
5
343
100
AcDbEntity
8
0
100
AcDbLine
10
-106.33616116841635
20
54.583562660217297
30
0
11
-106.150949605306
21
54.477730941772471
31
0
0
LINE
5
344
100
AcDbEntity
8
0
100
AcDbLine
10
-106.150949605306
20
54.477730941772471
30
0
11
-105.96573804219565
21
54.345439275105804
31
0
0
LINE
5
345
100
AcDbEntity
8
0
100
AcDbLine
10
-105.96573804219565
20
54.345439275105804
30
0
11
-105.80698642730715
21
54.213147608439129
31
0
0
LINE
5
346
100
AcDbEntity
8
0
100
AcDbLine
10
-105.80698642730715
20
54.213147608439129
30
0
11
-105.64823481241865
21
54.054395993550628
31
0
0
LINE
5
347
100
AcDbEntity
8
0
100
AcDbLine
10
-105.64823481241865
20
54.054395993550628
30
0
11
-105.51594314575196
21
53.895644378662119
31
0
0
LINE
5
348
100
AcDbEntity
8
0
100
AcDbLine
10
-105.51594314575196
20
53.895644378662119
30
0
11
-105.3836514790853
21
53.710436852773036
31
0
0
LINE
5
349
100
AcDbEntity
8
0
100
AcDbLine
10
-105.3836514790853
20
53.710436852773036
30
0
11
-103.79615147908531
21
52.969602711995449
31
0
0
LINE
5
350
100
AcDbEntity
8
0
100
AcDbLine
10
-103.79615147908531
20
52.969602711995449
30
0
11
-102.76427809397381
21
53.604601097106936
31
0
0
LINE
5
351
100
AcDbEntity
8
0
100
AcDbLine
10
-102.76427809397381
20
53.604601097106936
30
0
11
-102.71135819753013
21
55.350852711995451
31
0
0
LINE
5
352
100
AcDbEntity
8
0
100
AcDbLine
10
-102.71135819753013
20
55.350852711995451
30
0
11
-102.81718991597495
21
55.536060237884534
31
0
0
LINE
5
353
100
AcDbEntity
8
0
100
AcDbLine
10
-102.81718991597495
20
55.536060237884534
30
0
11
-102.89656168619793
21
55.721267763773611
31
0
0
LINE
5
354
100
AcDbEntity
8
0
100
AcDbLine
10
-102.89656168619793
20
55.721267763773611
30
0
11
-102.9759334564209
21
55.932935237884529
31
0
0
LINE
5
355
100
AcDbEntity
8
0
100
AcDbLine
10
-102.9759334564209
20
55.932935237884529
30
0
11
-103.0288533528646
21
56.144602711995446
31
0
0
LINE
5
356
100
AcDbEntity
8
0
100
AcDbLine
10
-103.0288533528646
20
56.144602711995446
30
0
11
-103.0288533528646
21
56.356270186106372
31
0
0
LINE
5
357
100
AcDbEntity
8
0
100
AcDbLine
10
-103.0288533528646
20
56.356270186106372
30
0
11
-103.08177324930827
21
56.567937660217289
31
0
0
LINE
5
358
100
AcDbEntity
8
0
100
AcDbLine
10
-103.08177324930827
20
56.567937660217289
30
0
11
-103.08177324930827
21
56.991272608439132
31
0
0
SPLINE
5
359
100
AcDbEntity
8
0
100
AcDbSpline
70
0
71
2
72
6
73
3
74
0
42
0.000000001
43
0.0000000001
44
0.0000000001
40
0
40
0
40
0
40
1
40
1
40
1
10
-103.08177324930827
20
56.991272608439132
30
0
10
-103.05531330108644
20
56.991272608439132
30
0
10
-103.00240147908531
20
57.202940082550057
30
0
0
LINE
5
360
100
AcDbEntity
8
0
100
AcDbLine
10
-103.00240147908532
20
57.202940082550057
30
0
11
-102.94948158264162
21
57.414607556660975
31
0
0
LINE
5
361
100
AcDbEntity
8
0
100
AcDbLine
10
-102.94948158264162
20
57.414607556660975
30
0
11
-102.87010981241865
21
57.6262750307719
31
0
0
LINE
5
362
100
AcDbEntity
8
0
100
AcDbLine
10
-102.87010981241865
20
57.6262750307719
30
0
11
-102.658446375529
21
57.99669008255006
31
0
0
LINE
5
363
100
AcDbEntity
8
0
100
AcDbLine
10
-102.658446375529
20
57.99669008255006
30
0
11
-102.52615470886232
21
58.155441697438562
31
0
0
LINE
5
364
100
AcDbEntity
8
0
100
AcDbLine
10
-102.52615470886232
20
58.155441697438562
30
0
11
-102.36740309397382
21
58.314193312327077
31
0
0
LINE
5
365
100
AcDbEntity
8
0
100
AcDbLine
10
-102.36740309397382
20
58.314193312327077
30
0
11
-102.20865147908532
21
58.446484978993745
31
0
0
LINE
5
366
100
AcDbEntity
8
0
100
AcDbLine
10
-102.20865147908532
20
58.446484978993745
30
0
11
-102.02343991597495
21
58.578776645660412
31
0
0
LINE
5
367
100
AcDbEntity
8
0
100
AcDbLine
10
-102.02343991597495
20
58.578776645660412
30
0
11
-101.65301678975425
21
58.790440082550063
31
0
0
LINE
5
368
100
AcDbEntity
8
0
100
AcDbLine
10
-101.65301678975425
20
58.790440082550063
30
0
11
-101.44135335286461
21
58.869815889994314
31
0
0
LINE
5
369
100
AcDbEntity
8
0
100
AcDbLine
10
-101.44135335286461
20
58.869815889994314
30
0
11
-101.01802647908529
21
58.975647608439132
31
0
0
LINE
5
370
100
AcDbEntity
8
0
100
AcDbLine
10
-101.01802647908529
20
58.975647608439132
30
0
11
-100.38302809397381
21
58.975647608439132
31
0
0
LINE
5
371
100
AcDbEntity
8
0
100
AcDbLine
10
-100.38302809397381
20
58.975647608439132
30
0
11
-99.959701220194518
21
58.869815889994314
31
0
0
LINE
5
372
100
AcDbEntity
8
0
100
AcDbLine
10
-99.959701220194518
20
58.869815889994314
30
0
11
-99.748037783304881
21
58.790440082550063
31
0
0
LINE
5
373
100
AcDbEntity
8
0
100
AcDbLine
10
-99.748037783304881
20
58.790440082550063
30
0
11
-99.562826220194509
21
58.711064275105812
31
0
0
LINE
5
374
100
AcDbEntity
8
0
100
AcDbLine
10
-99.562826220194509
20
58.711064275105812
30
0
11
-99.377614657084166
21
58.60523255666098
31
0
0
LINE
5
375
100
AcDbEntity
8
0
100
AcDbLine
10
-99.377614657084166
20
58.60523255666098
30
0
11
-99.192403093973809
21
58.472940889994305
31
0
0
LINE
5
376
100
AcDbEntity
8
0
100
AcDbLine
10
-99.192403093973809
20
58.472940889994305
30
0
11
-99.033651479085307
21
58.340649223327645
31
0
0
LINE
5
377
100
AcDbEntity
8
0
100
AcDbLine
10
-99.033651479085307
20
58.340649223327645
30
0
11
-97.313859812418642
21
58.049605941772469
31
0
0
LINE
5
378
100
AcDbEntity
8
0
100
AcDbLine
10
-97.313859812418642
20
58.049605941772469
30
0
11
-96.493649864196811
21
58.92273174921673
31
0
0
LINE
5
379
100
AcDbEntity
8
0
100
AcDbLine
10
-96.493649864196811
20
58.92273174921673
30
0
11
-96.890524864196777
21
60.616063467661547
31
0
0
LINE
5
380
100
AcDbEntity
8
0
100
AcDbLine
10
-96.890524864196777
20
60.616063467661547
30
0
11
-97.049276479085307
21
60.774815082550056
31
0
0
LINE
5
381
100
AcDbEntity
8
0
100
AcDbLine
10
-97.049276479085307
20
60.774815082550056
30
0
11
-97.181568145751967
21
60.933566697438565
31
0
0
LINE
5
382
100
AcDbEntity
8
0
100
AcDbLine
10
-97.181568145751967
20
60.933566697438565
30
0
11
-97.313859812418642
21
61.118774223327648
31
0
0
LINE
5
383
100
AcDbEntity
8
0
100
AcDbLine
10
-97.313859812418642
20
61.118774223327648
30
0
11
-97.41969153086346
21
61.303981749216732
31
0
0
LINE
5
384
100
AcDbEntity
8
0
100
AcDbLine
10
-97.41969153086346
20
61.303981749216732
30
0
11
-97.499063301086437
21
61.489189275105801
31
0
0
LINE
5
385
100
AcDbEntity
8
0
100
AcDbLine
10
-97.499063301086437
20
61.489189275105801
30
0
11
-97.578435071309414
21
61.700856749216726
31
0
0
LINE
5
386
100
AcDbEntity
8
0
100
AcDbLine
10
-97.578435071309414
20
61.700856749216726
30
0
11
-97.631354967753111
21
61.912524223327651
31
0
0
LINE
5
387
100
AcDbEntity
8
0
100
AcDbLine
10
-97.631354967753111
20
61.912524223327651
30
0
11
-97.631354967753111
21
62.124191697438569
31
0
0
SPLINE
5
388
100
AcDbEntity
8
0
100
AcDbSpline
70
0
71
2
72
6
73
3
74
0
42
0.000000001
43
0.0000000001
44
0.0000000001
40
0
40
0
40
0
40
1
40
1
40
1
10
-97.631354967753111
20
62.124191697438569
30
0
10
-97.657814915974953
20
62.124191697438569
30
0
10
-97.684274864196794
20
62.335859171549487
30
0
0
LINE
5
389
100
AcDbEntity
8
0
100
AcDbLine
10
-97.684274864196766
20
62.335859171549487
30
0
11
-97.684274864196794
21
62.759194119771337
31
0
0
LINE
5
390
100
AcDbEntity
8
0
100
AcDbLine
10
-97.684274864196794
20
62.759194119771337
30
0
11
-97.604903093973817
21
62.970861593882255
31
0
0
LINE
5
391
100
AcDbEntity
8
0
100
AcDbLine
10
-97.604903093973817
20
62.970861593882255
30
0
11
-97.551983197530134
21
63.182529067993173
31
0
0
LINE
5
392
100
AcDbEntity
8
0
100
AcDbLine
10
-97.551983197530134
20
63.182529067993173
30
0
11
-97.472611427307143
21
63.394196542104098
31
0
0
LINE
5
393
100
AcDbEntity
8
0
100
AcDbLine
10
-97.472611427307143
20
63.394196542104098
30
0
11
-97.260947990417492
21
63.76461159388225
31
0
0
LINE
5
394
100
AcDbEntity
8
0
100
AcDbLine
10
-97.260947990417492
20
63.76461159388225
30
0
11
-97.155116271972673
21
63.76461159388225
31
0
0
LINE
5
395
100
AcDbEntity
8
0
100
AcDbLine
10
-97.155116271972673
20
63.76461159388225
30
0
11
-97.022824605305999
21
63.923363208770766
31
0
0
LINE
5
396
100
AcDbEntity
8
0
100
AcDbLine
10
-97.022824605305999
20
63.923363208770766
30
0
11
-96.864072990417498
21
64.082114823659268
31
0
0
LINE
5
397
100
AcDbEntity
8
0
100
AcDbLine
10
-96.864072990417498
20
64.082114823659268
30
0
11
-96.705321375528982
21
64.214406490325942
31
0
0
LINE
5
398
100
AcDbEntity
8
0
100
AcDbLine
10
-96.705321375528982
20
64.214406490325942
30
0
11
-96.520109812418639
21
64.346698156992602
31
0
0
LINE
5
399
100
AcDbEntity
8
0
100
AcDbLine
10
-96.520109812418639
20
64.346698156992602
30
0
11
-96.149686686197938
21
64.558361593882253
31
0
0
LINE
5
400
100
AcDbEntity
8
0
100
AcDbLine
10
-96.149686686197938
20
64.558361593882253
30
0
11
-95.938023249308287
21
64.637737401326504
31
0
0
LINE
5
401
100
AcDbEntity
8
0
100
AcDbLine
10
-95.938023249308287
20
64.637737401326504
30
0
11
-95.72635981241865
21
64.690653260548913
31
0
0
LINE
5
402
100
AcDbEntity
8
0
100
AcDbLine
10
-95.72635981241865
20
64.690653260548913
30
0
11
-95.514696375528985
21
64.690653260548913
31
0
0
LINE
5
403
100
AcDbEntity
8
0
100
AcDbLine
10
-95.514696375528985
20
64.690653260548913
30
0
11
-95.303032938639348
21
64.743569119771337
31
0
0
LINE
5
404
100
AcDbEntity
8
0
100
AcDbLine
10
-95.303032938639348
20
64.743569119771337
30
0
11
-94.66803455352786
21
64.743569119771337
31
0
0
LINE
5
405
100
AcDbEntity
8
0
100
AcDbLine
10
-94.66803455352786
20
64.743569119771337
30
0
11
-94.456371116638209
21
64.637737401326504
31
0
0
LINE
5
406
100
AcDbEntity
8
0
100
AcDbLine
10
-94.456371116638209
20
64.637737401326504
30
0
11
-94.244707679748544
21
64.558361593882253
31
0
0
LINE
5
407
100
AcDbEntity
8
0
100
AcDbLine
10
-94.244707679748544
20
64.558361593882253
30
0
11
-94.059496116638201
21
64.452529875437421
31
0
0
LINE
5
408
100
AcDbEntity
8
0
100
AcDbLine
10
-94.059496116638201
20
64.452529875437421
30
0
11
-92.313244501749679
21
64.611281490325936
31
0
0
LINE
5
409
100
AcDbEntity
8
0
100
AcDbLine
10
-92.313244501749679
20
64.611281490325936
30
0
11
-91.731157938639342
21
65.669614823659273
31
0
0
LINE
5
410
100
AcDbEntity
8
0
100
AcDbLine
10
-91.731157938639342
20
65.669614823659273
30
0
11
-92.551367886861172
21
67.204198964436856
31
0
0
LINE
5
411
100
AcDbEntity
8
0
100
AcDbLine
10
-92.551367886861172
20
67.204198964436856
30
0
11
-92.736579449971529
21
67.310030682881688
31
0
0
LINE
5
412
100
AcDbEntity
8
0
100
AcDbLine
10
-92.736579449971529
20
67.310030682881688
30
0
11
-92.921791013081872
21
67.442322349548348
31
0
0
LINE
5
413
100
AcDbEntity
8
0
100
AcDbLine
10
-92.921791013081872
20
67.442322349548348
30
0
11
-93.080542627970374
21
67.574614016215023
31
0
0
LINE
5
414
100
AcDbEntity
8
0
100
AcDbLine
10
-93.080542627970374
20
67.574614016215023
30
0
11
-93.239294242858904
21
67.733365631103524
31
0
0
LINE
5
415
100
AcDbEntity
8
0
100
AcDbLine
10
-93.239294242858904
20
67.733365631103524
30
0
11
-93.371585909525564
21
67.89211724599204
31
0
0
LINE
5
416
100
AcDbEntity
8
0
100
AcDbLine
10
-93.371585909525564
20
67.89211724599204
30
0
11
-93.503877576192238
21
68.077328809102383
31
0
0
LINE
5
417
100
AcDbEntity
8
0
100
AcDbLine
10
-93.503877576192238
20
68.077328809102383
30
0
11
-93.609709294637057
21
68.26254037221274
31
0
0
LINE
5
418
100
AcDbEntity
8
0
100
AcDbLine
10
-93.609709294637057
20
68.26254037221274
30
0
11
-93.768452835083011
21
68.685867245992029
31
0
0
LINE
5
419
100
AcDbEntity
8
0
100
AcDbLine
10
-93.768452835083011
20
68.685867245992029
30
0
11
-93.821372731526708
21
68.89753068288168
31
0
0
LINE
5
420
100
AcDbEntity
8
0
100
AcDbLine
10
-93.821372731526708
20
68.89753068288168
30
0
11
-93.821372731526708
21
69.109194119771331
31
0
0
SPLINE
5
421
100
AcDbEntity
8
0
100
AcDbSpline
70
0
71
2
72
6
73
3
74
0
42
0.000000001
43
0.0000000001
44
0.0000000001
40
0
40
0
40
0
40
1
40
1
40
1
10
-93.821372731526708
20
69.109194119771331
30
0
10
-93.847832679748549
20
69.109194119771331
30
0
10
-93.847832679748549
20
69.320857556660982
30
0
0
LINE
5
422
100
AcDbEntity
8
0
100
AcDbLine
10
-93.847832679748549
20
69.320857556660982
30
0
11
-93.847832679748549
21
69.532520993550634
31
0
0
LINE
5
423
100
AcDbEntity
8
0
100
AcDbLine
10
-93.847832679748549
20
69.532520993550634
30
0
11
-93.741992886861169
21
69.955847867329922
31
0
0
LINE
5
424
100
AcDbEntity
8
0
100
AcDbLine
10
-93.741992886861169
20
69.955847867329922
30
0
11
-93.583249346415229
21
70.37917474110921
31
0
0
LINE
5
425
100
AcDbEntity
8
0
100
AcDbLine
10
-93.583249346415229
20
70.37917474110921
30
0
11
-93.477417627970397
21
70.564386304219568
31
0
0
LINE
5
426
100
AcDbEntity
8
0
100
AcDbLine
10
-93.477417627970397
20
70.564386304219568
30
0
11
-93.345125961303722
21
70.749597867329925
31
0
0
LINE
5
427
100
AcDbEntity
8
0
100
AcDbLine
10
-93.345125961303722
20
70.749597867329925
30
0
11
-93.212834294637048
21
70.908349482218426
31
0
0
LINE
5
428
100
AcDbEntity
8
0
100
AcDbLine
10
-93.212834294637048
20
70.908349482218426
30
0
11
-93.054082679748561
21
71.067101097106942
31
0
0
LINE
5
429
100
AcDbEntity
8
0
100
AcDbLine
10
-93.054082679748561
20
71.067101097106942
30
0
11
-92.895331064860045
21
71.199392763773616
31
0
0
LINE
5
430
100
AcDbEntity
8
0
100
AcDbLine
10
-92.895331064860045
20
71.199392763773616
30
0
11
-92.710119501749688
21
71.331684430440291
31
0
0
LINE
5
431
100
AcDbEntity
8
0
100
AcDbLine
10
-92.710119501749688
20
71.331684430440291
30
0
11
-92.339696375529002
21
71.543347867329913
31
0
0
LINE
5
432
100
AcDbEntity
8
0
100
AcDbLine
10
-92.339696375529002
20
71.543347867329913
30
0
11
-92.128032938639336
21
71.622719637552905
31
0
0
LINE
5
433
100
AcDbEntity
8
0
100
AcDbLine
10
-92.128032938639336
20
71.622719637552905
30
0
11
-91.916369501749685
21
71.675639533996602
31
0
0
LINE
5
434
100
AcDbEntity
8
0
100
AcDbLine
10
-91.916369501749685
20
71.675639533996602
30
0
11
-91.704706064860048
21
71.675639533996588
31
0
0
SPLINE
5
435
100
AcDbEntity
8
0
100
AcDbSpline
70
0
71
2
72
6
73
3
74
0
42
0.000000001
43
0.0000000001
44
0.0000000001
40
0
40
0
40
0
40
1
40
1
40
1
10
-91.704706064860048
20
71.675639533996588
30
0
10
-91.704706064860048
20
71.702099482218429
30
0
10
-91.493042627970382
20
71.728559430440285
30
0
0
LINE
5
436
100
AcDbEntity
8
0
100
AcDbLine
10
-91.493042627970382
20
71.728559430440285
30
0
11
-91.069707679748547
21
71.728559430440285
31
0
0
LINE
5
437
100
AcDbEntity
8
0
100
AcDbLine
10
-91.069707679748547
20
71.728559430440285
30
0
11
-90.858044242858909
21
71.675639533996588
31
0
0
LINE
5
438
100
AcDbEntity
8
0
100
AcDbLine
10
-90.858044242858909
20
71.675639533996588
30
0
11
-89.217624346415207
21
72.284177970886233
31
0
0
LINE
5
439
100
AcDbEntity
8
0
100
AcDbLine
10
-89.217624346415207
20
72.284177970886233
30
0
11
-88.953041013081872
21
73.448343022664403
31
0
0
LINE
5
440
100
AcDbEntity
8
0
100
AcDbLine
10
-88.953041013081872
20
73.448343022664403
30
0
11
-90.143666013081884
21
74.718339792887377
31
0
0
LINE
5
441
100
AcDbEntity
8
0
100
AcDbLine
10
-90.143666013081884
20
74.718339792887377
30
0
11
-90.355329449971521
21
74.771259689331075
31
0
0
LINE
5
442
100
AcDbEntity
8
0
100
AcDbLine
10
-90.355329449971521
20
74.771259689331075
30
0
11
-90.566992886861172
21
74.850631459554052
31
0
0
LINE
5
443
100
AcDbEntity
8
0
100
AcDbLine
10
-90.566992886861172
20
74.850631459554052
30
0
11
-90.937416013081886
21
75.062294896443703
31
0
0
LINE
5
444
100
AcDbEntity
8
0
100
AcDbLine
10
-90.937416013081886
20
75.062294896443703
30
0
11
-91.12262757619223
21
75.194586563110363
31
0
0
LINE
5
445
100
AcDbEntity
8
0
100
AcDbLine
10
-91.12262757619223
20
75.194586563110363
30
0
11
-91.281379191080731
21
75.326878229777037
31
0
0
LINE
5
446
100
AcDbEntity
8
0
100
AcDbLine
10
-91.281379191080731
20
75.326878229777037
30
0
11
-91.440130805969233
21
75.485629844665539
31
0
0
LINE
5
447
100
AcDbEntity
8
0
100
AcDbLine
10
-91.440130805969233
20
75.485629844665539
30
0
11
-91.572422472635935
21
75.644381459554054
31
0
0
LINE
5
448
100
AcDbEntity
8
0
100
AcDbLine
10
-91.572422472635935
20
75.644381459554054
30
0
11
-91.784085909525572
21
76.014804585774755
31
0
0
LINE
5
449
100
AcDbEntity
8
0
100
AcDbLine
10
-91.784085909525572
20
76.014804585774755
30
0
11
-91.863457679748549
21
76.226468022664392
31
0
0
LINE
5
450
100
AcDbEntity
8
0
100
AcDbLine
10
-91.863457679748549
20
76.226468022664392
30
0
11
-91.969297472635901
21
76.649794896443694
31
0
0
LINE
5
451
100
AcDbEntity
8
0
100
AcDbLine
10
-91.969297472635901
20
76.649794896443694
30
0
11
-91.96929747263593
21
77.284793281555181
31
0
0
LINE
5
452
100
AcDbEntity
8
0
100
AcDbLine
10
-91.96929747263593
20
77.284793281555181
30
0
11
-91.863457679748549
21
77.708120155334484
31
0
0
LINE
5
453
100
AcDbEntity
8
0
100
AcDbLine
10
-91.863457679748549
20
77.708120155334484
30
0
11
-91.784085909525572
21
77.919783592224135
31
0
0
LINE
5
454
100
AcDbEntity
8
0
100
AcDbLine
10
-91.784085909525572
20
77.919783592224135
30
0
11
-91.704714139302595
21
78.104995155334478
31
0
0
LINE
5
455
100
AcDbEntity
8
0
100
AcDbLine
10
-91.704714139302595
20
78.104995155334478
30
0
11
-91.598882420857763
21
78.290206718444836
31
0
0
LINE
5
456
100
AcDbEntity
8
0
100
AcDbLine
10
-91.598882420857763
20
78.290206718444836
30
0
11
-91.466590754191088
21
78.475418281555193
31
0
0
LINE
5
457
100
AcDbEntity
8
0
100
AcDbLine
10
-91.466590754191088
20
78.475418281555193
30
0
11
-91.334299087524414
21
78.634169896443694
31
0
0
LINE
5
458
100
AcDbEntity
8
0
100
AcDbLine
10
-91.334299087524414
20
78.634169896443694
30
0
11
-91.175547472635941
21
78.79292151133221
31
0
0
LINE
5
459
100
AcDbEntity
8
0
100
AcDbLine
10
-91.175547472635941
20
78.79292151133221
30
0
11
-91.016795857747411
21
78.92521317799887
31
0
0
LINE
5
460
100
AcDbEntity
8
0
100
AcDbLine
10
-91.016795857747411
20
78.92521317799887
30
0
11
-90.831584294637068
21
79.057504844665544
31
0
0
LINE
5
461
100
AcDbEntity
8
0
100
AcDbLine
10
-90.831584294637068
20
79.057504844665544
30
0
11
-90.646372731526711
21
79.163336563110363
31
0
0
LINE
5
462
100
AcDbEntity
8
0
100
AcDbLine
10
-90.646372731526711
20
79.163336563110363
30
0
11
-90.461161168416368
21
79.242708333333354
31
0
0
LINE
5
463
100
AcDbEntity
8
0
100
AcDbLine
10
-90.461161168416368
20
79.242708333333354
30
0
11
-90.249497731526702
21
79.322080103556331
31
0
0
LINE
5
464
100
AcDbEntity
8
0
100
AcDbLine
10
-90.249497731526702
20
79.322080103556331
30
0
11
-90.037834294637065
21
79.375000000000014
31
0
0
LINE
5
465
100
AcDbEntity
8
0
100
AcDbLine
10
-90.037834294637065
20
79.375000000000014
30
0
11
-89.826170857747414
21
79.375000000000014
31
0
0
SPLINE
5
466
100
AcDbEntity
8
0
100
AcDbSpline
70
0
71
2
72
6
73
3
74
0
42
0.000000001
43
0.0000000001
44
0.0000000001
40
0
40
0
40
0
40
1
40
1
40
1
10
-89.826170857747414
20
79.375000000000014
30
0
10
-89.826170857747414
20
79.401459948221856
30
0
10
-89.614507420857748
20
79.427919896443697
30
0
0
LINE
5
467
100
AcDbEntity
8
0
100
AcDbLine
10
-89.614507420857748
20
79.427919896443711
30
0
11
-88.185759035746258
21
80.433333333333351
31
0
0
LINE
5
468
100
AcDbEntity
8
0
100
AcDbLine
10
-88.185759035746258
20
80.433333333333351
30
0
11
-88.185759035746273
21
81.650418281555176
31
0
0
SPLINE
5
469
100
AcDbEntity
8
0
100
AcDbSpline
70
0
71
2
72
6
73
3
74
0
42
0.000000001
43
0.0000000001
44
0.0000000001
40
0
40
0
40
0
40
1
40
1
40
1
10
-88.185759035746273
20
81.650418281555176
30
0
10
-88.212218983968114
20
81.650418281555176
30
0
10
-89.720339139302595
20
82.576459948221853
30
0
0
LINE
5
470
100
AcDbEntity
8
0
100
AcDbLine
10
-89.720339139302581
20
82.576459948221853
30
0
11
-90.143674087524431
21
82.576459948221853
31
0
0
LINE
5
471
100
AcDbEntity
8
0
100
AcDbLine
10
-90.143674087524431
20
82.576459948221853
30
0
11
-90.567000961303719
21
82.682299741109219
31
0
0
LINE
5
472
100
AcDbEntity
8
0
100
AcDbLine
10
-90.567000961303719
20
82.682299741109219
30
0
11
-90.778664398193371
21
82.76167151133221
31
0
0
LINE
5
473
100
AcDbEntity
8
0
100
AcDbLine
10
-90.778664398193371
20
82.76167151133221
30
0
11
-91.149087524414071
21
82.973334948221847
31
0
0
LINE
5
474
100
AcDbEntity
8
0
100
AcDbLine
10
-91.149087524414071
20
82.973334948221847
30
0
11
-91.334299087524414
21
83.105626614888521
31
0
0
LINE
5
475
100
AcDbEntity
8
0
100
AcDbLine
10
-91.334299087524414
20
83.105626614888521
30
0
11
-91.493050702412944
21
83.237918281555196
31
0
0
LINE
5
476
100
AcDbEntity
8
0
100
AcDbLine
10
-91.493050702412944
20
83.237918281555196
30
0
11
-91.651802317301446
21
83.396669896443697
31
0
0
LINE
5
477
100
AcDbEntity
8
0
100
AcDbLine
10
-91.651802317301446
20
83.396669896443697
30
0
11
-91.784093983968106
21
83.555421511332199
31
0
0
LINE
5
478
100
AcDbEntity
8
0
100
AcDbLine
10
-91.784093983968106
20
83.555421511332199
30
0
11
-91.995757420857757
21
83.925844637552913
31
0
0
LINE
5
479
100
AcDbEntity
8
0
100
AcDbLine
10
-91.995757420857757
20
83.925844637552913
30
0
11
-92.07512919108072
21
84.137508074442565
31
0
0
LINE
5
480
100
AcDbEntity
8
0
100
AcDbLine
10
-92.07512919108072
20
84.137508074442565
30
0
11
-92.1809689839681
21
84.560834948221839
31
0
0
LINE
5
481
100
AcDbEntity
8
0
100
AcDbLine
10
-92.1809689839681
20
84.560834948221839
30
0
11
-92.1809689839681
21
85.195833333333354
31
0
0
LINE
5
482
100
AcDbEntity
8
0
100
AcDbLine
10
-92.1809689839681
20
85.195833333333354
30
0
11
-92.075129191080748
21
85.619160207112643
31
0
0
LINE
5
483
100
AcDbEntity
8
0
100
AcDbLine
10
-92.075129191080748
20
85.619160207112643
30
0
11
-91.995757420857771
21
85.83082364400228
31
0
0
LINE
5
484
100
AcDbEntity
8
0
100
AcDbLine
10
-91.995757420857771
20
85.83082364400228
30
0
11
-91.91638565063478
21
86.016035207112637
31
0
0
LINE
5
485
100
AcDbEntity
8
0
100
AcDbLine
10
-91.91638565063478
20
86.016035207112637
30
0
11
-91.810553932189961
21
86.201246770223008
31
0
0
LINE
5
486
100
AcDbEntity
8
0
100
AcDbLine
10
-91.810553932189961
20
86.201246770223008
30
0
11
-91.678262265523287
21
86.386458333333351
31
0
0
LINE
5
487
100
AcDbEntity
8
0
100
AcDbLine
10
-91.678262265523287
20
86.386458333333351
30
0
11
-91.545970598856613
21
86.545209948221853
31
0
0
LINE
5
488
100
AcDbEntity
8
0
100
AcDbLine
10
-91.545970598856613
20
86.545209948221853
30
0
11
-91.387218983968111
21
86.703961563110354
31
0
0
LINE
5
489
100
AcDbEntity
8
0
100
AcDbLine
10
-91.387218983968111
20
86.703961563110354
30
0
11
-91.22846736907961
21
86.836253229777043
31
0
0
LINE
5
490
100
AcDbEntity
8
0
100
AcDbLine
10
-91.22846736907961
20
86.836253229777043
30
0
11
-91.043255805969238
21
86.968544896443689
31
0
0
LINE
5
491
100
AcDbEntity
8
0
100
AcDbLine
10
-91.043255805969238
20
86.968544896443689
30
0
11
-90.858044242858895
21
87.074376614888521
31
0
0
LINE
5
492
100
AcDbEntity
8
0
100
AcDbLine
10
-90.858044242858895
20
87.074376614888521
30
0
11
-90.672832679748552
21
87.153748385111498
31
0
0
LINE
5
493
100
AcDbEntity
8
0
100
AcDbLine
10
-90.672832679748552
20
87.153748385111498
30
0
11
-90.461169242858901
21
87.23312015533449
31
0
0
LINE
5
494
100
AcDbEntity
8
0
100
AcDbLine
10
-90.461169242858901
20
87.23312015533449
30
0
11
-89.349916013081867
21
88.582496770222988
31
0
0
LINE
5
495
100
AcDbEntity
8
0
100
AcDbLine
10
-89.349916013081867
20
88.582496770222988
30
0
11
-89.693871116638192
21
89.746661822001158
31
0
0
LINE
5
496
100
AcDbEntity
8
0
100
AcDbLine
10
-89.693871116638192
20
89.746661822001158
30
0
11
-91.360742886861175
21
90.249368540445971
31
0
0
LINE
5
497
100
AcDbEntity
8
0
100
AcDbLine
10
-91.360742886861175
20
90.249368540445971
30
0
11
-91.572406323750812
21
90.196448644002288
31
0
0
LINE
5
498
100
AcDbEntity
8
0
100
AcDbLine
10
-91.572406323750812
20
90.196448644002288
30
0
11
-91.784069760640463
21
90.196448644002288
31
0
0
LINE
5
499
100
AcDbEntity
8
0
100
AcDbLine
10
-91.784069760640463
20
90.196448644002288
30
0
11
-91.995733197530129
21
90.143528747558605
31
0
0
LINE
5
500
100
AcDbEntity
8
0
100
AcDbLine
10
-91.995733197530129
20
90.143528747558605
30
0
11
-92.419068145751964
21
90.143528747558605
31
0
0
SPLINE
5
501
100
AcDbEntity
8
0
100
AcDbSpline
70
0
71
2
72
6
73
3
74
0
42
0.000000001
43
0.0000000001
44
0.0000000001
40
0
40
0
40
0
40
1
40
1
40
1
10
-92.419068145751964
20
90.143528747558605
30
0
10
-92.419068145751964
20
90.169988695780447
30
0
10
-92.630731582641616
20
90.222900517781582
30
0
0
LINE
5
502
100
AcDbEntity
8
0
100
AcDbLine
10
-92.630731582641616
20
90.222900517781568
30
0
11
-92.842395019531253
21
90.275820414225265
31
0
0
LINE
5
503
100
AcDbEntity
8
0
100
AcDbLine
10
-92.842395019531253
20
90.275820414225265
30
0
11
-93.054058456420904
21
90.355192184448242
31
0
0
LINE
5
504
100
AcDbEntity
8
0
100
AcDbLine
10
-93.054058456420904
20
90.355192184448242
30
0
11
-93.424481582641619
21
90.566855621337908
31
0
0
LINE
5
505
100
AcDbEntity
8
0
100
AcDbLine
10
-93.424481582641619
20
90.566855621337908
30
0
11
-93.609693145751976
21
90.699147288004568
31
0
0
LINE
5
506
100
AcDbEntity
8
0
100
AcDbLine
10
-93.609693145751976
20
90.699147288004568
30
0
11
-93.927196375528979
21
91.016650517781571
31
0
0
LINE
5
507
100
AcDbEntity
8
0
100
AcDbLine
10
-93.927196375528979
20
91.016650517781571
30
0
11
-94.059488042195653
21
91.201862080891942
31
0
0
LINE
5
508
100
AcDbEntity
8
0
100
AcDbLine
10
-94.059488042195653
20
91.201862080891942
30
0
11
-94.271151479085304
21
91.572285207112643
31
0
0
LINE
5
509
100
AcDbEntity
8
0
100
AcDbLine
10
-94.271151479085304
20
91.572285207112643
30
0
11
-94.350523249308281
21
91.783948644002294
31
0
0
LINE
5
510
100
AcDbEntity
8
0
100
AcDbLine
10
-94.350523249308281
20
91.783948644002294
30
0
11
-94.456363042195647
21
92.207275517781596
31
0
0
LINE
5
511
100
AcDbEntity
8
0
100
AcDbLine
10
-94.456363042195647
20
92.207275517781596
30
0
11
-94.456363042195647
21
92.630610466003432
31
0
0
SPLINE
5
512
100
AcDbEntity
8
0
100
AcDbSpline
70
0
71
2
72
6
73
3
74
0
42
0.000000001
43
0.0000000001
44
0.0000000001
40
0
40
0
40
0
40
1
40
1
40
1
10
-94.456363042195647
20
92.630610466003432
30
0
10
-94.482822990417489
20
92.630610466003432
30
0
10
-94.482822990417489
20
92.842273902893083
30
0
0
LINE
5
513
100
AcDbEntity
8
0
100
AcDbLine
10
-94.482822990417489
20
92.842273902893083
30
0
11
-94.376983197530123
21
93.265600776672372
31
0
0
LINE
5
514
100
AcDbEntity
8
0
100
AcDbLine
10
-94.376983197530123
20
93.265600776672372
30
0
11
-94.297611427307146
21
93.477264213562009
31
0
0
LINE
5
515
100
AcDbEntity
8
0
100
AcDbLine
10
-94.297611427307146
20
93.477264213562009
30
0
11
-94.218239657084155
21
93.66247577667238
31
0
0
LINE
5
516
100
AcDbEntity
8
0
100
AcDbLine
10
-94.218239657084155
20
93.66247577667238
30
0
11
-94.112407938639336
21
93.847687339782738
31
0
0
LINE
5
517
100
AcDbEntity
8
0
100
AcDbLine
10
-94.112407938639336
20
93.847687339782738
30
0
11
-93.980116271972662
21
94.032898902893081
31
0
0
LINE
5
518
100
AcDbEntity
8
0
100
AcDbLine
10
-93.980116271972662
20
94.032898902893081
30
0
11
-93.847824605306002
21
94.191650517781582
31
0
0
LINE
5
519
100
AcDbEntity
8
0
100
AcDbLine
10
-93.847824605306002
20
94.191650517781582
30
0
11
-93.6890729904175
21
94.350402132670084
31
0
0
LINE
5
520
100
AcDbEntity
8
0
100
AcDbLine
10
-93.6890729904175
20
94.350402132670084
30
0
11
-93.530321375528999
21
94.482693799336772
31
0
0
LINE
5
521
100
AcDbEntity
8
0
100
AcDbLine
10
-93.530321375528999
20
94.482693799336772
30
0
11
-93.345109812418627
21
94.614985466003446
31
0
0
LINE
5
522
100
AcDbEntity
8
0
100
AcDbLine
10
-93.345109812418627
20
94.614985466003446
30
0
11
-92.604279708862322
21
96.202485466003424
31
0
0
LINE
5
523
100
AcDbEntity
8
0
100
AcDbLine
10
-92.604279708862322
20
96.202485466003424
30
0
11
-93.239278093973809
21
97.234358851114933
31
0
0
LINE
5
524
100
AcDbEntity
8
0
100
AcDbLine
10
-93.239278093973809
20
97.234358851114933
30
0
11
-94.985529708862316
21
97.287278747558602
31
0
0
LINE
5
525
100
AcDbEntity
8
0
100
AcDbLine
10
-94.985529708862316
20
97.287278747558602
30
0
11
-95.170741271972673
21
97.181447029113798
31
0
0
LINE
5
526
100
AcDbEntity
8
0
100
AcDbLine
10
-95.170741271972673
20
97.181447029113798
30
0
11
-95.355952835083016
21
97.102075258890807
31
0
0
LINE
5
527
100
AcDbEntity
8
0
100
AcDbLine
10
-95.355952835083016
20
97.102075258890807
30
0
11
-95.567616271972668
21
97.02270348866783
31
0
0
LINE
5
528
100
AcDbEntity
8
0
100
AcDbLine
10
-95.567616271972668
20
97.02270348866783
30
0
11
-95.779279708862305
21
96.969783592224132
31
0
0
LINE
5
529
100
AcDbEntity
8
0
100
AcDbLine
10
-95.779279708862305
20
96.969783592224132
30
0
11
-95.99094314575197
21
96.969783592224132
31
0
0
SPLINE
5
530
100
AcDbEntity
8
0
100
AcDbSpline
70
0
71
2
72
6
73
3
74
0
42
0.000000001
43
0.0000000001
44
0.0000000001
40
0
40
0
40
0
40
1
40
1
40
1
10
-95.99094314575197
20
96.969783592224132
30
0
10
-95.99094314575197
20
96.943323644002277
30
0
10
-96.202606582641607
20
96.916863695780449
30
0
0
LINE
5
531
100
AcDbEntity
8
0
100
AcDbLine
10
-96.202606582641607
20
96.916863695780478
30
0
11
-96.625941530863457
21
96.916863695780449
31
0
0
LINE
5
532
100
AcDbEntity
8
0
100
AcDbLine
10
-96.625941530863457
20
96.916863695780449
30
0
11
-96.837604967753094
21
96.996235466003426
31
0
0
LINE
5
533
100
AcDbEntity
8
0
100
AcDbLine
10
-96.837604967753094
20
96.996235466003426
30
0
11
-97.049268404642746
21
97.049155362447109
31
0
0
LINE
5
534
100
AcDbEntity
8
0
100
AcDbLine
10
-97.049268404642746
20
97.049155362447109
30
0
11
-97.260931841532411
21
97.128527132670101
31
0
0
LINE
5
535
100
AcDbEntity
8
0
100
AcDbLine
10
-97.260931841532411
20
97.128527132670101
30
0
11
-97.631354967753111
21
97.340190569559738
31
0
0
LINE
5
536
100
AcDbEntity
8
0
100
AcDbLine
10
-97.631354967753111
20
97.340190569559738
30
0
11
-97.790106582641613
21
97.472482236226412
31
0
0
LINE
5
537
100
AcDbEntity
8
0
100
AcDbLine
10
-97.790106582641613
20
97.472482236226412
30
0
11
-97.948858197530114
21
97.631233851114914
31
0
0
LINE
5
538
100
AcDbEntity
8
0
100
AcDbLine
10
-97.948858197530114
20
97.631233851114914
30
0
11
-98.081149864196803
21
97.789985466003429
31
0
0
LINE
5
539
100
AcDbEntity
8
0
100
AcDbLine
10
-98.081149864196803
20
97.789985466003429
30
0
11
-98.213441530863463
21
97.975197029113787
31
0
0
LINE
5
540
100
AcDbEntity
8
0
100
AcDbLine
10
-98.213441530863463
20
97.975197029113787
30
0
11
-98.4251049677531
21
98.345620155334487
31
0
0
LINE
5
541
100
AcDbEntity
8
0
100
AcDbLine
10
-98.4251049677531
20
98.345620155334487
30
0
11
-98.504476737976091
21
98.557283592224124
31
0
0
LINE
5
542
100
AcDbEntity
8
0
100
AcDbLine
10
-98.504476737976091
20
98.557283592224124
30
0
11
-98.610316530863443
21
98.980610466003441
31
0
0
LINE
5
543
100
AcDbEntity
8
0
100
AcDbLine
10
-98.610316530863443
20
98.980610466003441
30
0
11
-98.610316530863457
21
99.615608851114928
31
0
0
LINE
5
544
100
AcDbEntity
8
0
100
AcDbLine
10
-98.610316530863457
20
99.615608851114928
30
0
11
-98.504476737976091
21
100.0389357248942
31
0
0
LINE
5
545
100
AcDbEntity
8
0
100
AcDbLine
10
-98.504476737976091
20
100.0389357248942
30
0
11
-98.425104967753114
21
100.25059916178387
31
0
0
LINE
5
546
100
AcDbEntity
8
0
100
AcDbLine
10
-98.425104967753114
20
100.25059916178387
30
0
11
-98.345733197530137
21
100.43581072489422
31
0
0
LINE
5
547
100
AcDbEntity
8
0
100
AcDbLine
10
-98.345733197530137
20
100.43581072489422
30
0
11
-98.239901479085304
21
100.62102228800457
31
0
0
LINE
5
548
100
AcDbEntity
8
0
100
AcDbLine
10
-98.239901479085304
20
100.62102228800457
30
0
11
-98.10760981241863
21
100.80623385111492
31
0
0
LINE
5
549
100
AcDbEntity
8
0
100
AcDbLine
10
-98.10760981241863
20
100.80623385111492
30
0
11
-97.975318145751956
21
100.96498546600343
31
0
0
LINE
5
550
100
AcDbEntity
8
0
100
AcDbLine
10
-97.975318145751956
20
100.96498546600343
30
0
11
-97.684274864196794
21
102.68477713267011
31
0
0
LINE
5
551
100
AcDbEntity
8
0
100
AcDbLine
10
-97.684274864196794
20
102.68477713267011
30
0
11
-98.557396634419774
21
103.50498708089194
31
0
0
LINE
5
552
100
AcDbEntity
8
0
100
AcDbLine
10
-98.557396634419774
20
103.50498708089194
30
0
11
-100.25072835286458
21
103.10811208089194
31
0
0
LINE
5
553
100
AcDbEntity
8
0
100
AcDbLine
10
-100.25072835286458
20
103.10811208089194
30
0
11
-100.4094799677531
21
102.94936046600344
31
0
0
LINE
5
554
100
AcDbEntity
8
0
100
AcDbLine
10
-100.4094799677531
20
102.94936046600344
30
0
11
-100.5682315826416
21
102.81706879933677
31
0
0
LINE
5
555
100
AcDbEntity
8
0
100
AcDbLine
10
-100.5682315826416
20
102.81706879933677
30
0
11
-100.75344314575197
21
102.68477713267009
31
0
0
LINE
5
556
100
AcDbEntity
8
0
100
AcDbLine
10
-100.75344314575197
20
102.68477713267009
30
0
11
-100.93865470886232
21
102.57894541422529
31
0
0
LINE
5
557
100
AcDbEntity
8
0
100
AcDbLine
10
-100.93865470886232
20
102.57894541422529
30
0
11
-101.12386627197267
21
102.4995736440023
31
0
0
LINE
5
558
100
AcDbEntity
8
0
100
AcDbLine
10
-101.12386627197267
20
102.4995736440023
30
0
11
-101.33552970886231
21
102.42020187377932
31
0
0
LINE
5
559
100
AcDbEntity
8
0
100
AcDbLine
10
-101.33552970886231
20
102.42020187377932
30
0
11
-101.54719314575196
21
102.36728197733564
31
0
0
LINE
5
560
100
AcDbEntity
8
0
100
AcDbLine
10
-101.54719314575196
20
102.36728197733564
30
0
11
-101.75885658264161
21
102.36728197733562
31
0
0
LINE
5
561
100
AcDbEntity
8
0
100
AcDbLine
10
-101.75885658264161
20
102.36728197733562
30
0
11
-101.97052001953126
21
102.31436208089194
31
0
0
LINE
5
562
100
AcDbEntity
8
0
100
AcDbLine
10
-101.97052001953126
20
102.31436208089194
30
0
11
-102.39385496775311
21
102.31436208089194
31
0
0
SPLINE
5
563
100
AcDbEntity
8
0
100
AcDbSpline
70
0
71
2
72
6
73
3
74
0
42
0.000000001
43
0.0000000001
44
0.0000000001
40
0
40
0
40
0
40
1
40
1
40
1
10
-102.39385496775311
20
102.31436208089194
30
0
10
-102.39385496775311
20
102.3408220291138
30
0
10
-102.60551840464275
20
102.39373385111492
30
0
0
LINE
5
564
100
AcDbEntity
8
0
100
AcDbLine
10
-102.60551840464275
20
102.3937338511149
30
0
11
-102.8171818415324
21
102.4466537475586
31
0
0
LINE
5
565
100
AcDbEntity
8
0
100
AcDbLine
10
-102.8171818415324
20
102.4466537475586
30
0
11
-103.02884527842204
21
102.52602551778159
31
0
0
LINE
5
566
100
AcDbEntity
8
0
100
AcDbLine
10
-103.02884527842204
20
102.52602551778159
30
0
11
-103.39926840464275
21
102.73768895467123
31
0
0
LINE
5
567
100
AcDbEntity
8
0
100
AcDbLine
10
-103.39926840464275
20
102.73768895467123
30
0
11
-103.55802001953126
21
102.8699806213379
31
0
0
LINE
5
568
100
AcDbEntity
8
0
100
AcDbLine
10
-103.55802001953126
20
102.8699806213379
30
0
11
-103.71677163441976
21
103.0287322362264
31
0
0
LINE
5
569
100
AcDbEntity
8
0
100
AcDbLine
10
-103.71677163441976
20
103.0287322362264
30
0
11
-103.84906330108646
21
103.18748385111492
31
0
0
LINE
5
570
100
AcDbEntity
8
0
100
AcDbLine
10
-103.84906330108646
20
103.18748385111492
30
0
11
-103.98135496775311
21
103.37269541422528
31
0
0
LINE
5
571
100
AcDbEntity
8
0
100
AcDbLine
10
-103.98135496775311
20
103.37269541422528
30
0
11
-104.19301840464274
21
103.74311854044598
31
0
0
LINE
5
572
100
AcDbEntity
8
0
100
AcDbLine
10
-104.19301840464274
20
103.74311854044598
30
0
11
-104.27239017486572
21
103.95478197733561
31
0
0
LINE
5
573
100
AcDbEntity
8
0
100
AcDbLine
10
-104.27239017486572
20
103.95478197733561
30
0
11
-104.32531007130942
21
104.16644541422528
31
0
0
LINE
5
574
100
AcDbEntity
8
0
100
AcDbLine
10
-104.32531007130942
20
104.16644541422528
30
0
11
-104.32531007130942
21
104.37810885111492
31
0
0
LINE
5
575
100
AcDbEntity
8
0
100
AcDbLine
10
-104.32531007130942
20
104.37810885111492
30
0
11
-104.3782299677531
21
104.58977228800457
31
0
0
LINE
5
576
100
AcDbEntity
8
0
100
AcDbLine
10
-104.3782299677531
20
104.58977228800457
30
0
11
-104.3782299677531
21
105.22477067311605
31
0
0
SPLINE
5
577
100
AcDbEntity
8
0
100
AcDbSpline
70
0
71
2
72
6
73
3
74
0
42
0.000000001
43
0.0000000001
44
0.0000000001
40
0
40
0
40
0
40
1
40
1
40
1
10
-104.3782299677531
20
105.22477067311605
30
0
10
-104.35177001953127
20
105.22477067311605
30
0
10
-104.27239824930828
20
105.43643411000572
30
0
0
LINE
5
578
100
AcDbEntity
8
0
100
AcDbLine
10
-104.27239824930828
20
105.43643411000572
30
0
11
-104.1930264790853
21
105.64809754689536
31
0
0
LINE
5
579
100
AcDbEntity
8
0
100
AcDbLine
10
-104.1930264790853
20
105.64809754689536
30
0
11
-104.08719476064049
21
105.83330911000571
31
0
0
LINE
5
580
100
AcDbEntity
8
0
100
AcDbLine
10
-104.08719476064049
20
105.83330911000571
30
0
11
-104.24594637552899
21
107.57956072489422
31
0
0
LINE
5
581
100
AcDbEntity
8
0
100
AcDbLine
10
-104.24594637552899
20
107.57956072489422
30
0
11
-105.30427970886231
21
108.16164728800457
31
0
0
LINE
5
582
100
AcDbEntity
8
0
100
AcDbLine
10
-105.30427970886231
20
108.16164728800457
30
0
11
-106.83885981241863
21
107.34143733978273
31
0
0
LINE
5
583
100
AcDbEntity
8
0
100
AcDbLine
10
-106.83885981241863
20
107.34143733978273
30
0
11
-106.94469153086345
21
107.15622577667239
31
0
0
LINE
5
584
100
AcDbEntity
8
0
100
AcDbLine
10
-106.94469153086345
20
107.15622577667239
30
0
11
-107.07698319753013
21
106.97101421356203
31
0
0
LINE
5
585
100
AcDbEntity
8
0
100
AcDbLine
10
-107.07698319753013
20
106.97101421356203
30
0
11
-107.2092748641968
21
106.81226259867353
31
0
0
LINE
5
586
100
AcDbEntity
8
0
100
AcDbLine
10
-107.2092748641968
20
106.81226259867353
30
0
11
-107.3680264790853
21
106.65351098378501
31
0
0
LINE
5
587
100
AcDbEntity
8
0
100
AcDbLine
10
-107.3680264790853
20
106.65351098378501
30
0
11
-107.5267780939738
21
106.52121931711834
31
0
0
LINE
5
588
100
AcDbEntity
8
0
100
AcDbLine
10
-107.5267780939738
20
106.52121931711834
30
0
11
-107.71198965708416
21
106.38892765045168
31
0
0
LINE
5
589
100
AcDbEntity
8
0
100
AcDbLine
10
-107.71198965708416
20
106.38892765045168
30
0
11
-107.89720122019452
21
106.28309593200684
31
0
0
LINE
5
590
100
AcDbEntity
8
0
100
AcDbLine
10
-107.89720122019452
20
106.28309593200684
30
0
11
-108.32052809397381
21
106.1243523915609
31
0
0
LINE
5
591
100
AcDbEntity
8
0
100
AcDbLine
10
-108.32052809397381
20
106.1243523915609
30
0
11
-108.53219153086344
21
106.07143249511721
31
0
0
LINE
5
592
100
AcDbEntity
8
0
100
AcDbLine
10
-108.53219153086344
20
106.07143249511721
30
0
11
-109.16718991597494
21
106.07143249511721
31
0
0
LINE
5
593
100
AcDbEntity
8
0
100
AcDbLine
10
-109.16718991597494
20
106.07143249511721
30
0
11
-109.59051678975425
21
106.17727228800456
31
0
0
LINE
5
594
100
AcDbEntity
8
0
100
AcDbLine
10
-109.59051678975425
20
106.17727228800456
30
0
11
-110.01384366353355
21
106.33601582845053
31
0
0
LINE
5
595
100
AcDbEntity
8
0
100
AcDbLine
10
-110.01384366353355
20
106.33601582845053
30
0
11
-110.19905522664389
21
106.44184754689535
31
0
0
LINE
5
596
100
AcDbEntity
8
0
100
AcDbLine
10
-110.19905522664389
20
106.44184754689535
30
0
11
-110.38426678975425
21
106.57413921356203
31
0
0
LINE
5
597
100
AcDbEntity
8
0
100
AcDbLine
10
-110.38426678975425
20
106.57413921356203
30
0
11
-110.54301840464275
21
106.70643088022869
31
0
0
LINE
5
598
100
AcDbEntity
8
0
100
AcDbLine
10
-110.54301840464275
20
106.70643088022869
30
0
11
-110.70177001953127
21
106.8651824951172
31
0
0
LINE
5
599
100
AcDbEntity
8
0
100
AcDbLine
10
-110.70177001953127
20
106.8651824951172
30
0
11
-110.83406168619794
21
107.02393411000571
31
0
0
LINE
5
600
100
AcDbEntity
8
0
100
AcDbLine
10
-110.83406168619794
20
107.02393411000571
30
0
11
-110.96635335286462
21
107.20914567311607
31
0
0
LINE
5
601
100
AcDbEntity
8
0
100
AcDbLine
10
-110.96635335286462
20
107.20914567311607
30
0
11
-111.17801678975425
21
107.57956879933676
31
0
0
LINE
5
602
100
AcDbEntity
8
0
100
AcDbLine
10
-111.17801678975425
20
107.57956879933676
30
0
11
-111.25738855997723
21
107.79123223622641
31
0
0
LINE
5
603
100
AcDbEntity
8
0
100
AcDbLine
10
-111.25738855997723
20
107.79123223622641
30
0
11
-111.3103084564209
21
108.00289567311607
31
0
0
LINE
5
604
100
AcDbEntity
8
0
100
AcDbLine
10
-111.3103084564209
20
108.00289567311607
30
0
11
-111.31030845642093
21
108.21455911000571
31
0
0
LINE
5
605
100
AcDbEntity
8
0
100
AcDbLine
10
-111.31030845642093
20
108.21455911000571
30
0
11
-111.36322835286461
21
108.42622254689536
31
0
0
LINE
5
606
100
AcDbEntity
8
0
100
AcDbLine
10
-111.36322835286461
20
108.42622254689536
30
0
11
-111.36322835286461
21
108.8495574951172
31
0
0
LINE
5
607
100
AcDbEntity
8
0
100
AcDbLine
10
-111.36322835286461
20
108.8495574951172
30
0
11
-111.31030845642093
21
109.06122093200685
31
0
0
LINE
5
608
100
AcDbEntity
8
0
100
AcDbLine
10
-111.31030845642093
20
109.06122093200685
30
0
11
-111.91884689331059
21
110.70164082845054
31
0
0
LINE
5
609
100
AcDbEntity
8
0
100
AcDbLine
10
-111.91884689331059
20
110.70164082845054
30
0
11
-113.08301194508871
21
110.96622416178388
31
0
0
LINE
5
610
100
AcDbEntity
8
0
100
AcDbLine
10
-113.08301194508871
20
110.96622416178388
30
0
11
-114.35300871531169
21
109.77559916178387
31
0
0
LINE
5
611
100
AcDbEntity
8
0
100
AcDbLine
10
-114.35300871531169
20
109.77559916178387
30
0
11
-114.40592861175539
21
109.56393572489424
31
0
0
LINE
5
612
100
AcDbEntity
8
0
100
AcDbLine
10
-114.40592861175539
20
109.56393572489424
30
0
11
-114.48530038197836
21
109.35227228800457
31
0
0
LINE
5
613
100
AcDbEntity
8
0
100
AcDbLine
10
-114.48530038197836
20
109.35227228800457
30
0
11
-114.69696381886803
21
108.98184916178387
31
0
0
LINE
5
614
100
AcDbEntity
8
0
100
AcDbLine
10
-114.69696381886803
20
108.98184916178387
30
0
11
-114.82925548553469
21
108.79663759867353
31
0
0
LINE
5
615
100
AcDbEntity
8
0
100
AcDbLine
10
-114.82925548553469
20
108.79663759867353
30
0
11
-114.96154715220136
21
108.63788598378503
31
0
0
LINE
5
616
100
AcDbEntity
8
0
100
AcDbLine
10
-114.96154715220136
20
108.63788598378503
30
0
11
-115.12029876708985
21
108.4791343688965
31
0
0
LINE
5
617
100
AcDbEntity
8
0
100
AcDbLine
10
-115.12029876708985
20
108.4791343688965
30
0
11
-115.27905038197837
21
108.34684270222982
31
0
0
LINE
5
618
100
AcDbEntity
8
0
100
AcDbLine
10
-115.27905038197837
20
108.34684270222982
30
0
11
-115.64947350819907
21
108.13517926534018
31
0
0
LINE
5
619
100
AcDbEntity
8
0
100
AcDbLine
10
-115.64947350819907
20
108.13517926534018
30
0
11
-115.8611369450887
21
108.05580749511721
31
0
0
LINE
5
620
100
AcDbEntity
8
0
100
AcDbLine
10
-115.8611369450887
20
108.05580749511721
30
0
11
-116.28446381886802
21
107.94996770222983
31
0
0
LINE
5
621
100
AcDbEntity
8
0
100
AcDbLine
10
-116.28446381886802
20
107.94996770222983
30
0
11
-116.49612725575766
21
107.94996770222983
31
0
0
SPLINE
5
622
100
AcDbEntity
8
0
100
AcDbSpline
70
0
71
2
72
6
73
3
74
0
42
0.000000001
43
0.0000000001
44
0.0000000001
40
0
40
0
40
0
40
1
40
1
40
1
10
-116.49612725575766
20
107.94996770222983
30
0
10
-116.49612725575766
20
107.92350775400799
30
0
10
-116.70779069264732
20
107.92350775400799
30
0
0
LINE
5
623
100
AcDbEntity
8
0
100
AcDbLine
10
-116.70779069264732
20
107.92350775400799
30
0
11
-116.91945412953697
21
107.92350775400799
31
0
0
LINE
5
624
100
AcDbEntity
8
0
100
AcDbLine
10
-116.91945412953697
20
107.92350775400799
30
0
11
-117.34278100331625
21
108.02934754689537
31
0
0
LINE
5
625
100
AcDbEntity
8
0
100
AcDbLine
10
-117.34278100331625
20
108.02934754689537
30
0
11
-117.5544444402059
21
108.10871931711833
31
0
0
LINE
5
626
100
AcDbEntity
8
0
100
AcDbLine
10
-117.5544444402059
20
108.10871931711833
30
0
11
-117.73965600331627
21
108.18809108734131
31
0
0
LINE
5
627
100
AcDbEntity
8
0
100
AcDbLine
10
-117.73965600331627
20
108.18809108734131
30
0
11
-117.92486756642661
21
108.29392280578615
31
0
0
LINE
5
628
100
AcDbEntity
8
0
100
AcDbLine
10
-117.92486756642661
20
108.29392280578615
30
0
11
-118.11007912953697
21
108.42621447245281
31
0
0
LINE
5
629
100
AcDbEntity
8
0
100
AcDbLine
10
-118.11007912953697
20
108.42621447245281
30
0
11
-118.26883074442547
21
108.55850613911949
31
0
0
LINE
5
630
100
AcDbEntity
8
0
100
AcDbLine
10
-118.26883074442547
20
108.55850613911949
30
0
11
-118.42758235931397
21
108.71725775400799
31
0
0
LINE
5
631
100
AcDbEntity
8
0
100
AcDbLine
10
-118.42758235931397
20
108.71725775400799
30
0
11
-118.55987402598066
21
108.87600936889649
31
0
0
LINE
5
632
100
AcDbEntity
8
0
100
AcDbLine
10
-118.55987402598066
20
108.87600936889649
30
0
11
-118.69216569264731
21
109.06122093200685
31
0
0
LINE
5
633
100
AcDbEntity
8
0
100
AcDbLine
10
-118.69216569264731
20
109.06122093200685
30
0
11
-118.79799741109213
21
109.24643249511719
31
0
0
LINE
5
634
100
AcDbEntity
8
0
100
AcDbLine
10
-118.79799741109213
20
109.24643249511719
30
0
11
-118.8773691813151
21
109.43164405822756
31
0
0
LINE
5
635
100
AcDbEntity
8
0
100
AcDbLine
10
-118.8773691813151
20
109.43164405822756
30
0
11
-118.95674095153809
21
109.6433074951172
31
0
0
LINE
5
636
100
AcDbEntity
8
0
100
AcDbLine
10
-118.95674095153809
20
109.6433074951172
30
0
11
-119.00966084798178
21
109.85497093200685
31
0
0
LINE
5
637
100
AcDbEntity
8
0
100
AcDbLine
10
-119.00966084798178
20
109.85497093200685
30
0
11
-119.00966084798179
21
110.0666343688965
31
0
0
LINE
5
638
100
AcDbEntity
8
0
100
AcDbLine
10
-119.00966084798179
20
110.0666343688965
30
0
11
-119.06258074442547
21
110.27829780578614
31
0
0
LINE
5
639
100
AcDbEntity
8
0
100
AcDbLine
10
-119.06258074442547
20
110.27829780578614
30
0
11
-120.06799418131513
21
111.70704619089764
31
0
0
LINE
5
640
100
AcDbEntity
8
0
100
AcDbLine
10
-120.06799418131513
20
111.70704619089764
30
0
11
-121.28507912953697
21
111.70704619089763
31
0
0
LINE
5
641
100
AcDbEntity
8
0
100
AcDbLine
10
-121.28507912953697
20
111.70704619089763
30
0
11
-122.21112079620362
21
110.17246608734132
31
0
0
LINE
5
642
100
AcDbEntity
8
0
100
AcDbLine
10
-122.21112079620362
20
110.17246608734132
30
0
11
-122.21112079620363
21
109.74913113911947
31
0
0
LINE
5
643
100
AcDbEntity
8
0
100
AcDbLine
10
-122.21112079620363
20
109.74913113911947
30
0
11
-122.316960589091
21
109.32580426534018
31
0
0
LINE
5
644
100
AcDbEntity
8
0
100
AcDbLine
10
-122.316960589091
20
109.32580426534018
30
0
11
-122.39633235931396
21
109.11414082845054
31
0
0
LINE
5
645
100
AcDbEntity
8
0
100
AcDbLine
10
-122.39633235931396
20
109.11414082845054
30
0
11
-122.60799579620362
21
108.74371770222984
31
0
0
LINE
5
646
100
AcDbEntity
8
0
100
AcDbLine
10
-122.60799579620362
20
108.74371770222984
30
0
11
-122.7402874628703
21
108.55850613911949
31
0
0
LINE
5
647
100
AcDbEntity
8
0
100
AcDbLine
10
-122.7402874628703
20
108.55850613911949
30
0
11
-122.87257912953697
21
108.39975452423099
31
0
0
LINE
5
648
100
AcDbEntity
8
0
100
AcDbLine
10
-122.87257912953697
20
108.39975452423099
30
0
11
-123.03133074442547
21
108.24100290934247
31
0
0
LINE
5
649
100
AcDbEntity
8
0
100
AcDbLine
10
-123.03133074442547
20
108.24100290934247
30
0
11
-123.19008235931398
21
108.1087112426758
31
0
0
LINE
5
650
100
AcDbEntity
8
0
100
AcDbLine
10
-123.19008235931398
20
108.1087112426758
30
0
11
-123.56050548553469
21
107.89704780578616
31
0
0
LINE
5
651
100
AcDbEntity
8
0
100
AcDbLine
10
-123.56050548553469
20
107.89704780578616
30
0
11
-123.77216892242433
21
107.81767603556318
31
0
0
LINE
5
652
100
AcDbEntity
8
0
100
AcDbLine
10
-123.77216892242433
20
107.81767603556318
30
0
11
-124.19549579620363
21
107.7118362426758
31
0
0
LINE
5
653
100
AcDbEntity
8
0
100
AcDbLine
10
-124.19549579620363
20
107.7118362426758
30
0
11
-124.61883074442547
21
107.7118362426758
31
0
0
SPLINE
5
654
100
AcDbEntity
8
0
100
AcDbSpline
70
0
71
2
72
6
73
3
74
0
42
0.000000001
43
0.0000000001
44
0.0000000001
40
0
40
0
40
0
40
1
40
1
40
1
10
-124.61883074442547
20
107.7118362426758
30
0
10
-124.61883074442547
20
107.68537629445396
30
0
10
-124.83049418131513
20
107.68537629445396
30
0
0
LINE
5
655
100
AcDbEntity
8
0
100
AcDbLine
10
-124.83049418131513
20
107.68537629445396
30
0
11
-125.25382105509442
21
107.79121608734131
31
0
0
LINE
5
656
100
AcDbEntity
8
0
100
AcDbLine
10
-125.25382105509442
20
107.79121608734131
30
0
11
-125.46548449198406
21
107.8705878575643
31
0
0
LINE
5
657
100
AcDbEntity
8
0
100
AcDbLine
10
-125.46548449198406
20
107.8705878575643
30
0
11
-125.65069605509441
21
107.94995962778728
31
0
0
LINE
5
658
100
AcDbEntity
8
0
100
AcDbLine
10
-125.65069605509441
20
107.94995962778728
30
0
11
-125.83590761820476
21
108.0557913462321
31
0
0
LINE
5
659
100
AcDbEntity
8
0
100
AcDbLine
10
-125.83590761820476
20
108.0557913462321
30
0
11
-126.02111918131513
21
108.18808301289879
31
0
0
LINE
5
660
100
AcDbEntity
8
0
100
AcDbLine
10
-126.02111918131513
20
108.18808301289879
30
0
11
-126.17987079620363
21
108.32037467956545
31
0
0
LINE
5
661
100
AcDbEntity
8
0
100
AcDbLine
10
-126.17987079620363
20
108.32037467956545
30
0
11
-126.33862241109213
21
108.47912629445395
31
0
0
LINE
5
662
100
AcDbEntity
8
0
100
AcDbLine
10
-126.33862241109213
20
108.47912629445395
30
0
11
-126.47091407775881
21
108.63787790934246
31
0
0
LINE
5
663
100
AcDbEntity
8
0
100
AcDbLine
10
-126.47091407775881
20
108.63787790934246
30
0
11
-126.60320574442548
21
108.82308947245281
31
0
0
LINE
5
664
100
AcDbEntity
8
0
100
AcDbLine
10
-126.60320574442548
20
108.82308947245281
30
0
11
-126.7090374628703
21
109.00830103556316
31
0
0
LINE
5
665
100
AcDbEntity
8
0
100
AcDbLine
10
-126.7090374628703
20
109.00830103556316
30
0
11
-126.78840923309326
21
109.19351259867352
31
0
0
LINE
5
666
100
AcDbEntity
8
0
100
AcDbLine
10
-126.78840923309326
20
109.19351259867352
30
0
11
-126.86778100331625
21
109.40517603556316
31
0
0
LINE
5
667
100
AcDbEntity
8
0
100
AcDbLine
10
-126.86778100331625
20
109.40517603556316
30
0
11
-128.21715761820477
21
110.51642926534018
31
0
0
LINE
5
668
100
AcDbEntity
8
0
100
AcDbLine
10
-128.21715761820477
20
110.51642926534018
30
0
11
-129.38132266998292
21
110.17247416178387
31
0
0
LINE
5
669
100
AcDbEntity
8
0
100
AcDbLine
10
-129.38132266998292
20
110.17247416178387
30
0
11
-129.88402938842773
21
108.50560239156088
31
0
0
LINE
5
670
100
AcDbEntity
8
0
100
AcDbLine
10
-129.88402938842773
20
108.50560239156088
30
0
11
-129.83110949198408
21
108.29393895467123
31
0
0
LINE
5
671
100
AcDbEntity
8
0
100
AcDbLine
10
-129.83110949198408
20
108.29393895467123
30
0
11
-129.83110949198408
21
108.0822755177816
31
0
0
SPLINE
5
672
100
AcDbEntity
8
0
100
AcDbSpline
70
0
71
2
72
6
73
3
74
0
42
0.000000001
43
0.0000000001
44
0.0000000001
40
0
40
0
40
0
40
1
40
1
40
1
10
-129.83110949198408
20
108.0822755177816
30
0
10
-129.80464954376222
20
108.0822755177816
30
0
10
-129.7781895955404
20
107.87061208089193
30
0
0
LINE
5
673
100
AcDbEntity
8
0
100
AcDbLine
10
-129.7781895955404
20
107.87061208089193
30
0
11
-129.7781895955404
21
107.4472771326701
31
0
0
LINE
5
674
100
AcDbEntity
8
0
100
AcDbLine
10
-129.7781895955404
20
107.4472771326701
30
0
11
-129.85756136576336
21
107.23561369578044
31
0
0
LINE
5
675
100
AcDbEntity
8
0
100
AcDbLine
10
-129.85756136576336
20
107.23561369578044
30
0
11
-129.91048126220704
21
107.02395025889081
31
0
0
LINE
5
676
100
AcDbEntity
8
0
100
AcDbLine
10
-129.91048126220704
20
107.02395025889081
30
0
11
-129.98985303243001
21
106.81228682200116
31
0
0
LINE
5
677
100
AcDbEntity
8
0
100
AcDbLine
10
-129.98985303243001
20
106.81228682200116
30
0
11
-130.20151646931967
21
106.44186369578046
31
0
0
LINE
5
678
100
AcDbEntity
8
0
100
AcDbLine
10
-130.20151646931967
20
106.44186369578046
30
0
11
-130.33380813598635
21
106.25665213267011
31
0
0
LINE
5
679
100
AcDbEntity
8
0
100
AcDbLine
10
-130.33380813598635
20
106.25665213267011
30
0
11
-130.65131136576335
21
105.93914890289309
31
0
0
LINE
5
680
100
AcDbEntity
8
0
100
AcDbLine
10
-130.65131136576335
20
105.93914890289309
30
0
11
-130.83652292887371
21
105.80685723622642
31
0
0
LINE
5
681
100
AcDbEntity
8
0
100
AcDbLine
10
-130.83652292887371
20
105.80685723622642
30
0
11
-131.20694605509442
21
105.59519379933677
31
0
0
LINE
5
682
100
AcDbEntity
8
0
100
AcDbLine
10
-131.20694605509442
20
105.59519379933677
30
0
11
-131.41860949198406
21
105.51582202911379
31
0
0
LINE
5
683
100
AcDbEntity
8
0
100
AcDbLine
10
-131.41860949198406
20
105.51582202911379
30
0
11
-131.84193636576336
21
105.40998223622643
31
0
0
LINE
5
684
100
AcDbEntity
8
0
100
AcDbLine
10
-131.84193636576336
20
105.40998223622643
30
0
11
-132.47693475087485
21
105.40998223622643
31
0
0
LINE
5
685
100
AcDbEntity
8
0
100
AcDbLine
10
-132.47693475087485
20
105.40998223622643
30
0
11
-132.90026162465415
21
105.51582202911378
31
0
0
LINE
5
686
100
AcDbEntity
8
0
100
AcDbLine
10
-132.90026162465415
20
105.51582202911378
30
0
11
-133.11192506154379
21
105.59519379933676
31
0
0
LINE
5
687
100
AcDbEntity
8
0
100
AcDbLine
10
-133.11192506154379
20
105.59519379933676
30
0
11
-133.29713662465417
21
105.67456556955975
31
0
0
LINE
5
688
100
AcDbEntity
8
0
100
AcDbLine
10
-133.29713662465417
20
105.67456556955975
30
0
11
-133.4823481877645
21
105.78039728800456
31
0
0
LINE
5
689
100
AcDbEntity
8
0
100
AcDbLine
10
-133.4823481877645
20
105.78039728800456
30
0
11
-133.66755975087486
21
105.91268895467124
31
0
0
LINE
5
690
100
AcDbEntity
8
0
100
AcDbLine
10
-133.66755975087486
20
105.91268895467124
30
0
11
-133.82631136576336
21
106.04498062133791
31
0
0
LINE
5
691
100
AcDbEntity
8
0
100
AcDbLine
10
-133.82631136576336
20
106.04498062133791
30
0
11
-133.98506298065186
21
106.20373223622641
31
0
0
LINE
5
692
100
AcDbEntity
8
0
100
AcDbLine
10
-133.98506298065186
20
106.20373223622641
30
0
11
-134.11735464731856
21
106.36248385111492
31
0
0
LINE
5
693
100
AcDbEntity
8
0
100
AcDbLine
10
-134.11735464731856
20
106.36248385111492
30
0
11
-134.24964631398521
21
106.54769541422527
31
0
0
LINE
5
694
100
AcDbEntity
8
0
100
AcDbLine
10
-134.24964631398521
20
106.54769541422527
30
0
11
-135.83715438842776
21
107.28852551778159
31
0
0
LINE
5
695
100
AcDbEntity
8
0
100
AcDbLine
10
-135.83715438842776
20
107.28852551778159
30
0
11
-136.86903584798179
21
106.65352713267011
31
0
0
LINE
5
696
100
AcDbEntity
8
0
100
AcDbLine
10
-136.86903584798179
20
106.65352713267011
30
0
11
-136.92195574442547
21
104.90727551778158
31
0
0
LINE
5
697
100
AcDbEntity
8
0
100
AcDbLine
10
-136.92195574442547
20
104.90727551778158
30
0
11
-136.81611595153808
21
104.72206395467124
31
0
0
LINE
5
698
100
AcDbEntity
8
0
100
AcDbLine
10
-136.81611595153808
20
104.72206395467124
30
0
11
-136.73674418131515
21
104.53685239156088
31
0
0
LINE
5
699
100
AcDbEntity
8
0
100
AcDbLine
10
-136.73674418131515
20
104.53685239156088
30
0
11
-136.65737241109215
21
104.32518895467125
31
0
0
LINE
5
700
100
AcDbEntity
8
0
100
AcDbLine
10
-136.65737241109215
20
104.32518895467125
30
0
11
-136.60445251464847
21
104.1135255177816
31
0
0
LINE
5
701
100
AcDbEntity
8
0
100
AcDbLine
10
-136.60445251464847
20
104.1135255177816
30
0
11
-136.60445251464847
21
103.90186208089193
31
0
0
LINE
5
702
100
AcDbEntity
8
0
100
AcDbLine
10
-136.60445251464847
20
103.90186208089193
30
0
11
-136.55153261820479
21
103.69019864400229
31
0
0
LINE
5
703
100
AcDbEntity
8
0
100
AcDbLine
10
-136.55153261820479
20
103.69019864400229
30
0
11
-136.55153261820476
21
103.26686369578044
31
0
0
LINE
5
704
100
AcDbEntity
8
0
100
AcDbLine
10
-136.55153261820476
20
103.26686369578044
30
0
11
-136.63090438842775
21
103.05520025889081
31
0
0
LINE
5
705
100
AcDbEntity
8
0
100
AcDbLine
10
-136.63090438842775
20
103.05520025889081
30
0
11
-136.68382428487143
21
102.84353682200117
31
0
0
LINE
5
706
100
AcDbEntity
8
0
100
AcDbLine
10
-136.68382428487143
20
102.84353682200117
30
0
11
-136.7631960550944
21
102.63187338511152
31
0
0
LINE
5
707
100
AcDbEntity
8
0
100
AcDbLine
10
-136.7631960550944
20
102.63187338511152
30
0
11
-136.97487564086916
21
102.2614502588908
31
0
0
LINE
5
708
100
AcDbEntity
8
0
100
AcDbLine
10
-136.97487564086916
20
102.2614502588908
30
0
11
-137.10716730753583
21
102.1026986440023
31
0
0
LINE
5
709
100
AcDbEntity
8
0
100
AcDbLine
10
-137.10716730753583
20
102.1026986440023
30
0
11
-137.26591084798179
21
101.9439470291138
31
0
0
LINE
5
710
100
AcDbEntity
8
0
100
AcDbLine
10
-137.26591084798179
20
101.9439470291138
30
0
11
-137.42465438842774
21
101.81165536244711
31
0
0
LINE
5
711
100
AcDbEntity
8
0
100
AcDbLine
10
-137.42465438842774
20
101.81165536244711
30
0
11
-137.6098659515381
21
101.67936369578044
31
0
0
LINE
5
712
100
AcDbEntity
8
0
100
AcDbLine
10
-137.6098659515381
20
101.67936369578044
30
0
11
-137.98028907775881
21
101.46770025889082
31
0
0
LINE
5
713
100
AcDbEntity
8
0
100
AcDbLine
10
-137.98028907775881
20
101.46770025889082
30
0
11
-138.19195251464845
21
101.38832848866782
31
0
0
LINE
5
714
100
AcDbEntity
8
0
100
AcDbLine
10
-138.19195251464845
20
101.38832848866782
30
0
11
-138.61527938842775
21
101.28248869578046
31
0
0
LINE
5
715
100
AcDbEntity
8
0
100
AcDbLine
10
-138.61527938842775
20
101.28248869578046
30
0
11
-139.25028584798179
21
101.28248869578044
31
0
0
LINE
5
716
100
AcDbEntity
8
0
100
AcDbLine
10
-139.25028584798179
20
101.28248869578044
30
0
11
-139.67361272176109
21
101.38832848866782
31
0
0
LINE
5
717
100
AcDbEntity
8
0
100
AcDbLine
10
-139.67361272176109
20
101.38832848866782
30
0
11
-139.88527615865075
21
101.4677002588908
31
0
0
LINE
5
718
100
AcDbEntity
8
0
100
AcDbLine
10
-139.88527615865075
20
101.4677002588908
30
0
11
-140.07048772176108
21
101.54707202911376
31
0
0
LINE
5
719
100
AcDbEntity
8
0
100
AcDbLine
10
-140.07048772176108
20
101.54707202911376
30
0
11
-140.25569928487144
21
101.65290374755861
31
0
0
LINE
5
720
100
AcDbEntity
8
0
100
AcDbLine
10
-140.25569928487144
20
101.65290374755861
30
0
11
-140.4409108479818
21
101.78519541422529
31
0
0
LINE
5
721
100
AcDbEntity
8
0
100
AcDbLine
10
-140.4409108479818
20
101.78519541422529
30
0
11
-140.59965438842775
21
101.91748708089195
31
0
0
LINE
5
722
100
AcDbEntity
8
0
100
AcDbLine
10
-140.59965438842775
20
101.91748708089195
30
0
11
-142.31944605509443
21
102.20853036244712
31
0
0
LINE
5
723
100
AcDbEntity
8
0
100
AcDbLine
10
-142.31944605509443
20
102.20853036244712
30
0
11
-143.13964792887373
21
101.33540859222414
31
0
0
LINE
5
724
100
AcDbEntity
8
0
100
AcDbLine
10
-143.13964792887373
20
101.33540859222414
30
0
11
-142.74277292887373
21
99.642076873779331
31
0
0
LINE
5
725
100
AcDbEntity
8
0
100
AcDbLine
10
-142.74277292887373
20
99.642076873779331
30
0
11
-142.58402938842775
21
99.483325258890801
31
0
0
LINE
5
726
100
AcDbEntity
8
0
100
AcDbLine
10
-142.58402938842775
20
99.483325258890801
30
0
11
-142.45173772176111
21
99.324573644002299
31
0
0
LINE
5
727
100
AcDbEntity
8
0
100
AcDbLine
10
-142.45173772176111
20
99.324573644002299
30
0
11
-142.31944605509443
21
99.139362080891942
31
0
0
LINE
5
728
100
AcDbEntity
8
0
100
AcDbLine
10
-142.31944605509443
20
99.139362080891942
30
0
11
-142.21360626220704
21
98.954150517781585
31
0
0
LINE
5
729
100
AcDbEntity
8
0
100
AcDbLine
10
-142.21360626220704
20
98.954150517781585
30
0
11
-142.13423449198407
21
98.768938954671228
31
0
0
LINE
5
730
100
AcDbEntity
8
0
100
AcDbLine
10
-142.13423449198407
20
98.768938954671228
30
0
11
-142.05486272176108
21
98.557275517781591
31
0
0
LINE
5
731
100
AcDbEntity
8
0
100
AcDbLine
10
-142.05486272176108
20
98.557275517781591
30
0
11
-142.00194282531743
21
98.345612080891954
31
0
0
LINE
5
732
100
AcDbEntity
8
0
100
AcDbLine
10
-142.00194282531743
20
98.345612080891954
30
0
11
-142.0019428253174
21
98.133948644002302
31
0
0
LINE
5
733
100
AcDbEntity
8
0
100
AcDbLine
10
-142.0019428253174
20
98.133948644002302
30
0
11
-141.94902292887372
21
97.922285207112637
31
0
0
LINE
5
734
100
AcDbEntity
8
0
100
AcDbLine
10
-141.94902292887372
20
97.922285207112637
30
0
11
-141.94902292887372
21
97.498950258890801
31
0
0
LINE
5
735
100
AcDbEntity
8
0
100
AcDbLine
10
-141.94902292887372
20
97.498950258890801
30
0
11
-142.02839469909668
21
97.28728682200115
31
0
0
LINE
5
736
100
AcDbEntity
8
0
100
AcDbLine
10
-142.02839469909668
20
97.28728682200115
30
0
11
-142.08131459554036
21
97.075623385111513
31
0
0
LINE
5
737
100
AcDbEntity
8
0
100
AcDbLine
10
-142.08131459554036
20
97.075623385111513
30
0
11
-142.16068636576335
21
96.863959948221861
31
0
0
LINE
5
738
100
AcDbEntity
8
0
100
AcDbLine
10
-142.16068636576335
20
96.863959948221861
30
0
11
-142.37236595153811
21
96.493536822001147
31
0
0
LINE
5
739
100
AcDbEntity
8
0
100
AcDbLine
10
-142.37236595153811
20
96.493536822001147
30
0
11
-142.50465761820476
21
96.334785207112645
31
0
0
LINE
5
740
100
AcDbEntity
8
0
100
AcDbLine
10
-142.50465761820476
20
96.334785207112645
30
0
11
-142.66340115865074
21
96.176033592224144
31
0
0
LINE
5
741
100
AcDbEntity
8
0
100
AcDbLine
10
-142.66340115865074
20
96.176033592224144
30
0
11
-142.8221446990967
21
96.04374192555747
31
0
0
LINE
5
742
100
AcDbEntity
8
0
100
AcDbLine
10
-142.8221446990967
20
96.04374192555747
30
0
11
-143.00735626220705
21
95.911450258890795
31
0
0
LINE
5
743
100
AcDbEntity
8
0
100
AcDbLine
10
-143.00735626220705
20
95.911450258890795
30
0
11
-143.37777938842774
21
95.699786822001158
31
0
0
LINE
5
744
100
AcDbEntity
8
0
100
AcDbLine
10
-143.37777938842774
20
95.699786822001158
30
0
11
-143.58944282531741
21
95.620415051778181
31
0
0
LINE
5
745
100
AcDbEntity
8
0
100
AcDbLine
10
-143.58944282531741
20
95.620415051778181
30
0
11
-143.80110626220704
21
95.567495155334484
31
0
0
LINE
5
746
100
AcDbEntity
8
0
100
AcDbLine
10
-143.80110626220704
20
95.567495155334484
30
0
11
-144.01276969909671
21
95.567495155334484
31
0
0
SPLINE
5
747
100
AcDbEntity
8
0
100
AcDbSpline
70
0
71
2
72
6
73
3
74
0
42
0.000000001
43
0.0000000001
44
0.0000000001
40
0
40
0
40
0
40
1
40
1
40
1
10
-144.01276969909671
20
95.567495155334484
30
0
10
-144.01276969909671
20
95.541035207112643
30
0
10
-144.22443313598635
20
95.514575258890801
30
0
0
LINE
5
748
100
AcDbEntity
8
0
100
AcDbLine
10
-144.22443313598635
20
95.514575258890829
30
0
11
-144.85943959554038
21
95.514575258890801
31
0
0
LINE
5
749
100
AcDbEntity
8
0
100
AcDbLine
10
-144.85943959554038
20
95.514575258890801
30
0
11
-145.07110303243002
21
95.620406977335634
31
0
0
LINE
5
750
100
AcDbEntity
8
0
100
AcDbLine
10
-145.07110303243002
20
95.620406977335634
30
0
11
-145.28276646931968
21
95.699778747558611
31
0
0
LINE
5
751
100
AcDbEntity
8
0
100
AcDbLine
10
-145.28276646931968
20
95.699778747558611
30
0
11
-145.46797803243004
21
95.805610466003429
31
0
0
LINE
5
752
100
AcDbEntity
8
0
100
AcDbLine
10
-145.46797803243004
20
95.805610466003429
30
0
11
-147.214221572876
21
95.646858851114928
31
0
0
LINE
5
753
100
AcDbEntity
8
0
100
AcDbLine
10
-147.214221572876
20
95.646858851114928
30
0
11
-147.79630813598635
21
94.588525517781591
31
0
0
LINE
5
754
100
AcDbEntity
8
0
100
AcDbLine
10
-147.79630813598635
20
94.588525517781591
30
0
11
-146.97610626220705
21
93.053945414225282
31
0
0
LINE
5
755
100
AcDbEntity
8
0
100
AcDbLine
10
-146.97610626220705
20
93.053945414225282
30
0
11
-146.7908946990967
21
92.948113695780449
31
0
0
LINE
5
756
100
AcDbEntity
8
0
100
AcDbLine
10
-146.7908946990967
20
92.948113695780449
30
0
11
-146.60568313598634
21
92.815822029113789
31
0
0
LINE
5
757
100
AcDbEntity
8
0
100
AcDbLine
10
-146.60568313598634
20
92.815822029113789
30
0
11
-146.44693959554039
21
92.683530362447115
31
0
0
LINE
5
758
100
AcDbEntity
8
0
100
AcDbLine
10
-146.44693959554039
20
92.683530362447115
30
0
11
-146.28819605509443
21
92.524778747558614
31
0
0
LINE
5
759
100
AcDbEntity
8
0
100
AcDbLine
10
-146.28819605509443
20
92.524778747558614
30
0
11
-146.15590438842776
21
92.366027132670112
31
0
0
LINE
5
760
100
AcDbEntity
8
0
100
AcDbLine
10
-146.15590438842776
20
92.366027132670112
30
0
11
-146.02361272176108
21
92.180815569559741
31
0
0
LINE
5
761
100
AcDbEntity
8
0
100
AcDbLine
10
-146.02361272176108
20
92.180815569559741
30
0
11
-145.91777292887372
21
91.995604006449398
31
0
0
LINE
5
762
100
AcDbEntity
8
0
100
AcDbLine
10
-145.91777292887372
20
91.995604006449398
30
0
11
-145.75902938842776
21
91.572277132670109
31
0
0
LINE
5
763
100
AcDbEntity
8
0
100
AcDbLine
10
-145.75902938842776
20
91.572277132670109
30
0
11
-145.70610949198408
21
91.360613695780458
31
0
0
LINE
5
764
100
AcDbEntity
8
0
100
AcDbLine
10
-145.70610949198408
20
91.360613695780458
30
0
11
-145.70610949198408
21
90.725615310668957
31
0
0
LINE
5
765
100
AcDbEntity
8
0
100
AcDbLine
10
-145.70610949198408
20
90.725615310668957
30
0
11
-145.81194928487145
21
90.302288436889668
31
0
0
LINE
5
766
100
AcDbEntity
8
0
100
AcDbLine
10
-145.81194928487145
20
90.302288436889668
30
0
11
-145.9706928253174
21
89.878961563110366
31
0
0
LINE
5
767
100
AcDbEntity
8
0
100
AcDbLine
10
-145.9706928253174
20
89.878961563110366
30
0
11
-146.07653261820477
21
89.693750000000009
31
0
0
LINE
5
768
100
AcDbEntity
8
0
100
AcDbLine
10
-146.07653261820477
20
89.693750000000009
30
0
11
-146.20882428487144
21
89.508538436889665
31
0
0
LINE
5
769
100
AcDbEntity
8
0
100
AcDbLine
10
-146.20882428487144
20
89.508538436889665
30
0
11
-146.34111595153811
21
89.349786822001164
31
0
0
LINE
5
770
100
AcDbEntity
8
0
100
AcDbLine
10
-146.34111595153811
20
89.349786822001164
30
0
11
-146.49985949198407
21
89.191035207112662
31
0
0
LINE
5
771
100
AcDbEntity
8
0
100
AcDbLine
10
-146.49985949198407
20
89.191035207112662
30
0
11
-146.65860303243005
21
89.058743540445974
31
0
0
LINE
5
772
100
AcDbEntity
8
0
100
AcDbLine
10
-146.65860303243005
20
89.058743540445974
30
0
11
-146.84381459554038
21
88.9264518737793
31
0
0
LINE
5
773
100
AcDbEntity
8
0
100
AcDbLine
10
-146.84381459554038
20
88.9264518737793
30
0
11
-147.21423772176109
21
88.714788436889648
31
0
0
LINE
5
774
100
AcDbEntity
8
0
100
AcDbLine
10
-147.21423772176109
20
88.714788436889648
30
0
11
-147.42590115865073
21
88.635416666666686
31
0
0
LINE
5
775
100
AcDbEntity
8
0
100
AcDbLine
10
-147.42590115865073
20
88.635416666666686
30
0
11
-147.63756459554037
21
88.582496770223003
31
0
0
LINE
5
776
100
AcDbEntity
8
0
100
AcDbLine
10
-147.63756459554037
20
88.582496770223003
30
0
11
-147.84922803243003
21
88.582496770223003
31
0
0
SPLINE
5
777
100
AcDbEntity
8
0
100
AcDbSpline
70
0
71
2
72
6
73
3
74
0
42
0.000000001
43
0.0000000001
44
0.0000000001
40
0
40
0
40
0
40
1
40
1
40
1
10
-147.84922803243003
20
88.582496770223003
30
0
10
-147.84922803243003
20
88.556036822001147
30
0
10
-148.0608914693197
20
88.529576873779305
30
0
0
LINE
5
778
100
AcDbEntity
8
0
100
AcDbLine
10
-148.0608914693197
20
88.52957687377932
30
0
11
-148.48421834309897
21
88.529576873779305
31
0
0
LINE
5
779
100
AcDbEntity
8
0
100
AcDbLine
10
-148.48421834309897
20
88.529576873779305
30
0
11
-148.69588177998861
21
88.582496770222988
31
0
0
LINE
5
780
100
AcDbEntity
8
0
100
AcDbLine
10
-148.69588177998861
20
88.582496770222988
30
0
11
-150.3363016764323
21
87.973958333333343
31
0
0
LINE
5
781
100
AcDbEntity
8
0
100
AcDbLine
10
-150.3363016764323
20
87.973958333333343
30
0
11
-150.60088500976565
21
86.809793281555187
31
0
0
LINE
5
782
100
AcDbEntity
8
0
100
AcDbLine
10
-150.60088500976565
20
86.809793281555187
30
0
11
-149.41026000976566
21
85.539796511332213
31
0
0
LINE
5
783
100
AcDbEntity
8
0
100
AcDbLine
10
-149.41026000976566
20
85.539796511332213
30
0
11
-149.198596572876
21
85.48687661488853
31
0
0
LINE
5
784
100
AcDbEntity
8
0
100
AcDbLine
10
-149.198596572876
20
85.48687661488853
30
0
11
-148.98693313598636
21
85.407504844665553
31
0
0
LINE
5
785
100
AcDbEntity
8
0
100
AcDbLine
10
-148.98693313598636
20
85.407504844665553
30
0
11
-148.61651000976565
21
85.195841407775887
31
0
0
LINE
5
786
100
AcDbEntity
8
0
100
AcDbLine
10
-148.61651000976565
20
85.195841407775887
30
0
11
-148.43129844665529
21
85.063549741109213
31
0
0
LINE
5
787
100
AcDbEntity
8
0
100
AcDbLine
10
-148.43129844665529
20
85.063549741109213
30
0
11
-148.27255490620934
21
84.931258074442553
31
0
0
LINE
5
788
100
AcDbEntity
8
0
100
AcDbLine
10
-148.27255490620934
20
84.931258074442553
30
0
11
-148.11381136576335
21
84.772506459554066
31
0
0
LINE
5
789
100
AcDbEntity
8
0
100
AcDbLine
10
-148.11381136576335
20
84.772506459554066
30
0
11
-147.98151969909671
21
84.61375484466555
31
0
0
LINE
5
790
100
AcDbEntity
8
0
100
AcDbLine
10
-147.98151969909671
20
84.61375484466555
30
0
11
-147.76984011332195
21
84.243331718444836
31
0
0
LINE
5
791
100
AcDbEntity
8
0
100
AcDbLine
10
-147.76984011332195
20
84.243331718444836
30
0
11
-147.69046834309898
21
84.031668281555199
31
0
0
LINE
5
792
100
AcDbEntity
8
0
100
AcDbLine
10
-147.69046834309898
20
84.031668281555199
30
0
11
-147.58462855021162
21
83.608341407775896
31
0
0
LINE
5
793
100
AcDbEntity
8
0
100
AcDbLine
10
-147.58462855021162
20
83.608341407775896
30
0
11
-147.58462855021162
21
83.185006459554046
31
0
0
LINE
5
794
100
AcDbEntity
8
0
100
AcDbLine
10
-147.58462855021162
20
83.185006459554046
30
0
11
-147.6375484466553
21
83.185006459554046
31
0
0
ENDSEC
0
SECTION
2
OBJECTS
0
DICTIONARY
5
C
100
AcDbDictionary
3
ACAD_GROUP
350
D
3
ACAD_MLINESTYLE
350
17
0
DICTIONARY
5
D
100
AcDbDictionary
0
DICTIONARY
5
1A
330
C
100
AcDbDictionary
0
DICTIONARY
5
17
100
AcDbDictionary
0
ENDSEC
0
EOF
