0
SECTION
2
HEADER
9
$INSUNITS
70
4
9
$ACADVER
1
AC1014
9
$HANDSEED
5
FFFF
0
ENDSEC
0
SECTION
2
TABLES
0
TABLE
2
VPORT
5
8
100
AcDbSymbolTable
0
ENDTAB
0
TABLE
2
LTYPE
5
5
100
AcDbSymbolTable
0
LTYPE
5
14
100
AcDbSymbolTableRecord
100
AcDbLinetypeTableRecord
2
BYBLOCK
70
0
0
LTYPE
5
15
100
AcDbSymbolTableRecord
100
AcDbLinetypeTableRecord
2
BYLAYER
70
0
0
LTYPE
5
16
100
AcDbSymbolTableRecord
100
AcDbLinetypeTableRecord
2
DASHED
70
0
3
Dashed __ __ __ __ __ __ __ __ __ __ __ __ __ _
72
65
73
2
40
0.75
49
0.5
74
0
49
-0.25
74
0
0
ENDTAB
0
TABLE
2
LAYER
5
2
100
AcDbSymbolTable
70
2
0
LAYER
5
50
100
AcDbSymbolTableRecord
100
AcDbLayerTableRecord
2
0
70
0
62
7
6
CONTINUOUS
0
ENDTAB
0
TABLE
2
STYLE
5
3
100
AcDbSymbolTable
70
1
0
STYLE
5
11
100
AcDbSymbolTableRecord
100
AcDbTextStyleTableRecord
2
STANDARD
70
0
0
ENDTAB
0
TABLE
2
VIEW
5
6
100
AcDbSymbolTable
70
0
0
ENDTAB
0
TABLE
2
UCS
5
7
100
AcDbSymbolTable
70
0
0
ENDTAB
0
TABLE
2
APPID
5
9
100
AcDbSymbolTable
70
2
0
APPID
5
12
100
AcDbSymbolTableRecord
100
AcDbRegAppTableRecord
2
ACAD
70
0
0
ENDTAB
0
TABLE
2
DIMSTYLE
5
A
100
AcDbSymbolTable
70
1
0
ENDTAB
0
TABLE
2
BLOCK_RECORD
5
1
100
AcDbSymbolTable
70
1
0
BLOCK_RECORD
5
1F
100
AcDbSymbolTableRecord
100
AcDbBlockTableRecord
2
*MODEL_SPACE
0
BLOCK_RECORD
5
1B
100
AcDbSymbolTableRecord
100
AcDbBlockTableRecord
2
*PAPER_SPACE
0
ENDTAB
0
ENDSEC
0
SECTION
2
BLOCKS
0
BLOCK
5
20
100
AcDbEntity
100
AcDbBlockBegin
2
*MODEL_SPACE
0
ENDBLK
5
21
100
AcDbEntity
100
AcDbBlockEnd
0
BLOCK
5
1C
100
AcDbEntity
100
AcDbBlockBegin
2
*PAPER_SPACE
0
ENDBLK
5
1D
100
AcDbEntity
100
AcDbBlockEnd
0
ENDSEC
0
SECTION
2
ENTITIES
0
SPLINE
5
100
100
AcDbEntity
8
0
100
AcDbSpline
70
4
71
3
72
8
73
4
74
0
42
0.000000001
43
0.0000000001
44
0.0000000001
40
0
40
0
40
0
40
0
40
1
40
1
40
1
40
1
41
1
41
1
41
1
41
1
10
-173.7428870477174
20
-3.9862975774629916
30
0
10
-173.10788866260592
20
-3.9862975774629916
30
0
10
-172.60518194416107
20
-4.4890042959078258
30
0
10
-172.60518194416107
20
-5.1240026810193307
30
0
0
SPLINE
5
101
100
AcDbEntity
8
0
100
AcDbSpline
70
4
71
3
72
8
73
4
74
0
42
0.000000001
43
0.0000000001
44
0.0000000001
40
0
40
0
40
0
40
0
40
1
40
1
40
1
40
1
41
1
41
1
41
1
41
1
10
-172.60518194416107
20
-5.1240026810193307
30
0
10
-172.6051819441611
20
-5.7590010661308177
30
0
10
-173.10788866260594
20
-6.2617077845756164
30
0
10
-173.74288704771743
20
-6.2617077845756164
30
0
0
SPLINE
5
102
100
AcDbEntity
8
0
100
AcDbSpline
70
4
71
3
72
8
73
4
74
0
42
0.000000001
43
0.0000000001
44
0.0000000001
40
0
40
0
40
0
40
0
40
1
40
1
40
1
40
1
41
1
41
1
41
1
41
1
10
-173.74288704771743
20
-6.2617077845756164
30
0
10
-174.37788543282892
20
-6.2617077845755986
30
0
10
-174.88059215127376
20
-5.7590010661307645
30
0
10
-174.88059215127373
20
-5.1240026810192774
30
0
0
SPLINE
5
103
100
AcDbEntity
8
0
100
AcDbSpline
70
4
71
3
72
8
73
4
74
0
42
0.000000001
43
0.0000000001
44
0.0000000001
40
0
40
0
40
0
40
0
40
1
40
1
40
1
40
1
41
1
41
1
41
1
41
1
10
-174.88059215127373
20
-5.1240026810192774
30
0
10
-174.88059215127373
20
-4.4890042959077725
30
0
10
-174.37788543282889
20
-3.9862975774629739
30
0
10
-173.7428870477174
20
-3.9862975774629916
30
0
0
SPLINE
5
104
100
AcDbEntity
8
0
100
AcDbSpline
70
4
71
3
72
8
73
4
74
0
42
0.000000001
43
0.0000000001
44
0.0000000001
40
0
40
0
40
0
40
0
40
1
40
1
40
1
40
1
41
1
41
1
41
1
41
1
10
-99.977048869718629
20
-3.9862975774645548
30
0
10
-99.342058559049704
20
-3.9862975774645726
30
0
10
-98.839343766162386
20
-4.489004295909389
30
0
10
-98.839343766162386
20
-5.1240026810208938
30
0
0
SPLINE
5
105
100
AcDbEntity
8
0
100
AcDbSpline
70
4
71
3
72
8
73
4
74
0
42
0.000000001
43
0.0000000001
44
0.0000000001
40
0
40
0
40
0
40
0
40
1
40
1
40
1
40
1
41
1
41
1
41
1
41
1
10
-98.839343766162386
20
-5.1240026810208938
30
0
10
-98.839343766162386
20
-5.7590010661323809
30
0
10
-99.342058559049775
20
-6.2617077845771973
30
0
10
-99.977048869718715
20
-6.2617077845771796
30
0
0
SPLINE
5
106
100
AcDbEntity
8
0
100
AcDbSpline
70
4
71
3
72
8
73
4
74
0
42
0.000000001
43
0.0000000001
44
0.0000000001
40
0
40
0
40
0
40
0
40
1
40
1
40
1
40
1
41
1
41
1
41
1
41
1
10
-99.977048869718715
20
-6.2617077845771796
30
0
10
-100.61205532927275
20
-6.2617077845771618
30
0
10
-101.11475397327499
20
-5.7590010661323277
30
0
10
-101.11475397327499
20
-5.1240026810208406
30
0
0
SPLINE
5
107
100
AcDbEntity
8
0
100
AcDbSpline
70
4
71
3
72
8
73
4
74
0
42
0.000000001
43
0.0000000001
44
0.0000000001
40
0
40
0
40
0
40
0
40
1
40
1
40
1
40
1
41
1
41
1
41
1
41
1
10
-101.11475397327499
20
-5.1240026810208406
30
0
10
-101.11475397327499
20
-4.4890042959093357
30
0
10
-100.6120391803876
20
-3.9862975774645371
30
0
10
-99.977048869718629
20
-3.9862975774645548
30
0
0
SPLINE
5
108
100
AcDbEntity
8
0
100
AcDbSpline
70
4
71
3
72
8
73
4
74
0
42
0.000000001
43
0.0000000001
44
0.0000000001
40
0
40
0
40
0
40
0
40
1
40
1
40
1
40
1
41
1
41
1
41
1
41
1
10
-149.1630969959393
20
-3.9862975774635068
30
0
10
-148.52810668527036
20
-3.9862975774635245
30
0
10
-148.02539189238297
20
-4.4890042959083409
30
0
10
-148.025391892383
20
-5.1240026810198458
30
0
0
SPLINE
5
109
100
AcDbEntity
8
0
100
AcDbSpline
70
4
71
3
72
8
73
4
74
0
42
0.000000001
43
0.0000000001
44
0.0000000001
40
0
40
0
40
0
40
0
40
1
40
1
40
1
40
1
41
1
41
1
41
1
41
1
10
-148.025391892383
20
-5.1240026810198458
30
0
10
-148.025391892383
20
-5.7590010661313329
30
0
10
-148.52810668527039
20
-6.2617077845761493
30
0
10
-149.16309699593936
20
-6.2617077845761315
30
0
0
SPLINE
5
110
100
AcDbEntity
8
0
100
AcDbSpline
70
4
71
3
72
8
73
4
74
0
42
0.000000001
43
0.0000000001
44
0.0000000001
40
0
40
0
40
0
40
0
40
1
40
1
40
1
40
1
41
1
41
1
41
1
41
1
10
-149.16309699593936
20
-6.2617077845761315
30
0
10
-149.79810345549336
20
-6.2617077845761138
30
0
10
-150.30080209949563
20
-5.7590010661312974
30
0
10
-150.30080209949563
20
-5.1240026810198103
30
0
0
SPLINE
5
111
100
AcDbEntity
8
0
100
AcDbSpline
70
4
71
3
72
8
73
4
74
0
42
0.000000001
43
0.0000000001
44
0.0000000001
40
0
40
0
40
0
40
0
40
1
40
1
40
1
40
1
41
1
41
1
41
1
41
1
10
-150.30080209949563
20
-5.1240026810198103
30
0
10
-150.3008020994956
20
-4.4890042959083054
30
0
10
-149.79808730660824
20
-3.986297577463489
30
0
10
-149.1630969959393
20
-3.9862975774635068
30
0
0
SPLINE
5
112
100
AcDbEntity
8
0
100
AcDbSpline
70
4
71
3
72
8
73
4
74
0
42
0.000000001
43
0.0000000001
44
0.0000000001
40
0
40
0
40
0
40
0
40
1
40
1
40
1
40
1
41
1
41
1
41
1
41
1
10
-124.55684699593931
20
-3.9862975774640219
30
0
10
-123.92185668527037
20
-3.9862975774640397
30
0
10
-123.41914189238307
20
-4.4890042959088738
30
0
10
-123.41914189238307
20
-5.1240026810203787
30
0
0
SPLINE
5
113
100
AcDbEntity
8
0
100
AcDbSpline
70
4
71
3
72
8
73
4
74
0
42
0.000000001
43
0.0000000001
44
0.0000000001
40
0
40
0
40
0
40
0
40
1
40
1
40
1
40
1
41
1
41
1
41
1
41
1
10
-123.41914189238307
20
-5.1240026810203787
30
0
10
-123.41914189238307
20
-5.7590010661318658
30
0
10
-123.92185668527046
20
-6.2617077845766644
30
0
10
-124.55684699593938
20
-6.2617077845766467
30
0
0
SPLINE
5
114
100
AcDbEntity
8
0
100
AcDbSpline
70
4
71
3
72
8
73
4
74
0
42
0.000000001
43
0.0000000001
44
0.0000000001
40
0
40
0
40
0
40
0
40
1
40
1
40
1
40
1
41
1
41
1
41
1
41
1
10
-124.55684699593938
20
-6.2617077845766467
30
0
10
-125.19185345549343
20
-6.2617077845766467
30
0
10
-125.69455209949567
20
-5.7590010661318125
30
0
10
-125.69455209949567
20
-5.1240026810203254
30
0
0
SPLINE
5
115
100
AcDbEntity
8
0
100
AcDbSpline
70
4
71
3
72
8
73
4
74
0
42
0.000000001
43
0.0000000001
44
0.0000000001
40
0
40
0
40
0
40
0
40
1
40
1
40
1
40
1
41
1
41
1
41
1
41
1
10
-125.69455209949567
20
-5.1240026810203254
30
0
10
-125.69455209949567
20
-4.4890042959088206
30
0
10
-125.19183730660828
20
-3.9862975774640219
30
0
10
-124.55684699593931
20
-3.9862975774640219
30
0
0
LWPOLYLINE
5
116
100
AcDbEntity
8
0
100
AcDbPolyline
90
130
70
1
43
0.0
10
-74.206496552417207
20
0.72329060053375471
10
-76.64081178882671
20
0.72329060053380634
10
-76.64081178882671
20
1.1730854969774995
10
-77.51393355904959
20
4.3745454451993568
10
-78.519346995939145
20
6.5176720600878859
10
-80.159766892382862
20
6.5176720600879348
10
-81.16518032927253
20
4.3745454451994483
10
-82.038302099495581
20
1.1730854969776243
10
-82.038302099495596
20
0.72329060053393235
10
-84.419552099495618
20
0.72329060053398286
10
-84.419552099495604
20
1.1730854969776772
10
-85.292673869718499
20
4.3745454451995345
10
-86.298087306608068
20
6.5176720600880635
10
-87.938507203051799
20
6.5176720600880946
10
-88.943920639941467
20
4.3745454451996082
10
-89.817042410164561
20
1.1730854969777842
10
-89.817042410164575
20
0.72329060053409222
10
-92.198292410164584
20
0.72329060053414274
10
-92.198292410164569
20
1.173085496977837
10
-93.071414180387464
20
4.3745454451996943
10
-94.076827617277047
20
6.5176720600882234
10
-95.717247513720736
20
6.5176720600882545
10
-96.722660950610361
20
4.3745454451997681
10
-97.595782720833455
20
1.1730854969779441
10
-97.595782720833469
20
0.72329060053425209
10
-99.977032720833492
20
0.72329060053430261
10
-99.977032720833478
20
1.1730854969779969
10
-100.85015449105637
20
4.3745454451998542
10
-101.85556792794594
20
6.5176720600883833
10
-103.49598782438963
20
6.5176720600884321
10
-104.50140126127934
20
4.3745454451999279
10
-105.37452303150239
20
1.1730854969781217
10
-105.37452303150241
20
0.72329060053442973
10
-107.75577303150243
20
0.72329060053448024
10
-107.75577303150241
20
1.1730854969781745
10
-108.62889480172529
20
4.3745454452000319
10
-109.63430823861488
20
6.5176720600885609
10
-111.27472813505861
20
6.517672060088592
10
-112.28014157194828
20
4.3745454452001056
10
-113.15326334217133
20
1.1730854969782816
10
-113.15326334217131
20
0.7232906005345896
10
-115.53451334217132
20
0.72329060053464012
10
-115.53451334217131
20
1.1730854969783344
10
-116.4076351123942
20
4.3745454452001917
10
-117.41304854928381
20
6.5176720600887208
10
-119.0534684457275
20
6.5176720600887519
10
-120.05888188261719
20
4.3745454452002654
10
-120.93200365284027
20
1.1730854969784414
10
-120.93200365284028
20
0.72329060053474947
10
-123.3132536528403
20
0.72329060053479999
10
-123.31325365284029
20
1.1730854969784943
10
-124.18637542306317
20
4.3745454452003516
10
-125.19178885995275
20
6.5176720600888807
10
-126.83220875639645
20
6.5176720600889118
10
-127.83762219328615
20
4.3745454452004253
10
-128.7107439635092
20
1.1730854969786191
10
-128.71074396350923
20
0.72329060053492711
10
-131.09199396350925
20
0.72329060053497762
10
-131.0919939635092
20
1.1730854969786542
10
-131.96511573373209
20
4.3745454452005115
10
-132.97052917062166
20
6.5176720600890405
10
-134.61094906706535
20
6.5176720600890894
10
-135.61636250395506
20
4.374545445200603
10
-136.4894842741781
20
1.173085496978779
10
-136.48948427417812
20
0.72329060053508698
10
-138.87073427417815
20
0.7232906005351375
10
-138.87073427417812
20
1.1730854969788318
10
-139.74385604440101
20
4.3745454452006891
10
-140.74926948129064
20
6.5176720600892182
10
-142.38968937773433
20
6.5176720600892493
10
-143.39510281462401
20
4.3745454452007628
10
-144.26822458484708
20
1.1730854969789388
10
-144.26822458484708
20
0.72329060053524685
10
-146.64947458484707
20
0.72329060053529737
10
-146.64947458484704
20
1.1730854969789917
10
-147.52259635506996
20
4.374545445200849
10
-148.52800979195956
20
6.517672060089378
10
-150.16842968840325
20
6.5176720600894091
10
-151.17384312529293
20
4.3745454452009227
10
-152.046964895516
20
1.1730854969790987
10
-152.04696489551603
20
0.72329060053540672
10
-154.42821489551602
20
0.72329060053545724
10
-154.42821489551596
20
1.1730854969791515
10
-155.30133666573892
20
4.3745454452010089
10
-156.30675010262851
20
6.5176720600895379
10
-157.9471699990722
20
6.5176720600895868
10
-158.95258343596186
20
4.3745454452011003
10
-159.82570520618492
20
1.1730854969792763
10
-159.82570520618495
20
0.72329060053558436
10
-162.20695520618492
20
0.72329060053563488
10
-162.20695520618492
20
1.1730854969793292
10
-163.08007697640784
20
4.3745454452011865
10
-164.08549041329741
20
6.5176720600897156
10
-165.7259103097411
20
6.5176720600897466
10
-166.73132374663081
20
4.3745454452012602
10
-167.6044455168539
20
1.1730854969794362
10
-167.6044455168539
20
0.72329060053574423
10
-169.98569551685389
20
0.72329060053579475
10
-169.98569551685387
20
1.1730854969794891
10
-170.85881728707676
20
4.3745454452013464
10
-171.86423072396636
20
6.5176720600898754
10
-173.50465062041002
20
6.5176720600899065
10
-174.5100640572997
20
4.3745454452014201
10
-175.38318582752279
20
1.1730854969795961
10
-175.38318582752279
20
0.7232906005359041
10
-177.76443582752279
20
0.72329060053595462
10
-177.76443582752279
20
1.1730854969796489
10
-178.63755759774568
20
4.3745454452015062
10
-179.64297103463531
20
6.5176720600900353
10
-181.28339093107897
20
6.5176720600900664
10
-182.28880436796868
20
4.37454544520158
10
-183.16192613819172
20
1.1730854969797737
10
-183.16192613819172
20
0.72329060053608174
10
-185.54317613819171
20
0.72329060053613226
10
-185.54317613819171
20
1.1730854969798266
10
-186.41629790841463
20
4.3745454452016839
10
-187.42171134530423
20
6.5176720600902129
10
-189.06213124174792
20
6.517672060090244
10
-190.06754467863757
20
4.3745454452017576
10
-190.94066644886061
20
1.1730854969799336
10
-190.94066644886061
20
0.72329060053624161
10
-193.32191644886063
20
0.72329060053629213
10
-193.32191644886066
20
1.1730854969799864
10
-194.19503821908359
20
4.3745454452018437
10
-195.91482988575021
20
6.4912121118685393
10
-197.55524978219387
20
6.4912121118685731
10
-198.56066321908349
20
4.3480854969800866
10
-199.46024493752844
20
1.1466255487582633
10
-199.4602449375287
20
-9.9394145030198899
10
-74.206496552417391
20
-9.9394145030225491
0
ENDSEC
0
SECTION
2
OBJECTS
0
DICTIONARY
5
C
100
AcDbDictionary
3
ACAD_GROUP
350
D
3
ACAD_MLINESTYLE
350
17
0
DICTIONARY
5
D
100
AcDbDictionary
0
DICTIONARY
5
1A
330
C
100
AcDbDictionary
0
DICTIONARY
5
17
100
AcDbDictionary
0
ENDSEC
0
EOF
