0
SECTION
2
HEADER
9
$INSUNITS
70
4
9
$ACADVER
1
AC1014
9
$HANDSEED
5
FFFF
0
ENDSEC
0
SECTION
2
TABLES
0
TABLE
2
VPORT
5
8
100
AcDbSymbolTable
0
ENDTAB
0
TABLE
2
LTYPE
5
5
100
AcDbSymbolTable
0
LTYPE
5
14
100
AcDbSymbolTableRecord
100
AcDbLinetypeTableRecord
2
BYBLOCK
70
0
0
LTYPE
5
15
100
AcDbSymbolTableRecord
100
AcDbLinetypeTableRecord
2
BYLAYER
70
0
0
LTYPE
5
16
100
AcDbSymbolTableRecord
100
AcDbLinetypeTableRecord
2
DASHED
70
0
3
Dashed __ __ __ __ __ __ __ __ __ __ __ __ __ _
72
65
73
2
40
0.75
49
0.5
74
0
49
-0.25
74
0
0
ENDTAB
0
TABLE
2
LAYER
5
2
100
AcDbSymbolTable
70
2
0
LAYER
5
50
100
AcDbSymbolTableRecord
100
AcDbLayerTableRecord
2
0
70
0
62
7
6
CONTINUOUS
0
ENDTAB
0
TABLE
2
STYLE
5
3
100
AcDbSymbolTable
70
1
0
STYLE
5
11
100
AcDbSymbolTableRecord
100
AcDbTextStyleTableRecord
2
STANDARD
70
0
0
ENDTAB
0
TABLE
2
VIEW
5
6
100
AcDbSymbolTable
70
0
0
ENDTAB
0
TABLE
2
UCS
5
7
100
AcDbSymbolTable
70
0
0
ENDTAB
0
TABLE
2
APPID
5
9
100
AcDbSymbolTable
70
2
0
APPID
5
12
100
AcDbSymbolTableRecord
100
AcDbRegAppTableRecord
2
ACAD
70
0
0
ENDTAB
0
TABLE
2
DIMSTYLE
5
A
100
AcDbSymbolTable
70
1
0
ENDTAB
0
TABLE
2
BLOCK_RECORD
5
1
100
AcDbSymbolTable
70
1
0
BLOCK_RECORD
5
1F
100
AcDbSymbolTableRecord
100
AcDbBlockTableRecord
2
*MODEL_SPACE
0
BLOCK_RECORD
5
1B
100
AcDbSymbolTableRecord
100
AcDbBlockTableRecord
2
*PAPER_SPACE
0
ENDTAB
0
ENDSEC
0
SECTION
2
BLOCKS
0
BLOCK
5
20
100
AcDbEntity
100
AcDbBlockBegin
2
*MODEL_SPACE
0
ENDBLK
5
21
100
AcDbEntity
100
AcDbBlockEnd
0
BLOCK
5
1C
100
AcDbEntity
100
AcDbBlockBegin
2
*PAPER_SPACE
0
ENDBLK
5
1D
100
AcDbEntity
100
AcDbBlockEnd
0
ENDSEC
0
SECTION
2
ENTITIES
0
SPLINE
5
100
100
AcDbEntity
8
0
100
AcDbSpline
70
4
71
3
72
8
73
4
74
0
42
0.000000001
43
0.0000000001
44
0.0000000001
40
0
40
0
40
0
40
0
40
1
40
1
40
1
40
1
41
1
41
1
41
1
41
1
10
-66.780988506399041
20
103.57246619931215
30
0
10
-67.415990928731816
20
103.57246619931215
30
0
10
-67.918697647176629
20
104.07517291775697
30
0
10
-67.918697647176629
20
104.71017130286846
30
0
0
SPLINE
5
101
100
AcDbEntity
8
0
100
AcDbSpline
70
4
71
3
72
8
73
4
74
0
42
0.000000001
43
0.0000000001
44
0.0000000001
40
0
40
0
40
0
40
0
40
1
40
1
40
1
40
1
41
1
41
1
41
1
41
1
10
-67.918697647176629
20
104.71017130286846
30
0
10
-67.918697647176629
20
105.34516968797995
30
0
10
-67.415990928731816
20
105.84787640642477
30
0
10
-66.780988506399041
20
105.84787640642477
30
0
0
SPLINE
5
102
100
AcDbEntity
8
0
100
AcDbSpline
70
4
71
3
72
8
73
4
74
0
42
0.000000001
43
0.0000000001
44
0.0000000001
40
0
40
0
40
0
40
0
40
1
40
1
40
1
40
1
41
1
41
1
41
1
41
1
10
-66.780988506399041
20
105.84787640642477
30
0
10
-66.145990121287554
20
105.84787640642477
30
0
10
-65.643279365621453
20
105.34516968797995
30
0
10
-65.643279365621453
20
104.71017130286846
30
0
0
SPLINE
5
103
100
AcDbEntity
8
0
100
AcDbSpline
70
4
71
3
72
8
73
4
74
0
42
0.000000001
43
0.0000000001
44
0.0000000001
40
0
40
0
40
0
40
0
40
1
40
1
40
1
40
1
41
1
41
1
41
1
41
1
10
-65.643279365621453
20
104.71017130286846
30
0
10
-65.643279365621453
20
104.07517291775697
30
0
10
-66.14598608406628
20
103.57246619931215
30
0
10
-66.780988506399041
20
103.57246619931215
30
0
0
LINE
5
104
100
AcDbEntity
8
0
100
AcDbLine
10
-96.070330401184592
20
103.54601432553284
30
0
11
-96.070362698954767
21
103.57246619931215
31
0
0
LINE
5
105
100
AcDbEntity
8
0
100
AcDbLine
10
-96.070362698954767
20
103.57246619931215
30
0
11
-96.30848608406626
21
103.57246619931215
31
0
0
LINE
5
106
100
AcDbEntity
8
0
100
AcDbLine
10
-96.30848608406626
20
103.57246619931215
30
0
11
-96.440777750732934
21
103.51954630286846
31
0
0
LINE
5
107
100
AcDbEntity
8
0
100
AcDbLine
10
-96.440777750732934
20
103.51954630286846
30
0
11
-96.599529365621464
21
103.51954630286846
31
0
0
SPLINE
5
108
100
AcDbEntity
8
0
100
AcDbSpline
70
0
71
2
72
6
73
3
74
0
42
0.000000001
43
0.0000000001
44
0.0000000001
40
0
40
0
40
0
40
1
40
1
40
1
10
-96.599529365621464
20
103.51954630286846
30
0
10
-96.599529365621464
20
103.49308635464664
30
0
10
-96.758280980509966
20
103.44017453264549
30
0
0
LINE
5
109
100
AcDbEntity
8
0
100
AcDbLine
10
-96.758280980509966
20
103.4401745326455
30
0
11
-96.943492543620309
21
103.3872546362018
31
0
0
LINE
5
110
100
AcDbEntity
8
0
100
AcDbLine
10
-96.943492543620309
20
103.3872546362018
30
0
11
-97.15515598050996
21
103.30788286597881
31
0
0
LINE
5
111
100
AcDbEntity
8
0
100
AcDbLine
10
-97.15515598050996
20
103.30788286597881
30
0
11
-97.393279365621453
21
103.22851109575583
31
0
0
LINE
5
112
100
AcDbEntity
8
0
100
AcDbLine
10
-97.393279365621453
20
103.22851109575583
30
0
11
-97.657862698954787
21
103.122679377311
31
0
0
LINE
5
113
100
AcDbEntity
8
0
100
AcDbLine
10
-97.657862698954787
20
103.122679377311
30
0
11
-97.948905980509949
21
103.01684765886618
31
0
0
LINE
5
114
100
AcDbEntity
8
0
100
AcDbLine
10
-97.948905980509949
20
103.01684765886618
30
0
11
-98.239949262065124
21
102.88455599219951
31
0
0
LINE
5
115
100
AcDbEntity
8
0
100
AcDbLine
10
-98.239949262065124
20
102.88455599219951
30
0
11
-98.557452491842156
21
102.72580437731101
31
0
0
LINE
5
116
100
AcDbEntity
8
0
100
AcDbLine
10
-98.557452491842156
20
102.72580437731101
30
0
11
-99.245362698954807
21
102.35538125109031
31
0
0
LINE
5
117
100
AcDbEntity
8
0
100
AcDbLine
10
-99.245362698954807
20
102.35538125109031
30
0
11
-99.61577775073296
21
102.14371781420067
31
0
0
LINE
5
118
100
AcDbEntity
8
0
100
AcDbLine
10
-99.61577775073296
20
102.14371781420067
30
0
11
-99.986192802511084
21
101.90559442908918
31
0
0
LINE
5
119
100
AcDbEntity
8
0
100
AcDbLine
10
-99.986192802511084
20
101.90559442908918
30
0
11
-100.38306780251108
21
101.64101109575583
31
0
0
LINE
5
120
100
AcDbEntity
8
0
100
AcDbLine
10
-100.38306780251108
20
101.64101109575583
30
0
11
-100.77994280251107
21
101.34996781420065
31
0
0
LINE
5
121
100
AcDbEntity
8
0
100
AcDbLine
10
-100.77994280251107
20
101.34996781420065
30
0
11
-100.83286269895478
21
101.34996781420065
31
0
0
LINE
5
122
100
AcDbEntity
8
0
100
AcDbLine
10
-100.83286269895478
20
101.34996781420065
30
0
11
-100.83286269895478
21
101.29704791775697
31
0
0
LINE
5
123
100
AcDbEntity
8
0
100
AcDbLine
10
-100.83286269895478
20
101.29704791775697
30
0
11
-100.62119926206513
21
99.683087969535137
31
0
0
LINE
5
124
100
AcDbEntity
8
0
100
AcDbLine
10
-100.62119926206513
20
99.683087969535137
30
0
11
-100.56827936562145
21
99.683087969535137
31
0
0
LINE
5
125
100
AcDbEntity
8
0
100
AcDbLine
10
-100.56827936562145
20
99.683087969535137
30
0
11
-100.09203259539846
21
99.471424532645486
31
0
0
LINE
5
126
100
AcDbEntity
8
0
100
AcDbLine
10
-100.09203259539846
20
99.471424532645486
30
0
11
-99.642237698954773
21
99.31267291775697
31
0
0
LINE
5
127
100
AcDbEntity
8
0
100
AcDbLine
10
-99.642237698954773
20
99.31267291775697
30
0
11
-99.218902750732951
21
99.180381251090296
31
0
0
LINE
5
128
100
AcDbEntity
8
0
100
AcDbLine
10
-99.218902750732951
20
99.180381251090296
30
0
11
-98.822027750732957
21
99.048089584423622
31
0
0
LINE
5
129
100
AcDbEntity
8
0
100
AcDbLine
10
-98.822027750732957
20
99.048089584423622
30
0
11
-98.425152750732963
21
98.942257865978803
31
0
0
LINE
5
130
100
AcDbEntity
8
0
100
AcDbLine
10
-98.425152750732963
20
98.942257865978803
30
0
11
-98.054737698954781
21
98.86288609575584
31
0
0
LINE
5
131
100
AcDbEntity
8
0
100
AcDbLine
10
-98.054737698954781
20
98.86288609575584
30
0
11
-97.710782595398484
21
98.783514325532863
31
0
0
LINE
5
132
100
AcDbEntity
8
0
100
AcDbLine
10
-97.710782595398484
20
98.783514325532863
30
0
11
-97.393279365621467
21
98.730594429089166
31
0
0
LINE
5
133
100
AcDbEntity
8
0
100
AcDbLine
10
-97.393279365621467
20
98.730594429089166
30
0
11
-97.102236084066277
21
98.677674532645483
31
0
0
LINE
5
134
100
AcDbEntity
8
0
100
AcDbLine
10
-97.102236084066277
20
98.677674532645483
30
0
11
-96.837652750732957
21
98.677674532645483
31
0
0
SPLINE
5
135
100
AcDbEntity
8
0
100
AcDbSpline
70
0
71
2
72
6
73
3
74
0
42
0.000000001
43
0.0000000001
44
0.0000000001
40
0
40
0
40
0
40
1
40
1
40
1
10
-96.837652750732957
20
98.677674532645483
30
0
10
-96.837652750732957
20
98.651214584423627
30
0
10
-96.599529365621464
20
98.6247546362018
30
0
0
LINE
5
136
100
AcDbEntity
8
0
100
AcDbLine
10
-96.599529365621464
20
98.624754636201828
30
0
11
-95.408904365621453
21
98.6247546362018
31
0
0
LINE
5
137
100
AcDbEntity
8
0
100
AcDbLine
10
-95.408904365621453
20
98.6247546362018
30
0
11
-94.694526135844427
21
98.783506251090301
31
0
0
LINE
5
138
100
AcDbEntity
8
0
100
AcDbLine
10
-94.694526135844427
20
98.783506251090301
30
0
11
-94.006607854289257
21
96.190592814200656
31
0
0
LINE
5
139
100
AcDbEntity
8
0
100
AcDbLine
10
-94.006607854289257
20
96.190592814200656
30
0
11
-94.720986084066269
21
95.978929377311019
31
0
0
LINE
5
140
100
AcDbEntity
8
0
100
AcDbLine
10
-94.720986084066269
20
95.978929377311019
30
0
11
-94.853277750732929
21
95.978929377311019
31
0
0
SPLINE
5
141
100
AcDbEntity
8
0
100
AcDbSpline
70
0
71
2
72
6
73
3
74
0
42
0.000000001
43
0.0000000001
44
0.0000000001
40
0
40
0
40
0
40
1
40
1
40
1
10
-94.853277750732943
20
95.978929377311019
30
0
10
-94.853277750732943
20
95.952469429089163
30
0
10
-94.959109469177776
20
95.899557607088028
30
0
0
LINE
5
142
100
AcDbEntity
8
0
100
AcDbLine
10
-94.959109469177776
20
95.899557607088042
30
0
11
-95.064941187622608
21
95.846637710644345
31
0
0
LINE
5
143
100
AcDbEntity
8
0
100
AcDbLine
10
-95.064941187622608
20
95.846637710644345
30
0
11
-95.197232854289254
21
95.767265940421368
31
0
0
LINE
5
144
100
AcDbEntity
8
0
100
AcDbLine
10
-95.197232854289254
20
95.767265940421368
30
0
11
-95.355984469177756
21
95.687894170198376
31
0
0
LINE
5
145
100
AcDbEntity
8
0
100
AcDbLine
10
-95.355984469177756
20
95.687894170198376
30
0
11
-95.541196032288113
21
95.582062451753558
31
0
0
LINE
5
146
100
AcDbEntity
8
0
100
AcDbLine
10
-95.541196032288113
20
95.582062451753558
30
0
11
-95.726407595398484
21
95.449770785086884
31
0
0
LINE
5
147
100
AcDbEntity
8
0
100
AcDbLine
10
-95.726407595398484
20
95.449770785086884
30
0
11
-95.938071032288121
21
95.317479118420209
31
0
0
LINE
5
148
100
AcDbEntity
8
0
100
AcDbLine
10
-95.938071032288121
20
95.317479118420209
30
0
11
-96.149734469177758
21
95.158727503531708
31
0
0
LINE
5
149
100
AcDbEntity
8
0
100
AcDbLine
10
-96.149734469177758
20
95.158727503531708
30
0
11
-96.38785785428928
21
94.973515940421365
31
0
0
LINE
5
150
100
AcDbEntity
8
0
100
AcDbLine
10
-96.38785785428928
20
94.973515940421365
30
0
11
-96.652441187622586
21
94.761852503531713
31
0
0
LINE
5
151
100
AcDbEntity
8
0
100
AcDbLine
10
-96.652441187622586
20
94.761852503531713
30
0
11
-96.917024520955948
21
94.523729118420206
31
0
0
LINE
5
152
100
AcDbEntity
8
0
100
AcDbLine
10
-96.917024520955948
20
94.523729118420206
30
0
11
-97.472651135844444
21
93.968102503531711
31
0
0
LINE
5
153
100
AcDbEntity
8
0
100
AcDbLine
10
-97.472651135844444
20
93.968102503531711
30
0
11
-97.763694417399606
21
93.650599273754693
31
0
0
LINE
5
154
100
AcDbEntity
8
0
100
AcDbLine
10
-97.763694417399606
20
93.650599273754693
30
0
11
-98.054737698954767
21
93.306644170198382
31
0
0
LINE
5
155
100
AcDbEntity
8
0
100
AcDbLine
10
-98.054737698954767
20
93.306644170198382
30
0
11
-98.372240928731827
21
92.936229118420215
31
0
0
LINE
5
156
100
AcDbEntity
8
0
100
AcDbLine
10
-98.372240928731827
20
92.936229118420215
30
0
11
-98.689744158508844
21
92.539354118420221
31
0
0
LINE
5
157
100
AcDbEntity
8
0
100
AcDbLine
10
-98.689744158508844
20
92.539354118420221
30
0
11
-98.742664054952485
21
92.486434221976538
31
0
0
LINE
5
158
100
AcDbEntity
8
0
100
AcDbLine
10
-98.742664054952485
20
92.486434221976538
30
0
11
-98.134125618062853
21
90.978305992199523
31
0
0
LINE
5
159
100
AcDbEntity
8
0
100
AcDbLine
10
-98.134125618062853
20
90.978305992199523
30
0
11
-98.08120572161917
21
90.978305992199523
31
0
0
LINE
5
160
100
AcDbEntity
8
0
100
AcDbLine
10
-98.08120572161917
20
90.978305992199523
30
0
11
-97.578499003174372
21
90.92538609575584
31
0
0
LINE
5
161
100
AcDbEntity
8
0
100
AcDbLine
10
-97.578499003174372
20
90.92538609575584
30
0
11
-97.102252232951344
21
90.925386095755826
31
0
0
LINE
5
162
100
AcDbEntity
8
0
100
AcDbLine
10
-97.102252232951344
20
90.925386095755826
30
0
11
-96.652457336507695
21
90.872466199312143
31
0
0
LINE
5
163
100
AcDbEntity
8
0
100
AcDbLine
10
-96.652457336507695
20
90.872466199312143
30
0
11
-95.117877232951358
21
90.872466199312143
31
0
0
SPLINE
5
164
100
AcDbEntity
8
0
100
AcDbSpline
70
0
71
2
72
6
73
3
74
0
42
0.000000001
43
0.0000000001
44
0.0000000001
40
0
40
0
40
0
40
1
40
1
40
1
10
-95.117877232951358
20
90.872466199312143
30
0
10
-95.117877232951358
20
90.898926147533984
30
0
10
-94.800374003174355
20
90.898926147533984
30
0
0
LINE
5
165
100
AcDbEntity
8
0
100
AcDbLine
10
-94.800374003174355
20
90.898926147533984
30
0
11
-94.509330721619179
21
90.978297917756962
31
0
0
LINE
5
166
100
AcDbEntity
8
0
100
AcDbLine
10
-94.509330721619179
20
90.978297917756962
30
0
11
-94.244747388285816
21
91.031217814200645
31
0
0
LINE
5
167
100
AcDbEntity
8
0
100
AcDbLine
10
-94.244747388285816
20
91.031217814200645
30
0
11
-94.006624003174323
21
91.084137710644342
31
0
0
LINE
5
168
100
AcDbEntity
8
0
100
AcDbLine
10
-94.006624003174323
20
91.084137710644342
30
0
11
-93.794960566284686
21
91.137057607088025
31
0
0
LINE
5
169
100
AcDbEntity
8
0
100
AcDbLine
10
-93.794960566284686
20
91.137057607088025
30
0
11
-93.609749003174329
21
91.189977503531708
31
0
0
LINE
5
170
100
AcDbEntity
8
0
100
AcDbLine
10
-93.609749003174329
20
91.189977503531708
30
0
11
-93.450997388285828
21
91.242897399975377
31
0
0
LINE
5
171
100
AcDbEntity
8
0
100
AcDbLine
10
-93.450997388285828
20
91.242897399975377
30
0
11
-93.186414054952493
21
91.348737192862757
31
0
0
LINE
5
172
100
AcDbEntity
8
0
100
AcDbLine
10
-93.186414054952493
20
91.348737192862757
30
0
11
-93.080582336507675
21
91.348737192862757
31
0
0
LINE
5
173
100
AcDbEntity
8
0
100
AcDbLine
10
-93.080582336507675
20
91.348737192862757
30
0
11
-93.001210566284712
21
91.40165708930644
31
0
0
LINE
5
174
100
AcDbEntity
8
0
100
AcDbLine
10
-93.001210566284712
20
91.40165708930644
30
0
11
-92.948290669841015
21
91.401657089306454
31
0
0
LINE
5
175
100
AcDbEntity
8
0
100
AcDbLine
10
-92.948290669841015
20
91.401657089306454
30
0
11
-92.286832336507686
21
91.772072141084621
31
0
0
LINE
5
176
100
AcDbEntity
8
0
100
AcDbLine
10
-92.286832336507686
20
91.772072141084621
30
0
11
-90.963915669840986
21
89.443742037528281
31
0
0
LINE
5
177
100
AcDbEntity
8
0
100
AcDbLine
10
-90.963915669840986
20
89.443742037528281
30
0
11
-91.572454106730646
21
89.046867037528301
31
0
0
LINE
5
178
100
AcDbEntity
8
0
100
AcDbLine
10
-91.572454106730646
20
89.046867037528301
30
0
11
-91.678293899618041
21
88.941027244640921
31
0
0
LINE
5
179
100
AcDbEntity
8
0
100
AcDbLine
10
-91.678293899618041
20
88.941027244640921
30
0
11
-91.757665669841003
21
88.888107348197252
31
0
0
LINE
5
180
100
AcDbEntity
8
0
100
AcDbLine
10
-91.757665669841003
20
88.888107348197252
30
0
11
-91.863497388285836
21
88.808735577974261
31
0
0
LINE
5
181
100
AcDbEntity
8
0
100
AcDbLine
10
-91.863497388285836
20
88.808735577974261
30
0
11
-92.39266405495249
21
88.279568911307592
31
0
0
LINE
5
182
100
AcDbEntity
8
0
100
AcDbLine
10
-92.39266405495249
20
88.279568911307592
30
0
11
-92.55141566984102
21
88.094357348197235
31
0
0
LINE
5
183
100
AcDbEntity
8
0
100
AcDbLine
10
-92.55141566984102
20
88.094357348197235
30
0
11
-92.736627232951349
21
87.882693911307598
31
0
0
LINE
5
184
100
AcDbEntity
8
0
100
AcDbLine
10
-92.736627232951349
20
87.882693911307598
30
0
11
-92.921838796061706
21
87.644570526196105
31
0
0
LINE
5
185
100
AcDbEntity
8
0
100
AcDbLine
10
-92.921838796061706
20
87.644570526196105
30
0
11
-93.107050359172064
21
87.379987192862757
31
0
0
LINE
5
186
100
AcDbEntity
8
0
100
AcDbLine
10
-93.107050359172064
20
87.379987192862757
30
0
11
-93.292261922282407
21
87.088943911307581
31
0
0
LINE
5
187
100
AcDbEntity
8
0
100
AcDbLine
10
-93.292261922282407
20
87.088943911307581
30
0
11
-93.503925359172058
21
86.771440681530564
31
0
0
LINE
5
188
100
AcDbEntity
8
0
100
AcDbLine
10
-93.503925359172058
20
86.771440681530564
30
0
11
-93.715588796061709
21
86.427485577974252
31
0
0
LINE
5
189
100
AcDbEntity
8
0
100
AcDbLine
10
-93.715588796061709
20
86.427485577974252
30
0
11
-93.927252232951375
21
86.057070526196085
31
0
0
LINE
5
190
100
AcDbEntity
8
0
100
AcDbLine
10
-93.927252232951375
20
86.057070526196085
30
0
11
-94.138915669841026
21
85.660195526196091
31
0
0
LINE
5
191
100
AcDbEntity
8
0
100
AcDbLine
10
-94.138915669841026
20
85.660195526196091
30
0
11
-94.350579106730663
21
85.236860577974255
31
0
0
LINE
5
192
100
AcDbEntity
8
0
100
AcDbLine
10
-94.350579106730663
20
85.236860577974255
30
0
11
-94.562242543620329
21
84.787065681530578
31
0
0
LINE
5
193
100
AcDbEntity
8
0
100
AcDbLine
10
-94.562242543620329
20
84.787065681530578
30
0
11
-94.5622425436203
21
84.734145785086895
31
0
0
LINE
5
194
100
AcDbEntity
8
0
100
AcDbLine
10
-94.5622425436203
20
84.734145785086895
30
0
11
-93.583280980509954
21
83.437689066642065
31
0
0
LINE
5
195
100
AcDbEntity
8
0
100
AcDbLine
10
-93.583280980509954
20
83.437689066642065
30
0
11
-93.530361084066286
21
83.437689066642065
31
0
0
LINE
5
196
100
AcDbEntity
8
0
100
AcDbLine
10
-93.530361084066286
20
83.437689066642065
30
0
11
-93.027654365621459
21
83.517060836865028
31
0
0
LINE
5
197
100
AcDbEntity
8
0
100
AcDbLine
10
-93.027654365621459
20
83.517060836865028
30
0
11
-92.551407595398473
21
83.596432607088019
31
0
0
LINE
5
198
100
AcDbEntity
8
0
100
AcDbLine
10
-92.551407595398473
20
83.596432607088019
30
0
11
-92.101612698954767
21
83.702264325532838
31
0
0
LINE
5
199
100
AcDbEntity
8
0
100
AcDbLine
10
-92.101612698954767
20
83.702264325532838
30
0
11
-91.678277750732931
21
83.80809604397767
31
0
0
LINE
5
200
100
AcDbEntity
8
0
100
AcDbLine
10
-91.678277750732931
20
83.80809604397767
30
0
11
-91.281402750732951
21
83.913927762422489
31
0
0
LINE
5
201
100
AcDbEntity
8
0
100
AcDbLine
10
-91.281402750732951
20
83.913927762422489
30
0
11
-90.910987698954798
21
84.019759480867307
31
0
0
LINE
5
202
100
AcDbEntity
8
0
100
AcDbLine
10
-90.910987698954798
20
84.019759480867307
30
0
11
-90.567032595398459
21
84.125591199312154
31
0
0
LINE
5
203
100
AcDbEntity
8
0
100
AcDbLine
10
-90.567032595398459
20
84.125591199312154
30
0
11
-90.249529365621456
21
84.231422917756959
31
0
0
LINE
5
204
100
AcDbEntity
8
0
100
AcDbLine
10
-90.249529365621456
20
84.231422917756959
30
0
11
-89.958486084066266
21
84.337254636201791
31
0
0
LINE
5
205
100
AcDbEntity
8
0
100
AcDbLine
10
-89.958486084066266
20
84.337254636201791
30
0
11
-89.69390275073296
21
84.443086354646624
31
0
0
LINE
5
206
100
AcDbEntity
8
0
100
AcDbLine
10
-89.69390275073296
20
84.443086354646624
30
0
11
-89.455779365621453
21
84.548918073091443
31
0
0
LINE
5
207
100
AcDbEntity
8
0
100
AcDbLine
10
-89.455779365621453
20
84.548918073091443
30
0
11
-89.244115928731816
21
84.654749791536261
31
0
0
LINE
5
208
100
AcDbEntity
8
0
100
AcDbLine
10
-89.244115928731816
20
84.654749791536261
30
0
11
-89.058904365621459
21
84.76058150998108
31
0
0
LINE
5
209
100
AcDbEntity
8
0
100
AcDbLine
10
-89.058904365621459
20
84.76058150998108
30
0
11
-88.900152750732957
21
84.839953280204071
31
0
0
LINE
5
210
100
AcDbEntity
8
0
100
AcDbLine
10
-88.900152750732957
20
84.839953280204071
30
0
11
-88.767861084066269
21
84.919325050427048
31
0
0
LINE
5
211
100
AcDbEntity
8
0
100
AcDbLine
10
-88.767861084066269
20
84.919325050427048
30
0
11
-88.662029365621464
21
84.998696820650025
31
0
0
LINE
5
212
100
AcDbEntity
8
0
100
AcDbLine
10
-88.662029365621464
20
84.998696820650025
30
0
11
-88.582657595398473
21
85.051616717093722
31
0
0
LINE
5
213
100
AcDbEntity
8
0
100
AcDbLine
10
-88.582657595398473
20
85.051616717093722
30
0
11
-88.52973769895479
21
85.104536613537391
31
0
0
LINE
5
214
100
AcDbEntity
8
0
100
AcDbLine
10
-88.52973769895479
20
85.104536613537391
30
0
11
-88.476817802511093
21
85.104536613537391
31
0
0
LINE
5
215
100
AcDbEntity
8
0
100
AcDbLine
10
-88.476817802511093
20
85.104536613537391
30
0
11
-88.476817802511093
21
85.157456509981074
31
0
0
LINE
5
216
100
AcDbEntity
8
0
100
AcDbLine
10
-88.476817802511093
20
85.157456509981074
30
0
11
-87.921191187622597
21
85.660163228425915
31
0
0
LINE
5
217
100
AcDbEntity
8
0
100
AcDbLine
10
-87.921191187622597
20
85.660163228425915
30
0
11
-86.042647906067415
21
83.755159998648892
31
0
0
LINE
5
218
100
AcDbEntity
8
0
100
AcDbLine
10
-86.042647906067415
20
83.755159998648892
30
0
11
-86.545354624512228
21
83.225993331982238
31
0
0
LINE
5
219
100
AcDbEntity
8
0
100
AcDbLine
10
-86.545354624512228
20
83.225993331982238
30
0
11
-86.545354624512242
21
83.173073435538555
31
0
0
SPLINE
5
220
100
AcDbEntity
8
0
100
AcDbSpline
70
0
71
2
72
6
73
3
74
0
42
0.000000001
43
0.0000000001
44
0.0000000001
40
0
40
0
40
0
40
1
40
1
40
1
10
-86.545354624512242
20
83.173073435538527
30
0
10
-86.571814572734084
20
83.173073435538527
30
0
10
-86.62472639473522
20
83.120153539094872
30
0
0
LINE
5
221
100
AcDbEntity
8
0
100
AcDbLine
10
-86.624726394735205
20
83.120153539094872
30
0
11
-86.677646291178903
21
83.040781768871895
31
0
0
LINE
5
222
100
AcDbEntity
8
0
100
AcDbLine
10
-86.677646291178903
20
83.040781768871895
30
0
11
-86.75701806140188
21
82.934950050427062
31
0
0
LINE
5
223
100
AcDbEntity
8
0
100
AcDbLine
10
-86.75701806140188
20
82.934950050427062
30
0
11
-86.836389831624871
21
82.802658383760388
31
0
0
LINE
5
224
100
AcDbEntity
8
0
100
AcDbLine
10
-86.836389831624871
20
82.802658383760388
30
0
11
-86.915761601847834
21
82.643906768871886
31
0
0
LINE
5
225
100
AcDbEntity
8
0
100
AcDbLine
10
-86.915761601847834
20
82.643906768871886
30
0
11
-87.021593320292666
21
82.458695205761529
31
0
0
LINE
5
226
100
AcDbEntity
8
0
100
AcDbLine
10
-87.021593320292666
20
82.458695205761529
30
0
11
-87.127425038737499
21
82.247031768871892
31
0
0
LINE
5
227
100
AcDbEntity
8
0
100
AcDbLine
10
-87.127425038737499
20
82.247031768871892
30
0
11
-87.233256757182303
21
82.008908383760399
31
0
0
LINE
5
228
100
AcDbEntity
8
0
100
AcDbLine
10
-87.233256757182303
20
82.008908383760399
30
0
11
-87.33908847562715
21
81.744325050427051
31
0
0
LINE
5
229
100
AcDbEntity
8
0
100
AcDbLine
10
-87.33908847562715
20
81.744325050427051
30
0
11
-87.444920194071969
21
81.453281768871889
31
0
0
LINE
5
230
100
AcDbEntity
8
0
100
AcDbLine
10
-87.444920194071969
20
81.453281768871889
30
0
11
-87.550751912516787
21
81.135778539094844
31
0
0
LINE
5
231
100
AcDbEntity
8
0
100
AcDbLine
10
-87.550751912516787
20
81.135778539094844
30
0
11
-87.65658363096162
21
80.791823435538547
31
0
0
LINE
5
232
100
AcDbEntity
8
0
100
AcDbLine
10
-87.65658363096162
20
80.791823435538547
30
0
11
-87.762415349406439
21
80.421408383760394
31
0
0
LINE
5
233
100
AcDbEntity
8
0
100
AcDbLine
10
-87.762415349406439
20
80.421408383760394
30
0
11
-87.868247067851271
21
80.024533383760399
31
0
0
LINE
5
234
100
AcDbEntity
8
0
100
AcDbLine
10
-87.868247067851271
20
80.024533383760399
30
0
11
-87.974078786296076
21
79.601198435538549
31
0
0
LINE
5
235
100
AcDbEntity
8
0
100
AcDbLine
10
-87.974078786296076
20
79.601198435538549
30
0
11
-88.079910504740923
21
79.151403539094858
31
0
0
LINE
5
236
100
AcDbEntity
8
0
100
AcDbLine
10
-88.079910504740923
20
79.151403539094858
30
0
11
-88.159282274963886
21
78.675156768871872
31
0
0
LINE
5
237
100
AcDbEntity
8
0
100
AcDbLine
10
-88.159282274963886
20
78.675156768871872
30
0
11
-88.238654045186863
21
78.172450050427045
31
0
0
LINE
5
238
100
AcDbEntity
8
0
100
AcDbLine
10
-88.238654045186863
20
78.172450050427045
30
0
11
-88.238654045186877
21
78.119530153983362
31
0
0
LINE
5
239
100
AcDbEntity
8
0
100
AcDbLine
10
-88.238654045186877
20
78.119530153983362
30
0
11
-86.942197326742061
21
77.114116717093722
31
0
0
LINE
5
240
100
AcDbEntity
8
0
100
AcDbLine
10
-86.942197326742061
20
77.114116717093722
30
0
11
-86.889277430298364
21
77.114116717093722
31
0
0
LINE
5
241
100
AcDbEntity
8
0
100
AcDbLine
10
-86.889277430298364
20
77.114116717093722
30
0
11
-86.439482533854687
21
77.352240102205215
31
0
0
LINE
5
242
100
AcDbEntity
8
0
100
AcDbLine
10
-86.439482533854687
20
77.352240102205215
30
0
11
-86.016147585632851
21
77.563903539094852
31
0
0
LINE
5
243
100
AcDbEntity
8
0
100
AcDbLine
10
-86.016147585632851
20
77.563903539094852
30
0
11
-85.619272585632842
21
77.775566975984503
31
0
0
LINE
5
244
100
AcDbEntity
8
0
100
AcDbLine
10
-85.619272585632842
20
77.775566975984503
30
0
11
-85.248857533854689
21
77.987230412874155
31
0
0
LINE
5
245
100
AcDbEntity
8
0
100
AcDbLine
10
-85.248857533854689
20
77.987230412874155
30
0
11
-84.904902430298378
21
78.198893849763792
31
0
0
LINE
5
246
100
AcDbEntity
8
0
100
AcDbLine
10
-84.904902430298378
20
78.198893849763792
30
0
11
-84.587399200521361
21
78.410557286653443
31
0
0
LINE
5
247
100
AcDbEntity
8
0
100
AcDbLine
10
-84.587399200521361
20
78.410557286653443
30
0
11
-84.296355918966185
21
78.5957688497638
31
0
0
LINE
5
248
100
AcDbEntity
8
0
100
AcDbLine
10
-84.296355918966185
20
78.5957688497638
30
0
11
-84.031772585632837
21
78.780980412874158
31
0
0
LINE
5
249
100
AcDbEntity
8
0
100
AcDbLine
10
-84.031772585632837
20
78.780980412874158
30
0
11
-83.793649200521344
21
78.966191975984515
31
0
0
LINE
5
250
100
AcDbEntity
8
0
100
AcDbLine
10
-83.793649200521344
20
78.966191975984515
30
0
11
-83.581985763631707
21
79.151403539094858
31
0
0
LINE
5
251
100
AcDbEntity
8
0
100
AcDbLine
10
-83.581985763631707
20
79.151403539094858
30
0
11
-83.396774200521349
21
79.310155153983374
31
0
0
LINE
5
252
100
AcDbEntity
8
0
100
AcDbLine
10
-83.396774200521349
20
79.310155153983374
30
0
11
-83.238022585632848
21
79.468906768871875
31
0
0
LINE
5
253
100
AcDbEntity
8
0
100
AcDbLine
10
-83.238022585632848
20
79.468906768871875
30
0
11
-83.079270970744332
21
79.601198435538549
31
0
0
LINE
5
254
100
AcDbEntity
8
0
100
AcDbLine
10
-83.079270970744332
20
79.601198435538549
30
0
11
-82.841147585632854
21
79.839321820650028
31
0
0
LINE
5
255
100
AcDbEntity
8
0
100
AcDbLine
10
-82.841147585632854
20
79.839321820650028
30
0
11
-82.761775815409848
21
79.945153539094861
31
0
0
LINE
5
256
100
AcDbEntity
8
0
100
AcDbLine
10
-82.761775815409848
20
79.945153539094861
30
0
11
-82.708855918966165
21
80.024525309317838
31
0
0
LINE
5
257
100
AcDbEntity
8
0
100
AcDbLine
10
-82.708855918966165
20
80.024525309317838
30
0
11
-82.655936022522496
21
80.077445205761521
31
0
0
LINE
5
258
100
AcDbEntity
8
0
100
AcDbLine
10
-82.655936022522496
20
80.077445205761521
30
0
11
-82.655936022522496
21
80.130365102205218
31
0
0
LINE
5
259
100
AcDbEntity
8
0
100
AcDbLine
10
-82.655936022522496
20
80.130365102205218
30
0
11
-82.603016126078813
21
80.130365102205218
31
0
0
LINE
5
260
100
AcDbEntity
8
0
100
AcDbLine
10
-82.603016126078813
20
80.130365102205218
30
0
11
-82.206141126078791
21
80.738903539094849
31
0
0
LINE
5
261
100
AcDbEntity
8
0
100
AcDbLine
10
-82.206141126078791
20
80.738903539094849
30
0
11
-79.904262896301773
21
79.389526924206365
31
0
0
LINE
5
262
100
AcDbEntity
8
0
100
AcDbLine
10
-79.904262896301773
20
79.389526924206365
30
0
11
-80.248217999858099
21
78.728068590873022
31
0
0
LINE
5
263
100
AcDbEntity
8
0
100
AcDbLine
10
-80.248217999858099
20
78.728068590873022
30
0
11
-80.248217999858099
21
78.569316975984506
31
0
0
LINE
5
264
100
AcDbEntity
8
0
100
AcDbLine
10
-80.248217999858099
20
78.569316975984506
30
0
11
-80.301137896301782
21
78.463485257539688
31
0
0
LINE
5
265
100
AcDbEntity
8
0
100
AcDbLine
10
-80.301137896301782
20
78.463485257539688
30
0
11
-80.406977689189148
21
78.198901924206339
31
0
0
LINE
5
266
100
AcDbEntity
8
0
100
AcDbLine
10
-80.406977689189148
20
78.198901924206339
30
0
11
-80.459897585632831
21
78.040150309317838
31
0
0
LINE
5
267
100
AcDbEntity
8
0
100
AcDbLine
10
-80.459897585632831
20
78.040150309317838
30
0
11
-80.512817482076514
21
77.854938746207495
31
0
0
LINE
5
268
100
AcDbEntity
8
0
100
AcDbLine
10
-80.512817482076514
20
77.854938746207495
30
0
11
-80.565737378520211
21
77.643275309317843
31
0
0
LINE
5
269
100
AcDbEntity
8
0
100
AcDbLine
10
-80.565737378520211
20
77.643275309317843
30
0
11
-80.618657274963894
21
77.405151924206336
31
0
0
LINE
5
270
100
AcDbEntity
8
0
100
AcDbLine
10
-80.618657274963894
20
77.405151924206336
30
0
11
-80.671577171407577
21
77.140568590873016
31
0
0
LINE
5
271
100
AcDbEntity
8
0
100
AcDbLine
10
-80.671577171407577
20
77.140568590873016
30
0
11
-80.671577171407591
21
76.849525309317841
31
0
0
LINE
5
272
100
AcDbEntity
8
0
100
AcDbLine
10
-80.671577171407591
20
76.849525309317841
30
0
11
-80.750948941630568
21
76.532022079540823
31
0
0
LINE
5
273
100
AcDbEntity
8
0
100
AcDbLine
10
-80.750948941630568
20
76.532022079540823
30
0
11
-80.750948941630568
21
76.188066975984498
31
0
0
LINE
5
274
100
AcDbEntity
8
0
100
AcDbLine
10
-80.750948941630568
20
76.188066975984498
30
0
11
-80.803868838074237
21
75.817651924206345
31
0
0
LINE
5
275
100
AcDbEntity
8
0
100
AcDbLine
10
-80.803868838074237
20
75.817651924206345
30
0
11
-80.803868838074237
21
74.547655153983371
31
0
0
LINE
5
276
100
AcDbEntity
8
0
100
AcDbLine
10
-80.803868838074237
20
74.547655153983371
30
0
11
-80.750948941630568
21
74.071408383760385
31
0
0
LINE
5
277
100
AcDbEntity
8
0
100
AcDbLine
10
-80.750948941630568
20
74.071408383760385
30
0
11
-80.698029045186871
21
73.568701665315558
31
0
0
LINE
5
278
100
AcDbEntity
8
0
100
AcDbLine
10
-80.698029045186871
20
73.568701665315558
30
0
11
-80.698029045186885
21
73.515781768871875
31
0
0
LINE
5
279
100
AcDbEntity
8
0
100
AcDbLine
10
-80.698029045186885
20
73.515781768871875
30
0
11
-79.189904852631145
21
72.880783383760388
31
0
0
LINE
5
280
100
AcDbEntity
8
0
100
AcDbLine
10
-79.189904852631145
20
72.880783383760388
30
0
11
-79.136988993408721
21
72.880783383760388
31
0
0
SPLINE
5
281
100
AcDbEntity
8
0
100
AcDbSpline
70
0
71
2
72
6
73
3
74
0
42
0.000000001
43
0.0000000001
44
0.0000000001
40
0
40
0
40
0
40
1
40
1
40
1
10
-79.136988993408721
20
72.880783383760388
30
0
10
-79.136988993408721
20
72.90724333198223
30
0
10
-78.740113993408713
20
73.224738487316699
30
0
0
LINE
5
282
100
AcDbEntity
8
0
100
AcDbLine
10
-78.740113993408713
20
73.224738487316714
30
0
11
-78.36969894163056
21
73.542241717093731
31
0
0
LINE
5
283
100
AcDbEntity
8
0
100
AcDbLine
10
-78.36969894163056
20
73.542241717093731
30
0
11
-78.025739800852975
21
73.833284998648892
31
0
0
LINE
5
284
100
AcDbEntity
8
0
100
AcDbLine
10
-78.025739800852975
20
73.833284998648892
30
0
11
-77.708240608297231
21
74.124328280204068
31
0
0
LINE
5
285
100
AcDbEntity
8
0
100
AcDbLine
10
-77.708240608297231
20
74.124328280204068
30
0
11
-77.152613993408721
21
74.679954895092578
31
0
0
LINE
5
286
100
AcDbEntity
8
0
100
AcDbLine
10
-77.152613993408721
20
74.679954895092578
30
0
11
-76.914490608297228
21
74.944538228425913
31
0
0
LINE
5
287
100
AcDbEntity
8
0
100
AcDbLine
10
-76.914490608297228
20
74.944538228425913
30
0
11
-76.702823134186303
21
75.182661613537405
31
0
0
LINE
5
288
100
AcDbEntity
8
0
100
AcDbLine
10
-76.702823134186303
20
75.182661613537405
30
0
11
-76.517615608297234
21
75.420784998648898
31
0
0
LINE
5
289
100
AcDbEntity
8
0
100
AcDbLine
10
-76.517615608297234
20
75.420784998648898
30
0
11
-76.358863993408718
21
75.632448435538535
31
0
0
LINE
5
290
100
AcDbEntity
8
0
100
AcDbLine
10
-76.358863993408718
20
75.632448435538535
30
0
11
-76.226572326742044
21
75.844111872428186
31
0
0
LINE
5
291
100
AcDbEntity
8
0
100
AcDbLine
10
-76.226572326742044
20
75.844111872428186
30
0
11
-76.094280660075384
21
76.029323435538544
31
0
0
LINE
5
292
100
AcDbEntity
8
0
100
AcDbLine
10
-76.094280660075384
20
76.029323435538544
30
0
11
-75.988448941630566
21
76.214534998648901
31
0
0
LINE
5
293
100
AcDbEntity
8
0
100
AcDbLine
10
-75.988448941630566
20
76.214534998648901
30
0
11
-75.909073134186315
21
76.373286613537402
31
0
0
LINE
5
294
100
AcDbEntity
8
0
100
AcDbLine
10
-75.909073134186315
20
76.373286613537402
30
0
11
-75.829697326742064
21
76.505578280204077
31
0
0
LINE
5
295
100
AcDbEntity
8
0
100
AcDbLine
10
-75.829697326742064
20
76.505578280204077
30
0
11
-75.723865608297231
21
76.717241717093714
31
0
0
LINE
5
296
100
AcDbEntity
8
0
100
AcDbLine
10
-75.723865608297231
20
76.717241717093714
30
0
11
-75.723865608297231
21
76.796613487316691
31
0
0
SPLINE
5
297
100
AcDbEntity
8
0
100
AcDbSpline
70
0
71
2
72
6
73
3
74
0
42
0.000000001
43
0.0000000001
44
0.0000000001
40
0
40
0
40
0
40
1
40
1
40
1
10
-75.723865608297231
20
76.796613487316691
30
0
10
-75.69740566007539
20
76.796613487316691
30
0
10
-75.670949749074822
20
76.849533383760388
30
0
0
LINE
5
298
100
AcDbEntity
8
0
100
AcDbLine
10
-75.670949749074822
20
76.849533383760388
30
0
11
-75.432826363963329
21
77.5639116135374
31
0
0
LINE
5
299
100
AcDbEntity
8
0
100
AcDbLine
10
-75.432826363963329
20
77.5639116135374
30
0
11
-72.866368838074237
21
76.849533383760388
31
0
0
LINE
5
300
100
AcDbEntity
8
0
100
AcDbLine
10
-72.866368838074237
20
76.849533383760388
30
0
11
-73.025120452962767
21
76.135155153983362
31
0
0
LINE
5
301
100
AcDbEntity
8
0
100
AcDbLine
10
-73.025120452962767
20
76.135155153983362
30
0
11
-73.025120452962753
21
74.441823435538538
31
0
0
SPLINE
5
302
100
AcDbEntity
8
0
100
AcDbSpline
70
0
71
2
72
6
73
3
74
0
42
0.000000001
43
0.0000000001
44
0.0000000001
40
0
40
0
40
0
40
1
40
1
40
1
10
-73.025120452962753
20
74.441823435538538
30
0
10
-72.998660504740911
20
74.441823435538538
30
0
10
-72.945744645518502
20
74.150780153983376
30
0
0
LINE
5
303
100
AcDbEntity
8
0
100
AcDbLine
10
-72.945744645518502
20
74.150780153983376
30
0
11
-72.892828786296093
21
73.833276924206345
31
0
0
LINE
5
304
100
AcDbEntity
8
0
100
AcDbLine
10
-72.892828786296093
20
73.833276924206345
30
0
11
-72.813452978851842
21
73.489321820650034
31
0
0
LINE
5
305
100
AcDbEntity
8
0
100
AcDbLine
10
-72.813452978851842
20
73.489321820650034
30
0
11
-72.734077171407577
21
73.118906768871881
31
0
0
LINE
5
306
100
AcDbEntity
8
0
100
AcDbLine
10
-72.734077171407577
20
73.118906768871881
30
0
11
-72.52241373451794
21
72.325156768871878
31
0
0
LINE
5
307
100
AcDbEntity
8
0
100
AcDbLine
10
-72.52241373451794
20
72.325156768871878
30
0
11
-72.390122067851266
21
71.901821820650028
31
0
0
LINE
5
308
100
AcDbEntity
8
0
100
AcDbLine
10
-72.390122067851266
20
71.901821820650028
30
0
11
-72.23137045296275
21
71.452030961427624
31
0
0
LINE
5
309
100
AcDbEntity
8
0
100
AcDbLine
10
-72.23137045296275
20
71.452030961427624
30
0
11
-72.046162927073681
21
70.975780153983365
31
0
0
LINE
5
310
100
AcDbEntity
8
0
100
AcDbLine
10
-72.046162927073681
20
70.975780153983365
30
0
11
-72.046162927073681
21
70.922864294760956
31
0
0
LINE
5
311
100
AcDbEntity
8
0
100
AcDbLine
10
-72.046162927073681
20
70.922864294760956
30
0
11
-72.019702978851839
21
70.922864294760956
31
0
0
LINE
5
312
100
AcDbEntity
8
0
100
AcDbLine
10
-72.019702978851839
20
70.922864294760956
30
0
11
-70.405743030629992
21
70.711196820650031
31
0
0
LINE
5
313
100
AcDbEntity
8
0
100
AcDbLine
10
-70.405743030629992
20
70.711196820650031
30
0
11
-70.405743030629992
21
70.76411267987244
31
0
0
SPLINE
5
314
100
AcDbEntity
8
0
100
AcDbSpline
70
0
71
2
72
6
73
3
74
0
42
0.000000001
43
0.0000000001
44
0.0000000001
40
0
40
0
40
0
40
1
40
1
40
1
10
-70.405743030629992
20
70.76411267987244
30
0
10
-70.379283082408165
20
70.76411267987244
30
0
10
-70.061783889852421
20
71.160987679872449
30
0
0
LINE
5
315
100
AcDbEntity
8
0
100
AcDbLine
10
-70.061783889852407
20
71.160987679872449
30
0
11
-69.797200556519087
21
71.557862679872443
31
0
0
LINE
5
316
100
AcDbEntity
8
0
100
AcDbLine
10
-69.797200556519087
20
71.557862679872443
30
0
11
-69.559077171407594
21
71.92827773165061
31
0
0
LINE
5
317
100
AcDbEntity
8
0
100
AcDbLine
10
-69.559077171407594
20
71.92827773165061
30
0
11
-69.347409697296669
21
72.298692783428763
31
0
0
LINE
5
318
100
AcDbEntity
8
0
100
AcDbLine
10
-69.347409697296669
20
72.298692783428763
30
0
11
-69.135742223185744
21
72.642651924206348
31
0
0
LINE
5
319
100
AcDbEntity
8
0
100
AcDbLine
10
-69.135742223185744
20
72.642651924206348
30
0
11
-68.950534697296661
21
72.986607027762659
31
0
0
LINE
5
320
100
AcDbEntity
8
0
100
AcDbLine
10
-68.950534697296661
20
72.986607027762659
30
0
11
-68.791783082408159
21
73.304110257539691
31
0
0
LINE
5
321
100
AcDbEntity
8
0
100
AcDbLine
10
-68.791783082408159
20
73.304110257539691
30
0
11
-68.659491415741485
21
73.595153539094852
31
0
0
LINE
5
322
100
AcDbEntity
8
0
100
AcDbLine
10
-68.659491415741485
20
73.595153539094852
30
0
11
-68.447827978851848
21
74.124320205761521
31
0
0
LINE
5
323
100
AcDbEntity
8
0
100
AcDbLine
10
-68.447827978851848
20
74.124320205761521
30
0
11
-68.368452171407597
21
74.362443590873013
31
0
0
LINE
5
324
100
AcDbEntity
8
0
100
AcDbLine
10
-68.368452171407597
20
74.362443590873013
30
0
11
-68.289076363963346
21
74.574107027762665
31
0
0
LINE
5
325
100
AcDbEntity
8
0
100
AcDbLine
10
-68.289076363963346
20
74.574107027762665
30
0
11
-68.236160504740923
21
74.759318590873008
31
0
0
LINE
5
326
100
AcDbEntity
8
0
100
AcDbLine
10
-68.236160504740923
20
74.759318590873008
30
0
11
-68.183244645518513
21
74.918070205761524
31
0
0
LINE
5
327
100
AcDbEntity
8
0
100
AcDbLine
10
-68.183244645518513
20
74.918070205761524
30
0
11
-68.183244645518513
21
75.076821820650039
31
0
0
LINE
5
328
100
AcDbEntity
8
0
100
AcDbLine
10
-68.183244645518513
20
75.076821820650039
30
0
11
-68.130328786296104
21
75.209113487316699
31
0
0
LINE
5
329
100
AcDbEntity
8
0
100
AcDbLine
10
-68.130328786296104
20
75.209113487316699
30
0
11
-68.130328786296104
21
75.394325050427057
31
0
0
SPLINE
5
330
100
AcDbEntity
8
0
100
AcDbSpline
70
0
71
2
72
6
73
3
74
0
42
0.000000001
43
0.0000000001
44
0.0000000001
40
0
40
0
40
0
40
1
40
1
40
1
10
-68.130328786296104
20
75.394325050427057
30
0
10
-68.103868838074263
20
75.394325050427057
30
0
10
-68.103868838074263
20
75.44724494687074
30
0
0
LINE
5
331
100
AcDbEntity
8
0
100
AcDbLine
10
-68.103868838074263
20
75.44724494687074
30
0
11
-68.103868838074263
21
76.214534998648901
31
0
0
LINE
5
332
100
AcDbEntity
8
0
100
AcDbLine
10
-68.103868838074263
20
76.214534998648901
30
0
11
-65.405119645518511
21
76.214534998648901
31
0
0
LINE
5
333
100
AcDbEntity
8
0
100
AcDbLine
10
-65.405119645518511
20
76.214534998648901
30
0
11
-65.405119645518511
21
75.209121561759247
31
0
0
LINE
5
334
100
AcDbEntity
8
0
100
AcDbLine
10
-65.405119645518511
20
75.209121561759247
30
0
11
-65.352203786296101
21
75.076829895092573
31
0
0
LINE
5
335
100
AcDbEntity
8
0
100
AcDbLine
10
-65.352203786296101
20
75.076829895092573
30
0
11
-65.352203786296101
21
74.918078280204071
31
0
0
LINE
5
336
100
AcDbEntity
8
0
100
AcDbLine
10
-65.352203786296101
20
74.918078280204071
30
0
11
-65.272827978851851
21
74.759326665315555
31
0
0
LINE
5
337
100
AcDbEntity
8
0
100
AcDbLine
10
-65.272827978851851
20
74.759326665315555
30
0
11
-65.219912119629427
21
74.574115102205212
31
0
0
LINE
5
338
100
AcDbEntity
8
0
100
AcDbLine
10
-65.219912119629427
20
74.574115102205212
30
0
11
-65.140536312185176
21
74.362451665315561
31
0
0
LINE
5
339
100
AcDbEntity
8
0
100
AcDbLine
10
-65.140536312185176
20
74.362451665315561
30
0
11
-65.061160504740926
21
74.124328280204068
31
0
0
LINE
5
340
100
AcDbEntity
8
0
100
AcDbLine
10
-65.061160504740926
20
74.124328280204068
30
0
11
-64.955328786296093
21
73.859744946870734
31
0
0
LINE
5
341
100
AcDbEntity
8
0
100
AcDbLine
10
-64.955328786296093
20
73.859744946870734
30
0
11
-64.849497067851274
21
73.568701665315558
31
0
0
LINE
5
342
100
AcDbEntity
8
0
100
AcDbLine
10
-64.849497067851274
20
73.568701665315558
30
0
11
-64.7172054011846
21
73.277658383760397
31
0
0
LINE
5
343
100
AcDbEntity
8
0
100
AcDbLine
10
-64.7172054011846
20
73.277658383760397
30
0
11
-64.558453786296099
21
72.960155153983365
31
0
0
LINE
5
344
100
AcDbEntity
8
0
100
AcDbLine
10
-64.558453786296099
20
72.960155153983365
30
0
11
-64.188038734517946
21
72.272236872428181
31
0
0
LINE
5
345
100
AcDbEntity
8
0
100
AcDbLine
10
-64.188038734517946
20
72.272236872428181
30
0
11
-63.976371260407021
21
71.901821820650042
31
0
0
LINE
5
346
100
AcDbEntity
8
0
100
AcDbLine
10
-63.976371260407021
20
71.901821820650042
30
0
11
-63.738247875295528
21
71.531406768871875
31
0
0
LINE
5
347
100
AcDbEntity
8
0
100
AcDbLine
10
-63.738247875295528
20
71.531406768871875
30
0
11
-63.473664541962194
21
71.134531768871881
31
0
0
LINE
5
348
100
AcDbEntity
8
0
100
AcDbLine
10
-63.473664541962194
20
71.134531768871881
30
0
11
-63.182621260407018
21
70.737656768871872
31
0
0
LINE
5
349
100
AcDbEntity
8
0
100
AcDbLine
10
-63.182621260407018
20
70.737656768871872
30
0
11
-63.182621260407018
21
70.684740909649463
31
0
0
LINE
5
350
100
AcDbEntity
8
0
100
AcDbLine
10
-63.182621260407018
20
70.684740909649463
30
0
11
-63.129705401184609
21
70.684740909649463
31
0
0
LINE
5
351
100
AcDbEntity
8
0
100
AcDbLine
10
-63.129705401184609
20
70.684740909649463
30
0
11
-61.515745452962769
21
70.896408383760388
31
0
0
LINE
5
352
100
AcDbEntity
8
0
100
AcDbLine
10
-61.515745452962769
20
70.896408383760388
30
0
11
-61.515745452962769
21
70.949324242982797
31
0
0
LINE
5
353
100
AcDbEntity
8
0
100
AcDbLine
10
-61.515745452962769
20
70.949324242982797
30
0
11
-61.304077978851844
21
71.425575050427057
31
0
0
LINE
5
354
100
AcDbEntity
8
0
100
AcDbLine
10
-61.304077978851844
20
71.425575050427057
30
0
11
-61.145326363963335
21
71.875365909649474
31
0
0
LINE
5
355
100
AcDbEntity
8
0
100
AcDbLine
10
-61.145326363963335
20
71.875365909649474
30
0
11
-61.013034697296661
21
72.298700857871296
31
0
0
LINE
5
356
100
AcDbEntity
8
0
100
AcDbLine
10
-61.013034697296661
20
72.298700857871296
30
0
11
-60.880743030629993
21
72.695575857871304
31
0
0
LINE
5
357
100
AcDbEntity
8
0
100
AcDbLine
10
-60.880743030629993
20
72.695575857871304
30
0
11
-60.774911312185182
21
73.092446820650025
31
0
0
LINE
5
358
100
AcDbEntity
8
0
100
AcDbLine
10
-60.774911312185182
20
73.092446820650025
30
0
11
-60.695535504740917
21
73.462861872428192
31
0
0
LINE
5
359
100
AcDbEntity
8
0
100
AcDbLine
10
-60.695535504740917
20
73.462861872428192
30
0
11
-60.616159697296666
21
73.806816975984503
31
0
0
LINE
5
360
100
AcDbEntity
8
0
100
AcDbLine
10
-60.616159697296666
20
73.806816975984503
30
0
11
-60.563243838074257
21
74.124320205761521
31
0
0
LINE
5
361
100
AcDbEntity
8
0
100
AcDbLine
10
-60.563243838074257
20
74.124320205761521
30
0
11
-60.510327978851848
21
74.415363487316696
31
0
0
LINE
5
362
100
AcDbEntity
8
0
100
AcDbLine
10
-60.510327978851848
20
74.415363487316696
30
0
11
-60.510327978851841
21
74.679946820650031
31
0
0
SPLINE
5
363
100
AcDbEntity
8
0
100
AcDbSpline
70
0
71
2
72
6
73
3
74
0
42
0.000000001
43
0.0000000001
44
0.0000000001
40
0
40
0
40
0
40
1
40
1
40
1
10
-60.510327978851841
20
74.679946820650031
30
0
10
-60.483868030629999
20
74.679946820650031
30
0
10
-60.457412119629424
20
74.918070205761524
30
0
0
LINE
5
364
100
AcDbEntity
8
0
100
AcDbLine
10
-60.457412119629424
20
74.918070205761524
30
0
11
-60.457412119629424
21
76.082235257539679
31
0
0
SPLINE
5
365
100
AcDbEntity
8
0
100
AcDbSpline
70
0
71
2
72
6
73
3
74
0
42
0.000000001
43
0.0000000001
44
0.0000000001
40
0
40
0
40
0
40
1
40
1
40
1
10
-60.457412119629424
20
76.082235257539679
30
0
10
-60.457412119629424
20
76.108695205761521
30
0
10
-60.61616373451794
20
76.823065361095999
30
0
0
LINE
5
366
100
AcDbEntity
8
0
100
AcDbLine
10
-60.61616373451794
20
76.823065361096013
30
0
11
-58.023246260407014
21
77.510983642651169
31
0
0
LINE
5
367
100
AcDbEntity
8
0
100
AcDbLine
10
-58.023246260407014
20
77.510983642651169
30
0
11
-57.811578786296096
21
76.796605412874158
31
0
0
LINE
5
368
100
AcDbEntity
8
0
100
AcDbLine
10
-57.811578786296096
20
76.796605412874158
30
0
11
-57.811578786296096
21
76.637853797985656
31
0
0
LINE
5
369
100
AcDbEntity
8
0
100
AcDbLine
10
-57.811578786296096
20
76.637853797985656
30
0
11
-57.732202978851845
21
76.532022079540823
31
0
0
LINE
5
370
100
AcDbEntity
8
0
100
AcDbLine
10
-57.732202978851845
20
76.532022079540823
30
0
11
-57.679287119629436
21
76.426190361095991
31
0
0
LINE
5
371
100
AcDbEntity
8
0
100
AcDbLine
10
-57.679287119629436
20
76.426190361095991
30
0
11
-57.599911312185185
21
76.29389869442933
31
0
0
LINE
5
372
100
AcDbEntity
8
0
100
AcDbLine
10
-57.599911312185185
20
76.29389869442933
30
0
11
-57.52053550474092
21
76.135147079540829
31
0
0
LINE
5
373
100
AcDbEntity
8
0
100
AcDbLine
10
-57.52053550474092
20
76.135147079540829
30
0
11
-57.414703786296101
21
75.949935516430472
31
0
0
LINE
5
374
100
AcDbEntity
8
0
100
AcDbLine
10
-57.414703786296101
20
75.949935516430472
30
0
11
-57.282412119629427
21
75.764723953320129
31
0
0
LINE
5
375
100
AcDbEntity
8
0
100
AcDbLine
10
-57.282412119629427
20
75.764723953320129
30
0
11
-57.15012045296276
21
75.553060516430463
31
0
0
LINE
5
376
100
AcDbEntity
8
0
100
AcDbLine
10
-57.15012045296276
20
75.553060516430463
30
0
11
-56.991368838074258
21
75.341397079540826
31
0
0
LINE
5
377
100
AcDbEntity
8
0
100
AcDbLine
10
-56.991368838074258
20
75.341397079540826
30
0
11
-56.806161312185175
21
75.103273694429319
31
0
0
LINE
5
378
100
AcDbEntity
8
0
100
AcDbLine
10
-56.806161312185175
20
75.103273694429319
30
0
11
-56.594493838074257
21
74.838690361095999
31
0
0
LINE
5
379
100
AcDbEntity
8
0
100
AcDbLine
10
-56.594493838074257
20
74.838690361095999
30
0
11
-56.356370452962764
21
74.574107027762665
31
0
0
LINE
5
380
100
AcDbEntity
8
0
100
AcDbLine
10
-56.356370452962764
20
74.574107027762665
30
0
11
-55.800743838074254
21
74.018480412874155
31
0
0
LINE
5
381
100
AcDbEntity
8
0
100
AcDbLine
10
-55.800743838074254
20
74.018480412874155
30
0
11
-55.483244645518511
21
73.727437131318979
31
0
0
LINE
5
382
100
AcDbEntity
8
0
100
AcDbLine
10
-55.483244645518511
20
73.727437131318979
30
0
11
-55.139285504740918
21
73.436393849763817
31
0
0
LINE
5
383
100
AcDbEntity
8
0
100
AcDbLine
10
-55.139285504740918
20
73.436393849763817
30
0
11
-54.768870452962766
21
73.118890619986786
31
0
0
LINE
5
384
100
AcDbEntity
8
0
100
AcDbLine
10
-54.768870452962766
20
73.118890619986786
30
0
11
-54.371995452962764
21
72.801391427431042
31
0
0
LINE
5
385
100
AcDbEntity
8
0
100
AcDbLine
10
-54.371995452962764
20
72.801391427431042
30
0
11
-54.319079593740355
21
72.748475568208619
31
0
0
LINE
5
386
100
AcDbEntity
8
0
100
AcDbLine
10
-54.319079593740355
20
72.748475568208619
30
0
11
-52.810955401184607
21
73.357014005098279
31
0
0
LINE
5
387
100
AcDbEntity
8
0
100
AcDbLine
10
-52.810955401184607
20
73.357014005098279
30
0
11
-52.810955401184607
21
73.409933901541962
31
0
0
LINE
5
388
100
AcDbEntity
8
0
100
AcDbLine
10
-52.810955401184607
20
73.409933901541962
30
0
11
-52.758039541962198
21
73.912640619986789
31
0
0
LINE
5
389
100
AcDbEntity
8
0
100
AcDbLine
10
-52.758039541962198
20
73.912640619986789
30
0
11
-52.758039541962198
21
74.38888739020976
31
0
0
SPLINE
5
390
100
AcDbEntity
8
0
100
AcDbSpline
70
0
71
2
72
6
73
3
74
0
42
0.000000001
43
0.0000000001
44
0.0000000001
40
0
40
0
40
0
40
1
40
1
40
1
10
-52.758039541962198
20
74.38888739020976
30
0
10
-52.731579593740349
20
74.38888739020976
30
0
10
-52.705123682739774
20
74.838682286653452
30
0
0
LINE
5
391
100
AcDbEntity
8
0
100
AcDbLine
10
-52.705123682739774
20
74.838682286653452
30
0
11
-52.705123682739774
21
76.373262390209774
31
0
0
SPLINE
5
392
100
AcDbEntity
8
0
100
AcDbSpline
70
0
71
2
72
6
73
3
74
0
42
0.000000001
43
0.0000000001
44
0.0000000001
40
0
40
0
40
0
40
1
40
1
40
1
10
-52.705123682739774
20
76.373262390209774
30
0
10
-52.731583630961623
20
76.373262390209774
30
0
10
-52.731583630961623
20
76.690765619986777
30
0
0
LINE
5
393
100
AcDbEntity
8
0
100
AcDbLine
10
-52.731583630961623
20
76.690765619986777
30
0
11
-52.810959438405874
21
76.981808901541953
31
0
0
LINE
5
394
100
AcDbEntity
8
0
100
AcDbLine
10
-52.810959438405874
20
76.981808901541953
30
0
11
-52.863875297628283
21
77.246392234875302
31
0
0
LINE
5
395
100
AcDbEntity
8
0
100
AcDbLine
10
-52.863875297628283
20
77.246392234875302
30
0
11
-52.916791156850699
21
77.484515619986794
31
0
0
LINE
5
396
100
AcDbEntity
8
0
100
AcDbLine
10
-52.916791156850699
20
77.484515619986794
30
0
11
-52.969707016073109
21
77.696179056876431
31
0
0
LINE
5
397
100
AcDbEntity
8
0
100
AcDbLine
10
-52.969707016073109
20
77.696179056876431
30
0
11
-53.022622875295525
21
77.881390619986789
31
0
0
LINE
5
398
100
AcDbEntity
8
0
100
AcDbLine
10
-53.022622875295525
20
77.881390619986789
30
0
11
-53.075538734517941
21
78.04014223487529
31
0
0
LINE
5
399
100
AcDbEntity
8
0
100
AcDbLine
10
-53.075538734517941
20
78.04014223487529
30
0
11
-53.18137045296276
21
78.304725568208639
31
0
0
LINE
5
400
100
AcDbEntity
8
0
100
AcDbLine
10
-53.18137045296276
20
78.304725568208639
30
0
11
-53.18137045296276
21
78.410557286653443
31
0
0
SPLINE
5
401
100
AcDbEntity
8
0
100
AcDbSpline
70
0
71
2
72
6
73
3
74
0
42
0.000000001
43
0.0000000001
44
0.0000000001
40
0
40
0
40
0
40
1
40
1
40
1
10
-53.18137045296276
20
78.410557286653443
30
0
10
-53.207830401184601
20
78.410557286653443
30
0
10
-53.234286312185176
20
78.489929056876434
30
0
0
LINE
5
402
100
AcDbEntity
8
0
100
AcDbLine
10
-53.234286312185176
20
78.489929056876434
30
0
11
-53.234286312185176
21
78.542848953320117
31
0
0
LINE
5
403
100
AcDbEntity
8
0
100
AcDbLine
10
-53.234286312185176
20
78.542848953320117
30
0
11
-53.578245452962761
21
79.20430728665346
31
0
0
LINE
5
404
100
AcDbEntity
8
0
100
AcDbLine
10
-53.578245452962761
20
79.20430728665346
30
0
11
-51.249911312185176
21
80.527223953320117
31
0
0
LINE
5
405
100
AcDbEntity
8
0
100
AcDbLine
10
-51.249911312185176
20
80.527223953320117
30
0
11
-50.853036312185182
21
79.918685516430472
31
0
0
LINE
5
406
100
AcDbEntity
8
0
100
AcDbLine
10
-50.853036312185182
20
79.918685516430472
30
0
11
-50.853036312185168
21
79.865765619986774
31
0
0
LINE
5
407
100
AcDbEntity
8
0
100
AcDbLine
10
-50.853036312185168
20
79.865765619986774
30
0
11
-50.773660504740917
21
79.812845723543091
31
0
0
LINE
5
408
100
AcDbEntity
8
0
100
AcDbLine
10
-50.773660504740917
20
79.812845723543091
30
0
11
-50.720744645518508
21
79.733473953320114
31
0
0
LINE
5
409
100
AcDbEntity
8
0
100
AcDbLine
10
-50.720744645518508
20
79.733473953320114
30
0
11
-50.641368838074257
21
79.627642234875296
31
0
0
LINE
5
410
100
AcDbEntity
8
0
100
AcDbLine
10
-50.641368838074257
20
79.627642234875296
30
0
11
-50.112202171407588
21
79.098475568208627
31
0
0
LINE
5
411
100
AcDbEntity
8
0
100
AcDbLine
10
-50.112202171407588
20
79.098475568208627
30
0
11
-49.926994645518512
21
78.939723953320112
31
0
0
LINE
5
412
100
AcDbEntity
8
0
100
AcDbLine
10
-49.926994645518512
20
78.939723953320112
30
0
11
-49.715327171407594
21
78.754512390209769
31
0
0
LINE
5
413
100
AcDbEntity
8
0
100
AcDbLine
10
-49.715327171407594
20
78.754512390209769
30
0
11
-49.477203786296101
21
78.569300827099411
31
0
0
LINE
5
414
100
AcDbEntity
8
0
100
AcDbLine
10
-49.477203786296101
20
78.569300827099411
30
0
11
-49.212620452962767
21
78.384089263989068
31
0
0
LINE
5
415
100
AcDbEntity
8
0
100
AcDbLine
10
-49.212620452962767
20
78.384089263989068
30
0
11
-48.921577171407584
21
78.198877700878711
31
0
0
LINE
5
416
100
AcDbEntity
8
0
100
AcDbLine
10
-48.921577171407584
20
78.198877700878711
30
0
11
-48.604077978851841
21
77.987214263989074
31
0
0
LINE
5
417
100
AcDbEntity
8
0
100
AcDbLine
10
-48.604077978851841
20
77.987214263989074
30
0
11
-48.260118838074256
21
77.775550827099408
31
0
0
LINE
5
418
100
AcDbEntity
8
0
100
AcDbLine
10
-48.260118838074256
20
77.775550827099408
30
0
11
-47.889703786296096
21
77.563887390209771
31
0
0
LINE
5
419
100
AcDbEntity
8
0
100
AcDbLine
10
-47.889703786296096
20
77.563887390209771
30
0
11
-47.492828786296101
21
77.352223953320134
31
0
0
LINE
5
420
100
AcDbEntity
8
0
100
AcDbLine
10
-47.492828786296101
20
77.352223953320134
30
0
11
-47.069493838074251
21
77.140560516430469
31
0
0
LINE
5
421
100
AcDbEntity
8
0
100
AcDbLine
10
-47.069493838074251
20
77.140560516430469
30
0
11
-46.619702978851834
21
76.928897079540832
31
0
0
LINE
5
422
100
AcDbEntity
8
0
100
AcDbLine
10
-46.619702978851834
20
76.928897079540832
30
0
11
-46.566787119629424
21
76.928897079540818
31
0
0
SPLINE
5
423
100
AcDbEntity
8
0
100
AcDbSpline
70
0
71
2
72
6
73
3
74
0
42
0.000000001
43
0.0000000001
44
0.0000000001
40
0
40
0
40
0
40
1
40
1
40
1
10
-46.566787119629431
20
76.928897079540818
30
0
10
-46.566787119629431
20
76.902437131318976
30
0
10
-45.270328382573965
20
77.881398694429322
30
0
0
LINE
5
424
100
AcDbEntity
8
0
100
AcDbLine
10
-45.270328382573965
20
77.881398694429322
30
0
11
-45.270328382573965
21
77.934318590873019
31
0
0
LINE
5
425
100
AcDbEntity
8
0
100
AcDbLine
10
-45.270328382573965
20
77.934318590873019
30
0
11
-45.349704190018215
21
78.437025309317846
31
0
0
LINE
5
426
100
AcDbEntity
8
0
100
AcDbLine
10
-45.349704190018215
20
78.437025309317846
30
0
11
-45.429079997462473
21
78.913272079540832
31
0
0
LINE
5
427
100
AcDbEntity
8
0
100
AcDbLine
10
-45.429079997462473
20
78.913272079540832
30
0
11
-45.534913734517943
21
79.363066975984509
31
0
0
LINE
5
428
100
AcDbEntity
8
0
100
AcDbLine
10
-45.534913734517943
20
79.363066975984509
30
0
11
-45.640745452962754
21
79.786401924206359
31
0
0
LINE
5
429
100
AcDbEntity
8
0
100
AcDbLine
10
-45.640745452962754
20
79.786401924206359
30
0
11
-45.74657717140758
21
80.183276924206353
31
0
0
LINE
5
430
100
AcDbEntity
8
0
100
AcDbLine
10
-45.74657717140758
20
80.183276924206353
30
0
11
-45.852408889852406
21
80.553691975984506
31
0
0
LINE
5
431
100
AcDbEntity
8
0
100
AcDbLine
10
-45.852408889852406
20
80.553691975984506
30
0
11
-45.958240608297231
21
80.897647079540818
31
0
0
LINE
5
432
100
AcDbEntity
8
0
100
AcDbLine
10
-45.958240608297231
20
80.897647079540818
30
0
11
-46.064072326742064
21
81.215150309317835
31
0
0
LINE
5
433
100
AcDbEntity
8
0
100
AcDbLine
10
-46.064072326742064
20
81.215150309317835
30
0
11
-46.169904045186883
21
81.506193590873011
31
0
0
LINE
5
434
100
AcDbEntity
8
0
100
AcDbLine
10
-46.169904045186883
20
81.506193590873011
30
0
11
-46.275735763631701
21
81.770776924206359
31
0
0
LINE
5
435
100
AcDbEntity
8
0
100
AcDbLine
10
-46.275735763631701
20
81.770776924206359
30
0
11
-46.381567482076527
21
82.008900309317852
31
0
0
LINE
5
436
100
AcDbEntity
8
0
100
AcDbLine
10
-46.381567482076527
20
82.008900309317852
30
0
11
-46.487399200521352
21
82.220563746207489
31
0
0
LINE
5
437
100
AcDbEntity
8
0
100
AcDbLine
10
-46.487399200521352
20
82.220563746207489
30
0
11
-46.593230918966171
21
82.405775309317846
31
0
0
LINE
5
438
100
AcDbEntity
8
0
100
AcDbLine
10
-46.593230918966171
20
82.405775309317846
30
0
11
-46.672606726410429
21
82.564526924206348
31
0
0
LINE
5
439
100
AcDbEntity
8
0
100
AcDbLine
10
-46.672606726410429
20
82.564526924206348
30
0
11
-46.751982533854687
21
82.696818590873008
31
0
0
LINE
5
440
100
AcDbEntity
8
0
100
AcDbLine
10
-46.751982533854687
20
82.696818590873008
30
0
11
-46.831358341298937
21
82.802650309317855
31
0
0
LINE
5
441
100
AcDbEntity
8
0
100
AcDbLine
10
-46.831358341298937
20
82.802650309317855
30
0
11
-46.884274200521354
21
82.882022079540803
31
0
0
LINE
5
442
100
AcDbEntity
8
0
100
AcDbLine
10
-46.884274200521354
20
82.882022079540803
30
0
11
-46.93719005974377
21
82.934941975984501
31
0
0
LINE
5
443
100
AcDbEntity
8
0
100
AcDbLine
10
-46.93719005974377
20
82.934941975984501
30
0
11
-46.937190059743763
21
82.987861872428198
31
0
0
LINE
5
444
100
AcDbEntity
8
0
100
AcDbLine
10
-46.937190059743763
20
82.987861872428198
30
0
11
-46.990105918966172
21
82.987861872428184
31
0
0
LINE
5
445
100
AcDbEntity
8
0
100
AcDbLine
10
-46.990105918966172
20
82.987861872428184
30
0
11
-47.492812637411006
21
83.543488487316679
31
0
0
LINE
5
446
100
AcDbEntity
8
0
100
AcDbLine
10
-47.492812637411006
20
83.543488487316679
30
0
11
-45.58781344485525
21
85.422031768871861
31
0
0
LINE
5
447
100
AcDbEntity
8
0
100
AcDbLine
10
-45.58781344485525
20
85.422031768871861
30
0
11
-45.058646778188596
21
84.919325050427062
31
0
0
LINE
5
448
100
AcDbEntity
8
0
100
AcDbLine
10
-45.058646778188596
20
84.919325050427062
30
0
11
-44.95281505974377
21
84.813485257539668
31
0
0
LINE
5
449
100
AcDbEntity
8
0
100
AcDbLine
10
-44.95281505974377
20
84.813485257539668
30
0
11
-44.873439252299519
21
84.760565361096013
31
0
0
LINE
5
450
100
AcDbEntity
8
0
100
AcDbLine
10
-44.873439252299519
20
84.760565361096013
30
0
11
-44.767605515244057
21
84.681193590873022
31
0
0
LINE
5
451
100
AcDbEntity
8
0
100
AcDbLine
10
-44.767605515244057
20
84.681193590873022
30
0
11
-44.63531384857739
21
84.601821820650045
31
0
0
LINE
5
452
100
AcDbEntity
8
0
100
AcDbLine
10
-44.63531384857739
20
84.601821820650045
30
0
11
-44.476564252299511
21
84.522450050427068
31
0
0
LINE
5
453
100
AcDbEntity
8
0
100
AcDbLine
10
-44.476564252299511
20
84.522450050427068
30
0
11
-44.291356726410427
21
84.416618331982235
31
0
0
LINE
5
454
100
AcDbEntity
8
0
100
AcDbLine
10
-44.291356726410427
20
84.416618331982235
30
0
11
-44.079689252299517
21
84.310786613537402
31
0
0
LINE
5
455
100
AcDbEntity
8
0
100
AcDbLine
10
-44.079689252299517
20
84.310786613537402
30
0
11
-43.841563848577394
21
84.204954895092584
31
0
0
LINE
5
456
100
AcDbEntity
8
0
100
AcDbLine
10
-43.841563848577394
20
84.204954895092584
30
0
11
-43.576980515244053
21
84.099123176647751
31
0
0
LINE
5
457
100
AcDbEntity
8
0
100
AcDbLine
10
-43.576980515244053
20
84.099123176647751
30
0
11
-43.285939252299521
21
83.993291458202947
31
0
0
LINE
5
458
100
AcDbEntity
8
0
100
AcDbLine
10
-43.285939252299521
20
83.993291458202947
30
0
11
-42.96844005974377
21
83.8874597397581
31
0
0
LINE
5
459
100
AcDbEntity
8
0
100
AcDbLine
10
-42.96844005974377
20
83.8874597397581
30
0
11
-42.624480918966185
21
83.781628021313296
31
0
0
LINE
5
460
100
AcDbEntity
8
0
100
AcDbLine
10
-42.624480918966185
20
83.781628021313296
30
0
11
-42.254063848577381
21
83.675796302868463
31
0
0
LINE
5
461
100
AcDbEntity
8
0
100
AcDbLine
10
-42.254063848577381
20
83.675796302868463
30
0
11
-41.857188848577387
21
83.569964584423644
31
0
0
LINE
5
462
100
AcDbEntity
8
0
100
AcDbLine
10
-41.857188848577387
20
83.569964584423644
30
0
11
-41.433855918966181
21
83.464132865978812
31
0
0
LINE
5
463
100
AcDbEntity
8
0
100
AcDbLine
10
-41.433855918966181
20
83.464132865978812
30
0
11
-40.984065059743777
21
83.358301147533993
31
0
0
LINE
5
464
100
AcDbEntity
8
0
100
AcDbLine
10
-40.984065059743777
20
83.358301147533993
30
0
11
-40.507814252299525
21
83.278929377311002
31
0
0
LINE
5
465
100
AcDbEntity
8
0
100
AcDbLine
10
-40.507814252299525
20
83.278929377311002
30
0
11
-40.005105515244054
21
83.199557607088025
31
0
0
LINE
5
466
100
AcDbEntity
8
0
100
AcDbLine
10
-40.005105515244054
20
83.199557607088025
30
0
11
-39.952189656021638
21
83.199557607088011
31
0
0
LINE
5
467
100
AcDbEntity
8
0
100
AcDbLine
10
-39.952189656021638
20
83.199557607088011
30
0
11
-38.946772181910717
21
84.496014325532826
31
0
0
LINE
5
468
100
AcDbEntity
8
0
100
AcDbLine
10
-38.946772181910717
20
84.496014325532826
30
0
11
-38.946772181910717
21
84.548934221976538
31
0
0
LINE
5
469
100
AcDbEntity
8
0
100
AcDbLine
10
-38.946772181910717
20
84.548934221976538
30
0
11
-39.184897585632847
21
84.998729118420201
31
0
0
LINE
5
470
100
AcDbEntity
8
0
100
AcDbLine
10
-39.184897585632847
20
84.998729118420201
30
0
11
-39.396565059743772
21
85.422064066642051
31
0
0
LINE
5
471
100
AcDbEntity
8
0
100
AcDbLine
10
-39.396565059743772
20
85.422064066642051
30
0
11
-39.608232533854689
21
85.818939066642059
31
0
0
LINE
5
472
100
AcDbEntity
8
0
100
AcDbLine
10
-39.608232533854689
20
85.818939066642059
30
0
11
-39.819900007965614
21
86.189354118420226
31
0
0
LINE
5
473
100
AcDbEntity
8
0
100
AcDbLine
10
-39.819900007965614
20
86.189354118420226
30
0
11
-40.031567482076525
21
86.533309221976538
31
0
0
LINE
5
474
100
AcDbEntity
8
0
100
AcDbLine
10
-40.031567482076525
20
86.533309221976538
30
0
11
-40.24323495618745
21
86.850812451753555
31
0
0
LINE
5
475
100
AcDbEntity
8
0
100
AcDbLine
10
-40.24323495618745
20
86.850812451753555
30
0
11
-40.42844248207652
21
87.141855733308731
31
0
0
LINE
5
476
100
AcDbEntity
8
0
100
AcDbLine
10
-40.42844248207652
20
87.141855733308731
30
0
11
-40.613650007965617
21
87.406439066642065
31
0
0
LINE
5
477
100
AcDbEntity
8
0
100
AcDbLine
10
-40.613650007965617
20
87.406439066642065
30
0
11
-40.798857533854687
21
87.644562451753544
31
0
0
LINE
5
478
100
AcDbEntity
8
0
100
AcDbLine
10
-40.798857533854687
20
87.644562451753544
30
0
11
-40.984065059743756
21
87.856225888643195
31
0
0
LINE
5
479
100
AcDbEntity
8
0
100
AcDbLine
10
-40.984065059743756
20
87.856225888643195
30
0
11
-41.142814656021642
21
88.041437451753538
31
0
0
LINE
5
480
100
AcDbEntity
8
0
100
AcDbLine
10
-41.142814656021642
20
88.041437451753538
30
0
11
-41.301564252299521
21
88.200189066642054
31
0
0
LINE
5
481
100
AcDbEntity
8
0
100
AcDbLine
10
-41.301564252299521
20
88.200189066642054
30
0
11
-41.433855918966181
21
88.358940681530555
31
0
0
LINE
5
482
100
AcDbEntity
8
0
100
AcDbLine
10
-41.433855918966181
20
88.358940681530555
30
0
11
-41.566147585632848
21
88.491232348197229
31
0
0
LINE
5
483
100
AcDbEntity
8
0
100
AcDbLine
10
-41.566147585632848
20
88.491232348197229
30
0
11
-41.671981322688303
21
88.597064066642048
31
0
0
LINE
5
484
100
AcDbEntity
8
0
100
AcDbLine
10
-41.671981322688303
20
88.597064066642048
30
0
11
-41.777815059743766
21
88.676435836865025
31
0
0
LINE
5
485
100
AcDbEntity
8
0
100
AcDbLine
10
-41.777815059743766
20
88.676435836865025
30
0
11
-41.857190867188017
21
88.729355733308722
31
0
0
LINE
5
486
100
AcDbEntity
8
0
100
AcDbLine
10
-41.857190867188017
20
88.729355733308722
30
0
11
-41.910106726410426
21
88.782275629752405
31
0
0
LINE
5
487
100
AcDbEntity
8
0
100
AcDbLine
10
-41.910106726410426
20
88.782275629752405
30
0
11
-41.963022585632849
21
88.782275629752405
31
0
0
LINE
5
488
100
AcDbEntity
8
0
100
AcDbLine
10
-41.963022585632849
20
88.782275629752405
30
0
11
-41.963022585632842
21
88.835195526196088
31
0
0
LINE
5
489
100
AcDbEntity
8
0
100
AcDbLine
10
-41.963022585632842
20
88.835195526196088
30
0
11
-42.571565059743762
21
89.232070526196097
31
0
0
LINE
5
490
100
AcDbEntity
8
0
100
AcDbLine
10
-42.571565059743762
20
89.232070526196097
30
0
11
-41.2221904634659
21
91.533948755973114
31
0
0
LINE
5
491
100
AcDbEntity
8
0
100
AcDbLine
10
-41.2221904634659
20
91.533948755973114
30
0
11
-40.560732130132571
21
91.189993652416788
31
0
0
LINE
5
492
100
AcDbEntity
8
0
100
AcDbLine
10
-40.560732130132571
20
91.189993652416788
30
0
11
-40.507816270910155
21
91.189993652416788
31
0
0
SPLINE
5
493
100
AcDbEntity
8
0
100
AcDbSpline
70
0
71
2
72
6
73
3
74
0
42
0.000000001
43
0.0000000001
44
0.0000000001
40
0
40
0
40
0
40
1
40
1
40
1
10
-40.507816270910155
20
91.189993652416788
30
0
10
-40.507816270910155
20
91.163533704194961
30
0
10
-40.42844046346589
20
91.163533704194961
30
0
0
LINE
5
494
100
AcDbEntity
8
0
100
AcDbLine
10
-40.42844046346589
20
91.163533704194961
30
0
11
-40.322606726410434
21
91.110613807751278
31
0
0
LINE
5
495
100
AcDbEntity
8
0
100
AcDbLine
10
-40.322606726410434
20
91.110613807751278
30
0
11
-40.058023393077107
21
91.004774014863898
31
0
0
LINE
5
496
100
AcDbEntity
8
0
100
AcDbLine
10
-40.058023393077107
20
91.004774014863898
30
0
11
-39.899273796799228
21
90.951854118420229
31
0
0
LINE
5
497
100
AcDbEntity
8
0
100
AcDbLine
10
-39.899273796799228
20
90.951854118420229
30
0
11
-39.714066270910152
21
90.898934221976546
31
0
0
LINE
5
498
100
AcDbEntity
8
0
100
AcDbLine
10
-39.714066270910152
20
90.898934221976546
30
0
11
-39.502398796799227
21
90.846014325532849
31
0
0
LINE
5
499
100
AcDbEntity
8
0
100
AcDbLine
10
-39.502398796799227
20
90.846014325532849
30
0
11
-39.264273393077104
21
90.793094429089166
31
0
0
LINE
5
500
100
AcDbEntity
8
0
100
AcDbLine
10
-39.264273393077104
20
90.793094429089166
30
0
11
-38.99969005974377
21
90.740174532645483
31
0
0
LINE
5
501
100
AcDbEntity
8
0
100
AcDbLine
10
-38.99969005974377
20
90.740174532645483
30
0
11
-38.708648796799231
21
90.740174532645469
31
0
0
LINE
5
502
100
AcDbEntity
8
0
100
AcDbLine
10
-38.708648796799231
20
90.740174532645469
30
0
11
-38.391149604243488
21
90.660802762422492
31
0
0
LINE
5
503
100
AcDbEntity
8
0
100
AcDbLine
10
-38.391149604243488
20
90.660802762422492
30
0
11
-38.047190463465896
21
90.660802762422492
31
0
0
LINE
5
504
100
AcDbEntity
8
0
100
AcDbLine
10
-38.047190463465896
20
90.660802762422492
30
0
11
-37.676773393077106
21
90.607882865978823
31
0
0
LINE
5
505
100
AcDbEntity
8
0
100
AcDbLine
10
-37.676773393077106
20
90.607882865978823
30
0
11
-36.406772585632851
21
90.607882865978823
31
0
0
LINE
5
506
100
AcDbEntity
8
0
100
AcDbLine
10
-36.406772585632851
20
90.607882865978823
30
0
11
-35.930521778188591
21
90.660802762422492
31
0
0
LINE
5
507
100
AcDbEntity
8
0
100
AcDbLine
10
-35.930521778188591
20
90.660802762422492
30
0
11
-35.427813041133135
21
90.713722658866175
31
0
0
LINE
5
508
100
AcDbEntity
8
0
100
AcDbLine
10
-35.427813041133135
20
90.713722658866175
30
0
11
-35.374897181910725
21
90.713722658866175
31
0
0
LINE
5
509
100
AcDbEntity
8
0
100
AcDbLine
10
-35.374897181910725
20
90.713722658866175
30
0
11
-34.739896778188594
21
92.221850888643203
31
0
0
LINE
5
510
100
AcDbEntity
8
0
100
AcDbLine
10
-34.739896778188594
20
92.221850888643203
30
0
11
-34.739896778188594
21
92.274770785086872
31
0
0
LINE
5
511
100
AcDbEntity
8
0
100
AcDbLine
10
-34.739896778188594
20
92.274770785086872
30
0
11
-35.083855918966179
21
92.671645785086866
31
0
0
LINE
5
512
100
AcDbEntity
8
0
100
AcDbLine
10
-35.083855918966179
20
92.671645785086866
30
0
11
-35.401355111521923
21
93.042060836865062
31
0
0
LINE
5
513
100
AcDbEntity
8
0
100
AcDbLine
10
-35.401355111521923
20
93.042060836865062
30
0
11
-35.692396374466469
21
93.386015940421345
31
0
0
LINE
5
514
100
AcDbEntity
8
0
100
AcDbLine
10
-35.692396374466469
20
93.386015940421345
30
0
11
-35.983437637411001
21
93.703519170198376
31
0
0
LINE
5
515
100
AcDbEntity
8
0
100
AcDbLine
10
-35.983437637411001
20
93.703519170198376
30
0
11
-36.274478900355547
21
93.994562451753552
31
0
0
LINE
5
516
100
AcDbEntity
8
0
100
AcDbLine
10
-36.274478900355547
20
93.994562451753552
30
0
11
-36.539062233688881
21
94.259145785086886
31
0
0
LINE
5
517
100
AcDbEntity
8
0
100
AcDbLine
10
-36.539062233688881
20
94.259145785086886
30
0
11
-36.803645567022215
21
94.497269170198379
31
0
0
LINE
5
518
100
AcDbEntity
8
0
100
AcDbLine
10
-36.803645567022215
20
94.497269170198379
30
0
11
-37.041770970744338
21
94.70893260708803
31
0
0
LINE
5
519
100
AcDbEntity
8
0
100
AcDbLine
10
-37.041770970744338
20
94.70893260708803
30
0
11
-37.279896374466468
21
94.894144170198373
31
0
0
LINE
5
520
100
AcDbEntity
8
0
100
AcDbLine
10
-37.279896374466468
20
94.894144170198373
30
0
11
-37.491563848577385
21
95.052895785086875
31
0
0
LINE
5
521
100
AcDbEntity
8
0
100
AcDbLine
10
-37.491563848577385
20
95.052895785086875
30
0
11
-37.70323132268831
21
95.185187451753563
31
0
0
LINE
5
522
100
AcDbEntity
8
0
100
AcDbLine
10
-37.70323132268831
20
95.185187451753563
30
0
11
-37.888438848577387
21
95.317479118420209
31
0
0
LINE
5
523
100
AcDbEntity
8
0
100
AcDbLine
10
-37.888438848577387
20
95.317479118420209
30
0
11
-38.07364637446647
21
95.423310836865042
31
0
0
LINE
5
524
100
AcDbEntity
8
0
100
AcDbLine
10
-38.07364637446647
20
95.423310836865042
30
0
11
-38.232395970744342
21
95.502682607088019
31
0
0
LINE
5
525
100
AcDbEntity
8
0
100
AcDbLine
10
-38.232395970744342
20
95.502682607088019
30
0
11
-38.364687637411009
21
95.58205437731101
31
0
0
LINE
5
526
100
AcDbEntity
8
0
100
AcDbLine
10
-38.364687637411009
20
95.58205437731101
30
0
11
-38.576355111521927
21
95.687894170198362
31
0
0
LINE
5
527
100
AcDbEntity
8
0
100
AcDbLine
10
-38.576355111521927
20
95.687894170198362
30
0
11
-38.655730918966185
21
95.687894170198376
31
0
0
LINE
5
528
100
AcDbEntity
8
0
100
AcDbLine
10
-38.655730918966185
20
95.687894170198376
30
0
11
-38.708646778188594
21
95.740814066642059
31
0
0
LINE
5
529
100
AcDbEntity
8
0
100
AcDbLine
10
-38.708646778188594
20
95.740814066642059
30
0
11
-39.396563041133135
21
95.978937451753552
31
0
0
LINE
5
530
100
AcDbEntity
8
0
100
AcDbLine
10
-39.396563041133135
20
95.978937451753552
30
0
11
-38.68218884857739
21
98.545399014863904
31
0
0
LINE
5
531
100
AcDbEntity
8
0
100
AcDbLine
10
-38.68218884857739
20
98.545399014863904
30
0
11
-37.967814656021645
21
98.386647399975402
31
0
0
LINE
5
532
100
AcDbEntity
8
0
100
AcDbLine
10
-37.967814656021645
20
98.386647399975402
30
0
11
-36.274480918966184
21
98.386647399975402
31
0
0
SPLINE
5
533
100
AcDbEntity
8
0
100
AcDbSpline
70
0
71
2
72
6
73
3
74
0
42
0.000000001
43
0.0000000001
44
0.0000000001
40
0
40
0
40
0
40
1
40
1
40
1
10
-36.274480918966184
20
98.386647399975402
30
0
10
-36.274480918966184
20
98.413107348197229
30
0
10
-35.983439656021645
20
98.466019170198379
30
0
0
LINE
5
534
100
AcDbEntity
8
0
100
AcDbLine
10
-35.983439656021645
20
98.466019170198365
30
0
11
-35.665940463465901
21
98.518939066642048
31
0
0
LINE
5
535
100
AcDbEntity
8
0
100
AcDbLine
10
-35.665940463465901
20
98.518939066642048
30
0
11
-35.321981322688309
21
98.598310836865025
31
0
0
LINE
5
536
100
AcDbEntity
8
0
100
AcDbLine
10
-35.321981322688309
20
98.598310836865025
30
0
11
-34.951564252299519
21
98.677682607088016
31
0
0
LINE
5
537
100
AcDbEntity
8
0
100
AcDbLine
10
-34.951564252299519
20
98.677682607088016
30
0
11
-34.157814252299517
21
98.889346043977667
31
0
0
LINE
5
538
100
AcDbEntity
8
0
100
AcDbLine
10
-34.157814252299517
20
98.889346043977667
30
0
11
-33.73448132268831
21
99.021637710644356
31
0
0
LINE
5
539
100
AcDbEntity
8
0
100
AcDbLine
10
-33.73448132268831
20
99.021637710644356
30
0
11
-33.284690463465893
21
99.180389325532843
31
0
0
LINE
5
540
100
AcDbEntity
8
0
100
AcDbLine
10
-33.284690463465893
20
99.180389325532843
30
0
11
-32.808439656021648
21
99.365600888643201
31
0
0
LINE
5
541
100
AcDbEntity
8
0
100
AcDbLine
10
-32.808439656021648
20
99.365600888643201
30
0
11
-32.755523796799231
21
99.365600888643201
31
0
0
LINE
5
542
100
AcDbEntity
8
0
100
AcDbLine
10
-32.755523796799231
20
99.365600888643201
30
0
11
-32.543856322688306
21
101.00602078508689
31
0
0
LINE
5
543
100
AcDbEntity
8
0
100
AcDbLine
10
-32.543856322688306
20
101.00602078508689
30
0
11
-32.596772181910715
21
101.00602078508687
31
0
0
LINE
5
544
100
AcDbEntity
8
0
100
AcDbLine
10
-32.596772181910715
20
101.00602078508687
30
0
11
-32.993647181910724
21
101.3499758886432
31
0
0
LINE
5
545
100
AcDbEntity
8
0
100
AcDbLine
10
-32.993647181910724
20
101.3499758886432
30
0
11
-33.390522181910718
21
101.61455922197653
31
0
0
LINE
5
546
100
AcDbEntity
8
0
100
AcDbLine
10
-33.390522181910718
20
101.61455922197653
30
0
11
-33.760939252299515
21
101.85268260708803
31
0
0
LINE
5
547
100
AcDbEntity
8
0
100
AcDbLine
10
-33.760939252299515
20
101.85268260708803
30
0
11
-34.131356322688305
21
102.06434604397768
31
0
0
LINE
5
548
100
AcDbEntity
8
0
100
AcDbLine
10
-34.131356322688305
20
102.06434604397768
30
0
11
-34.475315463465897
21
102.27600948086732
31
0
0
LINE
5
549
100
AcDbEntity
8
0
100
AcDbLine
10
-34.475315463465897
20
102.27600948086732
30
0
11
-34.819274604243489
21
102.46122104397767
31
0
0
LINE
5
550
100
AcDbEntity
8
0
100
AcDbLine
10
-34.819274604243489
20
102.46122104397767
30
0
11
-35.136773796799233
21
102.61997265886617
31
0
0
LINE
5
551
100
AcDbEntity
8
0
100
AcDbLine
10
-35.136773796799233
20
102.61997265886617
30
0
11
-35.427815059743764
21
102.75226432553285
31
0
0
LINE
5
552
100
AcDbEntity
8
0
100
AcDbLine
10
-35.427815059743764
20
102.75226432553285
30
0
11
-35.95698172641044
21
102.9639277624225
31
0
0
LINE
5
553
100
AcDbEntity
8
0
100
AcDbLine
10
-35.95698172641044
20
102.9639277624225
30
0
11
-36.195107130132563
21
103.04329953264548
31
0
0
LINE
5
554
100
AcDbEntity
8
0
100
AcDbLine
10
-36.195107130132563
20
103.04329953264548
30
0
11
-36.406774604243488
21
103.12267130286844
31
0
0
LINE
5
555
100
AcDbEntity
8
0
100
AcDbLine
10
-36.406774604243488
20
103.12267130286844
30
0
11
-36.591982130132564
21
103.17559119931215
31
0
0
LINE
5
556
100
AcDbEntity
8
0
100
AcDbLine
10
-36.591982130132564
20
103.17559119931215
30
0
11
-36.750731726410436
21
103.22851109575582
31
0
0
LINE
5
557
100
AcDbEntity
8
0
100
AcDbLine
10
-36.750731726410436
20
103.22851109575582
30
0
11
-36.909481322688308
21
103.22851109575582
31
0
0
LINE
5
558
100
AcDbEntity
8
0
100
AcDbLine
10
-36.909481322688308
20
103.22851109575582
30
0
11
-37.041772989354975
21
103.2814309921995
31
0
0
LINE
5
559
100
AcDbEntity
8
0
100
AcDbLine
10
-37.041772989354975
20
103.2814309921995
30
0
11
-38.047190463465903
21
103.28143099219952
31
0
0
LINE
5
560
100
AcDbEntity
8
0
100
AcDbLine
10
-38.047190463465903
20
103.28143099219952
30
0
11
-38.047190463465896
21
105.98018422197654
31
0
0
LINE
5
561
100
AcDbEntity
8
0
100
AcDbLine
10
-38.047190463465896
20
105.98018422197654
30
0
11
-37.306356322688309
21
105.98018422197654
31
0
0
SPLINE
5
562
100
AcDbEntity
8
0
100
AcDbSpline
70
0
71
2
72
6
73
3
74
0
42
0.000000001
43
0.0000000001
44
0.0000000001
40
0
40
0
40
0
40
1
40
1
40
1
10
-37.306356322688309
20
105.98018422197654
30
0
10
-37.306356322688309
20
106.00664417019837
30
0
10
-37.068230918966179
20
106.00664417019837
30
0
0
LINE
5
563
100
AcDbEntity
8
0
100
AcDbLine
10
-37.068230918966179
20
106.00664417019837
30
0
11
-36.935939252299519
21
106.05956406664205
31
0
0
LINE
5
564
100
AcDbEntity
8
0
100
AcDbLine
10
-36.935939252299519
20
106.05956406664205
30
0
11
-36.777189656021648
21
106.05956406664207
31
0
0
LINE
5
565
100
AcDbEntity
8
0
100
AcDbLine
10
-36.777189656021648
20
106.05956406664207
30
0
11
-36.618440059743776
21
106.13893583686504
31
0
0
LINE
5
566
100
AcDbEntity
8
0
100
AcDbLine
10
-36.618440059743776
20
106.13893583686504
30
0
11
-36.433232533854692
21
106.19185573330873
31
0
0
LINE
5
567
100
AcDbEntity
8
0
100
AcDbLine
10
-36.433232533854692
20
106.19185573330873
30
0
11
-36.221565059743767
21
106.27122750353169
31
0
0
LINE
5
568
100
AcDbEntity
8
0
100
AcDbLine
10
-36.221565059743767
20
106.27122750353169
30
0
11
-35.983439656021645
21
106.35059927375468
31
0
0
LINE
5
569
100
AcDbEntity
8
0
100
AcDbLine
10
-35.983439656021645
20
106.35059927375468
30
0
11
-35.71885632268831
21
106.45643099219951
31
0
0
LINE
5
570
100
AcDbEntity
8
0
100
AcDbLine
10
-35.71885632268831
20
106.45643099219951
30
0
11
-35.427815059743772
21
106.56226271064433
31
0
0
LINE
5
571
100
AcDbEntity
8
0
100
AcDbLine
10
-35.427815059743772
20
106.56226271064433
30
0
11
-35.136773796799233
21
106.69455437731101
31
0
0
LINE
5
572
100
AcDbEntity
8
0
100
AcDbLine
10
-35.136773796799233
20
106.69455437731101
30
0
11
-34.819274604243489
21
106.85330599219951
31
0
0
LINE
5
573
100
AcDbEntity
8
0
100
AcDbLine
10
-34.819274604243489
20
106.85330599219951
30
0
11
-34.131356322688312
21
107.22372911842022
31
0
0
LINE
5
574
100
AcDbEntity
8
0
100
AcDbLine
10
-34.131356322688312
20
107.22372911842022
30
0
11
-33.760939252299515
21
107.43539255530987
31
0
0
LINE
5
575
100
AcDbEntity
8
0
100
AcDbLine
10
-33.760939252299515
20
107.43539255530987
30
0
11
-33.390522181910718
21
107.67351594042137
31
0
0
LINE
5
576
100
AcDbEntity
8
0
100
AcDbLine
10
-33.390522181910718
20
107.67351594042137
30
0
11
-32.993647181910724
21
107.9380992737547
31
0
0
LINE
5
577
100
AcDbEntity
8
0
100
AcDbLine
10
-32.993647181910724
20
107.9380992737547
30
0
11
-32.596772181910723
21
108.22914255530988
31
0
0
LINE
5
578
100
AcDbEntity
8
0
100
AcDbLine
10
-32.596772181910723
20
108.22914255530988
30
0
11
-32.543856322688313
21
108.22914255530988
31
0
0
LINE
5
579
100
AcDbEntity
8
0
100
AcDbLine
10
-32.543856322688313
20
108.22914255530988
30
0
11
-32.543856322688306
21
108.28206245175355
31
0
0
LINE
5
580
100
AcDbEntity
8
0
100
AcDbLine
10
-32.543856322688306
20
108.28206245175355
30
0
11
-32.755523796799231
21
109.89602239997539
31
0
0
LINE
5
581
100
AcDbEntity
8
0
100
AcDbLine
10
-32.755523796799231
20
109.89602239997539
30
0
11
-32.80843965602164
21
109.89602239997539
31
0
0
LINE
5
582
100
AcDbEntity
8
0
100
AcDbLine
10
-32.80843965602164
20
109.89602239997539
30
0
11
-33.2846904634659
21
110.10768583686504
31
0
0
LINE
5
583
100
AcDbEntity
8
0
100
AcDbLine
10
-33.2846904634659
20
110.10768583686504
30
0
11
-33.73448132268831
21
110.26643745175355
31
0
0
LINE
5
584
100
AcDbEntity
8
0
100
AcDbLine
10
-33.73448132268831
20
110.26643745175355
30
0
11
-34.157814252299509
21
110.39872911842023
31
0
0
LINE
5
585
100
AcDbEntity
8
0
100
AcDbLine
10
-34.157814252299509
20
110.39872911842023
30
0
11
-34.554689252299518
21
110.53102078508688
31
0
0
LINE
5
586
100
AcDbEntity
8
0
100
AcDbLine
10
-34.554689252299518
20
110.53102078508688
30
0
11
-34.951564252299512
21
110.63685250353171
31
0
0
LINE
5
587
100
AcDbEntity
8
0
100
AcDbLine
10
-34.951564252299512
20
110.63685250353171
30
0
11
-35.321981322688309
21
110.71622427375468
31
0
0
LINE
5
588
100
AcDbEntity
8
0
100
AcDbLine
10
-35.321981322688309
20
110.71622427375468
30
0
11
-35.665940463465901
21
110.79559604397767
31
0
0
LINE
5
589
100
AcDbEntity
8
0
100
AcDbLine
10
-35.665940463465901
20
110.79559604397767
30
0
11
-35.983439656021645
21
110.84851594042135
31
0
0
LINE
5
590
100
AcDbEntity
8
0
100
AcDbLine
10
-35.983439656021645
20
110.84851594042135
30
0
11
-36.274480918966184
21
110.90143583686505
31
0
0
LINE
5
591
100
AcDbEntity
8
0
100
AcDbLine
10
-36.274480918966184
20
110.90143583686505
30
0
11
-36.539064252299511
21
110.90143583686505
31
0
0
LINE
5
592
100
AcDbEntity
8
0
100
AcDbLine
10
-36.539064252299511
20
110.90143583686505
30
0
11
-36.777189656021648
21
110.95435573330873
31
0
0
LINE
5
593
100
AcDbEntity
8
0
100
AcDbLine
10
-36.777189656021648
20
110.95435573330873
30
0
11
-37.967814656021645
21
110.95435573330873
31
0
0
LINE
5
594
100
AcDbEntity
8
0
100
AcDbLine
10
-37.967814656021645
20
110.95435573330873
30
0
11
-38.68218884857739
21
110.79560411842023
31
0
0
LINE
5
595
100
AcDbEntity
8
0
100
AcDbLine
10
-38.68218884857739
20
110.79560411842023
30
0
11
-39.37010511152193
21
113.38851755530987
31
0
0
LINE
5
596
100
AcDbEntity
8
0
100
AcDbLine
10
-39.37010511152193
20
113.38851755530987
30
0
11
-38.655730918966185
21
113.60018099219951
31
0
0
LINE
5
597
100
AcDbEntity
8
0
100
AcDbLine
10
-38.655730918966185
20
113.60018099219951
30
0
11
-38.602815059743769
21
113.60018099219951
31
0
0
SPLINE
5
598
100
AcDbEntity
8
0
100
AcDbSpline
70
0
71
2
72
6
73
3
74
0
42
0.000000001
43
0.0000000001
44
0.0000000001
40
0
40
0
40
0
40
1
40
1
40
1
10
-38.602815059743769
20
113.60018099219951
30
0
10
-38.602815059743769
20
113.62664094042137
30
0
10
-38.523439252299518
20
113.62664094042137
30
0
0
LINE
5
599
100
AcDbEntity
8
0
100
AcDbLine
10
-38.523439252299518
20
113.62664094042137
30
0
11
-38.417605515244055
21
113.70601271064433
31
0
0
LINE
5
600
100
AcDbEntity
8
0
100
AcDbLine
10
-38.417605515244055
20
113.70601271064433
30
0
11
-38.311771778188593
21
113.75893260708801
31
0
0
LINE
5
601
100
AcDbEntity
8
0
100
AcDbLine
10
-38.311771778188593
20
113.75893260708801
30
0
11
-38.179480111521926
21
113.838304377311
31
0
0
LINE
5
602
100
AcDbEntity
8
0
100
AcDbLine
10
-38.179480111521926
20
113.838304377311
30
0
11
-38.020730515244054
21
113.91767614753398
31
0
0
LINE
5
603
100
AcDbEntity
8
0
100
AcDbLine
10
-38.020730515244054
20
113.91767614753398
30
0
11
-37.835522989354978
21
114.02350786597881
31
0
0
LINE
5
604
100
AcDbEntity
8
0
100
AcDbLine
10
-37.835522989354978
20
114.02350786597881
30
0
11
-37.650315463465901
21
114.15579953264549
31
0
0
LINE
5
605
100
AcDbEntity
8
0
100
AcDbLine
10
-37.650315463465901
20
114.15579953264549
30
0
11
-37.438647989354976
21
114.28809119931215
31
0
0
LINE
5
606
100
AcDbEntity
8
0
100
AcDbLine
10
-37.438647989354976
20
114.28809119931215
30
0
11
-37.226980515244051
21
114.44684281420065
31
0
0
LINE
5
607
100
AcDbEntity
8
0
100
AcDbLine
10
-37.226980515244051
20
114.44684281420065
30
0
11
-36.988855111521929
21
114.63205437731102
31
0
0
LINE
5
608
100
AcDbEntity
8
0
100
AcDbLine
10
-36.988855111521929
20
114.63205437731102
30
0
11
-36.724271778188594
21
114.84371781420066
31
0
0
LINE
5
609
100
AcDbEntity
8
0
100
AcDbLine
10
-36.724271778188594
20
114.84371781420066
30
0
11
-36.45968844485526
21
115.08184119931215
31
0
0
LINE
5
610
100
AcDbEntity
8
0
100
AcDbLine
10
-36.45968844485526
20
115.08184119931215
30
0
11
-36.195105111521933
21
115.3464245326455
31
0
0
LINE
5
611
100
AcDbEntity
8
0
100
AcDbLine
10
-36.195105111521933
20
115.3464245326455
30
0
11
-35.904063848577387
21
115.63746781420065
31
0
0
LINE
5
612
100
AcDbEntity
8
0
100
AcDbLine
10
-35.904063848577387
20
115.63746781420065
30
0
11
-35.613022585632848
21
115.95497104397768
31
0
0
LINE
5
613
100
AcDbEntity
8
0
100
AcDbLine
10
-35.613022585632848
20
115.95497104397768
30
0
11
-35.321981322688309
21
116.29892614753399
31
0
0
LINE
5
614
100
AcDbEntity
8
0
100
AcDbLine
10
-35.321981322688309
20
116.29892614753399
30
0
11
-35.004482130132565
21
116.66934119931214
31
0
0
LINE
5
615
100
AcDbEntity
8
0
100
AcDbLine
10
-35.004482130132565
20
116.66934119931214
30
0
11
-34.686982937576822
21
117.06621619931214
31
0
0
LINE
5
616
100
AcDbEntity
8
0
100
AcDbLine
10
-34.686982937576822
20
117.06621619931214
30
0
11
-34.634067078354406
21
117.11913609575582
31
0
0
LINE
5
617
100
AcDbEntity
8
0
100
AcDbLine
10
-34.634067078354406
20
117.11913609575582
30
0
11
-35.242609552465325
21
118.62726432553286
31
0
0
LINE
5
618
100
AcDbEntity
8
0
100
AcDbLine
10
-35.242609552465325
20
118.62726432553286
30
0
11
-35.295525411687741
21
118.62726432553286
31
0
0
LINE
5
619
100
AcDbEntity
8
0
100
AcDbLine
10
-35.295525411687741
20
118.62726432553286
30
0
11
-35.798234148743198
21
118.68018422197653
31
0
0
LINE
5
620
100
AcDbEntity
8
0
100
AcDbLine
10
-35.798234148743198
20
118.68018422197653
30
0
11
-36.27448495618745
21
118.68018422197653
31
0
0
SPLINE
5
621
100
AcDbEntity
8
0
100
AcDbSpline
70
0
71
2
72
6
73
3
74
0
42
0.000000001
43
0.0000000001
44
0.0000000001
40
0
40
0
40
0
40
1
40
1
40
1
10
-36.27448495618745
20
118.68018422197653
30
0
10
-36.27448495618745
20
118.70664417019839
30
0
10
-36.724275815409868
20
118.73310411842021
30
0
0
LINE
5
622
100
AcDbEntity
8
0
100
AcDbLine
10
-36.724275815409868
20
118.7331041184202
30
0
11
-38.576359148743201
21
118.73310411842021
31
0
0
SPLINE
5
623
100
AcDbEntity
8
0
100
AcDbSpline
70
0
71
2
72
6
73
3
74
0
42
0.000000001
43
0.0000000001
44
0.0000000001
40
0
40
0
40
0
40
1
40
1
40
1
10
-38.576359148743201
20
118.73310411842021
30
0
10
-38.576359148743201
20
118.70664417019839
30
0
10
-38.86740041168774
20
118.65373234819725
30
0
0
LINE
5
624
100
AcDbEntity
8
0
100
AcDbLine
10
-38.86740041168774
20
118.65373234819727
30
0
11
-39.131983745021074
21
118.60081245175357
31
0
0
LINE
5
625
100
AcDbEntity
8
0
100
AcDbLine
10
-39.131983745021074
20
118.60081245175357
30
0
11
-39.370109148743204
21
118.54789255530987
31
0
0
LINE
5
626
100
AcDbEntity
8
0
100
AcDbLine
10
-39.370109148743204
20
118.54789255530987
30
0
11
-39.581776622854122
21
118.49497265886619
31
0
0
LINE
5
627
100
AcDbEntity
8
0
100
AcDbLine
10
-39.581776622854122
20
118.49497265886619
30
0
11
-39.766984148743198
21
118.44205276242251
31
0
0
LINE
5
628
100
AcDbEntity
8
0
100
AcDbLine
10
-39.766984148743198
20
118.44205276242251
30
0
11
-39.92573374502107
21
118.38913286597884
31
0
0
LINE
5
629
100
AcDbEntity
8
0
100
AcDbLine
10
-39.92573374502107
20
118.38913286597884
30
0
11
-40.190317078354397
21
118.28329307309146
31
0
0
LINE
5
630
100
AcDbEntity
8
0
100
AcDbLine
10
-40.190317078354397
20
118.28329307309146
30
0
11
-40.29615081540986
21
118.28329307309146
31
0
0
SPLINE
5
631
100
AcDbEntity
8
0
100
AcDbSpline
70
0
71
2
72
6
73
3
74
0
42
0.000000001
43
0.0000000001
44
0.0000000001
40
0
40
0
40
0
40
1
40
1
40
1
10
-40.296150815409874
20
118.28329307309146
30
0
10
-40.296150815409874
20
118.2568331248696
30
0
10
-40.375526622854125
20
118.23037317664776
30
0
0
LINE
5
632
100
AcDbEntity
8
0
100
AcDbLine
10
-40.375526622854125
20
118.23037317664777
30
0
11
-40.428442482076534
21
118.23037317664776
31
0
0
SPLINE
5
633
100
AcDbEntity
8
0
100
AcDbSpline
70
0
71
2
72
6
73
3
74
0
42
0.000000001
43
0.0000000001
44
0.0000000001
40
0
40
0
40
0
40
1
40
1
40
1
10
-40.428442482076541
20
118.23037317664776
30
0
10
-40.428442482076541
20
118.20391322842593
30
0
10
-41.089900815409869
20
117.85995812486961
30
0
0
LINE
5
634
100
AcDbEntity
8
0
100
AcDbLine
10
-41.089900815409869
20
117.85995812486961
30
0
11
-42.412817482076541
21
120.18828822842593
31
0
0
LINE
5
635
100
AcDbEntity
8
0
100
AcDbLine
10
-42.412817482076541
20
120.18828822842593
30
0
11
-41.804275007965614
21
120.58516322842591
31
0
0
LINE
5
636
100
AcDbEntity
8
0
100
AcDbLine
10
-41.804275007965614
20
120.58516322842591
30
0
11
-41.698443289520796
21
120.69100302131329
31
0
0
LINE
5
637
100
AcDbEntity
8
0
100
AcDbLine
10
-41.698443289520796
20
120.69100302131329
30
0
11
-41.619067482076531
21
120.74392291775696
31
0
0
LINE
5
638
100
AcDbEntity
8
0
100
AcDbLine
10
-41.619067482076531
20
120.74392291775696
30
0
11
-41.513233745021068
21
120.82329468797994
31
0
0
LINE
5
639
100
AcDbEntity
8
0
100
AcDbLine
10
-41.513233745021068
20
120.82329468797994
30
0
11
-41.407400007965613
21
120.92912640642479
31
0
0
LINE
5
640
100
AcDbEntity
8
0
100
AcDbLine
10
-41.407400007965613
20
120.92912640642479
30
0
11
-41.142816674632279
21
121.19370973975812
31
0
0
LINE
5
641
100
AcDbEntity
8
0
100
AcDbLine
10
-41.142816674632279
20
121.19370973975812
30
0
11
-40.984067078354407
21
121.35246135464662
31
0
0
LINE
5
642
100
AcDbEntity
8
0
100
AcDbLine
10
-40.984067078354407
20
121.35246135464662
30
0
11
-40.825317482076535
21
121.53767291775696
31
0
0
LINE
5
643
100
AcDbEntity
8
0
100
AcDbLine
10
-40.825317482076535
20
121.53767291775696
30
0
11
-40.640109956187459
21
121.74933635464662
31
0
0
LINE
5
644
100
AcDbEntity
8
0
100
AcDbLine
10
-40.640109956187459
20
121.74933635464662
30
0
11
-40.45490243029839
21
121.98745973975811
31
0
0
LINE
5
645
100
AcDbEntity
8
0
100
AcDbLine
10
-40.45490243029839
20
121.98745973975811
30
0
11
-40.269694904409299
21
122.25204307309144
31
0
0
LINE
5
646
100
AcDbEntity
8
0
100
AcDbLine
10
-40.269694904409299
20
122.25204307309144
30
0
11
-40.084487378520222
21
122.54308635464662
31
0
0
LINE
5
647
100
AcDbEntity
8
0
100
AcDbLine
10
-40.084487378520222
20
122.54308635464662
30
0
11
-39.872819904409305
21
122.86058958442365
31
0
0
LINE
5
648
100
AcDbEntity
8
0
100
AcDbLine
10
-39.872819904409305
20
122.86058958442365
30
0
11
-39.66115243029838
21
123.20454468797996
31
0
0
LINE
5
649
100
AcDbEntity
8
0
100
AcDbLine
10
-39.66115243029838
20
123.20454468797996
30
0
11
-39.449484956187455
21
123.57495973975813
31
0
0
LINE
5
650
100
AcDbEntity
8
0
100
AcDbLine
10
-39.449484956187455
20
123.57495973975813
30
0
11
-39.237817482076537
21
123.97183473975812
31
0
0
LINE
5
651
100
AcDbEntity
8
0
100
AcDbLine
10
-39.237817482076537
20
123.97183473975812
30
0
11
-39.026150007965612
21
124.39516968797996
31
0
0
LINE
5
652
100
AcDbEntity
8
0
100
AcDbLine
10
-39.026150007965612
20
124.39516968797996
30
0
11
-38.814482533854694
21
124.84496458442365
31
0
0
LINE
5
653
100
AcDbEntity
8
0
100
AcDbLine
10
-38.814482533854694
20
124.84496458442365
30
0
11
-38.814482533854694
21
124.8978844808673
31
0
0
LINE
5
654
100
AcDbEntity
8
0
100
AcDbLine
10
-38.814482533854694
20
124.8978844808673
30
0
11
-39.793440059743773
21
126.19434119931215
31
0
0
LINE
5
655
100
AcDbEntity
8
0
100
AcDbLine
10
-39.793440059743773
20
126.19434119931215
30
0
11
-39.846355918966182
21
126.19434119931213
31
0
0
LINE
5
656
100
AcDbEntity
8
0
100
AcDbLine
10
-39.846355918966182
20
126.19434119931213
30
0
11
-40.349064656021639
21
126.11496942908916
31
0
0
LINE
5
657
100
AcDbEntity
8
0
100
AcDbLine
10
-40.349064656021639
20
126.11496942908916
30
0
11
-40.825315463465898
21
126.03559765886617
31
0
0
LINE
5
658
100
AcDbEntity
8
0
100
AcDbLine
10
-40.825315463465898
20
126.03559765886617
30
0
11
-41.275106322688309
21
125.92976594042135
31
0
0
LINE
5
659
100
AcDbEntity
8
0
100
AcDbLine
10
-41.275106322688309
20
125.92976594042135
30
0
11
-41.698439252299515
21
125.82393422197653
31
0
0
LINE
5
660
100
AcDbEntity
8
0
100
AcDbLine
10
-41.698439252299515
20
125.82393422197653
30
0
11
-42.095314252299509
21
125.7181025035317
31
0
0
LINE
5
661
100
AcDbEntity
8
0
100
AcDbLine
10
-42.095314252299509
20
125.7181025035317
30
0
11
-42.465731322688299
21
125.61227078508688
31
0
0
LINE
5
662
100
AcDbEntity
8
0
100
AcDbLine
10
-42.465731322688299
20
125.61227078508688
30
0
11
-42.809690463465884
21
125.50643906664205
31
0
0
LINE
5
663
100
AcDbEntity
8
0
100
AcDbLine
10
-42.809690463465884
20
125.50643906664205
30
0
11
-43.127189656021642
21
125.40060734819721
31
0
0
LINE
5
664
100
AcDbEntity
8
0
100
AcDbLine
10
-43.127189656021642
20
125.40060734819721
30
0
11
-43.418230918966174
21
125.29477562975239
31
0
0
LINE
5
665
100
AcDbEntity
8
0
100
AcDbLine
10
-43.418230918966174
20
125.29477562975239
30
0
11
-43.682814252299515
21
125.18894391130758
31
0
0
LINE
5
666
100
AcDbEntity
8
0
100
AcDbLine
10
-43.682814252299515
20
125.18894391130758
30
0
11
-43.920939656021638
21
125.08311219286276
31
0
0
LINE
5
667
100
AcDbEntity
8
0
100
AcDbLine
10
-43.920939656021638
20
125.08311219286276
30
0
11
-44.13260713013257
21
124.97728047441795
31
0
0
LINE
5
668
100
AcDbEntity
8
0
100
AcDbLine
10
-44.13260713013257
20
124.97728047441795
30
0
11
-44.317814656021639
21
124.87144875597312
31
0
0
LINE
5
669
100
AcDbEntity
8
0
100
AcDbLine
10
-44.317814656021639
20
124.87144875597312
30
0
11
-44.476564252299511
21
124.79207698575016
31
0
0
LINE
5
670
100
AcDbEntity
8
0
100
AcDbLine
10
-44.476564252299511
20
124.79207698575016
30
0
11
-44.608855918966171
21
124.71270521552717
31
0
0
LINE
5
671
100
AcDbEntity
8
0
100
AcDbLine
10
-44.608855918966171
20
124.71270521552717
30
0
11
-44.71468965602164
21
124.63333344530419
31
0
0
LINE
5
672
100
AcDbEntity
8
0
100
AcDbLine
10
-44.71468965602164
20
124.63333344530419
30
0
11
-44.794065463465884
21
124.58041354886049
31
0
0
LINE
5
673
100
AcDbEntity
8
0
100
AcDbLine
10
-44.794065463465884
20
124.58041354886049
30
0
11
-44.846981322688308
21
124.52749365241681
31
0
0
LINE
5
674
100
AcDbEntity
8
0
100
AcDbLine
10
-44.846981322688308
20
124.52749365241681
30
0
11
-44.899897181910717
21
124.52749365241681
31
0
0
LINE
5
675
100
AcDbEntity
8
0
100
AcDbLine
10
-44.899897181910717
20
124.52749365241681
30
0
11
-44.899897181910724
21
124.47457375597313
31
0
0
LINE
5
676
100
AcDbEntity
8
0
100
AcDbLine
10
-44.899897181910724
20
124.47457375597313
30
0
11
-45.455521778188597
21
123.9718670375283
31
0
0
LINE
5
677
100
AcDbEntity
8
0
100
AcDbLine
10
-45.455521778188597
20
123.9718670375283
30
0
11
-47.334065059743757
21
125.87687026730532
31
0
0
LINE
5
678
100
AcDbEntity
8
0
100
AcDbLine
10
-47.334065059743757
20
125.87687026730532
30
0
11
-46.831358341298937
21
126.40603693397196
31
0
0
LINE
5
679
100
AcDbEntity
8
0
100
AcDbLine
10
-46.831358341298937
20
126.40603693397196
30
0
11
-46.831358341298937
21
126.45895683041564
31
0
0
SPLINE
5
680
100
AcDbEntity
8
0
100
AcDbSpline
70
0
71
2
72
6
73
3
74
0
42
0.000000001
43
0.0000000001
44
0.0000000001
40
0
40
0
40
0
40
1
40
1
40
1
10
-46.831358341298937
20
126.45895683041564
30
0
10
-46.804898393077103
20
126.45895683041564
30
0
10
-46.751982533854687
20
126.51187672685934
30
0
0
LINE
5
681
100
AcDbEntity
8
0
100
AcDbLine
10
-46.751982533854687
20
126.51187672685934
30
0
11
-46.699066674632277
21
126.59124849708232
31
0
0
LINE
5
682
100
AcDbEntity
8
0
100
AcDbLine
10
-46.699066674632277
20
126.59124849708232
30
0
11
-46.619690867188019
21
126.69708021552714
31
0
0
LINE
5
683
100
AcDbEntity
8
0
100
AcDbLine
10
-46.619690867188019
20
126.69708021552714
30
0
11
-46.540315059743769
21
126.82937188219381
31
0
0
LINE
5
684
100
AcDbEntity
8
0
100
AcDbLine
10
-46.540315059743769
20
126.82937188219381
30
0
11
-46.460939252299518
21
126.98812349708231
31
0
0
LINE
5
685
100
AcDbEntity
8
0
100
AcDbLine
10
-46.460939252299518
20
126.98812349708231
30
0
11
-46.355107533854692
21
127.17333506019267
31
0
0
LINE
5
686
100
AcDbEntity
8
0
100
AcDbLine
10
-46.355107533854692
20
127.17333506019267
30
0
11
-46.249275815409874
21
127.38499849708232
31
0
0
LINE
5
687
100
AcDbEntity
8
0
100
AcDbLine
10
-46.249275815409874
20
127.38499849708232
30
0
11
-46.143444096965041
21
127.62312188219381
31
0
0
LINE
5
688
100
AcDbEntity
8
0
100
AcDbLine
10
-46.143444096965041
20
127.62312188219381
30
0
11
-46.037612378520222
21
127.88770521552715
31
0
0
LINE
5
689
100
AcDbEntity
8
0
100
AcDbLine
10
-46.037612378520222
20
127.88770521552715
30
0
11
-45.93178066007539
21
128.1787484970823
31
0
0
LINE
5
690
100
AcDbEntity
8
0
100
AcDbLine
10
-45.93178066007539
20
128.1787484970823
30
0
11
-45.825948941630571
21
128.49625172685933
31
0
0
LINE
5
691
100
AcDbEntity
8
0
100
AcDbLine
10
-45.825948941630571
20
128.49625172685933
30
0
11
-45.720117223185746
21
128.84020683041564
31
0
0
LINE
5
692
100
AcDbEntity
8
0
100
AcDbLine
10
-45.720117223185746
20
128.84020683041564
30
0
11
-45.61428550474092
21
129.21062188219381
31
0
0
LINE
5
693
100
AcDbEntity
8
0
100
AcDbLine
10
-45.61428550474092
20
129.21062188219381
30
0
11
-45.508451767685465
21
129.6074968821938
31
0
0
LINE
5
694
100
AcDbEntity
8
0
100
AcDbLine
10
-45.508451767685465
20
129.6074968821938
30
0
11
-45.402618030629995
21
130.03083183041565
31
0
0
LINE
5
695
100
AcDbEntity
8
0
100
AcDbLine
10
-45.402618030629995
20
130.03083183041565
30
0
11
-45.29678429357454
21
130.48062672685933
31
0
0
LINE
5
696
100
AcDbEntity
8
0
100
AcDbLine
10
-45.29678429357454
20
130.48062672685933
30
0
11
-45.217408486130282
21
130.95687349708231
31
0
0
LINE
5
697
100
AcDbEntity
8
0
100
AcDbLine
10
-45.217408486130282
20
130.95687349708231
30
0
11
-45.138032678686031
21
131.45958021552713
31
0
0
LINE
5
698
100
AcDbEntity
8
0
100
AcDbLine
10
-45.138032678686031
20
131.45958021552713
30
0
11
-45.138032678686031
21
131.51250011197081
31
0
0
LINE
5
699
100
AcDbEntity
8
0
100
AcDbLine
10
-45.138032678686031
20
131.51250011197081
30
0
11
-46.434491415741491
21
132.51791354886046
31
0
0
LINE
5
700
100
AcDbEntity
8
0
100
AcDbLine
10
-46.434491415741491
20
132.51791354886046
30
0
11
-46.487407274963893
21
132.51791354886046
31
0
0
LINE
5
701
100
AcDbEntity
8
0
100
AcDbLine
10
-46.487407274963893
20
132.51791354886046
30
0
11
-46.937198134186318
21
132.27979016374897
31
0
0
LINE
5
702
100
AcDbEntity
8
0
100
AcDbLine
10
-46.937198134186318
20
132.27979016374897
30
0
11
-47.360533082408161
21
132.06812672685933
31
0
0
LINE
5
703
100
AcDbEntity
8
0
100
AcDbLine
10
-47.360533082408161
20
132.06812672685933
30
0
11
-47.757408082408155
21
131.8564632899697
31
0
0
LINE
5
704
100
AcDbEntity
8
0
100
AcDbLine
10
-47.757408082408155
20
131.8564632899697
30
0
11
-48.127823134186308
21
131.64479985308003
31
0
0
LINE
5
705
100
AcDbEntity
8
0
100
AcDbLine
10
-48.127823134186308
20
131.64479985308003
30
0
11
-48.4717822749639
21
131.43313641619039
31
0
0
LINE
5
706
100
AcDbEntity
8
0
100
AcDbLine
10
-48.4717822749639
20
131.43313641619039
30
0
11
-48.789281467519643
21
131.22147297930076
31
0
0
LINE
5
707
100
AcDbEntity
8
0
100
AcDbLine
10
-48.789281467519643
20
131.22147297930076
30
0
11
-49.080324749074819
21
131.03626141619037
31
0
0
LINE
5
708
100
AcDbEntity
8
0
100
AcDbLine
10
-49.080324749074819
20
131.03626141619037
30
0
11
-49.344908082408161
21
130.85104985308004
31
0
0
LINE
5
709
100
AcDbEntity
8
0
100
AcDbLine
10
-49.344908082408161
20
130.85104985308004
30
0
11
-49.583031467519646
21
130.66583828996968
31
0
0
LINE
5
710
100
AcDbEntity
8
0
100
AcDbLine
10
-49.583031467519646
20
130.66583828996968
30
0
11
-49.794698941630564
21
130.48062672685933
31
0
0
LINE
5
711
100
AcDbEntity
8
0
100
AcDbLine
10
-49.794698941630564
20
130.48062672685933
30
0
11
-49.979906467519641
21
130.32187511197083
31
0
0
LINE
5
712
100
AcDbEntity
8
0
100
AcDbLine
10
-49.979906467519641
20
130.32187511197083
30
0
11
-50.138658082408156
21
130.16312349708232
31
0
0
LINE
5
713
100
AcDbEntity
8
0
100
AcDbLine
10
-50.138658082408156
20
130.16312349708232
30
0
11
-50.297409697296665
21
130.03083183041565
31
0
0
LINE
5
714
100
AcDbEntity
8
0
100
AcDbLine
10
-50.297409697296665
20
130.03083183041565
30
0
11
-50.535533082408151
21
129.79270844530416
31
0
0
LINE
5
715
100
AcDbEntity
8
0
100
AcDbLine
10
-50.535533082408151
20
129.79270844530416
30
0
11
-50.614908889852401
21
129.68687672685934
31
0
0
LINE
5
716
100
AcDbEntity
8
0
100
AcDbLine
10
-50.614908889852401
20
129.68687672685934
30
0
11
-50.667824749074825
21
129.60750495663635
31
0
0
LINE
5
717
100
AcDbEntity
8
0
100
AcDbLine
10
-50.667824749074825
20
129.60750495663635
30
0
11
-50.720740608297234
21
129.55458506019266
31
0
0
LINE
5
718
100
AcDbEntity
8
0
100
AcDbLine
10
-50.720740608297234
20
129.55458506019266
30
0
11
-50.720740608297234
21
129.50166516374901
31
0
0
LINE
5
719
100
AcDbEntity
8
0
100
AcDbLine
10
-50.720740608297234
20
129.50166516374901
30
0
11
-50.77365646751965
21
129.50166516374898
31
0
0
LINE
5
720
100
AcDbEntity
8
0
100
AcDbLine
10
-50.77365646751965
20
129.50166516374898
30
0
11
-51.170531467519638
21
128.89312672685932
31
0
0
LINE
5
721
100
AcDbEntity
8
0
100
AcDbLine
10
-51.170531467519638
20
128.89312672685932
30
0
11
-53.472405660075388
21
130.24250334174783
31
0
0
LINE
5
722
100
AcDbEntity
8
0
100
AcDbLine
10
-53.472405660075388
20
130.24250334174783
30
0
11
-53.128446519297796
21
130.90396167508118
31
0
0
LINE
5
723
100
AcDbEntity
8
0
100
AcDbLine
10
-53.128446519297796
20
130.90396167508118
30
0
11
-53.128446519297803
21
131.06271328996968
31
0
0
LINE
5
724
100
AcDbEntity
8
0
100
AcDbLine
10
-53.128446519297803
20
131.06271328996968
30
0
11
-53.075530660075394
21
131.1685450084145
31
0
0
LINE
5
725
100
AcDbEntity
8
0
100
AcDbLine
10
-53.075530660075394
20
131.1685450084145
30
0
11
-52.969698941630568
21
131.43312834174785
31
0
0
LINE
5
726
100
AcDbEntity
8
0
100
AcDbLine
10
-52.969698941630568
20
131.43312834174785
30
0
11
-52.916783082408159
21
131.59187995663635
31
0
0
LINE
5
727
100
AcDbEntity
8
0
100
AcDbLine
10
-52.916783082408159
20
131.59187995663635
30
0
11
-52.863867223185743
21
131.7770915197467
31
0
0
LINE
5
728
100
AcDbEntity
8
0
100
AcDbLine
10
-52.863867223185743
20
131.7770915197467
30
0
11
-52.810951363963326
21
131.98875495663634
31
0
0
LINE
5
729
100
AcDbEntity
8
0
100
AcDbLine
10
-52.810951363963326
20
131.98875495663634
30
0
11
-52.758035504740917
21
132.22687834174786
31
0
0
LINE
5
730
100
AcDbEntity
8
0
100
AcDbLine
10
-52.758035504740917
20
132.22687834174786
30
0
11
-52.705119645518508
21
132.49146167508118
31
0
0
LINE
5
731
100
AcDbEntity
8
0
100
AcDbLine
10
-52.705119645518508
20
132.49146167508118
30
0
11
-52.705119645518508
21
132.78250495663633
31
0
0
LINE
5
732
100
AcDbEntity
8
0
100
AcDbLine
10
-52.705119645518508
20
132.78250495663633
30
0
11
-52.625743838074257
21
133.10000818641336
31
0
0
LINE
5
733
100
AcDbEntity
8
0
100
AcDbLine
10
-52.625743838074257
20
133.10000818641336
30
0
11
-52.625743838074257
21
133.44396328996967
31
0
0
LINE
5
734
100
AcDbEntity
8
0
100
AcDbLine
10
-52.625743838074257
20
133.44396328996967
30
0
11
-52.572827978851848
21
133.81437834174784
31
0
0
LINE
5
735
100
AcDbEntity
8
0
100
AcDbLine
10
-52.572827978851848
20
133.81437834174784
30
0
11
-52.572827978851834
21
135.08437511197081
31
0
0
LINE
5
736
100
AcDbEntity
8
0
100
AcDbLine
10
-52.572827978851834
20
135.08437511197081
30
0
11
-52.62574383807425
21
135.5606218821938
31
0
0
LINE
5
737
100
AcDbEntity
8
0
100
AcDbLine
10
-52.62574383807425
20
135.5606218821938
30
0
11
-52.678659697296666
21
136.06332860063861
31
0
0
LINE
5
738
100
AcDbEntity
8
0
100
AcDbLine
10
-52.678659697296666
20
136.06332860063861
30
0
11
-52.678659697296666
21
136.11624849708232
31
0
0
LINE
5
739
100
AcDbEntity
8
0
100
AcDbLine
10
-52.678659697296666
20
136.11624849708232
30
0
11
-54.186783889852414
21
136.75124688219381
31
0
0
LINE
5
740
100
AcDbEntity
8
0
100
AcDbLine
10
-54.186783889852414
20
136.75124688219381
30
0
11
-54.239699749074823
21
136.75124688219381
31
0
0
LINE
5
741
100
AcDbEntity
8
0
100
AcDbLine
10
-54.239699749074823
20
136.75124688219381
30
0
11
-54.636574749074825
21
136.4072917786375
31
0
0
LINE
5
742
100
AcDbEntity
8
0
100
AcDbLine
10
-54.636574749074825
20
136.4072917786375
30
0
11
-55.006989800852978
21
136.08978854886047
31
0
0
LINE
5
743
100
AcDbEntity
8
0
100
AcDbLine
10
-55.006989800852978
20
136.08978854886047
30
0
11
-55.350948941630577
21
135.79874526730529
31
0
0
LINE
5
744
100
AcDbEntity
8
0
100
AcDbLine
10
-55.350948941630577
20
135.79874526730529
30
0
11
-55.668448134186306
21
135.50770198575012
31
0
0
LINE
5
745
100
AcDbEntity
8
0
100
AcDbLine
10
-55.668448134186306
20
135.50770198575012
30
0
11
-56.224074749074823
21
134.95207537086162
31
0
0
LINE
5
746
100
AcDbEntity
8
0
100
AcDbLine
10
-56.224074749074823
20
134.95207537086162
30
0
11
-56.462198134186316
21
134.68749203752827
31
0
0
LINE
5
747
100
AcDbEntity
8
0
100
AcDbLine
10
-56.462198134186316
20
134.68749203752827
30
0
11
-56.673865608297234
21
134.44936865241681
31
0
0
LINE
5
748
100
AcDbEntity
8
0
100
AcDbLine
10
-56.673865608297234
20
134.44936865241681
30
0
11
-56.859073134186318
21
134.21124526730529
31
0
0
LINE
5
749
100
AcDbEntity
8
0
100
AcDbLine
10
-56.859073134186318
20
134.21124526730529
30
0
11
-57.017824749074826
21
133.99958183041565
31
0
0
LINE
5
750
100
AcDbEntity
8
0
100
AcDbLine
10
-57.017824749074826
20
133.99958183041565
30
0
11
-57.1501164157415
21
133.78791839352601
31
0
0
LINE
5
751
100
AcDbEntity
8
0
100
AcDbLine
10
-57.1501164157415
20
133.78791839352601
30
0
11
-57.282408082408161
21
133.60270683041566
31
0
0
LINE
5
752
100
AcDbEntity
8
0
100
AcDbLine
10
-57.282408082408161
20
133.60270683041566
30
0
11
-57.388239800852986
21
133.4174952673053
31
0
0
LINE
5
753
100
AcDbEntity
8
0
100
AcDbLine
10
-57.388239800852986
20
133.4174952673053
30
0
11
-57.467615608297237
21
133.2587436524168
31
0
0
LINE
5
754
100
AcDbEntity
8
0
100
AcDbLine
10
-57.467615608297237
20
133.2587436524168
30
0
11
-57.546991415741488
21
133.12645198575012
31
0
0
LINE
5
755
100
AcDbEntity
8
0
100
AcDbLine
10
-57.546991415741488
20
133.12645198575012
30
0
11
-57.652823134186313
21
132.91478854886049
31
0
0
LINE
5
756
100
AcDbEntity
8
0
100
AcDbLine
10
-57.652823134186313
20
132.91478854886049
30
0
11
-57.652823134186313
21
132.83541677863749
31
0
0
LINE
5
757
100
AcDbEntity
8
0
100
AcDbLine
10
-57.652823134186313
20
132.83541677863749
30
0
11
-57.70573899340873
21
132.78249688219381
31
0
0
LINE
5
758
100
AcDbEntity
8
0
100
AcDbLine
10
-57.70573899340873
20
132.78249688219381
30
0
11
-57.943862378520222
21
132.06811865241679
31
0
0
LINE
5
759
100
AcDbEntity
8
0
100
AcDbLine
10
-57.943862378520222
20
132.06811865241679
30
0
11
-60.5103199044093
21
132.78249688219381
31
0
0
LINE
5
760
100
AcDbEntity
8
0
100
AcDbLine
10
-60.5103199044093
20
132.78249688219381
30
0
11
-60.351568289520785
21
133.49687511197084
31
0
0
LINE
5
761
100
AcDbEntity
8
0
100
AcDbLine
10
-60.351568289520785
20
133.49687511197084
30
0
11
-60.351568289520792
21
134.92562349708231
31
0
0
SPLINE
5
762
100
AcDbEntity
8
0
100
AcDbSpline
70
0
71
2
72
6
73
3
74
0
42
0.000000001
43
0.0000000001
44
0.0000000001
40
0
40
0
40
0
40
1
40
1
40
1
10
-60.351568289520792
20
134.92562349708231
30
0
10
-60.378028237742633
20
134.92562349708231
30
0
10
-60.378028237742633
20
135.19020683041566
30
0
0
LINE
5
763
100
AcDbEntity
8
0
100
AcDbLine
10
-60.378028237742633
20
135.19020683041566
30
0
11
-60.457404045186884
21
135.48125011197084
31
0
0
LINE
5
764
100
AcDbEntity
8
0
100
AcDbLine
10
-60.457404045186884
20
135.48125011197084
30
0
11
-60.510319904409293
21
135.79875334174784
31
0
0
LINE
5
765
100
AcDbEntity
8
0
100
AcDbLine
10
-60.510319904409293
20
135.79875334174784
30
0
11
-60.589695711853544
21
136.14270844530415
31
0
0
LINE
5
766
100
AcDbEntity
8
0
100
AcDbLine
10
-60.589695711853544
20
136.14270844530415
30
0
11
-60.669071519297802
21
136.51312349708232
31
0
0
LINE
5
767
100
AcDbEntity
8
0
100
AcDbLine
10
-60.669071519297802
20
136.51312349708232
30
0
11
-60.880734956187446
21
137.30687349708231
31
0
0
LINE
5
768
100
AcDbEntity
8
0
100
AcDbLine
10
-60.880734956187446
20
137.30687349708231
30
0
11
-61.013026622854127
21
137.73020844530416
31
0
0
LINE
5
769
100
AcDbEntity
8
0
100
AcDbLine
10
-61.013026622854127
20
137.73020844530416
30
0
11
-61.171778237742629
21
138.18000334174786
31
0
0
LINE
5
770
100
AcDbEntity
8
0
100
AcDbLine
10
-61.171778237742629
20
138.18000334174786
30
0
11
-61.356985763631712
21
138.65625011197085
31
0
0
LINE
5
771
100
AcDbEntity
8
0
100
AcDbLine
10
-61.356985763631712
20
138.65625011197085
30
0
11
-61.356985763631712
21
138.7091700084145
31
0
0
LINE
5
772
100
AcDbEntity
8
0
100
AcDbLine
10
-61.356985763631712
20
138.7091700084145
30
0
11
-61.383445711853554
21
138.7091700084145
31
0
0
LINE
5
773
100
AcDbEntity
8
0
100
AcDbLine
10
-61.383445711853554
20
138.7091700084145
30
0
11
-62.997405660075394
21
138.92083344530417
31
0
0
LINE
5
774
100
AcDbEntity
8
0
100
AcDbLine
10
-62.997405660075394
20
138.92083344530417
30
0
11
-62.997405660075394
21
138.86791354886049
31
0
0
SPLINE
5
775
100
AcDbEntity
8
0
100
AcDbSpline
70
0
71
2
72
6
73
3
74
0
42
0.000000001
43
0.0000000001
44
0.0000000001
40
0
40
0
40
0
40
1
40
1
40
1
10
-62.997405660075394
20
138.86791354886049
30
0
10
-63.023865608297235
20
138.86791354886049
30
0
10
-63.341364800852986
20
138.47103854886046
30
0
0
LINE
5
776
100
AcDbEntity
8
0
100
AcDbLine
10
-63.341364800852993
20
138.47103854886046
30
0
11
-63.60594813418632
21
138.07416354886047
31
0
0
LINE
5
777
100
AcDbEntity
8
0
100
AcDbLine
10
-63.60594813418632
20
138.07416354886047
30
0
11
-63.844071519297813
21
137.7037484970823
31
0
0
LINE
5
778
100
AcDbEntity
8
0
100
AcDbLine
10
-63.844071519297813
20
137.7037484970823
30
0
11
-64.055738993408724
21
137.33333344530416
31
0
0
LINE
5
779
100
AcDbEntity
8
0
100
AcDbLine
10
-64.055738993408724
20
137.33333344530416
30
0
11
-64.267406467519649
21
136.98937834174785
31
0
0
LINE
5
780
100
AcDbEntity
8
0
100
AcDbLine
10
-64.267406467519649
20
136.98937834174785
30
0
11
-64.452613993408733
21
136.64542323819154
31
0
0
LINE
5
781
100
AcDbEntity
8
0
100
AcDbLine
10
-64.452613993408733
20
136.64542323819154
30
0
11
-64.611365608297234
21
136.32792000841451
31
0
0
LINE
5
782
100
AcDbEntity
8
0
100
AcDbLine
10
-64.611365608297234
20
136.32792000841451
30
0
11
-64.743657274963908
21
136.03687672685933
31
0
0
LINE
5
783
100
AcDbEntity
8
0
100
AcDbLine
10
-64.743657274963908
20
136.03687672685933
30
0
11
-64.955320711853545
21
135.50771006019266
31
0
0
LINE
5
784
100
AcDbEntity
8
0
100
AcDbLine
10
-64.955320711853545
20
135.50771006019266
30
0
11
-65.034696519297796
21
135.26958667508117
31
0
0
LINE
5
785
100
AcDbEntity
8
0
100
AcDbLine
10
-65.034696519297796
20
135.26958667508117
30
0
11
-65.114072326742047
21
135.05792323819153
31
0
0
LINE
5
786
100
AcDbEntity
8
0
100
AcDbLine
10
-65.114072326742047
20
135.05792323819153
30
0
11
-65.16698818596447
21
134.87271167508118
31
0
0
LINE
5
787
100
AcDbEntity
8
0
100
AcDbLine
10
-65.16698818596447
20
134.87271167508118
30
0
11
-65.21990404518688
21
134.71396006019268
31
0
0
LINE
5
788
100
AcDbEntity
8
0
100
AcDbLine
10
-65.21990404518688
20
134.71396006019268
30
0
11
-65.21990404518688
21
134.55520844530417
31
0
0
LINE
5
789
100
AcDbEntity
8
0
100
AcDbLine
10
-65.21990404518688
20
134.55520844530417
30
0
11
-65.272819904409289
21
134.42291677863747
31
0
0
LINE
5
790
100
AcDbEntity
8
0
100
AcDbLine
10
-65.272819904409289
20
134.42291677863747
30
0
11
-65.272819904409289
21
133.41750334174785
31
0
0
LINE
5
791
100
AcDbEntity
8
0
100
AcDbLine
10
-65.272819904409289
20
133.41750334174785
30
0
11
-67.971569096965041
21
133.41750334174785
31
0
0
LINE
5
792
100
AcDbEntity
8
0
100
AcDbLine
10
-67.971569096965041
20
133.41750334174785
30
0
11
-67.971569096965041
21
134.39645683041564
31
0
0
LINE
5
793
100
AcDbEntity
8
0
100
AcDbLine
10
-67.971569096965041
20
134.39645683041564
30
0
11
-68.02448495618745
21
134.52874849708232
31
0
0
LINE
5
794
100
AcDbEntity
8
0
100
AcDbLine
10
-68.02448495618745
20
134.52874849708232
30
0
11
-68.02448495618745
21
134.68750011197082
31
0
0
SPLINE
5
795
100
AcDbEntity
8
0
100
AcDbSpline
70
0
71
2
72
6
73
3
74
0
42
0.000000001
43
0.0000000001
44
0.0000000001
40
0
40
0
40
0
40
1
40
1
40
1
10
-68.02448495618745
20
134.68750011197082
30
0
10
-68.050944904409306
20
134.68750011197082
30
0
10
-68.103860763631715
20
134.84625172685935
30
0
0
LINE
5
796
100
AcDbEntity
8
0
100
AcDbLine
10
-68.103860763631715
20
134.84625172685935
30
0
11
-68.156776622854125
21
135.03146328996968
31
0
0
LINE
5
797
100
AcDbEntity
8
0
100
AcDbLine
10
-68.156776622854125
20
135.03146328996968
30
0
11
-68.236152430298375
21
135.24312672685934
31
0
0
LINE
5
798
100
AcDbEntity
8
0
100
AcDbLine
10
-68.236152430298375
20
135.24312672685934
30
0
11
-68.315528237742626
21
135.48125011197084
31
0
0
LINE
5
799
100
AcDbEntity
8
0
100
AcDbLine
10
-68.315528237742626
20
135.48125011197084
30
0
11
-68.421359956187459
21
135.74583344530419
31
0
0
LINE
5
800
100
AcDbEntity
8
0
100
AcDbLine
10
-68.421359956187459
20
135.74583344530419
30
0
11
-68.527191674632277
21
136.03687672685933
31
0
0
LINE
5
801
100
AcDbEntity
8
0
100
AcDbLine
10
-68.527191674632277
20
136.03687672685933
30
0
11
-68.659483341298952
21
136.32792000841451
31
0
0
LINE
5
802
100
AcDbEntity
8
0
100
AcDbLine
10
-68.659483341298952
20
136.32792000841451
30
0
11
-68.818234956187453
21
136.64542323819154
31
0
0
LINE
5
803
100
AcDbEntity
8
0
100
AcDbLine
10
-68.818234956187453
20
136.64542323819154
30
0
11
-69.188650007965606
21
137.33333344530416
31
0
0
LINE
5
804
100
AcDbEntity
8
0
100
AcDbLine
10
-69.188650007965606
20
137.33333344530416
30
0
11
-69.400317482076531
21
137.70374849708233
31
0
0
LINE
5
805
100
AcDbEntity
8
0
100
AcDbLine
10
-69.400317482076531
20
137.70374849708233
30
0
11
-69.638440867188024
21
138.07416354886047
31
0
0
LINE
5
806
100
AcDbEntity
8
0
100
AcDbLine
10
-69.638440867188024
20
138.07416354886047
30
0
11
-69.903024200521358
21
138.47103854886046
31
0
0
LINE
5
807
100
AcDbEntity
8
0
100
AcDbLine
10
-69.903024200521358
20
138.47103854886046
30
0
11
-70.194067482076534
21
138.86791354886046
31
0
0
LINE
5
808
100
AcDbEntity
8
0
100
AcDbLine
10
-70.194067482076534
20
138.86791354886046
30
0
11
-70.194067482076534
21
138.92083344530417
31
0
0
LINE
5
809
100
AcDbEntity
8
0
100
AcDbLine
10
-70.194067482076534
20
138.92083344530417
30
0
11
-70.246983341298943
21
138.92083344530417
31
0
0
LINE
5
810
100
AcDbEntity
8
0
100
AcDbLine
10
-70.246983341298943
20
138.92083344530417
30
0
11
-71.86094328952079
21
138.7091700084145
31
0
0
LINE
5
811
100
AcDbEntity
8
0
100
AcDbLine
10
-71.86094328952079
20
138.7091700084145
30
0
11
-71.860943289520776
21
138.65625011197085
31
0
0
LINE
5
812
100
AcDbEntity
8
0
100
AcDbLine
10
-71.860943289520776
20
138.65625011197085
30
0
11
-72.072610763631701
21
138.18000334174783
31
0
0
LINE
5
813
100
AcDbEntity
8
0
100
AcDbLine
10
-72.072610763631701
20
138.18000334174783
30
0
11
-72.231362378520203
21
137.73020844530416
31
0
0
LINE
5
814
100
AcDbEntity
8
0
100
AcDbLine
10
-72.231362378520203
20
137.73020844530416
30
0
11
-72.363654045186877
21
137.30687349708231
31
0
0
LINE
5
815
100
AcDbEntity
8
0
100
AcDbLine
10
-72.363654045186877
20
137.30687349708231
30
0
11
-72.495945711853551
21
136.90999849708231
31
0
0
LINE
5
816
100
AcDbEntity
8
0
100
AcDbLine
10
-72.495945711853551
20
136.90999849708231
30
0
11
-72.60177743029837
21
136.51312349708232
31
0
0
LINE
5
817
100
AcDbEntity
8
0
100
AcDbLine
10
-72.60177743029837
20
136.51312349708232
30
0
11
-72.68115323774262
21
136.14270844530415
31
0
0
LINE
5
818
100
AcDbEntity
8
0
100
AcDbLine
10
-72.68115323774262
20
136.14270844530415
30
0
11
-72.760529045186871
21
135.79875334174784
31
0
0
LINE
5
819
100
AcDbEntity
8
0
100
AcDbLine
10
-72.760529045186871
20
135.79875334174784
30
0
11
-72.81344490440928
21
135.48125011197084
31
0
0
LINE
5
820
100
AcDbEntity
8
0
100
AcDbLine
10
-72.81344490440928
20
135.48125011197084
30
0
11
-72.86636076363169
21
135.19020683041566
31
0
0
LINE
5
821
100
AcDbEntity
8
0
100
AcDbLine
10
-72.86636076363169
20
135.19020683041566
30
0
11
-72.866360763631704
21
134.92562349708231
31
0
0
SPLINE
5
822
100
AcDbEntity
8
0
100
AcDbSpline
70
0
71
2
72
6
73
3
74
0
42
0.000000001
43
0.0000000001
44
0.0000000001
40
0
40
0
40
0
40
1
40
1
40
1
10
-72.866360763631704
20
134.92562349708231
30
0
10
-72.892820711853545
20
134.92562349708231
30
0
10
-72.919276622854113
20
134.68750011197082
30
0
0
LINE
5
823
100
AcDbEntity
8
0
100
AcDbLine
10
-72.919276622854113
20
134.68750011197082
30
0
11
-72.919276622854113
21
133.52333506019266
31
0
0
SPLINE
5
824
100
AcDbEntity
8
0
100
AcDbSpline
70
0
71
2
72
6
73
3
74
0
42
0.000000001
43
0.0000000001
44
0.0000000001
40
0
40
0
40
0
40
1
40
1
40
1
10
-72.919276622854113
20
133.52333506019266
30
0
10
-72.919276622854113
20
133.49687511197084
30
0
10
-72.760525007965612
20
132.78250495663633
30
0
0
LINE
5
825
100
AcDbEntity
8
0
100
AcDbLine
10
-72.760525007965612
20
132.78250495663636
30
0
11
-75.300526622854122
21
132.09458667508116
31
0
0
LINE
5
826
100
AcDbEntity
8
0
100
AcDbLine
10
-75.300526622854122
20
132.09458667508116
30
0
11
-75.512194096965032
21
132.80896490485819
31
0
0
LINE
5
827
100
AcDbEntity
8
0
100
AcDbLine
10
-75.512194096965032
20
132.80896490485819
30
0
11
-75.512194096965032
21
132.96771651974669
31
0
0
LINE
5
828
100
AcDbEntity
8
0
100
AcDbLine
10
-75.512194096965032
20
132.96771651974669
30
0
11
-75.591569904409283
21
133.07354823819153
31
0
0
LINE
5
829
100
AcDbEntity
8
0
100
AcDbLine
10
-75.591569904409283
20
133.07354823819153
30
0
11
-75.644485763631707
21
133.17937995663635
31
0
0
LINE
5
830
100
AcDbEntity
8
0
100
AcDbLine
10
-75.644485763631707
20
133.17937995663635
30
0
11
-75.723861571075957
21
133.31167162330303
31
0
0
LINE
5
831
100
AcDbEntity
8
0
100
AcDbLine
10
-75.723861571075957
20
133.31167162330303
30
0
11
-75.803237378520208
21
133.47042323819153
31
0
0
LINE
5
832
100
AcDbEntity
8
0
100
AcDbLine
10
-75.803237378520208
20
133.47042323819153
30
0
11
-75.909069096965027
21
133.65563480130189
31
0
0
LINE
5
833
100
AcDbEntity
8
0
100
AcDbLine
10
-75.909069096965027
20
133.65563480130189
30
0
11
-76.041360763631701
21
133.84084636441224
31
0
0
LINE
5
834
100
AcDbEntity
8
0
100
AcDbLine
10
-76.041360763631701
20
133.84084636441224
30
0
11
-76.173652430298375
21
134.05250980130188
31
0
0
LINE
5
835
100
AcDbEntity
8
0
100
AcDbLine
10
-76.173652430298375
20
134.05250980130188
30
0
11
-76.332404045186877
21
134.26417323819152
31
0
0
LINE
5
836
100
AcDbEntity
8
0
100
AcDbLine
10
-76.332404045186877
20
134.26417323819152
30
0
11
-76.51761157107596
21
134.50229662330304
31
0
0
LINE
5
837
100
AcDbEntity
8
0
100
AcDbLine
10
-76.51761157107596
20
134.50229662330304
30
0
11
-76.729279045186885
21
134.76687995663636
31
0
0
LINE
5
838
100
AcDbEntity
8
0
100
AcDbLine
10
-76.729279045186885
20
134.76687995663636
30
0
11
-76.967402430298378
21
135.03146328996968
31
0
0
LINE
5
839
100
AcDbEntity
8
0
100
AcDbLine
10
-76.967402430298378
20
135.03146328996968
30
0
11
-77.523029045186874
21
135.5870899048582
31
0
0
LINE
5
840
100
AcDbEntity
8
0
100
AcDbLine
10
-77.523029045186874
20
135.5870899048582
30
0
11
-77.840528237742618
21
135.87813318641335
31
0
0
LINE
5
841
100
AcDbEntity
8
0
100
AcDbLine
10
-77.840528237742618
20
135.87813318641335
30
0
11
-78.184487378520217
21
136.16917646796855
31
0
0
LINE
5
842
100
AcDbEntity
8
0
100
AcDbLine
10
-78.184487378520217
20
136.16917646796855
30
0
11
-78.55490243029837
21
136.48667969774556
31
0
0
LINE
5
843
100
AcDbEntity
8
0
100
AcDbLine
10
-78.55490243029837
20
136.48667969774556
30
0
11
-78.951777430298364
21
136.80418292752259
31
0
0
LINE
5
844
100
AcDbEntity
8
0
100
AcDbLine
10
-78.951777430298364
20
136.80418292752259
30
0
11
-79.004693289520787
21
136.85710282396624
31
0
0
LINE
5
845
100
AcDbEntity
8
0
100
AcDbLine
10
-79.004693289520787
20
136.85710282396624
30
0
11
-80.512817482076514
21
136.24856438707661
31
0
0
LINE
5
846
100
AcDbEntity
8
0
100
AcDbLine
10
-80.512817482076514
20
136.24856438707661
30
0
11
-80.512817482076542
21
136.19564449063293
31
0
0
LINE
5
847
100
AcDbEntity
8
0
100
AcDbLine
10
-80.512817482076542
20
136.19564449063293
30
0
11
-80.565737378520211
21
135.69293777218812
31
0
0
LINE
5
848
100
AcDbEntity
8
0
100
AcDbLine
10
-80.565737378520211
20
135.69293777218812
30
0
11
-80.565737378520211
21
135.21669100196513
31
0
0
SPLINE
5
849
100
AcDbEntity
8
0
100
AcDbSpline
70
0
71
2
72
6
73
3
74
0
42
0.000000001
43
0.0000000001
44
0.0000000001
40
0
40
0
40
0
40
1
40
1
40
1
10
-80.565737378520211
20
135.21669100196513
30
0
10
-80.592197326742053
20
135.21669100196513
30
0
10
-80.618657274963894
20
134.76689610552145
30
0
0
LINE
5
850
100
AcDbEntity
8
0
100
AcDbLine
10
-80.61865727496388
20
134.76689610552145
30
0
11
-80.618657274963894
21
132.9148127721881
31
0
0
SPLINE
5
851
100
AcDbEntity
8
0
100
AcDbSpline
70
0
71
2
72
6
73
3
74
0
42
0.000000001
43
0.0000000001
44
0.0000000001
40
0
40
0
40
0
40
1
40
1
40
1
10
-80.618657274963894
20
132.9148127721881
30
0
10
-80.592197326742053
20
132.9148127721881
30
0
10
-80.539285504740903
20
132.62376949063292
30
0
0
LINE
5
852
100
AcDbEntity
8
0
100
AcDbLine
10
-80.539285504740917
20
132.62376949063292
30
0
11
-80.48636560829722
21
132.3591861572996
31
0
0
LINE
5
853
100
AcDbEntity
8
0
100
AcDbLine
10
-80.48636560829722
20
132.3591861572996
30
0
11
-80.433445711853551
21
132.12106277218811
31
0
0
LINE
5
854
100
AcDbEntity
8
0
100
AcDbLine
10
-80.433445711853551
20
132.12106277218811
30
0
11
-80.380525815409868
21
131.90939933529847
31
0
0
LINE
5
855
100
AcDbEntity
8
0
100
AcDbLine
10
-80.380525815409868
20
131.90939933529847
30
0
11
-80.327605918966171
21
131.72418777218812
31
0
0
LINE
5
856
100
AcDbEntity
8
0
100
AcDbLine
10
-80.327605918966171
20
131.72418777218812
30
0
11
-80.274686022522502
21
131.56543615729962
31
0
0
LINE
5
857
100
AcDbEntity
8
0
100
AcDbLine
10
-80.274686022522502
20
131.56543615729962
30
0
11
-80.168846229635136
21
131.30085282396627
31
0
0
LINE
5
858
100
AcDbEntity
8
0
100
AcDbLine
10
-80.168846229635136
20
131.30085282396627
30
0
11
-80.168846229635136
21
131.19502110552145
31
0
0
SPLINE
5
859
100
AcDbEntity
8
0
100
AcDbSpline
70
0
71
2
72
6
73
3
74
0
42
0.000000001
43
0.0000000001
44
0.0000000001
40
0
40
0
40
0
40
1
40
1
40
1
10
-80.168846229635136
20
131.19502110552145
30
0
10
-80.14238628141328
20
131.19502110552145
30
0
10
-80.115926333191425
20
131.11564933529846
30
0
0
LINE
5
860
100
AcDbEntity
8
0
100
AcDbLine
10
-80.115926333191453
20
131.11564933529846
30
0
11
-80.115926333191425
21
131.06272943885477
31
0
0
LINE
5
861
100
AcDbEntity
8
0
100
AcDbLine
10
-80.115926333191425
20
131.06272943885477
30
0
11
-80.089466384969597
21
131.06272943885477
31
0
0
LINE
5
862
100
AcDbEntity
8
0
100
AcDbLine
10
-80.089466384969597
20
131.06272943885477
30
0
11
-79.745511281413272
21
130.40127110552143
31
0
0
LINE
5
863
100
AcDbEntity
8
0
100
AcDbLine
10
-79.745511281413272
20
130.40127110552143
30
0
11
-82.073841384969597
21
129.07835443885477
31
0
0
LINE
5
864
100
AcDbEntity
8
0
100
AcDbLine
10
-82.073841384969597
20
129.07835443885477
30
0
11
-82.470716384969592
21
129.68689287574443
31
0
0
LINE
5
865
100
AcDbEntity
8
0
100
AcDbLine
10
-82.470716384969592
20
129.68689287574443
30
0
11
-82.470716384969592
21
129.73981277218812
31
0
0
SPLINE
5
866
100
AcDbEntity
8
0
100
AcDbSpline
70
0
71
2
72
6
73
3
74
0
42
0.000000001
43
0.0000000001
44
0.0000000001
40
0
40
0
40
0
40
1
40
1
40
1
10
-82.470716384969592
20
129.73981277218812
30
0
10
-82.497176333191433
20
129.73981277218812
30
0
10
-82.550088155192583
20
129.7927326686318
30
0
0
LINE
5
867
100
AcDbEntity
8
0
100
AcDbLine
10
-82.550088155192554
20
129.7927326686318
30
0
11
-82.603008051636252
21
129.87210443885476
31
0
0
LINE
5
868
100
AcDbEntity
8
0
100
AcDbLine
10
-82.603008051636252
20
129.87210443885476
30
0
11
-82.682379821859243
21
129.97793615729958
31
0
0
LINE
5
869
100
AcDbEntity
8
0
100
AcDbLine
10
-82.682379821859243
20
129.97793615729958
30
0
11
-83.211546488525912
21
130.50710282396625
31
0
0
LINE
5
870
100
AcDbEntity
8
0
100
AcDbLine
10
-83.211546488525912
20
130.50710282396625
30
0
11
-83.396758051636255
21
130.66585443885478
31
0
0
LINE
5
871
100
AcDbEntity
8
0
100
AcDbLine
10
-83.396758051636255
20
130.66585443885478
30
0
11
-83.608421488525906
21
130.85106600196514
31
0
0
LINE
5
872
100
AcDbEntity
8
0
100
AcDbLine
10
-83.608421488525906
20
130.85106600196514
30
0
11
-83.846544873637399
21
131.03627756507547
31
0
0
LINE
5
873
100
AcDbEntity
8
0
100
AcDbLine
10
-83.846544873637399
20
131.03627756507547
30
0
11
-84.111128206970719
21
131.22148912818582
31
0
0
LINE
5
874
100
AcDbEntity
8
0
100
AcDbLine
10
-84.111128206970719
20
131.22148912818582
30
0
11
-84.402171488525909
21
131.40670069129618
31
0
0
LINE
5
875
100
AcDbEntity
8
0
100
AcDbLine
10
-84.402171488525909
20
131.40670069129618
30
0
11
-84.719674718302912
21
131.61836412818582
31
0
0
LINE
5
876
100
AcDbEntity
8
0
100
AcDbLine
10
-84.719674718302912
20
131.61836412818582
30
0
11
-85.063629821859223
21
131.83002756507548
31
0
0
LINE
5
877
100
AcDbEntity
8
0
100
AcDbLine
10
-85.063629821859223
20
131.83002756507548
30
0
11
-85.434044873637376
21
132.04169100196512
31
0
0
LINE
5
878
100
AcDbEntity
8
0
100
AcDbLine
10
-85.434044873637376
20
132.04169100196512
30
0
11
-85.830919873637413
21
132.25335443885479
31
0
0
LINE
5
879
100
AcDbEntity
8
0
100
AcDbLine
10
-85.830919873637413
20
132.25335443885479
30
0
11
-86.254254821859234
21
132.46501787574442
31
0
0
LINE
5
880
100
AcDbEntity
8
0
100
AcDbLine
10
-86.254254821859234
20
132.46501787574442
30
0
11
-86.704049718302926
21
132.67668131263409
31
0
0
LINE
5
881
100
AcDbEntity
8
0
100
AcDbLine
10
-86.704049718302926
20
132.67668131263409
30
0
11
-86.756969614746623
21
132.67668131263409
31
0
0
LINE
5
882
100
AcDbEntity
8
0
100
AcDbLine
10
-86.756969614746623
20
132.67668131263409
30
0
11
-88.053426333191425
21
131.72417969774557
31
0
0
LINE
5
883
100
AcDbEntity
8
0
100
AcDbLine
10
-88.053426333191425
20
131.72417969774557
30
0
11
-88.053426333191425
21
131.67125980130189
31
0
0
LINE
5
884
100
AcDbEntity
8
0
100
AcDbLine
10
-88.053426333191425
20
131.67125980130189
30
0
11
-87.974054562968448
21
131.16855308285704
31
0
0
LINE
5
885
100
AcDbEntity
8
0
100
AcDbLine
10
-87.974054562968448
20
131.16855308285704
30
0
11
-87.894682792745471
21
130.69230631263406
31
0
0
LINE
5
886
100
AcDbEntity
8
0
100
AcDbLine
10
-87.894682792745471
20
130.69230631263406
30
0
11
-87.78885107430068
21
130.24251141619038
31
0
0
LINE
5
887
100
AcDbEntity
8
0
100
AcDbLine
10
-87.78885107430068
20
130.24251141619038
30
0
11
-87.683019355855834
21
129.81917646796856
31
0
0
LINE
5
888
100
AcDbEntity
8
0
100
AcDbLine
10
-87.683019355855834
20
129.81917646796856
30
0
11
-87.577187637411015
21
129.42230146796857
31
0
0
LINE
5
889
100
AcDbEntity
8
0
100
AcDbLine
10
-87.577187637411015
20
129.42230146796857
30
0
11
-87.471355918966168
21
129.05188641619037
31
0
0
LINE
5
890
100
AcDbEntity
8
0
100
AcDbLine
10
-87.471355918966168
20
129.05188641619037
30
0
11
-87.365524200521364
21
128.70793131263409
31
0
0
LINE
5
891
100
AcDbEntity
8
0
100
AcDbLine
10
-87.365524200521364
20
128.70793131263409
30
0
11
-87.259692482076531
21
128.39042808285706
31
0
0
LINE
5
892
100
AcDbEntity
8
0
100
AcDbLine
10
-87.259692482076531
20
128.39042808285706
30
0
11
-87.153860763631712
21
128.09938480130188
31
0
0
LINE
5
893
100
AcDbEntity
8
0
100
AcDbLine
10
-87.153860763631712
20
128.09938480130188
30
0
11
-87.04802904518688
21
127.83480146796855
31
0
0
LINE
5
894
100
AcDbEntity
8
0
100
AcDbLine
10
-87.04802904518688
20
127.83480146796855
30
0
11
-86.942197326742061
21
127.59667808285705
31
0
0
LINE
5
895
100
AcDbEntity
8
0
100
AcDbLine
10
-86.942197326742061
20
127.59667808285705
30
0
11
-86.836365608297243
21
127.3850146459674
31
0
0
LINE
5
896
100
AcDbEntity
8
0
100
AcDbLine
10
-86.836365608297243
20
127.3850146459674
30
0
11
-86.730533889852396
21
127.19980308285706
31
0
0
LINE
5
897
100
AcDbEntity
8
0
100
AcDbLine
10
-86.730533889852396
20
127.19980308285706
30
0
11
-86.651162119629447
21
127.04105146796856
31
0
0
LINE
5
898
100
AcDbEntity
8
0
100
AcDbLine
10
-86.651162119629447
20
127.04105146796856
30
0
11
-86.571790349406456
21
126.90875980130187
31
0
0
LINE
5
899
100
AcDbEntity
8
0
100
AcDbLine
10
-86.571790349406456
20
126.90875980130187
30
0
11
-86.492418579183465
21
126.80292808285706
31
0
0
LINE
5
900
100
AcDbEntity
8
0
100
AcDbLine
10
-86.492418579183465
20
126.80292808285706
30
0
11
-86.439498682739782
21
126.72355631263407
31
0
0
LINE
5
901
100
AcDbEntity
8
0
100
AcDbLine
10
-86.439498682739782
20
126.72355631263407
30
0
11
-86.386578786296099
21
126.67063641619039
31
0
0
LINE
5
902
100
AcDbEntity
8
0
100
AcDbLine
10
-86.386578786296099
20
126.67063641619039
30
0
11
-86.386578786296084
21
126.61771651974672
31
0
0
LINE
5
903
100
AcDbEntity
8
0
100
AcDbLine
10
-86.386578786296084
20
126.61771651974672
30
0
11
-86.333658889852401
21
126.61771651974669
31
0
0
LINE
5
904
100
AcDbEntity
8
0
100
AcDbLine
10
-86.333658889852401
20
126.61771651974669
30
0
11
-85.830952171407588
21
126.06208990485818
31
0
0
LINE
5
905
100
AcDbEntity
8
0
100
AcDbLine
10
-85.830952171407588
20
126.06208990485818
30
0
11
-87.735955401184611
21
124.18354662330302
31
0
0
LINE
5
906
100
AcDbEntity
8
0
100
AcDbLine
10
-87.735955401184611
20
124.18354662330302
30
0
11
-88.265122067851266
21
124.68625334174786
31
0
0
LINE
5
907
100
AcDbEntity
8
0
100
AcDbLine
10
-88.265122067851266
20
124.68625334174786
30
0
11
-88.370961860738632
21
124.79209313463522
31
0
0
LINE
5
908
100
AcDbEntity
8
0
100
AcDbLine
10
-88.370961860738632
20
124.79209313463522
30
0
11
-88.450333630961623
21
124.84501303107891
31
0
0
LINE
5
909
100
AcDbEntity
8
0
100
AcDbLine
10
-88.450333630961623
20
124.84501303107891
30
0
11
-88.556165349406442
21
124.92438480130188
31
0
0
LINE
5
910
100
AcDbEntity
8
0
100
AcDbLine
10
-88.556165349406442
20
124.92438480130188
30
0
11
-88.688457016073116
21
125.00375657152487
31
0
0
LINE
5
911
100
AcDbEntity
8
0
100
AcDbLine
10
-88.688457016073116
20
125.00375657152487
30
0
11
-88.847208630961617
21
125.08312834174785
31
0
0
LINE
5
912
100
AcDbEntity
8
0
100
AcDbLine
10
-88.847208630961617
20
125.08312834174785
30
0
11
-89.032420194071989
21
125.18896006019268
31
0
0
LINE
5
913
100
AcDbEntity
8
0
100
AcDbLine
10
-89.032420194071989
20
125.18896006019268
30
0
11
-89.244083630961626
21
125.29479177863749
31
0
0
LINE
5
914
100
AcDbEntity
8
0
100
AcDbLine
10
-89.244083630961626
20
125.29479177863749
30
0
11
-89.482207016073119
21
125.40062349708231
31
0
0
LINE
5
915
100
AcDbEntity
8
0
100
AcDbLine
10
-89.482207016073119
20
125.40062349708231
30
0
11
-89.746790349406439
21
125.50645521552713
31
0
0
LINE
5
916
100
AcDbEntity
8
0
100
AcDbLine
10
-89.746790349406439
20
125.50645521552713
30
0
11
-90.037833630961615
21
125.61228693397196
31
0
0
LINE
5
917
100
AcDbEntity
8
0
100
AcDbLine
10
-90.037833630961615
20
125.61228693397196
30
0
11
-90.355336860738632
21
125.71811865241678
31
0
0
LINE
5
918
100
AcDbEntity
8
0
100
AcDbLine
10
-90.355336860738632
20
125.71811865241678
30
0
11
-90.699291964294957
21
125.82395037086161
31
0
0
LINE
5
919
100
AcDbEntity
8
0
100
AcDbLine
10
-90.699291964294957
20
125.82395037086161
30
0
11
-91.069707016073096
21
125.92978208930644
31
0
0
LINE
5
920
100
AcDbEntity
8
0
100
AcDbLine
10
-91.069707016073096
20
125.92978208930644
30
0
11
-91.466582016073104
21
126.03561380775126
31
0
0
LINE
5
921
100
AcDbEntity
8
0
100
AcDbLine
10
-91.466582016073104
20
126.03561380775126
30
0
11
-91.889916964294954
21
126.14144552619608
31
0
0
LINE
5
922
100
AcDbEntity
8
0
100
AcDbLine
10
-91.889916964294954
20
126.14144552619608
30
0
11
-92.339711860738646
21
126.24727724464091
31
0
0
LINE
5
923
100
AcDbEntity
8
0
100
AcDbLine
10
-92.339711860738646
20
126.24727724464091
30
0
11
-92.815958630961632
21
126.32664901486388
31
0
0
LINE
5
924
100
AcDbEntity
8
0
100
AcDbLine
10
-92.815958630961632
20
126.32664901486388
30
0
11
-93.31866534940643
21
126.40602078508687
31
0
0
LINE
5
925
100
AcDbEntity
8
0
100
AcDbLine
10
-93.31866534940643
20
126.40602078508687
30
0
11
-93.371585245850127
21
126.40602078508687
31
0
0
LINE
5
926
100
AcDbEntity
8
0
100
AcDbLine
10
-93.371585245850127
20
126.40602078508687
30
0
11
-94.376998682739782
21
125.10956406664205
31
0
0
LINE
5
927
100
AcDbEntity
8
0
100
AcDbLine
10
-94.376998682739782
20
125.10956406664205
30
0
11
-94.376998682739782
21
125.05664417019837
31
0
0
LINE
5
928
100
AcDbEntity
8
0
100
AcDbLine
10
-94.376998682739782
20
125.05664417019837
30
0
11
-94.138875297628289
21
124.60684927375469
31
0
0
LINE
5
929
100
AcDbEntity
8
0
100
AcDbLine
10
-94.138875297628289
20
124.60684927375469
30
0
11
-93.927211860738637
21
124.18351432553285
31
0
0
LINE
5
930
100
AcDbEntity
8
0
100
AcDbLine
10
-93.927211860738637
20
124.18351432553285
30
0
11
-93.715548423848986
21
123.78663932553286
31
0
0
LINE
5
931
100
AcDbEntity
8
0
100
AcDbLine
10
-93.715548423848986
20
123.78663932553286
30
0
11
-93.503884986959335
21
123.41622427375469
31
0
0
LINE
5
932
100
AcDbEntity
8
0
100
AcDbLine
10
-93.503884986959335
20
123.41622427375469
30
0
11
-93.292221550069712
21
123.07226917019838
31
0
0
LINE
5
933
100
AcDbEntity
8
0
100
AcDbLine
10
-93.292221550069712
20
123.07226917019838
30
0
11
-93.080558113180061
21
122.75476594042135
31
0
0
LINE
5
934
100
AcDbEntity
8
0
100
AcDbLine
10
-93.080558113180061
20
122.75476594042135
30
0
11
-92.895346550069718
21
122.46372265886619
31
0
0
LINE
5
935
100
AcDbEntity
8
0
100
AcDbLine
10
-92.895346550069718
20
122.46372265886619
30
0
11
-92.710134986959361
21
122.19913932553284
31
0
0
LINE
5
936
100
AcDbEntity
8
0
100
AcDbLine
10
-92.710134986959361
20
122.19913932553284
30
0
11
-92.524923423848989
21
121.96101594042136
31
0
0
LINE
5
937
100
AcDbEntity
8
0
100
AcDbLine
10
-92.524923423848989
20
121.96101594042136
30
0
11
-92.339711860738618
21
121.74935250353172
31
0
0
LINE
5
938
100
AcDbEntity
8
0
100
AcDbLine
10
-92.339711860738618
20
121.74935250353172
30
0
11
-92.180960245850116
21
121.56414094042135
31
0
0
LINE
5
939
100
AcDbEntity
8
0
100
AcDbLine
10
-92.180960245850116
20
121.56414094042135
30
0
11
-92.022208630961615
21
121.40538932553285
31
0
0
LINE
5
940
100
AcDbEntity
8
0
100
AcDbLine
10
-92.022208630961615
20
121.40538932553285
30
0
11
-91.88991696429494
21
121.24663771064435
31
0
0
LINE
5
941
100
AcDbEntity
8
0
100
AcDbLine
10
-91.88991696429494
20
121.24663771064435
30
0
11
-91.651793579183462
21
121.00851432553286
31
0
0
LINE
5
942
100
AcDbEntity
8
0
100
AcDbLine
10
-91.651793579183462
20
121.00851432553286
30
0
11
-91.545961860738657
21
120.92914255530988
31
0
0
LINE
5
943
100
AcDbEntity
8
0
100
AcDbLine
10
-91.545961860738657
20
120.92914255530988
30
0
11
-91.466590090515666
21
120.8762226588662
31
0
0
LINE
5
944
100
AcDbEntity
8
0
100
AcDbLine
10
-91.466590090515666
20
120.8762226588662
30
0
11
-91.413670194071969
21
120.82330276242251
31
0
0
LINE
5
945
100
AcDbEntity
8
0
100
AcDbLine
10
-91.413670194071969
20
120.82330276242251
30
0
11
-91.360750297628286
21
120.82330276242249
31
0
0
LINE
5
946
100
AcDbEntity
8
0
100
AcDbLine
10
-91.360750297628286
20
120.82330276242249
30
0
11
-91.360750297628286
21
120.77038286597882
31
0
0
LINE
5
947
100
AcDbEntity
8
0
100
AcDbLine
10
-91.360750297628286
20
120.77038286597882
30
0
11
-90.75221186073864
21
120.37350786597882
31
0
0
LINE
5
948
100
AcDbEntity
8
0
100
AcDbLine
10
-90.75221186073864
20
120.37350786597882
30
0
11
-92.101588475627153
21
118.07162963620181
31
0
0
LINE
5
949
100
AcDbEntity
8
0
100
AcDbLine
10
-92.101588475627153
20
118.07162963620181
30
0
11
-92.763046808960468
21
118.4155847397581
31
0
0
LINE
5
950
100
AcDbEntity
8
0
100
AcDbLine
10
-92.763046808960468
20
118.4155847397581
30
0
11
-92.895338475627142
21
118.4155847397581
31
0
0
SPLINE
5
951
100
AcDbEntity
8
0
100
AcDbSpline
70
0
71
2
72
6
73
3
74
0
42
0.000000001
43
0.0000000001
44
0.0000000001
40
0
40
0
40
0
40
1
40
1
40
1
10
-92.895338475627156
20
118.4155847397581
30
0
10
-92.895338475627156
20
118.44204468797996
30
0
10
-93.00117019407196
20
118.4685046362018
30
0
0
LINE
5
952
100
AcDbEntity
8
0
100
AcDbLine
10
-93.00117019407196
20
118.46850463620179
30
0
11
-93.265753527405309
21
118.57434442908917
31
0
0
LINE
5
953
100
AcDbEntity
8
0
100
AcDbLine
10
-93.265753527405309
20
118.57434442908917
30
0
11
-93.42450514229381
21
118.62726432553285
31
0
0
LINE
5
954
100
AcDbEntity
8
0
100
AcDbLine
10
-93.42450514229381
20
118.62726432553285
30
0
11
-93.609716705404153
21
118.68018422197653
31
0
0
LINE
5
955
100
AcDbEntity
8
0
100
AcDbLine
10
-93.609716705404153
20
118.68018422197653
30
0
11
-93.821380142293805
21
118.73310411842021
31
0
0
LINE
5
956
100
AcDbEntity
8
0
100
AcDbLine
10
-93.821380142293805
20
118.73310411842021
30
0
11
-94.059503527405298
21
118.7860240148639
31
0
0
LINE
5
957
100
AcDbEntity
8
0
100
AcDbLine
10
-94.059503527405298
20
118.7860240148639
30
0
11
-94.324086860738632
21
118.8389439113076
31
0
0
LINE
5
958
100
AcDbEntity
8
0
100
AcDbLine
10
-94.324086860738632
20
118.8389439113076
30
0
11
-94.615130142293808
21
118.8389439113076
31
0
0
SPLINE
5
959
100
AcDbEntity
8
0
100
AcDbSpline
70
0
71
2
72
6
73
3
74
0
42
0.000000001
43
0.0000000001
44
0.0000000001
40
0
40
0
40
0
40
1
40
1
40
1
10
-94.615130142293822
20
118.8389439113076
30
0
10
-94.615130142293822
20
118.86540385952942
30
0
10
-94.932633372070825
20
118.91831568153057
30
0
0
LINE
5
960
100
AcDbEntity
8
0
100
AcDbLine
10
-94.932633372070825
20
118.91831568153054
30
0
11
-95.276588475627136
21
118.91831568153057
31
0
0
LINE
5
961
100
AcDbEntity
8
0
100
AcDbLine
10
-95.276588475627136
20
118.91831568153057
30
0
11
-95.647003527405317
21
118.97123557797426
31
0
0
LINE
5
962
100
AcDbEntity
8
0
100
AcDbLine
10
-95.647003527405317
20
118.97123557797426
30
0
11
-96.917000297628277
21
118.97123557797427
31
0
0
LINE
5
963
100
AcDbEntity
8
0
100
AcDbLine
10
-96.917000297628277
20
118.97123557797427
30
0
11
-97.393247067851263
21
118.91831568153059
31
0
0
LINE
5
964
100
AcDbEntity
8
0
100
AcDbLine
10
-97.393247067851263
20
118.91831568153059
30
0
11
-97.895953786296076
21
118.86539578508689
31
0
0
LINE
5
965
100
AcDbEntity
8
0
100
AcDbLine
10
-97.895953786296076
20
118.86539578508689
30
0
11
-97.948873682739773
21
118.86539578508689
31
0
0
LINE
5
966
100
AcDbEntity
8
0
100
AcDbLine
10
-97.948873682739773
20
118.86539578508689
30
0
11
-98.58387206785126
21
117.35726755530987
31
0
0
LINE
5
967
100
AcDbEntity
8
0
100
AcDbLine
10
-98.58387206785126
20
117.35726755530987
30
0
11
-98.583872067851274
21
117.30434765886619
31
0
0
SPLINE
5
968
100
AcDbEntity
8
0
100
AcDbSpline
70
0
71
2
72
6
73
3
74
0
42
0.000000001
43
0.0000000001
44
0.0000000001
40
0
40
0
40
0
40
1
40
1
40
1
10
-98.583872067851274
20
117.30434765886619
30
0
10
-98.557412119629433
20
117.30434765886619
30
0
10
-98.239916964294949
20
116.9074726588662
30
0
0
LINE
5
969
100
AcDbEntity
8
0
100
AcDbLine
10
-98.239916964294949
20
116.9074726588662
30
0
11
-97.922413734517932
21
116.53705760708803
31
0
0
LINE
5
970
100
AcDbEntity
8
0
100
AcDbLine
10
-97.922413734517932
20
116.53705760708803
30
0
11
-97.63137045296277
21
116.19310250353172
31
0
0
LINE
5
971
100
AcDbEntity
8
0
100
AcDbLine
10
-97.63137045296277
20
116.19310250353172
30
0
11
-97.34032717140758
21
115.87559927375469
31
0
0
LINE
5
972
100
AcDbEntity
8
0
100
AcDbLine
10
-97.34032717140758
20
115.87559927375469
30
0
11
-96.78470055651907
21
115.31997265886618
31
0
0
LINE
5
973
100
AcDbEntity
8
0
100
AcDbLine
10
-96.78470055651907
20
115.31997265886618
30
0
11
-96.52011722318575
21
115.08184927375468
31
0
0
LINE
5
974
100
AcDbEntity
8
0
100
AcDbLine
10
-96.52011722318575
20
115.08184927375468
30
0
11
-96.281993838074243
21
114.87018583686505
31
0
0
LINE
5
975
100
AcDbEntity
8
0
100
AcDbLine
10
-96.281993838074243
20
114.87018583686505
30
0
11
-96.04387045296275
21
114.68497427375469
31
0
0
LINE
5
976
100
AcDbEntity
8
0
100
AcDbLine
10
-96.04387045296275
20
114.68497427375469
30
0
11
-95.832207016073099
21
114.52622265886619
31
0
0
LINE
5
977
100
AcDbEntity
8
0
100
AcDbLine
10
-95.832207016073099
20
114.52622265886619
30
0
11
-95.620543579183447
21
114.39393099219953
31
0
0
LINE
5
978
100
AcDbEntity
8
0
100
AcDbLine
10
-95.620543579183447
20
114.39393099219953
30
0
11
-95.435332016073104
21
114.26163932553285
31
0
0
LINE
5
979
100
AcDbEntity
8
0
100
AcDbLine
10
-95.435332016073104
20
114.26163932553285
30
0
11
-95.250120452962761
21
114.15580760708804
31
0
0
LINE
5
980
100
AcDbEntity
8
0
100
AcDbLine
10
-95.250120452962761
20
114.15580760708804
30
0
11
-95.09136883807426
21
114.07643583686506
31
0
0
LINE
5
981
100
AcDbEntity
8
0
100
AcDbLine
10
-95.09136883807426
20
114.07643583686506
30
0
11
-94.959077171407557
21
113.99706406664207
31
0
0
LINE
5
982
100
AcDbEntity
8
0
100
AcDbLine
10
-94.959077171407557
20
113.99706406664207
30
0
11
-94.74741373451792
21
113.8912242737547
31
0
0
LINE
5
983
100
AcDbEntity
8
0
100
AcDbLine
10
-94.74741373451792
20
113.8912242737547
30
0
11
-94.668041964294943
21
113.89122427375469
31
0
0
SPLINE
5
984
100
AcDbEntity
8
0
100
AcDbSpline
70
0
71
2
72
6
73
3
74
0
42
0.000000001
43
0.0000000001
44
0.0000000001
40
0
40
0
40
0
40
1
40
1
40
1
10
-94.668041964294957
20
113.89122427375469
30
0
10
-94.668041964294957
20
113.86476432553286
30
0
10
-94.615122067851274
20
113.838304377311
30
0
0
LINE
5
985
100
AcDbEntity
8
0
100
AcDbLine
10
-94.615122067851274
20
113.83830437731103
30
0
11
-93.927203786296076
21
113.60018099219951
31
0
0
LINE
5
986
100
AcDbEntity
8
0
100
AcDbLine
10
-93.927203786296076
20
113.60018099219951
30
0
11
-94.641582016073102
21
111.03371942908916
31
0
0
LINE
5
987
100
AcDbEntity
8
0
100
AcDbLine
10
-94.641582016073102
20
111.03371942908916
30
0
11
-95.355960245850127
21
111.19247104397766
31
0
0
LINE
5
988
100
AcDbEntity
8
0
100
AcDbLine
10
-95.355960245850127
20
111.19247104397766
30
0
11
-96.784708630961603
21
111.19247104397769
31
0
0
SPLINE
5
989
100
AcDbEntity
8
0
100
AcDbSpline
70
0
71
2
72
6
73
3
74
0
42
0.000000001
43
0.0000000001
44
0.0000000001
40
0
40
0
40
0
40
1
40
1
40
1
10
-96.784708630961632
20
111.19247104397769
30
0
10
-96.784708630961632
20
111.16601109575583
30
0
10
-97.049291964294966
20
111.16601109575583
30
0
0
LINE
5
990
100
AcDbEntity
8
0
100
AcDbLine
10
-97.049291964294966
20
111.16601109575583
30
0
11
-97.340335245850142
21
111.08663932553286
31
0
0
LINE
5
991
100
AcDbEntity
8
0
100
AcDbLine
10
-97.340335245850142
20
111.08663932553286
30
0
11
-97.657838475627145
21
111.03371942908916
31
0
0
LINE
5
992
100
AcDbEntity
8
0
100
AcDbLine
10
-97.657838475627145
20
111.03371942908916
30
0
11
-98.00179357918347
21
110.9543476588662
31
0
0
LINE
5
993
100
AcDbEntity
8
0
100
AcDbLine
10
-98.00179357918347
20
110.9543476588662
30
0
11
-98.372208630961623
21
110.87497588864322
31
0
0
LINE
5
994
100
AcDbEntity
8
0
100
AcDbLine
10
-98.372208630961623
20
110.87497588864322
30
0
11
-99.165958630961626
21
110.66331245175355
31
0
0
LINE
5
995
100
AcDbEntity
8
0
100
AcDbLine
10
-99.165958630961626
20
110.66331245175355
30
0
11
-99.589293579183476
21
110.53102078508688
31
0
0
LINE
5
996
100
AcDbEntity
8
0
100
AcDbLine
10
-99.589293579183476
20
110.53102078508688
30
0
11
-100.03908847562715
21
110.37226917019838
31
0
0
LINE
5
997
100
AcDbEntity
8
0
100
AcDbLine
10
-100.03908847562715
20
110.37226917019838
30
0
11
-100.51533524585014
21
110.18705760708804
31
0
0
LINE
5
998
100
AcDbEntity
8
0
100
AcDbLine
10
-100.51533524585014
20
110.18705760708804
30
0
11
-100.56825514229382
21
110.18705760708804
31
0
0
SPLINE
5
999
100
AcDbEntity
8
0
100
AcDbSpline
70
0
71
2
72
6
73
3
74
0
42
0.000000001
43
0.0000000001
44
0.0000000001
40
0
40
0
40
0
40
1
40
1
40
1
10
-100.56825514229381
20
110.18705760708804
30
0
10
-100.56825514229381
20
110.16059765886618
30
0
10
-100.77991857918346
20
108.54663771064435
30
0
0
LINE
5
1000
100
AcDbEntity
8
0
100
AcDbLine
10
-100.77991857918346
20
108.54663771064436
30
0
11
-100.72699868273978
21
108.54663771064435
31
0
0
SPLINE
5
1001
100
AcDbEntity
8
0
100
AcDbSpline
70
0
71
2
72
6
73
3
74
0
42
0.000000001
43
0.0000000001
44
0.0000000001
40
0
40
0
40
0
40
1
40
1
40
1
10
-100.72699868273979
20
108.54663771064435
30
0
10
-100.72699868273979
20
108.52017776242249
30
0
10
-100.3301236827398
20
108.20268260708802
30
0
0
LINE
5
1002
100
AcDbEntity
8
0
100
AcDbLine
10
-100.3301236827398
20
108.20268260708802
30
0
11
-99.933248682739801
21
107.93809927375469
31
0
0
LINE
5
1003
100
AcDbEntity
8
0
100
AcDbLine
10
-99.933248682739801
20
107.93809927375469
30
0
11
-99.56283363096162
21
107.69997588864321
31
0
0
LINE
5
1004
100
AcDbEntity
8
0
100
AcDbLine
10
-99.56283363096162
20
107.69997588864321
30
0
11
-99.192418579183482
21
107.48831245175356
31
0
0
LINE
5
1005
100
AcDbEntity
8
0
100
AcDbLine
10
-99.192418579183482
20
107.48831245175356
30
0
11
-98.848463475627156
21
107.27664901486391
31
0
0
LINE
5
1006
100
AcDbEntity
8
0
100
AcDbLine
10
-98.848463475627156
20
107.27664901486391
30
0
11
-98.504508372070831
21
107.09143745175355
31
0
0
LINE
5
1007
100
AcDbEntity
8
0
100
AcDbLine
10
-98.504508372070831
20
107.09143745175355
30
0
11
-98.187005142293827
21
106.93268583686505
31
0
0
LINE
5
1008
100
AcDbEntity
8
0
100
AcDbLine
10
-98.187005142293827
20
106.93268583686505
30
0
11
-97.895961860738637
21
106.80039417019839
31
0
0
LINE
5
1009
100
AcDbEntity
8
0
100
AcDbLine
10
-97.895961860738637
20
106.80039417019839
30
0
11
-97.366795194071969
21
106.58873073330874
31
0
0
LINE
5
1010
100
AcDbEntity
8
0
100
AcDbLine
10
-97.366795194071969
20
106.58873073330874
30
0
11
-97.12867180896049
21
106.50935896308576
31
0
0
LINE
5
1011
100
AcDbEntity
8
0
100
AcDbLine
10
-97.12867180896049
20
106.50935896308576
30
0
11
-96.917008372070825
21
106.42998719286277
31
0
0
LINE
5
1012
100
AcDbEntity
8
0
100
AcDbLine
10
-96.917008372070825
20
106.42998719286277
30
0
11
-96.731796808960482
21
106.37706729641909
31
0
0
LINE
5
1013
100
AcDbEntity
8
0
100
AcDbLine
10
-96.731796808960482
20
106.37706729641909
30
0
11
-96.573045194071966
21
106.3241473999754
31
0
0
LINE
5
1014
100
AcDbEntity
8
0
100
AcDbLine
10
-96.573045194071966
20
106.3241473999754
30
0
11
-96.414293579183479
21
106.3241473999754
31
0
0
SPLINE
5
1015
100
AcDbEntity
8
0
100
AcDbSpline
70
0
71
2
72
6
73
3
74
0
42
0.000000001
43
0.0000000001
44
0.0000000001
40
0
40
0
40
0
40
1
40
1
40
1
10
-96.414293579183479
20
106.3241473999754
30
0
10
-96.414293579183479
20
106.29768745175355
30
0
10
-96.28200191251679
20
106.27122750353172
30
0
0
LINE
5
1016
100
AcDbEntity
8
0
100
AcDbLine
10
-96.28200191251679
20
106.27122750353173
30
0
11
-96.096790349406433
21
106.27122750353172
31
0
0
SPLINE
5
1017
100
AcDbEntity
8
0
100
AcDbSpline
70
0
71
2
72
6
73
3
74
0
42
0.000000001
43
0.0000000001
44
0.0000000001
40
0
40
0
40
0
40
1
40
1
40
1
10
-96.096790349406433
20
106.27122750353172
30
0
10
-96.096790349406433
20
106.24476755530986
30
0
10
-96.04387045296275
20
106.24476755530986
30
0
0
LINE
5
1018
100
AcDbEntity
8
0
100
AcDbLine
10
-96.04387045296275
20
106.24476755530986
30
0
11
-95.276580401184589
21
106.24476755530986
31
0
0
LINE
5
1019
100
AcDbEntity
8
0
100
AcDbLine
10
-95.276580401184589
20
106.24476755530986
30
0
11
-95.276580401184603
21
103.54601432553284
31
0
0
LINE
5
1020
100
AcDbEntity
8
0
100
AcDbLine
10
-95.276580401184603
20
103.54601432553284
30
0
11
-96.070330401184592
21
103.54601432553284
31
0
0
ENDSEC
0
SECTION
2
OBJECTS
0
DICTIONARY
5
C
100
AcDbDictionary
3
ACAD_GROUP
350
D
3
ACAD_MLINESTYLE
350
17
0
DICTIONARY
5
D
100
AcDbDictionary
0
DICTIONARY
5
1A
330
C
100
AcDbDictionary
0
DICTIONARY
5
17
100
AcDbDictionary
0
ENDSEC
0
EOF
