0
SECTION
2
HEADER
9
$INSUNITS
70
4
9
$ACADVER
1
AC1014
9
$HANDSEED
5
FFFF
0
ENDSEC
0
SECTION
2
TABLES
0
TABLE
2
VPORT
5
8
100
AcDbSymbolTable
0
ENDTAB
0
TABLE
2
LTYPE
5
5
100
AcDbSymbolTable
0
LTYPE
5
14
100
AcDbSymbolTableRecord
100
AcDbLinetypeTableRecord
2
BYBLOCK
70
0
0
LTYPE
5
15
100
AcDbSymbolTableRecord
100
AcDbLinetypeTableRecord
2
BYLAYER
70
0
0
LTYPE
5
16
100
AcDbSymbolTableRecord
100
AcDbLinetypeTableRecord
2
DASHED
70
0
3
Dashed __ __ __ __ __ __ __ __ __ __ __ __ __ _
72
65
73
2
40
0.75
49
0.5
74
0
49
-0.25
74
0
0
ENDTAB
0
TABLE
2
LAYER
5
2
100
AcDbSymbolTable
70
2
0
LAYER
5
50
100
AcDbSymbolTableRecord
100
AcDbLayerTableRecord
2
0
70
0
62
7
6
CONTINUOUS
0
ENDTAB
0
TABLE
2
STYLE
5
3
100
AcDbSymbolTable
70
1
0
STYLE
5
11
100
AcDbSymbolTableRecord
100
AcDbTextStyleTableRecord
2
STANDARD
70
0
0
ENDTAB
0
TABLE
2
VIEW
5
6
100
AcDbSymbolTable
70
0
0
ENDTAB
0
TABLE
2
UCS
5
7
100
AcDbSymbolTable
70
0
0
ENDTAB
0
TABLE
2
APPID
5
9
100
AcDbSymbolTable
70
2
0
APPID
5
12
100
AcDbSymbolTableRecord
100
AcDbRegAppTableRecord
2
ACAD
70
0
0
ENDTAB
0
TABLE
2
DIMSTYLE
5
A
100
AcDbSymbolTable
70
1
0
ENDTAB
0
TABLE
2
BLOCK_RECORD
5
1
100
AcDbSymbolTable
70
1
0
BLOCK_RECORD
5
1F
100
AcDbSymbolTableRecord
100
AcDbBlockTableRecord
2
*MODEL_SPACE
0
BLOCK_RECORD
5
1B
100
AcDbSymbolTableRecord
100
AcDbBlockTableRecord
2
*PAPER_SPACE
0
ENDTAB
0
ENDSEC
0
SECTION
2
BLOCKS
0
BLOCK
5
20
100
AcDbEntity
100
AcDbBlockBegin
2
*MODEL_SPACE
0
ENDBLK
5
21
100
AcDbEntity
100
AcDbBlockEnd
0
BLOCK
5
1C
100
AcDbEntity
100
AcDbBlockBegin
2
*PAPER_SPACE
0
ENDBLK
5
1D
100
AcDbEntity
100
AcDbBlockEnd
0
ENDSEC
0
SECTION
2
ENTITIES
0
SPLINE
5
100
100
AcDbEntity
8
0
100
AcDbSpline
70
4
71
3
72
8
73
4
74
0
42
0.000000001
43
0.0000000001
44
0.0000000001
40
0
40
0
40
0
40
0
40
1
40
1
40
1
40
1
41
1
41
1
41
1
41
1
10
-163.18130914640452
20
59.015210019525725
30
0
10
-163.81629945707348
20
59.015210019525725
30
0
10
-164.31901424996084
20
59.517916737970545
30
0
10
-164.31901424996084
20
60.152919160303298
30
0
0
SPLINE
5
101
100
AcDbEntity
8
0
100
AcDbSpline
70
4
71
3
72
8
73
4
74
0
42
0.000000001
43
0.0000000001
44
0.0000000001
40
0
40
0
40
0
40
0
40
1
40
1
40
1
40
1
41
1
41
1
41
1
41
1
10
-164.31901424996084
20
60.152919160303298
30
0
10
-164.31901424996084
20
60.787921582636066
30
0
10
-163.81629945707348
20
61.290628301080893
30
0
10
-163.18130914640452
20
61.290628301080893
30
0
0
SPLINE
5
102
100
AcDbEntity
8
0
100
AcDbSpline
70
4
71
3
72
8
73
4
74
0
42
0.000000001
43
0.0000000001
44
0.0000000001
40
0
40
0
40
0
40
0
40
1
40
1
40
1
40
1
41
1
41
1
41
1
41
1
10
-163.18130914640452
20
61.290628301080893
30
0
10
-162.54630268685051
20
61.290628301080893
30
0
10
-162.04360404284824
20
60.787921582636066
30
0
10
-162.04360404284824
20
60.152919160303298
30
0
0
SPLINE
5
103
100
AcDbEntity
8
0
100
AcDbSpline
70
4
71
3
72
8
73
4
74
0
42
0.000000001
43
0.0000000001
44
0.0000000001
40
0
40
0
40
0
40
0
40
1
40
1
40
1
40
1
41
1
41
1
41
1
41
1
10
-162.04360404284824
20
60.152919160303298
30
0
10
-162.04360404284824
20
59.517916737970545
30
0
10
-162.54631883573558
20
59.015210019525725
30
0
10
-163.18130914640452
20
59.015210019525725
30
0
0
LINE
5
104
100
AcDbEntity
8
0
100
AcDbLine
10
-202.89529331795404
20
60.285170454757242
30
0
11
-202.89527716906892
21
60.258754915969405
31
0
0
SPLINE
5
105
100
AcDbEntity
8
0
100
AcDbSpline
70
0
71
2
72
6
73
3
74
0
42
0.000000001
43
0.0000000001
44
0.0000000001
40
0
40
0
40
0
40
1
40
1
40
1
10
-202.89527716906892
20
60.258754915969405
30
0
10
-202.89527716906892
20
60.232294967747563
30
0
10
-203.02756883573556
20
60.232294967747563
30
0
0
LINE
5
106
100
AcDbEntity
8
0
100
AcDbLine
10
-203.02756883573556
20
60.232294967747563
30
0
11
-203.18631237618152
21
60.179379108525154
31
0
0
LINE
5
107
100
AcDbEntity
8
0
100
AcDbLine
10
-203.18631237618152
20
60.179379108525154
30
0
11
-203.3715239392919
21
60.179379108525154
31
0
0
SPLINE
5
108
100
AcDbEntity
8
0
100
AcDbSpline
70
0
71
2
72
6
73
3
74
0
42
0.000000001
43
0.0000000001
44
0.0000000001
40
0
40
0
40
0
40
1
40
1
40
1
10
-203.3715239392919
20
60.179379108525154
30
0
10
-203.3715239392919
20
60.152919160303298
30
0
10
-203.55673550240226
20
60.100003301080889
30
0
0
LINE
5
109
100
AcDbEntity
8
0
100
AcDbLine
10
-203.55673550240226
20
60.100003301080889
30
0
11
-203.7683989392919
21
60.04708744185848
31
0
0
LINE
5
110
100
AcDbEntity
8
0
100
AcDbLine
10
-203.7683989392919
20
60.04708744185848
30
0
11
-204.00653039884594
21
59.994171582636071
31
0
0
LINE
5
111
100
AcDbEntity
8
0
100
AcDbLine
10
-204.00653039884594
20
59.994171582636071
30
0
11
-204.24466185840001
21
59.91479577519182
31
0
0
LINE
5
112
100
AcDbEntity
8
0
100
AcDbLine
10
-204.24466185840001
20
59.91479577519182
30
0
11
-204.50924519173333
21
59.835419967747569
31
0
0
LINE
5
113
100
AcDbEntity
8
0
100
AcDbLine
10
-204.50924519173333
20
59.835419967747569
30
0
11
-204.77382852506665
21
59.729588249302736
31
0
0
LINE
5
114
100
AcDbEntity
8
0
100
AcDbLine
10
-204.77382852506665
20
59.729588249302736
30
0
11
-205.06486373217928
21
59.623756530857918
31
0
0
LINE
5
115
100
AcDbEntity
8
0
100
AcDbLine
10
-205.06486373217928
20
59.623756530857918
30
0
11
-205.69987019173328
21
59.359173197524569
31
0
0
LINE
5
116
100
AcDbEntity
8
0
100
AcDbLine
10
-205.69987019173328
20
59.359173197524569
30
0
11
-206.38778039884596
21
59.041669967747559
31
0
0
LINE
5
117
100
AcDbEntity
8
0
100
AcDbLine
10
-206.38778039884596
20
59.041669967747559
30
0
11
-207.12862665128736
21
58.671254915969399
31
0
0
LINE
5
118
100
AcDbEntity
8
0
100
AcDbLine
10
-207.12862665128736
20
58.671254915969399
30
0
11
-207.52550165128736
21
58.459587441858488
31
0
0
LINE
5
119
100
AcDbEntity
8
0
100
AcDbLine
10
-207.52550165128736
20
58.459587441858488
30
0
11
-207.92237665128735
21
58.221464056746996
31
0
0
LINE
5
120
100
AcDbEntity
8
0
100
AcDbLine
10
-207.92237665128735
20
58.221464056746996
30
0
11
-208.13404008817699
21
58.089172390080321
31
0
0
LINE
5
121
100
AcDbEntity
8
0
100
AcDbLine
10
-208.13404008817699
20
58.089172390080321
30
0
11
-208.02820029528962
21
56.448756530857906
31
0
0
LINE
5
122
100
AcDbEntity
8
0
100
AcDbLine
10
-208.02820029528962
20
56.448756530857906
30
0
11
-207.81653685839999
21
56.342924812413095
31
0
0
LINE
5
123
100
AcDbEntity
8
0
100
AcDbLine
10
-207.81653685839999
20
56.342924812413095
30
0
11
-207.39320998462068
21
56.157717286524004
31
0
0
LINE
5
124
100
AcDbEntity
8
0
100
AcDbLine
10
-207.39320998462068
20
56.157717286524004
30
0
11
-206.59945998462069
21
55.840214056746987
31
0
0
LINE
5
125
100
AcDbEntity
8
0
100
AcDbLine
10
-206.59945998462069
20
55.840214056746987
30
0
11
-205.85861373217926
21
55.575630723413653
31
0
0
LINE
5
126
100
AcDbEntity
8
0
100
AcDbLine
10
-205.85861373217926
20
55.575630723413653
30
0
11
-205.17070352506664
21
55.363967286524016
31
0
0
LINE
5
127
100
AcDbEntity
8
0
100
AcDbLine
10
-205.17070352506664
20
55.363967286524016
30
0
11
-204.85320029528964
21
55.284591479079751
31
0
0
LINE
5
128
100
AcDbEntity
8
0
100
AcDbLine
10
-204.85320029528964
20
55.284591479079751
30
0
11
-204.56216508817701
21
55.2052156716355
31
0
0
LINE
5
129
100
AcDbEntity
8
0
100
AcDbLine
10
-204.56216508817701
20
55.2052156716355
30
0
11
-204.27112988106438
21
55.152299812413091
31
0
0
LINE
5
130
100
AcDbEntity
8
0
100
AcDbLine
10
-204.27112988106438
20
55.152299812413091
30
0
11
-204.00654654773103
21
55.099383953190674
31
0
0
LINE
5
131
100
AcDbEntity
8
0
100
AcDbLine
10
-204.00654654773103
20
55.099383953190674
30
0
11
-203.76841508817699
21
55.046468093968258
31
0
0
LINE
5
132
100
AcDbEntity
8
0
100
AcDbLine
10
-203.76841508817699
20
55.046468093968258
30
0
11
-203.53028362862295
21
55.046468093968258
31
0
0
LINE
5
133
100
AcDbEntity
8
0
100
AcDbLine
10
-203.53028362862295
20
55.046468093968258
30
0
11
-203.31862019173332
21
54.993552234745849
31
0
0
LINE
5
134
100
AcDbEntity
8
0
100
AcDbLine
10
-203.31862019173332
20
54.993552234745849
30
0
11
-202.94819706551263
21
54.993552234745849
31
0
0
SPLINE
5
135
100
AcDbEntity
8
0
100
AcDbSpline
70
0
71
2
72
6
73
3
74
0
42
0.000000001
43
0.0000000001
44
0.0000000001
40
0
40
0
40
0
40
1
40
1
40
1
10
-202.94819706551263
20
54.993552234745849
30
0
10
-202.94819706551263
20
54.967092286524007
30
0
10
-202.78945352506665
20
54.967092286524007
30
0
0
LINE
5
136
100
AcDbEntity
8
0
100
AcDbLine
10
-202.78945352506665
20
54.967092286524007
30
0
11
-202.2073669619563
21
54.967092286524007
31
0
0
LINE
5
137
100
AcDbEntity
8
0
100
AcDbLine
10
-202.2073669619563
20
54.967092286524007
30
0
11
-201.8104919619563
21
52.612302234745847
31
0
0
LINE
5
138
100
AcDbEntity
8
0
100
AcDbLine
10
-201.8104919619563
20
52.612302234745847
30
0
11
-201.91633175484367
21
52.612302234745847
31
0
0
LINE
5
139
100
AcDbEntity
8
0
100
AcDbLine
10
-201.91633175484367
20
52.612302234745847
30
0
11
-201.99570352506666
21
52.559386375523438
31
0
0
LINE
5
140
100
AcDbEntity
8
0
100
AcDbLine
10
-201.99570352506666
20
52.559386375523438
30
0
11
-202.101543317954
21
52.559386375523438
31
0
0
SPLINE
5
141
100
AcDbEntity
8
0
100
AcDbSpline
70
0
71
2
72
6
73
3
74
0
42
0.000000001
43
0.0000000001
44
0.0000000001
40
0
40
0
40
0
40
1
40
1
40
1
10
-202.101543317954
20
52.559386375523438
30
0
10
-202.101543317954
20
52.532926427301597
30
0
10
-202.20738311084142
20
52.480010568079187
30
0
0
LINE
5
142
100
AcDbEntity
8
0
100
AcDbLine
10
-202.20738311084142
20
52.480010568079187
30
0
11
-202.33967477750807
21
52.427094708856778
31
0
0
LINE
5
143
100
AcDbEntity
8
0
100
AcDbLine
10
-202.33967477750807
20
52.427094708856778
30
0
11
-202.49841831795402
21
52.374178849634355
31
0
0
LINE
5
144
100
AcDbEntity
8
0
100
AcDbLine
10
-202.49841831795402
20
52.374178849634355
30
0
11
-202.65716185839995
21
52.294803042190104
31
0
0
LINE
5
145
100
AcDbEntity
8
0
100
AcDbLine
10
-202.65716185839995
20
52.294803042190104
30
0
11
-202.84237342151033
21
52.215427234745853
31
0
0
LINE
5
146
100
AcDbEntity
8
0
100
AcDbLine
10
-202.84237342151033
20
52.215427234745853
30
0
11
-203.02758498462069
21
52.109595516301034
31
0
0
LINE
5
147
100
AcDbEntity
8
0
100
AcDbLine
10
-203.02758498462069
20
52.109595516301034
30
0
11
-203.23924842151033
21
52.003763797856202
31
0
0
LINE
5
148
100
AcDbEntity
8
0
100
AcDbLine
10
-203.23924842151033
20
52.003763797856202
30
0
11
-203.45091185839999
21
51.871472131189535
31
0
0
LINE
5
149
100
AcDbEntity
8
0
100
AcDbLine
10
-203.45091185839999
20
51.871472131189535
30
0
11
-203.68904331795403
21
51.73918046452286
31
0
0
LINE
5
150
100
AcDbEntity
8
0
100
AcDbLine
10
-203.68904331795403
20
51.73918046452286
30
0
11
-203.92717477750807
21
51.580428849634359
31
0
0
LINE
5
151
100
AcDbEntity
8
0
100
AcDbLine
10
-203.92717477750807
20
51.580428849634359
30
0
11
-204.19175811084142
21
51.42167723474585
31
0
0
LINE
5
152
100
AcDbEntity
8
0
100
AcDbLine
10
-204.19175811084142
20
51.42167723474585
30
0
11
-204.45634144417471
21
51.236469708856767
31
0
0
LINE
5
153
100
AcDbEntity
8
0
100
AcDbLine
10
-204.45634144417471
20
51.236469708856767
30
0
11
-204.74737665128737
21
51.05126218296769
31
0
0
LINE
5
154
100
AcDbEntity
8
0
100
AcDbLine
10
-204.74737665128737
20
51.05126218296769
30
0
11
-205.0384118584
21
50.839594708856772
31
0
0
LINE
5
155
100
AcDbEntity
8
0
100
AcDbLine
10
-205.0384118584
20
50.839594708856772
30
0
11
-205.673418317954
21
50.363347938633787
31
0
0
LINE
5
156
100
AcDbEntity
8
0
100
AcDbLine
10
-205.673418317954
20
50.363347938633787
30
0
11
-205.99092154773103
21
50.09876460530046
31
0
0
LINE
5
157
100
AcDbEntity
8
0
100
AcDbLine
10
-205.99092154773103
20
50.09876460530046
30
0
11
-206.33487665128737
21
49.807721323745284
31
0
0
LINE
5
158
100
AcDbEntity
8
0
100
AcDbLine
10
-206.33487665128737
20
49.807721323745284
30
0
11
-206.67883175484371
21
49.490222131189526
31
0
0
LINE
5
159
100
AcDbEntity
8
0
100
AcDbLine
10
-206.67883175484371
20
49.490222131189526
30
0
11
-206.86404331795401
21
49.331470516301025
31
0
0
LINE
5
160
100
AcDbEntity
8
0
100
AcDbLine
10
-206.86404331795401
20
49.331470516301025
30
0
11
-206.44071644417471
21
47.743970516301033
31
0
0
LINE
5
161
100
AcDbEntity
8
0
100
AcDbLine
10
-206.44071644417471
20
47.743970516301033
30
0
11
-206.20258498462067
21
47.69105465707861
31
0
0
LINE
5
162
100
AcDbEntity
8
0
100
AcDbLine
10
-206.20258498462067
20
47.69105465707861
30
0
11
-205.75279008817699
21
47.585222938633791
31
0
0
LINE
5
163
100
AcDbEntity
8
0
100
AcDbLine
10
-205.75279008817699
20
47.585222938633791
30
0
11
-204.90613634061842
21
47.426471323745282
31
0
0
LINE
5
164
100
AcDbEntity
8
0
100
AcDbLine
10
-204.90613634061842
20
47.426471323745282
30
0
11
-204.50926134061842
21
47.373555464522866
31
0
0
LINE
5
165
100
AcDbEntity
8
0
100
AcDbLine
10
-204.50926134061842
20
47.373555464522866
30
0
11
-204.13883821439771
21
47.320639605300457
31
0
0
LINE
5
166
100
AcDbEntity
8
0
100
AcDbLine
10
-204.13883821439771
20
47.320639605300457
30
0
11
-203.76841508817702
21
47.32063960530045
31
0
0
SPLINE
5
167
100
AcDbEntity
8
0
100
AcDbSpline
70
0
71
2
72
6
73
3
74
0
42
0.000000001
43
0.0000000001
44
0.0000000001
40
0
40
0
40
0
40
1
40
1
40
1
10
-203.76841508817702
20
47.32063960530045
30
0
10
-203.76841508817702
20
47.294179657078615
30
0
10
-203.42445998462068
20
47.267723746078047
30
0
0
LINE
5
168
100
AcDbEntity
8
0
100
AcDbLine
10
-203.42445998462068
20
47.267723746078047
30
0
11
-201.14904977750803
21
47.267723746078047
31
0
0
LINE
5
169
100
AcDbEntity
8
0
100
AcDbLine
10
-201.14904977750803
20
47.267723746078047
30
0
11
-200.9903062370621
21
47.320639605300457
31
0
0
LINE
5
170
100
AcDbEntity
8
0
100
AcDbLine
10
-200.9903062370621
20
47.320639605300457
30
0
11
-200.85801457039543
21
47.32063960530045
31
0
0
LINE
5
171
100
AcDbEntity
8
0
100
AcDbLine
10
-200.85801457039543
20
47.32063960530045
30
0
11
-200.72572290372878
21
47.373555464522859
31
0
0
LINE
5
172
100
AcDbEntity
8
0
100
AcDbLine
10
-200.72572290372878
20
47.373555464522859
30
0
11
-200.61988311084139
21
47.373555464522866
31
0
0
LINE
5
173
100
AcDbEntity
8
0
100
AcDbLine
10
-200.61988311084139
20
47.373555464522866
30
0
11
-200.54051134061839
21
47.426471323745282
31
0
0
LINE
5
174
100
AcDbEntity
8
0
100
AcDbLine
10
-200.54051134061839
20
47.426471323745282
30
0
11
-200.43467154773106
21
47.426471323745282
31
0
0
SPLINE
5
175
100
AcDbEntity
8
0
100
AcDbSpline
70
0
71
2
72
6
73
3
74
0
42
0.000000001
43
0.0000000001
44
0.0000000001
40
0
40
0
40
0
40
1
40
1
40
1
10
-200.43467154773106
20
47.426471323745282
30
0
10
-200.43467154773106
20
47.452931271967117
30
0
10
-199.58800165128736
20
45.230428849634364
30
0
0
LINE
5
176
100
AcDbEntity
8
0
100
AcDbLine
10
-199.58800165128736
20
45.230428849634364
30
0
11
-199.69384144417472
21
45.230428849634364
31
0
0
LINE
5
177
100
AcDbEntity
8
0
100
AcDbLine
10
-199.69384144417472
20
45.230428849634364
30
0
11
-199.77321321439771
21
45.151053042190114
31
0
0
LINE
5
178
100
AcDbEntity
8
0
100
AcDbLine
10
-199.77321321439771
20
45.151053042190114
30
0
11
-199.85258498462071
21
45.09813718296769
31
0
0
LINE
5
179
100
AcDbEntity
8
0
100
AcDbLine
10
-199.85258498462071
20
45.09813718296769
30
0
11
-199.95842477750807
21
45.045221323745267
31
0
0
LINE
5
180
100
AcDbEntity
8
0
100
AcDbLine
10
-199.95842477750807
20
45.045221323745267
30
0
11
-200.22300811084136
21
44.886469708856765
31
0
0
LINE
5
181
100
AcDbEntity
8
0
100
AcDbLine
10
-200.22300811084136
20
44.886469708856765
30
0
11
-200.5404951917333
21
44.674802234745847
31
0
0
LINE
5
182
100
AcDbEntity
8
0
100
AcDbLine
10
-200.5404951917333
20
44.674802234745847
30
0
11
-200.91091831795404
21
44.410218901412513
31
0
0
LINE
5
183
100
AcDbEntity
8
0
100
AcDbLine
10
-200.91091831795404
20
44.410218901412513
30
0
11
-201.09612988106437
21
44.251469305134641
31
0
0
LINE
5
184
100
AcDbEntity
8
0
100
AcDbLine
10
-201.09612988106437
20
44.251469305134641
30
0
11
-201.51945675484367
21
43.881054253356488
31
0
0
LINE
5
185
100
AcDbEntity
8
0
100
AcDbLine
10
-201.51945675484367
20
43.881054253356488
30
0
11
-201.75758821439771
21
43.669386779245571
31
0
0
LINE
5
186
100
AcDbEntity
8
0
100
AcDbLine
10
-201.75758821439771
20
43.669386779245571
30
0
11
-202.23385113350577
21
43.193135971801311
31
0
0
LINE
5
187
100
AcDbEntity
8
0
100
AcDbLine
10
-202.23385113350577
20
43.193135971801311
30
0
11
-202.47198259305981
21
42.92855263846797
31
0
0
LINE
5
188
100
AcDbEntity
8
0
100
AcDbLine
10
-202.47198259305981
20
42.92855263846797
30
0
11
-202.73656592639315
21
42.637511375523438
31
0
0
LINE
5
189
100
AcDbEntity
8
0
100
AcDbLine
10
-202.73656592639315
20
42.637511375523438
30
0
11
-203.26573259305979
21
42.002512990411951
31
0
0
LINE
5
190
100
AcDbEntity
8
0
100
AcDbLine
10
-203.26573259305979
20
42.002512990411951
30
0
11
-203.53031592639314
21
41.658553849634359
31
0
0
LINE
5
191
100
AcDbEntity
8
0
100
AcDbLine
10
-203.53031592639314
20
41.658553849634359
30
0
11
-203.79489925972649
21
41.288136779245562
31
0
0
LINE
5
192
100
AcDbEntity
8
0
100
AcDbLine
10
-203.79489925972649
20
41.288136779245562
30
0
11
-203.92719092639314
21
41.102929253356493
31
0
0
LINE
5
193
100
AcDbEntity
8
0
100
AcDbLine
10
-203.92719092639314
20
41.102929253356493
30
0
11
-203.18636082283683
21
39.594805060800745
31
0
0
LINE
5
194
100
AcDbEntity
8
0
100
AcDbLine
10
-203.18636082283683
20
39.594805060800745
30
0
11
-200.83156269661612
21
39.594805060800738
31
0
0
LINE
5
195
100
AcDbEntity
8
0
100
AcDbLine
10
-200.83156269661612
20
39.594805060800738
30
0
11
-200.46113957039546
21
39.647720920023147
31
0
0
LINE
5
196
100
AcDbEntity
8
0
100
AcDbLine
10
-200.46113957039546
20
39.647720920023147
30
0
11
-200.11718446683909
21
39.700636779245563
31
0
0
LINE
5
197
100
AcDbEntity
8
0
100
AcDbLine
10
-200.11718446683909
20
39.700636779245563
30
0
11
-199.48217800728511
21
39.806468497690389
31
0
0
LINE
5
198
100
AcDbEntity
8
0
100
AcDbLine
10
-199.48217800728511
20
39.806468497690389
30
0
11
-199.19114280017243
21
39.859384356912798
31
0
0
LINE
5
199
100
AcDbEntity
8
0
100
AcDbLine
10
-199.19114280017243
20
39.859384356912798
30
0
11
-198.92655946683908
21
39.912300216135208
31
0
0
LINE
5
200
100
AcDbEntity
8
0
100
AcDbLine
10
-198.92655946683908
20
39.912300216135208
30
0
11
-198.45029654773103
21
40.01813193458004
31
0
0
LINE
5
201
100
AcDbEntity
8
0
100
AcDbLine
10
-198.45029654773103
20
40.01813193458004
30
0
11
-198.23863311084139
21
40.07104779380245
31
0
0
LINE
5
202
100
AcDbEntity
8
0
100
AcDbLine
10
-198.23863311084139
20
40.07104779380245
30
0
11
-198.05342154773103
21
40.123963653024859
31
0
0
LINE
5
203
100
AcDbEntity
8
0
100
AcDbLine
10
-198.05342154773103
20
40.123963653024859
30
0
11
-197.73593446683913
21
40.229795371469677
31
0
0
LINE
5
204
100
AcDbEntity
8
0
100
AcDbLine
10
-197.73593446683913
20
40.229795371469677
30
0
11
-197.60364280017245
21
40.282711230692094
31
0
0
LINE
5
205
100
AcDbEntity
8
0
100
AcDbLine
10
-197.60364280017245
20
40.282711230692094
30
0
11
-197.39196321439772
21
40.388542949136919
31
0
0
LINE
5
206
100
AcDbEntity
8
0
100
AcDbLine
10
-197.39196321439772
20
40.388542949136919
30
0
11
-197.3125914441747
21
40.388542949136919
31
0
0
LINE
5
207
100
AcDbEntity
8
0
100
AcDbLine
10
-197.3125914441747
20
40.388542949136919
30
0
11
-197.25967154773102
21
40.441458808359336
31
0
0
LINE
5
208
100
AcDbEntity
8
0
100
AcDbLine
10
-197.25967154773102
20
40.441458808359336
30
0
11
-197.20675165128736
21
40.441458808359336
31
0
0
LINE
5
209
100
AcDbEntity
8
0
100
AcDbLine
10
-197.20675165128736
20
40.441458808359336
30
0
11
-195.93675488106439
21
38.430625878748124
31
0
0
LINE
5
210
100
AcDbEntity
8
0
100
AcDbLine
10
-195.93675488106439
20
38.430625878748124
30
0
11
-195.98967477750807
21
38.351250071303873
31
0
0
LINE
5
211
100
AcDbEntity
8
0
100
AcDbLine
10
-195.98967477750807
20
38.351250071303873
30
0
11
-196.06904654773103
21
38.298334212081457
31
0
0
LINE
5
212
100
AcDbEntity
8
0
100
AcDbLine
10
-196.06904654773103
20
38.298334212081457
30
0
11
-196.22779008817702
21
38.139582597192948
31
0
0
LINE
5
213
100
AcDbEntity
8
0
100
AcDbLine
10
-196.22779008817702
20
38.139582597192948
30
0
11
-196.43946967395175
21
37.92791512308203
31
0
0
LINE
5
214
100
AcDbEntity
8
0
100
AcDbLine
10
-196.43946967395175
20
37.92791512308203
30
0
11
-196.70405300728507
21
37.663331789748696
31
0
0
LINE
5
215
100
AcDbEntity
8
0
100
AcDbLine
10
-196.70405300728507
20
37.663331789748696
30
0
11
-196.83634467395171
21
37.504582193470824
31
0
0
LINE
5
216
100
AcDbEntity
8
0
100
AcDbLine
10
-196.83634467395171
20
37.504582193470824
30
0
11
-197.15383175484365
21
37.134167141692672
31
0
0
LINE
5
217
100
AcDbEntity
8
0
100
AcDbLine
10
-197.15383175484365
20
37.134167141692672
30
0
11
-197.31257529528961
21
36.922499667581747
31
0
0
LINE
5
218
100
AcDbEntity
8
0
100
AcDbLine
10
-197.31257529528961
20
36.922499667581747
30
0
11
-197.49778685839999
21
36.684374263859617
31
0
0
LINE
5
219
100
AcDbEntity
8
0
100
AcDbLine
10
-197.49778685839999
20
36.684374263859617
30
0
11
-197.86820998462071
21
36.155207597192948
31
0
0
LINE
5
220
100
AcDbEntity
8
0
100
AcDbLine
10
-197.86820998462071
20
36.155207597192948
30
0
11
-198.05342154773103
21
35.864166334248409
31
0
0
LINE
5
221
100
AcDbEntity
8
0
100
AcDbLine
10
-198.05342154773103
20
35.864166334248409
30
0
11
-198.42384467395175
21
35.229167949136922
31
0
0
LINE
5
222
100
AcDbEntity
8
0
100
AcDbLine
10
-198.42384467395175
20
35.229167949136922
30
0
11
-198.60905623706208
21
34.885208808359337
31
0
0
LINE
5
223
100
AcDbEntity
8
0
100
AcDbLine
10
-198.60905623706208
20
34.885208808359337
30
0
11
-198.82071967395174
21
34.51479173797054
31
0
0
LINE
5
224
100
AcDbEntity
8
0
100
AcDbLine
10
-198.82071967395174
20
34.51479173797054
30
0
11
-199.03238311084138
21
34.117916737970539
31
0
0
LINE
5
225
100
AcDbEntity
8
0
100
AcDbLine
10
-199.03238311084138
20
34.117916737970539
30
0
11
-199.24404654773102
21
33.694583808359333
31
0
0
LINE
5
226
100
AcDbEntity
8
0
100
AcDbLine
10
-199.24404654773102
20
33.694583808359333
30
0
11
-199.34988634061838
21
33.482916334248415
31
0
0
LINE
5
227
100
AcDbEntity
8
0
100
AcDbLine
10
-199.34988634061838
20
33.482916334248415
30
0
11
-198.34447290372879
21
32.133541737970539
31
0
0
LINE
5
228
100
AcDbEntity
8
0
100
AcDbLine
10
-198.34447290372879
20
32.133541737970539
30
0
11
-198.10634144417469
21
32.186457597192948
31
0
0
LINE
5
229
100
AcDbEntity
8
0
100
AcDbLine
10
-198.10634144417469
20
32.186457597192948
30
0
11
-197.65654654773104
21
32.265833404637206
31
0
0
LINE
5
230
100
AcDbEntity
8
0
100
AcDbLine
10
-197.65654654773104
20
32.265833404637206
30
0
11
-197.23321967395177
21
32.345209212081457
31
0
0
LINE
5
231
100
AcDbEntity
8
0
100
AcDbLine
10
-197.23321967395177
20
32.345209212081457
30
0
11
-196.80989280017246
21
32.451042949136919
31
0
0
LINE
5
232
100
AcDbEntity
8
0
100
AcDbLine
10
-196.80989280017246
20
32.451042949136919
30
0
11
-196.41301780017244
21
32.556876686192382
31
0
0
LINE
5
233
100
AcDbEntity
8
0
100
AcDbLine
10
-196.41301780017244
20
32.556876686192382
30
0
11
-196.04259467395173
21
32.662710423247844
31
0
0
LINE
5
234
100
AcDbEntity
8
0
100
AcDbLine
10
-196.04259467395173
20
32.662710423247844
30
0
11
-195.69863957039541
21
32.768544160303307
31
0
0
LINE
5
235
100
AcDbEntity
8
0
100
AcDbLine
10
-195.69863957039541
20
32.768544160303307
30
0
11
-195.06363311084141
21
32.980211634414225
31
0
0
LINE
5
236
100
AcDbEntity
8
0
100
AcDbLine
10
-195.06363311084141
20
32.980211634414225
30
0
11
-194.77259790372875
21
33.086045371469687
31
0
0
LINE
5
237
100
AcDbEntity
8
0
100
AcDbLine
10
-194.77259790372875
20
33.086045371469687
30
0
11
-194.50801457039543
21
33.191879108525143
31
0
0
LINE
5
238
100
AcDbEntity
8
0
100
AcDbLine
10
-194.50801457039543
20
33.191879108525143
30
0
11
-194.03175165128732
21
33.403546582636068
31
0
0
LINE
5
239
100
AcDbEntity
8
0
100
AcDbLine
10
-194.03175165128732
20
33.403546582636068
30
0
11
-193.82008821439771
21
33.50938031969153
31
0
0
LINE
5
240
100
AcDbEntity
8
0
100
AcDbLine
10
-193.82008821439771
20
33.50938031969153
30
0
11
-193.44966508817703
21
33.721047793802448
31
0
0
LINE
5
241
100
AcDbEntity
8
0
100
AcDbLine
10
-193.44966508817703
20
33.721047793802448
30
0
11
-193.29092154773105
21
33.800423601246699
31
0
0
LINE
5
242
100
AcDbEntity
8
0
100
AcDbLine
10
-193.29092154773105
20
33.800423601246699
30
0
11
-193.02633821439773
21
33.959175216135208
31
0
0
LINE
5
243
100
AcDbEntity
8
0
100
AcDbLine
10
-193.02633821439773
20
33.959175216135208
30
0
11
-192.92049842151033
21
34.038551023579465
31
0
0
LINE
5
244
100
AcDbEntity
8
0
100
AcDbLine
10
-192.92049842151033
20
34.038551023579465
30
0
11
-192.76175488106435
21
34.144382742024291
31
0
0
LINE
5
245
100
AcDbEntity
8
0
100
AcDbLine
10
-192.76175488106435
20
34.144382742024291
30
0
11
-192.70883498462067
21
34.1972986012467
31
0
0
LINE
5
246
100
AcDbEntity
8
0
100
AcDbLine
10
-192.70883498462067
20
34.1972986012467
30
0
11
-191.06841508817701
21
32.477506934580035
31
0
0
LINE
5
247
100
AcDbEntity
8
0
100
AcDbLine
10
-191.06841508817701
20
32.477506934580035
30
0
11
-191.12133498462069
21
32.398131127135777
31
0
0
LINE
5
248
100
AcDbEntity
8
0
100
AcDbLine
10
-191.12133498462069
20
32.398131127135777
30
0
11
-191.17425488106437
21
32.345215267913368
31
0
0
LINE
5
249
100
AcDbEntity
8
0
100
AcDbLine
10
-191.17425488106437
20
32.345215267913368
30
0
11
-191.22717477750808
21
32.26583946046911
31
0
0
LINE
5
250
100
AcDbEntity
8
0
100
AcDbLine
10
-191.22717477750808
20
32.26583946046911
30
0
11
-191.38591831795401
21
32.054171986358192
31
0
0
LINE
5
251
100
AcDbEntity
8
0
100
AcDbLine
10
-191.38591831795401
20
32.054171986358192
30
0
11
-191.46529008817703
21
31.921880319691525
31
0
0
LINE
5
252
100
AcDbEntity
8
0
100
AcDbLine
10
-191.46529008817703
20
31.921880319691525
30
0
11
-191.67696967395173
21
31.604381127135781
31
0
0
LINE
5
253
100
AcDbEntity
8
0
100
AcDbLine
10
-191.67696967395173
20
31.604381127135781
30
0
11
-191.7828094668391
21
31.419173601246698
31
0
0
LINE
5
254
100
AcDbEntity
8
0
100
AcDbLine
10
-191.7828094668391
20
31.419173601246698
30
0
11
-191.88864925972649
21
31.20750612713578
31
0
0
LINE
5
255
100
AcDbEntity
8
0
100
AcDbLine
10
-191.88864925972649
20
31.20750612713578
30
0
11
-192.02094092639314
21
30.995838653024855
31
0
0
LINE
5
256
100
AcDbEntity
8
0
100
AcDbLine
10
-192.02094092639314
20
30.995838653024855
30
0
11
-192.15323259305978
21
30.757713249302732
31
0
0
LINE
5
257
100
AcDbEntity
8
0
100
AcDbLine
10
-192.15323259305978
20
30.757713249302732
30
0
11
-192.28552425972649
21
30.493129915969401
31
0
0
LINE
5
258
100
AcDbEntity
8
0
100
AcDbLine
10
-192.28552425972649
20
30.493129915969401
30
0
11
-192.55010759305978
21
29.911047390080316
31
0
0
LINE
5
259
100
AcDbEntity
8
0
100
AcDbLine
10
-192.55010759305978
20
29.911047390080316
30
0
11
-192.68239925972648
21
29.593548197524573
31
0
0
LINE
5
260
100
AcDbEntity
8
0
100
AcDbLine
10
-192.68239925972648
20
29.593548197524573
30
0
11
-192.81469092639313
21
29.249589056746991
31
0
0
LINE
5
261
100
AcDbEntity
8
0
100
AcDbLine
10
-192.81469092639313
20
29.249589056746991
30
0
11
-193.07927425972647
21
28.508754915969398
31
0
0
LINE
5
262
100
AcDbEntity
8
0
100
AcDbLine
10
-193.07927425972647
20
28.508754915969398
30
0
11
-193.21156592639312
21
28.1118799159694
31
0
0
LINE
5
263
100
AcDbEntity
8
0
100
AcDbLine
10
-193.21156592639312
20
28.1118799159694
30
0
11
-193.34385759305979
21
27.68854698635819
31
0
0
LINE
5
264
100
AcDbEntity
8
0
100
AcDbLine
10
-193.34385759305979
20
27.68854698635819
30
0
11
-193.44969738594716
21
27.238755117830458
31
0
0
LINE
5
265
100
AcDbEntity
8
0
100
AcDbLine
10
-193.44969738594716
20
27.238755117830458
30
0
11
-193.50261728239087
21
27.000629714108335
31
0
0
LINE
5
266
100
AcDbEntity
8
0
100
AcDbLine
10
-193.50261728239087
20
27.000629714108335
30
0
11
-192.25907238594718
21
25.88937951224727
31
0
0
LINE
5
267
100
AcDbEntity
8
0
100
AcDbLine
10
-192.25907238594718
20
25.88937951224727
30
0
11
-192.04740894905754
21
25.995213249302729
31
0
0
LINE
5
268
100
AcDbEntity
8
0
100
AcDbLine
10
-192.04740894905754
20
25.995213249302729
30
0
11
-191.62408207527824
21
26.153962845580601
31
0
0
LINE
5
269
100
AcDbEntity
8
0
100
AcDbLine
10
-191.62408207527824
20
26.153962845580601
30
0
11
-190.83033207527822
21
26.524379915969398
31
0
0
LINE
5
270
100
AcDbEntity
8
0
100
AcDbLine
10
-190.83033207527822
20
26.524379915969398
30
0
11
-190.45990894905754
21
26.709588451163793
31
0
0
LINE
5
271
100
AcDbEntity
8
0
100
AcDbLine
10
-190.45990894905754
20
26.709588451163793
30
0
11
-190.1159538455012
21
26.894796986358187
31
0
0
LINE
5
272
100
AcDbEntity
8
0
100
AcDbLine
10
-190.1159538455012
20
26.894796986358187
30
0
11
-189.79845061572422
21
27.080005521552586
31
0
0
LINE
5
273
100
AcDbEntity
8
0
100
AcDbLine
10
-189.79845061572422
20
27.080005521552586
30
0
11
-189.21638020149891
21
27.397504714108333
31
0
0
LINE
5
274
100
AcDbEntity
8
0
100
AcDbLine
10
-189.21638020149891
20
27.397504714108333
30
0
11
-188.95179686816562
21
27.556254310386205
31
0
0
LINE
5
275
100
AcDbEntity
8
0
100
AcDbLine
10
-188.95179686816562
20
27.556254310386205
30
0
11
-188.71366540861158
21
27.71500390666408
31
0
0
LINE
5
276
100
AcDbEntity
8
0
100
AcDbLine
10
-188.71366540861158
20
27.71500390666408
30
0
11
-188.29033853483227
21
28.032503099219824
31
0
0
LINE
5
277
100
AcDbEntity
8
0
100
AcDbLine
10
-188.29033853483227
20
28.032503099219824
30
0
11
-188.10512697172192
21
28.164794765886491
31
0
0
LINE
5
278
100
AcDbEntity
8
0
100
AcDbLine
10
-188.10512697172192
20
28.164794765886491
30
0
11
-187.78763989083001
21
28.429378099219825
31
0
0
LINE
5
279
100
AcDbEntity
8
0
100
AcDbLine
10
-187.78763989083001
20
28.429378099219825
30
0
11
-187.52305655749666
21
28.64104557333075
31
0
0
LINE
5
280
100
AcDbEntity
8
0
100
AcDbLine
10
-187.52305655749666
20
28.64104557333075
30
0
11
-187.41721676460929
21
28.746878301080887
31
0
0
LINE
5
281
100
AcDbEntity
8
0
100
AcDbLine
10
-187.41721676460929
20
28.746878301080887
30
0
11
-187.25847322416331
21
28.905629915969399
31
0
0
LINE
5
282
100
AcDbEntity
8
0
100
AcDbLine
10
-187.25847322416331
20
28.905629915969399
30
0
11
-187.15263343127594
21
29.011461634414218
31
0
0
LINE
5
283
100
AcDbEntity
8
0
100
AcDbLine
10
-187.15263343127594
20
29.011461634414218
30
0
11
-185.22117832771966
21
27.635628099219822
31
0
0
LINE
5
284
100
AcDbEntity
8
0
100
AcDbLine
10
-185.22117832771966
20
27.635628099219822
30
0
11
-185.22117832771966
21
27.52979436216436
31
0
0
LINE
5
285
100
AcDbEntity
8
0
100
AcDbLine
10
-185.22117832771966
20
27.52979436216436
30
0
11
-185.30055009794265
21
27.450419564025431
31
0
0
LINE
5
286
100
AcDbEntity
8
0
100
AcDbLine
10
-185.30055009794265
20
27.450419564025431
30
0
11
-185.40638989082998
21
27.238752089914506
31
0
0
LINE
5
287
100
AcDbEntity
8
0
100
AcDbLine
10
-185.40638989082998
20
27.238752089914506
30
0
11
-185.4593097872737
21
27.106460423247842
31
0
0
LINE
5
288
100
AcDbEntity
8
0
100
AcDbLine
10
-185.4593097872737
20
27.106460423247842
30
0
11
-185.51222968371741
21
26.947710826969971
31
0
0
LINE
5
289
100
AcDbEntity
8
0
100
AcDbLine
10
-185.51222968371741
20
26.947710826969971
30
0
11
-185.59160145394034
21
26.788961230692099
31
0
0
LINE
5
290
100
AcDbEntity
8
0
100
AcDbLine
10
-185.59160145394034
20
26.788961230692099
30
0
11
-185.67097322416333
21
26.603752695497697
31
0
0
LINE
5
291
100
AcDbEntity
8
0
100
AcDbLine
10
-185.67097322416333
20
26.603752695497697
30
0
11
-185.82971676460929
21
26.180419765886494
31
0
0
LINE
5
292
100
AcDbEntity
8
0
100
AcDbLine
10
-185.82971676460929
20
26.180419765886494
30
0
11
-185.90908853483228
21
25.942294362164368
31
0
0
LINE
5
293
100
AcDbEntity
8
0
100
AcDbLine
10
-185.90908853483228
20
25.942294362164368
30
0
11
-185.98846030505527
21
25.677711028831034
31
0
0
LINE
5
294
100
AcDbEntity
8
0
100
AcDbLine
10
-185.98846030505527
20
25.677711028831034
30
0
11
-186.14720384550122
21
25.095628502941949
31
0
0
LINE
5
295
100
AcDbEntity
8
0
100
AcDbLine
10
-186.14720384550122
20
25.095628502941949
30
0
11
-186.22657561572422
21
24.778128301080891
31
0
0
LINE
5
296
100
AcDbEntity
8
0
100
AcDbLine
10
-186.22657561572422
20
24.778128301080891
30
0
11
-186.2794955121679
21
24.434170169608617
31
0
0
LINE
5
297
100
AcDbEntity
8
0
100
AcDbLine
10
-186.2794955121679
20
24.434170169608617
30
0
11
-186.38533530505526
21
23.69333602883103
31
0
0
LINE
5
298
100
AcDbEntity
8
0
100
AcDbLine
10
-186.38533530505526
20
23.69333602883103
30
0
11
-186.43825520149898
21
23.296461028831033
31
0
0
LINE
5
299
100
AcDbEntity
8
0
100
AcDbLine
10
-186.43825520149898
20
23.296461028831033
30
0
11
-186.49117509794263
21
22.873128099219823
31
0
0
LINE
5
300
100
AcDbEntity
8
0
100
AcDbLine
10
-186.49117509794263
20
22.873128099219823
30
0
11
-186.49117509794263
21
22.42333623069209
31
0
0
LINE
5
301
100
AcDbEntity
8
0
100
AcDbLine
10
-186.49117509794263
20
22.42333623069209
30
0
11
-186.54409499438631
21
21.973544362164361
31
0
0
LINE
5
302
100
AcDbEntity
8
0
100
AcDbLine
10
-186.54409499438631
20
21.973544362164361
30
0
11
-186.54409499438631
21
21.735418958442239
31
0
0
LINE
5
303
100
AcDbEntity
8
0
100
AcDbLine
10
-186.54409499438631
20
21.735418958442239
30
0
11
-185.11533853483229
21
20.888752089914504
31
0
0
LINE
5
304
100
AcDbEntity
8
0
100
AcDbLine
10
-185.11533853483229
20
20.888752089914504
30
0
11
-184.90367509794265
21
21.021043756581172
31
0
0
LINE
5
305
100
AcDbEntity
8
0
100
AcDbLine
10
-184.90367509794265
20
21.021043756581172
30
0
11
-184.50680009794263
21
21.259169160303301
31
0
0
LINE
5
306
100
AcDbEntity
8
0
100
AcDbLine
10
-184.50680009794263
20
21.259169160303301
30
0
11
-184.13637697172192
21
21.497294564025427
31
0
0
LINE
5
307
100
AcDbEntity
8
0
100
AcDbLine
10
-184.13637697172192
20
21.497294564025427
30
0
11
-183.79242186816558
21
21.735419967747553
31
0
0
LINE
5
308
100
AcDbEntity
8
0
100
AcDbLine
10
-183.79242186816558
20
21.735419967747553
30
0
11
-183.4749186383886
21
21.973545371469683
31
0
0
LINE
5
309
100
AcDbEntity
8
0
100
AcDbLine
10
-183.4749186383886
20
21.973545371469683
30
0
11
-182.89284822416332
21
22.449796178913939
31
0
0
LINE
5
310
100
AcDbEntity
8
0
100
AcDbLine
10
-182.89284822416332
20
22.449796178913939
30
0
11
-182.62826489083
21
22.687921582636061
31
0
0
LINE
5
311
100
AcDbEntity
8
0
100
AcDbLine
10
-182.62826489083
20
22.687921582636061
30
0
11
-182.15200197172192
21
23.111254512247271
31
0
0
LINE
5
312
100
AcDbEntity
8
0
100
AcDbLine
10
-182.15200197172192
20
23.111254512247271
30
0
11
-181.94033853483228
21
23.322920977052874
31
0
0
LINE
5
313
100
AcDbEntity
8
0
100
AcDbLine
10
-181.94033853483228
20
23.322920977052874
30
0
11
-181.56991540861156
21
23.693338047441664
31
0
0
LINE
5
314
100
AcDbEntity
8
0
100
AcDbLine
10
-181.56991540861156
20
23.693338047441664
30
0
11
-181.41117186816561
21
23.878546582636062
31
0
0
LINE
5
315
100
AcDbEntity
8
0
100
AcDbLine
10
-181.41117186816561
20
23.878546582636062
30
0
11
-181.14658853483229
21
24.196045775191806
31
0
0
LINE
5
316
100
AcDbEntity
8
0
100
AcDbLine
10
-181.14658853483229
20
24.196045775191806
30
0
11
-180.93490894905756
21
24.460629108525143
31
0
0
LINE
5
317
100
AcDbEntity
8
0
100
AcDbLine
10
-180.93490894905756
20
24.460629108525143
30
0
11
-180.77616540861158
21
24.672296582636065
31
0
0
LINE
5
318
100
AcDbEntity
8
0
100
AcDbLine
10
-180.77616540861158
20
24.672296582636065
30
0
11
-180.67032561572418
21
24.831046178913937
31
0
0
LINE
5
319
100
AcDbEntity
8
0
100
AcDbLine
10
-180.67032561572418
20
24.831046178913937
30
0
11
-180.67032561572421
21
24.883963047441668
31
0
0
LINE
5
320
100
AcDbEntity
8
0
100
AcDbLine
10
-180.67032561572421
20
24.883963047441668
30
0
11
-180.61740571928053
21
24.936879915969399
31
0
0
LINE
5
321
100
AcDbEntity
8
0
100
AcDbLine
10
-180.61740571928053
20
24.936879915969399
30
0
11
-178.44781915617017
21
23.957921380775002
31
0
0
LINE
5
322
100
AcDbEntity
8
0
100
AcDbLine
10
-178.44781915617017
20
23.957921380775002
30
0
11
-178.44781915617017
21
23.852087643719535
31
0
0
LINE
5
323
100
AcDbEntity
8
0
100
AcDbLine
10
-178.44781915617017
20
23.852087643719535
30
0
11
-178.50073905261385
21
23.7727128455806
31
0
0
LINE
5
324
100
AcDbEntity
8
0
100
AcDbLine
10
-178.50073905261385
20
23.7727128455806
30
0
11
-178.50073905261385
21
23.666879108525141
31
0
0
LINE
5
325
100
AcDbEntity
8
0
100
AcDbLine
10
-178.50073905261385
20
23.666879108525141
30
0
11
-178.55365894905756
21
23.561045371469682
31
0
0
LINE
5
326
100
AcDbEntity
8
0
100
AcDbLine
10
-178.55365894905756
20
23.561045371469682
30
0
11
-178.55365894905754
21
23.428753704803018
31
0
0
LINE
5
327
100
AcDbEntity
8
0
100
AcDbLine
10
-178.55365894905754
20
23.428753704803018
30
0
11
-178.60657884550122
21
23.270004108525146
31
0
0
LINE
5
328
100
AcDbEntity
8
0
100
AcDbLine
10
-178.60657884550122
20
23.270004108525146
30
0
11
-178.60657884550122
21
23.084795573330751
31
0
0
LINE
5
329
100
AcDbEntity
8
0
100
AcDbLine
10
-178.60657884550122
20
23.084795573330751
30
0
11
-178.6594987419449
21
22.89958703813635
31
0
0
LINE
5
330
100
AcDbEntity
8
0
100
AcDbLine
10
-178.6594987419449
20
22.89958703813635
30
0
11
-178.6594987419449
21
22.687920573330747
31
0
0
LINE
5
331
100
AcDbEntity
8
0
100
AcDbLine
10
-178.6594987419449
20
22.687920573330747
30
0
11
-178.71241863838861
21
22.44979516960862
31
0
0
LINE
5
332
100
AcDbEntity
8
0
100
AcDbLine
10
-178.71241863838861
20
22.44979516960862
30
0
11
-178.71241863838858
21
22.185211836275286
31
0
0
LINE
5
333
100
AcDbEntity
8
0
100
AcDbLine
10
-178.71241863838858
20
22.185211836275286
30
0
11
-178.76533853483227
21
21.920628502941952
31
0
0
LINE
5
334
100
AcDbEntity
8
0
100
AcDbLine
10
-178.76533853483227
20
21.920628502941952
30
0
11
-178.76533853483227
21
19.486461634414223
31
0
0
LINE
5
335
100
AcDbEntity
8
0
100
AcDbLine
10
-178.76533853483227
20
19.486461634414223
30
0
11
-178.68596676460928
21
19.063128200150356
31
0
0
LINE
5
336
100
AcDbEntity
8
0
100
AcDbLine
10
-178.68596676460928
20
19.063128200150356
30
0
11
-178.58012697172194
21
18.163544463094894
31
0
0
LINE
5
337
100
AcDbEntity
8
0
100
AcDbLine
10
-178.58012697172194
20
18.163544463094894
30
0
11
-178.58012697172194
21
17.925419564025429
31
0
0
LINE
5
338
100
AcDbEntity
8
0
100
AcDbLine
10
-178.58012697172194
20
17.925419564025429
30
0
11
-178.52720707527823
21
17.925419564025429
31
0
0
SPLINE
5
339
100
AcDbEntity
8
0
100
AcDbSpline
70
0
71
2
72
6
73
3
74
0
42
0.000000001
43
0.0000000001
44
0.0000000001
40
0
40
0
40
0
40
1
40
1
40
1
10
-178.52720707527823
20
17.925419564025425
30
0
10
-178.52720707527823
20
17.89896112976156
30
0
10
-176.96615894905756
20
17.369794463094898
30
0
0
LINE
5
340
100
AcDbEntity
8
0
100
AcDbLine
10
-176.96615894905756
20
17.369794463094895
30
0
11
-176.8074154086116
21
17.555002998289293
31
0
0
LINE
5
341
100
AcDbEntity
8
0
100
AcDbLine
10
-176.8074154086116
20
17.555002998289293
30
0
11
-176.17240894905757
21
18.190003402011421
31
0
0
LINE
5
342
100
AcDbEntity
8
0
100
AcDbLine
10
-176.17240894905757
20
18.190003402011421
30
0
11
-175.88137374194488
21
18.507503603872486
31
0
0
LINE
5
343
100
AcDbEntity
8
0
100
AcDbLine
10
-175.88137374194488
20
18.507503603872486
30
0
11
-175.61679040861156
21
18.798545371469686
31
0
0
LINE
5
344
100
AcDbEntity
8
0
100
AcDbLine
10
-175.61679040861156
20
18.798545371469686
30
0
11
-175.14052748950348
21
19.380628906664079
31
0
0
LINE
5
345
100
AcDbEntity
8
0
100
AcDbLine
10
-175.14052748950348
20
19.380628906664079
30
0
11
-174.92886405261385
21
19.645212239997413
31
0
0
LINE
5
346
100
AcDbEntity
8
0
100
AcDbLine
10
-174.92886405261385
20
19.645212239997413
30
0
11
-174.55844092639313
21
20.174378906664078
31
0
0
LINE
5
347
100
AcDbEntity
8
0
100
AcDbLine
10
-174.55844092639313
20
20.174378906664078
30
0
11
-174.24095384550125
21
20.650629714108334
31
0
0
LINE
5
348
100
AcDbEntity
8
0
100
AcDbLine
10
-174.24095384550125
20
20.650629714108334
30
0
11
-173.9763705121679
21
21.07396264371954
31
0
0
LINE
5
349
100
AcDbEntity
8
0
100
AcDbLine
10
-173.9763705121679
20
21.07396264371954
30
0
11
-173.76469092639314
21
21.444379714108337
31
0
0
LINE
5
350
100
AcDbEntity
8
0
100
AcDbLine
10
-173.76469092639314
20
21.444379714108337
30
0
11
-173.68531915617015
21
21.603129310386208
31
0
0
LINE
5
351
100
AcDbEntity
8
0
100
AcDbLine
10
-173.68531915617015
20
21.603129310386208
30
0
11
-173.60594738594716
21
21.735420977052872
31
0
0
LINE
5
352
100
AcDbEntity
8
0
100
AcDbLine
10
-173.60594738594716
20
21.735420977052872
30
0
11
-173.55302748950348
21
21.867712643719539
31
0
0
LINE
5
353
100
AcDbEntity
8
0
100
AcDbLine
10
-173.55302748950348
20
21.867712643719539
30
0
11
-173.50010759305979
21
21.973546380774998
31
0
0
LINE
5
354
100
AcDbEntity
8
0
100
AcDbLine
10
-173.50010759305979
20
21.973546380774998
30
0
11
-173.50010759305979
21
22.079380117830461
31
0
0
LINE
5
355
100
AcDbEntity
8
0
100
AcDbLine
10
-173.50010759305979
20
22.079380117830461
30
0
11
-173.42073582283683
21
22.158754915969396
31
0
0
LINE
5
356
100
AcDbEntity
8
0
100
AcDbLine
10
-173.42073582283683
20
22.158754915969396
30
0
11
-173.42073582283683
21
22.264588653024859
31
0
0
LINE
5
357
100
AcDbEntity
8
0
100
AcDbLine
10
-173.42073582283683
20
22.264588653024859
30
0
11
-171.09240571928052
21
21.708964056746982
31
0
0
LINE
5
358
100
AcDbEntity
8
0
100
AcDbLine
10
-171.09240571928052
20
21.708964056746982
30
0
11
-171.09240571928052
21
19.883339157677518
31
0
0
LINE
5
359
100
AcDbEntity
8
0
100
AcDbLine
10
-171.09240571928052
20
19.883339157677518
30
0
11
-171.03948582283681
21
19.618755824344181
31
0
0
LINE
5
360
100
AcDbEntity
8
0
100
AcDbLine
10
-171.03948582283681
20
19.618755824344181
30
0
11
-170.98656592639313
21
19.327714056746984
31
0
0
LINE
5
361
100
AcDbEntity
8
0
100
AcDbLine
10
-170.98656592639313
20
19.327714056746984
30
0
11
-170.88072613350576
21
18.692713653024853
31
0
0
LINE
5
362
100
AcDbEntity
8
0
100
AcDbLine
10
-170.88072613350576
20
18.692713653024853
30
0
11
-170.72198259305981
21
18.00479739008032
31
0
0
LINE
5
363
100
AcDbEntity
8
0
100
AcDbLine
10
-170.72198259305981
20
18.00479739008032
30
0
11
-170.61614280017244
21
17.634380824344184
31
0
0
LINE
5
364
100
AcDbEntity
8
0
100
AcDbLine
10
-170.61614280017244
20
17.634380824344184
30
0
11
-170.5103030072851
21
17.237505824344179
31
0
0
LINE
5
365
100
AcDbEntity
8
0
100
AcDbLine
10
-170.5103030072851
20
17.237505824344179
30
0
11
-170.3780113406184
21
16.840630824344185
31
0
0
LINE
5
366
100
AcDbEntity
8
0
100
AcDbLine
10
-170.3780113406184
20
16.840630824344185
30
0
11
-170.24571967395175
21
16.417297390080314
31
0
0
LINE
5
367
100
AcDbEntity
8
0
100
AcDbLine
10
-170.24571967395175
20
16.417297390080314
30
0
11
-170.00760436328278
21
15.782297238684517
31
0
0
LINE
5
368
100
AcDbEntity
8
0
100
AcDbLine
10
-170.00760436328278
20
15.782297238684517
30
0
11
-168.36718446683909
21
15.544172339615052
31
0
0
LINE
5
369
100
AcDbEntity
8
0
100
AcDbLine
10
-168.36718446683909
20
15.544172339615052
30
0
11
-168.23489280017245
21
15.755839056746987
31
0
0
LINE
5
370
100
AcDbEntity
8
0
100
AcDbLine
10
-168.23489280017245
20
15.755839056746987
30
0
11
-167.97030946683913
21
16.126255622483114
31
0
0
LINE
5
371
100
AcDbEntity
8
0
100
AcDbLine
10
-167.97030946683913
20
16.126255622483114
30
0
11
-167.73217800728506
21
16.49667218821925
31
0
0
LINE
5
372
100
AcDbEntity
8
0
100
AcDbLine
10
-167.73217800728506
20
16.49667218821925
30
0
11
-167.52051457039542
21
16.867088753955386
31
0
0
LINE
5
373
100
AcDbEntity
8
0
100
AcDbLine
10
-167.52051457039542
20
16.867088753955386
30
0
11
-167.30885113350578
21
17.211046885427663
31
0
0
LINE
5
374
100
AcDbEntity
8
0
100
AcDbLine
10
-167.30885113350578
20
17.211046885427663
30
0
11
-167.12363957039543
21
17.555005016899933
31
0
0
LINE
5
375
100
AcDbEntity
8
0
100
AcDbLine
10
-167.12363957039543
20
17.555005016899933
30
0
11
-166.93842800728507
21
17.872505218760992
31
0
0
LINE
5
376
100
AcDbEntity
8
0
100
AcDbLine
10
-166.93842800728507
20
17.872505218760992
30
0
11
-166.77968446683911
21
18.190005420622057
31
0
0
LINE
5
377
100
AcDbEntity
8
0
100
AcDbLine
10
-166.77968446683911
20
18.190005420622057
30
0
11
-166.51510113350579
21
18.772088955816457
31
0
0
LINE
5
378
100
AcDbEntity
8
0
100
AcDbLine
10
-166.51510113350579
20
18.772088955816457
30
0
11
-166.30342154773103
21
19.301255622483122
31
0
0
LINE
5
379
100
AcDbEntity
8
0
100
AcDbLine
10
-166.30342154773103
20
19.301255622483122
30
0
11
-166.22404977750804
21
19.539380521552587
31
0
0
LINE
5
380
100
AcDbEntity
8
0
100
AcDbLine
10
-166.22404977750804
20
19.539380521552587
30
0
11
-166.06530623706209
21
19.962713451163793
31
0
0
LINE
5
381
100
AcDbEntity
8
0
100
AcDbLine
10
-166.06530623706209
20
19.962713451163793
30
0
11
-165.95946644417469
21
20.33313052155259
31
0
0
LINE
5
382
100
AcDbEntity
8
0
100
AcDbLine
10
-165.95946644417469
20
20.33313052155259
30
0
11
-165.90654654773101
21
20.491880117830462
31
0
0
LINE
5
383
100
AcDbEntity
8
0
100
AcDbLine
10
-165.90654654773101
20
20.491880117830462
30
0
11
-165.90654654773104
21
20.624171784497129
31
0
0
LINE
5
384
100
AcDbEntity
8
0
100
AcDbLine
10
-165.90654654773104
20
20.624171784497129
30
0
11
-165.85362665128736
21
20.756463451163793
31
0
0
LINE
5
385
100
AcDbEntity
8
0
100
AcDbLine
10
-165.85362665128736
20
20.756463451163793
30
0
11
-165.85362665128736
21
21.073963653024855
31
0
0
LINE
5
386
100
AcDbEntity
8
0
100
AcDbLine
10
-165.85362665128736
20
21.073963653024855
30
0
11
-163.47237665128733
21
20.994588854885919
31
0
0
LINE
5
387
100
AcDbEntity
8
0
100
AcDbLine
10
-163.47237665128733
20
20.994588854885919
30
0
11
-163.47237665128733
21
20.412505319691526
31
0
0
LINE
5
388
100
AcDbEntity
8
0
100
AcDbLine
10
-163.47237665128733
20
20.412505319691526
30
0
11
-163.41945675484365
21
20.253755218760993
31
0
0
LINE
5
389
100
AcDbEntity
8
0
100
AcDbLine
10
-163.41945675484365
20
20.253755218760993
30
0
11
-163.41945675484368
21
20.068546683566595
31
0
0
LINE
5
390
100
AcDbEntity
8
0
100
AcDbLine
10
-163.41945675484368
20
20.068546683566595
30
0
11
-163.34008498462069
21
19.883338148372196
31
0
0
LINE
5
391
100
AcDbEntity
8
0
100
AcDbLine
10
-163.34008498462069
20
19.883338148372196
30
0
11
-163.28716508817701
21
19.671671683566597
31
0
0
LINE
5
392
100
AcDbEntity
8
0
100
AcDbLine
10
-163.28716508817701
20
19.671671683566597
30
0
11
-163.23424519173329
21
19.433546784497125
31
0
0
LINE
5
393
100
AcDbEntity
8
0
100
AcDbLine
10
-163.23424519173329
20
19.433546784497125
30
0
11
-163.15487342151033
21
19.195421885427663
31
0
0
LINE
5
394
100
AcDbEntity
8
0
100
AcDbLine
10
-163.15487342151033
20
19.195421885427663
30
0
11
-163.07550165128734
21
18.930838552094329
31
0
0
LINE
5
395
100
AcDbEntity
8
0
100
AcDbLine
10
-163.07550165128734
20
18.930838552094329
30
0
11
-162.9696618584
21
18.666255218760988
31
0
0
LINE
5
396
100
AcDbEntity
8
0
100
AcDbLine
10
-162.9696618584
20
18.666255218760988
30
0
11
-162.86382206551264
21
18.375213451163795
31
0
0
LINE
5
397
100
AcDbEntity
8
0
100
AcDbLine
10
-162.86382206551264
20
18.375213451163795
30
0
11
-162.59923873217929
21
17.740213047441671
31
0
0
LINE
5
398
100
AcDbEntity
8
0
100
AcDbLine
10
-162.59923873217929
20
17.740213047441671
30
0
11
-162.28175165128735
21
17.052296784497123
31
0
0
LINE
5
399
100
AcDbEntity
8
0
100
AcDbLine
10
-162.28175165128735
20
17.052296784497123
30
0
11
-161.91132852506666
21
16.311463653024852
31
0
0
LINE
5
400
100
AcDbEntity
8
0
100
AcDbLine
10
-161.91132852506666
20
16.311463653024852
30
0
11
-161.69966508817703
21
15.914588653024859
31
0
0
LINE
5
401
100
AcDbEntity
8
0
100
AcDbLine
10
-161.69966508817703
20
15.914588653024859
30
0
11
-161.46153362862296
21
15.517713653024856
31
0
0
LINE
5
402
100
AcDbEntity
8
0
100
AcDbLine
10
-161.46153362862296
20
15.517713653024856
30
0
11
-161.32924196195631
21
15.306046935892921
31
0
0
LINE
5
403
100
AcDbEntity
8
0
100
AcDbLine
10
-161.32924196195631
20
15.306046935892921
30
0
11
-159.6888220655126
21
15.385421986358194
31
0
0
SPLINE
5
404
100
AcDbEntity
8
0
100
AcDbSpline
70
0
71
2
72
6
73
3
74
0
42
0.000000001
43
0.0000000001
44
0.0000000001
40
0
40
0
40
0
40
1
40
1
40
1
10
-159.6888220655126
20
15.385421986358189
30
0
10
-159.6888220655126
20
15.411880420622055
30
0
10
-159.58298227262526
20
15.623546885427659
30
0
0
LINE
5
405
100
AcDbEntity
8
0
100
AcDbLine
10
-159.58298227262526
20
15.623546885427659
30
0
11
-159.3977707095149
21
16.046880319691521
31
0
0
LINE
5
406
100
AcDbEntity
8
0
100
AcDbLine
10
-159.3977707095149
20
16.046880319691521
30
0
11
-159.08028362862296
21
16.840630319691527
31
0
0
LINE
5
407
100
AcDbEntity
8
0
100
AcDbLine
10
-159.08028362862296
20
16.840630319691527
30
0
11
-158.81570029528962
21
17.581463451163792
31
0
0
LINE
5
408
100
AcDbEntity
8
0
100
AcDbLine
10
-158.81570029528962
20
17.581463451163792
30
0
11
-158.60402070951491
21
18.269379714108336
31
0
0
LINE
5
409
100
AcDbEntity
8
0
100
AcDbLine
10
-158.60402070951491
20
18.269379714108336
30
0
11
-158.52464893929186
21
18.586879915969394
31
0
0
LINE
5
410
100
AcDbEntity
8
0
100
AcDbLine
10
-158.52464893929186
20
18.586879915969394
30
0
11
-158.44527716906893
21
18.877921683566594
31
0
0
LINE
5
411
100
AcDbEntity
8
0
100
AcDbLine
10
-158.44527716906893
20
18.877921683566594
30
0
11
-158.39235727262522
21
19.168963451163794
31
0
0
LINE
5
412
100
AcDbEntity
8
0
100
AcDbLine
10
-158.39235727262522
20
19.168963451163794
30
0
11
-158.33943737618154
21
19.433546784497125
31
0
0
LINE
5
413
100
AcDbEntity
8
0
100
AcDbLine
10
-158.33943737618154
20
19.433546784497125
30
0
11
-158.28651747973788
21
19.671671683566597
31
0
0
LINE
5
414
100
AcDbEntity
8
0
100
AcDbLine
10
-158.28651747973788
20
19.671671683566597
30
0
11
-158.28651747973788
21
19.909796582636066
31
0
0
LINE
5
415
100
AcDbEntity
8
0
100
AcDbLine
10
-158.28651747973788
20
19.909796582636066
30
0
11
-158.23359758329417
21
20.121463047441669
31
0
0
LINE
5
416
100
AcDbEntity
8
0
100
AcDbLine
10
-158.23359758329417
20
20.121463047441669
30
0
11
-158.23359758329417
21
21.232713249302726
31
0
0
LINE
5
417
100
AcDbEntity
8
0
100
AcDbLine
10
-158.23359758329417
20
21.232713249302726
30
0
11
-155.87879945707346
21
21.629588249302731
31
0
0
LINE
5
418
100
AcDbEntity
8
0
100
AcDbLine
10
-155.87879945707346
20
21.629588249302731
30
0
11
-155.87879945707351
21
21.523754512247272
31
0
0
LINE
5
419
100
AcDbEntity
8
0
100
AcDbLine
10
-155.87879945707351
20
21.523754512247272
30
0
11
-155.8258795606298
21
21.444379714108337
31
0
0
LINE
5
420
100
AcDbEntity
8
0
100
AcDbLine
10
-155.8258795606298
20
21.444379714108337
30
0
11
-155.8258795606298
21
21.338545977052874
31
0
0
LINE
5
421
100
AcDbEntity
8
0
100
AcDbLine
10
-155.8258795606298
20
21.338545977052874
30
0
11
-155.74650779040681
21
21.232712239997412
31
0
0
LINE
5
422
100
AcDbEntity
8
0
100
AcDbLine
10
-155.74650779040681
20
21.232712239997412
30
0
11
-155.69358789396313
21
21.100420573330748
31
0
0
LINE
5
423
100
AcDbEntity
8
0
100
AcDbLine
10
-155.69358789396313
20
21.100420573330748
30
0
11
-155.64066799751942
21
20.941670977052873
31
0
0
LINE
5
424
100
AcDbEntity
8
0
100
AcDbLine
10
-155.64066799751942
20
20.941670977052873
30
0
11
-155.56129622729645
21
20.782921380775001
31
0
0
LINE
5
425
100
AcDbEntity
8
0
100
AcDbLine
10
-155.56129622729645
20
20.782921380775001
30
0
11
-155.48192445707346
21
20.597712845580602
31
0
0
LINE
5
426
100
AcDbEntity
8
0
100
AcDbLine
10
-155.48192445707346
20
20.597712845580602
30
0
11
-155.37608466418612
21
20.412504310386204
31
0
0
LINE
5
427
100
AcDbEntity
8
0
100
AcDbLine
10
-155.37608466418612
20
20.412504310386204
30
0
11
-155.27024487129876
21
20.200837845580605
31
0
0
LINE
5
428
100
AcDbEntity
8
0
100
AcDbLine
10
-155.27024487129876
20
20.200837845580605
30
0
11
-155.13795320463208
21
19.989171380775002
31
0
0
LINE
5
429
100
AcDbEntity
8
0
100
AcDbLine
10
-155.13795320463208
20
19.989171380775002
30
0
11
-155.00566153796541
21
19.751046481705533
31
0
0
LINE
5
430
100
AcDbEntity
8
0
100
AcDbLine
10
-155.00566153796541
20
19.751046481705533
30
0
11
-154.84691799751945
21
19.512921582636061
31
0
0
LINE
5
431
100
AcDbEntity
8
0
100
AcDbLine
10
-154.84691799751945
20
19.512921582636061
30
0
11
-154.68817445707347
21
19.24833824930273
31
0
0
LINE
5
432
100
AcDbEntity
8
0
100
AcDbLine
10
-154.68817445707347
20
19.24833824930273
30
0
11
-154.50296289396312
21
18.983754915969399
31
0
0
LINE
5
433
100
AcDbEntity
8
0
100
AcDbLine
10
-154.50296289396312
20
18.983754915969399
30
0
11
-154.31775133085279
21
18.692713148372199
31
0
0
LINE
5
434
100
AcDbEntity
8
0
100
AcDbLine
10
-154.31775133085279
20
18.692713148372199
30
0
11
-154.10608789396315
21
18.401671380774999
31
0
0
LINE
5
435
100
AcDbEntity
8
0
100
AcDbLine
10
-154.10608789396315
20
18.401671380774999
30
0
11
-153.62982497485504
21
17.766670977052872
31
0
0
LINE
5
436
100
AcDbEntity
8
0
100
AcDbLine
10
-153.62982497485504
20
17.766670977052872
30
0
11
-153.36524164152169
21
17.449170775191813
31
0
0
LINE
5
437
100
AcDbEntity
8
0
100
AcDbLine
10
-153.36524164152169
20
17.449170775191813
30
0
11
-153.07420643440909
21
17.105212643719536
31
0
0
LINE
5
438
100
AcDbEntity
8
0
100
AcDbLine
10
-153.07420643440909
20
17.105212643719536
30
0
11
-152.75670320463209
21
16.76125451224727
31
0
0
LINE
5
439
100
AcDbEntity
8
0
100
AcDbLine
10
-152.75670320463209
20
16.76125451224727
30
0
11
-152.59795966418611
21
16.576045977052871
31
0
0
LINE
5
440
100
AcDbEntity
8
0
100
AcDbLine
10
-152.59795966418611
20
16.576045977052871
30
0
11
-151.0104596641861
21
16.999379411316742
31
0
0
LINE
5
441
100
AcDbEntity
8
0
100
AcDbLine
10
-151.0104596641861
20
16.999379411316742
30
0
11
-150.95753976774239
21
17.263962744650073
31
0
0
LINE
5
442
100
AcDbEntity
8
0
100
AcDbLine
10
-150.95753976774239
20
17.263962744650073
30
0
11
-150.85169997485508
21
17.713754613177805
31
0
0
LINE
5
443
100
AcDbEntity
8
0
100
AcDbLine
10
-150.85169997485508
20
17.713754613177805
30
0
11
-150.6929564344091
21
18.560421481705536
31
0
0
LINE
5
444
100
AcDbEntity
8
0
100
AcDbLine
10
-150.6929564344091
20
18.560421481705536
30
0
11
-150.64003653796539
21
18.95729648170553
31
0
0
LINE
5
445
100
AcDbEntity
8
0
100
AcDbLine
10
-150.64003653796539
20
18.95729648170553
30
0
11
-150.5871166415217
21
19.327713047441666
31
0
0
LINE
5
446
100
AcDbEntity
8
0
100
AcDbLine
10
-150.5871166415217
20
19.327713047441666
30
0
11
-150.58711664152173
21
19.698129613177802
31
0
0
LINE
5
447
100
AcDbEntity
8
0
100
AcDbLine
10
-150.58711664152173
20
19.698129613177802
30
0
11
-150.53419674507805
21
20.042087744650068
31
0
0
LINE
5
448
100
AcDbEntity
8
0
100
AcDbLine
10
-150.53419674507805
20
20.042087744650068
30
0
11
-150.53419674507805
21
22.317504512247268
31
0
0
LINE
5
449
100
AcDbEntity
8
0
100
AcDbLine
10
-150.53419674507805
20
22.317504512247268
30
0
11
-150.58711664152173
21
22.47625410852514
31
0
0
LINE
5
450
100
AcDbEntity
8
0
100
AcDbLine
10
-150.58711664152173
20
22.47625410852514
30
0
11
-150.58711664152173
21
22.608545775191811
31
0
0
LINE
5
451
100
AcDbEntity
8
0
100
AcDbLine
10
-150.58711664152173
20
22.608545775191811
30
0
11
-150.64003653796544
21
22.740837441858478
31
0
0
LINE
5
452
100
AcDbEntity
8
0
100
AcDbLine
10
-150.64003653796544
20
22.740837441858478
30
0
11
-150.64003653796539
21
22.846671178913937
31
0
0
LINE
5
453
100
AcDbEntity
8
0
100
AcDbLine
10
-150.64003653796539
20
22.846671178913937
30
0
11
-150.6929564344091
21
22.926045977052873
31
0
0
LINE
5
454
100
AcDbEntity
8
0
100
AcDbLine
10
-150.6929564344091
20
22.926045977052873
30
0
11
-150.6929564344091
21
23.031879714108335
31
0
0
LINE
5
455
100
AcDbEntity
8
0
100
AcDbLine
10
-150.6929564344091
20
23.031879714108335
30
0
11
-148.47044997485509
21
23.878546582636062
31
0
0
LINE
5
456
100
AcDbEntity
8
0
100
AcDbLine
10
-148.47044997485509
20
23.878546582636062
30
0
11
-148.47044997485506
21
23.7727128455806
31
0
0
LINE
5
457
100
AcDbEntity
8
0
100
AcDbLine
10
-148.47044997485506
20
23.7727128455806
30
0
11
-148.39107820463204
21
23.693338047441664
31
0
0
LINE
5
458
100
AcDbEntity
8
0
100
AcDbLine
10
-148.39107820463204
20
23.693338047441664
30
0
11
-148.33815830818838
21
23.613963249302728
31
0
0
LINE
5
459
100
AcDbEntity
8
0
100
AcDbLine
10
-148.33815830818838
20
23.613963249302728
30
0
11
-148.2852384117447
21
23.508129512247269
31
0
0
LINE
5
460
100
AcDbEntity
8
0
100
AcDbLine
10
-148.2852384117447
20
23.508129512247269
30
0
11
-148.12649487129875
21
23.243546178913938
31
0
0
LINE
5
461
100
AcDbEntity
8
0
100
AcDbLine
10
-148.12649487129875
20
23.243546178913938
30
0
11
-147.91481528552401
21
22.926046986358195
31
0
0
LINE
5
462
100
AcDbEntity
8
0
100
AcDbLine
10
-147.91481528552401
20
22.926046986358195
30
0
11
-147.65023195219069
21
22.555629915969398
31
0
0
LINE
5
463
100
AcDbEntity
8
0
100
AcDbLine
10
-147.65023195219069
20
22.555629915969398
30
0
11
-147.49148841174471
21
22.370421380775003
31
0
0
LINE
5
464
100
AcDbEntity
8
0
100
AcDbLine
10
-147.49148841174471
20
22.370421380775003
30
0
11
-147.121065285524
21
21.947088451163793
31
0
0
LINE
5
465
100
AcDbEntity
8
0
100
AcDbLine
10
-147.121065285524
20
21.947088451163793
30
0
11
-146.90940184863436
21
21.708963047441667
31
0
0
LINE
5
466
100
AcDbEntity
8
0
100
AcDbLine
10
-146.90940184863436
20
21.708963047441667
30
0
11
-146.43313892952625
21
21.232712239997412
31
0
0
LINE
5
467
100
AcDbEntity
8
0
100
AcDbLine
10
-146.43313892952625
20
21.232712239997412
30
0
11
-146.16855559619293
21
20.994586836275285
31
0
0
LINE
5
468
100
AcDbEntity
8
0
100
AcDbLine
10
-146.16855559619293
20
20.994586836275285
30
0
11
-145.87752038908033
21
20.730003502941948
31
0
0
LINE
5
469
100
AcDbEntity
8
0
100
AcDbLine
10
-145.87752038908033
20
20.730003502941948
30
0
11
-145.2425139295263
21
20.200836836275286
31
0
0
LINE
5
470
100
AcDbEntity
8
0
100
AcDbLine
10
-145.2425139295263
20
20.200836836275286
30
0
11
-144.89855882596996
21
19.936253502941952
31
0
0
LINE
5
471
100
AcDbEntity
8
0
100
AcDbLine
10
-144.89855882596996
20
19.936253502941952
30
0
11
-144.34292413663889
21
19.539378502941954
31
0
0
LINE
5
472
100
AcDbEntity
8
0
100
AcDbLine
10
-144.34292413663889
20
19.539378502941954
30
0
11
-142.86126392952627
21
20.280211634414222
31
0
0
LINE
5
473
100
AcDbEntity
8
0
100
AcDbLine
10
-142.86126392952627
20
20.280211634414222
30
0
11
-142.86126392952627
21
22.635003704803015
31
0
0
LINE
5
474
100
AcDbEntity
8
0
100
AcDbLine
10
-142.86126392952627
20
22.635003704803015
30
0
11
-142.91418382596999
21
23.005420775191809
31
0
0
LINE
5
475
100
AcDbEntity
8
0
100
AcDbLine
10
-142.91418382596999
20
23.005420775191809
30
0
11
-142.96710372241367
21
23.349378906664082
31
0
0
LINE
5
476
100
AcDbEntity
8
0
100
AcDbLine
10
-142.96710372241367
20
23.349378906664082
30
0
11
-143.07294351530103
21
23.98437931038621
31
0
0
LINE
5
477
100
AcDbEntity
8
0
100
AcDbLine
10
-143.07294351530103
20
23.98437931038621
30
0
11
-143.12586341174472
21
24.275420573330745
31
0
0
LINE
5
478
100
AcDbEntity
8
0
100
AcDbLine
10
-143.12586341174472
20
24.275420573330745
30
0
11
-143.1787833081884
21
24.540003906664079
31
0
0
LINE
5
479
100
AcDbEntity
8
0
100
AcDbLine
10
-143.1787833081884
20
24.540003906664079
30
0
11
-143.28462310107574
21
25.016254714108335
31
0
0
LINE
5
480
100
AcDbEntity
8
0
100
AcDbLine
10
-143.28462310107574
20
25.016254714108335
30
0
11
-143.33754299751945
21
25.227921178913935
31
0
0
LINE
5
481
100
AcDbEntity
8
0
100
AcDbLine
10
-143.33754299751945
20
25.227921178913935
30
0
11
-143.39046289396316
21
25.413129714108329
31
0
0
LINE
5
482
100
AcDbEntity
8
0
100
AcDbLine
10
-143.39046289396316
20
25.413129714108329
30
0
11
-143.4963026868505
21
25.73062890666408
31
0
0
LINE
5
483
100
AcDbEntity
8
0
100
AcDbLine
10
-143.4963026868505
20
25.73062890666408
30
0
11
-143.54922258329421
21
25.862920573330747
31
0
0
LINE
5
484
100
AcDbEntity
8
0
100
AcDbLine
10
-143.54922258329421
20
25.862920573330747
30
0
11
-143.65506237618155
21
26.074588047441665
31
0
0
LINE
5
485
100
AcDbEntity
8
0
100
AcDbLine
10
-143.65506237618155
20
26.074588047441665
30
0
11
-143.65506237618155
21
26.153962845580601
31
0
0
LINE
5
486
100
AcDbEntity
8
0
100
AcDbLine
10
-143.65506237618155
20
26.153962845580601
30
0
11
-143.70798227262526
21
26.206879714108339
31
0
0
LINE
5
487
100
AcDbEntity
8
0
100
AcDbLine
10
-143.70798227262526
20
26.206879714108339
30
0
11
-143.70798227262523
21
26.259796582636064
31
0
0
LINE
5
488
100
AcDbEntity
8
0
100
AcDbLine
10
-143.70798227262523
20
26.259796582636064
30
0
11
-141.67068737618155
21
27.529796380775
31
0
0
LINE
5
489
100
AcDbEntity
8
0
100
AcDbLine
10
-141.67068737618155
20
27.529796380775
30
0
11
-141.56484758329415
21
27.371046784497128
31
0
0
LINE
5
490
100
AcDbEntity
8
0
100
AcDbLine
10
-141.56484758329415
20
27.371046784497128
30
0
11
-141.4061040428482
21
27.212297188219257
31
0
0
LINE
5
491
100
AcDbEntity
8
0
100
AcDbLine
10
-141.4061040428482
20
27.212297188219257
30
0
11
-141.1944244570735
21
27.000629714108335
31
0
0
LINE
5
492
100
AcDbEntity
8
0
100
AcDbLine
10
-141.1944244570735
20
27.000629714108335
30
0
11
-140.92984112374015
21
26.736046380775001
31
0
0
LINE
5
493
100
AcDbEntity
8
0
100
AcDbLine
10
-140.92984112374015
20
26.736046380775001
30
0
11
-140.77109758329419
21
26.603754714108334
31
0
0
LINE
5
494
100
AcDbEntity
8
0
100
AcDbLine
10
-140.77109758329419
20
26.603754714108334
30
0
11
-140.40067445707348
21
26.28625552155259
31
0
0
LINE
5
495
100
AcDbEntity
8
0
100
AcDbLine
10
-140.40067445707348
20
26.28625552155259
30
0
11
-140.18901102018384
21
26.127505925274718
31
0
0
LINE
5
496
100
AcDbEntity
8
0
100
AcDbLine
10
-140.18901102018384
20
26.127505925274718
30
0
11
-139.95087956062977
21
25.94229739008032
31
0
0
LINE
5
497
100
AcDbEntity
8
0
100
AcDbLine
10
-139.95087956062977
20
25.94229739008032
30
0
11
-139.42171289396313
21
25.571880319691527
31
0
0
LINE
5
498
100
AcDbEntity
8
0
100
AcDbLine
10
-139.42171289396313
20
25.571880319691527
30
0
11
-139.1306776868505
21
25.386671784497132
31
0
0
LINE
5
499
100
AcDbEntity
8
0
100
AcDbLine
10
-139.1306776868505
20
25.386671784497132
30
0
11
-138.4956712272965
21
25.016254714108335
31
0
0
LINE
5
500
100
AcDbEntity
8
0
100
AcDbLine
10
-138.4956712272965
20
25.016254714108335
30
0
11
-138.15171612374013
21
24.83104617891394
31
0
0
LINE
5
501
100
AcDbEntity
8
0
100
AcDbLine
10
-138.15171612374013
20
24.83104617891394
30
0
11
-137.78129299751947
21
24.619379714108334
31
0
0
LINE
5
502
100
AcDbEntity
8
0
100
AcDbLine
10
-137.78129299751947
20
24.619379714108334
30
0
11
-137.38441799751945
21
24.407713249302731
31
0
0
LINE
5
503
100
AcDbEntity
8
0
100
AcDbLine
10
-137.38441799751945
20
24.407713249302731
30
0
11
-136.96109112374015
21
24.196046784497128
31
0
0
LINE
5
504
100
AcDbEntity
8
0
100
AcDbLine
10
-136.96109112374015
20
24.196046784497128
30
0
11
-136.74942768685048
21
24.090213047441669
31
0
0
LINE
5
505
100
AcDbEntity
8
0
100
AcDbLine
10
-136.74942768685048
20
24.090213047441669
30
0
11
-135.42651102018382
21
25.095629512247271
31
0
0
LINE
5
506
100
AcDbEntity
8
0
100
AcDbLine
10
-135.42651102018382
20
25.095629512247271
30
0
11
-135.47943091662751
21
25.360212845580605
31
0
0
LINE
5
507
100
AcDbEntity
8
0
100
AcDbLine
10
-135.47943091662751
20
25.360212845580605
30
0
11
-135.55880268685053
21
25.810004714108334
31
0
0
LINE
5
508
100
AcDbEntity
8
0
100
AcDbLine
10
-135.55880268685053
20
25.810004714108334
30
0
11
-135.63817445707349
21
26.233337643719537
31
0
0
LINE
5
509
100
AcDbEntity
8
0
100
AcDbLine
10
-135.63817445707349
20
26.233337643719537
30
0
11
-135.74401424996083
21
26.656670573330747
31
0
0
LINE
5
510
100
AcDbEntity
8
0
100
AcDbLine
10
-135.74401424996083
20
26.656670573330747
30
0
11
-135.84985404284822
21
27.053545573330744
31
0
0
LINE
5
511
100
AcDbEntity
8
0
100
AcDbLine
10
-135.84985404284822
20
27.053545573330744
30
0
11
-135.95569383573559
21
27.423962643719541
31
0
0
LINE
5
512
100
AcDbEntity
8
0
100
AcDbLine
10
-135.95569383573559
20
27.423962643719541
30
0
11
-136.06153362862295
21
27.767920775191811
31
0
0
LINE
5
513
100
AcDbEntity
8
0
100
AcDbLine
10
-136.06153362862295
20
27.767920775191811
30
0
11
-136.27321321439769
21
28.402921178913939
31
0
0
LINE
5
514
100
AcDbEntity
8
0
100
AcDbLine
10
-136.27321321439769
20
28.402921178913939
30
0
11
-136.37905300728505
21
28.693962441858474
31
0
0
LINE
5
515
100
AcDbEntity
8
0
100
AcDbLine
10
-136.37905300728505
20
28.693962441858474
30
0
11
-136.48489280017242
21
28.958545775191809
31
0
0
LINE
5
516
100
AcDbEntity
8
0
100
AcDbLine
10
-136.48489280017242
20
28.958545775191809
30
0
11
-136.69657238594715
21
29.434796582636061
31
0
0
LINE
5
517
100
AcDbEntity
8
0
100
AcDbLine
10
-136.69657238594715
20
29.434796582636061
30
0
11
-136.80241217883452
21
29.646464056746986
31
0
0
LINE
5
518
100
AcDbEntity
8
0
100
AcDbLine
10
-136.80241217883452
20
29.646464056746986
30
0
11
-137.01409176460928
21
30.016879108525146
31
0
0
LINE
5
519
100
AcDbEntity
8
0
100
AcDbLine
10
-137.01409176460928
20
30.016879108525146
30
0
11
-137.09346353483227
21
30.175628704803014
31
0
0
LINE
5
520
100
AcDbEntity
8
0
100
AcDbLine
10
-137.09346353483227
20
30.175628704803014
30
0
11
-137.25220707527825
21
30.440212038136352
31
0
0
LINE
5
521
100
AcDbEntity
8
0
100
AcDbLine
10
-137.25220707527825
20
30.440212038136352
30
0
11
-137.33157884550121
21
30.546045775191814
31
0
0
LINE
5
522
100
AcDbEntity
8
0
100
AcDbLine
10
-137.33157884550121
20
30.546045775191814
30
0
11
-137.43741863838861
21
30.704797390080323
31
0
0
LINE
5
523
100
AcDbEntity
8
0
100
AcDbLine
10
-137.43741863838861
20
30.704797390080323
30
0
11
-137.49033853483226
21
30.757713249302732
31
0
0
LINE
5
524
100
AcDbEntity
8
0
100
AcDbLine
10
-137.49033853483226
20
30.757713249302732
30
0
11
-135.7440949943863
21
32.424589056746989
31
0
0
LINE
5
525
100
AcDbEntity
8
0
100
AcDbLine
10
-135.7440949943863
20
32.424589056746989
30
0
11
-135.69117509794262
21
32.345213249302731
31
0
0
LINE
5
526
100
AcDbEntity
8
0
100
AcDbLine
10
-135.69117509794262
20
32.345213249302731
30
0
11
-135.63825520149891
21
32.292297390080321
31
0
0
LINE
5
527
100
AcDbEntity
8
0
100
AcDbLine
10
-135.63825520149891
20
32.292297390080321
30
0
11
-135.55888343127594
21
32.239381530857912
31
0
0
LINE
5
528
100
AcDbEntity
8
0
100
AcDbLine
10
-135.55888343127594
20
32.239381530857912
30
0
11
-135.34720384550124
21
32.080629915969396
31
0
0
LINE
5
529
100
AcDbEntity
8
0
100
AcDbLine
10
-135.34720384550124
20
32.080629915969396
30
0
11
-135.21491217883454
21
32.001254108525146
31
0
0
LINE
5
530
100
AcDbEntity
8
0
100
AcDbLine
10
-135.21491217883454
20
32.001254108525146
30
0
11
-134.89742509794266
21
31.789586634414224
31
0
0
LINE
5
531
100
AcDbEntity
8
0
100
AcDbLine
10
-134.89742509794266
20
31.789586634414224
30
0
11
-134.71221353483227
21
31.683752897358765
31
0
0
LINE
5
532
100
AcDbEntity
8
0
100
AcDbLine
10
-134.71221353483227
20
31.683752897358765
30
0
11
-134.50055009794261
21
31.577919160303303
31
0
0
LINE
5
533
100
AcDbEntity
8
0
100
AcDbLine
10
-134.50055009794261
20
31.577919160303303
30
0
11
-134.28888666105297
21
31.445627493636636
31
0
0
LINE
5
534
100
AcDbEntity
8
0
100
AcDbLine
10
-134.28888666105297
20
31.445627493636636
30
0
11
-134.05075520149893
21
31.313335826969968
31
0
0
LINE
5
535
100
AcDbEntity
8
0
100
AcDbLine
10
-134.05075520149893
20
31.313335826969968
30
0
11
-133.78617186816558
21
31.181044160303301
31
0
0
LINE
5
536
100
AcDbEntity
8
0
100
AcDbLine
10
-133.78617186816558
20
31.181044160303301
30
0
11
-133.20410145394032
21
30.916460826969967
31
0
0
LINE
5
537
100
AcDbEntity
8
0
100
AcDbLine
10
-133.20410145394032
20
30.916460826969967
30
0
11
-132.88659822416332
21
30.784169160303307
31
0
0
LINE
5
538
100
AcDbEntity
8
0
100
AcDbLine
10
-132.88659822416332
20
30.784169160303307
30
0
11
-132.54264312060701
21
30.651877493636633
31
0
0
LINE
5
539
100
AcDbEntity
8
0
100
AcDbLine
10
-132.54264312060701
20
30.651877493636633
30
0
11
-131.80179686816561
21
30.387294160303302
31
0
0
LINE
5
540
100
AcDbEntity
8
0
100
AcDbLine
10
-131.80179686816561
20
30.387294160303302
30
0
11
-131.40492186816562
21
30.255002493636635
31
0
0
LINE
5
541
100
AcDbEntity
8
0
100
AcDbLine
10
-131.40492186816562
20
30.255002493636635
30
0
11
-130.98159499438634
21
30.122710826969971
31
0
0
LINE
5
542
100
AcDbEntity
8
0
100
AcDbLine
10
-130.98159499438634
20
30.122710826969971
30
0
11
-130.53180009794264
21
30.016877089914509
31
0
0
LINE
5
543
100
AcDbEntity
8
0
100
AcDbLine
10
-130.53180009794264
20
30.016877089914509
30
0
11
-130.29366863838862
21
29.963961230692099
31
0
0
LINE
5
544
100
AcDbEntity
8
0
100
AcDbLine
10
-130.29366863838862
20
29.963961230692099
30
0
11
-129.20888343127598
21
31.207502089914509
31
0
0
LINE
5
545
100
AcDbEntity
8
0
100
AcDbLine
10
-129.20888343127598
20
31.207502089914509
30
0
11
-129.28825520149894
21
31.445627493636632
31
0
0
LINE
5
546
100
AcDbEntity
8
0
100
AcDbLine
10
-129.28825520149894
20
31.445627493636632
30
0
11
-129.44699874194492
21
31.868960423247842
31
0
0
LINE
5
547
100
AcDbEntity
8
0
100
AcDbLine
10
-129.44699874194492
20
31.868960423247842
30
0
11
-129.81742186816561
21
32.662710423247837
31
0
0
LINE
5
548
100
AcDbEntity
8
0
100
AcDbLine
10
-129.81742186816561
20
32.662710423247837
30
0
11
-130.00263343127597
21
33.033127493636634
31
0
0
LINE
5
549
100
AcDbEntity
8
0
100
AcDbLine
10
-130.00263343127597
20
33.033127493636634
30
0
11
-130.1878449943863
21
33.377086634414226
31
0
0
LINE
5
550
100
AcDbEntity
8
0
100
AcDbLine
10
-130.1878449943863
20
33.377086634414226
30
0
11
-130.37305655749668
21
33.69458582696997
31
0
0
LINE
5
551
100
AcDbEntity
8
0
100
AcDbLine
10
-130.37305655749668
20
33.69458582696997
30
0
11
-130.69054363838862
21
34.276668352859048
31
0
0
LINE
5
552
100
AcDbEntity
8
0
100
AcDbLine
10
-130.69054363838862
20
34.276668352859048
30
0
11
-130.84928717883454
21
34.541251686192382
31
0
0
LINE
5
553
100
AcDbEntity
8
0
100
AcDbLine
10
-130.84928717883454
20
34.541251686192382
30
0
11
-131.00803071928053
21
34.779377089914504
31
0
0
LINE
5
554
100
AcDbEntity
8
0
100
AcDbLine
10
-131.00803071928053
20
34.779377089914504
30
0
11
-131.32551780017246
21
35.202712038136347
31
0
0
LINE
5
555
100
AcDbEntity
8
0
100
AcDbLine
10
-131.32551780017246
20
35.202712038136347
30
0
11
-131.45780946683911
21
35.387919564025424
31
0
0
LINE
5
556
100
AcDbEntity
8
0
100
AcDbLine
10
-131.45780946683911
20
35.387919564025424
30
0
11
-131.72239280017246
21
35.705418756581174
31
0
0
LINE
5
557
100
AcDbEntity
8
0
100
AcDbLine
10
-131.72239280017246
20
35.705418756581174
30
0
11
-131.93407238594719
21
35.970002089914509
31
0
0
LINE
5
558
100
AcDbEntity
8
0
100
AcDbLine
10
-131.93407238594719
20
35.970002089914509
30
0
11
-132.03991217883458
21
36.075835826969971
31
0
0
LINE
5
559
100
AcDbEntity
8
0
100
AcDbLine
10
-132.03991217883458
20
36.075835826969971
30
0
11
-132.19865571928051
21
36.23458744185848
31
0
0
LINE
5
560
100
AcDbEntity
8
0
100
AcDbLine
10
-132.19865571928051
20
36.23458744185848
30
0
11
-132.3044955121679
21
36.340419160303298
31
0
0
LINE
5
561
100
AcDbEntity
8
0
100
AcDbLine
10
-132.3044955121679
20
36.340419160303298
30
0
11
-130.90220707527826
21
38.298336230692094
31
0
0
LINE
5
562
100
AcDbEntity
8
0
100
AcDbLine
10
-130.90220707527826
20
38.298336230692094
30
0
11
-130.79636728239086
21
38.298336230692101
31
0
0
LINE
5
563
100
AcDbEntity
8
0
100
AcDbLine
10
-130.79636728239086
20
38.298336230692101
30
0
11
-130.7169955121679
21
38.218960423247843
31
0
0
LINE
5
564
100
AcDbEntity
8
0
100
AcDbLine
10
-130.7169955121679
20
38.218960423247843
30
0
11
-130.50531592639314
21
38.113128704803017
31
0
0
LINE
5
565
100
AcDbEntity
8
0
100
AcDbLine
10
-130.50531592639314
20
38.113128704803017
30
0
11
-130.37302425972649
21
38.060212845580608
31
0
0
LINE
5
566
100
AcDbEntity
8
0
100
AcDbLine
10
-130.37302425972649
20
38.060212845580608
30
0
11
-130.21428071928054
21
38.007296986358192
31
0
0
LINE
5
567
100
AcDbEntity
8
0
100
AcDbLine
10
-130.21428071928054
20
38.007296986358192
30
0
11
-130.05553717883456
21
37.927921178913941
31
0
0
LINE
5
568
100
AcDbEntity
8
0
100
AcDbLine
10
-130.05553717883456
20
37.927921178913941
30
0
11
-129.87032561572423
21
37.848545371469683
31
0
0
LINE
5
569
100
AcDbEntity
8
0
100
AcDbLine
10
-129.87032561572423
20
37.848545371469683
30
0
11
-129.44699874194492
21
37.689793756581174
31
0
0
LINE
5
570
100
AcDbEntity
8
0
100
AcDbLine
10
-129.44699874194492
20
37.689793756581174
30
0
11
-129.20886728239088
21
37.610417949136917
31
0
0
LINE
5
571
100
AcDbEntity
8
0
100
AcDbLine
10
-129.20886728239088
20
37.610417949136917
30
0
11
-128.94428394905754
21
37.531042141692666
31
0
0
LINE
5
572
100
AcDbEntity
8
0
100
AcDbLine
10
-128.94428394905754
20
37.531042141692666
30
0
11
-128.36221353483228
21
37.372290526804157
31
0
0
LINE
5
573
100
AcDbEntity
8
0
100
AcDbLine
10
-128.36221353483228
20
37.372290526804157
30
0
11
-128.04471030505528
21
37.292914719359899
31
0
0
LINE
5
574
100
AcDbEntity
8
0
100
AcDbLine
10
-128.04471030505528
20
37.292914719359899
30
0
11
-127.70075520149895
21
37.23999886013749
31
0
0
LINE
5
575
100
AcDbEntity
8
0
100
AcDbLine
10
-127.70075520149895
20
37.23999886013749
30
0
11
-126.95990894905755
21
37.134167141692672
31
0
0
LINE
5
576
100
AcDbEntity
8
0
100
AcDbLine
10
-126.95990894905755
20
37.134167141692672
30
0
11
-126.56303394905756
21
37.081251282470255
31
0
0
LINE
5
577
100
AcDbEntity
8
0
100
AcDbLine
10
-126.56303394905756
20
37.081251282470255
30
0
11
-126.13970707527825
21
37.028335423247839
31
0
0
LINE
5
578
100
AcDbEntity
8
0
100
AcDbLine
10
-126.13970707527825
20
37.028335423247839
30
0
11
-125.68991217883456
21
37.028335423247839
31
0
0
LINE
5
579
100
AcDbEntity
8
0
100
AcDbLine
10
-125.68991217883456
20
37.028335423247839
30
0
11
-125.24011728239087
21
36.97541956402543
31
0
0
LINE
5
580
100
AcDbEntity
8
0
100
AcDbLine
10
-125.24011728239087
20
36.97541956402543
30
0
11
-124.97553394905754
21
36.97541956402543
31
0
0
LINE
5
581
100
AcDbEntity
8
0
100
AcDbLine
10
-124.97553394905754
20
36.97541956402543
30
0
11
-124.15533207527824
21
38.404169967747556
31
0
0
LINE
5
582
100
AcDbEntity
8
0
100
AcDbLine
10
-124.15533207527824
20
38.404169967747556
30
0
11
-124.28762374194491
21
38.642295371469686
31
0
0
LINE
5
583
100
AcDbEntity
8
0
100
AcDbLine
10
-124.28762374194491
20
38.642295371469686
30
0
11
-124.52575520149894
21
39.039170371469687
31
0
0
LINE
5
584
100
AcDbEntity
8
0
100
AcDbLine
10
-124.52575520149894
20
39.039170371469687
30
0
11
-124.76388666105296
21
39.409587441858477
31
0
0
LINE
5
585
100
AcDbEntity
8
0
100
AcDbLine
10
-124.76388666105296
20
39.409587441858477
30
0
11
-125.00201812060702
21
39.753546582636062
31
0
0
LINE
5
586
100
AcDbEntity
8
0
100
AcDbLine
10
-125.00201812060702
20
39.753546582636062
30
0
11
-125.24014958016105
21
40.071045775191806
31
0
0
LINE
5
587
100
AcDbEntity
8
0
100
AcDbLine
10
-125.24014958016105
20
40.071045775191806
30
0
11
-125.71641249926913
21
40.653128301080898
31
0
0
LINE
5
588
100
AcDbEntity
8
0
100
AcDbLine
10
-125.71641249926913
20
40.653128301080898
30
0
11
-125.95454395882315
21
40.917711634414225
31
0
0
LINE
5
589
100
AcDbEntity
8
0
100
AcDbLine
10
-125.95454395882315
20
40.917711634414225
30
0
11
-126.37787083260247
21
41.393962441858477
31
0
0
LINE
5
590
100
AcDbEntity
8
0
100
AcDbLine
10
-126.37787083260247
20
41.393962441858477
30
0
11
-126.58953426949211
21
41.605629915969402
31
0
0
LINE
5
591
100
AcDbEntity
8
0
100
AcDbLine
10
-126.58953426949211
20
41.605629915969402
30
0
11
-126.95995739571282
21
41.976044967747555
31
0
0
LINE
5
592
100
AcDbEntity
8
0
100
AcDbLine
10
-126.95995739571282
20
41.976044967747555
30
0
11
-127.14516895882318
21
42.134794564025427
31
0
0
LINE
5
593
100
AcDbEntity
8
0
100
AcDbLine
10
-127.14516895882318
20
42.134794564025427
30
0
11
-127.4626560397151
21
42.399377897358761
31
0
0
LINE
5
594
100
AcDbEntity
8
0
100
AcDbLine
10
-127.4626560397151
20
42.399377897358761
30
0
11
-127.72723937304843
21
42.611045371469686
31
0
0
LINE
5
595
100
AcDbEntity
8
0
100
AcDbLine
10
-127.72723937304843
20
42.611045371469686
30
0
11
-127.93891895882318
21
42.769796986358187
31
0
0
LINE
5
596
100
AcDbEntity
8
0
100
AcDbLine
10
-127.93891895882318
20
42.769796986358187
30
0
11
-128.09766249926912
21
42.87562870480302
31
0
0
LINE
5
597
100
AcDbEntity
8
0
100
AcDbLine
10
-128.09766249926912
20
42.87562870480302
30
0
11
-128.1505823957128
21
42.87562870480302
31
0
0
LINE
5
598
100
AcDbEntity
8
0
100
AcDbLine
10
-128.1505823957128
20
42.87562870480302
30
0
11
-128.20350229215651
21
42.928544564025437
31
0
0
LINE
5
599
100
AcDbEntity
8
0
100
AcDbLine
10
-128.20350229215651
20
42.928544564025437
30
0
11
-127.22454072904614
21
45.098127089914506
31
0
0
LINE
5
600
100
AcDbEntity
8
0
100
AcDbLine
10
-127.22454072904614
20
45.098127089914506
30
0
11
-127.11870093615877
21
45.098127089914506
31
0
0
LINE
5
601
100
AcDbEntity
8
0
100
AcDbLine
10
-127.11870093615877
20
45.098127089914506
30
0
11
-127.03932916593581
21
45.045211230692097
31
0
0
LINE
5
602
100
AcDbEntity
8
0
100
AcDbLine
10
-127.03932916593581
20
45.045211230692097
30
0
11
-126.93348937304842
21
45.045211230692104
31
0
0
LINE
5
603
100
AcDbEntity
8
0
100
AcDbLine
10
-126.93348937304842
20
45.045211230692104
30
0
11
-126.82764958016105
21
44.992295371469694
31
0
0
LINE
5
604
100
AcDbEntity
8
0
100
AcDbLine
10
-126.82764958016105
20
44.992295371469694
30
0
11
-126.69535791349439
21
44.99229537146968
31
0
0
LINE
5
605
100
AcDbEntity
8
0
100
AcDbLine
10
-126.69535791349439
20
44.99229537146968
30
0
11
-126.53661437304842
21
44.939379512247271
31
0
0
LINE
5
606
100
AcDbEntity
8
0
100
AcDbLine
10
-126.53661437304842
20
44.939379512247271
30
0
11
-126.35140280993808
21
44.939379512247271
31
0
0
LINE
5
607
100
AcDbEntity
8
0
100
AcDbLine
10
-126.35140280993808
20
44.939379512247271
30
0
11
-126.16619124682772
21
44.886463653024862
31
0
0
LINE
5
608
100
AcDbEntity
8
0
100
AcDbLine
10
-126.16619124682772
20
44.886463653024862
30
0
11
-125.95452780993809
21
44.886463653024862
31
0
0
LINE
5
609
100
AcDbEntity
8
0
100
AcDbLine
10
-125.95452780993809
20
44.886463653024862
30
0
11
-125.71639635038406
21
44.833547793802452
31
0
0
LINE
5
610
100
AcDbEntity
8
0
100
AcDbLine
10
-125.71639635038406
20
44.833547793802452
30
0
11
-125.4518130170507
21
44.833547793802452
31
0
0
LINE
5
611
100
AcDbEntity
8
0
100
AcDbLine
10
-125.4518130170507
20
44.833547793802452
30
0
11
-125.18722968371736
21
44.780631934580043
31
0
0
LINE
5
612
100
AcDbEntity
8
0
100
AcDbLine
10
-125.18722968371736
20
44.780631934580043
30
0
11
-122.75305978727368
21
44.780631934580043
31
0
0
LINE
5
613
100
AcDbEntity
8
0
100
AcDbLine
10
-122.75305978727368
20
44.780631934580043
30
0
11
-122.3297329134944
21
44.860007742024294
31
0
0
LINE
5
614
100
AcDbEntity
8
0
100
AcDbLine
10
-122.3297329134944
20
44.860007742024294
30
0
11
-121.43014312060701
21
44.965839460469113
31
0
0
LINE
5
615
100
AcDbEntity
8
0
100
AcDbLine
10
-121.43014312060701
20
44.965839460469113
30
0
11
-121.19201166105299
21
44.965839460469113
31
0
0
LINE
5
616
100
AcDbEntity
8
0
100
AcDbLine
10
-121.19201166105299
20
44.965839460469113
30
0
11
-121.19201166105299
21
45.018755319691522
31
0
0
LINE
5
617
100
AcDbEntity
8
0
100
AcDbLine
10
-121.19201166105299
20
45.018755319691522
30
0
11
-120.66284499438632
21
46.57979739008033
31
0
0
LINE
5
618
100
AcDbEntity
8
0
100
AcDbLine
10
-120.66284499438632
20
46.57979739008033
30
0
11
-120.82158853483229
21
46.765004915969399
31
0
0
LINE
5
619
100
AcDbEntity
8
0
100
AcDbLine
10
-120.82158853483229
20
46.765004915969399
30
0
11
-121.45659499438634
21
47.400003301080886
31
0
0
LINE
5
620
100
AcDbEntity
8
0
100
AcDbLine
10
-121.45659499438634
20
47.400003301080886
30
0
11
-121.77409822416334
21
47.691046582636062
31
0
0
LINE
5
621
100
AcDbEntity
8
0
100
AcDbLine
10
-121.77409822416334
20
47.691046582636062
30
0
11
-122.06513343127597
21
47.955629915969396
31
0
0
LINE
5
622
100
AcDbEntity
8
0
100
AcDbLine
10
-122.06513343127597
20
47.955629915969396
30
0
11
-122.64720384550124
21
48.431876686192382
31
0
0
LINE
5
623
100
AcDbEntity
8
0
100
AcDbLine
10
-122.64720384550124
20
48.431876686192382
30
0
11
-122.91178717883456
21
48.643544160303307
31
0
0
LINE
5
624
100
AcDbEntity
8
0
100
AcDbLine
10
-122.91178717883456
20
48.643544160303307
30
0
11
-123.44095384550124
21
49.013959212081474
31
0
0
LINE
5
625
100
AcDbEntity
8
0
100
AcDbLine
10
-123.44095384550124
20
49.013959212081474
30
0
11
-123.91721676460929
21
49.331462441858484
31
0
0
LINE
5
626
100
AcDbEntity
8
0
100
AcDbLine
10
-123.91721676460929
20
49.331462441858484
30
0
11
-124.3405436383886
21
49.596045775191811
31
0
0
LINE
5
627
100
AcDbEntity
8
0
100
AcDbLine
10
-124.3405436383886
20
49.596045775191811
30
0
11
-124.7109667646093
21
49.807709212081463
31
0
0
LINE
5
628
100
AcDbEntity
8
0
100
AcDbLine
10
-124.7109667646093
20
49.807709212081463
30
0
11
-124.86971030505526
21
49.88708501952572
31
0
0
LINE
5
629
100
AcDbEntity
8
0
100
AcDbLine
10
-124.86971030505526
20
49.88708501952572
30
0
11
-125.00200197172192
21
49.966460826969978
31
0
0
LINE
5
630
100
AcDbEntity
8
0
100
AcDbLine
10
-125.00200197172192
20
49.966460826969978
30
0
11
-125.1342936383886
21
50.019376686192381
31
0
0
LINE
5
631
100
AcDbEntity
8
0
100
AcDbLine
10
-125.1342936383886
20
50.019376686192381
30
0
11
-125.24013343127598
21
50.072292545414797
31
0
0
LINE
5
632
100
AcDbEntity
8
0
100
AcDbLine
10
-125.24013343127598
20
50.072292545414797
30
0
11
-125.34597322416333
21
50.072292545414797
31
0
0
SPLINE
5
633
100
AcDbEntity
8
0
100
AcDbSpline
70
0
71
2
72
6
73
3
74
0
42
0.000000001
43
0.0000000001
44
0.0000000001
40
0
40
0
40
0
40
1
40
1
40
1
10
-125.34597322416333
20
50.072292545414797
30
0
10
-125.34597322416333
20
50.098752493636631
30
0
10
-125.42534499438632
20
50.151668352859048
30
0
0
LINE
5
634
100
AcDbEntity
8
0
100
AcDbLine
10
-125.42534499438632
20
50.151668352859048
30
0
11
-125.5311847872737
21
50.151668352859048
31
0
0
LINE
5
635
100
AcDbEntity
8
0
100
AcDbLine
10
-125.5311847872737
20
50.151668352859048
30
0
11
-124.97556624682773
21
52.506458404637215
31
0
0
LINE
5
636
100
AcDbEntity
8
0
100
AcDbLine
10
-124.97556624682773
20
52.506458404637215
30
0
11
-123.41451812060703
21
52.5064584046372
31
0
0
SPLINE
5
637
100
AcDbEntity
8
0
100
AcDbSpline
70
0
71
2
72
6
73
3
74
0
42
0.000000001
43
0.0000000001
44
0.0000000001
40
0
40
0
40
0
40
1
40
1
40
1
10
-123.41451812060703
20
52.5064584046372
30
0
10
-123.41451812060703
20
52.532918352859056
30
0
10
-123.14993478727368
20
52.532918352859056
30
0
0
LINE
5
638
100
AcDbEntity
8
0
100
AcDbLine
10
-123.14993478727368
20
52.532918352859056
30
0
11
-122.88535145394034
21
52.585834212081465
31
0
0
LINE
5
639
100
AcDbEntity
8
0
100
AcDbLine
10
-122.88535145394034
20
52.585834212081465
30
0
11
-122.59431624682773
21
52.638750071303875
31
0
0
LINE
5
640
100
AcDbEntity
8
0
100
AcDbLine
10
-122.59431624682773
20
52.638750071303875
30
0
11
-121.95930978727368
21
52.744581789748693
31
0
0
LINE
5
641
100
AcDbEntity
8
0
100
AcDbLine
10
-121.95930978727368
20
52.744581789748693
30
0
11
-121.27139958016105
21
52.903333404637209
31
0
0
LINE
5
642
100
AcDbEntity
8
0
100
AcDbLine
10
-121.27139958016105
20
52.903333404637209
30
0
11
-120.90097645394036
21
53.009165123082028
31
0
0
LINE
5
643
100
AcDbEntity
8
0
100
AcDbLine
10
-120.90097645394036
20
53.009165123082028
30
0
11
-120.50410145394036
21
53.114996841526853
31
0
0
LINE
5
644
100
AcDbEntity
8
0
100
AcDbLine
10
-120.50410145394036
20
53.114996841526853
30
0
11
-120.10722645394037
21
53.247288508193535
31
0
0
LINE
5
645
100
AcDbEntity
8
0
100
AcDbLine
10
-120.10722645394037
20
53.247288508193535
30
0
11
-119.68389958016107
21
53.379580174860195
31
0
0
LINE
5
646
100
AcDbEntity
8
0
100
AcDbLine
10
-119.68389958016107
20
53.379580174860195
30
0
11
-119.04890926949213
21
53.617707597192954
31
0
0
LINE
5
647
100
AcDbEntity
8
0
100
AcDbLine
10
-119.04890926949213
20
53.617707597192954
30
0
11
-118.83724583260246
21
55.258123456415369
31
0
0
LINE
5
648
100
AcDbEntity
8
0
100
AcDbLine
10
-118.83724583260246
20
55.258123456415369
30
0
11
-119.02245739571282
21
55.416875071303878
31
0
0
LINE
5
649
100
AcDbEntity
8
0
100
AcDbLine
10
-119.02245739571282
20
55.416875071303878
30
0
11
-119.39288052193351
21
55.681458404637205
31
0
0
LINE
5
650
100
AcDbEntity
8
0
100
AcDbLine
10
-119.39288052193351
20
55.681458404637205
30
0
11
-119.76330364815422
21
55.919581789748705
31
0
0
LINE
5
651
100
AcDbEntity
8
0
100
AcDbLine
10
-119.76330364815422
20
55.919581789748705
30
0
11
-120.13372677437491
21
56.131249263859615
31
0
0
LINE
5
652
100
AcDbEntity
8
0
100
AcDbLine
10
-120.13372677437491
20
56.131249263859615
30
0
11
-120.47768187793125
21
56.34291673797054
31
0
0
LINE
5
653
100
AcDbEntity
8
0
100
AcDbLine
10
-120.47768187793125
20
56.34291673797054
30
0
11
-120.82163698148756
21
56.528124263859624
31
0
0
LINE
5
654
100
AcDbEntity
8
0
100
AcDbLine
10
-120.82163698148756
20
56.528124263859624
30
0
11
-121.13914021126459
21
56.7133317897487
31
0
0
LINE
5
655
100
AcDbEntity
8
0
100
AcDbLine
10
-121.13914021126459
20
56.7133317897487
30
0
11
-121.45664344104161
21
56.872083404637209
31
0
0
LINE
5
656
100
AcDbEntity
8
0
100
AcDbLine
10
-121.45664344104161
20
56.872083404637209
30
0
11
-122.03871385526685
21
57.136666737970543
31
0
0
LINE
5
657
100
AcDbEntity
8
0
100
AcDbLine
10
-122.03871385526685
20
57.136666737970543
30
0
11
-122.56788052193352
21
57.348330174860187
31
0
0
LINE
5
658
100
AcDbEntity
8
0
100
AcDbLine
10
-122.56788052193352
20
57.348330174860187
30
0
11
-122.80601198148756
21
57.427705982304438
31
0
0
LINE
5
659
100
AcDbEntity
8
0
100
AcDbLine
10
-122.80601198148756
20
57.427705982304438
30
0
11
-123.22933885526686
21
57.586457597192947
31
0
0
LINE
5
660
100
AcDbEntity
8
0
100
AcDbLine
10
-123.22933885526686
20
57.586457597192947
30
0
11
-123.59976198148756
21
57.69228931563778
31
0
0
LINE
5
661
100
AcDbEntity
8
0
100
AcDbLine
10
-123.59976198148756
20
57.69228931563778
30
0
11
-123.75850552193353
21
57.745205174860189
31
0
0
LINE
5
662
100
AcDbEntity
8
0
100
AcDbLine
10
-123.75850552193353
20
57.745205174860189
30
0
11
-123.89079718860019
21
57.745205174860189
31
0
0
SPLINE
5
663
100
AcDbEntity
8
0
100
AcDbSpline
70
0
71
2
72
6
73
3
74
0
42
0.000000001
43
0.0000000001
44
0.0000000001
40
0
40
0
40
0
40
1
40
1
40
1
10
-123.89079718860019
20
57.745205174860189
30
0
10
-123.89079718860019
20
57.77166512308203
30
0
10
-124.02308885526685
20
57.798121034082605
30
0
0
LINE
5
664
100
AcDbEntity
8
0
100
AcDbLine
10
-124.02308885526685
20
57.798121034082605
30
0
11
-124.34059208504387
21
57.798121034082605
31
0
0
LINE
5
665
100
AcDbEntity
8
0
100
AcDbLine
10
-124.34059208504387
20
57.798121034082605
30
0
11
-124.26122031482089
21
60.179371034082607
31
0
0
LINE
5
666
100
AcDbEntity
8
0
100
AcDbLine
10
-124.26122031482089
20
60.179371034082607
30
0
11
-123.8114254183772
21
60.179371034082607
31
0
0
SPLINE
5
667
100
AcDbEntity
8
0
100
AcDbSpline
70
0
71
2
72
6
73
3
74
0
42
0.000000001
43
0.0000000001
44
0.0000000001
40
0
40
0
40
0
40
1
40
1
40
1
10
-123.8114254183772
20
60.179371034082607
30
0
10
-123.8114254183772
20
60.205830982304448
30
0
10
-123.67913375171054
20
60.205830982304448
30
0
0
LINE
5
668
100
AcDbEntity
8
0
100
AcDbLine
10
-123.67913375171054
20
60.205830982304448
30
0
11
-123.52039021126457
21
60.258746841526857
31
0
0
LINE
5
669
100
AcDbEntity
8
0
100
AcDbLine
10
-123.52039021126457
20
60.258746841526857
30
0
11
-123.33517864815421
21
60.258746841526857
31
0
0
LINE
5
670
100
AcDbEntity
8
0
100
AcDbLine
10
-123.33517864815421
20
60.258746841526857
30
0
11
-123.14996708504387
21
60.338122648971108
31
0
0
LINE
5
671
100
AcDbEntity
8
0
100
AcDbLine
10
-123.14996708504387
20
60.338122648971108
30
0
11
-122.93830364815422
21
60.391038508193525
31
0
0
LINE
5
672
100
AcDbEntity
8
0
100
AcDbLine
10
-122.93830364815422
20
60.391038508193525
30
0
11
-122.70017218860019
21
60.443954367415941
31
0
0
LINE
5
673
100
AcDbEntity
8
0
100
AcDbLine
10
-122.70017218860019
20
60.443954367415941
30
0
11
-122.46204072904617
21
60.523330174860192
31
0
0
LINE
5
674
100
AcDbEntity
8
0
100
AcDbLine
10
-122.46204072904617
20
60.523330174860192
30
0
11
-122.1974573957128
21
60.602705982304443
31
0
0
LINE
5
675
100
AcDbEntity
8
0
100
AcDbLine
10
-122.1974573957128
20
60.602705982304443
30
0
11
-121.93287406237948
21
60.708537700749268
31
0
0
LINE
5
676
100
AcDbEntity
8
0
100
AcDbLine
10
-121.93287406237948
20
60.708537700749268
30
0
11
-121.64183885526684
21
60.814369419194094
31
0
0
LINE
5
677
100
AcDbEntity
8
0
100
AcDbLine
10
-121.64183885526684
20
60.814369419194094
30
0
11
-121.00683239571282
21
61.078952752527435
31
0
0
LINE
5
678
100
AcDbEntity
8
0
100
AcDbLine
10
-121.00683239571282
20
61.078952752527435
30
0
11
-120.3189221886002
21
61.396455982304445
31
0
0
LINE
5
679
100
AcDbEntity
8
0
100
AcDbLine
10
-120.3189221886002
20
61.396455982304445
30
0
11
-119.5780759361588
21
61.766871034082612
31
0
0
LINE
5
680
100
AcDbEntity
8
0
100
AcDbLine
10
-119.5780759361588
20
61.766871034082612
30
0
11
-119.18120093615877
21
61.978538508193523
31
0
0
LINE
5
681
100
AcDbEntity
8
0
100
AcDbLine
10
-119.18120093615877
20
61.978538508193523
30
0
11
-118.78432593615878
21
62.216661893305016
31
0
0
LINE
5
682
100
AcDbEntity
8
0
100
AcDbLine
10
-118.78432593615878
20
62.216661893305016
30
0
11
-118.57266249926914
21
62.348953559971683
31
0
0
LINE
5
683
100
AcDbEntity
8
0
100
AcDbLine
10
-118.57266249926914
20
62.348953559971683
30
0
11
-118.67850229215651
21
63.989369419194098
31
0
0
LINE
5
684
100
AcDbEntity
8
0
100
AcDbLine
10
-118.67850229215651
20
63.989369419194098
30
0
11
-118.89016572904615
21
64.095201137638909
31
0
0
LINE
5
685
100
AcDbEntity
8
0
100
AcDbLine
10
-118.89016572904615
20
64.095201137638909
30
0
11
-119.31349260282543
21
64.280408663528007
31
0
0
LINE
5
686
100
AcDbEntity
8
0
100
AcDbLine
10
-119.31349260282543
20
64.280408663528007
30
0
11
-120.10724260282544
21
64.59791189330501
31
0
0
LINE
5
687
100
AcDbEntity
8
0
100
AcDbLine
10
-120.10724260282544
20
64.59791189330501
30
0
11
-120.84808885526685
21
64.862495226638359
31
0
0
LINE
5
688
100
AcDbEntity
8
0
100
AcDbLine
10
-120.84808885526685
20
64.862495226638359
30
0
11
-121.53599906237949
21
65.074158663527996
31
0
0
LINE
5
689
100
AcDbEntity
8
0
100
AcDbLine
10
-121.53599906237949
20
65.074158663527996
30
0
11
-121.85350229215651
21
65.153534470972247
31
0
0
LINE
5
690
100
AcDbEntity
8
0
100
AcDbLine
10
-121.85350229215651
20
65.153534470972247
30
0
11
-122.14453749926915
21
65.232910278416497
31
0
0
LINE
5
691
100
AcDbEntity
8
0
100
AcDbLine
10
-122.14453749926915
20
65.232910278416497
30
0
11
-122.43557270638176
21
65.285826137638907
31
0
0
LINE
5
692
100
AcDbEntity
8
0
100
AcDbLine
10
-122.43557270638176
20
65.285826137638907
30
0
11
-122.7001560397151
21
65.33874199686133
31
0
0
LINE
5
693
100
AcDbEntity
8
0
100
AcDbLine
10
-122.7001560397151
20
65.33874199686133
30
0
11
-122.93828749926914
21
65.391657856083739
31
0
0
LINE
5
694
100
AcDbEntity
8
0
100
AcDbLine
10
-122.93828749926914
20
65.391657856083739
30
0
11
-123.17641895882316
21
65.391657856083739
31
0
0
LINE
5
695
100
AcDbEntity
8
0
100
AcDbLine
10
-123.17641895882316
20
65.391657856083739
30
0
11
-123.3880823957128
21
65.444573715306149
31
0
0
LINE
5
696
100
AcDbEntity
8
0
100
AcDbLine
10
-123.3880823957128
20
65.444573715306149
30
0
11
-124.49933562548983
21
65.444573715306149
31
0
0
LINE
5
697
100
AcDbEntity
8
0
100
AcDbLine
10
-124.49933562548983
20
65.444573715306149
30
0
11
-124.89621062548983
21
67.799363767084316
31
0
0
LINE
5
698
100
AcDbEntity
8
0
100
AcDbLine
10
-124.89621062548983
20
67.799363767084316
30
0
11
-124.79037083260246
21
67.799363767084316
31
0
0
LINE
5
699
100
AcDbEntity
8
0
100
AcDbLine
10
-124.79037083260246
20
67.799363767084316
30
0
11
-124.7109990623795
21
67.852279626306725
31
0
0
LINE
5
700
100
AcDbEntity
8
0
100
AcDbLine
10
-124.7109990623795
20
67.852279626306725
30
0
11
-124.60515926949212
21
67.852279626306725
31
0
0
SPLINE
5
701
100
AcDbEntity
8
0
100
AcDbSpline
70
0
71
2
72
6
73
3
74
0
42
0.000000001
43
0.0000000001
44
0.0000000001
40
0
40
0
40
0
40
1
40
1
40
1
10
-124.60515926949212
20
67.852279626306725
30
0
10
-124.60515926949212
20
67.878739574528566
30
0
10
-124.49931947660474
20
67.931655433750976
30
0
0
LINE
5
702
100
AcDbEntity
8
0
100
AcDbLine
10
-124.49931947660474
20
67.931655433750976
30
0
11
-124.36702780993807
21
67.984571292973385
31
0
0
LINE
5
703
100
AcDbEntity
8
0
100
AcDbLine
10
-124.36702780993807
20
67.984571292973385
30
0
11
-124.20828426949211
21
68.037487152195808
31
0
0
LINE
5
704
100
AcDbEntity
8
0
100
AcDbLine
10
-124.20828426949211
20
68.037487152195808
30
0
11
-124.04954072904616
21
68.116862959640059
31
0
0
LINE
5
705
100
AcDbEntity
8
0
100
AcDbLine
10
-124.04954072904616
20
68.116862959640059
30
0
11
-123.8643291659358
21
68.19623876708431
31
0
0
LINE
5
706
100
AcDbEntity
8
0
100
AcDbLine
10
-123.8643291659358
20
68.19623876708431
30
0
11
-123.67911760282546
21
68.302070485529129
31
0
0
LINE
5
707
100
AcDbEntity
8
0
100
AcDbLine
10
-123.67911760282546
20
68.302070485529129
30
0
11
-123.46745416593579
21
68.407902203973961
31
0
0
LINE
5
708
100
AcDbEntity
8
0
100
AcDbLine
10
-123.46745416593579
20
68.407902203973961
30
0
11
-123.25579072904615
21
68.540193870640636
31
0
0
LINE
5
709
100
AcDbEntity
8
0
100
AcDbLine
10
-123.25579072904615
20
68.540193870640636
30
0
11
-123.01765926949213
21
68.672485537307296
31
0
0
LINE
5
710
100
AcDbEntity
8
0
100
AcDbLine
10
-123.01765926949213
20
68.672485537307296
30
0
11
-122.77952780993809
21
68.831237152195811
31
0
0
LINE
5
711
100
AcDbEntity
8
0
100
AcDbLine
10
-122.77952780993809
20
68.831237152195811
30
0
11
-122.51494447660474
21
68.989988767084313
31
0
0
LINE
5
712
100
AcDbEntity
8
0
100
AcDbLine
10
-122.51494447660474
20
68.989988767084313
30
0
11
-122.25036114327141
21
69.175196292973396
31
0
0
LINE
5
713
100
AcDbEntity
8
0
100
AcDbLine
10
-122.25036114327141
20
69.175196292973396
30
0
11
-121.95932593615878
21
69.360403818862466
31
0
0
LINE
5
714
100
AcDbEntity
8
0
100
AcDbLine
10
-121.95932593615878
20
69.360403818862466
30
0
11
-121.66829072904613
21
69.572071292973391
31
0
0
LINE
5
715
100
AcDbEntity
8
0
100
AcDbLine
10
-121.66829072904613
20
69.572071292973391
30
0
11
-121.03328426949211
21
70.048318063196376
31
0
0
LINE
5
716
100
AcDbEntity
8
0
100
AcDbLine
10
-121.03328426949211
20
70.048318063196376
30
0
11
-120.7157810397151
21
70.312901396529696
31
0
0
LINE
5
717
100
AcDbEntity
8
0
100
AcDbLine
10
-120.7157810397151
20
70.312901396529696
30
0
11
-120.37182593615879
21
70.603944678084872
31
0
0
LINE
5
718
100
AcDbEntity
8
0
100
AcDbLine
10
-120.37182593615879
20
70.603944678084872
30
0
11
-120.02787083260246
21
70.92144387064063
31
0
0
LINE
5
719
100
AcDbEntity
8
0
100
AcDbLine
10
-120.02787083260246
20
70.92144387064063
30
0
11
-119.84265926949212
21
71.080195485529146
31
0
0
LINE
5
720
100
AcDbEntity
8
0
100
AcDbLine
10
-119.84265926949212
20
71.080195485529146
30
0
11
-120.26598614327141
21
72.667695485529137
31
0
0
LINE
5
721
100
AcDbEntity
8
0
100
AcDbLine
10
-120.26598614327141
20
72.667695485529137
30
0
11
-120.50411760282543
21
72.720611344751546
31
0
0
LINE
5
722
100
AcDbEntity
8
0
100
AcDbLine
10
-120.50411760282543
20
72.720611344751546
30
0
11
-120.95391249926914
21
72.826443063196379
31
0
0
LINE
5
723
100
AcDbEntity
8
0
100
AcDbLine
10
-120.95391249926914
20
72.826443063196379
30
0
11
-121.80056624682771
21
72.985194678084881
31
0
0
LINE
5
724
100
AcDbEntity
8
0
100
AcDbLine
10
-121.80056624682771
20
72.985194678084881
30
0
11
-122.19744124682771
21
73.03811053730729
31
0
0
LINE
5
725
100
AcDbEntity
8
0
100
AcDbLine
10
-122.19744124682771
20
73.03811053730729
30
0
11
-122.56786437304842
21
73.091026396529713
31
0
0
LINE
5
726
100
AcDbEntity
8
0
100
AcDbLine
10
-122.56786437304842
20
73.091026396529713
30
0
11
-122.93828749926914
21
73.091026396529713
31
0
0
SPLINE
5
727
100
AcDbEntity
8
0
100
AcDbSpline
70
0
71
2
72
6
73
3
74
0
42
0.000000001
43
0.0000000001
44
0.0000000001
40
0
40
0
40
0
40
1
40
1
40
1
10
-122.93828749926914
20
73.091026396529713
30
0
10
-122.93828749926914
20
73.117486344751541
30
0
10
-123.28224260282545
20
73.143942255752123
30
0
0
LINE
5
728
100
AcDbEntity
8
0
100
AcDbLine
10
-123.28224260282545
20
73.143942255752123
30
0
11
-123.91724906237948
21
73.143942255752123
31
0
0
SPLINE
5
729
100
AcDbEntity
8
0
100
AcDbSpline
70
0
71
2
72
6
73
3
74
0
42
0.000000001
43
0.0000000001
44
0.0000000001
40
0
40
0
40
0
40
1
40
1
40
1
10
-123.91724906237948
20
73.143942255752123
30
0
10
-123.91724906237948
20
73.170402203973964
30
0
10
-124.20828426949213
20
73.170402203973964
30
0
0
LINE
5
730
100
AcDbEntity
8
0
100
AcDbLine
10
-124.20828426949213
20
73.170402203973964
30
0
11
-125.37245739571281
21
73.170402203973964
31
0
0
SPLINE
5
731
100
AcDbEntity
8
0
100
AcDbSpline
70
0
71
2
72
6
73
3
74
0
42
0.000000001
43
0.0000000001
44
0.0000000001
40
0
40
0
40
0
40
1
40
1
40
1
10
-125.37245739571281
20
73.170402203973964
30
0
10
-125.37245739571281
20
73.143942255752123
30
0
10
-125.55766895882316
20
73.143942255752123
30
0
0
LINE
5
732
100
AcDbEntity
8
0
100
AcDbLine
10
-125.55766895882316
20
73.143942255752123
30
0
11
-125.71641249926913
21
73.091026396529713
31
0
0
LINE
5
733
100
AcDbEntity
8
0
100
AcDbLine
10
-125.71641249926913
20
73.091026396529713
30
0
11
-125.8487041659358
21
73.091026396529713
31
0
0
LINE
5
734
100
AcDbEntity
8
0
100
AcDbLine
10
-125.8487041659358
20
73.091026396529713
30
0
11
-125.98099583260247
21
73.03811053730729
31
0
0
LINE
5
735
100
AcDbEntity
8
0
100
AcDbLine
10
-125.98099583260247
20
73.03811053730729
30
0
11
-126.08683562548984
21
73.03811053730729
31
0
0
LINE
5
736
100
AcDbEntity
8
0
100
AcDbLine
10
-126.08683562548984
20
73.03811053730729
30
0
11
-126.16620739571282
21
72.985194678084881
31
0
0
LINE
5
737
100
AcDbEntity
8
0
100
AcDbLine
10
-126.16620739571282
20
72.985194678084881
30
0
11
-126.2720471886002
21
72.985194678084881
31
0
0
SPLINE
5
738
100
AcDbEntity
8
0
100
AcDbSpline
70
0
71
2
72
6
73
3
74
0
42
0.000000001
43
0.0000000001
44
0.0000000001
40
0
40
0
40
0
40
1
40
1
40
1
10
-126.2720471886002
20
72.985194678084881
30
0
10
-126.2720471886002
20
72.958734729863039
30
0
10
-127.11871708504388
20
75.181237152195806
30
0
0
LINE
5
739
100
AcDbEntity
8
0
100
AcDbLine
10
-127.11871708504388
20
75.181237152195806
30
0
11
-127.0128772921565
21
75.181237152195806
31
0
0
SPLINE
5
740
100
AcDbEntity
8
0
100
AcDbSpline
70
0
71
2
72
6
73
3
74
0
42
0.000000001
43
0.0000000001
44
0.0000000001
40
0
40
0
40
0
40
1
40
1
40
1
10
-127.0128772921565
20
75.181237152195806
30
0
10
-127.0128772921565
20
75.207697100417647
30
0
10
-126.93350552193351
20
75.260612959640056
30
0
0
LINE
5
741
100
AcDbEntity
8
0
100
AcDbLine
10
-126.93350552193351
20
75.260612959640056
30
0
11
-126.85413375171053
21
75.313528818862466
31
0
0
LINE
5
742
100
AcDbEntity
8
0
100
AcDbLine
10
-126.85413375171053
20
75.313528818862466
30
0
11
-126.74829395882315
21
75.366444678084875
31
0
0
LINE
5
743
100
AcDbEntity
8
0
100
AcDbLine
10
-126.74829395882315
20
75.366444678084875
30
0
11
-126.48371062548983
21
75.525196292973391
31
0
0
LINE
5
744
100
AcDbEntity
8
0
100
AcDbLine
10
-126.48371062548983
20
75.525196292973391
30
0
11
-126.16622354459791
21
75.736859729863042
31
0
0
LINE
5
745
100
AcDbEntity
8
0
100
AcDbLine
10
-126.16622354459791
20
75.736859729863042
30
0
11
-125.79580041837721
21
76.001443063196376
31
0
0
LINE
5
746
100
AcDbEntity
8
0
100
AcDbLine
10
-125.79580041837721
20
76.001443063196376
30
0
11
-125.61058885526685
21
76.160194678084878
31
0
0
LINE
5
747
100
AcDbEntity
8
0
100
AcDbLine
10
-125.61058885526685
20
76.160194678084878
30
0
11
-125.18726198148755
21
76.530609729863045
31
0
0
LINE
5
748
100
AcDbEntity
8
0
100
AcDbLine
10
-125.18726198148755
20
76.530609729863045
30
0
11
-124.94913052193353
21
76.742277203973956
31
0
0
LINE
5
749
100
AcDbEntity
8
0
100
AcDbLine
10
-124.94913052193353
20
76.742277203973956
30
0
11
-124.47286760282545
21
77.218523974196941
31
0
0
LINE
5
750
100
AcDbEntity
8
0
100
AcDbLine
10
-124.47286760282545
20
77.218523974196941
30
0
11
-124.23473614327142
21
77.483107307530275
31
0
0
LINE
5
751
100
AcDbEntity
8
0
100
AcDbLine
10
-124.23473614327142
20
77.483107307530275
30
0
11
-123.97015280993807
21
77.774150589085451
31
0
0
LINE
5
752
100
AcDbEntity
8
0
100
AcDbLine
10
-123.97015280993807
20
77.774150589085451
30
0
11
-123.4409861432714
21
78.409148974196938
31
0
0
LINE
5
753
100
AcDbEntity
8
0
100
AcDbLine
10
-123.4409861432714
20
78.409148974196938
30
0
11
-123.17640280993807
21
78.753108114974538
31
0
0
LINE
5
754
100
AcDbEntity
8
0
100
AcDbLine
10
-123.17640280993807
20
78.753108114974538
30
0
11
-122.77952780993807
21
79.308730692641774
31
0
0
SPLINE
5
755
100
AcDbEntity
8
0
100
AcDbSpline
70
0
71
2
72
6
73
3
74
0
42
0.000000001
43
0.0000000001
44
0.0000000001
40
0
40
0
40
0
40
1
40
1
40
1
10
-122.77952780993807
20
79.308730692641774
30
0
10
-122.77952780993807
20
79.335190640863615
30
0
10
-123.52035791349439
20
80.816858922418788
30
0
0
LINE
5
756
100
AcDbEntity
8
0
100
AcDbLine
10
-123.52035791349439
20
80.816858922418788
30
0
11
-125.87515603971509
21
80.816858922418788
31
0
0
SPLINE
5
757
100
AcDbEntity
8
0
100
AcDbSpline
70
0
71
2
72
6
73
3
74
0
42
0.000000001
43
0.0000000001
44
0.0000000001
40
0
40
0
40
0
40
1
40
1
40
1
10
-125.87515603971509
20
80.816858922418788
30
0
10
-125.87515603971509
20
80.790398974196933
30
0
10
-126.24557916593579
20
80.763939025975091
30
0
0
LINE
5
758
100
AcDbEntity
8
0
100
AcDbLine
10
-126.24557916593579
20
80.763939025975105
30
0
11
-126.58953426949211
21
80.711019129531408
31
0
0
LINE
5
759
100
AcDbEntity
8
0
100
AcDbLine
10
-126.58953426949211
20
80.711019129531408
30
0
11
-127.22454072904614
21
80.605179336644028
31
0
0
LINE
5
760
100
AcDbEntity
8
0
100
AcDbLine
10
-127.22454072904614
20
80.605179336644028
30
0
11
-127.51557593615878
21
80.552259440200345
31
0
0
LINE
5
761
100
AcDbEntity
8
0
100
AcDbLine
10
-127.51557593615878
20
80.552259440200345
30
0
11
-127.78015926949212
21
80.499339543756676
31
0
0
LINE
5
762
100
AcDbEntity
8
0
100
AcDbLine
10
-127.78015926949212
20
80.499339543756676
30
0
11
-128.2564221886002
21
80.393499750869324
31
0
0
LINE
5
763
100
AcDbEntity
8
0
100
AcDbLine
10
-128.2564221886002
20
80.393499750869324
30
0
11
-128.46808562548983
21
80.340579854425613
31
0
0
LINE
5
764
100
AcDbEntity
8
0
100
AcDbLine
10
-128.46808562548983
20
80.340579854425613
30
0
11
-128.65329718860016
21
80.28765995798193
31
0
0
LINE
5
765
100
AcDbEntity
8
0
100
AcDbLine
10
-128.65329718860016
20
80.28765995798193
30
0
11
-128.9707842694921
21
80.181820165094564
31
0
0
LINE
5
766
100
AcDbEntity
8
0
100
AcDbLine
10
-128.9707842694921
20
80.181820165094564
30
0
11
-129.10307593615877
21
80.128900268650881
31
0
0
LINE
5
767
100
AcDbEntity
8
0
100
AcDbLine
10
-129.10307593615877
20
80.128900268650881
30
0
11
-129.31475552193353
21
80.023060475763515
31
0
0
LINE
5
768
100
AcDbEntity
8
0
100
AcDbLine
10
-129.31475552193353
20
80.023060475763515
30
0
11
-129.3941272921565
21
80.023060475763515
31
0
0
SPLINE
5
769
100
AcDbEntity
8
0
100
AcDbSpline
70
0
71
2
72
6
73
3
74
0
42
0.000000001
43
0.0000000001
44
0.0000000001
40
0
40
0
40
0
40
1
40
1
40
1
10
-129.3941272921565
20
80.023060475763515
30
0
10
-129.3941272921565
20
79.996600527541673
30
0
10
-129.44704718860018
20
79.970140579319832
30
0
0
LINE
5
770
100
AcDbEntity
8
0
100
AcDbLine
10
-129.44704718860018
20
79.970140579319818
30
0
11
-129.49996708504386
21
79.970140579319832
31
0
0
LINE
5
771
100
AcDbEntity
8
0
100
AcDbLine
10
-129.49996708504386
20
79.970140579319832
30
0
11
-130.76996385526684
21
82.007435475763515
31
0
0
LINE
5
772
100
AcDbEntity
8
0
100
AcDbLine
10
-130.76996385526684
20
82.007435475763515
30
0
11
-130.71704395882318
21
82.086807245986506
31
0
0
LINE
5
773
100
AcDbEntity
8
0
100
AcDbLine
10
-130.71704395882318
20
82.086807245986506
30
0
11
-130.63767218860019
21
82.139727142430203
31
0
0
LINE
5
774
100
AcDbEntity
8
0
100
AcDbLine
10
-130.63767218860019
20
82.139727142430203
30
0
11
-130.47892864815424
21
82.298470682876143
31
0
0
LINE
5
775
100
AcDbEntity
8
0
100
AcDbLine
10
-130.47892864815424
20
82.298470682876143
30
0
11
-130.26724906237948
21
82.510134119765794
31
0
0
LINE
5
776
100
AcDbEntity
8
0
100
AcDbLine
10
-130.26724906237948
20
82.510134119765794
30
0
11
-130.00266572904616
21
82.774717453099129
31
0
0
LINE
5
777
100
AcDbEntity
8
0
100
AcDbLine
10
-130.00266572904616
20
82.774717453099129
30
0
11
-129.87037406237948
21
82.93346906798763
31
0
0
LINE
5
778
100
AcDbEntity
8
0
100
AcDbLine
10
-129.87037406237948
20
82.93346906798763
30
0
11
-129.55288698148757
21
83.303892194208345
31
0
0
LINE
5
779
100
AcDbEntity
8
0
100
AcDbLine
10
-129.55288698148757
20
83.303892194208345
30
0
11
-129.39414344104159
21
83.515555631097982
31
0
0
LINE
5
780
100
AcDbEntity
8
0
100
AcDbLine
10
-129.39414344104159
20
83.515555631097982
30
0
11
-129.20893187793124
21
83.753679016209475
31
0
0
LINE
5
781
100
AcDbEntity
8
0
100
AcDbLine
10
-129.20893187793124
20
83.753679016209475
30
0
11
-128.83850875171055
21
84.282845682876115
31
0
0
LINE
5
782
100
AcDbEntity
8
0
100
AcDbLine
10
-128.83850875171055
20
84.282845682876115
30
0
11
-128.65329718860019
21
84.573888964431319
31
0
0
LINE
5
783
100
AcDbEntity
8
0
100
AcDbLine
10
-128.65329718860019
20
84.573888964431319
30
0
11
-128.28287406237948
21
85.208895423985354
31
0
0
LINE
5
784
100
AcDbEntity
8
0
100
AcDbLine
10
-128.28287406237948
20
85.208895423985354
30
0
11
-128.09766249926912
21
85.552850527541651
31
0
0
LINE
5
785
100
AcDbEntity
8
0
100
AcDbLine
10
-128.09766249926912
20
85.552850527541651
30
0
11
-127.88599906237948
21
85.923265579319832
31
0
0
LINE
5
786
100
AcDbEntity
8
0
100
AcDbLine
10
-127.88599906237948
20
85.923265579319832
30
0
11
-127.67433562548985
21
86.32014057931984
31
0
0
LINE
5
787
100
AcDbEntity
8
0
100
AcDbLine
10
-127.67433562548985
20
86.32014057931984
30
0
11
-127.46267218860019
21
86.743475527541676
31
0
0
LINE
5
788
100
AcDbEntity
8
0
100
AcDbLine
10
-127.46267218860019
20
86.743475527541676
30
0
11
-127.35683239571281
21
86.955138964431313
31
0
0
SPLINE
5
789
100
AcDbEntity
8
0
100
AcDbSpline
70
0
71
2
72
6
73
3
74
0
42
0.000000001
43
0.0000000001
44
0.0000000001
40
0
40
0
40
0
40
1
40
1
40
1
10
-127.35683239571281
20
86.955138964431313
30
0
10
-127.35683239571281
20
86.981598912653169
30
0
10
-128.36224583260247
20
88.304515579319826
30
0
0
LINE
5
790
100
AcDbEntity
8
0
100
AcDbLine
10
-128.36224583260247
20
88.304515579319826
30
0
11
-128.60037729215651
21
88.251595682876143
31
0
0
LINE
5
791
100
AcDbEntity
8
0
100
AcDbLine
10
-128.60037729215651
20
88.251595682876143
30
0
11
-129.05017218860019
21
88.172223912653152
31
0
0
LINE
5
792
100
AcDbEntity
8
0
100
AcDbLine
10
-129.05017218860019
20
88.172223912653152
30
0
11
-129.47349906237949
21
88.092852142430189
31
0
0
LINE
5
793
100
AcDbEntity
8
0
100
AcDbLine
10
-129.47349906237949
20
88.092852142430189
30
0
11
-129.89682593615876
21
87.987020423985371
31
0
0
LINE
5
794
100
AcDbEntity
8
0
100
AcDbLine
10
-129.89682593615876
20
87.987020423985371
30
0
11
-130.29370093615879
21
87.881188705540524
31
0
0
LINE
5
795
100
AcDbEntity
8
0
100
AcDbLine
10
-130.29370093615879
20
87.881188705540524
30
0
11
-130.66412406237947
21
87.775356987095719
31
0
0
LINE
5
796
100
AcDbEntity
8
0
100
AcDbLine
10
-130.66412406237947
20
87.775356987095719
30
0
11
-131.00807916593578
21
87.669525268650858
31
0
0
LINE
5
797
100
AcDbEntity
8
0
100
AcDbLine
10
-131.00807916593578
20
87.669525268650858
30
0
11
-131.64308562548985
21
87.457861831761235
31
0
0
LINE
5
798
100
AcDbEntity
8
0
100
AcDbLine
10
-131.64308562548985
20
87.457861831761235
30
0
11
-131.93412083260247
21
87.352030113316417
31
0
0
LINE
5
799
100
AcDbEntity
8
0
100
AcDbLine
10
-131.93412083260247
20
87.352030113316417
30
0
11
-132.19870416593582
21
87.246198394871584
31
0
0
LINE
5
800
100
AcDbEntity
8
0
100
AcDbLine
10
-132.19870416593582
20
87.246198394871584
30
0
11
-132.67496708504387
21
87.034534957981933
31
0
0
LINE
5
801
100
AcDbEntity
8
0
100
AcDbLine
10
-132.67496708504387
20
87.034534957981933
30
0
11
-132.88663052193351
21
86.928703239537114
31
0
0
LINE
5
802
100
AcDbEntity
8
0
100
AcDbLine
10
-132.88663052193351
20
86.928703239537114
30
0
11
-133.25705364815423
21
86.717039802647491
31
0
0
LINE
5
803
100
AcDbEntity
8
0
100
AcDbLine
10
-133.25705364815423
20
86.717039802647491
30
0
11
-133.41579718860015
21
86.6376680324245
31
0
0
LINE
5
804
100
AcDbEntity
8
0
100
AcDbLine
10
-133.41579718860015
20
86.6376680324245
30
0
11
-133.6803805219335
21
86.478924491978532
31
0
0
LINE
5
805
100
AcDbEntity
8
0
100
AcDbLine
10
-133.6803805219335
20
86.478924491978532
30
0
11
-133.78622031482084
21
86.399552721755526
31
0
0
LINE
5
806
100
AcDbEntity
8
0
100
AcDbLine
10
-133.78622031482084
20
86.399552721755526
30
0
11
-133.94496385526685
21
86.29371292886816
31
0
0
LINE
5
807
100
AcDbEntity
8
0
100
AcDbLine
10
-133.94496385526685
20
86.29371292886816
30
0
11
-133.99788375171053
21
86.240793032424463
31
0
0
LINE
5
808
100
AcDbEntity
8
0
100
AcDbLine
10
-133.99788375171053
20
86.240793032424463
30
0
11
-135.63830364815419
21
87.960584699091157
31
0
0
SPLINE
5
809
100
AcDbEntity
8
0
100
AcDbSpline
70
0
71
2
72
6
73
3
74
0
42
0.000000001
43
0.0000000001
44
0.0000000001
40
0
40
0
40
0
40
1
40
1
40
1
10
-135.63830364815419
20
87.960584699091157
30
0
10
-135.63830364815419
20
87.987044647312999
30
0
10
-135.58538375171054
20
88.039956469314134
30
0
0
LINE
5
810
100
AcDbEntity
8
0
100
AcDbLine
10
-135.58538375171054
20
88.03995646931412
30
0
11
-135.53246385526683
21
88.092876365757817
31
0
0
LINE
5
811
100
AcDbEntity
8
0
100
AcDbLine
10
-135.53246385526683
20
88.092876365757817
30
0
11
-135.47954395882314
21
88.172248135980794
31
0
0
LINE
5
812
100
AcDbEntity
8
0
100
AcDbLine
10
-135.47954395882314
20
88.172248135980794
30
0
11
-135.32080041837719
21
88.38391157287046
31
0
0
LINE
5
813
100
AcDbEntity
8
0
100
AcDbLine
10
-135.32080041837719
20
88.38391157287046
30
0
11
-135.2414286481542
21
88.516203239537134
31
0
0
LINE
5
814
100
AcDbEntity
8
0
100
AcDbLine
10
-135.2414286481542
20
88.516203239537134
30
0
11
-135.02974906237949
21
88.833706469314137
31
0
0
LINE
5
815
100
AcDbEntity
8
0
100
AcDbLine
10
-135.02974906237949
20
88.833706469314137
30
0
11
-134.9239092694921
21
89.018918032424494
31
0
0
LINE
5
816
100
AcDbEntity
8
0
100
AcDbLine
10
-134.9239092694921
20
89.018918032424494
30
0
11
-134.81806947660473
21
89.230581469314131
31
0
0
LINE
5
817
100
AcDbEntity
8
0
100
AcDbLine
10
-134.81806947660473
20
89.230581469314131
30
0
11
-134.68577780993809
21
89.442244906203783
31
0
0
LINE
5
818
100
AcDbEntity
8
0
100
AcDbLine
10
-134.68577780993809
20
89.442244906203783
30
0
11
-134.55348614327139
21
89.680368291315276
31
0
0
LINE
5
819
100
AcDbEntity
8
0
100
AcDbLine
10
-134.55348614327139
20
89.680368291315276
30
0
11
-134.42119447660474
21
89.94495162464861
31
0
0
LINE
5
820
100
AcDbEntity
8
0
100
AcDbLine
10
-134.42119447660474
20
89.94495162464861
30
0
11
-134.15661114327139
21
90.527038187758961
31
0
0
LINE
5
821
100
AcDbEntity
8
0
100
AcDbLine
10
-134.15661114327139
20
90.527038187758961
30
0
11
-134.02431947660475
21
90.844541417535993
31
0
0
LINE
5
822
100
AcDbEntity
8
0
100
AcDbLine
10
-134.02431947660475
20
90.844541417535993
30
0
11
-133.89202780993804
21
91.188496521092304
31
0
0
LINE
5
823
100
AcDbEntity
8
0
100
AcDbLine
10
-133.89202780993804
20
91.188496521092304
30
0
11
-133.62744447660475
21
91.929326624648624
31
0
0
LINE
5
824
100
AcDbEntity
8
0
100
AcDbLine
10
-133.62744447660475
20
91.929326624648624
30
0
11
-133.49515280993808
21
92.326201624648604
31
0
0
LINE
5
825
100
AcDbEntity
8
0
100
AcDbLine
10
-133.49515280993808
20
92.326201624648604
30
0
11
-133.3628611432714
21
92.74953657287044
31
0
0
LINE
5
826
100
AcDbEntity
8
0
100
AcDbLine
10
-133.3628611432714
20
92.74953657287044
30
0
11
-133.25702135038404
21
93.199331469314131
31
0
0
LINE
5
827
100
AcDbEntity
8
0
100
AcDbLine
10
-133.25702135038404
20
93.199331469314131
30
0
11
-133.20410145394038
21
93.437454854425624
31
0
0
LINE
5
828
100
AcDbEntity
8
0
100
AcDbLine
10
-133.20410145394038
20
93.437454854425624
30
0
11
-134.44764635038405
21
94.548708084202644
31
0
0
LINE
5
829
100
AcDbEntity
8
0
100
AcDbLine
10
-134.44764635038405
20
94.548708084202644
30
0
11
-134.65930978727368
21
94.442876365757812
31
0
0
LINE
5
830
100
AcDbEntity
8
0
100
AcDbLine
10
-134.65930978727368
20
94.442876365757812
30
0
11
-135.08263666105296
21
94.28412475086931
31
0
0
LINE
5
831
100
AcDbEntity
8
0
100
AcDbLine
10
-135.08263666105296
20
94.28412475086931
30
0
11
-135.87638666105295
21
93.91370162464861
31
0
0
LINE
5
832
100
AcDbEntity
8
0
100
AcDbLine
10
-135.87638666105295
20
93.91370162464861
30
0
11
-136.24680978727366
21
93.728490061538267
31
0
0
LINE
5
833
100
AcDbEntity
8
0
100
AcDbLine
10
-136.24680978727366
20
93.728490061538267
30
0
11
-136.59076489083003
21
93.54327849842791
31
0
0
LINE
5
834
100
AcDbEntity
8
0
100
AcDbLine
10
-136.59076489083003
20
93.54327849842791
30
0
11
-136.90826812060698
21
93.358066935317538
31
0
0
LINE
5
835
100
AcDbEntity
8
0
100
AcDbLine
10
-136.90826812060698
20
93.358066935317538
30
0
11
-137.49033853483226
21
93.040563705540535
31
0
0
LINE
5
836
100
AcDbEntity
8
0
100
AcDbLine
10
-137.49033853483226
20
93.040563705540535
30
0
11
-137.75492186816561
21
92.881812090652033
31
0
0
LINE
5
837
100
AcDbEntity
8
0
100
AcDbLine
10
-137.75492186816561
20
92.881812090652033
30
0
11
-137.99305332771965
21
92.723060475763518
31
0
0
LINE
5
838
100
AcDbEntity
8
0
100
AcDbLine
10
-137.99305332771965
20
92.723060475763518
30
0
11
-138.41638020149895
21
92.4055572459865
31
0
0
LINE
5
839
100
AcDbEntity
8
0
100
AcDbLine
10
-138.41638020149895
20
92.4055572459865
30
0
11
-138.60159176460928
21
92.273265579319826
31
0
0
LINE
5
840
100
AcDbEntity
8
0
100
AcDbLine
10
-138.60159176460928
20
92.273265579319826
30
0
11
-138.91907884550119
21
92.008682245986492
31
0
0
LINE
5
841
100
AcDbEntity
8
0
100
AcDbLine
10
-138.91907884550119
20
92.008682245986492
30
0
11
-139.18366217883454
21
91.797018809096841
31
0
0
LINE
5
842
100
AcDbEntity
8
0
100
AcDbLine
10
-139.18366217883454
20
91.797018809096841
30
0
11
-139.2895019717219
21
91.691187090652022
31
0
0
LINE
5
843
100
AcDbEntity
8
0
100
AcDbLine
10
-139.2895019717219
20
91.691187090652022
30
0
11
-139.55408530505525
21
91.426603757318674
31
0
0
LINE
5
844
100
AcDbEntity
8
0
100
AcDbLine
10
-139.55408530505525
20
91.426603757318674
30
0
11
-141.48554040861157
21
92.802440320429042
31
0
0
LINE
5
845
100
AcDbEntity
8
0
100
AcDbLine
10
-141.48554040861157
20
92.802440320429042
30
0
11
-141.48554040861157
21
92.908272038873875
31
0
0
LINE
5
846
100
AcDbEntity
8
0
100
AcDbLine
10
-141.48554040861157
20
92.908272038873875
30
0
11
-141.40616863838858
21
92.987643809096852
31
0
0
LINE
5
847
100
AcDbEntity
8
0
100
AcDbLine
10
-141.40616863838858
20
92.987643809096852
30
0
11
-141.30032884550118
21
93.199307245986489
31
0
0
LINE
5
848
100
AcDbEntity
8
0
100
AcDbLine
10
-141.30032884550118
20
93.199307245986489
30
0
11
-141.24740894905753
21
93.331598912653163
31
0
0
LINE
5
849
100
AcDbEntity
8
0
100
AcDbLine
10
-141.24740894905753
20
93.331598912653163
30
0
11
-141.19448905261382
21
93.490350527541665
31
0
0
LINE
5
850
100
AcDbEntity
8
0
100
AcDbLine
10
-141.19448905261382
20
93.490350527541665
30
0
11
-141.11511728239083
21
93.649102142430181
31
0
0
LINE
5
851
100
AcDbEntity
8
0
100
AcDbLine
10
-141.11511728239083
20
93.649102142430181
30
0
11
-141.03574551216786
21
93.834313705540524
31
0
0
LINE
5
852
100
AcDbEntity
8
0
100
AcDbLine
10
-141.03574551216786
20
93.834313705540524
30
0
11
-140.87700197172188
21
94.257640579319826
31
0
0
LINE
5
853
100
AcDbEntity
8
0
100
AcDbLine
10
-140.87700197172188
20
94.257640579319826
30
0
11
-140.79763020149895
21
94.495763964431333
31
0
0
LINE
5
854
100
AcDbEntity
8
0
100
AcDbLine
10
-140.79763020149895
20
94.495763964431333
30
0
11
-140.71825843127596
21
94.760347297764667
31
0
0
LINE
5
855
100
AcDbEntity
8
0
100
AcDbLine
10
-140.71825843127596
20
94.760347297764667
30
0
11
-140.55951489082997
21
95.342433860874991
31
0
0
LINE
5
856
100
AcDbEntity
8
0
100
AcDbLine
10
-140.55951489082997
20
95.342433860874991
30
0
11
-140.48014312060701
21
95.659937090652036
31
0
0
LINE
5
857
100
AcDbEntity
8
0
100
AcDbLine
10
-140.48014312060701
20
95.659937090652036
30
0
11
-140.4272232241633
21
96.003892194208333
31
0
0
LINE
5
858
100
AcDbEntity
8
0
100
AcDbLine
10
-140.4272232241633
20
96.003892194208333
30
0
11
-140.32138343127596
21
96.744722297764667
31
0
0
LINE
5
859
100
AcDbEntity
8
0
100
AcDbLine
10
-140.32138343127596
20
96.744722297764667
30
0
11
-140.26846353483225
21
97.141597297764662
31
0
0
LINE
5
860
100
AcDbEntity
8
0
100
AcDbLine
10
-140.26846353483225
20
97.141597297764662
30
0
11
-140.21554363838857
21
97.564932245986498
31
0
0
LINE
5
861
100
AcDbEntity
8
0
100
AcDbLine
10
-140.21554363838857
20
97.564932245986498
30
0
11
-140.2155436383886
21
98.014727142430189
31
0
0
LINE
5
862
100
AcDbEntity
8
0
100
AcDbLine
10
-140.2155436383886
20
98.014727142430189
30
0
11
-140.16262374194491
21
98.464522038873881
31
0
0
LINE
5
863
100
AcDbEntity
8
0
100
AcDbLine
10
-140.16262374194491
20
98.464522038873881
30
0
11
-140.16262374194491
21
98.702645423985359
31
0
0
SPLINE
5
864
100
AcDbEntity
8
0
100
AcDbSpline
70
0
71
2
72
6
73
3
74
0
42
0.000000001
43
0.0000000001
44
0.0000000001
40
0
40
0
40
0
40
1
40
1
40
1
10
-140.16262374194491
20
98.702645423985359
30
0
10
-140.16262374194491
20
98.729105372207201
30
0
10
-141.59138020149894
20
99.549315320429045
30
0
0
LINE
5
865
100
AcDbEntity
8
0
100
AcDbLine
10
-141.59138020149894
20
99.549315320429031
30
0
11
-141.80304363838857
21
99.417023653762371
31
0
0
LINE
5
866
100
AcDbEntity
8
0
100
AcDbLine
10
-141.80304363838857
20
99.417023653762371
30
0
11
-142.19991863838857
21
99.178900268650878
31
0
0
LINE
5
867
100
AcDbEntity
8
0
100
AcDbLine
10
-142.19991863838857
20
99.178900268650878
30
0
11
-142.57034176460928
21
98.940776883539385
31
0
0
LINE
5
868
100
AcDbEntity
8
0
100
AcDbLine
10
-142.57034176460928
20
98.940776883539385
30
0
11
-142.91429686816565
21
98.702653498427907
31
0
0
LINE
5
869
100
AcDbEntity
8
0
100
AcDbLine
10
-142.91429686816565
20
98.702653498427907
30
0
11
-143.2318000979426
21
98.464530113316414
31
0
0
LINE
5
870
100
AcDbEntity
8
0
100
AcDbLine
10
-143.2318000979426
20
98.464530113316414
30
0
11
-143.81387051216788
21
97.988283343093428
31
0
0
LINE
5
871
100
AcDbEntity
8
0
100
AcDbLine
10
-143.81387051216788
20
97.988283343093428
30
0
11
-144.0784538455012
21
97.750159957981936
31
0
0
LINE
5
872
100
AcDbEntity
8
0
100
AcDbLine
10
-144.0784538455012
20
97.750159957981936
30
0
11
-144.55471676460931
21
97.326833084202647
31
0
0
LINE
5
873
100
AcDbEntity
8
0
100
AcDbLine
10
-144.55471676460931
20
97.326833084202647
30
0
11
-145.13680332771963
21
96.744746521092281
31
0
0
LINE
5
874
100
AcDbEntity
8
0
100
AcDbLine
10
-145.13680332771963
20
96.744746521092281
30
0
11
-145.29554686816562
21
96.559534957981938
31
0
0
LINE
5
875
100
AcDbEntity
8
0
100
AcDbLine
10
-145.29554686816562
20
96.559534957981938
30
0
11
-145.56013020149891
21
96.242031728204935
31
0
0
LINE
5
876
100
AcDbEntity
8
0
100
AcDbLine
10
-145.56013020149891
20
96.242031728204935
30
0
11
-145.77180978727367
21
95.977448394871601
31
0
0
LINE
5
877
100
AcDbEntity
8
0
100
AcDbLine
10
-145.77180978727367
20
95.977448394871601
30
0
11
-145.93055332771965
21
95.76578495798195
31
0
0
LINE
5
878
100
AcDbEntity
8
0
100
AcDbLine
10
-145.93055332771965
20
95.76578495798195
30
0
11
-146.03639312060704
21
95.607041417535982
31
0
0
LINE
5
879
100
AcDbEntity
8
0
100
AcDbLine
10
-146.03639312060704
20
95.607041417535982
30
0
11
-146.03639312060699
21
95.554121521092299
31
0
0
LINE
5
880
100
AcDbEntity
8
0
100
AcDbLine
10
-146.03639312060699
20
95.554121521092299
30
0
11
-146.0893130170507
21
95.501201624648616
31
0
0
LINE
5
881
100
AcDbEntity
8
0
100
AcDbLine
10
-146.0893130170507
20
95.501201624648616
30
0
11
-148.25889958016106
21
96.480163187758961
31
0
0
LINE
5
882
100
AcDbEntity
8
0
100
AcDbLine
10
-148.25889958016106
20
96.480163187758961
30
0
11
-148.25889958016106
21
96.58599490620378
31
0
0
LINE
5
883
100
AcDbEntity
8
0
100
AcDbLine
10
-148.25889958016106
20
96.58599490620378
30
0
11
-148.20597968371737
21
96.665366676426757
31
0
0
LINE
5
884
100
AcDbEntity
8
0
100
AcDbLine
10
-148.20597968371737
20
96.665366676426757
30
0
11
-148.20597968371737
21
96.77119839487159
31
0
0
LINE
5
885
100
AcDbEntity
8
0
100
AcDbLine
10
-148.20597968371737
20
96.77119839487159
30
0
11
-148.15305978727366
21
96.877030113316408
31
0
0
LINE
5
886
100
AcDbEntity
8
0
100
AcDbLine
10
-148.15305978727366
20
96.877030113316408
30
0
11
-148.15305978727366
21
97.009321779983082
31
0
0
LINE
5
887
100
AcDbEntity
8
0
100
AcDbLine
10
-148.15305978727366
20
97.009321779983082
30
0
11
-148.10013989082995
21
97.168073394871584
31
0
0
LINE
5
888
100
AcDbEntity
8
0
100
AcDbLine
10
-148.10013989082995
20
97.168073394871584
30
0
11
-148.10013989083001
21
97.353284957981941
31
0
0
LINE
5
889
100
AcDbEntity
8
0
100
AcDbLine
10
-148.10013989083001
20
97.353284957981941
30
0
11
-148.0472199943863
21
97.538496521092299
31
0
0
LINE
5
890
100
AcDbEntity
8
0
100
AcDbLine
10
-148.0472199943863
20
97.538496521092299
30
0
11
-148.0472199943863
21
97.750159957981936
31
0
0
LINE
5
891
100
AcDbEntity
8
0
100
AcDbLine
10
-148.0472199943863
20
97.750159957981936
30
0
11
-147.99430009794261
21
97.988283343093428
31
0
0
LINE
5
892
100
AcDbEntity
8
0
100
AcDbLine
10
-147.99430009794261
20
97.988283343093428
30
0
11
-147.99430009794261
21
98.252866676426777
31
0
0
LINE
5
893
100
AcDbEntity
8
0
100
AcDbLine
10
-147.99430009794261
20
98.252866676426777
30
0
11
-147.9413802014989
21
98.517450009760111
31
0
0
LINE
5
894
100
AcDbEntity
8
0
100
AcDbLine
10
-147.9413802014989
20
98.517450009760111
30
0
11
-147.94138020149893
21
100.95161990620377
31
0
0
LINE
5
895
100
AcDbEntity
8
0
100
AcDbLine
10
-147.94138020149893
20
100.95161990620377
30
0
11
-148.02075197172195
21
101.37495485442562
31
0
0
LINE
5
896
100
AcDbEntity
8
0
100
AcDbLine
10
-148.02075197172195
20
101.37495485442562
30
0
11
-148.12659176460929
21
102.27454464731301
31
0
0
LINE
5
897
100
AcDbEntity
8
0
100
AcDbLine
10
-148.12659176460929
20
102.27454464731301
30
0
11
-148.12659176460929
21
102.5126680324245
31
0
0
LINE
5
898
100
AcDbEntity
8
0
100
AcDbLine
10
-148.12659176460929
20
102.5126680324245
30
0
11
-148.17951166105297
21
102.51266803242447
31
0
0
SPLINE
5
899
100
AcDbEntity
8
0
100
AcDbSpline
70
0
71
2
72
6
73
3
74
0
42
0.000000001
43
0.0000000001
44
0.0000000001
40
0
40
0
40
0
40
1
40
1
40
1
10
-148.17951166105297
20
102.51266803242447
30
0
10
-148.17951166105297
20
102.53912798064633
30
0
10
-149.74055978727367
20
103.068294647313
30
0
0
LINE
5
900
100
AcDbEntity
8
0
100
AcDbLine
10
-149.74055978727367
20
103.068294647313
30
0
11
-149.89930332771962
21
102.88308308420264
31
0
0
LINE
5
901
100
AcDbEntity
8
0
100
AcDbLine
10
-149.89930332771962
20
102.88308308420264
30
0
11
-150.53430978727366
21
102.2480766246486
31
0
0
LINE
5
902
100
AcDbEntity
8
0
100
AcDbLine
10
-150.53430978727366
20
102.2480766246486
30
0
11
-150.82534499438628
21
101.93057339487157
31
0
0
LINE
5
903
100
AcDbEntity
8
0
100
AcDbLine
10
-150.82534499438628
20
101.93057339487157
30
0
11
-151.08992832771963
21
101.63953011331643
31
0
0
LINE
5
904
100
AcDbEntity
8
0
100
AcDbLine
10
-151.08992832771963
20
101.63953011331643
30
0
11
-151.56619124682774
21
101.05744355020606
31
0
0
LINE
5
905
100
AcDbEntity
8
0
100
AcDbLine
10
-151.56619124682774
20
101.05744355020606
30
0
11
-151.77785468371735
21
100.79286021687273
31
0
0
LINE
5
906
100
AcDbEntity
8
0
100
AcDbLine
10
-151.77785468371735
20
100.79286021687273
30
0
11
-152.14827780993807
21
100.26369355020606
31
0
0
LINE
5
907
100
AcDbEntity
8
0
100
AcDbLine
10
-152.14827780993807
20
100.26369355020606
30
0
11
-152.46576489082997
21
99.787446779983071
31
0
0
LINE
5
908
100
AcDbEntity
8
0
100
AcDbLine
10
-152.46576489082997
20
99.787446779983071
30
0
11
-152.73034822416332
21
99.364119906203783
31
0
0
LINE
5
909
100
AcDbEntity
8
0
100
AcDbLine
10
-152.73034822416332
20
99.364119906203783
30
0
11
-152.94202780993805
21
98.993696779983082
31
0
0
LINE
5
910
100
AcDbEntity
8
0
100
AcDbLine
10
-152.94202780993805
20
98.993696779983082
30
0
11
-153.02139958016107
21
98.834945165094581
31
0
0
LINE
5
911
100
AcDbEntity
8
0
100
AcDbLine
10
-153.02139958016107
20
98.834945165094581
30
0
11
-153.10077135038404
21
98.702653498427892
31
0
0
LINE
5
912
100
AcDbEntity
8
0
100
AcDbLine
10
-153.10077135038404
20
98.702653498427892
30
0
11
-153.15369124682772
21
98.570361831761232
31
0
0
LINE
5
913
100
AcDbEntity
8
0
100
AcDbLine
10
-153.15369124682772
20
98.570361831761232
30
0
11
-153.2066111432714
21
98.464530113316414
31
0
0
LINE
5
914
100
AcDbEntity
8
0
100
AcDbLine
10
-153.2066111432714
20
98.464530113316414
30
0
11
-153.2066111432714
21
98.358698394871595
31
0
0
LINE
5
915
100
AcDbEntity
8
0
100
AcDbLine
10
-153.2066111432714
20
98.358698394871595
30
0
11
-153.28598291349439
21
98.279326624648618
31
0
0
LINE
5
916
100
AcDbEntity
8
0
100
AcDbLine
10
-153.28598291349439
20
98.279326624648618
30
0
11
-153.28598291349437
21
98.173494906203786
31
0
0
LINE
5
917
100
AcDbEntity
8
0
100
AcDbLine
10
-153.28598291349437
20
98.173494906203786
30
0
11
-155.61431301705068
21
98.729121521092296
31
0
0
LINE
5
918
100
AcDbEntity
8
0
100
AcDbLine
10
-155.61431301705068
20
98.729121521092296
30
0
11
-155.6143130170507
21
100.55474490620378
31
0
0
LINE
5
919
100
AcDbEntity
8
0
100
AcDbLine
10
-155.6143130170507
20
100.55474490620378
30
0
11
-155.66723291349439
21
100.81932823953713
31
0
0
LINE
5
920
100
AcDbEntity
8
0
100
AcDbLine
10
-155.66723291349439
20
100.81932823953713
30
0
11
-155.72015280993807
21
101.1103715210923
31
0
0
LINE
5
921
100
AcDbEntity
8
0
100
AcDbLine
10
-155.72015280993807
20
101.1103715210923
30
0
11
-155.82599260282547
21
101.74537798064634
31
0
0
LINE
5
922
100
AcDbEntity
8
0
100
AcDbLine
10
-155.82599260282547
20
101.74537798064634
30
0
11
-155.98473614327139
21
102.43328818775895
31
0
0
LINE
5
923
100
AcDbEntity
8
0
100
AcDbLine
10
-155.98473614327139
20
102.43328818775895
30
0
11
-156.09057593615876
21
102.80370323953713
31
0
0
LINE
5
924
100
AcDbEntity
8
0
100
AcDbLine
10
-156.09057593615876
20
102.80370323953713
30
0
11
-156.19641572904612
21
103.20057823953711
31
0
0
LINE
5
925
100
AcDbEntity
8
0
100
AcDbLine
10
-156.19641572904612
20
103.20057823953711
30
0
11
-156.32870739571277
21
103.59745323953712
31
0
0
LINE
5
926
100
AcDbEntity
8
0
100
AcDbLine
10
-156.32870739571277
20
103.59745323953712
30
0
11
-156.46099906237947
21
104.02078818775897
31
0
0
LINE
5
927
100
AcDbEntity
8
0
100
AcDbLine
10
-156.46099906237947
20
104.02078818775897
30
0
11
-156.6197426028254
21
104.4441231359808
31
0
0
LINE
5
928
100
AcDbEntity
8
0
100
AcDbLine
10
-156.6197426028254
20
104.4441231359808
30
0
11
-156.69911437304842
21
104.65578657287045
31
0
0
SPLINE
5
929
100
AcDbEntity
8
0
100
AcDbSpline
70
0
71
2
72
6
73
3
74
0
42
0.000000001
43
0.0000000001
44
0.0000000001
40
0
40
0
40
0
40
1
40
1
40
1
10
-156.69911437304842
20
104.65578657287045
30
0
10
-156.69911437304842
20
104.6822465210923
30
0
10
-158.33953426949211
20
104.89390995798195
30
0
0
LINE
5
930
100
AcDbEntity
8
0
100
AcDbLine
10
-158.33953426949211
20
104.89390995798195
30
0
11
-158.47182593615878
21
104.6822465210923
31
0
0
LINE
5
931
100
AcDbEntity
8
0
100
AcDbLine
10
-158.47182593615878
20
104.6822465210923
30
0
11
-158.7364092694921
21
104.31183146931414
31
0
0
LINE
5
932
100
AcDbEntity
8
0
100
AcDbLine
10
-158.7364092694921
20
104.31183146931414
30
0
11
-158.97454072904617
21
103.94141641753598
31
0
0
LINE
5
933
100
AcDbEntity
8
0
100
AcDbLine
10
-158.97454072904617
20
103.94141641753598
30
0
11
-159.18620416593581
21
103.57100136575781
31
0
0
LINE
5
934
100
AcDbEntity
8
0
100
AcDbLine
10
-159.18620416593581
20
103.57100136575781
30
0
11
-159.39786760282544
21
103.22704626220151
31
0
0
LINE
5
935
100
AcDbEntity
8
0
100
AcDbLine
10
-159.39786760282544
20
103.22704626220151
30
0
11
-159.5830791659358
21
102.8830911586452
31
0
0
LINE
5
936
100
AcDbEntity
8
0
100
AcDbLine
10
-159.5830791659358
20
102.8830911586452
30
0
11
-159.76829072904616
21
102.56558792886818
31
0
0
LINE
5
937
100
AcDbEntity
8
0
100
AcDbLine
10
-159.76829072904616
20
102.56558792886818
30
0
11
-159.92703426949208
21
102.24808469909115
31
0
0
LINE
5
938
100
AcDbEntity
8
0
100
AcDbLine
10
-159.92703426949208
20
102.24808469909115
30
0
11
-160.19161760282543
21
101.66599813598081
31
0
0
LINE
5
939
100
AcDbEntity
8
0
100
AcDbLine
10
-160.19161760282543
20
101.66599813598081
30
0
11
-160.40329718860016
21
101.13683146931413
31
0
0
LINE
5
940
100
AcDbEntity
8
0
100
AcDbLine
10
-160.40329718860016
20
101.13683146931413
30
0
11
-160.48266895882318
21
100.89870808420264
31
0
0
LINE
5
941
100
AcDbEntity
8
0
100
AcDbLine
10
-160.48266895882318
20
100.89870808420264
30
0
11
-160.64141249926911
21
100.47538121042335
31
0
0
LINE
5
942
100
AcDbEntity
8
0
100
AcDbLine
10
-160.64141249926911
20
100.47538121042335
30
0
11
-160.74725229215653
21
100.10495808420265
31
0
0
LINE
5
943
100
AcDbEntity
8
0
100
AcDbLine
10
-160.74725229215653
20
100.10495808420265
30
0
11
-160.80017218860019
21
99.946206469314149
31
0
0
LINE
5
944
100
AcDbEntity
8
0
100
AcDbLine
10
-160.80017218860019
20
99.946206469314149
30
0
11
-160.80017218860019
21
99.81391480264746
31
0
0
LINE
5
945
100
AcDbEntity
8
0
100
AcDbLine
10
-160.80017218860019
20
99.81391480264746
30
0
11
-160.85309208504387
21
99.6816231359808
31
0
0
LINE
5
946
100
AcDbEntity
8
0
100
AcDbLine
10
-160.85309208504387
20
99.6816231359808
30
0
11
-160.85309208504387
21
99.364119906203783
31
0
0
LINE
5
947
100
AcDbEntity
8
0
100
AcDbLine
10
-160.85309208504387
20
99.364119906203783
30
0
11
-163.23434208504386
21
99.44349167642676
31
0
0
LINE
5
948
100
AcDbEntity
8
0
100
AcDbLine
10
-163.23434208504386
20
99.44349167642676
30
0
11
-163.23434208504383
21
100.02557823953711
31
0
0
LINE
5
949
100
AcDbEntity
8
0
100
AcDbLine
10
-163.23434208504383
20
100.02557823953711
30
0
11
-163.28726198148755
21
100.18432985442561
31
0
0
LINE
5
950
100
AcDbEntity
8
0
100
AcDbLine
10
-163.28726198148755
20
100.18432985442561
30
0
11
-163.28726198148755
21
100.36954141753597
31
0
0
LINE
5
951
100
AcDbEntity
8
0
100
AcDbLine
10
-163.28726198148755
20
100.36954141753597
30
0
11
-163.36663375171054
21
100.55475298064633
31
0
0
LINE
5
952
100
AcDbEntity
8
0
100
AcDbLine
10
-163.36663375171054
20
100.55475298064633
30
0
11
-163.41955364815422
21
100.76641641753598
31
0
0
LINE
5
953
100
AcDbEntity
8
0
100
AcDbLine
10
-163.41955364815422
20
100.76641641753598
30
0
11
-163.47247354459793
21
101.00453980264747
31
0
0
LINE
5
954
100
AcDbEntity
8
0
100
AcDbLine
10
-163.47247354459793
20
101.00453980264747
30
0
11
-163.55184531482087
21
101.24266318775896
31
0
0
LINE
5
955
100
AcDbEntity
8
0
100
AcDbLine
10
-163.55184531482087
20
101.24266318775896
30
0
11
-163.63121708504389
21
101.50724652109231
31
0
0
LINE
5
956
100
AcDbEntity
8
0
100
AcDbLine
10
-163.63121708504389
20
101.50724652109231
30
0
11
-163.73705687793122
21
101.77182985442563
31
0
0
LINE
5
957
100
AcDbEntity
8
0
100
AcDbLine
10
-163.73705687793122
20
101.77182985442563
30
0
11
-163.84289667081859
21
102.06287313598081
31
0
0
LINE
5
958
100
AcDbEntity
8
0
100
AcDbLine
10
-163.84289667081859
20
102.06287313598081
30
0
11
-164.10748000415194
21
102.69787959553484
31
0
0
LINE
5
959
100
AcDbEntity
8
0
100
AcDbLine
10
-164.10748000415194
20
102.69787959553484
30
0
11
-164.42496708504387
21
103.38578980264748
31
0
0
LINE
5
960
100
AcDbEntity
8
0
100
AcDbLine
10
-164.42496708504387
20
103.38578980264748
30
0
11
-164.79539021126456
21
104.12661990620379
31
0
0
LINE
5
961
100
AcDbEntity
8
0
100
AcDbLine
10
-164.79539021126456
20
104.12661990620379
30
0
11
-165.0070536481542
21
104.52349490620378
31
0
0
LINE
5
962
100
AcDbEntity
8
0
100
AcDbLine
10
-165.0070536481542
20
104.52349490620378
30
0
11
-165.24518510770827
21
104.92036990620377
31
0
0
LINE
5
963
100
AcDbEntity
8
0
100
AcDbLine
10
-165.24518510770827
20
104.92036990620377
30
0
11
-165.37747677437491
21
105.13203334309344
31
0
0
SPLINE
5
964
100
AcDbEntity
8
0
100
AcDbSpline
70
0
71
2
72
6
73
3
74
0
42
0.000000001
43
0.0000000001
44
0.0000000001
40
0
40
0
40
0
40
1
40
1
40
1
10
-165.37747677437491
20
105.13203334309344
30
0
10
-165.37747677437491
20
105.15849329131527
30
0
10
-167.01789667081863
20
105.05266157287045
30
0
0
LINE
5
965
100
AcDbEntity
8
0
100
AcDbLine
10
-167.01789667081863
20
105.05266157287045
30
0
11
-167.12373646370597
21
104.81453818775896
31
0
0
LINE
5
966
100
AcDbEntity
8
0
100
AcDbLine
10
-167.12373646370597
20
104.81453818775896
30
0
11
-167.30894802681632
21
104.39120323953711
31
0
0
LINE
5
967
100
AcDbEntity
8
0
100
AcDbLine
10
-167.30894802681632
20
104.39120323953711
30
0
11
-167.62643510770823
21
103.59745323953712
31
0
0
LINE
5
968
100
AcDbEntity
8
0
100
AcDbLine
10
-167.62643510770823
20
103.59745323953712
30
0
11
-167.89101844104155
21
102.8566231359808
31
0
0
LINE
5
969
100
AcDbEntity
8
0
100
AcDbLine
10
-167.89101844104155
20
102.8566231359808
30
0
11
-168.10269802681631
21
102.16871292886816
31
0
0
LINE
5
970
100
AcDbEntity
8
0
100
AcDbLine
10
-168.10269802681631
20
102.16871292886816
30
0
11
-168.1820697970393
21
101.85120969909114
31
0
0
LINE
5
971
100
AcDbEntity
8
0
100
AcDbLine
10
-168.1820697970393
20
101.85120969909114
30
0
11
-168.2614415672623
21
101.56016641753598
31
0
0
LINE
5
972
100
AcDbEntity
8
0
100
AcDbLine
10
-168.2614415672623
20
101.56016641753598
30
0
11
-168.31436146370601
21
101.26912313598081
31
0
0
LINE
5
973
100
AcDbEntity
8
0
100
AcDbLine
10
-168.31436146370601
20
101.26912313598081
30
0
11
-168.36728136014966
21
101.00453980264746
31
0
0
LINE
5
974
100
AcDbEntity
8
0
100
AcDbLine
10
-168.36728136014966
20
101.00453980264746
30
0
11
-168.42020125659334
21
100.76641641753598
31
0
0
LINE
5
975
100
AcDbEntity
8
0
100
AcDbLine
10
-168.42020125659334
20
100.76641641753598
30
0
11
-168.42020125659334
21
100.52829303242449
31
0
0
LINE
5
976
100
AcDbEntity
8
0
100
AcDbLine
10
-168.42020125659334
20
100.52829303242449
30
0
11
-168.47312115303706
21
100.31662959553485
31
0
0
LINE
5
977
100
AcDbEntity
8
0
100
AcDbLine
10
-168.47312115303706
20
100.31662959553485
30
0
11
-168.47312115303703
21
99.205376365757843
31
0
0
LINE
5
978
100
AcDbEntity
8
0
100
AcDbLine
10
-168.47312115303703
20
99.205376365757843
30
0
11
-170.82791927925771
21
98.80850136575782
31
0
0
LINE
5
979
100
AcDbEntity
8
0
100
AcDbLine
10
-170.82791927925771
20
98.80850136575782
30
0
11
-170.82791927925771
21
98.914333084202639
31
0
0
LINE
5
980
100
AcDbEntity
8
0
100
AcDbLine
10
-170.82791927925771
20
98.914333084202639
30
0
11
-170.88083917570142
21
98.993704854425616
31
0
0
LINE
5
981
100
AcDbEntity
8
0
100
AcDbLine
10
-170.88083917570142
20
98.993704854425616
30
0
11
-170.88083917570142
21
99.099536572870448
31
0
0
LINE
5
982
100
AcDbEntity
8
0
100
AcDbLine
10
-170.88083917570142
20
99.099536572870448
30
0
11
-170.96021094592442
21
99.205368291315267
31
0
0
LINE
5
983
100
AcDbEntity
8
0
100
AcDbLine
10
-170.96021094592442
20
99.205368291315267
30
0
11
-171.0131308423681
21
99.337659957981955
31
0
0
LINE
5
984
100
AcDbEntity
8
0
100
AcDbLine
10
-171.0131308423681
20
99.337659957981955
30
0
11
-171.06605073881178
21
99.496411572870443
31
0
0
LINE
5
985
100
AcDbEntity
8
0
100
AcDbLine
10
-171.06605073881178
20
99.496411572870443
30
0
11
-171.14542250903474
21
99.655163187758959
31
0
0
LINE
5
986
100
AcDbEntity
8
0
100
AcDbLine
10
-171.14542250903474
20
99.655163187758959
30
0
11
-171.22479427925776
21
99.840374750869302
31
0
0
LINE
5
987
100
AcDbEntity
8
0
100
AcDbLine
10
-171.22479427925776
20
99.840374750869302
30
0
11
-171.33063407214507
21
100.02558631397966
31
0
0
LINE
5
988
100
AcDbEntity
8
0
100
AcDbLine
10
-171.33063407214507
20
100.02558631397966
30
0
11
-171.43647386503247
21
100.2372497508693
31
0
0
LINE
5
989
100
AcDbEntity
8
0
100
AcDbLine
10
-171.43647386503247
20
100.2372497508693
30
0
11
-171.56876553169911
21
100.44891318775896
31
0
0
LINE
5
990
100
AcDbEntity
8
0
100
AcDbLine
10
-171.56876553169911
20
100.44891318775896
30
0
11
-171.70105719836579
21
100.68703657287045
31
0
0
LINE
5
991
100
AcDbEntity
8
0
100
AcDbLine
10
-171.70105719836579
20
100.68703657287045
30
0
11
-171.85980073881177
21
100.92515995798195
31
0
0
LINE
5
992
100
AcDbEntity
8
0
100
AcDbLine
10
-171.85980073881177
20
100.92515995798195
30
0
11
-172.0185442792577
21
101.1897432913153
31
0
0
LINE
5
993
100
AcDbEntity
8
0
100
AcDbLine
10
-172.0185442792577
20
101.1897432913153
30
0
11
-172.20375584236808
21
101.45432662464862
31
0
0
LINE
5
994
100
AcDbEntity
8
0
100
AcDbLine
10
-172.20375584236808
20
101.45432662464862
30
0
11
-172.38896740547844
21
101.74536990620379
31
0
0
LINE
5
995
100
AcDbEntity
8
0
100
AcDbLine
10
-172.38896740547844
20
101.74536990620379
30
0
11
-172.60063084236808
21
102.03641318775895
31
0
0
LINE
5
996
100
AcDbEntity
8
0
100
AcDbLine
10
-172.60063084236808
20
102.03641318775895
30
0
11
-173.07689376147619
21
102.671419647313
31
0
0
LINE
5
997
100
AcDbEntity
8
0
100
AcDbLine
10
-173.07689376147619
20
102.671419647313
30
0
11
-173.34147709480948
21
102.98892287709002
31
0
0
LINE
5
998
100
AcDbEntity
8
0
100
AcDbLine
10
-173.34147709480948
20
102.98892287709002
30
0
11
-173.63251230192213
21
103.33287798064633
31
0
0
LINE
5
999
100
AcDbEntity
8
0
100
AcDbLine
10
-173.63251230192213
20
103.33287798064633
30
0
11
-173.95001553169914
21
103.67683308420266
31
0
0
LINE
5
1000
100
AcDbEntity
8
0
100
AcDbLine
10
-173.95001553169914
20
103.67683308420266
30
0
11
-174.10875907214506
21
103.862044647313
31
0
0
LINE
5
1001
100
AcDbEntity
8
0
100
AcDbLine
10
-174.10875907214506
20
103.862044647313
30
0
11
-175.69625907214512
21
103.43870969909116
31
0
0
LINE
5
1002
100
AcDbEntity
8
0
100
AcDbLine
10
-175.69625907214512
20
103.43870969909116
30
0
11
-175.74917896858878
21
103.17412636575781
31
0
0
LINE
5
1003
100
AcDbEntity
8
0
100
AcDbLine
10
-175.74917896858878
20
103.17412636575781
30
0
11
-175.85501876147615
21
102.72433146931412
31
0
0
LINE
5
1004
100
AcDbEntity
8
0
100
AcDbLine
10
-175.85501876147615
20
102.72433146931412
30
0
11
-176.01376230192213
21
101.87766157287045
31
0
0
LINE
5
1005
100
AcDbEntity
8
0
100
AcDbLine
10
-176.01376230192213
20
101.87766157287045
30
0
11
-176.06668219836581
21
101.48078657287046
31
0
0
LINE
5
1006
100
AcDbEntity
8
0
100
AcDbLine
10
-176.06668219836581
20
101.48078657287046
30
0
11
-176.11960209480952
21
101.11037152109228
31
0
0
LINE
5
1007
100
AcDbEntity
8
0
100
AcDbLine
10
-176.11960209480952
20
101.11037152109228
30
0
11
-176.11960209480947
21
100.73995646931414
31
0
0
LINE
5
1008
100
AcDbEntity
8
0
100
AcDbLine
10
-176.11960209480947
20
100.73995646931414
30
0
11
-176.17252199125318
21
100.39600136575783
31
0
0
LINE
5
1009
100
AcDbEntity
8
0
100
AcDbLine
10
-176.17252199125318
20
100.39600136575783
30
0
11
-176.17252199125318
21
98.120583084202636
31
0
0
LINE
5
1010
100
AcDbEntity
8
0
100
AcDbLine
10
-176.17252199125318
20
98.120583084202636
30
0
11
-176.11960209480947
21
97.961831469314134
31
0
0
LINE
5
1011
100
AcDbEntity
8
0
100
AcDbLine
10
-176.11960209480947
20
97.961831469314134
30
0
11
-176.11960209480947
21
97.829539802647474
31
0
0
LINE
5
1012
100
AcDbEntity
8
0
100
AcDbLine
10
-176.11960209480947
20
97.829539802647474
30
0
11
-176.06668219836578
21
97.6972481359808
31
0
0
LINE
5
1013
100
AcDbEntity
8
0
100
AcDbLine
10
-176.06668219836578
20
97.6972481359808
30
0
11
-176.06668219836581
21
97.591416417535982
31
0
0
LINE
5
1014
100
AcDbEntity
8
0
100
AcDbLine
10
-176.06668219836581
20
97.591416417535982
30
0
11
-176.01376230192213
21
97.512044647313004
31
0
0
LINE
5
1015
100
AcDbEntity
8
0
100
AcDbLine
10
-176.01376230192213
20
97.512044647313004
30
0
11
-176.01376230192213
21
97.406212928868172
31
0
0
LINE
5
1016
100
AcDbEntity
8
0
100
AcDbLine
10
-176.01376230192213
20
97.406212928868172
30
0
11
-178.23626876147617
21
96.5595430324245
31
0
0
LINE
5
1017
100
AcDbEntity
8
0
100
AcDbLine
10
-178.23626876147617
20
96.5595430324245
30
0
11
-178.23626876147614
21
96.665374750869319
31
0
0
LINE
5
1018
100
AcDbEntity
8
0
100
AcDbLine
10
-178.23626876147614
20
96.665374750869319
30
0
11
-178.31564053169913
21
96.744746521092281
31
0
0
LINE
5
1019
100
AcDbEntity
8
0
100
AcDbLine
10
-178.31564053169913
20
96.744746521092281
30
0
11
-178.36856042814281
21
96.824118291315258
31
0
0
LINE
5
1020
100
AcDbEntity
8
0
100
AcDbLine
10
-178.36856042814281
20
96.824118291315258
30
0
11
-178.42148032458653
21
96.929950009760105
31
0
0
LINE
5
1021
100
AcDbEntity
8
0
100
AcDbLine
10
-178.42148032458653
20
96.929950009760105
30
0
11
-178.58022386503248
21
97.19453334309344
31
0
0
LINE
5
1022
100
AcDbEntity
8
0
100
AcDbLine
10
-178.58022386503248
20
97.19453334309344
30
0
11
-178.79190345080718
21
97.512036572870443
31
0
0
LINE
5
1023
100
AcDbEntity
8
0
100
AcDbLine
10
-178.79190345080718
20
97.512036572870443
30
0
11
-179.05648678414053
21
97.882459699091143
31
0
0
LINE
5
1024
100
AcDbEntity
8
0
100
AcDbLine
10
-179.05648678414053
20
97.882459699091143
30
0
11
-179.21523032458649
21
98.0676712622015
31
0
0
LINE
5
1025
100
AcDbEntity
8
0
100
AcDbLine
10
-179.21523032458649
20
98.0676712622015
30
0
11
-179.58565345080723
21
98.490998135980803
31
0
0
LINE
5
1026
100
AcDbEntity
8
0
100
AcDbLine
10
-179.58565345080723
20
98.490998135980803
30
0
11
-179.79731688769687
21
98.729121521092296
31
0
0
LINE
5
1027
100
AcDbEntity
8
0
100
AcDbLine
10
-179.79731688769687
20
98.729121521092296
30
0
11
-180.27357980680495
21
99.205368291315281
31
0
0
LINE
5
1028
100
AcDbEntity
8
0
100
AcDbLine
10
-180.27357980680495
20
99.205368291315281
30
0
11
-180.53816314013827
21
99.443491676426774
31
0
0
LINE
5
1029
100
AcDbEntity
8
0
100
AcDbLine
10
-180.53816314013827
20
99.443491676426774
30
0
11
-180.82919834725089
21
99.708075009760108
31
0
0
LINE
5
1030
100
AcDbEntity
8
0
100
AcDbLine
10
-180.82919834725089
20
99.708075009760108
30
0
11
-181.4642048068049
21
100.23724167642678
31
0
0
LINE
5
1031
100
AcDbEntity
8
0
100
AcDbLine
10
-181.4642048068049
20
100.23724167642678
30
0
11
-181.80815991036127
21
100.5018250097601
31
0
0
LINE
5
1032
100
AcDbEntity
8
0
100
AcDbLine
10
-181.80815991036127
20
100.5018250097601
30
0
11
-182.36379459969228
21
100.89870000976009
31
0
0
LINE
5
1033
100
AcDbEntity
8
0
100
AcDbLine
10
-182.36379459969228
20
100.89870000976009
30
0
11
-183.8454548068049
21
100.15786990620379
31
0
0
LINE
5
1034
100
AcDbEntity
8
0
100
AcDbLine
10
-183.8454548068049
20
100.15786990620379
30
0
11
-183.84545480680492
21
97.803079854425633
31
0
0
LINE
5
1035
100
AcDbEntity
8
0
100
AcDbLine
10
-183.84545480680492
20
97.803079854425633
30
0
11
-183.79253491036124
21
97.432664802647452
31
0
0
LINE
5
1036
100
AcDbEntity
8
0
100
AcDbLine
10
-183.79253491036124
20
97.432664802647452
30
0
11
-183.73961501391756
21
97.088709699091154
31
0
0
LINE
5
1037
100
AcDbEntity
8
0
100
AcDbLine
10
-183.73961501391756
20
97.088709699091154
30
0
11
-183.63377522103019
21
96.45370323953712
31
0
0
LINE
5
1038
100
AcDbEntity
8
0
100
AcDbLine
10
-183.63377522103019
20
96.45370323953712
30
0
11
-183.58085532458648
21
96.162659957981944
31
0
0
LINE
5
1039
100
AcDbEntity
8
0
100
AcDbLine
10
-183.58085532458648
20
96.162659957981944
30
0
11
-183.52793542814283
21
95.89807662464861
31
0
0
LINE
5
1040
100
AcDbEntity
8
0
100
AcDbLine
10
-183.52793542814283
20
95.89807662464861
30
0
11
-183.42209563525543
21
95.421829854425624
31
0
0
LINE
5
1041
100
AcDbEntity
8
0
100
AcDbLine
10
-183.42209563525543
20
95.421829854425624
30
0
11
-183.36917573881178
21
95.210166417535973
31
0
0
LINE
5
1042
100
AcDbEntity
8
0
100
AcDbLine
10
-183.36917573881178
20
95.210166417535973
30
0
11
-183.31625584236807
21
95.02495485442563
31
0
0
LINE
5
1043
100
AcDbEntity
8
0
100
AcDbLine
10
-183.31625584236807
20
95.02495485442563
30
0
11
-183.21041604948073
21
94.707451624648627
31
0
0
LINE
5
1044
100
AcDbEntity
8
0
100
AcDbLine
10
-183.21041604948073
20
94.707451624648627
30
0
11
-183.15749615303702
21
94.575159957981924
31
0
0
LINE
5
1045
100
AcDbEntity
8
0
100
AcDbLine
10
-183.15749615303702
20
94.575159957981924
30
0
11
-183.05165636014965
21
94.363496521092287
31
0
0
LINE
5
1046
100
AcDbEntity
8
0
100
AcDbLine
10
-183.05165636014965
20
94.363496521092287
30
0
11
-183.05165636014965
21
94.28412475086931
31
0
0
LINE
5
1047
100
AcDbEntity
8
0
100
AcDbLine
10
-183.05165636014965
20
94.28412475086931
30
0
11
-182.99873646370597
21
94.231204854425641
31
0
0
LINE
5
1048
100
AcDbEntity
8
0
100
AcDbLine
10
-182.99873646370597
20
94.231204854425641
30
0
11
-182.99873646370597
21
94.17828495798193
31
0
0
LINE
5
1049
100
AcDbEntity
8
0
100
AcDbLine
10
-182.99873646370597
20
94.17828495798193
30
0
11
-185.03603136014962
21
92.908288187758956
31
0
0
LINE
5
1050
100
AcDbEntity
8
0
100
AcDbLine
10
-185.03603136014962
20
92.908288187758956
30
0
11
-185.14187115303702
21
93.06703172820491
31
0
0
LINE
5
1051
100
AcDbEntity
8
0
100
AcDbLine
10
-185.14187115303702
20
93.06703172820491
30
0
11
-185.300614693483
21
93.225775268650878
31
0
0
LINE
5
1052
100
AcDbEntity
8
0
100
AcDbLine
10
-185.300614693483
20
93.225775268650878
30
0
11
-185.51229427925773
21
93.437438705540529
31
0
0
LINE
5
1053
100
AcDbEntity
8
0
100
AcDbLine
10
-185.51229427925773
20
93.437438705540529
30
0
11
-185.77687761259108
21
93.702022038873878
31
0
0
LINE
5
1054
100
AcDbEntity
8
0
100
AcDbLine
10
-185.77687761259108
20
93.702022038873878
30
0
11
-185.935621153037
21
93.834313705540524
31
0
0
LINE
5
1055
100
AcDbEntity
8
0
100
AcDbLine
10
-185.935621153037
20
93.834313705540524
30
0
11
-186.30604427925772
21
94.151816935317555
31
0
0
LINE
5
1056
100
AcDbEntity
8
0
100
AcDbLine
10
-186.30604427925772
20
94.151816935317555
30
0
11
-186.51770771614736
21
94.310568550206057
31
0
0
LINE
5
1057
100
AcDbEntity
8
0
100
AcDbLine
10
-186.51770771614736
20
94.310568550206057
30
0
11
-186.75583917570145
21
94.4957801133164
31
0
0
LINE
5
1058
100
AcDbEntity
8
0
100
AcDbLine
10
-186.75583917570145
20
94.4957801133164
30
0
11
-187.28500584236809
21
94.866203239537128
31
0
0
LINE
5
1059
100
AcDbEntity
8
0
100
AcDbLine
10
-187.28500584236809
20
94.866203239537128
30
0
11
-187.57604104948072
21
95.051414802647471
31
0
0
LINE
5
1060
100
AcDbEntity
8
0
100
AcDbLine
10
-187.57604104948072
20
95.051414802647471
30
0
11
-188.21104750903473
21
95.421837928868172
31
0
0
LINE
5
1061
100
AcDbEntity
8
0
100
AcDbLine
10
-188.21104750903473
20
95.421837928868172
30
0
11
-188.5550026125911
21
95.607049491978529
31
0
0
LINE
5
1062
100
AcDbEntity
8
0
100
AcDbLine
10
-188.5550026125911
20
95.607049491978529
30
0
11
-188.92542573881175
21
95.818712928868166
31
0
0
LINE
5
1063
100
AcDbEntity
8
0
100
AcDbLine
10
-188.92542573881175
20
95.818712928868166
30
0
11
-189.32230073881175
21
96.030376365757803
31
0
0
LINE
5
1064
100
AcDbEntity
8
0
100
AcDbLine
10
-189.32230073881175
20
96.030376365757803
30
0
11
-189.95729104948072
21
96.347871521092287
31
0
0
LINE
5
1065
100
AcDbEntity
8
0
100
AcDbLine
10
-189.95729104948072
20
96.347871521092287
30
0
11
-191.2802077161474
21
95.342458084202647
31
0
0
SPLINE
5
1066
100
AcDbEntity
8
0
100
AcDbSpline
70
0
71
2
72
6
73
3
74
0
42
0.000000001
43
0.0000000001
44
0.0000000001
40
0
40
0
40
0
40
1
40
1
40
1
10
-191.2802077161474
20
95.342458084202647
30
0
10
-191.2802077161474
20
95.315998135980792
30
0
10
-191.22728781970369
20
95.077874750869299
30
0
0
LINE
5
1067
100
AcDbEntity
8
0
100
AcDbLine
10
-191.22728781970369
20
95.077874750869299
30
0
11
-191.1479160494807
21
94.628079854425607
31
0
0
LINE
5
1068
100
AcDbEntity
8
0
100
AcDbLine
10
-191.1479160494807
20
94.628079854425607
30
0
11
-191.06854427925771
21
94.204744906203786
31
0
0
LINE
5
1069
100
AcDbEntity
8
0
100
AcDbLine
10
-191.06854427925771
20
94.204744906203786
30
0
11
-190.96270448637034
21
93.781409957981936
31
0
0
LINE
5
1070
100
AcDbEntity
8
0
100
AcDbLine
10
-190.96270448637034
20
93.781409957981936
30
0
11
-190.856864693483
21
93.384534957981941
31
0
0
LINE
5
1071
100
AcDbEntity
8
0
100
AcDbLine
10
-190.856864693483
20
93.384534957981941
30
0
11
-190.75102490059564
21
93.014119906203788
31
0
0
LINE
5
1072
100
AcDbEntity
8
0
100
AcDbLine
10
-190.75102490059564
20
93.014119906203788
30
0
11
-190.64518510770827
21
92.670164802647463
31
0
0
LINE
5
1073
100
AcDbEntity
8
0
100
AcDbLine
10
-190.64518510770827
20
92.670164802647463
30
0
11
-190.43350552193351
21
92.035158343093428
31
0
0
LINE
5
1074
100
AcDbEntity
8
0
100
AcDbLine
10
-190.43350552193351
20
92.035158343093428
30
0
11
-190.32766572904617
21
91.744115061538253
31
0
0
LINE
5
1075
100
AcDbEntity
8
0
100
AcDbLine
10
-190.32766572904617
20
91.744115061538253
30
0
11
-190.22182593615878
21
91.479531728204933
31
0
0
LINE
5
1076
100
AcDbEntity
8
0
100
AcDbLine
10
-190.22182593615878
20
91.479531728204933
30
0
11
-190.01014635038405
21
91.003284957981947
31
0
0
LINE
5
1077
100
AcDbEntity
8
0
100
AcDbLine
10
-190.01014635038405
20
91.003284957981947
30
0
11
-189.90430655749665
21
90.79162152109231
31
0
0
LINE
5
1078
100
AcDbEntity
8
0
100
AcDbLine
10
-189.90430655749665
20
90.79162152109231
30
0
11
-189.69262697172195
21
90.421198394871595
31
0
0
LINE
5
1079
100
AcDbEntity
8
0
100
AcDbLine
10
-189.69262697172195
20
90.421198394871595
30
0
11
-189.61325520149893
21
90.26244677998308
31
0
0
LINE
5
1080
100
AcDbEntity
8
0
100
AcDbLine
10
-189.61325520149893
20
90.26244677998308
30
0
11
-189.45451166105298
21
89.997863446649717
31
0
0
LINE
5
1081
100
AcDbEntity
8
0
100
AcDbLine
10
-189.45451166105298
20
89.997863446649717
30
0
11
-189.37513989082998
21
89.892031728204927
31
0
0
LINE
5
1082
100
AcDbEntity
8
0
100
AcDbLine
10
-189.37513989082998
20
89.892031728204927
30
0
11
-189.26930009794262
21
89.733288187758959
31
0
0
LINE
5
1083
100
AcDbEntity
8
0
100
AcDbLine
10
-189.26930009794262
20
89.733288187758959
30
0
11
-189.21638020149896
21
89.680368291315276
31
0
0
SPLINE
5
1084
100
AcDbEntity
8
0
100
AcDbSpline
70
0
71
2
72
6
73
3
74
0
42
0.000000001
43
0.0000000001
44
0.0000000001
40
0
40
0
40
0
40
1
40
1
40
1
10
-189.21638020149896
20
89.680368291315276
30
0
10
-189.21638020149896
20
89.653908343093434
30
0
10
-190.96262374194492
20
88.013496521092293
30
0
0
LINE
5
1085
100
AcDbEntity
8
0
100
AcDbLine
10
-190.96262374194492
20
88.013496521092293
30
0
11
-191.01554363838861
21
88.092868291315256
31
0
0
LINE
5
1086
100
AcDbEntity
8
0
100
AcDbLine
10
-191.01554363838861
20
88.092868291315256
30
0
11
-191.06846353483229
21
88.145788187758967
31
0
0
LINE
5
1087
100
AcDbEntity
8
0
100
AcDbLine
10
-191.06846353483229
20
88.145788187758967
30
0
11
-191.14783530505525
21
88.19870808420265
31
0
0
LINE
5
1088
100
AcDbEntity
8
0
100
AcDbLine
10
-191.14783530505525
20
88.19870808420265
30
0
11
-191.35951489082998
21
88.357451624648604
31
0
0
LINE
5
1089
100
AcDbEntity
8
0
100
AcDbLine
10
-191.35951489082998
20
88.357451624648604
30
0
11
-191.49180655749663
21
88.436823394871595
31
0
0
LINE
5
1090
100
AcDbEntity
8
0
100
AcDbLine
10
-191.49180655749663
20
88.436823394871595
30
0
11
-191.80929363838857
21
88.648486831761232
31
0
0
LINE
5
1091
100
AcDbEntity
8
0
100
AcDbLine
10
-191.80929363838857
20
88.648486831761232
30
0
11
-191.99450520149895
21
88.754318550206079
31
0
0
LINE
5
1092
100
AcDbEntity
8
0
100
AcDbLine
10
-191.99450520149895
20
88.754318550206079
30
0
11
-192.20616863838859
21
88.860150268650884
31
0
0
LINE
5
1093
100
AcDbEntity
8
0
100
AcDbLine
10
-192.20616863838859
20
88.860150268650884
30
0
11
-192.41783207527823
21
88.992441935317558
31
0
0
LINE
5
1094
100
AcDbEntity
8
0
100
AcDbLine
10
-192.41783207527823
20
88.992441935317558
30
0
11
-192.6559635348323
21
89.124733601984218
31
0
0
LINE
5
1095
100
AcDbEntity
8
0
100
AcDbLine
10
-192.6559635348323
20
89.124733601984218
30
0
11
-192.92054686816562
21
89.257025268650878
31
0
0
LINE
5
1096
100
AcDbEntity
8
0
100
AcDbLine
10
-192.92054686816562
20
89.257025268650878
30
0
11
-193.50261728239087
21
89.521608601984212
31
0
0
LINE
5
1097
100
AcDbEntity
8
0
100
AcDbLine
10
-193.50261728239087
20
89.521608601984212
30
0
11
-193.82012051216788
21
89.653900268650887
31
0
0
LINE
5
1098
100
AcDbEntity
8
0
100
AcDbLine
10
-193.82012051216788
20
89.653900268650887
30
0
11
-194.16407561572424
21
89.786191935317561
31
0
0
LINE
5
1099
100
AcDbEntity
8
0
100
AcDbLine
10
-194.16407561572424
20
89.786191935317561
30
0
11
-194.90492186816562
21
90.050775268650909
31
0
0
LINE
5
1100
100
AcDbEntity
8
0
100
AcDbLine
10
-194.90492186816562
20
90.050775268650909
30
0
11
-195.30179686816558
21
90.183066935317555
31
0
0
LINE
5
1101
100
AcDbEntity
8
0
100
AcDbLine
10
-195.30179686816558
20
90.183066935317555
30
0
11
-195.72512374194488
21
90.315358601984229
31
0
0
LINE
5
1102
100
AcDbEntity
8
0
100
AcDbLine
10
-195.72512374194488
20
90.315358601984229
30
0
11
-196.17491863838862
21
90.421190320429048
31
0
0
LINE
5
1103
100
AcDbEntity
8
0
100
AcDbLine
10
-196.17491863838862
20
90.421190320429048
30
0
11
-196.41305009794263
21
90.474110216872745
31
0
0
LINE
5
1104
100
AcDbEntity
8
0
100
AcDbLine
10
-196.41305009794263
20
90.474110216872745
30
0
11
-197.49783530505525
21
89.230565320429037
31
0
0
LINE
5
1105
100
AcDbEntity
8
0
100
AcDbLine
10
-197.49783530505525
20
89.230565320429037
30
0
11
-197.41846353483226
21
88.992441935317544
31
0
0
LINE
5
1106
100
AcDbEntity
8
0
100
AcDbLine
10
-197.41846353483226
20
88.992441935317544
30
0
11
-197.25971999438633
21
88.569106987095694
31
0
0
LINE
5
1107
100
AcDbEntity
8
0
100
AcDbLine
10
-197.25971999438633
20
88.569106987095694
30
0
11
-196.88929686816562
21
87.775356987095705
31
0
0
LINE
5
1108
100
AcDbEntity
8
0
100
AcDbLine
10
-196.88929686816562
20
87.775356987095705
30
0
11
-196.70408530505526
21
87.404941935317567
31
0
0
LINE
5
1109
100
AcDbEntity
8
0
100
AcDbLine
10
-196.70408530505526
20
87.404941935317567
30
0
11
-196.5188737419449
21
87.060986831761241
31
0
0
LINE
5
1110
100
AcDbEntity
8
0
100
AcDbLine
10
-196.5188737419449
20
87.060986831761241
30
0
11
-196.33366217883457
21
86.743483601984209
31
0
0
LINE
5
1111
100
AcDbEntity
8
0
100
AcDbLine
10
-196.33366217883457
20
86.743483601984209
30
0
11
-196.01617509794264
21
86.161397038873872
31
0
0
LINE
5
1112
100
AcDbEntity
8
0
100
AcDbLine
10
-196.01617509794264
20
86.161397038873872
30
0
11
-195.85743155749668
21
85.896813705540538
31
0
0
LINE
5
1113
100
AcDbEntity
8
0
100
AcDbLine
10
-195.85743155749668
20
85.896813705540538
30
0
11
-195.6986880170507
21
85.658690320429045
31
0
0
LINE
5
1114
100
AcDbEntity
8
0
100
AcDbLine
10
-195.6986880170507
20
85.658690320429045
30
0
11
-195.38120093615879
21
85.235363446649757
31
0
0
LINE
5
1115
100
AcDbEntity
8
0
100
AcDbLine
10
-195.38120093615879
20
85.235363446649757
30
0
11
-195.24890926949212
21
85.050151883539399
31
0
0
LINE
5
1116
100
AcDbEntity
8
0
100
AcDbLine
10
-195.24890926949212
20
85.050151883539399
30
0
11
-194.98432593615877
21
84.732648653762382
31
0
0
LINE
5
1117
100
AcDbEntity
8
0
100
AcDbLine
10
-194.98432593615877
20
84.732648653762382
30
0
11
-194.77264635038406
21
84.468065320429019
31
0
0
LINE
5
1118
100
AcDbEntity
8
0
100
AcDbLine
10
-194.77264635038406
20
84.468065320429019
30
0
11
-194.66680655749667
21
84.362233601984229
31
0
0
LINE
5
1119
100
AcDbEntity
8
0
100
AcDbLine
10
-194.66680655749667
20
84.362233601984229
30
0
11
-194.40222322416332
21
84.097650268650881
31
0
0
SPLINE
5
1120
100
AcDbEntity
8
0
100
AcDbSpline
70
0
71
2
72
6
73
3
74
0
42
0.000000001
43
0.0000000001
44
0.0000000001
40
0
40
0
40
0
40
1
40
1
40
1
10
-194.40222322416332
20
84.097650268650881
30
0
10
-194.40222322416332
20
84.071190320429025
30
0
10
-195.80451166105297
20
82.139735216872722
30
0
0
LINE
5
1121
100
AcDbEntity
8
0
100
AcDbLine
10
-195.80451166105297
20
82.139735216872737
30
0
11
-195.91035145394034
21
82.139735216872722
31
0
0
SPLINE
5
1122
100
AcDbEntity
8
0
100
AcDbSpline
70
0
71
2
72
6
73
3
74
0
42
0.000000001
43
0.0000000001
44
0.0000000001
40
0
40
0
40
0
40
1
40
1
40
1
10
-195.91035145394034
20
82.139735216872722
30
0
10
-195.91035145394034
20
82.166195165094564
30
0
10
-195.98972322416333
20
82.219106987095714
30
0
0
LINE
5
1123
100
AcDbEntity
8
0
100
AcDbLine
10
-195.98972322416333
20
82.219106987095699
30
0
11
-196.20140280993806
21
82.324946779983094
31
0
0
LINE
5
1124
100
AcDbEntity
8
0
100
AcDbLine
10
-196.20140280993806
20
82.324946779983094
30
0
11
-196.33369447660471
21
82.377866676426777
31
0
0
LINE
5
1125
100
AcDbEntity
8
0
100
AcDbLine
10
-196.33369447660471
20
82.377866676426777
30
0
11
-196.49243801705069
21
82.430786572870446
31
0
0
LINE
5
1126
100
AcDbEntity
8
0
100
AcDbLine
10
-196.49243801705069
20
82.430786572870446
30
0
11
-196.65118155749664
21
82.510158343093423
31
0
0
LINE
5
1127
100
AcDbEntity
8
0
100
AcDbLine
10
-196.65118155749664
20
82.510158343093423
30
0
11
-196.83639312060703
21
82.589530113316414
31
0
0
LINE
5
1128
100
AcDbEntity
8
0
100
AcDbLine
10
-196.83639312060703
20
82.589530113316414
30
0
11
-197.2597199943863
21
82.748273653762382
31
0
0
LINE
5
1129
100
AcDbEntity
8
0
100
AcDbLine
10
-197.2597199943863
20
82.748273653762382
30
0
11
-197.49785145394037
21
82.827645423985359
31
0
0
LINE
5
1130
100
AcDbEntity
8
0
100
AcDbLine
10
-197.49785145394037
20
82.827645423985359
30
0
11
-197.76243478727369
21
82.90701719420835
31
0
0
LINE
5
1131
100
AcDbEntity
8
0
100
AcDbLine
10
-197.76243478727369
20
82.90701719420835
30
0
11
-198.34450520149892
21
83.06576073465429
31
0
0
LINE
5
1132
100
AcDbEntity
8
0
100
AcDbLine
10
-198.34450520149892
20
83.06576073465429
30
0
11
-198.66200843127592
21
83.145132504877282
31
0
0
LINE
5
1133
100
AcDbEntity
8
0
100
AcDbLine
10
-198.66200843127592
20
83.145132504877282
30
0
11
-199.00596353483229
21
83.198052401320979
31
0
0
LINE
5
1134
100
AcDbEntity
8
0
100
AcDbLine
10
-199.00596353483229
20
83.198052401320979
30
0
11
-199.74680978727366
21
83.303892194208345
31
0
0
LINE
5
1135
100
AcDbEntity
8
0
100
AcDbLine
10
-199.74680978727366
20
83.303892194208345
30
0
11
-200.14368478727366
21
83.356812090652028
31
0
0
LINE
5
1136
100
AcDbEntity
8
0
100
AcDbLine
10
-200.14368478727366
20
83.356812090652028
30
0
11
-200.56701166105299
21
83.409731987095739
31
0
0
LINE
5
1137
100
AcDbEntity
8
0
100
AcDbLine
10
-200.56701166105299
20
83.409731987095739
30
0
11
-201.01680655749669
21
83.409731987095697
31
0
0
SPLINE
5
1138
100
AcDbEntity
8
0
100
AcDbSpline
70
0
71
2
72
6
73
3
74
0
42
0.000000001
43
0.0000000001
44
0.0000000001
40
0
40
0
40
0
40
1
40
1
40
1
10
-201.01680655749669
20
83.409731987095697
30
0
10
-201.01680655749669
20
83.436191935317538
30
0
10
-201.46660145394034
20
83.462651883539394
30
0
0
LINE
5
1139
100
AcDbEntity
8
0
100
AcDbLine
10
-201.46660145394034
20
83.46265188353938
30
0
11
-201.73118478727366
21
83.462651883539394
31
0
0
LINE
5
1140
100
AcDbEntity
8
0
100
AcDbLine
10
-201.73118478727366
20
83.462651883539394
30
0
11
-202.55138666105296
21
82.033903498427904
31
0
0
LINE
5
1141
100
AcDbEntity
8
0
100
AcDbLine
10
-202.55138666105296
20
82.033903498427904
30
0
11
-202.41909499438634
21
81.795780113316411
31
0
0
LINE
5
1142
100
AcDbEntity
8
0
100
AcDbLine
10
-202.41909499438634
20
81.795780113316411
30
0
11
-202.18096353483224
21
81.398905113316403
31
0
0
LINE
5
1143
100
AcDbEntity
8
0
100
AcDbLine
10
-202.18096353483224
20
81.398905113316403
30
0
11
-201.9428320752782
21
81.02849006153825
31
0
0
LINE
5
1144
100
AcDbEntity
8
0
100
AcDbLine
10
-201.9428320752782
20
81.02849006153825
30
0
11
-201.70470061572419
21
80.684534957981924
31
0
0
LINE
5
1145
100
AcDbEntity
8
0
100
AcDbLine
10
-201.70470061572419
20
80.684534957981924
30
0
11
-201.46656915617015
21
80.367031728204921
31
0
0
LINE
5
1146
100
AcDbEntity
8
0
100
AcDbLine
10
-201.46656915617015
20
80.367031728204921
30
0
11
-200.9903062370621
21
79.78494516509457
31
0
0
LINE
5
1147
100
AcDbEntity
8
0
100
AcDbLine
10
-200.9903062370621
20
79.78494516509457
30
0
11
-200.75217477750806
21
79.520361831761235
31
0
0
LINE
5
1148
100
AcDbEntity
8
0
100
AcDbLine
10
-200.75217477750806
20
79.520361831761235
30
0
11
-200.32884790372876
21
79.04411506153825
31
0
0
LINE
5
1149
100
AcDbEntity
8
0
100
AcDbLine
10
-200.32884790372876
20
79.04411506153825
30
0
11
-200.11718446683912
21
78.832447587427325
31
0
0
LINE
5
1150
100
AcDbEntity
8
0
100
AcDbLine
10
-200.11718446683912
20
78.832447587427325
30
0
11
-199.74676134061841
21
78.462032535649172
31
0
0
LINE
5
1151
100
AcDbEntity
8
0
100
AcDbLine
10
-199.74676134061841
20
78.462032535649172
30
0
11
-199.56154977750805
21
78.30328092076067
31
0
0
LINE
5
1152
100
AcDbEntity
8
0
100
AcDbLine
10
-199.56154977750805
20
78.30328092076067
30
0
11
-199.24406269661614
21
78.038697587427322
31
0
0
LINE
5
1153
100
AcDbEntity
8
0
100
AcDbLine
10
-199.24406269661614
20
78.038697587427322
30
0
11
-198.97947936328282
21
77.827034150537685
31
0
0
LINE
5
1154
100
AcDbEntity
8
0
100
AcDbLine
10
-198.97947936328282
20
77.827034150537685
30
0
11
-198.76779977750806
21
77.668282535649183
31
0
0
LINE
5
1155
100
AcDbEntity
8
0
100
AcDbLine
10
-198.76779977750806
20
77.668282535649183
30
0
11
-198.60905623706208
21
77.562450817204351
31
0
0
LINE
5
1156
100
AcDbEntity
8
0
100
AcDbLine
10
-198.60905623706208
20
77.562450817204351
30
0
11
-198.55613634061839
21
77.562450817204351
31
0
0
LINE
5
1157
100
AcDbEntity
8
0
100
AcDbLine
10
-198.55613634061839
20
77.562450817204351
30
0
11
-198.50321644417471
21
77.509534957981941
31
0
0
LINE
5
1158
100
AcDbEntity
8
0
100
AcDbLine
10
-198.50321644417471
20
77.509534957981941
30
0
11
-199.48217800728509
21
75.339952432092858
31
0
0
LINE
5
1159
100
AcDbEntity
8
0
100
AcDbLine
10
-199.48217800728509
20
75.339952432092858
30
0
11
-199.58801780017242
21
75.339952432092858
31
0
0
LINE
5
1160
100
AcDbEntity
8
0
100
AcDbLine
10
-199.58801780017242
20
75.339952432092858
30
0
11
-199.66738957039541
21
75.392868291315267
31
0
0
LINE
5
1161
100
AcDbEntity
8
0
100
AcDbLine
10
-199.66738957039541
20
75.392868291315267
30
0
11
-199.77322936328278
21
75.392868291315267
31
0
0
LINE
5
1162
100
AcDbEntity
8
0
100
AcDbLine
10
-199.77322936328278
20
75.392868291315267
30
0
11
-199.87906915617015
21
75.445784150537676
31
0
0
LINE
5
1163
100
AcDbEntity
8
0
100
AcDbLine
10
-199.87906915617015
20
75.445784150537676
30
0
11
-200.01136082283682
21
75.44578415053769
31
0
0
SPLINE
5
1164
100
AcDbEntity
8
0
100
AcDbSpline
70
0
71
2
72
6
73
3
74
0
42
0.000000001
43
0.0000000001
44
0.0000000001
40
0
40
0
40
0
40
1
40
1
40
1
10
-200.01136082283682
20
75.44578415053769
30
0
10
-200.01136082283682
20
75.472244098759532
30
0
10
-200.1701043632828
20
75.4987000097601
30
0
0
LINE
5
1165
100
AcDbEntity
8
0
100
AcDbLine
10
-200.1701043632828
20
75.4987000097601
30
0
11
-200.35531592639316
21
75.4987000097601
31
0
0
SPLINE
5
1166
100
AcDbEntity
8
0
100
AcDbSpline
70
0
71
2
72
6
73
3
74
0
42
0.000000001
43
0.0000000001
44
0.0000000001
40
0
40
0
40
0
40
1
40
1
40
1
10
-200.35531592639316
20
75.4987000097601
30
0
10
-200.35531592639316
20
75.525159957981941
30
0
10
-200.54052748950352
20
75.551615868982509
30
0
0
LINE
5
1167
100
AcDbEntity
8
0
100
AcDbLine
10
-200.54052748950352
20
75.551615868982509
30
0
11
-200.75219092639315
21
75.551615868982509
31
0
0
LINE
5
1168
100
AcDbEntity
8
0
100
AcDbLine
10
-200.75219092639315
20
75.551615868982509
30
0
11
-200.9903223859472
21
75.604531728204918
31
0
0
LINE
5
1169
100
AcDbEntity
8
0
100
AcDbLine
10
-200.9903223859472
20
75.604531728204918
30
0
11
-201.25490571928054
21
75.604531728204918
31
0
0
LINE
5
1170
100
AcDbEntity
8
0
100
AcDbLine
10
-201.25490571928054
20
75.604531728204918
30
0
11
-201.51948905261384
21
75.657447587427328
31
0
0
LINE
5
1171
100
AcDbEntity
8
0
100
AcDbLine
10
-201.51948905261384
20
75.657447587427328
30
0
11
-202.12802748950349
21
75.657447587427328
31
0
0
SPLINE
5
1172
100
AcDbEntity
8
0
100
AcDbSpline
70
0
71
2
72
6
73
3
74
0
42
0.000000001
43
0.0000000001
44
0.0000000001
40
0
40
0
40
0
40
1
40
1
40
1
10
-202.12802748950349
20
75.657447587427328
30
0
10
-202.12802748950349
20
75.683907535649169
30
0
10
-202.44553071928053
20
75.683907535649169
30
0
0
LINE
5
1173
100
AcDbEntity
8
0
100
AcDbLine
10
-202.44553071928053
20
75.683907535649169
30
0
11
-203.55678394905755
21
75.683907535649169
31
0
0
SPLINE
5
1174
100
AcDbEntity
8
0
100
AcDbSpline
70
0
71
2
72
6
73
3
74
0
42
0.000000001
43
0.0000000001
44
0.0000000001
40
0
40
0
40
0
40
1
40
1
40
1
10
-203.55678394905755
20
75.683907535649169
30
0
10
-203.55678394905755
20
75.657447587427328
30
0
10
-203.95365894905754
20
75.657447587427328
30
0
0
LINE
5
1175
100
AcDbEntity
8
0
100
AcDbLine
10
-203.95365894905754
20
75.657447587427328
30
0
11
-204.37698582283684
21
75.578071779983077
31
0
0
LINE
5
1176
100
AcDbEntity
8
0
100
AcDbLine
10
-204.37698582283684
20
75.578071779983077
30
0
11
-205.27657561572423
21
75.472240061538258
31
0
0
LINE
5
1177
100
AcDbEntity
8
0
100
AcDbLine
10
-205.27657561572423
20
75.472240061538258
30
0
11
-205.51470707527827
21
75.472240061538244
31
0
0
LINE
5
1178
100
AcDbEntity
8
0
100
AcDbLine
10
-205.51470707527827
20
75.472240061538244
30
0
11
-205.51470707527824
21
75.419324202315835
31
0
0
LINE
5
1179
100
AcDbEntity
8
0
100
AcDbLine
10
-205.51470707527824
20
75.419324202315835
30
0
11
-206.04387374194491
21
73.858284150537685
31
0
0
LINE
5
1180
100
AcDbEntity
8
0
100
AcDbLine
10
-206.04387374194491
20
73.858284150537685
30
0
11
-205.88513020149895
21
73.673076624648601
31
0
0
LINE
5
1181
100
AcDbEntity
8
0
100
AcDbLine
10
-205.88513020149895
20
73.673076624648601
30
0
11
-205.25012374194492
21
73.038078239537114
31
0
0
LINE
5
1182
100
AcDbEntity
8
0
100
AcDbLine
10
-205.25012374194492
20
73.038078239537114
30
0
11
-204.93262051216789
21
72.747034957981938
31
0
0
LINE
5
1183
100
AcDbEntity
8
0
100
AcDbLine
10
-204.93262051216789
20
72.747034957981938
30
0
11
-204.64158530505526
21
72.482451624648604
31
0
0
LINE
5
1184
100
AcDbEntity
8
0
100
AcDbLine
10
-204.64158530505526
20
72.482451624648604
30
0
11
-204.05951489082997
21
72.006204854425619
31
0
0
LINE
5
1185
100
AcDbEntity
8
0
100
AcDbLine
10
-204.05951489082997
20
72.006204854425619
30
0
11
-203.79493155749662
21
71.794537380314708
31
0
0
LINE
5
1186
100
AcDbEntity
8
0
100
AcDbLine
10
-203.79493155749662
20
71.794537380314708
30
0
11
-203.26576489082998
21
71.424122328536541
31
0
0
LINE
5
1187
100
AcDbEntity
8
0
100
AcDbLine
10
-203.26576489082998
20
71.424122328536541
30
0
11
-202.7895019717219
21
71.106619098759523
31
0
0
LINE
5
1188
100
AcDbEntity
8
0
100
AcDbLine
10
-202.7895019717219
20
71.106619098759523
30
0
11
-202.36617509794263
21
70.842035765426189
31
0
0
LINE
5
1189
100
AcDbEntity
8
0
100
AcDbLine
10
-202.36617509794263
20
70.842035765426189
30
0
11
-201.99575197172192
21
70.630372328536538
31
0
0
LINE
5
1190
100
AcDbEntity
8
0
100
AcDbLine
10
-201.99575197172192
20
70.630372328536538
30
0
11
-201.83700843127596
21
70.550996521092287
31
0
0
LINE
5
1191
100
AcDbEntity
8
0
100
AcDbLine
10
-201.83700843127596
20
70.550996521092287
30
0
11
-201.70471676460932
21
70.471620713648036
31
0
0
LINE
5
1192
100
AcDbEntity
8
0
100
AcDbLine
10
-201.70471676460932
20
70.471620713648036
30
0
11
-201.57242509794264
21
70.418704854425613
31
0
0
LINE
5
1193
100
AcDbEntity
8
0
100
AcDbLine
10
-201.57242509794264
20
70.418704854425613
30
0
11
-201.46658530505528
21
70.365788995203204
31
0
0
LINE
5
1194
100
AcDbEntity
8
0
100
AcDbLine
10
-201.46658530505528
20
70.365788995203204
30
0
11
-201.36074551216791
21
70.365788995203204
31
0
0
SPLINE
5
1195
100
AcDbEntity
8
0
100
AcDbSpline
70
0
71
2
72
6
73
3
74
0
42
0.000000001
43
0.0000000001
44
0.0000000001
40
0
40
0
40
0
40
1
40
1
40
1
10
-201.36074551216791
20
70.365788995203204
30
0
10
-201.36074551216791
20
70.339329046981362
30
0
10
-201.28137374194492
20
70.286413187758953
30
0
0
LINE
5
1196
100
AcDbEntity
8
0
100
AcDbLine
10
-201.28137374194492
20
70.286413187758953
30
0
11
-201.17553394905755
21
70.286413187758953
31
0
0
SPLINE
5
1197
100
AcDbEntity
8
0
100
AcDbSpline
70
0
71
2
72
6
73
3
74
0
42
0.000000001
43
0.0000000001
44
0.0000000001
40
0
40
0
40
0
40
1
40
1
40
1
10
-201.17553394905755
20
70.286413187758953
30
0
10
-201.17553394905755
20
70.259953239537111
30
0
10
-201.7311524895035
20
67.9316231359808
30
0
0
LINE
5
1198
100
AcDbEntity
8
0
100
AcDbLine
10
-201.7311524895035
20
67.9316231359808
30
0
11
-203.55678394905752
21
67.9316231359808
31
0
0
LINE
5
1199
100
AcDbEntity
8
0
100
AcDbLine
10
-203.55678394905752
20
67.9316231359808
30
0
11
-203.8213672823909
21
67.878707276758391
31
0
0
LINE
5
1200
100
AcDbEntity
8
0
100
AcDbLine
10
-203.8213672823909
20
67.878707276758391
30
0
11
-204.11240248950349
21
67.825791417535982
31
0
0
LINE
5
1201
100
AcDbEntity
8
0
100
AcDbLine
10
-204.11240248950349
20
67.825791417535982
30
0
11
-204.74740894905753
21
67.719959699091149
31
0
0
LINE
5
1202
100
AcDbEntity
8
0
100
AcDbLine
10
-204.74740894905753
20
67.719959699091149
30
0
11
-205.43531915617021
21
67.561208084202647
31
0
0
LINE
5
1203
100
AcDbEntity
8
0
100
AcDbLine
10
-205.43531915617021
20
67.561208084202647
30
0
11
-205.80574228239087
21
67.455376365757814
31
0
0
LINE
5
1204
100
AcDbEntity
8
0
100
AcDbLine
10
-205.80574228239087
20
67.455376365757814
30
0
11
-206.20261728239086
21
67.349544647312996
31
0
0
LINE
5
1205
100
AcDbEntity
8
0
100
AcDbLine
10
-206.20261728239086
20
67.349544647312996
30
0
11
-206.59949228239086
21
67.217252980646322
31
0
0
LINE
5
1206
100
AcDbEntity
8
0
100
AcDbLine
10
-206.59949228239086
20
67.217252980646322
30
0
11
-207.02281915617016
21
67.084961313979662
31
0
0
LINE
5
1207
100
AcDbEntity
8
0
100
AcDbLine
10
-207.02281915617016
20
67.084961313979662
30
0
11
-207.65780946683913
21
66.846833891646895
31
0
0
LINE
5
1208
100
AcDbEntity
8
0
100
AcDbLine
10
-207.65780946683913
20
66.846833891646895
30
0
11
-207.86947290372876
21
65.20641803242448
31
0
0
LINE
5
1209
100
AcDbEntity
8
0
100
AcDbLine
10
-207.86947290372876
20
65.20641803242448
30
0
11
-207.68426134061841
21
65.047666417535964
31
0
0
LINE
5
1210
100
AcDbEntity
8
0
100
AcDbLine
10
-207.68426134061841
20
65.047666417535964
30
0
11
-207.31383821439772
21
64.783083084202644
31
0
0
LINE
5
1211
100
AcDbEntity
8
0
100
AcDbLine
10
-207.31383821439772
20
64.783083084202644
30
0
11
-206.94341508817701
21
64.544959699091152
31
0
0
LINE
5
1212
100
AcDbEntity
8
0
100
AcDbLine
10
-206.94341508817701
20
64.544959699091152
30
0
11
-206.57299196195629
21
64.333292224980227
31
0
0
LINE
5
1213
100
AcDbEntity
8
0
100
AcDbLine
10
-206.57299196195629
20
64.333292224980227
30
0
11
-206.22903685839998
21
64.121624750869302
31
0
0
LINE
5
1214
100
AcDbEntity
8
0
100
AcDbLine
10
-206.22903685839998
20
64.121624750869302
30
0
11
-205.88508175484364
21
63.936417224980218
31
0
0
LINE
5
1215
100
AcDbEntity
8
0
100
AcDbLine
10
-205.88508175484364
20
63.936417224980218
30
0
11
-205.56757852506666
21
63.751209699091149
31
0
0
LINE
5
1216
100
AcDbEntity
8
0
100
AcDbLine
10
-205.56757852506666
20
63.751209699091149
30
0
11
-205.25007529528963
21
63.592458084202633
31
0
0
LINE
5
1217
100
AcDbEntity
8
0
100
AcDbLine
10
-205.25007529528963
20
63.592458084202633
30
0
11
-204.66800488106435
21
63.327874750869306
31
0
0
LINE
5
1218
100
AcDbEntity
8
0
100
AcDbLine
10
-204.66800488106435
20
63.327874750869306
30
0
11
-204.13883821439771
21
63.116211313979662
31
0
0
LINE
5
1219
100
AcDbEntity
8
0
100
AcDbLine
10
-204.13883821439771
20
63.116211313979662
30
0
11
-203.90070675484367
21
63.036835506535411
31
0
0
LINE
5
1220
100
AcDbEntity
8
0
100
AcDbLine
10
-203.90070675484367
20
63.036835506535411
30
0
11
-203.47737988106439
21
62.878083891646895
31
0
0
LINE
5
1221
100
AcDbEntity
8
0
100
AcDbLine
10
-203.47737988106439
20
62.878083891646895
30
0
11
-203.10695675484368
21
62.77225217320207
31
0
0
LINE
5
1222
100
AcDbEntity
8
0
100
AcDbLine
10
-203.10695675484368
20
62.77225217320207
30
0
11
-202.94821321439773
21
62.719336313979653
31
0
0
LINE
5
1223
100
AcDbEntity
8
0
100
AcDbLine
10
-202.94821321439773
20
62.719336313979653
30
0
11
-202.81592154773105
21
62.719336313979653
31
0
0
LINE
5
1224
100
AcDbEntity
8
0
100
AcDbLine
10
-202.81592154773105
20
62.719336313979653
30
0
11
-202.68362988106441
21
62.666420454757244
31
0
0
LINE
5
1225
100
AcDbEntity
8
0
100
AcDbLine
10
-202.68362988106441
20
62.666420454757244
30
0
11
-202.36612665128735
21
62.666420454757244
31
0
0
LINE
5
1226
100
AcDbEntity
8
0
100
AcDbLine
10
-202.36612665128735
20
62.666420454757244
30
0
11
-202.44549842151034
21
60.285170454757242
31
0
0
LINE
5
1227
100
AcDbEntity
8
0
100
AcDbLine
10
-202.44549842151034
20
60.285170454757242
30
0
11
-202.89529331795404
21
60.285170454757242
31
0
0
ENDSEC
0
SECTION
2
OBJECTS
0
DICTIONARY
5
C
100
AcDbDictionary
3
ACAD_GROUP
350
D
3
ACAD_MLINESTYLE
350
17
0
DICTIONARY
5
D
100
AcDbDictionary
0
DICTIONARY
5
1A
330
C
100
AcDbDictionary
0
DICTIONARY
5
17
100
AcDbDictionary
0
ENDSEC
0
EOF
