0
SECTION
2
HEADER
9
$INSUNITS
70
4
9
$ACADVER
1
AC1014
9
$HANDSEED
5
FFFF
0
ENDSEC
0
SECTION
2
TABLES
0
TABLE
2
VPORT
5
8
100
AcDbSymbolTable
0
ENDTAB
0
TABLE
2
LTYPE
5
5
100
AcDbSymbolTable
0
LTYPE
5
14
100
AcDbSymbolTableRecord
100
AcDbLinetypeTableRecord
2
BYBLOCK
70
0
0
LTYPE
5
15
100
AcDbSymbolTableRecord
100
AcDbLinetypeTableRecord
2
BYLAYER
70
0
0
LTYPE
5
16
100
AcDbSymbolTableRecord
100
AcDbLinetypeTableRecord
2
DASHED
70
0
3
Dashed __ __ __ __ __ __ __ __ __ __ __ __ __ _
72
65
73
2
40
0.75
49
0.5
74
0
49
-0.25
74
0
0
ENDTAB
0
TABLE
2
LAYER
5
2
100
AcDbSymbolTable
70
2
0
LAYER
5
50
100
AcDbSymbolTableRecord
100
AcDbLayerTableRecord
2
0
70
0
62
7
6
CONTINUOUS
0
ENDTAB
0
TABLE
2
STYLE
5
3
100
AcDbSymbolTable
70
1
0
STYLE
5
11
100
AcDbSymbolTableRecord
100
AcDbTextStyleTableRecord
2
STANDARD
70
0
0
ENDTAB
0
TABLE
2
VIEW
5
6
100
AcDbSymbolTable
70
0
0
ENDTAB
0
TABLE
2
UCS
5
7
100
AcDbSymbolTable
70
0
0
ENDTAB
0
TABLE
2
APPID
5
9
100
AcDbSymbolTable
70
2
0
APPID
5
12
100
AcDbSymbolTableRecord
100
AcDbRegAppTableRecord
2
ACAD
70
0
0
ENDTAB
0
TABLE
2
DIMSTYLE
5
A
100
AcDbSymbolTable
70
1
0
ENDTAB
0
TABLE
2
BLOCK_RECORD
5
1
100
AcDbSymbolTable
70
1
0
BLOCK_RECORD
5
1F
100
AcDbSymbolTableRecord
100
AcDbBlockTableRecord
2
*MODEL_SPACE
0
BLOCK_RECORD
5
1B
100
AcDbSymbolTableRecord
100
AcDbBlockTableRecord
2
*PAPER_SPACE
0
ENDTAB
0
ENDSEC
0
SECTION
2
BLOCKS
0
BLOCK
5
20
100
AcDbEntity
100
AcDbBlockBegin
2
*MODEL_SPACE
0
ENDBLK
5
21
100
AcDbEntity
100
AcDbBlockEnd
0
BLOCK
5
1C
100
AcDbEntity
100
AcDbBlockBegin
2
*PAPER_SPACE
0
ENDBLK
5
1D
100
AcDbEntity
100
AcDbBlockEnd
0
ENDSEC
0
SECTION
2
ENTITIES
0
CIRCLE
5
100
100
AcDbEntity
8
0
100
AcDbCircle
10
-91.661075112452181
20
26.481273716417768
30
2.7755575615628914e-16
40
2.7499999999999964
210
-0
220
0
230
1
0
LINE
5
101
100
AcDbEntity
8
0
100
AcDbLine
10
-109.6576340854777
20
23.387402264528617
30
2.7755575615628914e-16
11
-109.41126745496382
21
22.119955826117362
31
2.7755575615628914e-16
0
LINE
5
102
100
AcDbEntity
8
0
100
AcDbLine
10
-109.41126745496382
20
22.119955826117362
30
2.7755575615628914e-16
11
-109.29122518654091
21
22.057039319596804
31
2.7755575615628914e-16
0
LINE
5
103
100
AcDbEntity
8
0
100
AcDbLine
10
-109.29122518654091
20
22.057039319596804
30
2.7755575615628914e-16
11
-109.00121214327152
21
21.951691280555814
31
2.7755575615628914e-16
0
LINE
5
104
100
AcDbEntity
8
0
100
AcDbLine
10
-109.00121214327152
20
21.951691280555814
30
2.7755575615628914e-16
11
-108.45220827214874
21
21.761918229260012
31
2.7755575615628914e-16
0
LINE
5
105
100
AcDbEntity
8
0
100
AcDbLine
10
-108.45220827214874
20
21.761918229260012
30
2.7755575615628914e-16
11
-107.9392710643647
21
21.619040798012627
31
2.7755575615628914e-16
0
LINE
5
106
100
AcDbEntity
8
0
100
AcDbLine
10
-107.9392710643647
20
21.619040798012627
30
2.7755575615628914e-16
11
-107.46240486813463
21
21.523060197998596
31
2.7755575615628914e-16
0
LINE
5
107
100
AcDbEntity
8
0
100
AcDbLine
10
-107.46240486813463
20
21.523060197998596
30
2.7755575615628914e-16
11
-107.01655692427445
21
21.448003395108891
31
2.7755575615628914e-16
0
LINE
5
108
100
AcDbEntity
8
0
100
AcDbLine
10
-107.01655692427445
20
21.448003395108891
30
2.7755575615628914e-16
11
-106.63275341124634
21
21.41479264579154
31
2.7755575615628914e-16
0
LINE
5
109
100
AcDbEntity
8
0
100
AcDbLine
10
-106.63275341124634
20
21.41479264579154
30
2.7755575615628914e-16
11
-106.30594195503531
21
21.397456897460575
31
2.7755575615628914e-16
0
LINE
5
110
100
AcDbEntity
8
0
100
AcDbLine
10
-106.30594195503531
20
21.397456897460575
30
2.7755575615628914e-16
11
-106.01014913636321
21
21.401046927777006
31
2.7755575615628914e-16
0
LINE
5
111
100
AcDbEntity
8
0
100
AcDbLine
10
-106.01014913636321
20
21.401046927777006
30
2.7755575615628914e-16
11
-105.7764007485232
21
21.446483011665794
31
2.7755575615628914e-16
0
LINE
5
112
100
AcDbEntity
8
0
100
AcDbLine
10
-105.7764007485232
20
21.446483011665794
30
2.7755575615628914e-16
11
-105.58449918459368
21
21.429878627768652
31
2.7755575615628914e-16
0
LINE
5
113
100
AcDbEntity
8
0
100
AcDbLine
10
-105.58449918459368
20
21.429878627768652
30
2.7755575615628914e-16
11
-105.35074881523059
21
21.475315096826506
31
2.7755575615628914e-16
0
LINE
5
114
100
AcDbEntity
8
0
100
AcDbLine
10
-105.35074881523059
20
21.475315096826506
30
2.7755575615628914e-16
11
-103.5622549372917
21
22.119451683193638
31
2.7755575615628914e-16
0
LINE
5
115
100
AcDbEntity
8
0
100
AcDbLine
10
-103.5622549372917
20
22.119451683193638
30
2.7755575615628914e-16
11
-102.23785150207402
21
19.465905853962852
31
2.7755575615628914e-16
0
LINE
5
116
100
AcDbEntity
8
0
100
AcDbLine
10
-102.23785150207402
20
19.465905853962852
30
2.7755575615628914e-16
11
-103.81570836027585
21
18.431455605492641
31
2.7755575615628914e-16
0
LINE
5
117
100
AcDbEntity
8
0
100
AcDbLine
10
-103.81570836027585
20
18.431455605492641
30
2.7755575615628914e-16
11
-103.88352879604898
21
18.364365350807255
31
2.7755575615628914e-16
0
LINE
5
118
100
AcDbEntity
8
0
100
AcDbLine
10
-103.88352879604898
20
18.364365350807255
30
2.7755575615628914e-16
11
-103.97227264377736
21
18.266254862228905
31
2.7755575615628914e-16
0
LINE
5
119
100
AcDbEntity
8
0
100
AcDbLine
10
-103.97227264377736
20
18.266254862228905
30
2.7755575615628914e-16
11
-104.10791153380057
21
18.132074738027196
31
2.7755575615628914e-16
0
LINE
5
120
100
AcDbEntity
8
0
100
AcDbLine
10
-104.10791153380057
20
18.132074738027196
30
2.7755575615628914e-16
11
-104.25942542481016
21
17.940902557008432
31
2.7755575615628914e-16
0
LINE
5
121
100
AcDbEntity
8
0
100
AcDbLine
10
-104.25942542481016
20
17.940902557008432
30
2.7755575615628914e-16
11
-104.43186451671355
21
17.718708766166092
31
2.7755575615628914e-16
0
LINE
5
122
100
AcDbEntity
8
0
100
AcDbLine
10
-104.43186451671355
20
17.718708766166092
30
2.7755575615628914e-16
11
-104.62017841701879
21
17.439521927745147
31
2.7755575615628914e-16
0
LINE
5
123
100
AcDbEntity
8
0
100
AcDbLine
10
-104.62017841701879
20
17.439521927745147
30
2.7755575615628914e-16
11
-104.82436731831042
21
17.103343032507141
31
2.7755575615628914e-16
0
LINE
5
124
100
AcDbEntity
8
0
100
AcDbLine
10
-104.82436731831042
20
17.103343032507141
30
2.7755575615628914e-16
11
-105.01845920507978
21
16.715219500659384
31
2.7755575615628914e-16
0
LINE
5
125
100
AcDbEntity
8
0
100
AcDbLine
10
-105.01845920507978
20
16.715219500659384
30
2.7755575615628914e-16
11
-105.22842788177408
21
16.270102536063959
31
2.7755575615628914e-16
0
LINE
5
126
100
AcDbEntity
8
0
100
AcDbLine
10
-105.22842788177408
20
16.270102536063959
30
2.7755575615628914e-16
11
-105.42829954394617
21
15.773040934858784
31
2.7755575615628914e-16
0
LINE
5
127
100
AcDbEntity
8
0
100
AcDbLine
10
-105.42829954394617
20
15.773040934858784
30
2.7755575615628914e-16
11
-105.61302578062711
21
15.19806287411976
31
2.7755575615628914e-16
0
LINE
5
128
100
AcDbEntity
8
0
100
AcDbLine
10
-105.61302578062711
20
15.19806287411976
30
2.7755575615628914e-16
11
-105.68735358577513
21
14.887126418895107
31
2.7755575615628914e-16
0
LINE
5
129
100
AcDbEntity
8
0
100
AcDbLine
10
-105.68735358577513
20
14.887126418895107
30
2.7755575615628914e-16
11
-105.7349801850883
21
14.71614788175177
31
2.7755575615628914e-16
0
LINE
5
130
100
AcDbEntity
8
0
100
AcDbLine
10
-105.7349801850883
20
14.71614788175177
30
2.7755575615628914e-16
11
-105.72488317056605
21
14.664203245142023
31
2.7755575615628914e-16
0
LINE
5
131
100
AcDbEntity
8
0
100
AcDbLine
10
-105.72488317056605
20
14.664203245142023
30
2.7755575615628914e-16
11
-104.863541155219
21
13.699582039450277
31
2.7755575615628914e-16
0
LINE
5
132
100
AcDbEntity
8
0
100
AcDbLine
10
-104.863541155219
20
13.699582039450277
30
2.7755575615628914e-16
11
-103.25326435564762
21
14.012588141548257
31
2.7755575615628914e-16
0
LINE
5
133
100
AcDbEntity
8
0
100
AcDbLine
10
-103.25326435564762
20
14.012588141548257
30
2.7755575615628914e-16
11
-102.80090904241254
21
14.181377539197813
31
2.7755575615628914e-16
0
LINE
5
134
100
AcDbEntity
8
0
100
AcDbLine
10
-102.80090904241254
20
14.181377539197813
30
2.7755575615628914e-16
11
-102.40049935654875
21
14.340069729740589
31
2.7755575615628914e-16
0
LINE
5
135
100
AcDbEntity
8
0
100
AcDbLine
10
-102.40049935654875
20
14.340069729740589
30
2.7755575615628914e-16
11
-102.05203331653317
21
14.488665098345646
31
2.7755575615628914e-16
0
LINE
5
136
100
AcDbEntity
8
0
100
AcDbLine
10
-102.05203331653317
20
14.488665098345646
30
2.7755575615628914e-16
11
-101.76056150744228
21
14.653136073529566
31
2.7755575615628914e-16
0
LINE
5
137
100
AcDbEntity
8
0
100
AcDbLine
10
-101.76056150744228
20
14.653136073529566
30
2.7755575615628914e-16
11
-101.52103334419957
21
14.80751022677577
31
2.7755575615628914e-16
0
LINE
5
138
100
AcDbEntity
8
0
100
AcDbLine
10
-101.52103334419957
20
14.80751022677577
30
2.7755575615628914e-16
11
-101.32840022325169
21
14.925814744398615
31
2.7755575615628914e-16
0
LINE
5
139
100
AcDbEntity
8
0
100
AcDbLine
10
-101.32840022325169
20
14.925814744398615
30
2.7755575615628914e-16
11
-101.1877127296751
21
15.034022054914679
31
2.7755575615628914e-16
0
LINE
5
140
100
AcDbEntity
8
0
100
AcDbLine
10
-101.1877127296751
20
15.034022054914679
30
2.7755575615628914e-16
11
-101.07299705902263
21
15.137180954461886
31
2.7755575615628914e-16
0
LINE
5
141
100
AcDbEntity
8
0
100
AcDbLine
10
-101.07299705902263
20
15.137180954461886
30
2.7755575615628914e-16
11
-101.00517662324947
21
15.204271209147272
31
2.7755575615628914e-16
0
LINE
5
142
100
AcDbEntity
8
0
100
AcDbLine
10
-101.00517662324947
20
15.204271209147272
30
2.7755575615628914e-16
11
-99.782963113834853
21
16.681708148479515
31
2.7755575615628914e-16
0
LINE
5
143
100
AcDbEntity
8
0
100
AcDbLine
10
-99.782963113834853
20
16.681708148479515
30
2.7755575615628914e-16
11
-97.306354946292473
21
15.03378147331976
31
2.7755575615628914e-16
0
LINE
5
144
100
AcDbEntity
8
0
100
AcDbLine
10
-97.306354946292473
20
15.03378147331976
30
2.7755575615628914e-16
11
-98.166417737544975
21
13.357204043664748
31
2.7755575615628914e-16
0
LINE
5
145
100
AcDbEntity
8
0
100
AcDbLine
10
-98.166417737544975
20
13.357204043664748
30
2.7755575615628914e-16
11
-98.198167354348683
21
13.243217948507539
31
2.7755575615628914e-16
0
LINE
5
146
100
AcDbEntity
8
0
100
AcDbLine
10
-98.198167354348683
20
13.243217948507539
30
2.7755575615628914e-16
11
-98.250842364630714
21
13.098211234288307
31
2.7755575615628914e-16
0
LINE
5
147
100
AcDbEntity
8
0
100
AcDbLine
10
-98.250842364630714
20
13.098211234288307
30
2.7755575615628914e-16
11
-98.29846896394389
21
12.927232697144962
31
2.7755575615628914e-16
0
LINE
5
148
100
AcDbEntity
8
0
100
AcDbLine
10
-98.29846896394389
20
12.927232697144962
30
2.7755575615628914e-16
11
-98.335998548734821
21
12.704309523391874
31
2.7755575615628914e-16
0
LINE
5
149
100
AcDbEntity
8
0
100
AcDbLine
10
-98.335998548734821
20
12.704309523391874
30
2.7755575615628914e-16
11
-98.363431119003494
21
12.429441713029039
31
2.7755575615628914e-16
0
LINE
5
150
100
AcDbEntity
8
0
100
AcDbLine
10
-98.363431119003494
20
12.429441713029039
30
2.7755575615628914e-16
11
-98.380766674749921
21
12.102629266056459
31
2.7755575615628914e-16
0
LINE
5
151
100
AcDbEntity
8
0
100
AcDbLine
10
-98.380766674749921
20
12.102629266056459
30
2.7755575615628914e-16
11
-98.388005215974118
21
11.723872182474134
31
2.7755575615628914e-16
0
LINE
5
152
100
AcDbEntity
8
0
100
AcDbLine
10
-98.388005215974118
20
11.723872182474134
30
2.7755575615628914e-16
11
-98.359173130813375
21
11.298220249181526
31
2.7755575615628914e-16
0
LINE
5
153
100
AcDbEntity
8
0
100
AcDbLine
10
-98.359173130813375
20
11.298220249181526
30
2.7755575615628914e-16
11
-98.320244031130414
21
10.820623679279169
31
2.7755575615628914e-16
0
LINE
5
154
100
AcDbEntity
8
0
100
AcDbLine
10
-98.320244031130414
20
10.820623679279169
30
2.7755575615628914e-16
11
-98.007237736447905
21
9.2103458889462626
31
2.7755575615628914e-16
0
LINE
5
155
100
AcDbEntity
8
0
100
AcDbLine
10
-98.007237736447905
20
9.2103458889462626
30
2.7755575615628914e-16
11
-96.795241628645257
21
8.799049068577709
31
2.7755575615628914e-16
0
LINE
5
156
100
AcDbEntity
8
0
100
AcDbLine
10
-96.795241628645257
20
8.799049068577709
30
2.7755575615628914e-16
11
-96.680525957992799
21
8.9022079681249142
31
2.7755575615628914e-16
0
LINE
5
157
100
AcDbEntity
8
0
100
AcDbLine
10
-96.680525957992799
20
8.9022079681249142
30
2.7755575615628914e-16
11
-96.420074382794837
21
9.0876023552640799
31
2.7755575615628914e-16
0
LINE
5
158
100
AcDbEntity
8
0
100
AcDbLine
10
-96.420074382794837
20
9.0876023552640799
30
2.7755575615628914e-16
11
-95.982135208432396
21
9.4692182149407103
31
2.7755575615628914e-16
0
LINE
5
159
100
AcDbEntity
8
0
100
AcDbLine
10
-95.982135208432396
20
9.4692182149407103
30
2.7755575615628914e-16
11
-95.596141661441223
21
9.8407368675105609
31
2.7755575615628914e-16
0
LINE
5
160
100
AcDbEntity
8
0
100
AcDbLine
10
-95.596141661441223
20
9.8407368675105609
30
2.7755575615628914e-16
11
-95.262091760298262
21
10.202158698142691
31
2.7755575615628914e-16
0
LINE
5
161
100
AcDbEntity
8
0
100
AcDbLine
10
-95.262091760298262
20
10.202158698142691
30
2.7755575615628914e-16
11
-94.979985505003526
21
10.55348370683711
31
2.7755575615628914e-16
0
LINE
5
162
100
AcDbEntity
8
0
100
AcDbLine
10
-94.979985505003526
20
10.55348370683711
30
2.7755575615628914e-16
11
-94.744776369818936
21
10.868739190119872
31
2.7755575615628914e-16
0
LINE
5
163
100
AcDbEntity
8
0
100
AcDbLine
10
-94.744776369818936
20
10.868739190119872
30
2.7755575615628914e-16
11
-94.556462373221436
21
11.147925533160045
31
2.7755575615628914e-16
0
LINE
5
164
100
AcDbEntity
8
0
100
AcDbLine
10
-94.556462373221436
20
11.147925533160045
30
2.7755575615628914e-16
11
-94.415045496734095
21
11.391042350788563
31
2.7755575615628914e-16
0
LINE
5
165
100
AcDbEntity
8
0
100
AcDbLine
10
-94.415045496734095
20
11.391042350788563
30
2.7755575615628914e-16
11
-94.320523855126083
21
11.59809052355526
31
2.7755575615628914e-16
0
LINE
5
166
100
AcDbEntity
8
0
100
AcDbLine
10
-94.320523855126083
20
11.59809052355526
30
2.7755575615628914e-16
11
-94.246925529181084
21
11.77411796704823
31
2.7755575615628914e-16
0
LINE
5
167
100
AcDbEntity
8
0
100
AcDbLine
10
-94.246925529181084
20
11.77411796704823
30
2.7755575615628914e-16
11
-94.19425051889904
21
11.919124681267466
31
2.7755575615628914e-16
0
LINE
5
168
100
AcDbEntity
8
0
100
AcDbLine
10
-94.19425051889904
20
11.919124681267466
30
2.7755575615628914e-16
11
-94.157452298541955
21
12.00713796273903
31
2.7755575615628914e-16
0
LINE
5
169
100
AcDbEntity
8
0
100
AcDbLine
10
-94.157452298541955
20
12.00713796273903
30
2.7755575615628914e-16
11
-93.825472236856854
21
13.904509778556044
31
2.7755575615628914e-16
0
LINE
5
170
100
AcDbEntity
8
0
100
AcDbLine
10
-93.825472236856854
20
13.904509778556044
30
2.7755575615628914e-16
11
-90.879114141988026
21
13.722524696660315
31
2.7755575615628914e-16
0
LINE
5
171
100
AcDbEntity
8
0
100
AcDbLine
10
-90.879114141988026
20
13.722524696660315
30
2.7755575615628914e-16
11
-90.780393666827152
21
11.828012152318372
31
2.7755575615628914e-16
0
LINE
5
172
100
AcDbEntity
8
0
100
AcDbLine
10
-90.780393666827152
20
11.828012152318372
30
2.7755575615628914e-16
11
-90.649132959499241
21
11.152734353295514
31
2.7755575615628914e-16
0
LINE
5
173
100
AcDbEntity
8
0
100
AcDbLine
10
-90.649132959499241
20
11.152734353295514
30
2.7755575615628914e-16
11
-90.515682121916029
21
10.882185460779093
31
2.7755575615628914e-16
0
LINE
5
174
100
AcDbEntity
8
0
100
AcDbLine
10
-90.515682121916029
20
10.882185460779093
30
2.7755575615628914e-16
11
-90.377182777071653
21
10.585664249957791
31
2.7755575615628914e-16
0
LINE
5
175
100
AcDbEntity
8
0
100
AcDbLine
10
-90.377182777071653
20
10.585664249957791
30
2.7755575615628914e-16
11
-90.176642868149131
21
10.247295719845233
31
2.7755575615628914e-16
0
LINE
5
176
100
AcDbEntity
8
0
100
AcDbLine
10
-90.176642868149131
20
10.247295719845233
30
2.7755575615628914e-16
11
-89.945082629041352
21
9.888003282396653
31
2.7755575615628914e-16
0
LINE
5
177
100
AcDbEntity
8
0
100
AcDbLine
10
-89.945082629041352
20
9.888003282396653
30
2.7755575615628914e-16
11
-89.651479748040089
21
9.4868634154451108
31
2.7755575615628914e-16
0
LINE
5
178
100
AcDbEntity
8
0
100
AcDbLine
10
-89.651479748040089
20
9.4868634154451108
30
2.7755575615628914e-16
11
-89.300884810221689
21
9.0698485475071813
31
2.7755575615628914e-16
0
LINE
5
179
100
AcDbEntity
8
0
100
AcDbLine
10
-89.300884810221689
20
9.0698485475071813
30
2.7755575615628914e-16
11
-88.893297719293997
21
8.6369581832020916
31
2.7755575615628914e-16
0
LINE
5
180
100
AcDbEntity
8
0
100
AcDbLine
10
-88.893297719293997
20
8.6369581832020916
30
2.7755575615628914e-16
11
-88.661008097275484
21
8.4125752528659703
31
2.7755575615628914e-16
0
LINE
5
181
100
AcDbEntity
8
0
100
AcDbLine
10
-88.661008097275484
20
8.4125752528659703
30
2.7755575615628914e-16
11
-88.531876384042633
21
8.3029081857668725
31
2.7755575615628914e-16
0
SPLINE
5
182
100
AcDbEntity
8
0
100
AcDbSpline
70
0
71
2
72
6
73
3
74
0
42
0.000000001
43
0.0000000001
44
0.0000000001
40
0
40
0
40
0
40
1
40
1
40
1
10
-88.531876384042633
20
8.3029081857668707
30
2.7755575615628914e-16
10
-88.52682787678151
20
8.2769358674619991
30
2.7755575615628914e-16
10
-87.280160561193753
20
8.5192634456578364
30
2.7755575615628914e-16
0
SPLINE
5
183
100
AcDbEntity
8
0
100
AcDbSpline
70
0
71
2
72
6
73
3
74
0
42
0.000000001
43
0.0000000001
44
0.0000000001
40
0
40
0
40
0
40
1
40
1
40
1
10
-87.280160561193753
20
8.5192634456578364
30
2.7755575615628914e-16
10
-87.285209068454876
20
8.5452357639627099
30
2.7755575615628914e-16
10
-87.23253405817286
20
8.690242478181947
30
2.7755575615628914e-16
0
LINE
5
184
100
AcDbEntity
8
0
100
AcDbLine
10
-87.23253405817286
20
8.690242478181947
30
2.7755575615628914e-16
11
-87.127186019131869
21
8.9802555214513546
31
2.7755575615628914e-16
0
LINE
5
185
100
AcDbEntity
8
0
100
AcDbLine
10
-87.127186019131869
20
8.9802555214513546
30
2.7755575615628914e-16
11
-86.937413256712844
21
9.5292608787164355
31
2.7755575615628914e-16
0
LINE
5
186
100
AcDbEntity
8
0
100
AcDbLine
10
-86.937413256712844
20
9.5292608787164355
30
2.7755575615628914e-16
11
-86.794535632880937
21
10.042197095738929
31
2.7755575615628914e-16
0
LINE
5
187
100
AcDbEntity
8
0
100
AcDbLine
10
-86.794535632880937
20
10.042197095738929
30
2.7755575615628914e-16
11
-86.698555225451457
21
10.519064282730534
31
2.7755575615628914e-16
0
LINE
5
188
100
AcDbEntity
8
0
100
AcDbLine
10
-86.698555225451457
20
10.519064282730534
30
2.7755575615628914e-16
11
-86.623498133684933
21
10.964910740448415
31
2.7755575615628914e-16
0
LINE
5
189
100
AcDbEntity
8
0
100
AcDbLine
10
-86.623498133684933
20
10.964910740448415
30
2.7755575615628914e-16
11
-86.590287673244376
21
11.348715739618829
31
2.7755575615628914e-16
0
LINE
5
190
100
AcDbEntity
8
0
100
AcDbLine
10
-86.590287673244376
20
11.348715739618829
30
2.7755575615628914e-16
11
-86.572952117497962
21
11.675528186591409
31
2.7755575615628914e-16
0
LINE
5
191
100
AcDbEntity
8
0
100
AcDbLine
10
-86.572952117497962
20
11.675528186591409
30
2.7755575615628914e-16
11
-86.576541858937588
21
11.971319519121188
31
2.7755575615628914e-16
0
LINE
5
192
100
AcDbEntity
8
0
100
AcDbLine
10
-86.576541858937588
20
11.971319519121188
30
2.7755575615628914e-16
11
-86.621978231703167
21
12.205069393103509
31
2.7755575615628914e-16
0
LINE
5
193
100
AcDbEntity
8
0
100
AcDbLine
10
-86.621978231703167
20
12.205069393103509
30
2.7755575615628914e-16
11
-86.605374040390558
21
12.396971947794565
31
2.7755575615628914e-16
0
LINE
5
194
100
AcDbEntity
8
0
100
AcDbLine
10
-86.605374040390558
20
12.396971947794565
30
2.7755575615628914e-16
11
-86.645761905895014
21
12.604749503472014
31
2.7755575615628914e-16
0
SPLINE
5
195
100
AcDbEntity
8
0
100
AcDbSpline
70
0
71
2
72
6
73
3
74
0
42
0.000000001
43
0.0000000001
44
0.0000000001
40
0
40
0
40
0
40
1
40
1
40
1
10
-86.645761905895014
20
12.604749503472014
30
2.7755575615628914e-16
10
-86.650810413156151
20
12.630721821776888
30
2.7755575615628914e-16
10
-87.294947095815559
20
14.419216195096547
30
2.7755575615628914e-16
0
LINE
5
196
100
AcDbEntity
8
0
100
AcDbLine
10
-87.294947095815559
20
14.419216195096547
30
2.7755575615628914e-16
11
-84.6414022573463
21
15.743619437729697
31
2.7755575615628914e-16
0
LINE
5
197
100
AcDbEntity
8
0
100
AcDbLine
10
-84.6414022573463
20
15.743619437729697
30
2.7755575615628914e-16
11
-83.606952008876078
21
14.165762579527858
31
2.7755575615628914e-16
0
LINE
5
198
100
AcDbEntity
8
0
100
AcDbLine
10
-83.606952008876078
20
14.165762579527858
30
2.7755575615628914e-16
11
-83.534813439514124
21
14.071970816211385
31
2.7755575615628914e-16
0
LINE
5
199
100
AcDbEntity
8
0
100
AcDbLine
10
-83.534813439514124
20
14.071970816211385
30
2.7755575615628914e-16
11
-83.436703047228036
21
13.98322746386377
31
2.7755575615628914e-16
0
LINE
5
200
100
AcDbEntity
8
0
100
AcDbLine
10
-83.436703047228036
20
13.98322746386377
30
2.7755575615628914e-16
11
-83.302522826734062
21
13.847588078459799
31
2.7755575615628914e-16
0
LINE
5
201
100
AcDbEntity
8
0
100
AcDbLine
10
-83.302522826734062
20
13.847588078459799
30
2.7755575615628914e-16
11
-83.11135045313074
21
13.696073196688667
31
2.7755575615628914e-16
0
LINE
5
202
100
AcDbEntity
8
0
100
AcDbLine
10
-83.11135045313074
20
13.696073196688667
30
2.7755575615628914e-16
11
-82.889156854872951
21
13.523635095546824
31
2.7755575615628914e-16
0
LINE
5
203
100
AcDbEntity
8
0
100
AcDbLine
10
-82.889156854872951
20
13.523635095546824
30
2.7755575615628914e-16
11
-82.609970112744264
21
13.335321690622354
31
2.7755575615628914e-16
0
LINE
5
204
100
AcDbEntity
8
0
100
AcDbLine
10
-82.609970112744264
20
13.335321690622354
30
2.7755575615628914e-16
11
-82.273791217506243
21
13.131132789330733
31
2.7755575615628914e-16
0
LINE
5
205
100
AcDbEntity
8
0
100
AcDbLine
10
-82.273791217506243
20
13.131132789330733
30
2.7755575615628914e-16
11
-81.885667685658504
21
12.937040902561357
31
2.7755575615628914e-16
0
LINE
5
206
100
AcDbEntity
8
0
100
AcDbLine
10
-81.885667685658504
20
12.937040902561357
30
2.7755575615628914e-16
11
-81.440551009939881
21
12.727073712009355
31
2.7755575615628914e-16
0
LINE
5
207
100
AcDbEntity
8
0
100
AcDbLine
10
-81.440551009939881
20
12.727073712009355
30
2.7755575615628914e-16
11
-80.943489697611511
21
12.527203535979602
31
2.7755575615628914e-16
0
LINE
5
208
100
AcDbEntity
8
0
100
AcDbLine
10
-80.943489697611511
20
12.527203535979602
30
2.7755575615628914e-16
11
-80.368511925749274
21
12.342478785440958
31
2.7755575615628914e-16
0
LINE
5
209
100
AcDbEntity
8
0
100
AcDbLine
10
-80.368511925749274
20
12.342478785440958
30
2.7755575615628914e-16
11
-80.057575470524625
21
12.268150980292933
31
2.7755575615628914e-16
0
LINE
5
210
100
AcDbEntity
8
0
100
AcDbLine
10
-80.057575470524625
20
12.268150980292933
30
2.7755575615628914e-16
11
-79.886597125965835
21
12.220525371741296
31
2.7755575615628914e-16
0
LINE
5
211
100
AcDbEntity
8
0
100
AcDbLine
10
-79.886597125965835
20
12.220525371741296
30
2.7755575615628914e-16
11
-78.921975920274065
21
13.081867387088369
31
2.7755575615628914e-16
0
LINE
5
212
100
AcDbEntity
8
0
100
AcDbLine
10
-78.921975920274065
20
13.081867387088369
30
2.7755575615628914e-16
11
-79.23498211866432
21
14.692144682040508
31
2.7755575615628914e-16
0
LINE
5
213
100
AcDbEntity
8
0
100
AcDbLine
10
-79.23498211866432
20
14.692144682040508
30
2.7755575615628914e-16
11
-79.403771323729345
21
15.144499004514046
31
2.7755575615628914e-16
0
LINE
5
214
100
AcDbEntity
8
0
100
AcDbLine
10
-79.403771323729345
20
15.144499004514046
30
2.7755575615628914e-16
11
-79.562463514272125
21
15.544908690377833
31
2.7755575615628914e-16
0
LINE
5
215
100
AcDbEntity
8
0
100
AcDbLine
10
-79.562463514272125
20
15.544908690377833
30
2.7755575615628914e-16
11
-79.711058882877182
21
15.893374730393411
31
2.7755575615628914e-16
0
LINE
5
216
100
AcDbEntity
8
0
100
AcDbLine
10
-79.711058882877182
20
15.893374730393411
30
2.7755575615628914e-16
11
-79.875530050645636
21
16.18484753024585
31
2.7755575615628914e-16
0
LINE
5
217
100
AcDbEntity
8
0
100
AcDbLine
10
-79.875530050645636
20
16.18484753024585
30
2.7755575615628914e-16
11
-80.029904203891832
21
16.424375693488546
31
2.7755575615628914e-16
0
LINE
5
218
100
AcDbEntity
8
0
100
AcDbLine
10
-80.029904203891832
20
16.424375693488546
30
2.7755575615628914e-16
11
-80.148208528930155
21
16.617007823674889
31
2.7755575615628914e-16
0
LINE
5
219
100
AcDbEntity
8
0
100
AcDbLine
10
-80.148208528930155
20
16.617007823674889
30
2.7755575615628914e-16
11
-80.256415839446205
21
16.757695317251482
31
2.7755575615628914e-16
0
LINE
5
220
100
AcDbEntity
8
0
100
AcDbLine
10
-80.256415839446205
20
16.757695317251482
30
2.7755575615628914e-16
11
-80.359574738993416
21
16.872410987903972
31
2.7755575615628914e-16
0
LINE
5
221
100
AcDbEntity
8
0
100
AcDbLine
10
-80.359574738993416
20
16.872410987903972
30
2.7755575615628914e-16
11
-80.426664801094262
21
16.940230432915577
31
2.7755575615628914e-16
0
LINE
5
222
100
AcDbEntity
8
0
100
AcDbLine
10
-80.426664801094262
20
16.940230432915577
30
2.7755575615628914e-16
11
-81.883178521055811
21
18.193465166984687
31
2.7755575615628914e-16
0
LINE
5
223
100
AcDbEntity
8
0
100
AcDbLine
10
-81.883178521055811
20
18.193465166984687
30
2.7755575615628914e-16
11
-80.235251845896045
21
20.670073334527068
31
2.7755575615628914e-16
0
LINE
5
224
100
AcDbEntity
8
0
100
AcDbLine
10
-80.235251845896045
20
20.670073334527068
30
2.7755575615628914e-16
11
-78.558673920860258
21
19.810010639566833
31
2.7755575615628914e-16
0
LINE
5
225
100
AcDbEntity
8
0
100
AcDbLine
10
-78.558673920860258
20
19.810010639566833
30
2.7755575615628914e-16
11
-78.532701602555392
21
19.815059146827959
31
2.7755575615628914e-16
0
LINE
5
226
100
AcDbEntity
8
0
100
AcDbLine
10
-78.532701602555392
20
19.815059146827959
30
2.7755575615628914e-16
11
-78.439639717530426
21
19.752288112785216
31
2.7755575615628914e-16
0
LINE
5
227
100
AcDbEntity
8
0
100
AcDbLine
10
-78.439639717530426
20
19.752288112785216
30
2.7755575615628914e-16
11
-78.294633195895727
21
19.699614093264714
31
2.7755575615628914e-16
0
LINE
5
228
100
AcDbEntity
8
0
100
AcDbLine
10
-78.294633195895727
20
19.699614093264714
30
2.7755575615628914e-16
11
-78.123654355956148
21
19.651988581005348
31
2.7755575615628914e-16
0
LINE
5
229
100
AcDbEntity
8
0
100
AcDbLine
10
-78.123654355956148
20
19.651988581005348
30
2.7755575615628914e-16
11
-77.900731374787597
21
19.614459986975959
31
2.7755575615628914e-16
0
LINE
5
230
100
AcDbEntity
8
0
100
AcDbLine
10
-77.900731374787597
20
19.614459986975959
30
2.7755575615628914e-16
11
-77.625863757009299
21
19.587028407468814
31
2.7755575615628914e-16
0
LINE
5
231
100
AcDbEntity
8
0
100
AcDbLine
10
-77.625863757009299
20
19.587028407468814
30
2.7755575615628914e-16
11
-77.299051502621253
21
19.569693842483925
31
2.7755575615628914e-16
0
LINE
5
232
100
AcDbEntity
8
0
100
AcDbLine
10
-77.299051502621253
20
19.569693842483925
30
2.7755575615628914e-16
11
-76.920295107004236
21
19.562456195729016
31
2.7755575615628914e-16
0
LINE
5
233
100
AcDbEntity
8
0
100
AcDbLine
10
-76.920295107004236
20
19.562456195729016
30
2.7755575615628914e-16
11
-76.494642485746311
21
19.591287386420461
31
2.7755575615628914e-16
0
LINE
5
234
100
AcDbEntity
8
0
100
AcDbLine
10
-76.494642485746311
20
19.591287386420461
30
2.7755575615628914e-16
11
-76.017045723259415
21
19.630215495341893
31
2.7755575615628914e-16
0
LINE
5
235
100
AcDbEntity
8
0
100
AcDbLine
10
-76.017045723259415
20
19.630215495341893
30
2.7755575615628914e-16
11
-74.406768180616893
21
19.943221741878268
31
2.7755575615628914e-16
0
LINE
5
236
100
AcDbEntity
8
0
100
AcDbLine
10
-74.406768180616893
20
19.943221741878268
30
2.7755575615628914e-16
11
-73.995471305142487
21
21.155218888588578
31
2.7755575615628914e-16
0
LINE
5
237
100
AcDbEntity
8
0
100
AcDbLine
10
-73.995471305142487
20
21.155218888588578
30
2.7755575615628914e-16
11
-74.108727466902337
21
21.321879147704678
31
2.7755575615628914e-16
0
LINE
5
238
100
AcDbEntity
8
0
100
AcDbLine
10
-74.108727466902337
20
21.321879147704678
30
2.7755575615628914e-16
11
-74.294121854041492
21
21.582330722902622
31
2.7755575615628914e-16
0
LINE
5
239
100
AcDbEntity
8
0
100
AcDbLine
10
-74.294121854041492
20
21.582330722902622
30
2.7755575615628914e-16
11
-74.675737713718135
21
22.02026989726507
31
2.7755575615628914e-16
0
LINE
5
240
100
AcDbEntity
8
0
100
AcDbLine
10
-74.675737713718135
20
22.02026989726507
30
2.7755575615628914e-16
11
-75.047256558872505
21
22.406264435017775
31
2.7755575615628914e-16
0
LINE
5
241
100
AcDbEntity
8
0
100
AcDbLine
10
-75.047256558872505
20
22.406264435017775
30
2.7755575615628914e-16
11
-75.408678389504644
21
22.740314336160729
31
2.7755575615628914e-16
0
LINE
5
242
100
AcDbEntity
8
0
100
AcDbLine
10
-75.408678389504644
20
22.740314336160729
30
2.7755575615628914e-16
11
-75.760002957924144
21
23.022419648840071
31
2.7755575615628914e-16
0
LINE
5
243
100
AcDbEntity
8
0
100
AcDbLine
10
-75.760002957924144
20
23.022419648840071
30
2.7755575615628914e-16
11
-76.075258441206898
21
23.257628784024654
31
2.7755575615628914e-16
0
LINE
5
244
100
AcDbEntity
8
0
100
AcDbLine
10
-76.075258441206898
20
23.257628784024654
30
2.7755575615628914e-16
11
-76.354444784247079
21
23.445942780622158
31
2.7755575615628914e-16
0
LINE
5
245
100
AcDbEntity
8
0
100
AcDbLine
10
-76.354444784247079
20
23.445942780622158
30
2.7755575615628914e-16
11
-76.59756179446012
21
23.587360647871041
31
2.7755575615628914e-16
0
LINE
5
246
100
AcDbEntity
8
0
100
AcDbLine
10
-76.59756179446012
20
23.587360647871041
30
2.7755575615628914e-16
11
-76.804609967226824
21
23.681882289479034
31
2.7755575615628914e-16
0
LINE
5
247
100
AcDbEntity
8
0
100
AcDbLine
10
-76.804609967226824
20
23.681882289479034
30
2.7755575615628914e-16
11
-76.980637410719794
21
23.755480615424048
31
2.7755575615628914e-16
0
LINE
5
248
100
AcDbEntity
8
0
100
AcDbLine
10
-76.980637410719794
20
23.755480615424048
30
2.7755575615628914e-16
11
-77.125643932354492
21
23.808154634944536
31
2.7755575615628914e-16
0
LINE
5
249
100
AcDbEntity
8
0
100
AcDbLine
10
-77.125643932354492
20
23.808154634944536
30
2.7755575615628914e-16
11
-77.213657406410604
21
23.844953846063177
31
2.7755575615628914e-16
0
LINE
5
250
100
AcDbEntity
8
0
100
AcDbLine
10
-77.213657406410604
20
23.844953846063177
30
2.7755575615628914e-16
11
-79.085056903922734
21
24.181982415009394
31
2.7755575615628914e-16
0
LINE
5
251
100
AcDbEntity
8
0
100
AcDbLine
10
-79.085056903922734
20
24.181982415009394
30
2.7755575615628914e-16
11
-78.903071822027016
21
27.128340509878196
31
2.7755575615628914e-16
0
LINE
5
252
100
AcDbEntity
8
0
100
AcDbLine
10
-78.903071822027016
20
27.128340509878196
30
2.7755575615628914e-16
11
-77.008559277685066
21
27.22706098503911
31
2.7755575615628914e-16
0
LINE
5
253
100
AcDbEntity
8
0
100
AcDbLine
10
-77.008559277685066
20
27.22706098503911
30
2.7755575615628914e-16
11
-76.333281478662201
21
27.358321692367007
31
2.7755575615628914e-16
0
LINE
5
254
100
AcDbEntity
8
0
100
AcDbLine
10
-76.333281478662201
20
27.358321692367007
30
2.7755575615628914e-16
11
-76.062732586145771
21
27.491772529950225
31
2.7755575615628914e-16
0
LINE
5
255
100
AcDbEntity
8
0
100
AcDbLine
10
-76.062732586145771
20
27.491772529950225
30
2.7755575615628914e-16
11
-75.766211623014868
21
27.630271826648443
31
2.7755575615628914e-16
0
LINE
5
256
100
AcDbEntity
8
0
100
AcDbLine
10
-75.766211623014868
20
27.630271826648443
30
2.7755575615628914e-16
11
-75.427843092902293
21
27.830811735570983
31
2.7755575615628914e-16
0
LINE
5
257
100
AcDbEntity
8
0
100
AcDbLine
10
-75.427843092902293
20
27.830811735570983
30
2.7755575615628914e-16
11
-75.06855065545372
21
28.062371974678754
31
2.7755575615628914e-16
0
LINE
5
258
100
AcDbEntity
8
0
100
AcDbLine
10
-75.06855065545372
20
28.062371974678754
30
2.7755575615628914e-16
11
-74.667411036192576
21
28.355974807533912
31
2.7755575615628914e-16
0
LINE
5
259
100
AcDbEntity
8
0
100
AcDbLine
10
-74.667411036192576
20
28.355974807533912
30
2.7755575615628914e-16
11
-74.250395920564245
21
28.706569793498417
31
2.7755575615628914e-16
0
LINE
5
260
100
AcDbEntity
8
0
100
AcDbLine
10
-74.250395920564245
20
28.706569793498417
30
2.7755575615628914e-16
11
-73.817505432413967
21
29.114156908499183
31
2.7755575615628914e-16
0
LINE
5
261
100
AcDbEntity
8
0
100
AcDbLine
10
-73.817505432413967
20
29.114156908499183
30
2.7755575615628914e-16
11
-73.593122502077847
21
29.346446530517699
31
2.7755575615628914e-16
0
LINE
5
262
100
AcDbEntity
8
0
100
AcDbLine
10
-73.593122502077847
20
29.346446530517699
30
2.7755575615628914e-16
11
-73.483455434978737
21
29.475578243750547
31
2.7755575615628914e-16
0
LINE
5
263
100
AcDbEntity
8
0
100
AcDbLine
10
-73.483455434978737
20
29.475578243750547
30
2.7755575615628914e-16
11
-73.730831424143432
21
30.748217382262411
31
2.7755575615628914e-16
0
LINE
5
264
100
AcDbEntity
8
0
100
AcDbLine
10
-73.730831424143432
20
30.748217382262411
30
2.7755575615628914e-16
11
-73.880886549331549
21
30.826864215468547
31
2.7755575615628914e-16
0
LINE
5
265
100
AcDbEntity
8
0
100
AcDbLine
10
-73.880886549331549
20
30.826864215468547
30
2.7755575615628914e-16
11
-74.170899592600946
21
30.932212254509537
31
2.7755575615628914e-16
0
LINE
5
266
100
AcDbEntity
8
0
100
AcDbLine
10
-74.170899592600946
20
30.932212254509537
30
2.7755575615628914e-16
11
-74.719905073711217
21
31.12198499285547
31
2.7755575615628914e-16
0
LINE
5
267
100
AcDbEntity
8
0
100
AcDbLine
10
-74.719905073711217
20
31.12198499285547
30
2.7755575615628914e-16
11
-75.232841538424097
21
31.264862568541254
31
2.7755575615628914e-16
0
LINE
5
268
100
AcDbEntity
8
0
100
AcDbLine
10
-75.232841538424097
20
31.264862568541254
30
2.7755575615628914e-16
11
-75.709708477725314
21
31.360843024116882
31
2.7755575615628914e-16
0
LINE
5
269
100
AcDbEntity
8
0
100
AcDbLine
10
-75.709708477725314
20
31.360843024116882
30
2.7755575615628914e-16
11
-76.155554935443192
21
31.435900115883388
31
2.7755575615628914e-16
0
LINE
5
270
100
AcDbEntity
8
0
100
AcDbLine
10
-76.155554935443192
20
31.435900115883388
30
2.7755575615628914e-16
11
-76.539359934613614
21
31.469110576323942
31
2.7755575615628914e-16
0
LINE
5
271
100
AcDbEntity
8
0
100
AcDbLine
10
-76.539359934613614
20
31.469110576323942
30
2.7755575615628914e-16
11
-76.866172133895816
21
31.486446180216497
31
2.7755575615628914e-16
0
LINE
5
272
100
AcDbEntity
8
0
100
AcDbLine
10
-76.866172133895816
20
31.486446180216497
30
2.7755575615628914e-16
11
-77.161963466425604
21
31.482856438776878
31
2.7755575615628914e-16
0
LINE
5
273
100
AcDbEntity
8
0
100
AcDbLine
10
-77.161963466425604
20
31.482856438776878
30
2.7755575615628914e-16
11
-77.395713340407909
21
31.437420066011292
31
2.7755575615628914e-16
0
LINE
5
274
100
AcDbEntity
8
0
100
AcDbLine
10
-77.395713340407909
20
31.437420066011292
30
2.7755575615628914e-16
11
-77.587615895098978
21
31.454024257323891
31
2.7755575615628914e-16
0
LINE
5
275
100
AcDbEntity
8
0
100
AcDbLine
10
-77.587615895098978
20
31.454024257323891
30
2.7755575615628914e-16
11
-77.821365769081297
21
31.408587884558308
31
2.7755575615628914e-16
0
LINE
5
276
100
AcDbEntity
8
0
100
AcDbLine
10
-77.821365769081297
20
31.408587884558308
30
2.7755575615628914e-16
11
-79.609860142400947
21
30.764451201898915
31
2.7755575615628914e-16
0
LINE
5
277
100
AcDbEntity
8
0
100
AcDbLine
10
-79.609860142400947
20
30.764451201898915
30
2.7755575615628914e-16
11
-80.934263577618637
21
33.417997031129701
31
2.7755575615628914e-16
0
LINE
5
278
100
AcDbEntity
8
0
100
AcDbLine
10
-80.934263577618637
20
33.417997031129701
30
2.7755575615628914e-16
11
-79.356406031451499
21
34.452446385130635
31
2.7755575615628914e-16
0
LINE
5
279
100
AcDbEntity
8
0
100
AcDbLine
10
-79.356406031451499
20
34.452446385130635
30
2.7755575615628914e-16
11
-79.330433713146618
21
34.457494892391757
31
2.7755575615628914e-16
0
LINE
5
280
100
AcDbEntity
8
0
100
AcDbLine
10
-79.330433713146618
20
34.457494892391757
30
2.7755575615628914e-16
11
-79.262614075550488
21
34.524583963731075
31
2.7755575615628914e-16
0
LINE
5
281
100
AcDbEntity
8
0
100
AcDbLine
10
-79.262614075550488
20
34.524583963731075
30
2.7755575615628914e-16
11
-79.173870915787404
21
34.622695346778698
31
2.7755575615628914e-16
0
LINE
5
282
100
AcDbEntity
8
0
100
AcDbLine
10
-79.173870915787404
20
34.622695346778698
30
2.7755575615628914e-16
11
-79.038231530383442
21
34.756875567272665
31
2.7755575615628914e-16
0
LINE
5
283
100
AcDbEntity
8
0
100
AcDbLine
10
-79.038231530383442
20
34.756875567272665
30
2.7755575615628914e-16
11
-78.886716648612307
21
34.948047940875973
31
2.7755575615628914e-16
0
LINE
5
284
100
AcDbEntity
8
0
100
AcDbLine
10
-78.886716648612307
20
34.948047940875973
30
2.7755575615628914e-16
11
-78.71427835488592
21
35.170240548372234
31
2.7755575615628914e-16
0
LINE
5
285
100
AcDbEntity
8
0
100
AcDbLine
10
-78.71427835488592
20
35.170240548372234
30
2.7755575615628914e-16
11
-78.525964949961462
21
35.449427290500914
31
2.7755575615628914e-16
0
LINE
5
286
100
AcDbEntity
8
0
100
AcDbLine
10
-78.525964949961462
20
35.449427290500914
30
2.7755575615628914e-16
11
-78.321776048669832
21
35.785606185738928
31
2.7755575615628914e-16
0
LINE
5
287
100
AcDbEntity
8
0
100
AcDbLine
10
-78.321776048669832
20
35.785606185738928
30
2.7755575615628914e-16
11
-78.127684354484984
21
36.173730708348216
31
2.7755575615628914e-16
0
LINE
5
288
100
AcDbEntity
8
0
100
AcDbLine
10
-78.127684354484984
20
36.173730708348216
30
2.7755575615628914e-16
11
-77.917717163932991
21
36.618847384066832
31
2.7755575615628914e-16
0
LINE
5
289
100
AcDbEntity
8
0
100
AcDbLine
10
-77.917717163932991
20
36.618847384066832
30
2.7755575615628914e-16
11
-77.717846795318707
21
37.115907705633674
31
2.7755575615628914e-16
0
LINE
5
290
100
AcDbEntity
8
0
100
AcDbLine
10
-77.717846795318707
20
37.115907705633674
30
2.7755575615628914e-16
11
-77.533122044780058
21
37.690885477495904
31
2.7755575615628914e-16
0
LINE
5
291
100
AcDbEntity
8
0
100
AcDbLine
10
-77.533122044780058
20
37.690885477495904
30
2.7755575615628914e-16
11
-77.458794239632027
21
38.001821932720546
31
2.7755575615628914e-16
0
LINE
5
292
100
AcDbEntity
8
0
100
AcDbLine
10
-77.458794239632027
20
38.001821932720546
30
2.7755575615628914e-16
11
-77.411168383390006
21
38.172800325425492
31
2.7755575615628914e-16
0
LINE
5
293
100
AcDbEntity
8
0
100
AcDbLine
10
-77.411168383390006
20
38.172800325425492
30
2.7755575615628914e-16
11
-77.421265205327728
21
38.224743971273703
31
2.7755575615628914e-16
0
LINE
5
294
100
AcDbEntity
8
0
100
AcDbLine
10
-77.421265205327728
20
38.224743971273703
30
2.7755575615628914e-16
11
-78.282607028090268
21
39.18936418620391
31
2.7755575615628914e-16
0
LINE
5
295
100
AcDbEntity
8
0
100
AcDbLine
10
-78.282607028090268
20
39.18936418620391
30
2.7755575615628914e-16
11
-79.892884570732789
21
38.876357939667528
31
2.7755575615628914e-16
0
LINE
5
296
100
AcDbEntity
8
0
100
AcDbLine
10
-79.892884570732789
20
38.876357939667528
30
2.7755575615628914e-16
11
-80.345238700621792
21
38.707567743840968
31
2.7755575615628914e-16
0
LINE
5
297
100
AcDbEntity
8
0
100
AcDbLine
10
-80.345238700621792
20
38.707567743840968
30
2.7755575615628914e-16
11
-80.745648689281808
21
38.548874466244392
31
2.7755575615628914e-16
0
LINE
5
298
100
AcDbEntity
8
0
100
AcDbLine
10
-80.745648689281808
20
38.548874466244392
30
2.7755575615628914e-16
11
-81.094114041332091
21
38.40027820317006
31
2.7755575615628914e-16
0
LINE
5
299
100
AcDbEntity
8
0
100
AcDbLine
10
-81.094114041332091
20
38.40027820317006
30
2.7755575615628914e-16
11
-81.385586841184519
21
38.235807035401606
31
2.7755575615628914e-16
0
LINE
5
300
100
AcDbEntity
8
0
100
AcDbLine
10
-81.385586841184519
20
38.235807035401606
30
2.7755575615628914e-16
11
-81.625115004427244
21
38.081432882155404
31
2.7755575615628914e-16
0
LINE
5
301
100
AcDbEntity
8
0
100
AcDbLine
10
-81.625115004427244
20
38.081432882155404
30
2.7755575615628914e-16
11
-81.817746942029018
21
37.963127566355553
31
2.7755575615628914e-16
0
LINE
5
302
100
AcDbEntity
8
0
100
AcDbLine
10
-81.817746942029018
20
37.963127566355553
30
2.7755575615628914e-16
11
-81.958434738401863
21
37.854919168785692
31
2.7755575615628914e-16
0
LINE
5
303
100
AcDbEntity
8
0
100
AcDbLine
10
-81.958434738401863
20
37.854919168785692
30
2.7755575615628914e-16
11
-82.073150216469827
21
37.751759278476946
31
2.7755575615628914e-16
0
LINE
5
304
100
AcDbEntity
8
0
100
AcDbLine
10
-82.073150216469827
20
37.751759278476946
30
2.7755575615628914e-16
11
-82.140969854065958
21
37.684670207137628
31
2.7755575615628914e-16
0
LINE
5
305
100
AcDbEntity
8
0
100
AcDbLine
10
-82.140969854065958
20
37.684670207137628
30
2.7755575615628914e-16
11
-83.363183363480573
21
36.207233267805393
31
2.7755575615628914e-16
0
LINE
5
306
100
AcDbEntity
8
0
100
AcDbLine
10
-83.363183363480573
20
36.207233267805393
30
2.7755575615628914e-16
11
-85.839791531022939
21
37.855159942965145
31
2.7755575615628914e-16
0
LINE
5
307
100
AcDbEntity
8
0
100
AcDbLine
10
-85.839791531022939
20
37.855159942965145
30
2.7755575615628914e-16
11
-84.979728739770451
21
39.531737372620157
31
2.7755575615628914e-16
0
LINE
5
308
100
AcDbEntity
8
0
100
AcDbLine
10
-84.979728739770451
20
39.531737372620157
30
2.7755575615628914e-16
11
-84.947978132205208
21
39.645723660361895
31
2.7755575615628914e-16
0
LINE
5
309
100
AcDbEntity
8
0
100
AcDbLine
10
-84.947978132205208
20
39.645723660361895
30
2.7755575615628914e-16
11
-84.895304497853772
21
39.790732163519678
31
2.7755575615628914e-16
0
LINE
5
310
100
AcDbEntity
8
0
100
AcDbLine
10
-84.895304497853772
20
39.790732163519678
30
2.7755575615628914e-16
11
-84.847679274471204
21
39.961712489601553
31
2.7755575615628914e-16
0
LINE
5
311
100
AcDbEntity
8
0
100
AcDbLine
10
-84.847679274471204
20
39.961712489601553
30
2.7755575615628914e-16
11
-84.810150873026345
21
40.184636461531646
31
2.7755575615628914e-16
0
LINE
5
312
100
AcDbEntity
8
0
100
AcDbLine
10
-84.810150873026345
20
40.184636461531646
30
2.7755575615628914e-16
11
-84.782719293519207
21
40.459504079309951
31
2.7755575615628914e-16
0
LINE
5
313
100
AcDbEntity
8
0
100
AcDbLine
10
-84.782719293519207
20
40.459504079309951
30
2.7755575615628914e-16
11
-84.765384535949778
21
40.786315342936462
31
2.7755575615628914e-16
0
LINE
5
314
100
AcDbEntity
8
0
100
AcDbLine
10
-84.765384535949778
20
40.786315342936462
30
2.7755575615628914e-16
11
-84.758146600318071
21
41.165070252411169
31
2.7755575615628914e-16
0
LINE
5
315
100
AcDbEntity
8
0
100
AcDbLine
10
-84.758146600318071
20
41.165070252411169
30
2.7755575615628914e-16
11
-84.786978079886325
21
41.590724359811404
31
2.7755575615628914e-16
0
LINE
5
316
100
AcDbEntity
8
0
100
AcDbLine
10
-84.786978079886325
20
41.590724359811404
30
2.7755575615628914e-16
11
-84.825906381392272
21
42.068322113059821
31
2.7755575615628914e-16
0
LINE
5
317
100
AcDbEntity
8
0
100
AcDbLine
10
-84.825906381392272
20
42.068322113059821
30
2.7755575615628914e-16
11
-85.138912483490259
21
43.678598912631188
31
2.7755575615628914e-16
0
LINE
5
318
100
AcDbEntity
8
0
100
AcDbLine
10
-85.138912483490259
20
43.678598912631188
30
2.7755575615628914e-16
11
-86.350909293177637
21
44.089894054272911
31
2.7755575615628914e-16
0
LINE
5
319
100
AcDbEntity
8
0
100
AcDbLine
10
-86.350909293177637
20
44.089894054272911
30
2.7755575615628914e-16
11
-86.465624771245587
21
43.986734163964158
31
2.7755575615628914e-16
0
LINE
5
320
100
AcDbEntity
8
0
100
AcDbLine
10
-86.465624771245587
20
43.986734163964158
30
2.7755575615628914e-16
11
-86.72607634644352
21
43.801339776825003
31
2.7755575615628914e-16
0
LINE
5
321
100
AcDbEntity
8
0
100
AcDbLine
10
-86.72607634644352
20
43.801339776825003
30
2.7755575615628914e-16
11
-87.164015231929199
21
43.419722431006058
31
2.7755575615628914e-16
0
LINE
5
322
100
AcDbEntity
8
0
100
AcDbLine
10
-87.164015231929199
20
43.419722431006058
30
2.7755575615628914e-16
11
-87.550009480805073
21
43.048202099709371
31
2.7755575615628914e-16
0
LINE
5
323
100
AcDbEntity
8
0
100
AcDbLine
10
-87.550009480805073
20
43.048202099709371
30
2.7755575615628914e-16
11
-87.88405909307123
21
42.686778782934937
31
2.7755575615628914e-16
0
LINE
5
324
100
AcDbEntity
8
0
100
AcDbLine
10
-87.88405909307123
20
42.686778782934937
30
2.7755575615628914e-16
11
-88.166164068727653
21
42.335452480682747
31
2.7755575615628914e-16
0
LINE
5
325
100
AcDbEntity
8
0
100
AcDbLine
10
-88.166164068727653
20
42.335452480682747
30
2.7755575615628914e-16
11
-88.401373203912229
21
42.020196997399985
31
2.7755575615628914e-16
0
LINE
5
326
100
AcDbEntity
8
0
100
AcDbLine
10
-88.401373203912229
20
42.020196997399985
30
2.7755575615628914e-16
11
-88.589687489386534
21
41.741012140502121
31
2.7755575615628914e-16
0
LINE
5
327
100
AcDbEntity
8
0
100
AcDbLine
10
-88.589687489386534
20
41.741012140502121
30
2.7755575615628914e-16
11
-88.731105164050888
21
41.497894139527531
31
2.7755575615628914e-16
0
LINE
5
328
100
AcDbEntity
8
0
100
AcDbLine
10
-88.731105164050888
20
41.497894139527531
30
2.7755575615628914e-16
11
-88.825626998243408
21
41.290846957522362
31
2.7755575615628914e-16
0
LINE
5
329
100
AcDbEntity
8
0
100
AcDbLine
10
-88.825626998243408
20
41.290846957522362
30
2.7755575615628914e-16
11
-88.899225035311616
21
41.114818027887097
31
2.7755575615628914e-16
0
LINE
5
330
100
AcDbEntity
8
0
100
AcDbLine
10
-88.899225035311616
20
41.114818027887097
30
2.7755575615628914e-16
11
-88.951899054832097
21
40.969811506252391
31
2.7755575615628914e-16
0
LINE
5
331
100
AcDbEntity
8
0
100
AcDbLine
10
-88.951899054832097
20
40.969811506252391
30
2.7755575615628914e-16
11
-88.988698073366223
21
40.881797041434751
31
2.7755575615628914e-16
0
SPLINE
5
332
100
AcDbEntity
8
0
100
AcDbSpline
70
0
71
2
72
6
73
3
74
0
42
0.000000001
43
0.0000000001
44
0.0000000001
40
0
40
0
40
0
40
1
40
1
40
1
10
-88.988698073366223
20
40.881797041434751
30
2.7755575615628914e-16
10
-88.983649277228309
20
40.855823236987575
30
2.7755575615628914e-16
10
-89.32067803875907
20
38.984424730236974
30
2.7755575615628914e-16
0
LINE
5
333
100
AcDbEntity
8
0
100
AcDbLine
10
-89.32067803875907
20
38.984424730236974
30
2.7755575615628914e-16
11
-92.267035335450856
21
39.16641099547877
31
2.7755575615628914e-16
0
LINE
5
334
100
AcDbEntity
8
0
100
AcDbLine
10
-92.267035335450856
20
39.16641099547877
30
2.7755575615628914e-16
11
-92.365756099488564
21
41.060925025963016
31
2.7755575615628914e-16
0
LINE
5
335
100
AcDbEntity
8
0
100
AcDbLine
10
-92.365756099488564
20
41.060925025963016
30
2.7755575615628914e-16
11
-92.497017095693252
21
41.736204311128176
31
2.7755575615628914e-16
0
LINE
5
336
100
AcDbEntity
8
0
100
AcDbLine
10
-92.497017095693252
20
41.736204311128176
30
2.7755575615628914e-16
11
-92.630468222153283
21
42.006754689786916
31
2.7755575615628914e-16
0
LINE
5
337
100
AcDbEntity
8
0
100
AcDbLine
10
-92.630468222153283
20
42.006754689786916
30
2.7755575615628914e-16
11
-92.768967374413108
21
42.303274909846664
31
2.7755575615628914e-16
0
LINE
5
338
100
AcDbEntity
8
0
100
AcDbLine
10
-92.768967374413108
20
42.303274909846664
30
2.7755575615628914e-16
11
-92.96950699445884
21
42.641641953816929
31
2.7755575615628914e-16
0
LINE
5
339
100
AcDbEntity
8
0
100
AcDbLine
10
-92.96950699445884
20
42.641641953816929
30
2.7755575615628914e-16
11
-93.20106723356659
21
43.000934391265503
31
2.7755575615628914e-16
0
LINE
5
340
100
AcDbEntity
8
0
100
AcDbLine
10
-93.20106723356659
20
43.000934391265503
30
2.7755575615628914e-16
11
-93.494669921983373
21
43.402073267455521
31
2.7755575615628914e-16
0
LINE
5
341
100
AcDbEntity
8
0
100
AcDbLine
10
-93.494669921983373
20
43.402073267455521
30
2.7755575615628914e-16
11
-93.845265052386267
21
43.819089126154971
31
2.7755575615628914e-16
0
LINE
5
342
100
AcDbEntity
8
0
100
AcDbLine
10
-93.845265052386267
20
43.819089126154971
30
2.7755575615628914e-16
11
-94.252851854437154
21
44.251978004317756
31
2.7755575615628914e-16
0
LINE
5
343
100
AcDbEntity
8
0
100
AcDbLine
10
-94.252851854437154
20
44.251978004317756
30
2.7755575615628914e-16
11
-94.485141476455681
21
44.476360934653876
31
2.7755575615628914e-16
0
LINE
5
344
100
AcDbEntity
8
0
100
AcDbLine
10
-94.485141476455681
20
44.476360934653876
30
2.7755575615628914e-16
11
-94.614273189688532
21
44.586028001752986
31
2.7755575615628914e-16
0
LINE
5
345
100
AcDbEntity
8
0
100
AcDbLine
10
-94.614273189688532
20
44.586028001752986
30
2.7755575615628914e-16
11
-95.86094050527629
21
44.343700423557152
31
2.7755575615628914e-16
0
LINE
5
346
100
AcDbEntity
8
0
100
AcDbLine
10
-95.86094050527629
20
44.343700423557152
30
2.7755575615628914e-16
11
-95.908566719420406
21
44.172719904890734
31
2.7755575615628914e-16
0
LINE
5
347
100
AcDbEntity
8
0
100
AcDbLine
10
-95.908566719420406
20
44.172719904890734
30
2.7755575615628914e-16
11
-96.013914758461397
21
43.88270686162133
31
2.7755575615628914e-16
0
LINE
5
348
100
AcDbEntity
8
0
100
AcDbLine
10
-96.013914758461397
20
43.88270686162133
30
2.7755575615628914e-16
11
-96.203687809757184
21
43.333702990498544
31
2.7755575615628914e-16
0
LINE
5
349
100
AcDbEntity
8
0
100
AcDbLine
10
-96.203687809757184
20
43.333702990498544
30
2.7755575615628914e-16
11
-96.346565241004569
21
42.82076578271451
31
2.7755575615628914e-16
0
LINE
5
350
100
AcDbEntity
8
0
100
AcDbLine
10
-96.346565241004569
20
42.82076578271451
30
2.7755575615628914e-16
11
-96.4425458410186
21
42.34389958648444
31
2.7755575615628914e-16
0
LINE
5
351
100
AcDbEntity
8
0
100
AcDbLine
10
-96.4425458410186
20
42.34389958648444
30
2.7755575615628914e-16
11
-96.517602643908305
21
41.898051642624267
31
2.7755575615628914e-16
0
LINE
5
352
100
AcDbEntity
8
0
100
AcDbLine
10
-96.517602643908305
20
41.898051642624267
30
2.7755575615628914e-16
11
-96.550813393225653
21
41.514248129596155
31
2.7755575615628914e-16
0
LINE
5
353
100
AcDbEntity
8
0
100
AcDbLine
10
-96.550813393225653
20
41.514248129596155
30
2.7755575615628914e-16
11
-96.568149141556631
21
41.187436673385108
31
2.7755575615628914e-16
0
LINE
5
354
100
AcDbEntity
8
0
100
AcDbLine
10
-96.568149141556631
20
41.187436673385108
30
2.7755575615628914e-16
11
-96.5645591112402
21
40.891643854713024
31
2.7755575615628914e-16
0
LINE
5
355
100
AcDbEntity
8
0
100
AcDbLine
10
-96.5645591112402
20
40.891643854713024
30
2.7755575615628914e-16
11
-96.519123027351412
21
40.657895466873001
31
2.7755575615628914e-16
0
LINE
5
356
100
AcDbEntity
8
0
100
AcDbLine
10
-96.519123027351412
20
40.657895466873001
30
2.7755575615628914e-16
11
-96.535727411248544
21
40.465993902943481
31
2.7755575615628914e-16
0
LINE
5
357
100
AcDbEntity
8
0
100
AcDbLine
10
-96.535727411248544
20
40.465993902943481
30
2.7755575615628914e-16
11
-96.495339353159551
21
40.2582153565045
31
2.7755575615628914e-16
0
SPLINE
5
358
100
AcDbEntity
8
0
100
AcDbSpline
70
0
71
2
72
6
73
3
74
0
42
0.000000001
43
0.0000000001
44
0.0000000001
40
0
40
0
40
0
40
1
40
1
40
1
10
-96.495339353159551
20
40.258215356504508
30
2.7755575615628914e-16
10
-96.490290557021638
20
40.232241552057324
30
2.7755575615628914e-16
10
-95.846154355823572
20
38.443749655641511
30
2.7755575615628914e-16
0
LINE
5
359
100
AcDbEntity
8
0
100
AcDbLine
10
-95.846154355823572
20
38.443749655641511
30
2.7755575615628914e-16
11
-98.499700185054365
21
37.119346220423822
31
2.7755575615628914e-16
0
LINE
5
360
100
AcDbEntity
8
0
100
AcDbLine
10
-98.499700185054365
20
37.119346220423822
30
2.7755575615628914e-16
11
-99.534149827932112
21
38.697205252733262
31
2.7755575615628914e-16
0
SPLINE
5
361
100
AcDbEntity
8
0
100
AcDbSpline
70
0
71
2
72
6
73
3
74
0
42
0.000000001
43
0.0000000001
44
0.0000000001
40
0
40
0
40
0
40
1
40
1
40
1
10
-99.534149827932083
20
38.697205252733269
30
2.7755575615628914e-16
10
-99.539198624070025
20
38.723179057180445
30
2.7755575615628914e-16
10
-99.606287117655739
20
38.790995722491971
30
2.7755575615628914e-16
0
LINE
5
362
100
AcDbEntity
8
0
100
AcDbLine
10
-99.606287117655739
20
38.790995722491971
30
2.7755575615628914e-16
11
-99.704398211826572
21
38.879737396112745
31
2.7755575615628914e-16
0
LINE
5
363
100
AcDbEntity
8
0
100
AcDbLine
10
-99.704398211826572
20
38.879737396112745
30
2.7755575615628914e-16
11
-99.838578721197308
21
39.015378267659024
31
2.7755575615628914e-16
0
LINE
5
364
100
AcDbEntity
8
0
100
AcDbLine
10
-99.838578721197308
20
39.015378267659024
30
2.7755575615628914e-16
11
-100.02975090221611
21
39.166892158668617
31
2.7755575615628914e-16
0
LINE
5
365
100
AcDbEntity
8
0
100
AcDbLine
10
-100.02975090221611
20
39.166892158668617
30
2.7755575615628914e-16
11
-100.25194370229691
21
39.339331443156532
31
2.7755575615628914e-16
0
LINE
5
366
100
AcDbEntity
8
0
100
AcDbLine
10
-100.25194370229691
20
39.339331443156532
30
2.7755575615628914e-16
11
-100.53113015554877
21
39.527643361938701
31
2.7755575615628914e-16
0
LINE
5
367
100
AcDbEntity
8
0
100
AcDbLine
10
-100.53113015554877
20
39.527643361938701
30
2.7755575615628914e-16
11
-100.86730905078679
21
39.731832263230316
31
2.7755575615628914e-16
0
LINE
5
368
100
AcDbEntity
8
0
100
AcDbLine
10
-100.86730905078679
20
39.731832263230316
30
2.7755575615628914e-16
11
-101.25543357339608
21
39.925923957415165
31
2.7755575615628914e-16
0
LINE
5
369
100
AcDbEntity
8
0
100
AcDbLine
10
-101.25543357339608
20
39.925923957415165
30
2.7755575615628914e-16
11
-101.70055053799152
21
40.135892634109467
31
2.7755575615628914e-16
0
LINE
5
370
100
AcDbEntity
8
0
100
AcDbLine
10
-101.70055053799152
20
40.135892634109467
30
2.7755575615628914e-16
11
-102.19761114843514
21
40.335764488866054
31
2.7755575615628914e-16
0
LINE
5
371
100
AcDbEntity
8
0
100
AcDbLine
10
-102.19761114843514
20
40.335764488866054
30
2.7755575615628914e-16
11
-102.77258920917417
21
40.520490725547013
31
2.7755575615628914e-16
0
LINE
5
372
100
AcDbEntity
8
0
100
AcDbLine
10
-102.77258920917417
20
40.520490725547013
30
2.7755575615628914e-16
11
-103.08352566439882
21
40.594818530695036
31
2.7755575615628914e-16
0
LINE
5
373
100
AcDbEntity
8
0
100
AcDbLine
10
-103.08352566439882
20
40.594818530695036
30
2.7755575615628914e-16
11
-103.25450420154215
21
40.64244513000822
31
2.7755575615628914e-16
0
LINE
5
374
100
AcDbEntity
8
0
100
AcDbLine
10
-103.25450420154215
20
40.64244513000822
30
2.7755575615628914e-16
11
-104.21912441647237
21
39.781103307245658
31
2.7755575615628914e-16
0
LINE
5
375
100
AcDbEntity
8
0
100
AcDbLine
10
-104.21912441647237
20
39.781103307245658
30
2.7755575615628914e-16
11
-103.9061183143744
21
38.170826507674292
31
2.7755575615628914e-16
0
LINE
5
376
100
AcDbEntity
8
0
100
AcDbLine
10
-103.9061183143744
20
38.170826507674292
30
2.7755575615628914e-16
11
-103.7373279259633
21
37.718471387023762
31
2.7755575615628914e-16
0
LINE
5
377
100
AcDbEntity
8
0
100
AcDbLine
10
-103.7373279259633
20
37.718471387023762
30
2.7755575615628914e-16
11
-103.57863435948991
21
37.318059912221429
31
2.7755575615628914e-16
0
LINE
5
378
100
AcDbEntity
8
0
100
AcDbLine
10
-103.57863435948991
20
37.318059912221429
30
2.7755575615628914e-16
11
-103.43003838529241
21
36.969596046313463
31
2.7755575615628914e-16
0
LINE
5
379
100
AcDbEntity
8
0
100
AcDbLine
10
-103.43003838529241
20
36.969596046313463
30
2.7755575615628914e-16
11
-103.26556741010847
21
36.678124237222555
31
2.7755575615628914e-16
0
LINE
5
380
100
AcDbEntity
8
0
100
AcDbLine
10
-103.26556741010847
20
36.678124237222555
30
2.7755575615628914e-16
11
-103.11119325686228
21
36.438596073979859
31
2.7755575615628914e-16
0
LINE
5
381
100
AcDbEntity
8
0
100
AcDbLine
10
-103.11119325686228
20
36.438596073979859
30
2.7755575615628914e-16
11
-102.99288774847788
21
36.245963145616514
31
2.7755575615628914e-16
0
LINE
5
382
100
AcDbEntity
8
0
100
AcDbLine
10
-102.99288774847788
20
36.245963145616514
30
2.7755575615628914e-16
11
-102.88467944720028
21
36.105275844624458
31
2.7755575615628914e-16
0
LINE
5
383
100
AcDbEntity
8
0
100
AcDbLine
10
-102.88467944720028
20
36.105275844624458
30
2.7755575615628914e-16
11
-102.78151955689155
21
35.990560366556494
31
2.7755575615628914e-16
0
LINE
5
384
100
AcDbEntity
8
0
100
AcDbLine
10
-102.78151955689155
20
35.990560366556494
30
2.7755575615628914e-16
11
-102.71443029296769
21
35.922739738198828
31
2.7755575615628914e-16
0
LINE
5
385
100
AcDbEntity
8
0
100
AcDbLine
10
-102.71443029296769
20
35.922739738198828
30
2.7755575615628914e-16
11
-101.25791676559069
21
34.669505994891246
31
2.7755575615628914e-16
0
LINE
5
386
100
AcDbEntity
8
0
100
AcDbLine
10
-101.25791676559069
20
34.669505994891246
30
2.7755575615628914e-16
11
-102.90584344075044
21
32.192897827348872
31
2.7755575615628914e-16
0
LINE
5
387
100
AcDbEntity
8
0
100
AcDbLine
10
-102.90584344075044
20
32.192897827348872
30
2.7755575615628914e-16
11
-104.58242087040546
21
33.052960618601368
31
2.7755575615628914e-16
0
LINE
5
388
100
AcDbEntity
8
0
100
AcDbLine
10
-104.58242087040546
20
33.052960618601368
30
2.7755575615628914e-16
11
-104.67548393877648
21
33.11573245082112
31
2.7755575615628914e-16
0
LINE
5
389
100
AcDbEntity
8
0
100
AcDbLine
10
-104.67548393877648
20
33.11573245082112
30
2.7755575615628914e-16
11
-104.82049065299574
21
33.168407461103151
31
2.7755575615628914e-16
0
LINE
5
390
100
AcDbEntity
8
0
100
AcDbLine
10
-104.82049065299574
20
33.168407461103151
30
2.7755575615628914e-16
11
-104.99146919013909
21
33.216034060416327
31
2.7755575615628914e-16
0
LINE
5
391
100
AcDbEntity
8
0
100
AcDbLine
10
-104.99146919013909
20
33.216034060416327
30
2.7755575615628914e-16
11
-105.21439335465368
21
33.253563452622721
31
2.7755575615628914e-16
0
LINE
5
392
100
AcDbEntity
8
0
100
AcDbLine
10
-105.21439335465368
20
33.253563452622721
30
2.7755575615628914e-16
11
-105.48926116501653
21
33.280996022891401
31
2.7755575615628914e-16
0
LINE
5
393
100
AcDbEntity
8
0
100
AcDbLine
10
-105.48926116501653
20
33.280996022891401
30
2.7755575615628914e-16
11
-105.81607262122758
21
33.298331771222358
31
2.7755575615628914e-16
0
LINE
5
394
100
AcDbEntity
8
0
100
AcDbLine
10
-105.81607262122758
20
33.298331771222358
30
2.7755575615628914e-16
11
-106.19482970480989
21
33.305570312446534
31
2.7755575615628914e-16
0
LINE
5
395
100
AcDbEntity
8
0
100
AcDbLine
10
-106.19482970480989
20
33.305570312446534
30
2.7755575615628914e-16
11
-106.62048163810253
21
33.276738227285819
31
2.7755575615628914e-16
0
LINE
5
396
100
AcDbEntity
8
0
100
AcDbLine
10
-106.62048163810253
20
33.276738227285819
30
2.7755575615628914e-16
11
-107.0980791987664
21
33.237808935018322
31
2.7755575615628914e-16
0
LINE
5
397
100
AcDbEntity
8
0
100
AcDbLine
10
-107.0980791987664
20
33.237808935018322
30
2.7755575615628914e-16
11
-108.70835797986086
21
32.924802447751276
31
2.7755575615628914e-16
0
LINE
5
398
100
AcDbEntity
8
0
100
AcDbLine
10
-108.70835797986086
20
32.924802447751276
30
2.7755575615628914e-16
11
-109.1196533140871
21
31.712806628825444
31
2.7755575615628914e-16
0
LINE
5
399
100
AcDbEntity
8
0
100
AcDbLine
10
-109.1196533140871
20
31.712806628825444
30
2.7755575615628914e-16
11
-109.00639660184063
21
31.546147504909271
31
2.7755575615628914e-16
0
LINE
5
400
100
AcDbEntity
8
0
100
AcDbLine
10
-109.00639660184063
20
31.546147504909271
30
2.7755575615628914e-16
11
-108.82100221470147
21
31.285695929711338
31
2.7755575615628914e-16
0
LINE
5
401
100
AcDbEntity
8
0
100
AcDbLine
10
-108.82100221470147
20
31.285695929711338
30
2.7755575615628914e-16
11
-108.43938486888251
21
30.847757044225688
31
2.7755575615628914e-16
0
LINE
5
402
100
AcDbEntity
8
0
100
AcDbLine
10
-108.43938486888251
20
30.847757044225688
30
2.7755575615628914e-16
11
-108.0678647301704
21
30.46176378611132
31
2.7755575615628914e-16
0
LINE
5
403
100
AcDbEntity
8
0
100
AcDbLine
10
-108.0678647301704
20
30.46176378611132
30
2.7755575615628914e-16
11
-107.70644141339594
21
30.12771417384517
31
2.7755575615628914e-16
0
LINE
5
404
100
AcDbEntity
8
0
100
AcDbLine
10
-107.70644141339594
20
30.12771417384517
30
2.7755575615628914e-16
11
-107.35511491855922
21
29.845608207427226
31
2.7755575615628914e-16
0
LINE
5
405
100
AcDbEntity
8
0
100
AcDbLine
10
-107.35511491855922
20
29.845608207427226
30
2.7755575615628914e-16
11
-107.03985943527647
21
29.610399072242643
31
2.7755575615628914e-16
0
LINE
5
406
100
AcDbEntity
8
0
100
AcDbLine
10
-107.03985943527647
20
29.610399072242643
30
2.7755575615628914e-16
11
-106.76067259685553
21
29.422085171937397
31
2.7755575615628914e-16
0
LINE
5
407
100
AcDbEntity
8
0
100
AcDbLine
10
-106.76067259685553
20
29.422085171937397
30
2.7755575615628914e-16
11
-106.51755478846547
21
29.280668488034589
31
2.7755575615628914e-16
0
LINE
5
408
100
AcDbEntity
8
0
100
AcDbLine
10
-106.51755478846547
20
29.280668488034589
30
2.7755575615628914e-16
11
-106.31050760646031
21
29.186146653842062
31
2.7755575615628914e-16
0
LINE
5
409
100
AcDbEntity
8
0
100
AcDbLine
10
-106.31050760646031
20
29.186146653842062
30
2.7755575615628914e-16
11
-106.1344806583481
21
29.112548231604784
31
2.7755575615628914e-16
0
LINE
5
410
100
AcDbEntity
8
0
100
AcDbLine
10
-106.1344806583481
20
29.112548231604784
30
2.7755575615628914e-16
11
-105.98947394412886
21
29.059873221322754
31
2.7755575615628914e-16
0
LINE
5
411
100
AcDbEntity
8
0
100
AcDbLine
10
-105.98947394412886
20
29.059873221322754
30
2.7755575615628914e-16
11
-105.90145967189576
21
29.023075193550184
31
2.7755575615628914e-16
0
LINE
5
412
100
AcDbEntity
8
0
100
AcDbLine
10
-105.90145967189576
20
29.023075193550184
30
2.7755575615628914e-16
11
-104.03006116514516
21
28.686046432019427
31
2.7755575615628914e-16
0
LINE
5
413
100
AcDbEntity
8
0
100
AcDbLine
10
-104.03006116514516
20
28.686046432019427
30
2.7755575615628914e-16
11
-104.21204723780242
21
25.739688144566092
31
2.7755575615628914e-16
0
LINE
5
414
100
AcDbEntity
8
0
100
AcDbLine
10
-104.21204723780242
20
25.739688144566092
30
2.7755575615628914e-16
11
-106.1065592867636
21
25.640967765697447
31
2.7755575615628914e-16
0
LINE
5
415
100
AcDbEntity
8
0
100
AcDbLine
10
-106.1065592867636
20
25.640967765697447
30
2.7755575615628914e-16
11
-106.78183659040569
21
25.509707154661818
31
2.7755575615628914e-16
0
LINE
5
416
100
AcDbEntity
8
0
100
AcDbLine
10
-106.78183659040569
20
25.509707154661818
30
2.7755575615628914e-16
11
-107.05238696906443
21
25.376256028201787
31
2.7755575615628914e-16
0
LINE
5
417
100
AcDbEntity
8
0
100
AcDbLine
10
-107.05238696906443
20
25.376256028201787
30
2.7755575615628914e-16
11
-107.34890718912418
21
25.237756875941987
31
2.7755575615628914e-16
0
LINE
5
418
100
AcDbEntity
8
0
100
AcDbLine
10
-107.34890718912418
20
25.237756875941987
30
2.7755575615628914e-16
11
-107.68727423309444
21
25.037217255896245
31
2.7755575615628914e-16
0
LINE
5
419
100
AcDbEntity
8
0
100
AcDbLine
10
-107.68727423309444
20
25.037217255896245
30
2.7755575615628914e-16
11
-108.04656667054302
21
24.80565701678848
31
2.7755575615628914e-16
0
LINE
5
420
100
AcDbEntity
8
0
100
AcDbLine
10
-108.04656667054302
20
24.80565701678848
30
2.7755575615628914e-16
11
-108.44770554673303
21
24.512054328371708
31
2.7755575615628914e-16
0
LINE
5
421
100
AcDbEntity
8
0
100
AcDbLine
10
-108.44770554673303
20
24.512054328371708
30
2.7755575615628914e-16
11
-108.86472140543249
21
24.16145919796881
31
2.7755575615628914e-16
0
LINE
5
422
100
AcDbEntity
8
0
100
AcDbLine
10
-108.86472140543249
20
24.16145919796881
30
2.7755575615628914e-16
11
-109.29761028359528
21
23.753872395917909
31
2.7755575615628914e-16
0
LINE
5
423
100
AcDbEntity
8
0
100
AcDbLine
10
-109.29761028359528
20
23.753872395917909
30
2.7755575615628914e-16
11
-109.52199321393141
21
23.521582773899397
31
2.7755575615628914e-16
0
LINE
5
424
100
AcDbEntity
8
0
100
AcDbLine
10
-109.52199321393141
20
23.521582773899397
30
2.7755575615628914e-16
11
-109.63166028103049
21
23.392451060666545
31
2.7755575615628914e-16
0
LINE
5
425
100
AcDbEntity
8
0
100
AcDbLine
10
-109.63166028103049
20
23.392451060666545
30
2.7755575615628914e-16
11
-109.6576340854777
21
23.387402264528617
31
2.7755575615628914e-16
0
ENDSEC
0
SECTION
2
OBJECTS
0
DICTIONARY
5
C
100
AcDbDictionary
3
ACAD_GROUP
350
D
3
ACAD_MLINESTYLE
350
17
0
DICTIONARY
5
D
100
AcDbDictionary
0
DICTIONARY
5
1A
330
C
100
AcDbDictionary
0
DICTIONARY
5
17
100
AcDbDictionary
0
ENDSEC
0
EOF
