0
SECTION
2
HEADER
9
$INSUNITS
70
4
9
$ACADVER
1
AC1014
9
$HANDSEED
5
FFFF
0
ENDSEC
0
SECTION
2
TABLES
0
TABLE
2
VPORT
5
8
100
AcDbSymbolTable
0
ENDTAB
0
TABLE
2
LTYPE
5
5
100
AcDbSymbolTable
0
LTYPE
5
14
100
AcDbSymbolTableRecord
100
AcDbLinetypeTableRecord
2
BYBLOCK
70
0
0
LTYPE
5
15
100
AcDbSymbolTableRecord
100
AcDbLinetypeTableRecord
2
BYLAYER
70
0
0
LTYPE
5
16
100
AcDbSymbolTableRecord
100
AcDbLinetypeTableRecord
2
DASHED
70
0
3
Dashed __ __ __ __ __ __ __ __ __ __ __ __ __ _
72
65
73
2
40
0.75
49
0.5
74
0
49
-0.25
74
0
0
ENDTAB
0
TABLE
2
LAYER
5
2
100
AcDbSymbolTable
70
2
0
LAYER
5
50
100
AcDbSymbolTableRecord
100
AcDbLayerTableRecord
2
0
70
0
62
7
6
CONTINUOUS
0
ENDTAB
0
TABLE
2
STYLE
5
3
100
AcDbSymbolTable
70
1
0
STYLE
5
11
100
AcDbSymbolTableRecord
100
AcDbTextStyleTableRecord
2
STANDARD
70
0
0
ENDTAB
0
TABLE
2
VIEW
5
6
100
AcDbSymbolTable
70
0
0
ENDTAB
0
TABLE
2
UCS
5
7
100
AcDbSymbolTable
70
0
0
ENDTAB
0
TABLE
2
APPID
5
9
100
AcDbSymbolTable
70
2
0
APPID
5
12
100
AcDbSymbolTableRecord
100
AcDbRegAppTableRecord
2
ACAD
70
0
0
ENDTAB
0
TABLE
2
DIMSTYLE
5
A
100
AcDbSymbolTable
70
1
0
ENDTAB
0
TABLE
2
BLOCK_RECORD
5
1
100
AcDbSymbolTable
70
1
0
BLOCK_RECORD
5
1F
100
AcDbSymbolTableRecord
100
AcDbBlockTableRecord
2
*MODEL_SPACE
0
BLOCK_RECORD
5
1B
100
AcDbSymbolTableRecord
100
AcDbBlockTableRecord
2
*PAPER_SPACE
0
ENDTAB
0
ENDSEC
0
SECTION
2
BLOCKS
0
BLOCK
5
20
100
AcDbEntity
100
AcDbBlockBegin
2
*MODEL_SPACE
0
ENDBLK
5
21
100
AcDbEntity
100
AcDbBlockEnd
0
BLOCK
5
1C
100
AcDbEntity
100
AcDbBlockBegin
2
*PAPER_SPACE
0
ENDBLK
5
1D
100
AcDbEntity
100
AcDbBlockEnd
0
ENDSEC
0
SECTION
2
ENTITIES
0
SPLINE
5
100
100
AcDbEntity
8
0
100
AcDbSpline
70
4
71
3
72
8
73
4
74
0
42
0.000000001
43
0.0000000001
44
0.0000000001
40
0
40
0
40
0
40
0
40
1
40
1
40
1
40
1
41
1
41
1
41
1
41
1
10
-19.135686298705295
20
103.72420612040474
30
0
10
-19.770686702427422
20
103.72420612040474
30
0
10
-20.273395439482886
20
104.22691485746022
30
0
10
-20.273395439482886
20
104.86191526118233
30
0
0
SPLINE
5
101
100
AcDbEntity
8
0
100
AcDbSpline
70
4
71
3
72
8
73
4
74
0
42
0.000000001
43
0.0000000001
44
0.0000000001
40
0
40
0
40
0
40
0
40
1
40
1
40
1
40
1
41
1
41
1
41
1
41
1
10
-20.273395439482886
20
104.86191526118233
30
0
10
-20.273395439482886
20
105.49691566490446
30
0
10
-19.770686702427422
20
105.99962440195992
30
0
10
-19.135686298705295
20
105.99962440195992
30
0
0
SPLINE
5
102
100
AcDbEntity
8
0
100
AcDbSpline
70
4
71
3
72
8
73
4
74
0
42
0.000000001
43
0.0000000001
44
0.0000000001
40
0
40
0
40
0
40
0
40
1
40
1
40
1
40
1
41
1
41
1
41
1
41
1
10
-19.135686298705295
20
105.99962440195992
30
0
10
-18.500685894983167
20
105.99962440195992
30
0
10
-17.997977157927707
20
105.49691566490446
30
0
10
-17.997977157927707
20
104.86191526118233
30
0
0
SPLINE
5
103
100
AcDbEntity
8
0
100
AcDbSpline
70
4
71
3
72
8
73
4
74
0
42
0.000000001
43
0.0000000001
44
0.0000000001
40
0
40
0
40
0
40
0
40
1
40
1
40
1
40
1
41
1
41
1
41
1
41
1
10
-17.997977157927707
20
104.86191526118233
30
0
10
-17.997977157927707
20
104.22691485746022
30
0
10
-18.500685894983167
20
103.72420612040474
30
0
10
-19.135686298705295
20
103.72420612040474
30
0
0
LINE
5
104
100
AcDbEntity
8
0
100
AcDbLine
10
-37.391936298705303
20
105.25879227979297
30
0
11
-37.391936298705303
21
103.96762343302188
31
0
0
LINE
5
105
100
AcDbEntity
8
0
100
AcDbLine
10
-37.391936298705303
20
103.96762343302188
30
0
11
-37.286104580260478
21
103.88295773529325
31
0
0
LINE
5
106
100
AcDbEntity
8
0
100
AcDbLine
10
-37.286104580260478
20
103.88295773529325
30
0
11
-37.021521246927136
21
103.72420813901539
31
0
0
LINE
5
107
100
AcDbEntity
8
0
100
AcDbLine
10
-37.021521246927136
20
103.72420813901539
30
0
11
-36.518814528482309
21
103.43316687607084
31
0
0
LINE
5
108
100
AcDbEntity
8
0
100
AcDbLine
10
-36.518814528482309
20
103.43316687607084
30
0
11
-36.042563721038057
21
103.19504147234873
31
0
0
LINE
5
109
100
AcDbEntity
8
0
100
AcDbLine
10
-36.042563721038057
20
103.19504147234873
30
0
11
-35.592772861815646
21
103.00983394645965
31
0
0
LINE
5
110
100
AcDbEntity
8
0
100
AcDbLine
10
-35.592772861815646
20
103.00983394645965
30
0
11
-35.169437913593804
21
102.85108435018176
31
0
0
LINE
5
111
100
AcDbEntity
8
0
100
AcDbLine
10
-35.169437913593804
20
102.85108435018176
30
0
11
-34.799022861815651
21
102.74525061312632
31
0
0
LINE
5
112
100
AcDbEntity
8
0
100
AcDbLine
10
-34.799022861815651
20
102.74525061312632
30
0
11
-34.4815236692599
21
102.66587480568205
31
0
0
LINE
5
113
100
AcDbEntity
8
0
100
AcDbLine
10
-34.4815236692599
20
102.66587480568205
30
0
11
-34.190480387704724
21
102.61295894645963
31
0
0
LINE
5
114
100
AcDbEntity
8
0
100
AcDbLine
10
-34.190480387704724
20
102.61295894645963
30
0
11
-33.952357002593239
21
102.61295894645963
31
0
0
LINE
5
115
100
AcDbEntity
8
0
100
AcDbLine
10
-33.952357002593239
20
102.61295894645963
30
0
11
-33.767149476704162
21
102.56004308723723
31
0
0
LINE
5
116
100
AcDbEntity
8
0
100
AcDbLine
10
-33.767149476704162
20
102.56004308723723
30
0
11
-33.529024072982033
21
102.56004308723723
31
0
0
LINE
5
117
100
AcDbEntity
8
0
100
AcDbLine
10
-33.529024072982033
20
102.56004308723723
30
0
11
-31.650482810037492
21
102.85108435018176
31
0
0
LINE
5
118
100
AcDbEntity
8
0
100
AcDbLine
10
-31.650482810037492
20
102.85108435018176
30
0
11
-30.856732810037485
21
99.993583542737525
31
0
0
LINE
5
119
100
AcDbEntity
8
0
100
AcDbLine
10
-30.856732810037485
20
99.993583542737525
30
0
11
-32.602982406315363
21
99.279208340876437
31
0
0
LINE
5
120
100
AcDbEntity
8
0
100
AcDbLine
10
-32.602982406315363
20
99.279208340876437
30
0
11
-32.68235821375962
21
99.226291472348706
31
0
0
LINE
5
121
100
AcDbEntity
8
0
100
AcDbLine
10
-32.68235821375962
20
99.226291472348706
30
0
11
-32.788191950815076
21
99.146916674209791
31
0
0
LINE
5
122
100
AcDbEntity
8
0
100
AcDbLine
10
-32.788191950815076
20
99.146916674209791
30
0
11
-32.946941547092948
21
99.041082937154314
31
0
0
LINE
5
123
100
AcDbEntity
8
0
100
AcDbLine
10
-32.946941547092948
20
99.041082937154314
30
0
11
-33.132149072982024
21
98.882333340876443
31
0
0
LINE
5
124
100
AcDbEntity
8
0
100
AcDbLine
10
-33.132149072982024
20
98.882333340876443
30
0
11
-33.343816547092956
21
98.697124805682037
31
0
0
LINE
5
125
100
AcDbEntity
8
0
100
AcDbLine
10
-33.343816547092956
20
98.697124805682037
30
0
11
-33.581941950815079
21
98.458999401959929
31
0
0
LINE
5
126
100
AcDbEntity
8
0
100
AcDbLine
10
-33.581941950815079
20
98.458999401959929
30
0
11
-33.846525284148413
21
98.167958139015369
31
0
0
LINE
5
127
100
AcDbEntity
8
0
100
AcDbLine
10
-33.846525284148413
20
98.167958139015369
30
0
11
-34.111108617481747
21
97.824000007543106
31
0
0
LINE
5
128
100
AcDbEntity
8
0
100
AcDbLine
10
-34.111108617481747
20
97.824000007543106
30
0
11
-34.402151899036923
21
97.427125007543111
31
0
0
LINE
5
129
100
AcDbEntity
8
0
100
AcDbLine
10
-34.402151899036923
20
97.427125007543111
30
0
11
-34.693195180592099
21
96.977333139015386
31
0
0
LINE
5
130
100
AcDbEntity
8
0
100
AcDbLine
10
-34.693195180592099
20
96.977333139015386
30
0
11
-34.984238462147282
21
96.448166472348703
31
0
0
LINE
5
131
100
AcDbEntity
8
0
100
AcDbLine
10
-34.984238462147282
20
96.448166472348703
30
0
11
-35.116530128813935
21
96.157125209404171
31
0
0
LINE
5
132
100
AcDbEntity
8
0
100
AcDbLine
10
-35.116530128813935
20
96.157125209404171
30
0
11
-35.1959059362582
21
95.998375613126285
31
0
0
LINE
5
133
100
AcDbEntity
8
0
100
AcDbLine
10
-35.1959059362582
20
95.998375613126285
30
0
11
-35.195905936258193
21
95.945458744598568
31
0
0
LINE
5
134
100
AcDbEntity
8
0
100
AcDbLine
10
-35.195905936258193
20
95.945458744598568
30
0
11
-34.534447602924864
21
94.834208542737514
31
0
0
LINE
5
135
100
AcDbEntity
8
0
100
AcDbLine
10
-34.534447602924864
20
94.834208542737514
30
0
11
-32.894031743702449
21
94.834208542737514
31
0
0
LINE
5
136
100
AcDbEntity
8
0
100
AcDbLine
10
-32.894031743702449
20
94.834208542737514
30
0
11
-32.417780936258197
21
94.913583340876443
31
0
0
LINE
5
137
100
AcDbEntity
8
0
100
AcDbLine
10
-32.417780936258197
20
94.913583340876443
30
0
11
-31.994448006646991
21
94.992958139015386
31
0
0
LINE
5
138
100
AcDbEntity
8
0
100
AcDbLine
10
-31.994448006646991
20
94.992958139015386
30
0
11
-31.624030936258194
21
95.072332937154314
31
0
0
LINE
5
139
100
AcDbEntity
8
0
100
AcDbLine
10
-31.624030936258194
20
95.072332937154314
30
0
11
-31.30653174370245
21
95.178166674209791
31
0
0
LINE
5
140
100
AcDbEntity
8
0
100
AcDbLine
10
-31.30653174370245
20
95.178166674209791
30
0
11
-31.041948410369113
21
95.284000411265239
31
0
0
LINE
5
141
100
AcDbEntity
8
0
100
AcDbLine
10
-31.041948410369113
20
95.284000411265239
30
0
11
-30.830280936258198
21
95.363375209404182
31
0
0
LINE
5
142
100
AcDbEntity
8
0
100
AcDbLine
10
-30.830280936258198
20
95.363375209404182
30
0
11
-30.671531339980326
21
95.442750007543111
31
0
0
LINE
5
143
100
AcDbEntity
8
0
100
AcDbLine
10
-30.671531339980326
20
95.442750007543111
30
0
11
-30.539239673313659
21
95.52212480568204
31
0
0
LINE
5
144
100
AcDbEntity
8
0
100
AcDbLine
10
-30.539239673313659
20
95.52212480568204
30
0
11
-30.459863865869398
21
95.575041674209785
31
0
0
LINE
5
145
100
AcDbEntity
8
0
100
AcDbLine
10
-30.459863865869398
20
95.575041674209785
30
0
11
-28.978197602924865
21
96.79212460382098
31
0
0
LINE
5
146
100
AcDbEntity
8
0
100
AcDbLine
10
-28.978197602924865
20
96.79212460382098
30
0
11
-26.861530936258191
21
94.701915866765518
31
0
0
LINE
5
147
100
AcDbEntity
8
0
100
AcDbLine
10
-26.861530936258191
20
94.701915866765518
30
0
11
-28.025698006646987
21
93.220249603820974
31
0
0
LINE
5
148
100
AcDbEntity
8
0
100
AcDbLine
10
-28.025698006646987
20
93.220249603820974
30
0
11
-28.0786138658694
21
93.114415866765512
31
0
0
LINE
5
149
100
AcDbEntity
8
0
100
AcDbLine
10
-28.0786138658694
20
93.114415866765512
30
0
11
-28.157989673313658
21
92.982124200098866
31
0
0
LINE
5
150
100
AcDbEntity
8
0
100
AcDbLine
10
-28.157989673313658
20
92.982124200098866
30
0
11
-28.237365480757909
21
92.82337460382098
31
0
0
LINE
5
151
100
AcDbEntity
8
0
100
AcDbLine
10
-28.237365480757909
20
92.82337460382098
30
0
11
-28.316741288202167
21
92.611708139015377
31
0
0
LINE
5
152
100
AcDbEntity
8
0
100
AcDbLine
10
-28.316741288202167
20
92.611708139015377
30
0
11
-28.396117095646417
21
92.347124805682057
31
0
0
LINE
5
153
100
AcDbEntity
8
0
100
AcDbLine
10
-28.396117095646417
20
92.347124805682057
30
0
11
-28.475492903090679
21
92.029624603820977
31
0
0
LINE
5
154
100
AcDbEntity
8
0
100
AcDbLine
10
-28.475492903090679
20
92.029624603820977
30
0
11
-28.554868710534929
21
91.659207533432181
31
0
0
LINE
5
155
100
AcDbEntity
8
0
100
AcDbLine
10
-28.554868710534929
20
91.659207533432181
30
0
11
-28.607784569757339
21
91.235874603820974
31
0
0
LINE
5
156
100
AcDbEntity
8
0
100
AcDbLine
10
-28.607784569757339
20
91.235874603820974
30
0
11
-28.660700428979752
21
90.759624805682051
31
0
0
LINE
5
157
100
AcDbEntity
8
0
100
AcDbLine
10
-28.660700428979752
20
90.759624805682051
30
0
11
-28.660700428979755
21
89.119207937154314
31
0
0
LINE
5
158
100
AcDbEntity
8
0
100
AcDbLine
10
-28.660700428979755
20
89.119207937154314
30
0
11
-27.549451236424009
21
88.48420803808483
31
0
0
LINE
5
159
100
AcDbEntity
8
0
100
AcDbLine
10
-27.549451236424009
20
88.48420803808483
30
0
11
-27.417159569757338
21
88.563582836223787
31
0
0
LINE
5
160
100
AcDbEntity
8
0
100
AcDbLine
10
-27.417159569757338
20
88.563582836223787
30
0
11
-27.126118306812806
21
88.695874502890462
31
0
0
LINE
5
161
100
AcDbEntity
8
0
100
AcDbLine
10
-27.126118306812806
20
88.695874502890462
30
0
11
-26.623409569757335
21
88.98691627048764
31
0
0
LINE
5
162
100
AcDbEntity
8
0
100
AcDbLine
10
-26.623409569757335
20
88.98691627048764
30
0
11
-26.173618710534925
21
89.277958038084847
31
0
0
LINE
5
163
100
AcDbEntity
8
0
100
AcDbLine
10
-26.173618710534925
20
89.277958038084847
30
0
11
-25.77674371053493
21
89.56899980568204
31
0
0
LINE
5
164
100
AcDbEntity
8
0
100
AcDbLine
10
-25.77674371053493
20
89.56899980568204
30
0
11
-25.432784569757338
21
89.860041573279247
31
0
0
LINE
5
165
100
AcDbEntity
8
0
100
AcDbLine
10
-25.432784569757338
20
89.860041573279247
30
0
11
-25.141743306812799
21
90.124624906612567
31
0
0
LINE
5
166
100
AcDbEntity
8
0
100
AcDbLine
10
-25.141743306812799
20
90.124624906612567
30
0
11
-24.903617903090677
21
90.362749805682057
31
0
0
LINE
5
167
100
AcDbEntity
8
0
100
AcDbLine
10
-24.903617903090677
20
90.362749805682057
30
0
11
-24.718410377201593
21
90.57441627048766
31
0
0
LINE
5
168
100
AcDbEntity
8
0
100
AcDbLine
10
-24.718410377201593
20
90.57441627048766
30
0
11
-24.586118710534933
21
90.759624805682051
31
0
0
LINE
5
169
100
AcDbEntity
8
0
100
AcDbLine
10
-24.586118710534933
20
90.759624805682051
30
0
11
-24.480284973479463
21
90.91837490661257
31
0
0
LINE
5
170
100
AcDbEntity
8
0
100
AcDbLine
10
-24.480284973479463
20
90.91837490661257
30
0
11
-24.400909166035213
21
91.050666573279244
31
0
0
LINE
5
171
100
AcDbEntity
8
0
100
AcDbLine
10
-24.400909166035213
20
91.050666573279244
30
0
11
-24.3479933068128
21
91.130041371418173
31
0
0
LINE
5
172
100
AcDbEntity
8
0
100
AcDbLine
10
-24.3479933068128
20
91.130041371418173
30
0
11
-23.660077043868259
21
92.929208340876443
31
0
0
LINE
5
173
100
AcDbEntity
8
0
100
AcDbLine
10
-23.660077043868259
20
92.929208340876443
30
0
11
-20.802576236424009
21
92.188375209404171
31
0
0
LINE
5
174
100
AcDbEntity
8
0
100
AcDbLine
10
-20.802576236424009
20
92.188375209404171
30
0
11
-21.067159569757337
21
90.309833441806973
31
0
0
LINE
5
175
100
AcDbEntity
8
0
100
AcDbLine
10
-21.067159569757337
20
90.309833441806973
30
0
11
-21.067159569757337
21
89.621916674209785
31
0
0
LINE
5
176
100
AcDbEntity
8
0
100
AcDbLine
10
-21.067159569757337
20
89.621916674209785
30
0
11
-20.987783762313082
21
89.330874906612578
31
0
0
LINE
5
177
100
AcDbEntity
8
0
100
AcDbLine
10
-20.987783762313082
20
89.330874906612578
30
0
11
-20.908407954868832
21
89.013374704751527
31
0
0
LINE
5
178
100
AcDbEntity
8
0
100
AcDbLine
10
-20.908407954868832
20
89.013374704751527
30
0
11
-20.776116288202161
21
88.642958139015377
31
0
0
LINE
5
179
100
AcDbEntity
8
0
100
AcDbLine
10
-20.776116288202161
20
88.642958139015377
30
0
11
-20.617366691924293
21
88.246083139015383
31
0
0
LINE
5
180
100
AcDbEntity
8
0
100
AcDbLine
10
-20.617366691924293
20
88.246083139015383
30
0
11
-20.405699217813371
21
87.796291270487643
31
0
0
LINE
5
181
100
AcDbEntity
8
0
100
AcDbLine
10
-20.405699217813371
20
87.796291270487643
30
0
11
-20.141115884480037
21
87.32004147234872
31
0
0
LINE
5
182
100
AcDbEntity
8
0
100
AcDbLine
10
-20.141115884480037
20
87.32004147234872
30
0
11
-19.823616691924293
21
86.81733323994591
31
0
0
LINE
5
183
100
AcDbEntity
8
0
100
AcDbLine
10
-19.823616691924293
20
86.81733323994591
30
0
11
-19.63840916603521
21
86.552749906612561
31
0
0
LINE
5
184
100
AcDbEntity
8
0
100
AcDbLine
10
-19.63840916603521
20
86.552749906612561
30
0
11
-19.532575428979751
21
86.420458239945916
31
0
0
SPLINE
5
185
100
AcDbEntity
8
0
100
AcDbSpline
70
0
71
2
72
6
73
3
74
0
42
0.000000001
43
0.0000000001
44
0.0000000001
40
0
40
0
40
0
40
1
40
1
40
1
10
-19.532575428979751
20
86.420458239945916
30
0
10
-19.532575428979751
20
86.393999805682057
30
0
10
-18.262574621535496
20
86.393999805682057
30
0
0
SPLINE
5
186
100
AcDbEntity
8
0
100
AcDbSpline
70
0
71
2
72
6
73
3
74
0
42
0.000000001
43
0.0000000001
44
0.0000000001
40
0
40
0
40
0
40
1
40
1
40
1
10
-18.262574621535496
20
86.393999805682057
30
0
10
-18.262574621535496
20
86.420458239945916
30
0
10
-18.183198814091242
20
86.552749906612576
30
0
0
LINE
5
187
100
AcDbEntity
8
0
100
AcDbLine
10
-18.183198814091242
20
86.552749906612576
30
0
11
-18.02444921781337
21
86.817333239945924
31
0
0
LINE
5
188
100
AcDbEntity
8
0
100
AcDbLine
10
-18.02444921781337
20
86.817333239945924
30
0
11
-17.733407954868831
21
87.32004147234872
31
0
0
LINE
5
189
100
AcDbEntity
8
0
100
AcDbLine
10
-17.733407954868831
20
87.32004147234872
30
0
11
-17.495282551146701
21
87.796291270487643
31
0
0
LINE
5
190
100
AcDbEntity
8
0
100
AcDbLine
10
-17.495282551146701
20
87.796291270487643
30
0
11
-17.310075025257625
21
88.246083139015369
31
0
0
LINE
5
191
100
AcDbEntity
8
0
100
AcDbLine
10
-17.310075025257625
20
88.246083139015369
30
0
11
-17.151325428979753
21
88.66941657327925
31
0
0
LINE
5
192
100
AcDbEntity
8
0
100
AcDbLine
10
-17.151325428979753
20
88.66941657327925
30
0
11
-17.04549169192429
21
89.039833139015371
31
0
0
LINE
5
193
100
AcDbEntity
8
0
100
AcDbLine
10
-17.04549169192429
20
89.039833139015371
30
0
11
-16.966115884480036
21
89.357333340876437
31
0
0
LINE
5
194
100
AcDbEntity
8
0
100
AcDbLine
10
-16.966115884480036
20
89.357333340876437
30
0
11
-16.913200025257623
21
89.64837510847363
31
0
0
LINE
5
195
100
AcDbEntity
8
0
100
AcDbLine
10
-16.913200025257623
20
89.64837510847363
30
0
11
-16.913200025257623
21
89.886500007543106
31
0
0
LINE
5
196
100
AcDbEntity
8
0
100
AcDbLine
10
-16.913200025257623
20
89.886500007543106
30
0
11
-16.860284166035214
21
90.071708542737497
31
0
0
LINE
5
197
100
AcDbEntity
8
0
100
AcDbLine
10
-16.860284166035214
20
90.071708542737497
30
0
11
-16.860284166035211
21
90.283375007543114
31
0
0
SPLINE
5
198
100
AcDbEntity
8
0
100
AcDbSpline
70
0
71
2
72
6
73
3
74
0
42
0.000000001
43
0.0000000001
44
0.0000000001
40
0
40
0
40
0
40
1
40
1
40
1
10
-16.860284166035211
20
90.283375007543114
30
0
10
-16.860284166035211
20
90.309833441806973
30
0
10
-17.151325428979753
20
92.188375209404171
30
0
0
LINE
5
199
100
AcDbEntity
8
0
100
AcDbLine
10
-17.151325428979753
20
92.188375209404171
30
0
11
-14.293825630840814
21
92.982125209404174
31
0
0
LINE
5
200
100
AcDbEntity
8
0
100
AcDbLine
10
-14.293825630840814
20
92.982125209404174
30
0
11
-13.579450428979749
21
91.235875613126311
31
0
0
LINE
5
201
100
AcDbEntity
8
0
100
AcDbLine
10
-13.579450428979749
20
91.235875613126311
30
0
11
-13.526533560452021
21
91.130042380723509
31
0
0
LINE
5
202
100
AcDbEntity
8
0
100
AcDbLine
10
-13.526533560452021
20
91.130042380723509
30
0
11
-13.447158762313085
21
91.024209148320693
31
0
0
LINE
5
203
100
AcDbEntity
8
0
100
AcDbLine
10
-13.447158762313085
20
91.024209148320693
30
0
11
-13.341325025257621
21
90.865459047390175
31
0
0
LINE
5
204
100
AcDbEntity
8
0
100
AcDbLine
10
-13.341325025257621
20
90.865459047390175
30
0
11
-13.182575428979749
21
90.680250512195769
31
0
0
LINE
5
205
100
AcDbEntity
8
0
100
AcDbLine
10
-13.182575428979749
20
90.680250512195769
30
0
11
-12.997366893785355
21
90.468584047390152
31
0
0
LINE
5
206
100
AcDbEntity
8
0
100
AcDbLine
10
-12.997366893785355
20
90.468584047390152
30
0
11
-12.759241490063227
21
90.230459148320691
31
0
0
LINE
5
207
100
AcDbEntity
8
0
100
AcDbLine
10
-12.759241490063227
20
90.230459148320691
30
0
11
-12.468200227118686
21
89.965875814987371
31
0
0
LINE
5
208
100
AcDbEntity
8
0
100
AcDbLine
10
-12.468200227118686
20
89.965875814987371
30
0
11
-12.124242095646416
21
89.70129248165405
31
0
0
LINE
5
209
100
AcDbEntity
8
0
100
AcDbLine
10
-12.124242095646416
20
89.70129248165405
30
0
11
-11.727367095646414
21
89.410250714056829
31
0
0
LINE
5
210
100
AcDbEntity
8
0
100
AcDbLine
10
-11.727367095646414
20
89.410250714056829
30
0
11
-11.277575227118685
21
89.119208946459622
31
0
0
LINE
5
211
100
AcDbEntity
8
0
100
AcDbLine
10
-11.277575227118685
20
89.119208946459622
30
0
11
-10.748408560452019
21
88.828167178862429
31
0
0
LINE
5
212
100
AcDbEntity
8
0
100
AcDbLine
10
-10.748408560452019
20
88.828167178862429
30
0
11
-10.457367297507478
21
88.695875512195755
31
0
0
LINE
5
213
100
AcDbEntity
8
0
100
AcDbLine
10
-10.457367297507478
20
88.695875512195755
30
0
11
-10.29861770122961
21
88.616500714056841
31
0
0
LINE
5
214
100
AcDbEntity
8
0
100
AcDbLine
10
-10.29861770122961
20
88.616500714056841
30
0
11
-9.187367499368543
21
89.277959047390169
31
0
0
LINE
5
215
100
AcDbEntity
8
0
100
AcDbLine
10
-9.187367499368543
20
89.277959047390169
30
0
11
-9.1873674993685448
21
90.918375411265245
31
0
0
LINE
5
216
100
AcDbEntity
8
0
100
AcDbLine
10
-9.1873674993685448
20
90.918375411265245
30
0
11
-9.2667422975074807
21
91.394625209404154
31
0
0
LINE
5
217
100
AcDbEntity
8
0
100
AcDbLine
10
-9.2667422975074807
20
91.394625209404154
30
0
11
-9.3461170956464166
21
91.817958139015388
31
0
0
LINE
5
218
100
AcDbEntity
8
0
100
AcDbLine
10
-9.3461170956464166
20
91.817958139015388
30
0
11
-9.4254918937853525
21
92.188375209404171
31
0
0
LINE
5
219
100
AcDbEntity
8
0
100
AcDbLine
10
-9.4254918937853525
20
92.188375209404171
30
0
11
-9.5313256308408132
21
92.505875411265222
31
0
0
LINE
5
220
100
AcDbEntity
8
0
100
AcDbLine
10
-9.5313256308408132
20
92.505875411265222
30
0
11
-9.6371593678962739
21
92.770458744598585
31
0
0
LINE
5
221
100
AcDbEntity
8
0
100
AcDbLine
10
-9.6371593678962739
20
92.770458744598585
30
0
11
-9.7165341660352098
21
92.982125209404174
31
0
0
LINE
5
222
100
AcDbEntity
8
0
100
AcDbLine
10
-9.7165341660352098
20
92.982125209404174
30
0
11
-9.7959089641741457
21
93.140874805682046
31
0
0
LINE
5
223
100
AcDbEntity
8
0
100
AcDbLine
10
-9.7959089641741457
20
93.140874805682046
30
0
11
-9.8752837623130816
21
93.27316647234872
31
0
0
LINE
5
224
100
AcDbEntity
8
0
100
AcDbLine
10
-9.8752837623130816
20
93.27316647234872
30
0
11
-9.9282006308408128
21
93.352541270487649
31
0
0
LINE
5
225
100
AcDbEntity
8
0
100
AcDbLine
10
-9.9282006308408128
20
93.352541270487649
30
0
11
-11.118825630840814
21
94.860666472348711
31
0
0
LINE
5
226
100
AcDbEntity
8
0
100
AcDbLine
10
-11.118825630840814
20
94.860666472348711
30
0
11
-9.0286168937853528
21
96.977333139015371
31
0
0
LINE
5
227
100
AcDbEntity
8
0
100
AcDbLine
10
-9.0286168937853528
20
96.977333139015371
30
0
11
-7.5469501261881531
21
95.813166068626586
31
0
0
LINE
5
228
100
AcDbEntity
8
0
100
AcDbLine
10
-7.5469501261881531
20
95.813166068626586
30
0
11
-7.5204916919242883
21
95.813166068626586
31
0
0
LINE
5
229
100
AcDbEntity
8
0
100
AcDbLine
10
-7.5204916919242883
20
95.813166068626586
30
0
11
-7.4411168937853525
21
95.733791270487657
31
0
0
LINE
5
230
100
AcDbEntity
8
0
100
AcDbLine
10
-7.4411168937853525
20
95.733791270487657
30
0
11
-7.3088252271186862
21
95.654416472348714
31
0
0
LINE
5
231
100
AcDbEntity
8
0
100
AcDbLine
10
-7.3088252271186862
20
95.654416472348714
30
0
11
-7.1500751261881526
21
95.575041674209785
31
0
0
LINE
5
232
100
AcDbEntity
8
0
100
AcDbLine
10
-7.1500751261881526
20
95.575041674209785
30
0
11
-6.9384086613825504
21
95.495666876070842
31
0
0
LINE
5
233
100
AcDbEntity
8
0
100
AcDbLine
10
-6.9384086613825504
20
95.495666876070842
30
0
11
-6.6738253280492179
21
95.416292077931914
31
0
0
LINE
5
234
100
AcDbEntity
8
0
100
AcDbLine
10
-6.6738253280492179
20
95.416292077931914
30
0
11
-6.3563251261881524
21
95.336917279792971
31
0
0
LINE
5
235
100
AcDbEntity
8
0
100
AcDbLine
10
-6.3563251261881524
20
95.336917279792971
30
0
11
-5.9859085604520192
21
95.257542481654042
31
0
0
LINE
5
236
100
AcDbEntity
8
0
100
AcDbLine
10
-5.9859085604520192
20
95.257542481654042
30
0
11
-5.5625751261881531
21
95.204625613126296
31
0
0
LINE
5
237
100
AcDbEntity
8
0
100
AcDbLine
10
-5.5625751261881531
20
95.204625613126296
30
0
11
-5.0863253280492158
21
95.151708744598565
31
0
0
LINE
5
238
100
AcDbEntity
8
0
100
AcDbLine
10
-5.0863253280492158
20
95.151708744598565
30
0
11
-3.4459087118478147
21
95.151708744598565
31
0
0
LINE
5
239
100
AcDbEntity
8
0
100
AcDbLine
10
-3.4459087118478147
20
95.151708744598565
30
0
11
-2.8109085604520163
21
96.262958946459634
31
0
0
LINE
5
240
100
AcDbEntity
8
0
100
AcDbLine
10
-2.8109085604520163
20
96.262958946459634
30
0
11
-2.8902836109172831
21
96.448167481654039
31
0
0
LINE
5
241
100
AcDbEntity
8
0
100
AcDbLine
10
-2.8902836109172831
20
96.448167481654039
30
0
11
-3.0225752775839516
21
96.739208744598585
31
0
0
LINE
5
242
100
AcDbEntity
8
0
100
AcDbLine
10
-3.0225752775839516
20
96.739208744598585
30
0
11
-3.3136170451811493
21
97.241917481654042
31
0
0
LINE
5
243
100
AcDbEntity
8
0
100
AcDbLine
10
-3.3136170451811493
20
97.241917481654042
30
0
11
-3.604658812778347
21
97.691709350181753
31
0
0
LINE
5
244
100
AcDbEntity
8
0
100
AcDbLine
10
-3.604658812778347
20
97.691709350181753
30
0
11
-3.8957005803755465
21
98.088584350181776
31
0
0
LINE
5
245
100
AcDbEntity
8
0
100
AcDbLine
10
-3.8957005803755465
20
98.088584350181776
30
0
11
-4.186742095646415
21
98.432542481654053
31
0
0
LINE
5
246
100
AcDbEntity
8
0
100
AcDbLine
10
-4.186742095646415
20
98.432542481654053
30
0
11
-4.4513254289797475
21
98.723583744598571
31
0
0
LINE
5
247
100
AcDbEntity
8
0
100
AcDbLine
10
-4.4513254289797475
20
98.723583744598571
30
0
11
-4.6894503280492152
21
98.961709148320693
31
0
0
LINE
5
248
100
AcDbEntity
8
0
100
AcDbLine
10
-4.6894503280492152
20
98.961709148320693
30
0
11
-4.9011167928548192
21
99.146917683515099
31
0
0
LINE
5
249
100
AcDbEntity
8
0
100
AcDbLine
10
-4.9011167928548192
20
99.146917683515099
30
0
11
-5.0863253280492158
21
99.279209350181773
31
0
0
LINE
5
250
100
AcDbEntity
8
0
100
AcDbLine
10
-5.0863253280492158
20
99.279209350181773
30
0
11
-5.2450754289797477
21
99.385043087237221
31
0
0
LINE
5
251
100
AcDbEntity
8
0
100
AcDbLine
10
-5.2450754289797477
20
99.385043087237221
30
0
11
-5.3773670956464139
21
99.46441788537615
31
0
0
LINE
5
252
100
AcDbEntity
8
0
100
AcDbLine
10
-5.3773670956464139
20
99.46441788537615
30
0
11
-5.4567418937853498
21
99.517334753903896
31
0
0
LINE
5
253
100
AcDbEntity
8
0
100
AcDbLine
10
-5.4567418937853498
20
99.517334753903896
30
0
11
-7.2294504289797477
21
100.20525101684842
31
0
0
LINE
5
254
100
AcDbEntity
8
0
100
AcDbLine
10
-7.2294504289797477
20
100.20525101684842
30
0
11
-6.4886172975074787
21
103.06275182429268
31
0
0
LINE
5
255
100
AcDbEntity
8
0
100
AcDbLine
10
-6.4886172975074787
20
103.06275182429268
30
0
11
-4.6100755299102794
21
102.79816849095936
31
0
0
LINE
5
256
100
AcDbEntity
8
0
100
AcDbLine
10
-4.6100755299102794
20
102.79816849095936
30
0
11
-3.9221587623130807
21
102.79816849095936
31
0
0
LINE
5
257
100
AcDbEntity
8
0
100
AcDbLine
10
-3.9221587623130807
20
102.79816849095936
30
0
11
-3.6311169947158826
21
102.87754429840361
31
0
0
LINE
5
258
100
AcDbEntity
8
0
100
AcDbLine
10
-3.6311169947158826
20
102.87754429840361
30
0
11
-3.3136170451811484
21
102.95692010584786
31
0
0
LINE
5
259
100
AcDbEntity
8
0
100
AcDbLine
10
-3.3136170451811484
20
102.95692010584786
30
0
11
-2.9432004794450153
21
103.08921177251455
31
0
0
LINE
5
260
100
AcDbEntity
8
0
100
AcDbLine
10
-2.9432004794450153
20
103.08921177251455
30
0
11
-2.5463254794450139
21
103.2479613687924
31
0
0
LINE
5
261
100
AcDbEntity
8
0
100
AcDbLine
10
-2.5463254794450139
20
103.2479613687924
30
0
11
-2.0965338632436117
21
103.45962884290331
31
0
0
LINE
5
262
100
AcDbEntity
8
0
100
AcDbLine
10
-2.0965338632436117
20
103.45962884290331
30
0
11
-1.6202838127783459
21
103.72421217623666
31
0
0
LINE
5
263
100
AcDbEntity
8
0
100
AcDbLine
10
-1.6202838127783459
20
103.72421217623666
30
0
11
-1.1175754542123795
21
104.04171136879241
31
0
0
LINE
5
264
100
AcDbEntity
8
0
100
AcDbLine
10
-1.1175754542123795
20
104.04171136879241
30
0
11
-0.85299212087904686
21
104.22691889468148
31
0
0
LINE
5
265
100
AcDbEntity
8
0
100
AcDbLine
10
-0.85299212087904686
20
104.22691889468148
30
0
11
-0.7207004542123806
21
104.33275263173695
31
0
0
LINE
5
266
100
AcDbEntity
8
0
100
AcDbLine
10
-0.7207004542123806
20
104.33275263173695
30
0
11
-0.72070045421238049
21
105.6292113687924
31
0
0
LINE
5
267
100
AcDbEntity
8
0
100
AcDbLine
10
-0.72070045421238049
20
105.6292113687924
30
0
11
-0.85299212087904686
21
105.73504510584786
31
0
0
LINE
5
268
100
AcDbEntity
8
0
100
AcDbLine
10
-0.85299212087904686
20
105.73504510584786
30
0
11
-1.1175754542123792
21
105.89379470212575
31
0
0
LINE
5
269
100
AcDbEntity
8
0
100
AcDbLine
10
-1.1175754542123792
20
105.89379470212575
30
0
11
-1.6202838127783459
21
106.18483596507028
31
0
0
LINE
5
270
100
AcDbEntity
8
0
100
AcDbLine
10
-1.6202838127783459
20
106.18483596507028
30
0
11
-2.0965338632436112
21
106.42296136879239
31
0
0
LINE
5
271
100
AcDbEntity
8
0
100
AcDbLine
10
-2.0965338632436112
20
106.42296136879239
30
0
11
-2.5463254794450139
21
106.60816889468148
31
0
0
LINE
5
272
100
AcDbEntity
8
0
100
AcDbLine
10
-2.5463254794450139
20
106.60816889468148
30
0
11
-2.9696589137088782
21
106.76691849095934
31
0
0
LINE
5
273
100
AcDbEntity
8
0
100
AcDbLine
10
-2.9696589137088782
20
106.76691849095934
30
0
11
-3.340075479445014
21
106.8727522280148
31
0
0
LINE
5
274
100
AcDbEntity
8
0
100
AcDbLine
10
-3.340075479445014
20
106.8727522280148
30
0
11
-3.6575754289797482
21
106.95212803545907
31
0
0
LINE
5
275
100
AcDbEntity
8
0
100
AcDbLine
10
-3.6575754289797482
20
106.95212803545907
30
0
11
-3.9486171965769454
21
107.00504389468148
31
0
0
LINE
5
276
100
AcDbEntity
8
0
100
AcDbLine
10
-3.9486171965769454
20
107.00504389468148
30
0
11
-4.186742095646415
21
107.00504389468148
31
0
0
LINE
5
277
100
AcDbEntity
8
0
100
AcDbLine
10
-4.186742095646415
20
107.00504389468148
30
0
11
-4.3719506308408116
21
107.05795975390387
31
0
0
LINE
5
278
100
AcDbEntity
8
0
100
AcDbLine
10
-4.3719506308408116
20
107.05795975390387
30
0
11
-4.6100755299102794
21
107.05795975390389
31
0
0
LINE
5
279
100
AcDbEntity
8
0
100
AcDbLine
10
-4.6100755299102794
20
107.05795975390389
30
0
11
-6.4886172975074787
21
106.76691849095934
31
0
0
LINE
5
280
100
AcDbEntity
8
0
100
AcDbLine
10
-6.4886172975074787
20
106.76691849095934
30
0
11
-7.282367297507478
21
109.62441929840359
31
0
0
LINE
5
281
100
AcDbEntity
8
0
100
AcDbLine
10
-7.282367297507478
20
109.62441929840359
30
0
11
-5.5361171965769476
21
110.33879349095938
31
0
0
LINE
5
282
100
AcDbEntity
8
0
100
AcDbLine
10
-5.5361171965769476
20
110.33879349095938
30
0
11
-5.5096587623130802
21
110.33879349095935
31
0
0
LINE
5
283
100
AcDbEntity
8
0
100
AcDbLine
10
-5.5096587623130802
20
110.33879349095935
30
0
11
-5.4302839641741443
21
110.39170935018177
31
0
0
LINE
5
284
100
AcDbEntity
8
0
100
AcDbLine
10
-5.4302839641741443
20
110.39170935018177
30
0
11
-5.3244507317713454
21
110.47108515762602
31
0
0
LINE
5
285
100
AcDbEntity
8
0
100
AcDbLine
10
-5.3244507317713454
20
110.47108515762602
30
0
11
-5.1657006308408118
21
110.57691889468148
31
0
0
LINE
5
286
100
AcDbEntity
8
0
100
AcDbLine
10
-5.1657006308408118
20
110.57691889468148
30
0
11
-4.9804920956464152
21
110.73566849095937
31
0
0
LINE
5
287
100
AcDbEntity
8
0
100
AcDbLine
10
-4.9804920956464152
20
110.73566849095937
30
0
11
-4.768825630840813
21
110.92087601684844
31
0
0
LINE
5
288
100
AcDbEntity
8
0
100
AcDbLine
10
-4.768825630840813
20
110.92087601684844
30
0
11
-4.5307007317713426
21
111.15900142057058
31
0
0
LINE
5
289
100
AcDbEntity
8
0
100
AcDbLine
10
-4.5307007317713426
20
111.15900142057058
30
0
11
-4.2661173984380101
21
111.45004268351511
31
0
0
LINE
5
290
100
AcDbEntity
8
0
100
AcDbLine
10
-4.2661173984380101
20
111.45004268351511
30
0
11
-4.0015340651046758
21
111.79400182429269
31
0
0
LINE
5
291
100
AcDbEntity
8
0
100
AcDbLine
10
-4.0015340651046758
20
111.79400182429269
30
0
11
-3.7104922975074777
21
112.19087682429269
31
0
0
LINE
5
292
100
AcDbEntity
8
0
100
AcDbLine
10
-3.7104922975074777
20
112.19087682429269
30
0
11
-3.4194505299102778
21
112.6406676835151
31
0
0
LINE
5
293
100
AcDbEntity
8
0
100
AcDbLine
10
-3.4194505299102778
20
112.6406676835151
30
0
11
-3.1284087623130801
21
113.16983435018176
31
0
0
LINE
5
294
100
AcDbEntity
8
0
100
AcDbLine
10
-3.1284087623130801
20
113.16983435018176
30
0
11
-2.9961170956464138
21
113.4608756131263
31
0
0
LINE
5
295
100
AcDbEntity
8
0
100
AcDbLine
10
-2.9961170956464138
20
113.4608756131263
30
0
11
-2.916742045181147
21
113.61962520940418
31
0
0
LINE
5
296
100
AcDbEntity
8
0
100
AcDbLine
10
-2.916742045181147
20
113.61962520940418
30
0
11
-2.916742045181147
21
113.6725410686266
31
0
0
LINE
5
297
100
AcDbEntity
8
0
100
AcDbLine
10
-2.916742045181147
20
113.6725410686266
30
0
11
-3.5782003785144805
21
114.78379026118235
31
0
0
LINE
5
298
100
AcDbEntity
8
0
100
AcDbLine
10
-3.5782003785144805
20
114.78379026118235
30
0
11
-5.2186169947158811
21
114.78379026118233
31
0
0
LINE
5
299
100
AcDbEntity
8
0
100
AcDbLine
10
-5.2186169947158811
20
114.78379026118233
30
0
11
-5.6948667928548176
21
114.70441445373808
31
0
0
LINE
5
300
100
AcDbEntity
8
0
100
AcDbLine
10
-5.6948667928548176
20
114.70441445373808
30
0
11
-6.1182002271186846
21
114.62503864629383
31
0
0
LINE
5
301
100
AcDbEntity
8
0
100
AcDbLine
10
-6.1182002271186846
20
114.62503864629383
30
0
11
-6.4886167928548177
21
114.54566283884958
31
0
0
LINE
5
302
100
AcDbEntity
8
0
100
AcDbLine
10
-6.4886167928548177
20
114.54566283884958
30
0
11
-6.8061169947158824
21
114.43982910179412
31
0
0
LINE
5
303
100
AcDbEntity
8
0
100
AcDbLine
10
-6.8061169947158824
20
114.43982910179412
30
0
11
-7.0707003280492149
21
114.33399536473864
31
0
0
LINE
5
304
100
AcDbEntity
8
0
100
AcDbLine
10
-7.0707003280492149
20
114.33399536473864
30
0
11
-7.2823667928548179
21
114.25461955729439
31
0
0
LINE
5
305
100
AcDbEntity
8
0
100
AcDbLine
10
-7.2823667928548179
20
114.25461955729439
30
0
11
-7.4411168937853507
21
114.17524374985014
31
0
0
LINE
5
306
100
AcDbEntity
8
0
100
AcDbLine
10
-7.4411168937853507
20
114.17524374985014
30
0
11
-7.5734085604520178
21
114.09586794240589
31
0
0
LINE
5
307
100
AcDbEntity
8
0
100
AcDbLine
10
-7.5734085604520178
20
114.09586794240589
30
0
11
-7.6527833585909537
21
114.04295208318347
31
0
0
LINE
5
308
100
AcDbEntity
8
0
100
AcDbLine
10
-7.6527833585909537
20
114.04295208318347
30
0
11
-9.1344496215354916
21
112.82586915357228
31
0
0
LINE
5
309
100
AcDbEntity
8
0
100
AcDbLine
10
-9.1344496215354916
20
112.82586915357228
30
0
11
-11.25111628820216
21
114.91607789062772
31
0
0
LINE
5
310
100
AcDbEntity
8
0
100
AcDbLine
10
-11.25111628820216
20
114.91607789062772
30
0
11
-10.086949217813363
21
116.39774415357226
31
0
0
LINE
5
311
100
AcDbEntity
8
0
100
AcDbLine
10
-10.086949217813363
20
116.39774415357226
30
0
11
-10.034032349285635
21
116.50357789062774
31
0
0
LINE
5
312
100
AcDbEntity
8
0
100
AcDbLine
10
-10.034032349285635
20
116.50357789062774
30
0
11
-9.954657551146699
21
116.63587157590504
31
0
0
LINE
5
313
100
AcDbEntity
8
0
100
AcDbLine
10
-9.954657551146699
20
116.63587157590504
30
0
11
-9.8752827530077631
21
116.79462319079356
31
0
0
LINE
5
314
100
AcDbEntity
8
0
100
AcDbLine
10
-9.8752827530077631
20
116.79462319079356
30
0
11
-9.7959079548688273
21
117.00629066490447
31
0
0
LINE
5
315
100
AcDbEntity
8
0
100
AcDbLine
10
-9.7959079548688273
20
117.00629066490447
30
0
11
-9.7165331567298914
21
117.2708739982378
31
0
0
LINE
5
316
100
AcDbEntity
8
0
100
AcDbLine
10
-9.7165331567298914
20
117.2708739982378
30
0
11
-9.6371583585909537
21
117.58837319079355
31
0
0
LINE
5
317
100
AcDbEntity
8
0
100
AcDbLine
10
-9.6371583585909537
20
117.58837319079355
30
0
11
-9.5577835604520178
21
117.95878824257171
31
0
0
LINE
5
318
100
AcDbEntity
8
0
100
AcDbLine
10
-9.5577835604520178
20
117.95878824257171
30
0
11
-9.5048666919242866
21
118.38212319079354
31
0
0
LINE
5
319
100
AcDbEntity
8
0
100
AcDbLine
10
-9.5048666919242866
20
118.38212319079354
30
0
11
-9.4519498233965553
21
118.85837399823778
31
0
0
LINE
5
320
100
AcDbEntity
8
0
100
AcDbLine
10
-9.4519498233965553
20
118.85837399823778
30
0
11
-9.4519498233965553
21
120.49878985746021
31
0
0
LINE
5
321
100
AcDbEntity
8
0
100
AcDbLine
10
-9.4519498233965553
20
120.49878985746021
30
0
11
-10.56320002525762
21
121.1337882425717
31
0
0
LINE
5
322
100
AcDbEntity
8
0
100
AcDbLine
10
-10.56320002525762
20
121.1337882425717
30
0
11
-10.695491691924286
21
121.05441243512745
31
0
0
LINE
5
323
100
AcDbEntity
8
0
100
AcDbLine
10
-10.695491691924286
20
121.05441243512745
30
0
11
-10.986532954868826
21
120.92212076846079
31
0
0
LINE
5
324
100
AcDbEntity
8
0
100
AcDbLine
10
-10.986532954868826
20
120.92212076846079
30
0
11
-11.489241691924288
21
120.63107748690561
31
0
0
LINE
5
325
100
AcDbEntity
8
0
100
AcDbLine
10
-11.489241691924288
20
120.63107748690561
30
0
11
-11.939033560452019
21
120.34003420535043
31
0
0
LINE
5
326
100
AcDbEntity
8
0
100
AcDbLine
10
-11.939033560452019
20
120.34003420535043
30
0
11
-12.335908560452019
21
120.04899092379526
31
0
0
LINE
5
327
100
AcDbEntity
8
0
100
AcDbLine
10
-12.335908560452019
20
120.04899092379526
30
0
11
-12.679866691924289
21
119.75794764224007
31
0
0
LINE
5
328
100
AcDbEntity
8
0
100
AcDbLine
10
-12.679866691924289
20
119.75794764224007
30
0
11
-12.970907954868826
21
119.49336430890675
31
0
0
LINE
5
329
100
AcDbEntity
8
0
100
AcDbLine
10
-12.970907954868826
20
119.49336430890675
30
0
11
-13.209033358590954
21
119.25524092379526
31
0
0
LINE
5
330
100
AcDbEntity
8
0
100
AcDbLine
10
-13.209033358590954
20
119.25524092379526
30
0
11
-13.394241893785351
21
119.04357344968433
31
0
0
LINE
5
331
100
AcDbEntity
8
0
100
AcDbLine
10
-13.394241893785351
20
119.04357344968433
30
0
11
-13.526533560452016
21
118.85836592379526
31
0
0
LINE
5
332
100
AcDbEntity
8
0
100
AcDbLine
10
-13.526533560452016
20
118.85836592379526
30
0
11
-13.632367297507479
21
118.69961430890676
31
0
0
LINE
5
333
100
AcDbEntity
8
0
100
AcDbLine
10
-13.632367297507479
20
118.69961430890676
30
0
11
-13.711742095646413
21
118.56732264224007
31
0
0
LINE
5
334
100
AcDbEntity
8
0
100
AcDbLine
10
-13.711742095646413
20
118.56732264224007
30
0
11
-13.764658964174146
21
118.48794683479582
31
0
0
SPLINE
5
335
100
AcDbEntity
8
0
100
AcDbSpline
70
0
71
2
72
6
73
3
74
0
42
0.000000001
43
0.0000000001
44
0.0000000001
40
0
40
0
40
0
40
1
40
1
40
1
10
-13.764658964174146
20
118.48794683479582
30
0
10
-13.764658964174146
20
118.46148688657397
30
0
10
-14.452575227118684
20
116.6887793606849
30
0
0
LINE
5
336
100
AcDbEntity
8
0
100
AcDbLine
10
-14.452575227118684
20
116.68877936068492
30
0
11
-17.310075025257621
21
117.42961350146248
31
0
0
LINE
5
337
100
AcDbEntity
8
0
100
AcDbLine
10
-17.310075025257621
20
117.42961350146248
30
0
11
-17.045491691924287
21
119.30815678301767
31
0
0
LINE
5
338
100
AcDbEntity
8
0
100
AcDbLine
10
-17.045491691924287
20
119.30815678301767
30
0
11
-17.045491691924287
21
119.99607506457284
31
0
0
LINE
5
339
100
AcDbEntity
8
0
100
AcDbLine
10
-17.045491691924287
20
119.99607506457284
30
0
11
-17.124867499368545
21
120.28711834612804
31
0
0
LINE
5
340
100
AcDbEntity
8
0
100
AcDbLine
10
-17.124867499368545
20
120.28711834612804
30
0
11
-17.204243306812799
21
120.60461753868375
31
0
0
LINE
5
341
100
AcDbEntity
8
0
100
AcDbLine
10
-17.204243306812799
20
120.60461753868375
30
0
11
-17.336534973479463
21
120.97503259046192
31
0
0
LINE
5
342
100
AcDbEntity
8
0
100
AcDbLine
10
-17.336534973479463
20
120.97503259046192
30
0
11
-17.495284569757334
21
121.37190759046192
31
0
0
LINE
5
343
100
AcDbEntity
8
0
100
AcDbLine
10
-17.495284569757334
20
121.37190759046192
30
0
11
-17.706952043868259
21
121.82169844968433
31
0
0
LINE
5
344
100
AcDbEntity
8
0
100
AcDbLine
10
-17.706952043868259
20
121.82169844968433
30
0
11
-17.97153537720159
21
122.29794925712858
31
0
0
LINE
5
345
100
AcDbEntity
8
0
100
AcDbLine
10
-17.97153537720159
20
122.29794925712858
30
0
11
-18.289034569757337
21
122.80065597557342
31
0
0
LINE
5
346
100
AcDbEntity
8
0
100
AcDbLine
10
-18.289034569757337
20
122.80065597557342
30
0
11
-18.474242095646417
21
123.06523930890674
31
0
0
LINE
5
347
100
AcDbEntity
8
0
100
AcDbLine
10
-18.474242095646417
20
123.06523930890674
30
0
11
-18.580075832701876
21
123.1975309755734
31
0
0
LINE
5
348
100
AcDbEntity
8
0
100
AcDbLine
10
-18.580075832701876
20
123.1975309755734
30
0
11
-19.850076640146131
21
123.19753097557341
31
0
0
LINE
5
349
100
AcDbEntity
8
0
100
AcDbLine
10
-19.850076640146131
20
123.19753097557341
30
0
11
-19.929452447590386
21
123.03877936068491
31
0
0
LINE
5
350
100
AcDbEntity
8
0
100
AcDbLine
10
-19.929452447590386
20
123.03877936068491
30
0
11
-20.088202043868257
21
122.77419602735158
31
0
0
LINE
5
351
100
AcDbEntity
8
0
100
AcDbLine
10
-20.088202043868257
20
122.77419602735158
30
0
11
-20.379243306812796
21
122.27148930890675
31
0
0
LINE
5
352
100
AcDbEntity
8
0
100
AcDbLine
10
-20.379243306812796
20
122.27148930890675
30
0
11
-20.617368710534926
21
121.79523850146251
31
0
0
LINE
5
353
100
AcDbEntity
8
0
100
AcDbLine
10
-20.617368710534926
20
121.79523850146251
30
0
11
-20.802576236424002
21
121.34544764224009
31
0
0
LINE
5
354
100
AcDbEntity
8
0
100
AcDbLine
10
-20.802576236424002
20
121.34544764224009
30
0
11
-20.961325832701874
21
120.92211269401822
31
0
0
LINE
5
355
100
AcDbEntity
8
0
100
AcDbLine
10
-20.961325832701874
20
120.92211269401822
30
0
11
-21.067159569757337
21
120.55169764224006
31
0
0
LINE
5
356
100
AcDbEntity
8
0
100
AcDbLine
10
-21.067159569757337
20
120.55169764224006
30
0
11
-21.146535377201591
21
120.23419844968433
31
0
0
LINE
5
357
100
AcDbEntity
8
0
100
AcDbLine
10
-21.146535377201591
20
120.23419844968433
30
0
11
-21.199451236424007
21
119.94315516812915
31
0
0
LINE
5
358
100
AcDbEntity
8
0
100
AcDbLine
10
-21.199451236424007
20
119.94315516812915
30
0
11
-21.199451236424007
21
119.70503178301766
31
0
0
LINE
5
359
100
AcDbEntity
8
0
100
AcDbLine
10
-21.199451236424007
20
119.70503178301766
30
0
11
-21.25236709564642
21
119.51982425712858
31
0
0
LINE
5
360
100
AcDbEntity
8
0
100
AcDbLine
10
-21.25236709564642
20
119.51982425712858
30
0
11
-21.25236709564642
21
119.30815678301768
31
0
0
SPLINE
5
361
100
AcDbEntity
8
0
100
AcDbSpline
70
0
71
2
72
6
73
3
74
0
42
0.000000001
43
0.0000000001
44
0.0000000001
40
0
40
0
40
0
40
1
40
1
40
1
10
-21.25236709564642
20
119.30815678301767
30
0
10
-21.25236709564642
20
119.28169683479582
30
0
10
-20.961325832701874
20
117.40315759046192
30
0
0
LINE
5
362
100
AcDbEntity
8
0
100
AcDbLine
10
-20.961325832701874
20
117.40315759046194
30
0
11
-23.818826640146131
21
116.60940759046191
31
0
0
LINE
5
363
100
AcDbEntity
8
0
100
AcDbLine
10
-23.818826640146131
20
116.60940759046191
30
0
11
-24.53320083270188
21
118.35565920535043
31
0
0
SPLINE
5
364
100
AcDbEntity
8
0
100
AcDbSpline
70
0
71
2
72
6
73
3
74
0
42
0.000000001
43
0.0000000001
44
0.0000000001
40
0
40
0
40
0
40
1
40
1
40
1
10
-24.53320083270188
20
118.35565920535043
30
0
10
-24.53320083270188
20
118.38211915357228
30
0
10
-24.586116691924289
20
118.46149092379525
30
0
0
LINE
5
365
100
AcDbEntity
8
0
100
AcDbLine
10
-24.586116691924289
20
118.46149092379525
30
0
11
-24.665492499368543
21
118.56732264224007
31
0
0
LINE
5
366
100
AcDbEntity
8
0
100
AcDbLine
10
-24.665492499368543
20
118.56732264224007
30
0
11
-24.771326236424009
21
118.72607425712857
31
0
0
LINE
5
367
100
AcDbEntity
8
0
100
AcDbLine
10
-24.771326236424009
20
118.72607425712857
30
0
11
-24.930075832701881
21
118.91128178301767
31
0
0
LINE
5
368
100
AcDbEntity
8
0
100
AcDbLine
10
-24.930075832701881
20
118.91128178301767
30
0
11
-25.115283358590958
21
119.12294925712858
31
0
0
LINE
5
369
100
AcDbEntity
8
0
100
AcDbLine
10
-25.115283358590958
20
119.12294925712858
30
0
11
-25.35340876231308
21
119.36107264224007
31
0
0
LINE
5
370
100
AcDbEntity
8
0
100
AcDbLine
10
-25.35340876231308
20
119.36107264224007
30
0
11
-25.644450025257623
21
119.62565597557341
31
0
0
LINE
5
371
100
AcDbEntity
8
0
100
AcDbLine
10
-25.644450025257623
20
119.62565597557341
30
0
11
-25.988409166035211
21
119.89023930890673
31
0
0
LINE
5
372
100
AcDbEntity
8
0
100
AcDbLine
10
-25.988409166035211
20
119.89023930890673
30
0
11
-26.385284166035209
21
120.18128259046192
31
0
0
LINE
5
373
100
AcDbEntity
8
0
100
AcDbLine
10
-26.385284166035209
20
120.18128259046192
30
0
11
-26.83507502525763
21
120.47232587201708
31
0
0
LINE
5
374
100
AcDbEntity
8
0
100
AcDbLine
10
-26.83507502525763
20
120.47232587201708
30
0
11
-27.364241691924292
21
120.76336915357226
31
0
0
LINE
5
375
100
AcDbEntity
8
0
100
AcDbLine
10
-27.364241691924292
20
120.76336915357226
30
0
11
-27.655282954868831
21
120.89566082023894
31
0
0
LINE
5
376
100
AcDbEntity
8
0
100
AcDbLine
10
-27.655282954868831
20
120.89566082023894
30
0
11
-27.814032551146699
21
120.97503662768318
31
0
0
LINE
5
377
100
AcDbEntity
8
0
100
AcDbLine
10
-27.814032551146699
20
120.97503662768318
30
0
11
-28.925281743702449
21
120.31357829434987
31
0
0
LINE
5
378
100
AcDbEntity
8
0
100
AcDbLine
10
-28.925281743702449
20
120.31357829434987
30
0
11
-28.925281743702449
21
118.67316243512744
31
0
0
LINE
5
379
100
AcDbEntity
8
0
100
AcDbLine
10
-28.925281743702449
20
118.67316243512744
30
0
11
-28.845905936258195
21
118.19691162768319
31
0
0
LINE
5
380
100
AcDbEntity
8
0
100
AcDbLine
10
-28.845905936258195
20
118.19691162768319
30
0
11
-28.766530128813944
21
117.77357667946134
31
0
0
LINE
5
381
100
AcDbEntity
8
0
100
AcDbLine
10
-28.766530128813944
20
117.77357667946134
30
0
11
-28.687154321369682
21
117.4031616276832
31
0
0
LINE
5
382
100
AcDbEntity
8
0
100
AcDbLine
10
-28.687154321369682
20
117.4031616276832
30
0
11
-28.581320584314227
21
117.08566243512746
31
0
0
LINE
5
383
100
AcDbEntity
8
0
100
AcDbLine
10
-28.581320584314227
20
117.08566243512746
30
0
11
-28.475486847258765
21
116.82107910179411
31
0
0
LINE
5
384
100
AcDbEntity
8
0
100
AcDbLine
10
-28.475486847258765
20
116.82107910179411
30
0
11
-28.39611103981451
21
116.60941162768319
31
0
0
LINE
5
385
100
AcDbEntity
8
0
100
AcDbLine
10
-28.39611103981451
20
116.60941162768319
30
0
11
-28.316735232370252
21
116.45066203140532
31
0
0
LINE
5
386
100
AcDbEntity
8
0
100
AcDbLine
10
-28.316735232370252
20
116.45066203140532
30
0
11
-28.237359424926002
21
116.31837036473866
31
0
0
LINE
5
387
100
AcDbEntity
8
0
100
AcDbLine
10
-28.237359424926002
20
116.31837036473866
30
0
11
-28.184443565703585
21
116.2389945572944
31
0
0
LINE
5
388
100
AcDbEntity
8
0
100
AcDbLine
10
-28.184443565703585
20
116.2389945572944
30
0
11
-26.993818565703585
21
114.73087036473865
31
0
0
LINE
5
389
100
AcDbEntity
8
0
100
AcDbLine
10
-26.993818565703585
20
114.73087036473865
30
0
11
-29.084027302759043
21
112.61420369807198
31
0
0
LINE
5
390
100
AcDbEntity
8
0
100
AcDbLine
10
-29.084027302759043
20
112.61420369807198
30
0
11
-30.565693565703587
21
113.77837076846077
31
0
0
LINE
5
391
100
AcDbEntity
8
0
100
AcDbLine
10
-30.565693565703587
20
113.77837076846077
30
0
11
-30.645069373147841
21
113.85774657590503
31
0
0
LINE
5
392
100
AcDbEntity
8
0
100
AcDbLine
10
-30.645069373147841
20
113.85774657590503
30
0
11
-30.777361039814512
21
113.93712238334928
31
0
0
LINE
5
393
100
AcDbEntity
8
0
100
AcDbLine
10
-30.777361039814512
20
113.93712238334928
30
0
11
-30.93611063609238
21
114.01649819079354
31
0
0
LINE
5
394
100
AcDbEntity
8
0
100
AcDbLine
10
-30.93611063609238
20
114.01649819079354
30
0
11
-31.147778110203301
21
114.09587399823779
31
0
0
LINE
5
395
100
AcDbEntity
8
0
100
AcDbLine
10
-31.147778110203301
20
114.09587399823779
30
0
11
-31.412361443536632
21
114.17524980568204
31
0
0
LINE
5
396
100
AcDbEntity
8
0
100
AcDbLine
10
-31.412361443536632
20
114.17524980568204
30
0
11
-31.729860636092376
21
114.25462561312629
31
0
0
LINE
5
397
100
AcDbEntity
8
0
100
AcDbLine
10
-31.729860636092376
20
114.25462561312629
30
0
11
-32.100277706481172
21
114.33400142057056
31
0
0
LINE
5
398
100
AcDbEntity
8
0
100
AcDbLine
10
-32.100277706481172
20
114.33400142057056
30
0
11
-32.523610636092386
21
114.38691727979297
31
0
0
LINE
5
399
100
AcDbEntity
8
0
100
AcDbLine
10
-32.523610636092386
20
114.38691727979297
30
0
11
-32.999861443536638
21
114.43983313901538
31
0
0
LINE
5
400
100
AcDbEntity
8
0
100
AcDbLine
10
-32.999861443536638
20
114.43983313901538
30
0
11
-34.64027932136969
21
114.43983313901539
31
0
0
LINE
5
401
100
AcDbEntity
8
0
100
AcDbLine
10
-34.64027932136969
20
114.43983313901539
30
0
11
-35.275277706481177
21
113.32858394645964
31
0
0
LINE
5
402
100
AcDbEntity
8
0
100
AcDbLine
10
-35.275277706481177
20
113.32858394645964
30
0
11
-35.195901899036926
21
113.14337642057056
31
0
0
LINE
5
403
100
AcDbEntity
8
0
100
AcDbLine
10
-35.195901899036926
20
113.14337642057056
30
0
11
-35.063610232370252
21
112.85233515762602
31
0
0
LINE
5
404
100
AcDbEntity
8
0
100
AcDbLine
10
-35.063610232370252
20
112.85233515762602
30
0
11
-34.772566950815083
21
112.34962642057056
31
0
0
LINE
5
405
100
AcDbEntity
8
0
100
AcDbLine
10
-34.772566950815083
20
112.34962642057056
30
0
11
-34.4815236692599
21
111.89983556134814
31
0
0
LINE
5
406
100
AcDbEntity
8
0
100
AcDbLine
10
-34.4815236692599
20
111.89983556134814
30
0
11
-34.190480387704724
21
111.50296056134815
31
0
0
LINE
5
407
100
AcDbEntity
8
0
100
AcDbLine
10
-34.190480387704724
20
111.50296056134815
30
0
11
-33.899437106149556
21
111.15900142057056
31
0
0
LINE
5
408
100
AcDbEntity
8
0
100
AcDbLine
10
-33.899437106149556
20
111.15900142057056
30
0
11
-33.634853772816214
21
110.86796015762602
31
0
0
LINE
5
409
100
AcDbEntity
8
0
100
AcDbLine
10
-33.634853772816214
20
110.86796015762602
30
0
11
-33.396728369094092
21
110.62983475390389
31
0
0
LINE
5
410
100
AcDbEntity
8
0
100
AcDbLine
10
-33.396728369094092
20
110.62983475390389
30
0
11
-33.185060894983174
21
110.44462722801482
31
0
0
LINE
5
411
100
AcDbEntity
8
0
100
AcDbLine
10
-33.185060894983174
20
110.44462722801482
30
0
11
-32.999853369094097
21
110.31233556134815
31
0
0
LINE
5
412
100
AcDbEntity
8
0
100
AcDbLine
10
-32.999853369094097
20
110.31233556134815
30
0
11
-32.841103772816219
21
110.2065018242927
31
0
0
LINE
5
413
100
AcDbEntity
8
0
100
AcDbLine
10
-32.841103772816219
20
110.2065018242927
30
0
11
-32.708812106149551
21
110.12712601684842
31
0
0
LINE
5
414
100
AcDbEntity
8
0
100
AcDbLine
10
-32.708812106149551
20
110.12712601684842
30
0
11
-32.629436298705293
21
110.07421015762603
31
0
0
LINE
5
415
100
AcDbEntity
8
0
100
AcDbLine
10
-32.629436298705293
20
110.07421015762603
30
0
11
-30.856728772816219
21
109.38629389468149
31
0
0
LINE
5
416
100
AcDbEntity
8
0
100
AcDbLine
10
-30.856728772816219
20
109.38629389468149
30
0
11
-31.597562913593805
21
106.52879308723723
31
0
0
LINE
5
417
100
AcDbEntity
8
0
100
AcDbLine
10
-31.597562913593805
20
106.52879308723723
30
0
11
-33.47610417653835
21
106.79337642057055
31
0
0
LINE
5
418
100
AcDbEntity
8
0
100
AcDbLine
10
-33.47610417653835
20
106.79337642057055
30
0
11
-34.16402043948289
21
106.79337642057057
31
0
0
LINE
5
419
100
AcDbEntity
8
0
100
AcDbLine
10
-34.16402043948289
20
106.79337642057057
30
0
11
-34.455063721038066
21
106.71400061312632
31
0
0
LINE
5
420
100
AcDbEntity
8
0
100
AcDbLine
10
-34.455063721038066
20
106.71400061312632
30
0
11
-34.772562913593809
21
106.63462480568205
31
0
0
LINE
5
421
100
AcDbEntity
8
0
100
AcDbLine
10
-34.772562913593809
20
106.63462480568205
30
0
11
-35.142977965371969
21
106.50233313901538
31
0
0
LINE
5
422
100
AcDbEntity
8
0
100
AcDbLine
10
-35.142977965371969
20
106.50233313901538
30
0
11
-35.539852965371963
21
106.34358354273751
31
0
0
LINE
5
423
100
AcDbEntity
8
0
100
AcDbLine
10
-35.539852965371963
20
106.34358354273751
30
0
11
-35.989643824594381
21
106.13191606862658
31
0
0
LINE
5
424
100
AcDbEntity
8
0
100
AcDbLine
10
-35.989643824594381
20
106.13191606862658
30
0
11
-36.465894632038626
21
105.86733273529325
31
0
0
LINE
5
425
100
AcDbEntity
8
0
100
AcDbLine
10
-36.465894632038626
20
105.86733273529325
30
0
11
-36.968601350483461
21
105.54983354273752
31
0
0
LINE
5
426
100
AcDbEntity
8
0
100
AcDbLine
10
-36.968601350483461
20
105.54983354273752
30
0
11
-37.233184683816788
21
105.36462601684845
31
0
0
LINE
5
427
100
AcDbEntity
8
0
100
AcDbLine
10
-37.233184683816788
20
105.36462601684845
30
0
11
-37.365476350483455
21
105.25879227979296
31
0
0
LINE
5
428
100
AcDbEntity
8
0
100
AcDbLine
10
-37.365476350483455
20
105.25879227979296
30
0
11
-37.391936298705303
21
105.25879227979297
31
0
0
ENDSEC
0
SECTION
2
OBJECTS
0
DICTIONARY
5
C
100
AcDbDictionary
3
ACAD_GROUP
350
D
3
ACAD_MLINESTYLE
350
17
0
DICTIONARY
5
D
100
AcDbDictionary
0
DICTIONARY
5
1A
330
C
100
AcDbDictionary
0
DICTIONARY
5
17
100
AcDbDictionary
0
ENDSEC
0
EOF
