0
SECTION
2
HEADER
9
$INSUNITS
70
4
9
$ACADVER
1
AC1014
9
$HANDSEED
5
FFFF
0
ENDSEC
0
SECTION
2
TABLES
0
TABLE
2
VPORT
5
8
100
AcDbSymbolTable
0
ENDTAB
0
TABLE
2
LTYPE
5
5
100
AcDbSymbolTable
0
LTYPE
5
14
100
AcDbSymbolTableRecord
100
AcDbLinetypeTableRecord
2
BYBLOCK
70
0
0
LTYPE
5
15
100
AcDbSymbolTableRecord
100
AcDbLinetypeTableRecord
2
BYLAYER
70
0
0
LTYPE
5
16
100
AcDbSymbolTableRecord
100
AcDbLinetypeTableRecord
2
DASHED
70
0
3
Dashed __ __ __ __ __ __ __ __ __ __ __ __ __ _
72
65
73
2
40
0.75
49
0.5
74
0
49
-0.25
74
0
0
ENDTAB
0
TABLE
2
LAYER
5
2
100
AcDbSymbolTable
70
2
0
LAYER
5
50
100
AcDbSymbolTableRecord
100
AcDbLayerTableRecord
2
0
70
0
62
7
6
CONTINUOUS
0
ENDTAB
0
TABLE
2
STYLE
5
3
100
AcDbSymbolTable
70
1
0
STYLE
5
11
100
AcDbSymbolTableRecord
100
AcDbTextStyleTableRecord
2
STANDARD
70
0
0
ENDTAB
0
TABLE
2
VIEW
5
6
100
AcDbSymbolTable
70
0
0
ENDTAB
0
TABLE
2
UCS
5
7
100
AcDbSymbolTable
70
0
0
ENDTAB
0
TABLE
2
APPID
5
9
100
AcDbSymbolTable
70
2
0
APPID
5
12
100
AcDbSymbolTableRecord
100
AcDbRegAppTableRecord
2
ACAD
70
0
0
ENDTAB
0
TABLE
2
DIMSTYLE
5
A
100
AcDbSymbolTable
70
1
0
ENDTAB
0
TABLE
2
BLOCK_RECORD
5
1
100
AcDbSymbolTable
70
1
0
BLOCK_RECORD
5
1F
100
AcDbSymbolTableRecord
100
AcDbBlockTableRecord
2
*MODEL_SPACE
0
BLOCK_RECORD
5
1B
100
AcDbSymbolTableRecord
100
AcDbBlockTableRecord
2
*PAPER_SPACE
0
ENDTAB
0
ENDSEC
0
SECTION
2
BLOCKS
0
BLOCK
5
20
100
AcDbEntity
100
AcDbBlockBegin
2
*MODEL_SPACE
0
ENDBLK
5
21
100
AcDbEntity
100
AcDbBlockEnd
0
BLOCK
5
1C
100
AcDbEntity
100
AcDbBlockBegin
2
*PAPER_SPACE
0
ENDBLK
5
1D
100
AcDbEntity
100
AcDbBlockEnd
0
ENDSEC
0
SECTION
2
ENTITIES
0
CIRCLE
5
100
100
AcDbEntity
8
0
100
AcDbCircle
10
-91.661077727266601
20
26.481273591410542
30
-2.2204460492503131e-15
40
2.7499999999999951
210
1.8620101661327441e-33
220
-1.8488927466117472e-32
230
1
0
LINE
5
101
100
AcDbEntity
8
0
100
AcDbLine
10
-109.65763668656348
20
23.387402059664268
30
0
11
-109.41127005042547
21
22.119955622346225
31
-1.5407439555097887e-32
0
LINE
5
102
100
AcDbEntity
8
0
100
AcDbLine
10
-109.41127005042547
20
22.119955622346225
30
-1.5407439555097887e-32
11
-109.29122778172341
21
22.057039116358332
31
-4.8148248609680896e-34
0
LINE
5
103
100
AcDbEntity
8
0
100
AcDbLine
10
-109.29122778172341
20
22.057039116358332
30
-4.8148248609680896e-34
11
-109.00121473798652
21
21.951691078604235
31
0
0
LINE
5
104
100
AcDbEntity
8
0
100
AcDbLine
10
-109.00121473798652
20
21.951691078604235
30
0
11
-108.45221086602167
21
21.76191802974456
31
0
0
LINE
5
105
100
AcDbEntity
8
0
100
AcDbLine
10
-108.45221086602167
20
21.76191802974456
30
0
11
-107.93927365760362
21
21.619040600773264
31
-1.9259299443872359e-33
0
LINE
5
106
100
AcDbEntity
8
0
100
AcDbLine
10
-107.93927365760362
20
21.619040600773264
30
-1.9259299443872359e-33
11
-107.46240746094765
21
21.523060002875258
31
-1.4444474582904269e-33
0
LINE
5
107
100
AcDbEntity
8
0
100
AcDbLine
10
-107.46240746094765
20
21.523060002875258
30
-1.4444474582904269e-33
11
-107.01655951675441
21
21.448003201963939
31
9.6296497219361793e-34
0
LINE
5
108
100
AcDbEntity
8
0
100
AcDbLine
10
-107.01655951675441
20
21.448003201963939
30
9.6296497219361793e-34
11
-106.63275600357895
21
21.414792454349659
31
-7.2222372914521344e-34
0
LINE
5
109
100
AcDbEntity
8
0
100
AcDbLine
10
-106.63275600357895
20
21.414792454349659
30
-7.2222372914521344e-34
11
-106.30594454729099
21
21.397456707468876
31
8.4259435066941569e-34
0
LINE
5
110
100
AcDbEntity
8
0
100
AcDbLine
10
-106.30594454729099
20
21.397456707468876
30
8.4259435066941569e-34
11
-106.01015172863482
21
21.40104673909784
31
7.2222372914521344e-34
0
LINE
5
111
100
AcDbEntity
8
0
100
AcDbLine
10
-106.01015172863482
20
21.40104673909784
30
7.2222372914521344e-34
11
-105.77640334099642
21
21.446482824023853
31
-7.2222372914521344e-34
0
LINE
5
112
100
AcDbEntity
8
0
100
AcDbLine
10
-105.77640334099642
20
21.446482824023853
30
-7.2222372914521344e-34
11
-105.58450177699322
21
21.429878440978243
31
6.018531076210112e-34
0
LINE
5
113
100
AcDbEntity
8
0
100
AcDbLine
10
-105.58450177699322
20
21.429878440978243
30
6.018531076210112e-34
11
-105.35075140783177
21
21.475314911073333
31
4.8148248609680896e-34
0
LINE
5
114
100
AcDbEntity
8
0
100
AcDbLine
10
-105.35075140783177
20
21.475314911073333
30
4.8148248609680896e-34
11
-103.56225753275112
21
22.119451505376652
31
3.8518598887744717e-33
0
LINE
5
115
100
AcDbEntity
8
0
100
AcDbLine
10
-103.56225753275112
20
22.119451505376652
30
3.8518598887744717e-33
11
-102.23785408575871
21
19.465905682022711
31
-4.622231866529366e-32
0
LINE
5
116
100
AcDbEntity
8
0
100
AcDbLine
10
-102.23785408575871
20
19.465905682022711
30
-4.622231866529366e-32
11
-103.81571093937033
21
18.431455426550993
31
-1.5407439555097887e-32
0
LINE
5
117
100
AcDbEntity
8
0
100
AcDbLine
10
-103.81571093937033
20
18.431455426550993
30
-1.5407439555097887e-32
11
-103.88353137484575
21
18.364365171564664
31
-9.6296497219361793e-34
0
LINE
5
118
100
AcDbEntity
8
0
100
AcDbLine
10
-103.88353137484575
20
18.364365171564664
30
-9.6296497219361793e-34
11
-103.97227522213879
21
18.266254682592525
31
-9.6296497219361793e-34
0
LINE
5
119
100
AcDbEntity
8
0
100
AcDbLine
10
-103.97227522213879
20
18.266254682592525
30
-9.6296497219361793e-34
11
-104.10791411156659
21
18.132074557788943
31
-1.9259299443872359e-33
0
LINE
5
120
100
AcDbEntity
8
0
100
AcDbLine
10
-104.10791411156659
20
18.132074557788943
30
-1.9259299443872359e-33
11
-104.25942800172788
21
17.940902376097853
31
-2.8888949165808538e-33
0
LINE
5
121
100
AcDbEntity
8
0
100
AcDbLine
10
-104.25942800172788
20
17.940902376097853
30
-2.8888949165808538e-33
11
-104.43186709264532
21
17.71870858449034
31
-3.8518598887744717e-33
0
LINE
5
122
100
AcDbEntity
8
0
100
AcDbLine
10
-104.43186709264532
20
17.71870858449034
30
-3.8518598887744717e-33
11
-104.62018099171172
21
17.43952174523378
31
-1.9259299443872359e-33
0
LINE
5
123
100
AcDbEntity
8
0
100
AcDbLine
10
-104.62018099171172
20
17.43952174523378
30
-1.9259299443872359e-33
11
-104.82436989151157
21
17.103342849089714
31
-3.8518598887744717e-33
0
LINE
5
124
100
AcDbEntity
8
0
100
AcDbLine
10
-104.82436989151157
20
17.103342849089714
30
-3.8518598887744717e-33
11
-105.01846177655872
21
16.715219316380704
31
-3.8518598887744717e-33
0
LINE
5
125
100
AcDbEntity
8
0
100
AcDbLine
10
-105.01846177655872
20
16.715219316380704
30
-3.8518598887744717e-33
11
-105.22843045127787
21
16.270102350853573
31
-3.8518598887744717e-33
0
LINE
5
126
100
AcDbEntity
8
0
100
AcDbLine
10
-105.22843045127787
20
16.270102350853573
30
-3.8518598887744717e-33
11
-105.42830211124431
21
15.773040748761497
31
-3.8518598887744717e-33
0
LINE
5
127
100
AcDbEntity
8
0
100
AcDbLine
10
-105.42830211124431
20
15.773040748761497
30
-3.8518598887744717e-33
11
-105.61302834537388
21
15.198062687202778
31
-3.8518598887744717e-33
0
LINE
5
128
100
AcDbEntity
8
0
100
AcDbLine
10
-105.61302834537388
20
15.198062687202778
30
-3.8518598887744717e-33
11
-105.68735614914216
21
14.887126231648306
31
-3.8518598887744717e-33
0
LINE
5
129
100
AcDbEntity
8
0
100
AcDbLine
10
-105.68735614914216
20
14.887126231648306
30
-3.8518598887744717e-33
11
-105.73498274769663
21
14.716147694293632
31
-9.6296497219361793e-34
0
LINE
5
130
100
AcDbEntity
8
0
100
AcDbLine
10
-105.73498274769663
20
14.716147694293632
30
-9.6296497219361793e-34
11
-105.72488573294387
21
14.664203057728688
31
-4.8148248609680896e-34
0
LINE
5
131
100
AcDbEntity
8
0
100
AcDbLine
10
-105.72488573294387
20
14.664203057728688
30
-4.8148248609680896e-34
11
-104.86354371331645
21
13.699581855859027
31
-1.5407439555097887e-32
0
LINE
5
132
100
AcDbEntity
8
0
100
AcDbLine
10
-104.86354371331645
20
13.699581855859027
30
-1.5407439555097887e-32
11
-103.25326691513399
21
14.012587965102375
31
1.9259299443872359e-33
0
LINE
5
133
100
AcDbEntity
8
0
100
AcDbLine
10
-103.25326691513399
20
14.012587965102375
30
1.9259299443872359e-33
11
-102.8009116026479
21
14.181377364759197
31
0
0
LINE
5
134
100
AcDbEntity
8
0
100
AcDbLine
10
-102.8009116026479
20
14.181377364759197
30
0
11
-102.40050191748828
21
14.34006955707873
31
0
0
LINE
5
135
100
AcDbEntity
8
0
100
AcDbLine
10
-102.40050191748828
20
14.34006955707873
30
0
11
-102.05203587813207
21
14.488664927230055
31
9.6296497219361793e-34
0
LINE
5
136
100
AcDbEntity
8
0
100
AcDbLine
10
-102.05203587813207
20
14.488664927230055
30
9.6296497219361793e-34
11
-101.76056406977098
21
14.653135903707341
31
1.9259299443872359e-33
0
LINE
5
137
100
AcDbEntity
8
0
100
AcDbLine
10
-101.76056406977098
20
14.653135903707341
30
1.9259299443872359e-33
11
-101.5210359072133
21
14.807510058016415
31
1.9259299443872359e-33
0
LINE
5
138
100
AcDbEntity
8
0
100
AcDbLine
10
-101.5210359072133
20
14.807510058016415
30
1.9259299443872359e-33
11
-101.32840278679039
21
14.925814576494041
31
9.6296497219361793e-34
0
LINE
5
139
100
AcDbEntity
8
0
100
AcDbLine
10
-101.32840278679039
20
14.925814576494041
30
9.6296497219361793e-34
11
-101.18771529369396
21
15.034021887634385
31
9.6296497219361793e-34
0
LINE
5
140
100
AcDbEntity
8
0
100
AcDbLine
10
-101.18771529369396
20
15.034021887634385
30
9.6296497219361793e-34
11
-101.07299962349921
21
15.137180787690625
31
1.9259299443872359e-33
0
LINE
5
141
100
AcDbEntity
8
0
100
AcDbLine
10
-101.07299962349921
20
15.137180787690625
30
1.9259299443872359e-33
11
-101.00517918802376
21
15.204271042676957
31
9.6296497219361793e-34
0
LINE
5
142
100
AcDbEntity
8
0
100
AcDbLine
10
-101.00517918802376
20
15.204271042676957
30
9.6296497219361793e-34
11
-99.782965685165095
21
16.681707987432596
31
2.311115933264683e-32
0
LINE
5
143
100
AcDbEntity
8
0
100
AcDbLine
10
-99.782965685165095
20
16.681707987432596
30
2.311115933264683e-32
11
-97.306357510310278
21
15.033781323262431
31
0
0
LINE
5
144
100
AcDbEntity
8
0
100
AcDbLine
10
-97.306357510310278
20
15.033781323262431
30
0
11
-98.166420294123199
21
13.357203889791016
31
-3.0814879110195774e-32
0
LINE
5
145
100
AcDbEntity
8
0
100
AcDbLine
10
-98.166420294123199
20
13.357203889791016
30
-3.0814879110195774e-32
11
-98.1981699104211
21
13.243217794492924
31
-1.9259299443872359e-33
0
LINE
5
146
100
AcDbEntity
8
0
100
AcDbLine
10
-98.1981699104211
20
13.243217794492924
30
-1.9259299443872359e-33
11
-98.250844920059706
21
13.098211080039949
31
-2.8888949165808538e-33
0
LINE
5
147
100
AcDbEntity
8
0
100
AcDbLine
10
-98.250844920059706
20
13.098211080039949
30
-2.8888949165808538e-33
11
-98.298471518614178
21
12.927232542685269
31
-2.8888949165808538e-33
0
LINE
5
148
100
AcDbEntity
8
0
100
AcDbLine
10
-98.298471518614178
20
12.927232542685269
30
-2.8888949165808538e-33
11
-98.336001102415921
21
12.704309368765653
31
-1.9259299443872359e-33
0
LINE
5
149
100
AcDbEntity
8
0
100
AcDbLine
10
-98.336001102415921
20
12.704309368765653
30
-1.9259299443872359e-33
11
-98.363433671464918
21
12.42944155828109
31
-1.9259299443872359e-33
0
LINE
5
150
100
AcDbEntity
8
0
100
AcDbLine
10
-98.363433671464918
20
12.42944155828109
30
-1.9259299443872359e-33
11
-98.380769225761156
21
12.10262911123159
31
-3.8518598887744717e-33
0
LINE
5
151
100
AcDbEntity
8
0
100
AcDbLine
10
-98.380769225761156
20
12.10262911123159
30
-3.8518598887744717e-33
11
-98.38800776530465
21
11.723872027617141
31
-5.7777898331617076e-33
0
LINE
5
152
100
AcDbEntity
8
0
100
AcDbLine
10
-98.38800776530465
20
11.723872027617141
30
-5.7777898331617076e-33
11
-98.35917567825517
21
11.298220094452473
31
-7.7037197775489434e-33
0
LINE
5
153
100
AcDbEntity
8
0
100
AcDbLine
10
-98.35917567825517
20
11.298220094452473
30
-7.7037197775489434e-33
11
-98.320246576452931
21
10.820623524722857
31
-3.8518598887744717e-33
0
LINE
5
154
100
AcDbEntity
8
0
100
AcDbLine
10
-98.320246576452931
20
10.820623524722857
30
-3.8518598887744717e-33
11
-98.007240274625048
21
9.2103457357788709
31
-3.0814879110195774e-32
0
LINE
5
155
100
AcDbEntity
8
0
100
AcDbLine
10
-98.007240274625048
20
9.2103457357788709
30
-3.0814879110195774e-32
11
-96.795244164997328
21
8.7990489207883762
31
3.8518598887744717e-33
0
LINE
5
156
100
AcDbEntity
8
0
100
AcDbLine
10
-96.795244164997328
20
8.7990489207883762
30
3.8518598887744717e-33
11
-96.680528494802616
21
8.9022078208446143
31
1.9259299443872359e-33
0
LINE
5
157
100
AcDbEntity
8
0
100
AcDbLine
10
-96.680528494802616
20
8.9022078208446143
30
1.9259299443872359e-33
11
-96.42007692042732
21
9.0876022091394955
31
2.8888949165808538e-33
0
LINE
5
158
100
AcDbEntity
8
0
100
AcDbLine
10
-96.42007692042732
20
9.0876022091394955
30
2.8888949165808538e-33
11
-95.982137747758259
21
9.4692180707594193
31
3.8518598887744717e-33
0
LINE
5
159
100
AcDbEntity
8
0
100
AcDbLine
10
-95.982137747758259
20
9.4692180707594193
30
3.8518598887744717e-33
11
-95.596144202415616
21
9.8407367250420599
31
1.9259299443872359e-33
0
LINE
5
160
100
AcDbEntity
8
0
100
AcDbLine
10
-95.596144202415616
20
9.8407367250420599
30
1.9259299443872359e-33
11
-95.262094302876449
21
10.202158557156489
31
3.8518598887744717e-33
0
LINE
5
161
100
AcDbEntity
8
0
100
AcDbLine
10
-95.262094302876449
20
10.202158557156489
30
3.8518598887744717e-33
11
-94.97998804914063
21
10.553483567102713
31
5.7777898331617076e-33
0
LINE
5
162
100
AcDbEntity
8
0
100
AcDbLine
10
-94.97998804914063
20
10.553483567102713
30
5.7777898331617076e-33
11
-94.744778915354942
21
10.868739051429181
31
3.8518598887744717e-33
0
LINE
5
163
100
AcDbEntity
8
0
100
AcDbLine
10
-94.744778915354942
20
10.868739051429181
30
3.8518598887744717e-33
11
-94.55646491999633
21
11.147925395304972
31
3.8518598887744717e-33
0
LINE
5
164
100
AcDbEntity
8
0
100
AcDbLine
10
-94.55646491999633
20
11.147925395304972
30
3.8518598887744717e-33
11
-94.415048044587763
21
11.391042213561004
31
1.9259299443872359e-33
0
LINE
5
165
100
AcDbEntity
8
0
100
AcDbLine
10
-94.415048044587763
20
11.391042213561004
30
1.9259299443872359e-33
11
-94.320526403898498
21
11.598090386747131
31
0
0
LINE
5
166
100
AcDbEntity
8
0
100
AcDbLine
10
-94.320526403898498
20
11.598090386747131
30
0
11
-94.24692807873457
21
11.774117830566684
31
1.9259299443872359e-33
0
LINE
5
167
100
AcDbEntity
8
0
100
AcDbLine
10
-94.24692807873457
20
11.774117830566684
30
1.9259299443872359e-33
11
-94.194253069096007
21
11.919124545019656
31
2.8888949165808538e-33
0
LINE
5
168
100
AcDbEntity
8
0
100
AcDbLine
10
-94.194253069096007
20
11.919124545019656
30
2.8888949165808538e-33
11
-94.157454849129465
21
12.007137826654507
31
4.8148248609680896e-34
0
LINE
5
169
100
AcDbEntity
8
0
100
AcDbLine
10
-94.157454849129465
20
12.007137826654507
30
4.8148248609680896e-34
11
-93.82547479586367
21
13.904509643944634
31
4.622231866529366e-32
0
LINE
5
170
100
AcDbEntity
8
0
100
AcDbLine
10
-93.82547479586367
20
13.904509643944634
30
4.622231866529366e-32
11
-90.879116700187325
21
13.722524575122943
31
-7.7037197775489434e-33
0
LINE
5
171
100
AcDbEntity
8
0
100
AcDbLine
10
-90.879116700187325
20
13.722524575122943
30
-7.7037197775489434e-33
11
-90.780396216619806
21
11.828012031219057
31
-3.0814879110195774e-32
0
LINE
5
172
100
AcDbEntity
8
0
100
AcDbLine
10
-90.780396216619806
20
11.828012031219057
30
-3.0814879110195774e-32
11
-90.649135506295465
21
11.152734232778654
31
-1.1555579666323415e-32
0
LINE
5
173
100
AcDbEntity
8
0
100
AcDbLine
10
-90.649135506295465
20
11.152734232778654
30
-1.1555579666323415e-32
11
-90.515684667511721
21
10.8821853408544
31
-1.9259299443872359e-33
0
LINE
5
174
100
AcDbEntity
8
0
100
AcDbLine
10
-90.515684667511721
20
10.8821853408544
30
-1.9259299443872359e-33
11
-90.377185321351575
21
10.58566413064767
31
-1.9259299443872359e-33
0
LINE
5
175
100
AcDbEntity
8
0
100
AcDbLine
10
-90.377185321351575
20
10.58566413064767
30
-1.9259299443872359e-33
11
-90.176645410927591
21
10.247295601424977
31
-3.8518598887744717e-33
0
LINE
5
176
100
AcDbEntity
8
0
100
AcDbLine
10
-90.176645410927591
20
10.247295601424977
30
-3.8518598887744717e-33
11
-89.945085170225511
21
9.8880031650039122
31
-3.8518598887744717e-33
0
LINE
5
177
100
AcDbEntity
8
0
100
AcDbLine
10
-89.945085170225511
20
9.8880031650039122
30
-3.8518598887744717e-33
11
-89.651482287444225
21
9.4868632993551927
31
-3.8518598887744717e-33
0
LINE
5
178
100
AcDbEntity
8
0
100
AcDbLine
10
-89.651482287444225
20
9.4868632993551927
30
-3.8518598887744717e-33
11
-89.300887347775415
21
9.0698484329729769
31
-3.8518598887744717e-33
0
LINE
5
179
100
AcDbEntity
8
0
100
AcDbLine
10
-89.300887347775415
20
9.0698484329729769
30
-3.8518598887744717e-33
11
-88.893300254926828
21
8.6369580704764957
31
0
0
LINE
5
180
100
AcDbEntity
8
0
100
AcDbLine
10
-88.893300254926828
20
8.6369580704764957
30
0
11
-88.661010631912632
21
8.4125751411711285
31
-3.8518598887744717e-33
0
LINE
5
181
100
AcDbEntity
8
0
100
AcDbLine
10
-88.661010631912632
20
8.4125751411711285
30
-3.8518598887744717e-33
11
-88.531878918193144
21
8.3029080746450319
31
-2.8888949165808538e-33
0
SPLINE
5
182
100
AcDbEntity
8
0
100
AcDbSpline
70
0
71
2
72
6
73
3
74
0
42
0.000000001
43
0.0000000001
44
0.0000000001
40
0
40
0
40
0
40
1
40
1
40
1
10
-88.531878918193144
20
8.3029080746450319
30
0
10
-88.526830410816785
20
8.2769357563625618
30
0
10
-87.280163096304321
20
8.5192633400903048
30
0
0
SPLINE
5
183
100
AcDbEntity
8
0
100
AcDbSpline
70
0
71
2
72
6
73
3
74
0
42
0.000000001
43
0.0000000001
44
0.0000000001
40
0
40
0
40
0
40
1
40
1
40
1
10
-87.280163096304321
20
8.5192633400903048
30
0
10
-87.285211603680679
20
8.5452356583727767
30
0
10
-87.232536594042102
20
8.6902423728257521
30
0
0
LINE
5
184
100
AcDbEntity
8
0
100
AcDbLine
10
-87.232536594042102
20
8.6902423728257521
30
0
11
-87.127188556288004
21
8.9802554165626258
31
3.8518598887744717e-33
0
LINE
5
185
100
AcDbEntity
8
0
100
AcDbLine
10
-87.127188556288004
20
8.9802554165626258
30
3.8518598887744717e-33
11
-86.937415796305118
21
9.5292607746697939
31
1.1555579666323415e-32
0
LINE
5
186
100
AcDbEntity
8
0
100
AcDbLine
10
-86.937415796305118
20
9.5292607746697939
30
1.1555579666323415e-32
11
-86.794538174749292
21
10.042196992326286
31
3.8518598887744717e-33
0
LINE
5
187
100
AcDbEntity
8
0
100
AcDbLine
10
-86.794538174749292
20
10.042196992326286
30
3.8518598887744717e-33
11
-86.698557769435851
21
10.519064179743793
31
7.7037197775489434e-33
0
LINE
5
188
100
AcDbEntity
8
0
100
AcDbLine
10
-86.698557769435851
20
10.519064179743793
30
7.7037197775489434e-33
11
-86.623500679647691
21
10.964910637794727
31
7.7037197775489434e-33
0
LINE
5
189
100
AcDbEntity
8
0
100
AcDbLine
10
-86.623500679647691
20
10.964910637794727
30
7.7037197775489434e-33
11
-86.590290220910219
21
11.348715637112507
31
3.8518598887744717e-33
0
LINE
5
190
100
AcDbEntity
8
0
100
AcDbLine
10
-86.590290220910219
20
11.348715637112507
30
3.8518598887744717e-33
11
-86.572954666613981
21
11.675528084162011
31
3.8518598887744717e-33
0
LINE
5
191
100
AcDbEntity
8
0
100
AcDbLine
10
-86.572954666613981
20
11.675528084162011
30
3.8518598887744717e-33
11
-86.576544409366136
21
11.971319416675863
31
1.9259299443872359e-33
0
LINE
5
192
100
AcDbEntity
8
0
100
AcDbLine
10
-86.576544409366136
20
11.971319416675863
30
1.9259299443872359e-33
11
-86.621980783168965
21
12.205069290456565
31
5.7777898331617076e-33
0
LINE
5
193
100
AcDbEntity
8
0
100
AcDbLine
10
-86.621980783168965
20
12.205069290456565
30
5.7777898331617076e-33
11
-86.605376592707898
21
12.396971845221303
31
1.9259299443872359e-33
0
LINE
5
194
100
AcDbEntity
8
0
100
AcDbLine
10
-86.605376592707898
20
12.396971845221303
30
1.9259299443872359e-33
11
-86.645764459134341
21
12.604749400719538
31
1.9259299443872359e-33
0
SPLINE
5
195
100
AcDbEntity
8
0
100
AcDbSpline
70
0
71
2
72
6
73
3
74
0
42
0.000000001
43
0.0000000001
44
0.0000000001
40
0
40
0
40
0
40
1
40
1
40
1
10
-86.645764459134341
20
12.604749400719532
30
0
10
-86.650812966510699
20
12.630721719002002
30
0
10
-87.294949657106301
20
14.419216089463401
30
0
0
LINE
5
196
100
AcDbEntity
8
0
100
AcDbLine
10
-87.294949657106301
20
14.419216089463401
30
0
11
-84.641404824513899
21
15.743619343871273
31
1.5407439555097887e-32
0
LINE
5
197
100
AcDbEntity
8
0
100
AcDbLine
10
-84.641404824513899
20
15.743619343871273
30
1.5407439555097887e-32
11
-83.606954569042173
21
14.16576249025966
31
-1.5407439555097887e-32
0
LINE
5
198
100
AcDbEntity
8
0
100
AcDbLine
10
-83.606954569042173
20
14.16576249025966
30
-1.5407439555097887e-32
11
-83.534815999263998
21
14.07197072726329
31
-9.6296497219361793e-34
0
LINE
5
199
100
AcDbEntity
8
0
100
AcDbLine
10
-83.534815999263998
20
14.07197072726329
30
-9.6296497219361793e-34
11
-83.436705606584155
21
13.983227375351026
31
-9.6296497219361793e-34
0
LINE
5
200
100
AcDbEntity
8
0
100
AcDbLine
10
-83.436705606584155
20
13.983227375351026
30
-9.6296497219361793e-34
11
-83.302525385488309
21
13.847587990542458
31
-1.9259299443872359e-33
0
LINE
5
201
100
AcDbEntity
8
0
100
AcDbLine
10
-83.302525385488309
20
13.847587990542458
30
-1.9259299443872359e-33
11
-83.111353011212657
21
13.696073109619626
31
0
0
LINE
5
202
100
AcDbEntity
8
0
100
AcDbLine
10
-83.111353011212657
20
13.696073109619626
30
0
11
-82.88915941218967
21
13.523635009463737
31
-1.9259299443872359e-33
0
LINE
5
203
100
AcDbEntity
8
0
100
AcDbLine
10
-82.88915941218967
20
13.523635009463737
30
-1.9259299443872359e-33
11
-82.609972669225414
21
13.33532160577812
31
-2.8888949165808538e-33
0
LINE
5
204
100
AcDbEntity
8
0
100
AcDbLine
10
-82.609972669225414
20
13.33532160577812
30
-2.8888949165808538e-33
11
-82.273793773081323
21
13.131132705978242
31
0
0
LINE
5
205
100
AcDbEntity
8
0
100
AcDbLine
10
-82.273793773081323
20
13.131132705978242
30
0
11
-81.885670240372335
21
12.937040820931106
31
-3.8518598887744717e-33
0
LINE
5
206
100
AcDbEntity
8
0
100
AcDbLine
10
-81.885670240372335
20
12.937040820931106
30
-3.8518598887744717e-33
11
-81.440553563721991
21
12.727073632354246
31
-1.9259299443872359e-33
0
LINE
5
207
100
AcDbEntity
8
0
100
AcDbLine
10
-81.440553563721991
20
12.727073632354246
30
-1.9259299443872359e-33
11
-80.943492250506722
21
12.527203458530131
31
-1.9259299443872359e-33
0
LINE
5
208
100
AcDbEntity
8
0
100
AcDbLine
10
-80.943492250506722
20
12.527203458530131
30
-1.9259299443872359e-33
11
-80.368514477824817
21
12.342478710542867
31
-2.8888949165808538e-33
0
LINE
5
209
100
AcDbEntity
8
0
100
AcDbLine
10
-80.368514477824817
20
12.342478710542867
30
-2.8888949165808538e-33
11
-80.057578022270349
21
12.268150906774579
31
-4.8148248609680896e-34
0
LINE
5
210
100
AcDbEntity
8
0
100
AcDbLine
10
-80.057578022270349
20
12.268150906774579
30
-4.8148248609680896e-34
11
-79.886599677500215
21
12.220525298981634
31
-1.2037062152420224e-33
0
LINE
5
211
100
AcDbEntity
8
0
100
AcDbLine
10
-79.886599677500215
20
12.220525298981634
30
-1.2037062152420224e-33
11
-78.921978475630524
21
13.081867318609074
31
7.7037197775489434e-33
0
LINE
5
212
100
AcDbEntity
8
0
100
AcDbLine
10
-78.921978475630524
20
13.081867318609074
30
7.7037197775489434e-33
11
-79.234984681166154
21
14.692144612172292
31
0
0
LINE
5
213
100
AcDbEntity
8
0
100
AcDbLine
10
-79.234984681166154
20
14.692144612172292
30
0
11
-79.403773888238433
21
15.144498933896852
31
7.7037197775489434e-33
0
LINE
5
214
100
AcDbEntity
8
0
100
AcDbLine
10
-79.403773888238433
20
15.144498933896852
30
7.7037197775489434e-33
11
-79.562466080557968
21
15.544908619056466
31
1.1555579666323415e-32
0
LINE
5
215
100
AcDbEntity
8
0
100
AcDbLine
10
-79.562466080557968
20
15.544908619056466
30
1.1555579666323415e-32
11
-79.711061450709295
21
15.893374658412673
31
5.7777898331617076e-33
0
LINE
5
216
100
AcDbEntity
8
0
100
AcDbLine
10
-79.711061450709295
20
15.893374658412673
30
5.7777898331617076e-33
11
-79.875532619771107
21
16.184847457535298
31
1.9259299443872359e-33
0
LINE
5
217
100
AcDbEntity
8
0
100
AcDbLine
10
-79.875532619771107
20
16.184847457535298
30
1.9259299443872359e-33
11
-80.029906774080189
21
16.424375620092981
31
3.8518598887744717e-33
0
LINE
5
218
100
AcDbEntity
8
0
100
AcDbLine
10
-80.029906774080189
20
16.424375620092981
30
3.8518598887744717e-33
11
-80.148211099973281
21
16.617007749754361
31
9.6296497219361793e-34
0
LINE
5
219
100
AcDbEntity
8
0
100
AcDbLine
10
-80.148211099973281
20
16.617007749754361
30
9.6296497219361793e-34
11
-80.256418411113643
21
16.757695242850801
31
1.9259299443872359e-33
0
LINE
5
220
100
AcDbEntity
8
0
100
AcDbLine
10
-80.256418411113643
20
16.757695242850801
30
1.9259299443872359e-33
11
-80.359577311169858
21
16.872410913045538
31
9.6296497219361793e-34
0
LINE
5
221
100
AcDbEntity
8
0
100
AcDbLine
10
-80.359577311169858
20
16.872410913045538
30
9.6296497219361793e-34
11
-80.426667373571661
21
16.94023035775944
31
9.6296497219361793e-34
0
LINE
5
222
100
AcDbEntity
8
0
100
AcDbLine
10
-80.426667373571661
20
16.94023035775944
30
9.6296497219361793e-34
11
-81.883181099094244
21
18.193465085365482
31
1.5407439555097887e-32
0
LINE
5
223
100
AcDbEntity
8
0
100
AcDbLine
10
-81.883181099094244
20
18.193465085365482
30
1.5407439555097887e-32
11
-80.235254434924087
21
20.670073260220292
31
3.0814879110195774e-32
0
LINE
5
224
100
AcDbEntity
8
0
100
AcDbLine
10
-80.235254434924087
20
20.670073260220292
30
3.0814879110195774e-32
11
-78.55867650607189
21
19.810010572699639
31
-1.5407439555097887e-32
0
LINE
5
225
100
AcDbEntity
8
0
100
AcDbLine
10
-78.55867650607189
20
19.810010572699639
30
-1.5407439555097887e-32
11
-78.532704187789406
21
19.815059080076011
31
3.009265538105056e-35
0
LINE
5
226
100
AcDbEntity
8
0
100
AcDbLine
10
-78.532704187789406
20
19.815059080076011
30
3.009265538105056e-35
11
-78.439642302485922
21
19.752288046446214
31
-4.8148248609680896e-34
0
LINE
5
227
100
AcDbEntity
8
0
100
AcDbLine
10
-78.439642302485922
20
19.752288046446214
30
-4.8148248609680896e-34
11
-78.294635780617469
21
19.699614027569162
31
4.8148248609680896e-34
0
LINE
5
228
100
AcDbEntity
8
0
100
AcDbLine
10
-78.294635780617469
20
19.699614027569162
30
4.8148248609680896e-34
11
-78.12365694046656
21
19.651988516068489
31
-7.2222372914521344e-34
0
LINE
5
229
100
AcDbEntity
8
0
100
AcDbLine
10
-78.12365694046656
20
19.651988516068489
30
-7.2222372914521344e-34
11
-77.900733959131486
21
19.614459923028285
31
2.4074124304840448e-34
0
LINE
5
230
100
AcDbEntity
8
0
100
AcDbLine
10
-77.900733959131486
20
19.614459923028285
30
2.4074124304840448e-34
11
-77.625866341231472
21
19.58702834474083
31
0
0
LINE
5
231
100
AcDbEntity
8
0
100
AcDbLine
10
-77.625866341231472
20
19.58702834474083
30
0
11
-77.299054086766503
21
19.569693781206123
31
6.018531076210112e-34
0
LINE
5
232
100
AcDbEntity
8
0
100
AcDbLine
10
-77.299054086766503
20
19.569693781206123
30
6.018531076210112e-34
11
-76.920297691117369
21
19.562456136131892
31
-1.0833355937178202e-33
0
LINE
5
233
100
AcDbEntity
8
0
100
AcDbLine
10
-76.920297691117369
20
19.562456136131892
30
-1.0833355937178202e-33
11
-76.494645069987385
21
19.591287328712106
31
2.4074124304840448e-34
0
LINE
5
234
100
AcDbEntity
8
0
100
AcDbLine
10
-76.494645069987385
20
19.591287328712106
30
2.4074124304840448e-34
11
-76.017048307673235
21
19.630215439752803
31
1.4444474582904269e-33
0
LINE
5
235
100
AcDbEntity
8
0
100
AcDbLine
10
-76.017048307673235
20
19.630215439752803
30
1.4444474582904269e-33
11
-74.406770766419626
21
19.943221693434559
31
9.6296497219361793e-33
0
LINE
5
236
100
AcDbEntity
8
0
100
AcDbLine
10
-74.406770766419626
20
19.943221693434559
30
9.6296497219361793e-33
11
-73.99547389632329
21
21.155218841969937
31
1.5407439555097887e-32
0
LINE
5
237
100
AcDbEntity
8
0
100
AcDbLine
10
-73.99547389632329
20
21.155218841969937
30
1.5407439555097887e-32
11
-74.108730058822644
21
21.32187910058348
31
1.9259299443872359e-33
0
LINE
5
238
100
AcDbEntity
8
0
100
AcDbLine
10
-74.108730058822644
20
21.32187910058348
30
1.9259299443872359e-33
11
-74.294124447117525
21
21.582330674958762
31
1.9259299443872359e-33
0
LINE
5
239
100
AcDbEntity
8
0
100
AcDbLine
10
-74.294124447117525
20
21.582330674958762
30
1.9259299443872359e-33
11
-74.67574030873746
21
22.020269847627844
31
3.8518598887744717e-33
0
LINE
5
240
100
AcDbEntity
8
0
100
AcDbLine
10
-74.67574030873746
20
22.020269847627844
30
3.8518598887744717e-33
11
-75.047259155604621
21
22.406264383731983
31
0
0
LINE
5
241
100
AcDbEntity
8
0
100
AcDbLine
10
-75.047259155604621
20
22.406264383731983
30
0
11
-75.408680987719066
21
22.740314283271182
31
1.9259299443872359e-33
0
LINE
5
242
100
AcDbEntity
8
0
100
AcDbLine
10
-75.408680987719066
20
22.740314283271182
30
1.9259299443872359e-33
11
-75.760005557390372
21
23.022419594391572
31
3.8518598887744717e-33
0
LINE
5
243
100
AcDbEntity
8
0
100
AcDbLine
10
-75.760005557390372
20
23.022419594391572
30
3.8518598887744717e-33
11
-76.075261041716843
21
23.257628728177259
31
-1.9259299443872359e-33
0
LINE
5
244
100
AcDbEntity
8
0
100
AcDbLine
10
-76.075261041716843
20
23.257628728177259
30
-1.9259299443872359e-33
11
-76.354447385592621
21
23.445942723535911
31
1.9259299443872359e-33
0
LINE
5
245
100
AcDbEntity
8
0
100
AcDbLine
10
-76.354447385592621
20
23.445942723535911
30
1.9259299443872359e-33
11
-76.597564396433199
21
23.587360589705991
31
9.6296497219361793e-34
0
LINE
5
246
100
AcDbEntity
8
0
100
AcDbLine
10
-76.597564396433199
20
23.587360589705991
30
9.6296497219361793e-34
11
-76.804612569619323
21
23.681882230395242
31
4.8148248609680896e-34
0
LINE
5
247
100
AcDbEntity
8
0
100
AcDbLine
10
-76.804612569619323
20
23.681882230395242
30
4.8148248609680896e-34
11
-76.980640013438887
21
23.755480555559156
31
4.8148248609680896e-34
0
LINE
5
248
100
AcDbEntity
8
0
100
AcDbLine
10
-76.980640013438887
20
23.755480555559156
30
4.8148248609680896e-34
11
-77.125646535307311
21
23.808154574436202
31
0
0
LINE
5
249
100
AcDbEntity
8
0
100
AcDbLine
10
-77.125646535307311
20
23.808154574436202
30
0
11
-77.213660009526706
21
23.844953785164293
31
0
0
LINE
5
250
100
AcDbEntity
8
0
100
AcDbLine
10
-77.213660009526706
20
23.844953785164293
30
0
11
-79.085059508534357
21
24.18198234580645
31
0
0
LINE
5
251
100
AcDbEntity
8
0
100
AcDbLine
10
-79.085059508534357
20
24.18198234580645
30
0
11
-78.903074439712668
21
27.128340441482784
31
3.0814879110195774e-32
0
LINE
5
252
100
AcDbEntity
8
0
100
AcDbLine
10
-78.903074439712668
20
27.128340441482784
30
3.0814879110195774e-32
11
-77.008561895808782
21
27.227060925050317
31
-2.2204460492503131e-15
0
LINE
5
253
100
AcDbEntity
8
0
100
AcDbLine
10
-77.008561895808782
20
27.227060925050317
30
-2.2204460492503131e-15
11
-76.333284097368363
21
27.358321635374661
31
-2.2204460492503131e-15
0
LINE
5
254
100
AcDbEntity
8
0
100
AcDbLine
10
-76.333284097368363
20
27.358321635374661
30
-2.2204460492503131e-15
11
-76.062735205444113
21
27.491772474158406
31
-2.2204460492503131e-15
0
LINE
5
255
100
AcDbEntity
8
0
100
AcDbLine
10
-76.062735205444113
20
27.491772474158406
30
-2.2204460492503131e-15
11
-75.766214242927774
21
27.630271772172389
31
-2.2204460492503131e-15
0
LINE
5
256
100
AcDbEntity
8
0
100
AcDbLine
10
-75.766214242927774
20
27.630271772172389
30
-2.2204460492503131e-15
11
-75.427845713705068
21
27.830811682596387
31
-2.2204460492503131e-15
0
LINE
5
257
100
AcDbEntity
8
0
100
AcDbLine
10
-75.427845713705068
20
27.830811682596387
30
-2.2204460492503131e-15
11
-75.068553277284011
21
28.062371923298464
31
-2.2204460492503131e-15
0
LINE
5
258
100
AcDbEntity
8
0
100
AcDbLine
10
-75.068553277284011
20
28.062371923298464
30
-2.2204460492503131e-15
11
-74.667413659325675
21
28.355974757933634
31
-2.2204460492503131e-15
0
LINE
5
259
100
AcDbEntity
8
0
100
AcDbLine
10
-74.667413659325675
20
28.355974757933634
30
-2.2204460492503131e-15
11
-74.250398545253077
21
28.706569745748574
31
-2.2204460492503131e-15
0
LINE
5
260
100
AcDbEntity
8
0
100
AcDbLine
10
-74.250398545253077
20
28.706569745748574
30
-2.2204460492503131e-15
11
-73.817508058911415
21
29.114156862670235
31
-2.2204460492503131e-15
0
LINE
5
261
100
AcDbEntity
8
0
100
AcDbLine
10
-73.817508058911415
20
29.114156862670235
30
-2.2204460492503131e-15
11
-73.593125129606037
21
29.346446485684417
31
-2.2204460492503131e-15
0
LINE
5
262
100
AcDbEntity
8
0
100
AcDbLine
10
-73.593125129606037
20
29.346446485684417
30
-2.2204460492503131e-15
11
-73.483458063079922
21
29.475578199403895
31
-2.2204460492503131e-15
0
LINE
5
263
100
AcDbEntity
8
0
100
AcDbLine
10
-73.483458063079922
20
29.475578199403895
30
-2.2204460492503131e-15
11
-73.730834057891784
21
30.748217336818065
31
-2.2204460492503131e-15
0
LINE
5
264
100
AcDbEntity
8
0
100
AcDbLine
10
-73.730834057891784
20
30.748217336818065
30
-2.2204460492503131e-15
11
-73.880889183428877
21
30.826864169358355
31
4.8148248609680896e-34
0
LINE
5
265
100
AcDbEntity
8
0
100
AcDbLine
10
-73.880889183428877
20
30.826864169358355
30
4.8148248609680896e-34
11
-74.17090222716574
21
30.93221220711245
31
0
0
LINE
5
266
100
AcDbEntity
8
0
100
AcDbLine
10
-74.17090222716574
20
30.93221220711245
30
0
11
-74.719907709118104
21
31.121984943022252
31
0
0
LINE
5
267
100
AcDbEntity
8
0
100
AcDbLine
10
-74.719907709118104
20
31.121984943022252
30
0
11
-75.232844174464987
21
31.264862516431954
31
4.8148248609680896e-33
0
LINE
5
268
100
AcDbEntity
8
0
100
AcDbLine
10
-75.232844174464987
20
31.264862516431954
30
4.8148248609680896e-33
11
-75.709711114192103
21
31.360842969891554
31
2.4074124304840448e-33
0
LINE
5
269
100
AcDbEntity
8
0
100
AcDbLine
10
-75.709711114192103
20
31.360842969891554
30
2.4074124304840448e-33
11
-76.15555757224304
21
31.435900059679682
31
0
0
LINE
5
270
100
AcDbEntity
8
0
100
AcDbLine
10
-76.15555757224304
20
31.435900059679682
30
0
11
-76.539362571560815
21
31.469110518417157
31
7.2222372914521344e-34
0
LINE
5
271
100
AcDbEntity
8
0
100
AcDbLine
10
-76.539362571560815
20
31.469110518417157
30
7.2222372914521344e-34
11
-76.86617477091994
21
31.486446120859529
31
-6.018531076210112e-34
0
LINE
5
272
100
AcDbEntity
8
0
100
AcDbLine
10
-76.86617477091994
20
31.486446120859529
30
-6.018531076210112e-34
11
-77.161966103433798
21
31.482856378107375
31
1.2037062152420224e-34
0
LINE
5
273
100
AcDbEntity
8
0
100
AcDbLine
10
-77.161966103433798
20
31.482856378107375
30
1.2037062152420224e-34
11
-77.395715977214493
21
31.437420004304556
31
-7.2222372914521344e-34
0
LINE
5
274
100
AcDbEntity
8
0
100
AcDbLine
10
-77.395715977214493
20
31.437420004304556
30
-7.2222372914521344e-34
11
-77.587618531979231
21
31.454024194765623
31
2.4074124304840448e-34
0
LINE
5
275
100
AcDbEntity
8
0
100
AcDbLine
10
-77.587618531979231
20
31.454024194765623
30
2.4074124304840448e-34
11
-77.821368405759941
21
31.408587820962804
31
4.8148248609680896e-34
0
LINE
5
276
100
AcDbEntity
8
0
100
AcDbLine
10
-77.821368405759941
20
31.408587820962804
30
4.8148248609680896e-34
11
-79.609862776221334
21
30.764451130367224
31
-1.1555579666323415e-32
0
LINE
5
277
100
AcDbEntity
8
0
100
AcDbLine
10
-79.609862776221334
20
30.764451130367224
30
-1.1555579666323415e-32
11
-80.93426622321374
21
33.417996953721158
31
4.622231866529366e-32
0
LINE
5
278
100
AcDbEntity
8
0
100
AcDbLine
10
-80.93426622321374
20
33.417996953721158
30
4.622231866529366e-32
11
-79.35640868163685
21
34.452446314723609
31
0
0
LINE
5
279
100
AcDbEntity
8
0
100
AcDbLine
10
-79.35640868163685
20
34.452446314723609
30
0
11
-79.330436363354352
21
34.457494822099989
31
3.009265538105056e-35
0
LINE
5
280
100
AcDbEntity
8
0
100
AcDbLine
10
-79.330436363354352
20
34.457494822099989
30
3.009265538105056e-35
11
-79.262616726055924
21
34.524583893740235
31
4.8148248609680896e-34
0
LINE
5
281
100
AcDbEntity
8
0
100
AcDbLine
10
-79.262616726055924
20
34.524583893740235
30
4.8148248609680896e-34
11
-79.17387356672819
21
34.622695277181649
31
1.9259299443872359e-33
0
LINE
5
282
100
AcDbEntity
8
0
100
AcDbLine
10
-79.17387356672819
20
34.622695277181649
30
1.9259299443872359e-33
11
-79.03823418191962
21
34.756875498277495
31
1.9259299443872359e-33
0
LINE
5
283
100
AcDbEntity
8
0
100
AcDbLine
10
-79.03823418191962
20
34.756875498277495
30
1.9259299443872359e-33
11
-78.886719300996788
21
34.948047872553126
31
2.8888949165808538e-33
0
LINE
5
284
100
AcDbEntity
8
0
100
AcDbLine
10
-78.886719300996788
20
34.948047872553126
30
2.8888949165808538e-33
11
-78.714281008256364
21
35.170240480814563
31
5.7777898331617076e-33
0
LINE
5
285
100
AcDbEntity
8
0
100
AcDbLine
10
-78.714281008256364
20
35.170240480814563
30
5.7777898331617076e-33
11
-78.525967604570752
21
35.449427223778855
31
5.7777898331617076e-33
0
LINE
5
286
100
AcDbEntity
8
0
100
AcDbLine
10
-78.525967604570752
20
35.449427223778855
30
5.7777898331617076e-33
11
-78.321778704770864
21
35.785606119922917
31
3.8518598887744717e-33
0
LINE
5
287
100
AcDbEntity
8
0
100
AcDbLine
10
-78.321778704770864
20
35.785606119922917
30
3.8518598887744717e-33
11
-78.127687012308272
21
36.173730643393462
31
3.8518598887744717e-33
0
LINE
5
288
100
AcDbEntity
8
0
100
AcDbLine
10
-78.127687012308272
20
36.173730643393462
30
3.8518598887744717e-33
11
-77.917719823731403
21
36.618847320043784
31
3.8518598887744717e-33
0
LINE
5
289
100
AcDbEntity
8
0
100
AcDbLine
10
-77.917719823731403
20
36.618847320043784
30
3.8518598887744717e-33
11
-77.717849457322771
21
37.115907642497518
31
3.8518598887744717e-33
0
LINE
5
290
100
AcDbEntity
8
0
100
AcDbLine
10
-77.717849457322771
20
37.115907642497518
30
3.8518598887744717e-33
11
-77.533124709335496
21
37.69088541517943
31
7.7037197775489434e-33
0
LINE
5
291
100
AcDbEntity
8
0
100
AcDbLine
10
-77.533124709335496
20
37.69088541517943
30
7.7037197775489434e-33
11
-77.458796905567198
21
38.001821870733899
31
1.9259299443872359e-33
0
LINE
5
292
100
AcDbEntity
8
0
100
AcDbLine
10
-77.458796905567198
20
38.001821870733899
30
1.9259299443872359e-33
11
-77.411171050083865
21
38.172800263650174
31
9.6296497219361793e-34
0
LINE
5
293
100
AcDbEntity
8
0
100
AcDbLine
10
-77.411171050083865
20
38.172800263650174
30
9.6296497219361793e-34
11
-77.421267872252088
21
38.224743909453579
31
4.8148248609680896e-34
0
LINE
5
294
100
AcDbEntity
8
0
100
AcDbLine
10
-77.421267872252088
20
38.224743909453579
30
4.8148248609680896e-34
11
-78.282609699294994
21
39.189364120561706
31
1.5407439555097887e-32
0
LINE
5
295
100
AcDbEntity
8
0
100
AcDbLine
10
-78.282609699294994
20
39.189364120561706
30
1.5407439555097887e-32
11
-79.892887240548589
21
38.876357866879957
31
-5.7777898331617076e-33
0
LINE
5
296
100
AcDbEntity
8
0
100
AcDbLine
10
-79.892887240548589
20
38.876357866879957
30
-5.7777898331617076e-33
11
-80.345241369688608
21
38.707567669046135
31
-3.8518598887744717e-33
0
LINE
5
297
100
AcDbEntity
8
0
100
AcDbLine
10
-80.345241369688608
20
38.707567669046135
30
-3.8518598887744717e-33
11
-80.745651357644462
21
38.548874389672797
31
0
0
LINE
5
298
100
AcDbEntity
8
0
100
AcDbLine
10
-80.745651357644462
20
38.548874389672797
30
0
11
-81.094116709035376
21
38.400278125052203
31
0
0
LINE
5
299
100
AcDbEntity
8
0
100
AcDbLine
10
-81.094116709035376
20
38.400278125052203
30
0
11
-81.385589508157977
21
38.235806955990384
31
-1.9259299443872359e-33
0
LINE
5
300
100
AcDbEntity
8
0
100
AcDbLine
10
-81.385589508157977
20
38.235806955990384
30
-1.9259299443872359e-33
11
-81.625117670715667
21
38.081432801681309
31
-9.6296497219361793e-34
0
LINE
5
301
100
AcDbEntity
8
0
100
AcDbLine
10
-81.625117670715667
20
38.081432801681309
30
-9.6296497219361793e-34
11
-81.817749607792521
21
37.963127485026675
31
-9.6296497219361793e-34
0
LINE
5
302
100
AcDbEntity
8
0
100
AcDbLine
10
-81.817749607792521
20
37.963127485026675
30
-9.6296497219361793e-34
11
-81.958437403685195
21
37.854919086832538
31
-2.8888949165808538e-33
0
LINE
5
303
100
AcDbEntity
8
0
100
AcDbLine
10
-81.958437403685195
20
37.854919086832538
30
-2.8888949165808538e-33
11
-82.073152881295385
21
37.75175919601476
31
-9.6296497219361793e-34
0
LINE
5
304
100
AcDbEntity
8
0
100
AcDbLine
10
-82.073152881295385
20
37.75175919601476
30
-9.6296497219361793e-34
11
-82.140972518593841
21
37.684670124374506
31
-4.8148248609680896e-34
0
LINE
5
305
100
AcDbEntity
8
0
100
AcDbLine
10
-82.140972518593841
20
37.684670124374506
30
-4.8148248609680896e-34
11
-83.36318602145252
21
36.207233179618868
31
-2.311115933264683e-32
0
LINE
5
306
100
AcDbEntity
8
0
100
AcDbLine
10
-83.36318602145252
20
36.207233179618868
30
-2.311115933264683e-32
11
-85.839794196307352
21
37.855159843789025
31
1.5407439555097887e-32
0
LINE
5
307
100
AcDbEntity
8
0
100
AcDbLine
10
-85.839794196307352
20
37.855159843789025
30
1.5407439555097887e-32
11
-84.979731412494402
21
39.531737277260447
31
3.0814879110195774e-32
0
LINE
5
308
100
AcDbEntity
8
0
100
AcDbLine
10
-84.979731412494402
20
39.531737277260447
30
3.0814879110195774e-32
11
-84.947980805434966
21
39.645723565143072
31
1.9259299443872359e-33
0
LINE
5
309
100
AcDbEntity
8
0
100
AcDbLine
10
-84.947980805434966
20
39.645723565143072
30
1.9259299443872359e-33
11
-84.895307171726998
21
39.790732068534581
31
9.6296497219361793e-34
0
LINE
5
310
100
AcDbEntity
8
0
100
AcDbLine
10
-84.895307171726998
20
39.790732068534581
30
9.6296497219361793e-34
11
-84.847681949103105
21
39.961712394827792
31
1.9259299443872359e-33
0
LINE
5
311
100
AcDbEntity
8
0
100
AcDbLine
10
-84.847681949103105
20
39.961712394827792
30
1.9259299443872359e-33
11
-84.810153548647449
21
40.184636366924408
31
3.8518598887744717e-33
0
LINE
5
312
100
AcDbEntity
8
0
100
AcDbLine
10
-84.810153548647449
20
40.184636366924408
30
3.8518598887744717e-33
11
-84.782721970360001
21
40.459503984824451
31
1.9259299443872359e-33
0
LINE
5
313
100
AcDbEntity
8
0
100
AcDbLine
10
-84.782721970360001
20
40.459503984824451
30
1.9259299443872359e-33
11
-84.765387214240761
21
40.786315248527877
31
5.7777898331617076e-33
0
LINE
5
314
100
AcDbEntity
8
0
100
AcDbLine
10
-84.765387214240761
20
40.786315248527877
30
5.7777898331617076e-33
11
-84.758149280289729
21
41.165070158034702
31
3.8518598887744717e-33
0
LINE
5
315
100
AcDbEntity
8
0
100
AcDbLine
10
-84.758149280289729
20
41.165070158034702
30
3.8518598887744717e-33
11
-84.786980761746747
21
41.590724265306989
31
3.8518598887744717e-33
0
LINE
5
316
100
AcDbEntity
8
0
100
AcDbLine
10
-84.786980761746747
20
41.590724265306989
30
3.8518598887744717e-33
11
-84.82590906537196
21
42.068322018382673
31
3.8518598887744717e-33
0
LINE
5
317
100
AcDbEntity
8
0
100
AcDbLine
10
-84.82590906537196
20
42.068322018382673
30
3.8518598887744717e-33
11
-85.13891517461532
21
43.678598816565128
31
1.5407439555097887e-32
0
LINE
5
318
100
AcDbEntity
8
0
100
AcDbLine
10
-85.13891517461532
20
43.678598816565128
30
1.5407439555097887e-32
11
-86.350911986127755
21
44.089893952828788
31
3.8518598887744717e-33
0
LINE
5
319
100
AcDbEntity
8
0
100
AcDbLine
10
-86.350911986127755
20
44.089893952828788
30
3.8518598887744717e-33
11
-86.46562746373796
21
43.986734062010996
31
-9.6296497219361793e-34
0
LINE
5
320
100
AcDbEntity
8
0
100
AcDbLine
10
-86.46562746373796
20
43.986734062010996
30
-9.6296497219361793e-34
11
-86.726079038113241
21
43.801339673716129
31
-2.8888949165808538e-33
0
LINE
5
321
100
AcDbEntity
8
0
100
AcDbLine
10
-86.726079038113241
20
43.801339673716129
30
-2.8888949165808538e-33
11
-87.164017921905526
21
43.419722325953892
31
-7.7037197775489434e-33
0
LINE
5
322
100
AcDbEntity
8
0
100
AcDbLine
10
-87.164017921905526
20
43.419722325953892
30
-7.7037197775489434e-33
11
-87.550012169132842
21
43.048201992944406
31
-3.8518598887744717e-33
0
LINE
5
323
100
AcDbEntity
8
0
100
AcDbLine
10
-87.550012169132842
20
43.048201992944406
30
-3.8518598887744717e-33
11
-87.884061779795232
21
42.686778674687673
31
-3.8518598887744717e-33
0
LINE
5
324
100
AcDbEntity
8
0
100
AcDbLine
10
-87.884061779795232
20
42.686778674687673
30
-3.8518598887744717e-33
11
-88.166166753892682
21
42.335452371183678
31
-3.8518598887744717e-33
0
LINE
5
325
100
AcDbEntity
8
0
100
AcDbLine
10
-88.166166753892682
20
42.335452371183678
30
-3.8518598887744717e-33
11
-88.401375887678384
21
42.020196886857221
31
-3.8518598887744717e-33
0
LINE
5
326
100
AcDbEntity
8
0
100
AcDbLine
10
-88.401375887678384
20
42.020196886857221
30
-3.8518598887744717e-33
11
-88.589690171913844
21
41.741012029123738
31
-1.9259299443872359e-33
0
LINE
5
327
100
AcDbEntity
8
0
100
AcDbLine
10
-88.589690171913844
20
41.741012029123738
30
-1.9259299443872359e-33
11
-88.73110784549938
21
41.497894027521625
31
-1.9259299443872359e-33
0
LINE
5
328
100
AcDbEntity
8
0
100
AcDbLine
10
-88.73110784549938
20
41.497894027521625
30
-1.9259299443872359e-33
11
-88.825629678773169
21
41.290846845097036
31
-3.8518598887744717e-33
0
LINE
5
329
100
AcDbEntity
8
0
100
AcDbLine
10
-88.825629678773169
20
41.290846845097036
30
-3.8518598887744717e-33
11
-88.899227715060277
21
41.114817915135184
31
-2.8888949165808538e-33
0
LINE
5
330
100
AcDbEntity
8
0
100
AcDbLine
10
-88.899227715060277
20
41.114817915135184
30
-2.8888949165808538e-33
11
-88.951901733937319
21
40.969811393266752
31
-1.9259299443872359e-33
0
LINE
5
331
100
AcDbEntity
8
0
100
AcDbLine
10
-88.951901733937319
20
40.969811393266752
30
-1.9259299443872359e-33
11
-88.988700752080874
21
40.881796928285823
31
-9.6296497219361793e-34
0
SPLINE
5
332
100
AcDbEntity
8
0
100
AcDbSpline
70
0
71
2
72
6
73
3
74
0
42
0.000000001
43
0.0000000001
44
0.0000000001
40
0
40
0
40
0
40
1
40
1
40
1
10
-88.988700752080874
20
40.881796928285823
30
0
10
-88.98365195582771
20
40.855823123861043
30
0
10
-89.320680709054415
20
38.984424615614927
30
0
0
LINE
5
333
100
AcDbEntity
8
0
100
AcDbLine
10
-89.320680709054415
20
38.984424615614927
30
0
11
-92.267038006553747
21
39.166410867782687
31
-6.7407548053553255e-33
0
LINE
5
334
100
AcDbEntity
8
0
100
AcDbLine
10
-92.267038006553747
20
39.166410867782687
30
-6.7407548053553255e-33
11
-92.365758778998085
21
41.060924897828876
31
4.622231866529366e-32
0
LINE
5
335
100
AcDbEntity
8
0
100
AcDbLine
10
-92.365758778998085
20
41.060924897828876
30
4.622231866529366e-32
11
-92.497019778199245
21
41.736204182411583
31
1.1555579666323415e-32
0
LINE
5
336
100
AcDbEntity
8
0
100
AcDbLine
10
-92.497019778199245
20
41.736204182411583
30
1.1555579666323415e-32
11
-92.630470905859781
21
42.00675456047815
31
0
0
LINE
5
337
100
AcDbEntity
8
0
100
AcDbLine
10
-92.630470905859781
20
42.00675456047815
30
0
11
-92.768970059435375
21
42.303274779923335
31
3.8518598887744717e-33
0
LINE
5
338
100
AcDbEntity
8
0
100
AcDbLine
10
-92.768970059435375
20
42.303274779923335
30
3.8518598887744717e-33
11
-92.969509680982569
21
42.641641823003731
31
5.7777898331617076e-33
0
LINE
5
339
100
AcDbEntity
8
0
100
AcDbLine
10
-92.969509680982569
20
42.641641823003731
30
5.7777898331617076e-33
11
-93.201069921684621
21
43.000934259424788
31
3.8518598887744717e-33
0
LINE
5
340
100
AcDbEntity
8
0
100
AcDbLine
10
-93.201069921684621
20
43.000934259424788
30
3.8518598887744717e-33
11
-93.494672611881398
21
43.402073134311976
31
7.7037197775489434e-33
0
LINE
5
341
100
AcDbEntity
8
0
100
AcDbLine
10
-93.494672611881398
20
43.402073134311976
30
7.7037197775489434e-33
11
-93.845267744134745
21
43.819088991455722
31
7.7037197775489434e-33
0
LINE
5
342
100
AcDbEntity
8
0
100
AcDbLine
10
-93.845267744134745
20
43.819088991455722
30
7.7037197775489434e-33
11
-94.252854548106512
21
44.251977867809906
31
3.8518598887744717e-33
0
LINE
5
343
100
AcDbEntity
8
0
100
AcDbLine
10
-94.252854548106512
20
44.251977867809906
30
3.8518598887744717e-33
11
-94.485144171120709
21
44.476360797115277
31
3.8518598887744717e-33
0
LINE
5
344
100
AcDbEntity
8
0
100
AcDbLine
10
-94.485144171120709
20
44.476360797115277
30
3.8518598887744717e-33
11
-94.614275884840197
21
44.586027863641377
31
0
0
LINE
5
345
100
AcDbEntity
8
0
100
AcDbLine
10
-94.614275884840197
20
44.586027863641377
30
0
11
-95.860943199352647
21
44.343700279913627
31
0
0
LINE
5
346
100
AcDbEntity
8
0
100
AcDbLine
10
-95.860943199352647
20
44.343700279913627
30
0
11
-95.908569412738061
21
44.172719761035886
31
0
0
LINE
5
347
100
AcDbEntity
8
0
100
AcDbLine
10
-95.908569412738061
20
44.172719761035886
30
0
11
-96.013917450492158
21
43.882706717299001
31
-3.8518598887744717e-33
0
LINE
5
348
100
AcDbEntity
8
0
100
AcDbLine
10
-96.013917450492158
20
43.882706717299001
30
-3.8518598887744717e-33
11
-96.203690499351808
21
43.33370284533413
31
-3.8518598887744717e-33
0
LINE
5
349
100
AcDbEntity
8
0
100
AcDbLine
10
-96.203690499351808
20
43.33370284533413
30
-3.8518598887744717e-33
11
-96.34656792832314
21
42.820765636916107
31
-7.7037197775489434e-33
0
LINE
5
350
100
AcDbEntity
8
0
100
AcDbLine
10
-96.34656792832314
20
42.820765636916107
30
-7.7037197775489434e-33
11
-96.442548526221131
21
42.343899440260138
31
-3.8518598887744717e-33
0
LINE
5
351
100
AcDbEntity
8
0
100
AcDbLine
10
-96.442548526221131
20
42.343899440260138
30
-3.8518598887744717e-33
11
-96.517605327132458
21
41.898051496066905
31
-7.7037197775489434e-33
0
LINE
5
352
100
AcDbEntity
8
0
100
AcDbLine
10
-96.517605327132458
20
41.898051496066905
30
-7.7037197775489434e-33
11
-96.55081607474672
21
41.514247982891426
31
-1.9259299443872359e-33
0
LINE
5
353
100
AcDbEntity
8
0
100
AcDbLine
10
-96.55081607474672
20
41.514247982891426
30
-1.9259299443872359e-33
11
-96.568151821627524
21
41.187436526603456
31
-3.8518598887744717e-33
0
LINE
5
354
100
AcDbEntity
8
0
100
AcDbLine
10
-96.568151821627524
20
41.187436526603456
30
-3.8518598887744717e-33
11
-96.564561789998535
21
40.891643707947303
31
0
0
LINE
5
355
100
AcDbEntity
8
0
100
AcDbLine
10
-96.564561789998535
20
40.891643707947303
30
0
11
-96.519125705072554
21
40.657895320308896
31
-3.8518598887744717e-33
0
LINE
5
356
100
AcDbEntity
8
0
100
AcDbLine
10
-96.519125705072554
20
40.657895320308896
30
-3.8518598887744717e-33
11
-96.535730088118129
21
40.4659937563057
31
-2.8888949165808538e-33
0
LINE
5
357
100
AcDbEntity
8
0
100
AcDbLine
10
-96.535730088118129
20
40.4659937563057
30
-2.8888949165808538e-33
11
-96.49534202910715
21
40.258215210045933
31
-1.9259299443872359e-33
0
SPLINE
5
358
100
AcDbEntity
8
0
100
AcDbSpline
70
0
71
2
72
6
73
3
74
0
42
0.000000001
43
0.0000000001
44
0.0000000001
40
0
40
0
40
0
40
1
40
1
40
1
10
-96.49534202910715
20
40.25821521004594
30
0
10
-96.490293232853986
20
40.232241405621153
30
0
10
-95.846157023719755
20
38.443749512063604
30
0
0
LINE
5
359
100
AcDbEntity
8
0
100
AcDbLine
10
-95.846157023719755
20
38.443749512063604
30
0
11
-98.499702847073692
21
37.119346065071184
31
-1.5407439555097887e-32
0
LINE
5
360
100
AcDbEntity
8
0
100
AcDbLine
10
-98.499702847073692
20
37.119346065071184
30
-1.5407439555097887e-32
11
-99.534152496952942
21
38.697205092790405
31
1.5407439555097887e-32
0
SPLINE
5
361
100
AcDbEntity
8
0
100
AcDbSpline
70
0
71
2
72
6
73
3
74
0
42
0.000000001
43
0.0000000001
44
0.0000000001
40
0
40
0
40
0
40
1
40
1
40
1
10
-99.534152496952942
20
38.697205092790405
30
0
10
-99.539201293206105
20
38.723178897215185
30
0
10
-99.606289787092777
20
38.790995562229014
30
0
0
LINE
5
362
100
AcDbEntity
8
0
100
AcDbLine
10
-99.606289787092777
20
38.790995562229014
30
0
11
-99.704400881657364
21
38.879737235414431
31
9.6296497219361793e-34
0
LINE
5
363
100
AcDbEntity
8
0
100
AcDbLine
10
-99.704400881657364
20
38.879737235414431
30
9.6296497219361793e-34
11
-99.838581391630029
21
39.015378106365304
31
9.6296497219361793e-34
0
LINE
5
364
100
AcDbEntity
8
0
100
AcDbLine
10
-99.838581391630029
20
39.015378106365304
30
9.6296497219361793e-34
11
-100.02975357332112
21
39.166891996526601
31
1.9259299443872359e-33
0
LINE
5
365
100
AcDbEntity
8
0
100
AcDbLine
10
-100.02975357332112
20
39.166891996526601
30
1.9259299443872359e-33
11
-100.25194637416706
21
39.339331280028567
31
2.8888949165808538e-33
0
LINE
5
366
100
AcDbEntity
8
0
100
AcDbLine
10
-100.25194637416706
20
39.339331280028567
30
2.8888949165808538e-33
11
-100.53113282825456
21
39.527643197571884
31
0
0
LINE
5
367
100
AcDbEntity
8
0
100
AcDbLine
10
-100.53113282825456
20
39.527643197571884
30
0
11
-100.86731172439862
21
39.73183209737175
31
1.9259299443872359e-33
0
LINE
5
368
100
AcDbEntity
8
0
100
AcDbLine
10
-100.86731172439862
20
39.73183209737175
30
1.9259299443872359e-33
11
-101.25543624786917
21
39.92592378983435
31
1.9259299443872359e-33
0
LINE
5
369
100
AcDbEntity
8
0
100
AcDbLine
10
-101.25543624786917
20
39.92592378983435
30
1.9259299443872359e-33
11
-101.7005532133963
21
40.135892464553521
31
3.8518598887744717e-33
0
LINE
5
370
100
AcDbEntity
8
0
100
AcDbLine
10
-101.7005532133963
20
40.135892464553521
30
3.8518598887744717e-33
11
-102.19761382472684
21
40.33576431710447
31
-1.9259299443872359e-33
0
LINE
5
371
100
AcDbEntity
8
0
100
AcDbLine
10
-102.19761382472684
20
40.33576431710447
30
-1.9259299443872359e-33
11
-102.77259188628557
21
40.520490551234047
31
2.8888949165808538e-33
0
LINE
5
372
100
AcDbEntity
8
0
100
AcDbLine
10
-102.77259188628557
20
40.520490551234047
30
2.8888949165808538e-33
11
-103.08352834184005
21
40.594818355002346
31
9.6296497219361793e-34
0
LINE
5
373
100
AcDbEntity
8
0
100
AcDbLine
10
-103.08352834184005
20
40.594818355002346
30
9.6296497219361793e-34
11
-103.25450687919471
21
40.642444953556819
31
4.8148248609680896e-34
0
LINE
5
374
100
AcDbEntity
8
0
100
AcDbLine
10
-103.25450687919471
20
40.642444953556819
30
4.8148248609680896e-34
11
-104.21912709030283
21
39.781103126513898
31
-1.5407439555097887e-32
0
LINE
5
375
100
AcDbEntity
8
0
100
AcDbLine
10
-104.21912709030283
20
39.781103126513898
30
-1.5407439555097887e-32
11
-103.90612098105949
21
38.170826328331458
31
-1.5407439555097887e-32
0
LINE
5
376
100
AcDbEntity
8
0
100
AcDbLine
10
-103.90612098105949
20
38.170826328331458
30
-1.5407439555097887e-32
11
-103.73733059064114
21
37.718471208429911
31
-3.8518598887744717e-33
0
LINE
5
377
100
AcDbEntity
8
0
100
AcDbLine
10
-103.73733059064114
20
37.718471208429911
30
-3.8518598887744717e-33
11
-103.57863702239098
21
37.318059734331747
31
-3.8518598887744717e-33
0
LINE
5
378
100
AcDbEntity
8
0
100
AcDbLine
10
-103.57863702239098
20
37.318059734331747
30
-3.8518598887744717e-33
11
-103.4300410466472
21
36.969595869083157
31
-3.8518598887744717e-33
0
LINE
5
379
100
AcDbEntity
8
0
100
AcDbLine
10
-103.4300410466472
20
36.969595869083157
30
-3.8518598887744717e-33
11
-103.26557007016993
21
36.67812406072207
31
-1.9259299443872359e-33
0
LINE
5
380
100
AcDbEntity
8
0
100
AcDbLine
10
-103.26557007016993
20
36.67812406072207
30
-1.9259299443872359e-33
11
-103.11119591586085
21
36.43859589816438
31
-1.9259299443872359e-33
0
LINE
5
381
100
AcDbEntity
8
0
100
AcDbLine
10
-103.11119591586085
20
36.43859589816438
30
-1.9259299443872359e-33
11
-102.99289040662167
21
36.245962970326005
31
-1.9259299443872359e-33
0
LINE
5
382
100
AcDbEntity
8
0
100
AcDbLine
10
-102.99289040662167
20
36.245962970326005
30
-1.9259299443872359e-33
11
-102.88468210471979
21
36.105275669814105
31
-1.9259299443872359e-33
0
LINE
5
383
100
AcDbEntity
8
0
100
AcDbLine
10
-102.88468210471979
20
36.105275669814105
30
-1.9259299443872359e-33
11
-102.78152221390202
21
35.990560192203901
31
-2.8888949165808538e-33
0
LINE
5
384
100
AcDbEntity
8
0
100
AcDbLine
10
-102.78152221390202
20
35.990560192203901
30
-2.8888949165808538e-33
11
-102.71443294967723
21
35.922739564143932
31
-9.6296497219361793e-34
0
LINE
5
385
100
AcDbEntity
8
0
100
AcDbLine
10
-102.71443294967723
20
35.922739564143932
30
-9.6296497219361793e-34
11
-101.25791941673918
21
34.669505827299425
31
-1.5407439555097887e-32
0
LINE
5
386
100
AcDbEntity
8
0
100
AcDbLine
10
-101.25791941673918
20
34.669505827299425
30
-1.5407439555097887e-32
11
-102.90584608090936
21
32.192897652444621
31
-3.0814879110195774e-32
0
LINE
5
387
100
AcDbEntity
8
0
100
AcDbLine
10
-102.90584608090936
20
32.192897652444621
30
-3.0814879110195774e-32
11
-104.58242351438076
21
33.052960436257536
31
-2.2204460492503131e-15
0
LINE
5
388
100
AcDbEntity
8
0
100
AcDbLine
10
-104.58242351438076
20
33.052960436257536
30
-2.2204460492503131e-15
11
-104.67548658303032
21
33.115732268064335
31
1.4444474582904269e-33
0
LINE
5
389
100
AcDbEntity
8
0
100
AcDbLine
10
-104.67548658303032
20
33.115732268064335
30
1.4444474582904269e-33
11
-104.82049329748332
21
33.168407277702926
31
-4.8148248609680896e-34
0
LINE
5
390
100
AcDbEntity
8
0
100
AcDbLine
10
-104.82049329748332
20
33.168407277702926
30
-4.8148248609680896e-34
11
-104.99147183483799
21
33.216033876257406
31
4.8148248609680896e-34
0
LINE
5
391
100
AcDbEntity
8
0
100
AcDbLine
10
-104.99147183483799
20
33.216033876257406
30
4.8148248609680896e-34
11
-105.21439599951913
21
33.253563267474604
31
1.2037062152420224e-33
0
LINE
5
392
100
AcDbEntity
8
0
100
AcDbLine
10
-105.21439599951913
20
33.253563267474604
30
1.2037062152420224e-33
11
-105.48926381000371
21
33.280995836523594
31
-7.2222372914521344e-34
0
LINE
5
393
100
AcDbEntity
8
0
100
AcDbLine
10
-105.48926381000371
20
33.280995836523594
30
-7.2222372914521344e-34
11
-105.81607526629168
21
33.298331583404369
31
-8.4259435066941569e-34
0
LINE
5
394
100
AcDbEntity
8
0
100
AcDbLine
10
-105.81607526629168
20
33.298331583404369
30
-8.4259435066941569e-34
11
-106.19483234990612
21
33.30557012294787
31
-6.018531076210112e-34
0
LINE
5
395
100
AcDbEntity
8
0
100
AcDbLine
10
-106.19483234990612
20
33.30557012294787
30
-6.018531076210112e-34
11
-106.62048428307081
21
33.276738035898383
31
-2.4074124304840448e-33
0
LINE
5
396
100
AcDbEntity
8
0
100
AcDbLine
10
-106.62048428307081
20
33.276738035898383
30
-2.4074124304840448e-33
11
-107.09808184356193
21
33.237808741511621
31
1.6851887013388314e-33
0
LINE
5
397
100
AcDbEntity
8
0
100
AcDbLine
10
-107.09808184356193
20
33.237808741511621
30
1.6851887013388314e-33
11
-108.70836062326747
21
32.924802247099187
31
-3.8518598887744717e-33
0
LINE
5
398
100
AcDbEntity
8
0
100
AcDbLine
10
-108.70836062326747
20
32.924802247099187
30
-3.8518598887744717e-33
11
-109.11965595211566
21
31.712806426348298
31
-1.5407439555097887e-32
0
LINE
5
399
100
AcDbEntity
8
0
100
AcDbLine
10
-109.11965595211566
20
31.712806426348298
30
-1.5407439555097887e-32
11
-109.00639923912968
21
31.546147302934688
31
-2.2204460492503131e-15
0
LINE
5
400
100
AcDbEntity
8
0
100
AcDbLine
10
-109.00639923912968
20
31.546147302934688
30
-2.2204460492503131e-15
11
-108.82100485083478
21
31.285695728559411
31
-2.2204460492503131e-15
0
LINE
5
401
100
AcDbEntity
8
0
100
AcDbLine
10
-108.82100485083478
20
31.285695728559411
30
-2.2204460492503131e-15
11
-108.43938750307257
21
30.847756844767133
31
-2.2204460492503131e-15
0
LINE
5
402
100
AcDbEntity
8
0
100
AcDbLine
10
-108.43938750307257
20
30.847756844767133
30
-2.2204460492503131e-15
11
-108.06786736264762
21
30.461763588301331
31
-2.2204460492503131e-15
0
LINE
5
403
100
AcDbEntity
8
0
100
AcDbLine
10
-108.06786736264762
20
30.461763588301331
30
-2.2204460492503131e-15
11
-107.70644404439089
21
30.127713977638948
31
-2.2204460492503131e-15
0
LINE
5
404
100
AcDbEntity
8
0
100
AcDbLine
10
-107.70644404439089
20
30.127713977638948
30
-2.2204460492503131e-15
11
-107.35511754830236
21
29.845608012779966
31
-2.2204460492503131e-15
0
LINE
5
405
100
AcDbEntity
8
0
100
AcDbLine
10
-107.35511754830236
20
29.845608012779966
30
-2.2204460492503131e-15
11
-107.03986206397589
21
29.610398878994282
31
-2.2204460492503131e-15
0
LINE
5
406
100
AcDbEntity
8
0
100
AcDbLine
10
-107.03986206397589
20
29.610398878994282
30
-2.2204460492503131e-15
11
-106.76067522471934
21
29.422084979927888
31
-2.2204460492503131e-15
0
LINE
5
407
100
AcDbEntity
8
0
100
AcDbLine
10
-106.76067522471934
20
29.422084979927888
30
-2.2204460492503131e-15
11
-106.51755741570177
21
29.28066829710388
31
-2.2204460492503131e-15
0
LINE
5
408
100
AcDbEntity
8
0
100
AcDbLine
10
-106.51755741570177
20
29.28066829710388
30
-2.2204460492503131e-15
11
-106.31051023327716
21
29.186146463830099
31
-2.2204460492503131e-15
0
LINE
5
409
100
AcDbEntity
8
0
100
AcDbLine
10
-106.31051023327716
20
29.186146463830099
30
-2.2204460492503131e-15
11
-106.1344832848384
21
29.112548042373909
31
-2.2204460492503131e-15
0
LINE
5
410
100
AcDbEntity
8
0
100
AcDbLine
10
-106.1344832848384
20
29.112548042373909
30
-2.2204460492503131e-15
11
-105.98947657038542
21
29.059873032735325
31
-2.2204460492503131e-15
0
LINE
5
411
100
AcDbEntity
8
0
100
AcDbLine
10
-105.98947657038542
20
29.059873032735325
30
-2.2204460492503131e-15
11
-105.90146229798903
21
29.023075005353309
31
-2.2204460492503131e-15
0
LINE
5
412
100
AcDbEntity
8
0
100
AcDbLine
10
-105.90146229798903
20
29.023075005353309
30
-2.2204460492503131e-15
11
-104.0300637897429
21
28.686046252126612
31
-2.2204460492503131e-15
0
LINE
5
413
100
AcDbEntity
8
0
100
AcDbLine
10
-104.0300637897429
20
28.686046252126612
30
-2.2204460492503131e-15
11
-104.21204984932614
21
25.739687963865737
31
-2.2204460492503131e-15
0
LINE
5
414
100
AcDbEntity
8
0
100
AcDbLine
10
-104.21204984932614
20
25.739687963865737
30
-2.2204460492503131e-15
11
-106.10656189784925
21
25.640967576590469
31
-2.2204460492503131e-15
0
LINE
5
415
100
AcDbEntity
8
0
100
AcDbLine
10
-106.10656189784925
20
25.640967576590469
30
-2.2204460492503131e-15
11
-106.78183920090888
21
25.509706962558397
31
-2.2204460492503131e-15
0
LINE
5
416
100
AcDbEntity
8
0
100
AcDbLine
10
-106.78183920090888
20
25.509706962558397
30
-2.2204460492503131e-15
11
-107.05238957897546
21
25.37625583489784
31
-2.2204460492503131e-15
0
LINE
5
417
100
AcDbEntity
8
0
100
AcDbLine
10
-107.05238957897546
20
25.37625583489784
30
-2.2204460492503131e-15
11
-107.34890979842064
21
25.237756681322271
31
-2.2204460492503131e-15
0
LINE
5
418
100
AcDbEntity
8
0
100
AcDbLine
10
-107.34890979842064
20
25.237756681322271
30
-2.2204460492503131e-15
11
-107.68727684150105
21
25.037217059775074
31
-2.2204460492503131e-15
0
LINE
5
419
100
AcDbEntity
8
0
100
AcDbLine
10
-107.68727684150105
20
25.037217059775074
30
-2.2204460492503131e-15
11
-108.04656927792209
21
24.805656819073004
31
-2.2204460492503131e-15
0
LINE
5
420
100
AcDbEntity
8
0
100
AcDbLine
10
-108.04656927792209
20
24.805656819073004
30
-2.2204460492503131e-15
11
-108.4477081528093
21
24.512054128876237
31
-2.2204460492503131e-15
0
LINE
5
421
100
AcDbEntity
8
0
100
AcDbLine
10
-108.4477081528093
20
24.512054128876237
30
-2.2204460492503131e-15
11
-108.86472400995304
21
24.161458996622894
31
-3.8518598887744717e-33
0
LINE
5
422
100
AcDbEntity
8
0
100
AcDbLine
10
-108.86472400995304
20
24.161458996622894
30
-3.8518598887744717e-33
11
-109.29761288630722
21
23.753872192651109
31
-3.8518598887744717e-33
0
LINE
5
423
100
AcDbEntity
8
0
100
AcDbLine
10
-109.29761288630722
20
23.753872192651109
30
-3.8518598887744717e-33
11
-109.5219958156126
21
23.521582569636934
31
-1.9259299443872359e-33
0
LINE
5
424
100
AcDbEntity
8
0
100
AcDbLine
10
-109.5219958156126
20
23.521582569636934
30
-1.9259299443872359e-33
11
-109.63166288213868
21
23.392450855917449
31
-1.9259299443872359e-33
0
LINE
5
425
100
AcDbEntity
8
0
100
AcDbLine
10
-109.63166288213868
20
23.392450855917449
30
-1.9259299443872359e-33
11
-109.65763668656348
21
23.387402059664268
31
0
0
ENDSEC
0
SECTION
2
OBJECTS
0
DICTIONARY
5
C
100
AcDbDictionary
3
ACAD_GROUP
350
D
3
ACAD_MLINESTYLE
350
17
0
DICTIONARY
5
D
100
AcDbDictionary
0
DICTIONARY
5
1A
330
C
100
AcDbDictionary
0
DICTIONARY
5
17
100
AcDbDictionary
0
ENDSEC
0
EOF
