<?xml version="1.0" encoding="UTF-8"?>
<svg id="fg" xmlns="http://www.w3.org/2000/svg" viewBox="0 0 10.68 15.37">
  <g>
    <path d="M3.06,10.71c-.31,0-.56.25-.56.56v.68c0,.31.25.56.56.56s.56-.25.56-.56v-.68c0-.31-.25-.56-.56-.56Z"/>
    <path d="M6.71,10.71c-.31,0-.56.25-.56.56v.68c0,.31.25.56.56.56s.56-.25.56-.56v-.68c0-.31-.25-.56-.56-.56Z"/>
  </g>
  <path d="M8.9,3.69c.18.23.45.38.77.38.56,0,1.01-.45,1.01-1.01s-.45-1.01-1.01-1.01c-.32,0-.59.15-.77.38l-1.77.19h-.06c-.19.02-.34.17-.36.35l-.22,1.52c-.48-.07-.98-.12-1.51-.12-.42,0-.81.03-1.2.08l-.46-2.86c.18-.24.27-.55.18-.87C3.37.21,2.81-.11,2.28.04c-.54.15-.85.7-.71,1.23.09.31.32.54.6.65l1.03,2.63C1.33,4.89,0,5.73,0,6.73h0v5.4c0,1.01,0,3.24,4.99,3.24s4.99-2.23,4.99-3.24v-5.4c0-.95-1.2-1.76-2.92-2.13l.38-1.07,1.47.16ZM4.99,14.64c-2.7,0-4.14-1.04-4.28-2.77v-3.96c.87.69,2.45,1.16,4.28,1.16s3.42-.47,4.28-1.16v3.96c.12,1.46-1.58,2.77-4.28,2.77ZM9.27,6.73c0,.37-.51.82-1.4,1.16-.08.03-.15.06-.24.09-.09.03-.18.06-.27.09-.17.05-.35.09-.54.13-.05.01-.1.02-.16.03-.2.04-.41.07-.64.09-.07,0-.14.01-.21.02-.27.02-.54.04-.83.04s-.56-.02-.83-.04c-.07,0-.14-.01-.21-.02-.22-.02-.43-.05-.64-.09-.05,0-.1-.02-.16-.03-.19-.04-.37-.08-.54-.13-.1-.03-.18-.06-.27-.09-.08-.03-.16-.06-.24-.09-.88-.34-1.4-.79-1.4-1.16,0-.53,1.04-1.23,2.76-1.52l.46,1.17s.05.06.08.06c0,0,.02,0,.02,0,.04-.01.07-.05.06-.1l-.19-1.19c.34-.04.7-.06,1.09-.06.51,0,.97.05,1.41.11l-.17,1.2s.02.09.07.1c0,0,.01,0,.02,0,.04,0,.07-.02.08-.06l.42-1.18c1.54.31,2.46.97,2.46,1.47Z"/>
</svg>