0
SECTION
2
HEADER
9
$INSUNITS
70
4
9
$ACADVER
1
AC1014
9
$HANDSEED
5
FFFF
0
ENDSEC
0
SECTION
2
TABLES
0
TABLE
2
VPORT
5
8
100
AcDbSymbolTable
0
ENDTAB
0
TABLE
2
LTYPE
5
5
100
AcDbSymbolTable
0
LTYPE
5
14
100
AcDbSymbolTableRecord
100
AcDbLinetypeTableRecord
2
BYBLOCK
70
0
0
LTYPE
5
15
100
AcDbSymbolTableRecord
100
AcDbLinetypeTableRecord
2
BYLAYER
70
0
0
LTYPE
5
16
100
AcDbSymbolTableRecord
100
AcDbLinetypeTableRecord
2
DASHED
70
0
3
Dashed __ __ __ __ __ __ __ __ __ __ __ __ __ _
72
65
73
2
40
0.75
49
0.5
74
0
49
-0.25
74
0
0
ENDTAB
0
TABLE
2
LAYER
5
2
100
AcDbSymbolTable
70
2
0
LAYER
5
50
100
AcDbSymbolTableRecord
100
AcDbLayerTableRecord
2
0
70
0
62
7
6
CONTINUOUS
0
ENDTAB
0
TABLE
2
STYLE
5
3
100
AcDbSymbolTable
70
1
0
STYLE
5
11
100
AcDbSymbolTableRecord
100
AcDbTextStyleTableRecord
2
STANDARD
70
0
0
ENDTAB
0
TABLE
2
VIEW
5
6
100
AcDbSymbolTable
70
0
0
ENDTAB
0
TABLE
2
UCS
5
7
100
AcDbSymbolTable
70
0
0
ENDTAB
0
TABLE
2
APPID
5
9
100
AcDbSymbolTable
70
2
0
APPID
5
12
100
AcDbSymbolTableRecord
100
AcDbRegAppTableRecord
2
ACAD
70
0
0
ENDTAB
0
TABLE
2
DIMSTYLE
5
A
100
AcDbSymbolTable
70
1
0
ENDTAB
0
TABLE
2
BLOCK_RECORD
5
1
100
AcDbSymbolTable
70
1
0
BLOCK_RECORD
5
1F
100
AcDbSymbolTableRecord
100
AcDbBlockTableRecord
2
*MODEL_SPACE
0
BLOCK_RECORD
5
1B
100
AcDbSymbolTableRecord
100
AcDbBlockTableRecord
2
*PAPER_SPACE
0
ENDTAB
0
ENDSEC
0
SECTION
2
BLOCKS
0
BLOCK
5
20
100
AcDbEntity
100
AcDbBlockBegin
2
*MODEL_SPACE
0
ENDBLK
5
21
100
AcDbEntity
100
AcDbBlockEnd
0
BLOCK
5
1C
100
AcDbEntity
100
AcDbBlockBegin
2
*PAPER_SPACE
0
ENDBLK
5
1D
100
AcDbEntity
100
AcDbBlockEnd
0
ENDSEC
0
SECTION
2
ENTITIES
0
POINT
5
100
100
AcDbEntity
8
0
100
AcDbPoint
10
7.0560440607264411e-16
20
75.250000000000028
30
0
0
POINT
5
101
100
AcDbEntity
8
0
100
AcDbPoint
10
8.4618459425569981e-16
20
76.250000000000014
30
0
0
ARC
5
102
100
AcDbEntity
8
0
100
AcDbCircle
10
-3.00000000000002
20
156.99999999999997
30
0
40
3.0000000000000204
210
0
220
-0
230
1
100
AcDbArc
50
0
51
89.999999999999773
0
LINE
5
103
100
AcDbEntity
8
0
100
AcDbLine
10
-3.0000000000000071
20
160
30
0
11
-177
21
160
31
0
0
ARC
5
104
100
AcDbEntity
8
0
100
AcDbCircle
10
-177
20
156.99999999999997
30
0
40
3.0000000000000249
210
0
220
-0
230
1
100
AcDbArc
50
90
51
180
0
LINE
5
105
100
AcDbEntity
8
0
100
AcDbLine
10
-180
20
157
30
0
11
-180
21
3.0000000000000071
31
0
0
ARC
5
106
100
AcDbEntity
8
0
100
AcDbCircle
10
-177
20
3.0000000000000213
30
0
40
3.0000000000000071
210
0
220
0
230
1
100
AcDbArc
50
180
51
269.99999999999943
0
LINE
5
107
100
AcDbEntity
8
0
100
AcDbLine
10
-177.00000000000003
20
-2.1094237467877974e-14
30
0
11
-3.0000000000000071
21
0
31
0
0
ARC
5
108
100
AcDbEntity
8
0
100
AcDbCircle
10
-2.9999999999999982
20
3
30
0
40
3
210
0
220
0
230
1
100
AcDbArc
50
-90.000000000000142
51
0
0
LINE
5
109
100
AcDbEntity
8
0
100
AcDbLine
10
2.0868907084880395e-16
20
95.750000000000014
30
0
11
7.4435407332823001e-16
21
104.50000000000001
31
0
0
CIRCLE
5
110
100
AcDbEntity
8
0
100
AcDbCircle
10
-60
20
85.250000000000028
30
0
40
2.5
210
0
220
-0
230
1
0
LWPOLYLINE
5
111
100
AcDbEntity
8
0
100
AcDbPolyline
90
4
70
1
43
0.0
10
-19.999999999999993
20
120.00000000000001
10
-19.999999999999993
20
115.25000000000003
10
-24.999999999999996
20
115.25000000000003
10
-24.999999999999996
20
120
0
LWPOLYLINE
5
112
100
AcDbEntity
8
0
100
AcDbPolyline
90
4
70
1
43
0.0
10
-34.999999999999993
20
120
10
-34.999999999999993
20
115.25000000000003
10
-39.999999999999993
20
115.25000000000003
10
-39.999999999999993
20
120
0
LWPOLYLINE
5
113
100
AcDbEntity
8
0
100
AcDbPolyline
90
4
70
1
43
0.0
10
-42.5
20
144.5
10
-42.5
20
139.75
10
-47.5
20
139.75
10
-47.5
20
144.5
0
LWPOLYLINE
5
114
100
AcDbEntity
8
0
100
AcDbPolyline
90
4
70
1
43
0.0
10
-12.5
20
129.75
10
-12.499999999999996
20
125.00000000000001
10
-17.5
20
125.00000000000001
10
-17.5
20
129.75
0
LWPOLYLINE
5
115
100
AcDbEntity
8
0
100
AcDbPolyline
90
4
70
1
43
0.0
10
-42.5
20
129.75
10
-42.5
20
125
10
-47.5
20
125
10
-47.5
20
129.75
0
LWPOLYLINE
5
116
100
AcDbEntity
8
0
100
AcDbPolyline
90
4
70
1
43
0.0
10
-12.499999999999996
20
144.5
10
-12.499999999999996
20
139.75
10
-17.499999999999996
20
139.75
10
-17.499999999999996
20
144.5
0
CIRCLE
5
117
100
AcDbEntity
8
0
100
AcDbCircle
10
-140
20
85.250000000000028
30
0
40
1.5000000000000036
210
0
220
-0
230
1
0
LWPOLYLINE
5
118
100
AcDbEntity
8
0
100
AcDbPolyline
90
6
70
1
43
0.0
10
-14.761547632515432
20
16.495136618614204
10
-11.618891991674902
20
16.495136618614204
10
-11.618891991674902
20
11.495136618614206
10
-12.720586843788626
20
11.495136618614206
10
-12.720586843788626
20
15.478187799453744
10
-14.761547632515432
20
15.478187799453744
0
LWPOLYLINE
5
119
100
AcDbEntity
8
0
100
AcDbPolyline
90
8
70
1
43
0.0
10
-21.470586843788624
20
16.4951366186142
10
-20.347705669701099
20
16.495136618614204
10
-18.928213901817802
20
13.062933087348945
10
-20.072282142937183
20
13.062933087348945
10
-20.940925665199757
20
15.393441915512092
10
-20.955049581825733
20
15.393441915512092
10
-21.760135479271412
20
13.062933087348945
10
-22.826519794762135
20
13.062933087348945
0
SPLINE
5
120
100
AcDbEntity
8
0
100
AcDbSpline
70
0
71
3
72
9
73
5
74
0
42
0.000000001
43
0.0000000001
44
0.0000000001
40
0
40
0
40
0
40
0
40
0.034795703478969493
40
0.070294041500641807
40
0.070294041500641807
40
0.070294041500641807
40
0.070294041500641807
10
-47.30391938239336
20
16.092594265937805
30
0
10
-47.223347303900468
20
16.008188453375869
30
0
10
-47.060576143581912
20
15.837672409787036
30
0
10
-46.954796640649946
20
15.626966281657822
30
0
10
-46.901378221809864
20
15.520560145378113
30
0
0
SPLINE
5
121
100
AcDbEntity
8
0
100
AcDbSpline
70
0
71
3
72
9
73
5
74
0
42
0.000000001
43
0.0000000001
44
0.0000000001
40
0
40
0
40
0
40
0
40
0.036852708100414966
40
0.0760468833675009
40
0.0760468833675009
40
0.0760468833675009
40
0.0760468833675009
10
-46.901378221809864
20
15.520560145378113
30
0
10
-46.858134871054659
20
15.404700910243118
30
0
10
-46.768900667632181
20
15.165621228029487
30
0
10
-46.758455641819765
20
14.910515197912627
30
0
10
-46.753072328865528
20
14.779034852981567
30
0
0
SPLINE
5
122
100
AcDbEntity
8
0
100
AcDbSpline
70
0
71
3
72
9
73
5
74
0
42
0.000000001
43
0.0000000001
44
0.0000000001
40
0
40
0
40
0
40
0
40
0.039194070822354238
40
0.076046979667077685
40
0.076046979667077685
40
0.076046979667077685
40
0.076046979667077685
10
-46.753072328865528
20
14.779034852981567
30
0
10
-46.758453316999933
20
14.647554557590791
30
0
10
-46.7688938731009
20
14.392447620740004
30
0
10
-46.858132531396151
20
14.153368842191373
30
0
10
-46.901378221809864
20
14.037509560585022
30
0
0
SPLINE
5
123
100
AcDbEntity
8
0
100
AcDbSpline
70
0
71
3
72
9
73
5
74
0
42
0.000000001
43
0.0000000001
44
0.0000000001
40
0
40
0
40
0
40
0
40
0.035344780945839899
40
0.069741759185970226
40
0.069741759185970226
40
0.069741759185970226
40
0.069741759185970226
10
-46.901378221809864
20
14.037509560585022
30
0
10
-46.954637780007118
20
13.931532712438305
30
0
10
-47.059728692519371
20
13.722420882489143
30
0
10
-47.223263307107274
20
13.55507420019201
30
0
10
-47.30391938239336
20
13.472537994384766
30
0
0
SPLINE
5
124
100
AcDbEntity
8
0
100
AcDbSpline
70
0
71
3
72
9
73
5
74
0
42
0.000000001
43
0.0000000001
44
0.0000000001
40
0
40
0
40
0
40
0
40
0.035310912132391965
40
0.071321015734013768
40
0.071321015734013768
40
0.071321015734013768
40
0.071321015734013768
10
-47.30391938239336
20
13.472537994384766
30
0
10
-47.395106126390871
20
13.397005532349684
30
0
10
-47.579285203357109
20
13.244444989788926
30
0
10
-47.799885434431005
20
13.151987815669614
30
0
10
-47.91126687079668
20
13.105306029319763
30
0
0
SPLINE
5
125
100
AcDbEntity
8
0
100
AcDbSpline
70
0
71
3
72
9
73
5
74
0
42
0.000000001
43
0.0000000001
44
0.0000000001
40
0
40
0
40
0
40
0
40
0.037598849823033458
40
0.076218456957051595
40
0.076218456957051595
40
0.076218456957051595
40
0.076218456957051595
10
-47.91126687079668
20
13.105306029319763
30
0
10
-48.031594881531973
20
13.068231975370811
30
0
10
-48.275517643800541
20
12.993077357651615
30
0
10
-48.530602820350232
20
12.98319510162791
30
0
10
-48.659853525459766
20
12.978187799453735
30
0
0
SPLINE
5
126
100
AcDbEntity
8
0
100
AcDbSpline
70
0
71
3
72
9
73
5
74
0
42
0.000000001
43
0.0000000001
44
0.0000000001
40
0
40
0
40
0
40
0
40
0.038443535968919175
40
0.075530422606982894
40
0.075530422606982894
40
0.075530422606982894
40
0.075530422606982894
10
-48.659853525459766
20
12.978187799453735
30
0
10
-48.788544413953481
20
12.983093334983886
30
0
10
-49.041384766658197
20
12.992731292637028
30
0
10
-49.282825962382276
20
13.068233162585061
30
0
10
-49.401378221809864
20
13.105306029319763
30
0
0
SPLINE
5
127
100
AcDbEntity
8
0
100
AcDbSpline
70
0
71
3
72
9
73
5
74
0
42
0.000000001
43
0.0000000001
44
0.0000000001
40
0
40
0
40
0
40
0
40
0.036329180411314339
40
0.071357684712830424
40
0.071357684712830424
40
0.071357684712830424
40
0.071357684712830424
10
-49.401378221809864
20
13.105306029319763
30
0
10
-49.514159026901638
20
13.151633647163807
30
0
10
-49.735682800360934
20
13.24263023751304
30
0
10
-49.918820948224536
20
13.396839025137478
30
0
10
-50.008720941841602
20
13.472537994384766
30
0
0
SPLINE
5
128
100
AcDbEntity
8
0
100
AcDbSpline
70
0
71
3
72
9
73
5
74
0
42
0.000000001
43
0.0000000001
44
0.0000000001
40
0
40
0
40
0
40
0
40
0.034750338390743776
40
0.070182700414131244
40
0.070182700414131244
40
0.070182700414131244
40
0.070182700414131244
10
-50.008720941841602
20
13.472537994384766
30
0
10
-50.09134872564686
20
13.554869063182284
30
0
10
-50.25822597822156
20
13.721147062297561
30
0
10
-50.364616583500769
20
13.931374409866573
30
0
10
-50.418328829109669
20
14.037509560585022
30
0
0
SPLINE
5
129
100
AcDbEntity
8
0
100
AcDbSpline
70
0
71
3
72
9
73
5
74
0
42
0.000000001
43
0.0000000001
44
0.0000000001
40
0
40
0
40
0
40
0
40
0.036852708100414966
40
0.0760468833675009
40
0.0760468833675009
40
0.0760468833675009
40
0.0760468833675009
10
-50.418328829109669
20
14.037509560585022
30
0
10
-50.461572179864888
20
14.153368795720018
30
0
10
-50.550806383287352
20
14.392448477933648
30
0
10
-50.561251409099775
20
14.647554508050511
30
0
10
-50.566634722054005
20
14.779034852981567
30
0
0
SPLINE
5
130
100
AcDbEntity
8
0
100
AcDbSpline
70
0
71
3
72
9
73
5
74
0
42
0.000000001
43
0.0000000001
44
0.0000000001
40
0
40
0
40
0
40
0
40
0.039194130159744885
40
0.076046982179615363
40
0.076046982179615363
40
0.076046982179615363
40
0.076046982179615363
10
-50.566634722054005
20
14.779034852981567
30
0
10
-50.561253775304749
20
14.910515356723412
30
0
10
-50.550813314963307
20
15.165622320043454
30
0
10
-50.461574518412142
20
15.404701063333752
30
0
10
-50.418328829109669
20
15.520560145378113
30
0
0
SPLINE
5
131
100
AcDbEntity
8
0
100
AcDbSpline
70
0
71
3
72
9
73
5
74
0
42
0.000000001
43
0.0000000001
44
0.0000000001
40
0
40
0
40
0
40
0
40
0.035585777755315073
40
0.070730516497638507
40
0.070730516497638507
40
0.070730516497638507
40
0.070730516497638507
10
-50.418328829109669
20
15.520560145378113
30
0
10
-50.364458161774635
20
15.627122177981285
30
0
10
-50.257384483327073
20
15.838925546644059
30
0
10
-50.091263507433922
20
16.008390257678535
30
0
10
-50.008720941841602
20
16.092594265937805
30
0
0
SPLINE
5
132
100
AcDbEntity
8
0
100
AcDbSpline
70
0
71
3
72
9
73
5
74
0
42
0.000000001
43
0.0000000001
44
0.0000000001
40
0
40
0
40
0
40
0
40
0.034711065723235728
40
0.070964661623875519
40
0.070964661623875519
40
0.070964661623875519
40
0.070964661623875519
10
-50.008720941841602
20
16.092594265937805
30
0
10
-49.918626983818314
20
16.166300816089745
30
0
10
-49.734435369061941
20
16.31698937266421
30
0
10
-49.513994482389698
20
16.406854454988412
30
0
10
-49.401378221809864
20
16.452763676643372
30
0
0
SPLINE
5
133
100
AcDbEntity
8
0
100
AcDbSpline
70
0
71
3
72
9
73
5
74
0
42
0.000000001
43
0.0000000001
44
0.0000000001
40
0
40
0
40
0
40
0
40
0.037086901960604074
40
0.075530437929523242
40
0.075530437929523242
40
0.075530437929523242
40
0.075530437929523242
10
-49.401378221809864
20
16.452763676643372
30
0
10
-49.282825975071454
20
16.489836790915135
30
0
10
-49.041384855961716
20
16.565339149115129
30
0
10
-48.788544426774578
20
16.574977014820508
30
0
10
-48.659853525459766
20
16.579882502555847
30
0
0
SPLINE
5
134
100
AcDbEntity
8
0
100
AcDbSpline
70
0
71
3
72
9
73
5
74
0
42
0.000000001
43
0.0000000001
44
0.0000000001
40
0
40
0
40
0
40
0
40
0.03861960713401813
40
0.0762184720708588
40
0.0762184720708588
40
0.0762184720708588
40
0.0762184720708588
10
-48.659853525459766
20
16.579882502555847
30
0
10
-48.530602807858102
20
16.574875247651988
30
0
10
-48.275517556071989
20
16.564993082959916
30
0
10
-48.031594868963523
20
16.489837978335672
30
0
10
-47.91126687079668
20
16.452763676643372
30
0
0
SPLINE
5
135
100
AcDbEntity
8
0
100
AcDbSpline
70
0
71
3
72
9
73
5
74
0
42
0.000000001
43
0.0000000001
44
0.0000000001
40
0
40
0
40
0
40
0
40
0.035934283707019003
40
0.070929938904708403
40
0.070929938904708403
40
0.070929938904708403
40
0.070929938904708403
10
-47.91126687079668
20
16.452763676643372
30
0
10
-47.800042371839112
20
16.406503130904518
30
0
10
-47.580498635275745
20
16.315190397089975
30
0
10
-47.395295524776387
20
16.166135486264697
30
0
10
-47.30391938239336
20
16.092594265937805
30
0
0
LINE
5
136
100
AcDbEntity
8
0
100
AcDbLine
10
-34.775671549141407
20
11.156153678894047
30
0
11
-35.834993906319141
21
11.156153678894047
31
0
0
LINE
5
137
100
AcDbEntity
8
0
100
AcDbLine
10
-35.834993906319141
20
11.156153678894047
30
0
11
-35.834993906319141
21
16.4951366186142
31
0
0
LINE
5
138
100
AcDbEntity
8
0
100
AcDbLine
10
-35.834993906319141
20
16.4951366186142
30
0
11
-34.860419817268848
21
16.4951366186142
31
0
0
LINE
5
139
100
AcDbEntity
8
0
100
AcDbLine
10
-34.860419817268848
20
16.4951366186142
30
0
11
-34.860419817268848
21
16.043159365653995
31
0
0
LINE
5
140
100
AcDbEntity
8
0
100
AcDbLine
10
-34.860419817268848
20
16.043159365653995
30
0
11
-34.846295900642872
21
16.043159365653995
31
0
0
SPLINE
5
141
100
AcDbEntity
8
0
100
AcDbSpline
70
0
71
3
72
9
73
5
74
0
42
0.000000001
43
0.0000000001
44
0.0000000001
40
0
40
0
40
0
40
0
40
0.011939274643298711
40
0.025547631664183369
40
0.025547631664183369
40
0.025547631664183369
40
0.025547631664183369
10
-34.846295900642872
20
16.043159365653995
30
0
10
-34.822317608857787
20
16.075003107190152
30
0
10
-34.771008916766888
20
16.143142270069024
30
0
10
-34.709544267203825
20
16.202316762873778
30
0
10
-34.676804132759571
20
16.233837008476261
30
0
0
SPLINE
5
142
100
AcDbEntity
8
0
100
AcDbSpline
70
0
71
3
72
9
73
5
74
0
42
0.000000001
43
0.0000000001
44
0.0000000001
40
0
40
0
40
0
40
0
40
0.014062509570387169
40
0.029446118970866533
40
0.029446118970866533
40
0.029446118970866533
40
0.029446118970866533
10
-34.676804132759571
20
16.233837008476261
30
0
10
-34.641108993982769
20
16.264379855639724
30
0
10
-34.566365343296361
20
16.328334892027986
30
0
10
-34.481187622542315
20
16.377594142983575
30
0
10
-34.436688013374805
20
16.403328776359562
30
0
0
SPLINE
5
143
100
AcDbEntity
8
0
100
AcDbSpline
70
0
71
3
72
9
73
5
74
0
42
0.000000001
43
0.0000000001
44
0.0000000001
40
0
40
0
40
0
40
0
40
0.015949524297949953
40
0.032980037194425521
40
0.032980037194425521
40
0.032980037194425521
40
0.032980037194425521
10
-34.436688013374805
20
16.403328776359562
30
0
10
-34.389619472981146
20
16.428296694562555
30
0
10
-34.292292293569929
20
16.479924746636051
30
0
10
-34.187257697904805
20
16.513242629663026
30
0
10
-34.133019037544727
20
16.530447602272037
30
0
0
SPLINE
5
144
100
AcDbEntity
8
0
100
AcDbSpline
70
0
71
3
72
9
73
5
74
0
42
0.000000001
43
0.0000000001
44
0.0000000001
40
0
40
0
40
0
40
0
40
0.01700518987322688
40
0.034351544450569899
40
0.034351544450569899
40
0.034351544450569899
40
0.034351544450569899
10
-34.133019037544727
20
16.530447602272037
30
0
10
-34.07800066141894
20
16.544865860546821
30
0
10
-33.96686010920088
20
16.573991641777045
30
0
10
-33.852023872222865
20
16.577905923976136
30
0
10
-33.794035501778126
20
16.579882502555851
30
0
0
SPLINE
5
145
100
AcDbEntity
8
0
100
AcDbSpline
70
0
71
3
72
9
73
5
74
0
42
0.000000001
43
0.0000000001
44
0.0000000001
40
0
40
0
40
0
40
0
40
0.036508621210875683
40
0.070703631946069739
40
0.070703631946069739
40
0.070703631946069739
40
0.070703631946069739
10
-33.794035501778126
20
16.579882502555851
30
0
10
-33.671675414351128
20
16.575314189999478
30
0
10
-33.434709396479441
20
16.566467066254795
30
0
10
-33.210419689759078
20
16.489828871473438
30
0
10
-33.101944513618946
20
16.452763676643375
30
0
0
SPLINE
5
146
100
AcDbEntity
8
0
100
AcDbSpline
70
0
71
3
72
9
73
5
74
0
42
0.000000001
43
0.0000000001
44
0.0000000001
40
0
40
0
40
0
40
0
40
0.033028434951443877
40
0.065354483246408704
40
0.065354483246408704
40
0.065354483246408704
40
0.065354483246408704
10
-33.101944513618946
20
16.452763676643375
30
0
10
-33.002310937483017
20
16.404342727407165
30
0
10
-32.805162604783376
20
16.30853055464495
30
0
10
-32.644626674825432
20
16.159330555741558
30
0
10
-32.565221376717091
20
16.08553230762482
30
0
0
SPLINE
5
147
100
AcDbEntity
8
0
100
AcDbSpline
70
0
71
3
72
9
73
5
74
0
42
0.000000001
43
0.0000000001
44
0.0000000001
40
0
40
0
40
0
40
0
40
0.032556792702772175
40
0.066198551658945587
40
0.066198551658945587
40
0.066198551658945587
40
0.066198551658945587
10
-32.565221376717091
20
16.08553230762482
30
0
10
-32.496050497601843
20
16.001102884623332
30
0
10
-32.355403596163796
20
15.829430399218367
30
0
10
-32.269760974797997
20
15.624635729322186
30
0
10
-32.226237840950489
20
15.520560145378116
30
0
0
SPLINE
5
148
100
AcDbEntity
8
0
100
AcDbSpline
70
0
71
3
72
9
73
5
74
0
42
0.000000001
43
0.0000000001
44
0.0000000001
40
0
40
0
40
0
40
0
40
0.035244479287392785
40
0.072617980729887399
40
0.072617980729887399
40
0.072617980729887399
40
0.072617980729887399
10
-32.226237840950489
20
15.520560145378116
30
0
10
-32.191229261604789
20
15.40783137025519
30
0
10
-32.119097330825596
20
15.175564184440676
30
0
10
-32.110568976201741
20
14.932420155063124
30
0
10
-32.106179781258106
20
14.80728387832642
30
0
0
SPLINE
5
149
100
AcDbEntity
8
0
100
AcDbSpline
70
0
71
3
72
9
73
5
74
0
42
0.000000001
43
0.0000000001
44
0.0000000001
40
0
40
0
40
0
40
0
40
0.035233869004258907
40
0.069535335433408313
40
0.069535335433408313
40
0.069535335433408313
40
0.069535335433408313
10
-32.106179781258106
20
14.80728387832642
30
0
10
-32.110352131377397
20
14.689444878423718
30
0
10
-32.118586417684568
20
14.456885281168548
30
0
10
-32.181218032196988
20
14.232797120520857
30
0
10
-32.212113924324512
20
14.122255444526676
30
0
0
SPLINE
5
150
100
AcDbEntity
8
0
100
AcDbSpline
70
0
71
3
72
9
73
5
74
0
42
0.000000001
43
0.0000000001
44
0.0000000001
40
0
40
0
40
0
40
0
40
0.034008937865544625
40
0.066575912153857358
40
0.066575912153857358
40
0.066575912153857358
40
0.066575912153857358
10
-32.212113924324512
20
14.122255444526676
30
0
10
-32.252567037074549
20
14.015813188200163
30
0
10
-32.331758068898139
20
13.807441779052692
30
0
10
-32.460078871644249
20
13.625229626621625
30
0
10
-32.522849626839161
20
13.536096811294559
30
0
0
SPLINE
5
151
100
AcDbEntity
8
0
100
AcDbSpline
70
0
71
3
72
9
73
5
74
0
42
0.000000001
43
0.0000000001
44
0.0000000001
40
0
40
0
40
0
40
0
40
0.032084615921408877
40
0.064110789504822518
40
0.064110789504822518
40
0.064110789504822518
40
0.064110789504822518
10
-32.522849626839161
20
13.536096811294559
30
0
10
-32.594603727326643
20
13.455787529891676
30
0
10
-32.737981227737706
20
13.295315250967858
30
0
10
-32.924181151833182
20
13.187441944225831
30
0
10
-33.017196245491505
20
13.133554458618168
30
0
0
SPLINE
5
152
100
AcDbEntity
8
0
100
AcDbSpline
70
0
71
3
72
9
73
5
74
0
42
0.000000001
43
0.0000000001
44
0.0000000001
40
0
40
0
40
0
40
0
40
0.033021407296670482
40
0.068018599924611067
40
0.068018599924611067
40
0.068018599924611067
40
0.068018599924611067
10
-33.017196245491505
20
13.133554458618168
30
0
10
-33.118632980001649
20
13.08824994534092
30
0
10
-33.327575760674719
20
12.994930192621137
30
0
10
-33.55629561806056
20
12.983875633757719
30
0
10
-33.673977442085743
20
12.978187799453739
30
0
0
SPLINE
5
153
100
AcDbEntity
8
0
100
AcDbSpline
70
0
71
3
72
9
73
5
74
0
42
0.000000001
43
0.0000000001
44
0.0000000001
40
0
40
0
40
0
40
0
40
0.032065743605451183
40
0.06260168053584611
40
0.06260168053584611
40
0.06260168053584611
40
0.06260168053584611
10
-33.673977442085743
20
12.978187799453739
30
0
10
-33.781347356719174
20
12.982153966604507
30
0
10
-33.990964734620874
20
12.989897081249818
30
0
10
-34.190871374695789
20
13.053227941220339
30
0
10
-34.28838212043047
20
13.084119558334354
30
0
0
SPLINE
5
154
100
AcDbEntity
8
0
100
AcDbSpline
70
0
71
3
72
9
73
5
74
0
42
0.000000001
43
0.0000000001
44
0.0000000001
40
0
40
0
40
0
40
0
40
0.029611697561486516
40
0.059324214237302546
40
0.059324214237302546
40
0.059324214237302546
40
0.059324214237302546
10
-34.28838212043047
20
13.084119558334354
30
0
10
-34.380536612981693
20
13.123325379662848
30
0
10
-34.565159357006657
20
13.201870506601674
30
0
10
-34.696010748454817
20
13.353980702091558
30
0
10
-34.76154763251543
20
13.430165052413944
30
0
0
LINE
5
155
100
AcDbEntity
8
0
100
AcDbLine
10
-34.76154763251543
20
13.430165052413944
30
0
11
-34.775671549141407
21
13.430165052413944
31
0
0
LINE
5
156
100
AcDbEntity
8
0
100
AcDbLine
10
-34.775671549141407
20
13.430165052413944
30
0
11
-34.775671549141407
21
11.156153678894047
31
0
0
LINE
5
157
100
AcDbEntity
8
0
100
AcDbLine
10
-41.795444078743458
20
16.4951366186142
30
0
11
-40.736121721565723
21
16.4951366186142
31
0
0
LINE
5
158
100
AcDbEntity
8
0
100
AcDbLine
10
-40.736121721565723
20
16.4951366186142
30
0
11
-40.736121721565723
21
13.06293308734894
31
0
0
LINE
5
159
100
AcDbEntity
8
0
100
AcDbLine
10
-40.736121721565723
20
13.06293308734894
30
0
11
-41.753072328865528
21
13.06293308734894
31
0
0
LINE
5
160
100
AcDbEntity
8
0
100
AcDbLine
10
-41.753072328865528
20
13.06293308734894
30
0
11
-41.753072328865528
21
13.529034852981569
31
0
0
LINE
5
161
100
AcDbEntity
8
0
100
AcDbLine
10
-41.753072328865528
20
13.529034852981569
30
0
11
-41.767196245491505
21
13.529034852981569
31
0
0
SPLINE
5
162
100
AcDbEntity
8
0
100
AcDbSpline
70
0
71
3
72
9
73
5
74
0
42
0.000000001
43
0.0000000001
44
0.0000000001
40
0
40
0
40
0
40
0
40
0.01156651877339141
40
0.024361675417377753
40
0.024361675417377753
40
0.024361675417377753
40
0.024361675417377753
10
-41.767196245491505
20
13.529034852981569
30
0
10
-41.78614542183044
20
13.495327042440229
30
0
10
-41.826056625230514
20
13.424330854604719
30
0
10
-41.880070956180539
20
13.363332175449099
30
0
10
-41.908440180122852
20
13.331294655799867
30
0
0
SPLINE
5
163
100
AcDbEntity
8
0
100
AcDbSpline
70
0
71
3
72
9
73
5
74
0
42
0.000000001
43
0.0000000001
44
0.0000000001
40
0
40
0
40
0
40
0
40
0.013741571443432162
40
0.028190999100910465
40
0.028190999100910465
40
0.028190999100910465
40
0.028190999100910465
10
-41.908440180122852
20
13.331294655799867
30
0
10
-41.941021170825785
20
13.298912961273855
30
0
10
-42.007861465139591
20
13.232481525464152
30
0
10
-42.086869645844388
20
13.181085035525562
30
0
10
-42.127365656197071
20
13.154741525650026
30
0
0
SPLINE
5
164
100
AcDbEntity
8
0
100
AcDbSpline
70
0
71
3
72
9
73
5
74
0
42
0.000000001
43
0.0000000001
44
0.0000000001
40
0
40
0
40
0
40
0
40
0.015319546869489857
40
0.031685959659923289
40
0.031685959659923289
40
0.031685959659923289
40
0.031685959659923289
10
-42.127365656197071
20
13.154741525650026
30
0
10
-42.172049966314972
20
13.129771468341797
30
0
10
-42.264472102549753
20
13.078125017221872
30
0
10
-42.364993982772098
20
13.044823552321381
30
0
10
-42.416915483772755
20
13.027622699737551
30
0
0
SPLINE
5
165
100
AcDbEntity
8
0
100
AcDbSpline
70
0
71
3
72
9
73
5
74
0
42
0.000000001
43
0.0000000001
44
0.0000000001
40
0
40
0
40
0
40
0
40
0.017349963760144506
40
0.035753074996265566
40
0.035753074996265566
40
0.035753074996265566
40
0.035753074996265566
10
-42.416915483772755
20
13.027622699737551
30
0
10
-42.473120265096071
20
13.013207513117035
30
0
10
-42.588941473115938
20
12.983502134163309
30
0
10
-42.708488649149672
20
12.979993692734084
30
0
10
-42.770022936165333
20
12.978187799453737
30
0
0
SPLINE
5
166
100
AcDbEntity
8
0
100
AcDbSpline
70
0
71
3
72
9
73
5
74
0
42
0.000000001
43
0.0000000001
44
0.0000000001
40
0
40
0
40
0
40
0
40
0.034100276537687858
40
0.065778164061478725
40
0.065778164061478725
40
0.065778164061478725
40
0.065778164061478725
10
-42.770022936165333
20
12.978187799453737
30
0
10
-42.884717930984088
20
12.983404848750407
30
0
10
-43.105960306478622
20
12.993468342639492
30
0
10
-43.308211843559683
20
13.083253273639057
30
0
10
-43.405613489449024
20
13.126492500305178
30
0
0
SPLINE
5
167
100
AcDbEntity
8
0
100
AcDbSpline
70
0
71
3
72
9
73
5
74
0
42
0.000000001
43
0.0000000001
44
0.0000000001
40
0
40
0
40
0
40
0
40
0.031217777878416071
40
0.063933166560143903
40
0.063933166560143903
40
0.063933166560143903
40
0.063933166560143903
10
-43.405613489449024
20
13.126492500305178
30
0
10
-43.494411413160265
20
13.18418099895537
30
0
10
-43.676267164358705
20
13.302325487239317
30
0
10
-43.777528579933715
20
13.494338726643647
30
0
10
-43.829345293343067
20
13.592594265937805
30
0
0
SPLINE
5
168
100
AcDbEntity
8
0
100
AcDbSpline
70
0
71
3
72
9
73
5
74
0
42
0.000000001
43
0.0000000001
44
0.0000000001
40
0
40
0
40
0
40
0
40
0.034931664294775303
40
0.06562250728393601
40
0.06562250728393601
40
0.06562250728393601
40
0.06562250728393601
10
-43.829345293343067
20
13.592594265937805
30
0
10
-43.890612279621628
20
13.491701233567298
30
0
10
-44.00570823438067
20
13.302163921638467
30
0
10
-44.188683100010884
20
13.177659660257728
30
0
10
-44.274258203804493
20
13.119430541992188
30
0
0
SPLINE
5
169
100
AcDbEntity
8
0
100
AcDbSpline
70
0
71
3
72
9
73
5
74
0
42
0.000000001
43
0.0000000001
44
0.0000000001
40
0
40
0
40
0
40
0
40
0.030997654266027491
40
0.066308966627230875
40
0.066308966627230875
40
0.066308966627230875
40
0.066308966627230875
10
-44.274258203804493
20
13.119430541992188
30
0
10
-44.370029938517789
20
13.078281654259047
30
0
10
-44.574901078328402
20
12.990257567015938
30
0
10
-44.798071315828174
20
12.982381837659087
30
0
10
-44.916915483772755
20
12.978187799453735
30
0
0
SPLINE
5
170
100
AcDbEntity
8
0
100
AcDbSpline
70
0
71
3
72
9
73
5
74
0
42
0.000000001
43
0.0000000001
44
0.0000000001
40
0
40
0
40
0
40
0
40
0.031920945033347817
40
0.059558801595270064
40
0.059558801595270064
40
0.059558801595270064
40
0.059558801595270064
10
-44.916915483772755
20
12.978187799453735
30
0
10
-45.024276603250499
20
12.981583871965503
30
0
10
-45.224593342223642
20
12.987920338781262
30
0
10
-45.409982017448755
20
13.063275856042299
30
0
10
-45.49601037055254
20
13.098244071006775
30
0
0
SPLINE
5
171
100
AcDbEntity
8
0
100
AcDbSpline
70
0
71
3
72
9
73
5
74
0
42
0.000000001
43
0.0000000001
44
0.0000000001
40
0
40
0
40
0
40
0
40
0.02532157830944614
40
0.049587377321631265
40
0.049587377321631265
40
0.049587377321631265
40
0.049587377321631265
10
-45.49601037055254
20
13.098244071006775
30
0
10
-45.571132202119074
20
13.138979341947659
30
0
10
-45.718243672085855
20
13.218751432998195
30
0
10
-45.820341621681315
20
13.351217629622012
30
0
10
-45.870303697884083
20
13.416040539741516
30
0
0
SPLINE
5
172
100
AcDbEntity
8
0
100
AcDbSpline
70
0
71
3
72
9
73
5
74
0
42
0.000000001
43
0.0000000001
44
0.0000000001
40
0
40
0
40
0
40
0
40
0.024813722782264461
40
0.051566741436125829
40
0.051566741436125829
40
0.051566741436125829
40
0.051566741436125829
10
-45.870303697884083
20
13.416040539741516
30
0
10
-45.914172064544033
20
13.486800541616905
30
0
10
-46.005337293583977
20
13.633850734477768
30
0
10
-46.046623737325149
20
13.801978795651756
30
0
10
-46.068043299019337
20
13.889204263687134
30
0
0
SPLINE
5
173
100
AcDbEntity
8
0
100
AcDbSpline
70
0
71
3
72
9
73
5
74
0
42
0.000000001
43
0.0000000001
44
0.0000000001
40
0
40
0
40
0
40
0
40
0.028299861554690296
40
0.058356054748190958
40
0.058356054748190958
40
0.058356054748190958
40
0.058356054748190958
10
-46.068043299019337
20
13.889204263687134
30
0
10
-46.086577672551876
20
13.981894223024227
30
0
10
-46.124796690496453
20
14.173026618892308
30
0
10
-46.129290937457696
20
14.367920538967809
30
0
10
-46.131605692207813
20
14.468300342559814
30
0
0
LINE
5
174
100
AcDbEntity
8
0
100
AcDbLine
10
-46.13160569220782
20
14.468300342559814
30
0
11
-46.131605692207813
21
16.495136618614197
31
0
0
LINE
5
175
100
AcDbEntity
8
0
100
AcDbLine
10
-46.131605692207813
20
16.495136618614197
30
0
11
-45.072283335030079
21
16.495136618614197
31
0
0
LINE
5
176
100
AcDbEntity
8
0
100
AcDbLine
10
-45.072283335030079
20
16.495136618614197
30
0
11
-45.072283335030079
21
14.496549367904663
31
0
0
SPLINE
5
177
100
AcDbEntity
8
0
100
AcDbSpline
70
0
71
3
72
9
73
5
74
0
42
0.000000001
43
0.0000000001
44
0.0000000001
40
0
40
0
40
0
40
0
40
0.022402853059254706
40
0.042734231718386653
40
0.042734231718386653
40
0.042734231718386653
40
0.042734231718386653
10
-45.072283335030079
20
14.496549367904663
30
0
10
-45.068790641805514
20
14.420977641901269
30
0
10
-45.062128206392238
20
14.276821911296524
30
0
10
-44.997226866789759
20
14.148158017993975
30
0
10
-44.966349191963673
20
14.086944460868835
30
0
0
SPLINE
5
178
100
AcDbEntity
8
0
100
AcDbSpline
70
0
71
3
72
9
73
5
74
0
42
0.000000001
43
0.0000000001
44
0.0000000001
40
0
40
0
40
0
40
0
40
0.019232363202396106
40
0.041738401790603175
40
0.041738401790603175
40
0.041738401790603175
40
0.041738401790603175
10
-44.966349191963673
20
14.086944460868835
30
0
10
-44.923627424347856
20
14.035533551119217
30
0
10
-44.830911917512388
20
13.923960720210806
30
0
10
-44.684907685193849
20
13.91514455642529
30
0
10
-44.606179781258106
20
13.910390734672546
30
0
0
SPLINE
5
179
100
AcDbEntity
8
0
100
AcDbSpline
70
0
71
3
72
9
73
5
74
0
42
0.000000001
43
0.0000000001
44
0.0000000001
40
0
40
0
40
0
40
0
40
0.017023498921118728
40
0.031930618625193148
40
0.031930618625193148
40
0.031930618625193148
40
0.031930618625193148
10
-44.606179781258106
20
13.910390734672546
30
0
10
-44.548954319152614
20
13.912262234899515
30
0
10
-44.441617724331067
20
13.915772568484943
30
0
10
-44.341966991891759
20
13.955433879181028
30
0
10
-44.295444078743458
20
13.973950147628784
30
0
0
SPLINE
5
180
100
AcDbEntity
8
0
100
AcDbSpline
70
0
71
3
72
9
73
5
74
0
42
0.000000001
43
0.0000000001
44
0.0000000001
40
0
40
0
40
0
40
0
40
0.012931830288873625
40
0.025796033718840011
40
0.025796033718840011
40
0.025796033718840011
40
0.025796033718840011
10
-44.295444078743458
20
13.973950147628784
30
0
10
-44.257225155271939
20
13.994795820516526
30
0
10
-44.180987173753017
20
14.036378154083547
30
0
10
-44.125416815255775
20
14.103103934878686
30
0
10
-44.097704477608204
20
14.136379361152649
30
0
0
SPLINE
5
181
100
AcDbEntity
8
0
100
AcDbSpline
70
0
71
3
72
9
73
5
74
0
42
0.000000001
43
0.0000000001
44
0.0000000001
40
0
40
0
40
0
40
0
40
0.013033889536741491
40
0.026991611748249732
40
0.026991611748249732
40
0.026991611748249732
40
0.026991611748249732
10
-44.097704477608204
20
14.136379361152649
30
0
10
-44.075450516976304
20
14.173917055242264
30
0
10
-44.029365251059033
20
14.251653088061582
30
0
10
-44.004587835013538
20
14.338595419935016
30
0
10
-43.99177510291338
20
14.383554458618164
30
0
0
SPLINE
5
182
100
AcDbEntity
8
0
100
AcDbSpline
70
0
71
3
72
9
73
5
74
0
42
0.000000001
43
0.0000000001
44
0.0000000001
40
0
40
0
40
0
40
0
40
0.014631693832704724
40
0.029831735273857764
40
0.029831735273857764
40
0.029831735273857764
40
0.029831735273857764
10
-43.99177510291338
20
14.383554458618164
30
0
10
-43.983535010750153
20
14.431699377857647
30
0
10
-43.966734751610232
20
14.529859338143529
30
0
10
-43.964606765370704
20
14.629430809787651
30
0
10
-43.963522501289845
20
14.68016505241394
30
0
0
LINE
5
183
100
AcDbEntity
8
0
100
AcDbLine
10
-43.963522501289852
20
14.680165052413939
30
0
11
-43.963522501289845
21
16.495136618614197
31
0
0
LINE
5
184
100
AcDbEntity
8
0
100
AcDbLine
10
-43.963522501289845
20
16.495136618614197
30
0
11
-42.904204912483692
21
16.495136618614197
31
0
0
LINE
5
185
100
AcDbEntity
8
0
100
AcDbLine
10
-42.904204912483692
20
16.495136618614197
30
0
11
-42.904204912483692
21
14.680165052413942
31
0
0
SPLINE
5
186
100
AcDbEntity
8
0
100
AcDbSpline
70
0
71
3
72
9
73
5
74
0
42
0.000000001
43
0.0000000001
44
0.0000000001
40
0
40
0
40
0
40
0
40
0.010241597743382029
40
0.022611751995125488
40
0.022611751995125488
40
0.022611751995125488
40
0.022611751995125488
10
-42.904204912483692
20
14.680165052413942
30
0
10
-42.903815026586457
20
14.646025500528189
30
0
10
-42.902954223083356
20
14.570651022853138
30
0
10
-42.899194828391217
20
14.495363682000836
30
0
10
-42.897138185799122
20
14.45417642593384
30
0
0
SPLINE
5
187
100
AcDbEntity
8
0
100
AcDbSpline
70
0
71
3
72
9
73
5
74
0
42
0.000000001
43
0.0000000001
44
0.0000000001
40
0
40
0
40
0
40
0
40
0.013161233571442759
40
0.025967191574975235
40
0.025967191574975235
40
0.025967191574975235
40
0.025967191574975235
10
-42.897138185799122
20
14.45417642593384
30
0
10
-42.893412301676186
20
14.41031957665087
30
0
10
-42.886061110294236
20
14.323789753969452
30
0
10
-42.860372868818985
20
14.24084415486934
30
0
10
-42.847704477608204
20
14.199938774108888
30
0
0
SPLINE
5
188
100
AcDbEntity
8
0
100
AcDbSpline
70
0
71
3
72
9
73
5
74
0
42
0.000000001
43
0.0000000001
44
0.0000000001
40
0
40
0
40
0
40
0
40
0.012475420452597712
40
0.025100093668530096
40
0.025100093668530096
40
0.025100093668530096
40
0.025100093668530096
10
-42.847704477608204
20
14.199938774108888
30
0
10
-42.831129975503899
20
14.161308317765581
30
0
10
-42.797782678159628
20
14.083585240105849
30
0
10
-42.737021689122436
20
14.024736137311072
30
0
10
-42.706460542976856
20
13.995136618614199
30
0
0
SPLINE
5
189
100
AcDbEntity
8
0
100
AcDbSpline
70
0
71
3
72
9
73
5
74
0
42
0.000000001
43
0.0000000001
44
0.0000000001
40
0
40
0
40
0
40
0
40
0.013118175827921035
40
0.029323814762050864
40
0.029323814762050864
40
0.029323814762050864
40
0.029323814762050864
10
-42.706460542976856
20
13.995136618614199
30
0
10
-42.669349440897179
20
13.970489900282315
30
0
10
-42.586392854762387
20
13.915395669778228
30
0
10
-42.486335517180351
20
13.912172178652805
30
0
10
-42.431039400398731
20
13.910390734672548
30
0
0
SPLINE
5
190
100
AcDbEntity
8
0
100
AcDbSpline
70
0
71
3
72
9
73
5
74
0
42
0.000000001
43
0.0000000001
44
0.0000000001
40
0
40
0
40
0
40
0
40
0.018639687821814174
40
0.03440935543259159
40
0.03440935543259159
40
0.03440935543259159
40
0.03440935543259159
10
-42.431039400398731
20
13.910390734672548
30
0
10
-42.368146199656493
20
13.912400311673242
30
0
10
-42.252043691968559
20
13.916110043829001
30
0
10
-42.147177549446866
20
13.965458066309393
30
0
10
-42.099117822945118
20
13.988074064254763
30
0
0
SPLINE
5
191
100
AcDbEntity
8
0
100
AcDbSpline
70
0
71
3
72
9
73
5
74
0
42
0.000000001
43
0.0000000001
44
0.0000000001
40
0
40
0
40
0
40
0
40
0.014124441147172543
40
0.028248643877073966
40
0.028248643877073966
40
0.028248643877073966
40
0.028248643877073966
10
-42.099117822945118
20
13.988074064254763
30
0
10
-42.059098171686358
20
14.013968427973534
30
0
10
-41.979059544691225
20
14.065756718320262
30
0
10
-41.927271850408388
20
14.145795702937161
30
0
10
-41.901378221809864
20
14.185814857482912
30
0
0
SPLINE
5
192
100
AcDbEntity
8
0
100
AcDbSpline
70
0
71
3
72
9
73
5
74
0
42
0.000000001
43
0.0000000001
44
0.0000000001
40
0
40
0
40
0
40
0
40
0.013934373845392404
40
0.028928967837071946
40
0.028928967837071946
40
0.028928967837071946
40
0.028928967837071946
10
-41.901378221809864
20
14.185814857482912
30
0
10
-41.881841345991766
20
14.228190773436902
30
0
10
-41.841281098473679
20
14.316166847805309
30
0
10
-41.825045343787082
20
14.411713967325209
30
0
10
-41.816629953682423
20
14.461238384246828
30
0
0
SPLINE
5
193
100
AcDbEntity
8
0
100
AcDbSpline
70
0
71
3
72
9
73
5
74
0
42
0.000000001
43
0.0000000001
44
0.0000000001
40
0
40
0
40
0
40
0
40
0.015969058905494476
40
0.032573531424893137
40
0.032573531424893137
40
0.032573531424893137
40
0.032573531424893137
10
-41.816629953682423
20
14.461238384246828
30
0
10
-41.810451987560725
20
14.514146363502245
30
0
10
-41.7978502322038
20
14.622067546278457
30
0
10
-41.796256492949112
20
14.73071393267219
30
0
10
-41.795444078743458
20
14.786096811294557
30
0
0
LINE
5
194
100
AcDbEntity
8
0
100
AcDbLine
10
-41.795444078743458
20
14.786096811294557
30
0
11
-41.795444078743458
21
16.4951366186142
31
0
0
SPLINE
5
195
100
AcDbEntity
8
0
100
AcDbSpline
70
0
71
3
72
9
73
5
74
0
42
0.000000001
43
0.0000000001
44
0.0000000001
40
0
40
0
40
0
40
0
40
0.021865691369107303
40
0.044138060994864219
40
0.044138060994864219
40
0.044138060994864219
40
0.044138060994864219
10
-38.871717043220997
20
15.661803483963014
30
0
10
-38.931065070845669
20
15.61885912945808
30
0
10
-39.050864935345885
20
15.532171701810494
30
0
10
-39.143015097462523
20
15.416499780274474
30
0
10
-39.189514704048634
20
15.35813093185425
30
0
0
LINE
5
196
100
AcDbEntity
8
0
100
AcDbLine
10
-39.189514704048641
20
15.35813093185425
30
0
11
-39.931039400398731
21
15.901916027069094
31
0
0
SPLINE
5
197
100
AcDbEntity
8
0
100
AcDbSpline
70
0
71
3
72
9
73
5
74
0
42
0.000000001
43
0.0000000001
44
0.0000000001
40
0
40
0
40
0
40
0
40
0.040698514209014845
40
0.082119712441834192
40
0.082119712441834192
40
0.082119712441834192
40
0.082119712441834192
10
-39.931039400398731
20
15.901916027069094
30
0
10
-39.84014277407362
20
16.004276692501104
30
0
10
-39.656735468897423
20
16.21081564297635
30
0
10
-39.411887998447327
20
16.338782347029056
30
0
10
-39.288386888802052
20
16.403328776359562
30
0
0
SPLINE
5
198
100
AcDbEntity
8
0
100
AcDbSpline
70
0
71
3
72
9
73
5
74
0
42
0.000000001
43
0.0000000001
44
0.0000000001
40
0
40
0
40
0
40
0
40
0.041706054174723867
40
0.082903732421792109
40
0.082903732421792109
40
0.082903732421792109
40
0.082903732421792109
10
-39.288386888802052
20
16.403328776359562
30
0
10
-39.158167694893166
20
16.454823056508399
30
0
10
-38.899316613878014
20
16.557183927302532
30
0
10
-38.621404005988353
20
16.57234730537386
30
0
10
-38.483299799263477
20
16.579882502555851
30
0
0
SPLINE
5
199
100
AcDbEntity
8
0
100
AcDbSpline
70
0
71
3
72
9
73
5
74
0
42
0.000000001
43
0.0000000001
44
0.0000000001
40
0
40
0
40
0
40
0
40
0.03861960713401813
40
0.0762184720708588
40
0.0762184720708588
40
0.0762184720708588
40
0.0762184720708588
10
-38.483299799263477
20
16.579882502555851
30
0
10
-38.354049081661813
20
16.574875247651988
30
0
10
-38.098963829875707
20
16.564993082959916
30
0
10
-37.855041142767249
20
16.489837978335672
30
0
10
-37.734713144600391
20
16.452763676643375
30
0
0
SPLINE
5
200
100
AcDbEntity
8
0
100
AcDbSpline
70
0
71
3
72
9
73
5
74
0
42
0.000000001
43
0.0000000001
44
0.0000000001
40
0
40
0
40
0
40
0
40
0.035934283707019003
40
0.070929938904708403
40
0.070929938904708403
40
0.070929938904708403
40
0.070929938904708403
10
-37.734713144600391
20
16.452763676643375
30
0
10
-37.623488645642823
20
16.406503130904522
30
0
10
-37.403944909079456
20
16.315190397089978
30
0
10
-37.218741798580091
20
16.166135486264697
30
0
10
-37.127365656197071
20
16.092594265937809
30
0
0
SPLINE
5
201
100
AcDbEntity
8
0
100
AcDbSpline
70
0
71
3
72
9
73
5
74
0
42
0.000000001
43
0.0000000001
44
0.0000000001
40
0
40
0
40
0
40
0
40
0.034795703478969493
40
0.070294041500641807
40
0.070294041500641807
40
0.070294041500641807
40
0.070294041500641807
10
-37.127365656197071
20
16.092594265937809
30
0
10
-37.046793577704179
20
16.008188453375872
30
0
10
-36.884022417385616
20
15.837672409787039
30
0
10
-36.778242914453656
20
15.626966281657824
30
0
10
-36.724824495613575
20
15.520560145378116
30
0
0
SPLINE
5
202
100
AcDbEntity
8
0
100
AcDbSpline
70
0
71
3
72
9
73
5
74
0
42
0.000000001
43
0.0000000001
44
0.0000000001
40
0
40
0
40
0
40
0
40
0.036852852019870472
40
0.076046982179615363
40
0.076046982179615363
40
0.076046982179615363
40
0.076046982179615363
10
-36.724824495613575
20
15.520560145378116
30
0
10
-36.681578806311094
20
15.404701063333754
30
0
10
-36.592340009759937
20
15.165622320043454
30
0
10
-36.581899549418495
20
14.910515356723415
30
0
10
-36.576518602669239
20
14.779034852981571
30
0
0
SPLINE
5
203
100
AcDbEntity
8
0
100
AcDbSpline
70
0
71
3
72
9
73
5
74
0
42
0.000000001
43
0.0000000001
44
0.0000000001
40
0
40
0
40
0
40
0
40
0.039194115929763573
40
0.076046880855253435
40
0.076046880855253435
40
0.076046880855253435
40
0.076046880855253435
10
-36.576518602669239
20
14.779034852981571
30
0
10
-36.581901957006465
20
14.647554716400872
30
0
10
-36.592347078580787
20
14.392448712752199
30
0
10
-36.681581143749334
20
14.153368995282211
30
0
10
-36.724824495613575
20
14.037509560585026
30
0
0
SPLINE
5
204
100
AcDbEntity
8
0
100
AcDbSpline
70
0
71
3
72
9
73
5
74
0
42
0.000000001
43
0.0000000001
44
0.0000000001
40
0
40
0
40
0
40
0
40
0.03534466304206059
40
0.069741799146069344
40
0.069741799146069344
40
0.069741799146069344
40
0.069741799146069344
10
-36.724824495613575
20
14.037509560585026
30
0
10
-36.77808302699021
20
13.931532549107564
30
0
10
-36.883172324168221
20
13.722419579498366
30
0
10
-37.046708491253746
20
13.555073991823166
30
0
10
-37.127365656197071
20
13.472537994384769
30
0
0
SPLINE
5
205
100
AcDbEntity
8
0
100
AcDbSpline
70
0
71
3
72
9
73
5
74
0
42
0.000000001
43
0.0000000001
44
0.0000000001
40
0
40
0
40
0
40
0
40
0.035310912132391965
40
0.071321015734013768
40
0.071321015734013768
40
0.071321015734013768
40
0.071321015734013768
10
-37.127365656197071
20
13.472537994384769
30
0
10
-37.218552400194582
20
13.397005532349686
30
0
10
-37.40273147716082
20
13.244444989788931
30
0
10
-37.62333170823473
20
13.151987815669617
30
0
10
-37.734713144600391
20
13.105306029319767
30
0
0
SPLINE
5
206
100
AcDbEntity
8
0
100
AcDbSpline
70
0
71
3
72
9
73
5
74
0
42
0.000000001
43
0.0000000001
44
0.0000000001
40
0
40
0
40
0
40
0
40
0.037598849823033458
40
0.076218456957051595
40
0.076218456957051595
40
0.076218456957051595
40
0.076218456957051595
10
-37.734713144600391
20
13.105306029319767
30
0
10
-37.855041155335684
20
13.068231975370814
30
0
10
-38.098963917604259
20
12.993077357651615
30
0
10
-38.354049094153943
20
12.983195101627913
30
0
10
-38.483299799263477
20
12.978187799453737
30
0
0
SPLINE
5
207
100
AcDbEntity
8
0
100
AcDbSpline
70
0
71
3
72
9
73
5
74
0
42
0.000000001
43
0.0000000001
44
0.0000000001
40
0
40
0
40
0
40
0
40
0.03510180072901127
40
0.067942787023069967
40
0.067942787023069967
40
0.067942787023069967
40
0.067942787023069967
10
-38.483299799263477
20
12.978187799453737
30
0
10
-38.601002817850265
20
12.982742935069016
30
0
10
-38.828827913934425
20
12.991559822024733
30
0
10
-39.043418122984846
20
13.068241157546975
30
0
10
-39.147142954170704
20
13.105306029319765
30
0
0
SPLINE
5
208
100
AcDbEntity
8
0
100
AcDbSpline
70
0
71
3
72
9
73
5
74
0
42
0.000000001
43
0.0000000001
44
0.0000000001
40
0
40
0
40
0
40
0
40
0.03193033046572831
40
0.063165959460828675
40
0.063165959460828675
40
0.063165959460828675
40
0.063165959460828675
10
-39.147142954170704
20
13.105306029319765
30
0
10
-39.243862501375645
20
13.151938226665042
30
0
10
-39.435197288980618
20
13.244188054465686
30
0
10
-39.582685294318196
20
13.396981490293783
30
0
10
-39.655618257820606
20
13.472537994384767
30
0
0
SPLINE
5
209
100
AcDbEntity
8
0
100
AcDbSpline
70
0
71
3
72
9
73
5
74
0
42
0.000000001
43
0.0000000001
44
0.0000000001
40
0
40
0
40
0
40
0
40
0.031854078789925709
40
0.065519722169655514
40
0.065519722169655514
40
0.065519722169655514
40
0.065519722169655514
10
-39.655618257820606
20
13.472537994384767
30
0
10
-39.722606879446786
20
13.555794427886017
30
0
10
-39.860393814250983
20
13.727042148713636
30
0
10
-39.939715617017143
20
13.932130252748671
30
0
10
-39.980473108589649
20
14.037509560585024
30
0
0
SPLINE
5
210
100
AcDbEntity
8
0
100
AcDbSpline
70
0
71
3
72
9
73
5
74
0
42
0.000000001
43
0.0000000001
44
0.0000000001
40
0
40
0
40
0
40
0
40
0.036141807502243849
40
0.075262318222634947
40
0.075262318222634947
40
0.075262318222634947
40
0.075262318222634947
10
-39.980473108589649
20
14.037509560585024
30
0
10
-40.013416697632678
20
14.153892365532643
30
0
10
-40.082018991023716
20
14.396249909522847
30
0
10
-40.089553076602357
20
14.648117104027833
30
0
10
-40.093469209969044
20
14.779034852981569
30
0
0
LINE
5
211
100
AcDbEntity
8
0
100
AcDbLine
10
-40.093469209969044
20
14.779034852981569
30
0
11
-40.093469209969044
21
15.110955834388735
31
0
0
LINE
5
212
100
AcDbEntity
8
0
100
AcDbLine
10
-40.093469209969044
20
15.110955834388735
30
0
11
-37.635840959846973
21
15.110955834388735
31
0
0
SPLINE
5
213
100
AcDbEntity
8
0
100
AcDbSpline
70
0
71
3
72
9
73
5
74
0
42
0.000000001
43
0.0000000001
44
0.0000000001
40
0
40
0
40
0
40
0
40
0.029157714069811904
40
0.056759909340598477
40
0.056759909340598477
40
0.056759909340598477
40
0.056759909340598477
10
-37.635840959846973
20
15.110955834388736
30
0
10
-37.662195558951204
20
15.206284139821049
30
0
10
-37.713498780194229
20
15.391855133520206
30
0
10
-37.84655969593085
20
15.530716265951693
30
0
10
-37.91126687079668
20
15.598244071006778
30
0
0
SPLINE
5
214
100
AcDbEntity
8
0
100
AcDbSpline
70
0
71
3
72
9
73
5
74
0
42
0.000000001
43
0.0000000001
44
0.0000000001
40
0
40
0
40
0
40
0
40
0.027111844406673087
40
0.056052061916599824
40
0.056052061916599824
40
0.056052061916599824
40
0.056052061916599824
10
-37.91126687079668
20
15.598244071006778
30
0
10
-37.987599388330779
20
15.649723747719477
30
0
10
-38.145412148499098
20
15.756154796203832
30
0
10
-38.335646348102983
20
15.768449779387847
30
0
10
-38.433866091072559
20
15.774797797203068
30
0
0
SPLINE
5
215
100
AcDbEntity
8
0
100
AcDbSpline
70
0
71
3
72
9
73
5
74
0
42
0.000000001
43
0.0000000001
44
0.0000000001
40
0
40
0
40
0
40
0
40
0.024176731508457262
40
0.045690172586578863
40
0.045690172586578863
40
0.045690172586578863
40
0.045690172586578863
10
-38.433866091072559
20
15.774797797203068
30
0
10
-38.515481142042077
20
15.771289445098118
30
0
10
-38.669720591785548
20
15.764659218298704
30
0
10
-38.807053277108245
20
15.694729998766492
30
0
10
-38.871717043220997
20
15.661803483963014
30
0
0
LINE
5
216
100
AcDbEntity
8
0
100
AcDbLine
10
-28.327931948006153
20
16.4951366186142
30
0
11
-27.268609590828419
21
16.4951366186142
31
0
0
LINE
5
217
100
AcDbEntity
8
0
100
AcDbLine
10
-27.268609590828419
20
16.4951366186142
30
0
11
-27.268609590828419
21
13.062933087348942
31
0
0
LINE
5
218
100
AcDbEntity
8
0
100
AcDbLine
10
-27.268609590828419
20
13.062933087348942
30
0
11
-28.327931948006153
21
13.062933087348942
31
0
0
LINE
5
219
100
AcDbEntity
8
0
100
AcDbLine
10
-28.327931948006153
20
13.062933087348942
30
0
11
-28.327931948006153
21
13.613780736923221
31
0
0
LINE
5
220
100
AcDbEntity
8
0
100
AcDbLine
10
-28.327931948006153
20
13.613780736923221
30
0
11
-28.34205586463213
21
13.613780736923221
31
0
0
SPLINE
5
221
100
AcDbEntity
8
0
100
AcDbSpline
70
0
71
3
72
9
73
5
74
0
42
0.000000001
43
0.0000000001
44
0.0000000001
40
0
40
0
40
0
40
0
40
0.033346719849392574
40
0.062598266325908536
40
0.062598266325908536
40
0.062598266325908536
40
0.062598266325908536
10
-28.34205586463213
20
13.613780736923221
30
0
10
-28.398329241961061
20
13.516609766803702
30
0
10
-28.503965294832359
20
13.3342009933423
30
0
10
-28.667964305078524
20
13.202267584867755
30
0
10
-28.744599409401417
20
13.140616416931156
30
0
0
SPLINE
5
222
100
AcDbEntity
8
0
100
AcDbSpline
70
0
71
3
72
9
73
5
74
0
42
0.000000001
43
0.0000000001
44
0.0000000001
40
0
40
0
40
0
40
0
40
0.028990281639079452
40
0.061553759867376004
40
0.061553759867376004
40
0.061553759867376004
40
0.061553759867376004
10
-28.744599409401417
20
13.140616416931156
30
0
10
-28.830358757461831
20
13.093284657233372
30
0
10
-29.012447720329206
20
12.992787262733749
30
0
10
-29.220625954730977
20
12.983239045264629
30
0
10
-29.330757446587086
20
12.978187799453739
30
0
0
SPLINE
5
223
100
AcDbEntity
8
0
100
AcDbSpline
70
0
71
3
72
9
73
5
74
0
42
0.000000001
43
0.0000000001
44
0.0000000001
40
0
40
0
40
0
40
0
40
0.0091824816106015252
40
0.018378650034942611
40
0.018378650034942611
40
0.018378650034942611
40
0.018378650034942611
10
-29.330757446587086
20
12.978187799453739
30
0
10
-29.361371339670519
20
12.978482923260026
30
0
10
-29.422644756928207
20
12.979073610765074
30
0
10
-29.483782624387189
20
12.983190020252062
30
0
10
-29.514374323189259
20
12.985249757766727
30
0
0
SPLINE
5
224
100
AcDbEntity
8
0
100
AcDbSpline
70
0
71
3
72
9
73
5
74
0
42
0.000000001
43
0.0000000001
44
0.0000000001
40
0
40
0
40
0
40
0
40
0.0088910150616681085
40
0.017202198582071809
40
0.017202198582071809
40
0.017202198582071809
40
0.017202198582071809
10
-29.514374323189259
20
12.985249757766727
30
0
10
-29.543920197289815
20
12.988066247927872
30
0
10
-29.60108509803888
20
12.993515549579085
30
0
10
-29.656899535939232
20
13.006988686807532
30
0
10
-29.683866091072559
20
13.013498187065128
30
0
0
LINE
5
225
100
AcDbEntity
8
0
100
AcDbLine
10
-29.683866091072556
20
13.013498187065128
30
0
11
-29.683866091072559
21
13.981012105941776
31
0
0
SPLINE
5
226
100
AcDbEntity
8
0
100
AcDbSpline
70
0
71
3
72
9
73
5
74
0
42
0.000000001
43
0.0000000001
44
0.0000000001
40
0
40
0
40
0
40
0
40
0.011691430303122202
40
0.023156722905476438
40
0.023156722905476438
40
0.023156722905476438
40
0.023156722905476438
10
-29.683866091072559
20
13.981012105941776
30
0
10
-29.646388262509493
20
13.97014833387491
30
0
10
-29.572157508133586
20
13.948630918730798
30
0
10
-29.495719609357771
20
13.937224647248776
30
0
10
-29.45787388831377
20
13.931577205657963
30
0
0
SPLINE
5
227
100
AcDbEntity
8
0
100
AcDbSpline
70
0
71
3
72
9
73
5
74
0
42
0.000000001
43
0.0000000001
44
0.0000000001
40
0
40
0
40
0
40
0
40
0.011061005013156433
40
0.022725505619929341
40
0.022725505619929341
40
0.022725505619929341
40
0.022725505619929341
10
-29.45787388831377
20
13.931577205657963
30
0
10
-29.421470124692711
20
13.925398957940885
30
0
10
-29.346676384542256
20
13.91270537331193
30
0
10
-29.270821230689663
20
13.911175820422041
30
0
10
-29.231886453926563
20
13.91039073467255
30
0
0
SPLINE
5
228
100
AcDbEntity
8
0
100
AcDbSpline
70
0
71
3
72
9
73
5
74
0
42
0.000000001
43
0.0000000001
44
0.0000000001
40
0
40
0
40
0
40
0
40
0.027271674682217428
40
0.049052915605735881
40
0.049052915605735881
40
0.049052915605735881
40
0.049052915605735881
10
-29.231886453926563
20
13.91039073467255
30
0
10
-29.140232141147571
20
13.912042017342321
30
0
10
-28.975375698628444
20
13.915012140387027
30
0
10
-28.820452696339458
20
13.970498638158874
30
0
10
-28.751661367714405
20
13.9951366186142
30
0
0
SPLINE
5
229
100
AcDbEntity
8
0
100
AcDbSpline
70
0
71
3
72
9
73
5
74
0
42
0.000000001
43
0.0000000001
44
0.0000000001
40
0
40
0
40
0
40
0
40
0.018755513472537365
40
0.036909681007275041
40
0.036909681007275041
40
0.036909681007275041
40
0.036909681007275041
10
-28.751661367714405
20
13.9951366186142
30
0
10
-28.6963258690865
20
14.025893609153137
30
0
10
-28.58742905825137
20
14.086421448670736
30
0
10
-28.512896012163552
20
14.186182100333031
30
0
10
-28.476236648857594
20
14.235249757766727
30
0
0
SPLINE
5
230
100
AcDbEntity
8
0
100
AcDbSpline
70
0
71
3
72
9
73
5
74
0
42
0.000000001
43
0.0000000001
44
0.0000000001
40
0
40
0
40
0
40
0
40
0.018089640532396326
40
0.038177990869612023
40
0.038177990869612023
40
0.038177990869612023
40
0.038177990869612023
10
-28.476236648857594
20
14.235249757766727
30
0
10
-28.448073924573627
20
14.289011462503915
30
0
10
-28.388636799294595
20
14.402474959410632
30
0
10
-28.367370692638918
20
14.528898244266511
30
0
10
-28.356180973351002
20
14.595419168472294
30
0
0
SPLINE
5
231
100
AcDbEntity
8
0
100
AcDbSpline
70
0
71
3
72
9
73
5
74
0
42
0.000000001
43
0.0000000001
44
0.0000000001
40
0
40
0
40
0
40
0
40
0.022346490071754821
40
0.04672107462118405
40
0.04672107462118405
40
0.04672107462118405
40
0.04672107462118405
10
-28.356180973351002
20
14.595419168472294
30
0
10
-28.34794578068194
20
14.669499147717548
30
0
10
-28.330727996145058
20
14.824382363253401
30
0
10
-28.328890551000498
20
14.98021985028938
30
0
10
-28.327931948006153
20
15.061520934104923
30
0
0
LINE
5
232
100
AcDbEntity
8
0
100
AcDbLine
10
-28.327931948006157
20
15.061520934104923
30
0
11
-28.327931948006153
21
16.4951366186142
31
0
0
SPLINE
5
233
100
AcDbEntity
8
0
100
AcDbSpline
70
0
71
3
72
9
73
5
74
0
42
0.000000001
43
0.0000000001
44
0.0000000001
40
0
40
0
40
0
40
0
40
0.021865598001052804
40
0.044137967626809715
40
0.044137967626809715
40
0.044137967626809715
40
0.044137967626809715
10
-25.404202528297901
20
15.661803483963016
30
0
10
-25.463550105979522
20
15.618859066295293
30
0
10
-25.583349320357954
20
15.532171324360275
30
0
10
-25.675499355935418
20
15.416499735749403
30
0
10
-25.721998997032642
20
15.358130931854252
30
0
0
LINE
5
234
100
AcDbEntity
8
0
100
AcDbLine
10
-25.721998997032642
20
15.358130931854252
30
0
11
-26.463524885475636
21
15.901916027069095
31
0
0
SPLINE
5
235
100
AcDbEntity
8
0
100
AcDbSpline
70
0
71
3
72
9
73
5
74
0
42
0.000000001
43
0.0000000001
44
0.0000000001
40
0
40
0
40
0
40
0
40
0.040698682796059711
40
0.082119983160226978
40
0.082119983160226978
40
0.082119983160226978
40
0.082119983160226978
10
-26.463524885475636
20
15.901916027069095
30
0
10
-26.372627416780734
20
16.004276668871707
30
0
10
-26.189218567016795
20
16.210815396997678
30
0
10
-25.944370237789379
20
16.338782300208578
30
0
10
-25.820868797600269
20
16.403328776359562
30
0
0
SPLINE
5
236
100
AcDbEntity
8
0
100
AcDbSpline
70
0
71
3
72
9
73
5
74
0
42
0.000000001
43
0.0000000001
44
0.0000000001
40
0
40
0
40
0
40
0
40
0.041705941133409551
40
0.082903500857341828
40
0.082903500857341828
40
0.082903500857341828
40
0.082903500857341828
10
-25.820868797600269
20
16.403328776359562
30
0
10
-25.690650005744324
20
16.45482305649324
30
0
10
-25.431799745352439
20
16.557183918787523
30
0
10
-25.153887905660568
20
16.572347302968804
30
0
10
-25.015784092247486
20
16.579882502555851
30
0
0
SPLINE
5
237
100
AcDbEntity
8
0
100
AcDbSpline
70
0
71
3
72
9
73
5
74
0
42
0.000000001
43
0.0000000001
44
0.0000000001
40
0
40
0
40
0
40
0
40
0.038619725939003653
40
0.07621859087584433
40
0.07621859087584433
40
0.07621859087584433
40
0.07621859087584433
10
-25.015784092247486
20
16.579882502555851
30
0
10
-24.886532972211342
20
16.574875281569664
30
0
10
-24.631447313296025
20
16.564993198812946
30
0
10
-24.387524244423595
20
16.489837977908063
30
0
10
-24.267196245491505
20
16.452763676643375
30
0
0
SPLINE
5
238
100
AcDbEntity
8
0
100
AcDbSpline
70
0
71
3
72
9
73
5
74
0
42
0.000000001
43
0.0000000001
44
0.0000000001
40
0
40
0
40
0
40
0
40
0.035934068167681965
40
0.070929627138701934
40
0.070929627138701934
40
0.070929627138701934
40
0.070929627138701934
10
-24.267196245491505
20
16.452763676643375
30
0
10
-24.155972564365928
20
16.406503064807922
30
0
10
-23.93643009023198
20
16.315190054174508
30
0
10
-23.75122808219416
20
16.166135454016242
30
0
10
-23.659852333366871
20
16.092594265937809
30
0
0
SPLINE
5
239
100
AcDbEntity
8
0
100
AcDbSpline
70
0
71
3
72
9
73
5
74
0
42
0.000000001
43
0.0000000001
44
0.0000000001
40
0
40
0
40
0
40
0
40
0.034795937561697597
40
0.070294158189615041
40
0.070294158189615041
40
0.070294158189615041
40
0.070294158189615041
10
-23.659852333366871
20
16.092594265937809
30
0
10
-23.579278693176548
20
16.00818872072562
30
0
10
-23.416505202753733
20
15.837674081288009
30
0
10
-23.310727317353823
20
15.626966491344989
30
0
10
-23.257309980690479
20
15.520560145378116
30
0
0
SPLINE
5
240
100
AcDbEntity
8
0
100
AcDbSpline
70
0
71
3
72
9
73
5
74
0
42
0.000000001
43
0.0000000001
44
0.0000000001
40
0
40
0
40
0
40
0
40
0.036852744079753114
40
0.076046896792449858
40
0.076046896792449858
40
0.076046896792449858
40
0.076046896792449858
10
-23.257309980690479
20
15.520560145378116
30
0
10
-23.214065954664001
20
15.404700957227359
30
0
10
-23.1248304291626
20
15.1656215631749
30
0
10
-23.114387505373713
20
14.91051524665275
30
0
10
-23.109005279839039
20
14.779034852981571
30
0
0
SPLINE
5
241
100
AcDbEntity
8
0
100
AcDbSpline
70
0
71
3
72
9
73
5
74
0
42
0.000000001
43
0.0000000001
44
0.0000000001
40
0
40
0
40
0
40
0
40
0.039194082098667572
40
0.076046918983073253
40
0.076046918983073253
40
0.076046918983073253
40
0.076046918983073253
10
-23.109005279839039
20
14.779034852981571
30
0
10
-23.114386955206427
20
14.647554627958659
30
0
10
-23.124828833386573
20
14.392448104605901
30
0
10
-23.214065368916646
20
14.15336891002546
30
0
10
-23.257309980690479
20
14.037509560585026
30
0
0
SPLINE
5
242
100
AcDbEntity
8
0
100
AcDbSpline
70
0
71
3
72
9
73
5
74
0
42
0.000000001
43
0.0000000001
44
0.0000000001
40
0
40
0
40
0
40
0
40
0.035344721993798379
40
0.069741858097807141
40
0.069741858097807141
40
0.069741858097807141
40
0.069741858097807141
10
-23.257309980690479
20
14.037509560585026
30
0
10
-23.31056897303587
20
13.931532583480974
30
0
10
-23.415659093343972
20
13.722419853718321
30
0
10
-23.579195244472114
20
13.555074035675529
30
0
10
-23.659852333366871
20
13.472537994384769
30
0
0
SPLINE
5
243
100
AcDbEntity
8
0
100
AcDbSpline
70
0
71
3
72
9
73
5
74
0
42
0.000000001
43
0.0000000001
44
0.0000000001
40
0
40
0
40
0
40
0
40
0.035310721397432097
40
0.071320717456260896
40
0.071320717456260896
40
0.071320717456260896
40
0.071320717456260896
10
-23.659852333366871
20
13.472537994384769
30
0
10
-23.751038249470842
20
13.397005507976459
30
0
10
-23.935215878844176
20
13.244444730153102
30
0
10
-24.155815157049396
20
13.151987765651789
30
0
10
-24.267196245491505
20
13.105306029319767
30
0
0
SPLINE
5
244
100
AcDbEntity
8
0
100
AcDbSpline
70
0
71
3
72
9
73
5
74
0
42
0.000000001
43
0.0000000001
44
0.0000000001
40
0
40
0
40
0
40
0
40
0.037598849823033458
40
0.076218575762037111
40
0.076218575762037111
40
0.076218575762037111
40
0.076218575762037111
10
-24.267196245491505
20
13.105306029319767
30
0
10
-24.387524256992016
20
13.068231975798357
30
0
10
-24.631447401024708
20
12.993077241799117
30
0
10
-24.886532984703528
20
12.98319506771046
30
0
10
-25.015784092247486
20
12.978187799453739
30
0
0
SPLINE
5
245
100
AcDbEntity
8
0
100
AcDbSpline
70
0
71
3
72
9
73
5
74
0
42
0.000000001
43
0.0000000001
44
0.0000000001
40
0
40
0
40
0
40
0
40
0.03510180072901127
40
0.067942672947623128
40
0.067942672947623128
40
0.067942672947623128
40
0.067942672947623128
10
-25.015784092247486
20
12.978187799453739
30
0
10
-25.133487122057645
20
12.982742894452572
30
0
10
-25.361311857348955
20
12.991559687988044
30
0
10
-25.575901623903782
20
13.068241158711693
30
0
10
-25.679626055061817
20
13.105306029319767
30
0
0
SPLINE
5
246
100
AcDbEntity
8
0
100
AcDbSpline
70
0
71
3
72
9
73
5
74
0
42
0.000000001
43
0.0000000001
44
0.0000000001
40
0
40
0
40
0
40
0
40
0.03193033046572831
40
0.063165959460828675
40
0.063165959460828675
40
0.063165959460828675
40
0.063165959460828675
10
-25.679626055061817
20
13.105306029319767
30
0
10
-25.776345602266758
20
13.151938226665045
30
0
10
-25.967680389871735
20
13.244188054465692
30
0
10
-26.115168395209306
20
13.396981490293784
30
0
10
-26.18810135871172
20
13.472537994384769
30
0
0
SPLINE
5
247
100
AcDbEntity
8
0
100
AcDbSpline
70
0
71
3
72
9
73
5
74
0
42
0.000000001
43
0.0000000001
44
0.0000000001
40
0
40
0
40
0
40
0
40
0.031854078789925709
40
0.06551986845771951
40
0.06551986845771951
40
0.06551986845771951
40
0.06551986845771951
10
-26.18810135871172
20
13.472537994384769
30
0
10
-26.255089741742495
20
13.555794536183683
30
0
10
-26.392876493427174
20
13.72704286211658
30
0
10
-26.472200880301983
20
13.932130347833658
30
0
10
-26.512959785759449
20
14.037509560585026
30
0
0
SPLINE
5
248
100
AcDbEntity
8
0
100
AcDbSpline
70
0
71
3
72
9
73
5
74
0
42
0.000000001
43
0.0000000001
44
0.0000000001
40
0
40
0
40
0
40
0
40
0.036141723644406432
40
0.07526224297274961
40
0.07526224297274961
40
0.07526224297274961
40
0.07526224297274961
10
-26.512959785759449
20
14.037509560585026
30
0
10
-26.545901807444956
20
14.153892439786532
30
0
10
-26.614500927522947
20
14.396250458416539
30
0
10
-26.622036560491974
20
14.648117186674902
30
0
10
-26.625953502953053
20
14.779034852981571
30
0
0
LINE
5
249
100
AcDbEntity
8
0
100
AcDbLine
10
-26.625953502953053
20
14.779034852981571
30
0
11
-26.625953502953053
21
15.110955834388736
31
0
0
LINE
5
250
100
AcDbEntity
8
0
100
AcDbLine
10
-26.625953502953053
20
15.110955834388736
30
0
11
-24.168326444923878
21
15.110955834388736
31
0
0
SPLINE
5
251
100
AcDbEntity
8
0
100
AcDbSpline
70
0
71
3
72
9
73
5
74
0
42
0.000000001
43
0.0000000001
44
0.0000000001
40
0
40
0
40
0
40
0
40
0.029157590635238435
40
0.056759861393796032
40
0.056759861393796032
40
0.056759861393796032
40
0.056759861393796032
10
-24.168326444923878
20
15.110955834388736
30
0
10
-24.194679572454429
20
15.206284260530275
30
0
10
-24.245980102893981
20
15.391856118039762
30
0
10
-24.379042059179461
20
15.530716425441682
30
0
10
-24.443749971687794
20
15.598244071006778
30
0
0
SPLINE
5
252
100
AcDbEntity
8
0
100
AcDbSpline
70
0
71
3
72
9
73
5
74
0
42
0.000000001
43
0.0000000001
44
0.0000000001
40
0
40
0
40
0
40
0
40
0.027111844406673087
40
0.056052061916599824
40
0.056052061916599824
40
0.056052061916599824
40
0.056052061916599824
10
-24.443749971687794
20
15.598244071006778
30
0
10
-24.520082489221888
20
15.649723747719481
30
0
10
-24.677895249390211
20
15.756154796203834
30
0
10
-24.868129448994093
20
15.768449779387851
30
0
10
-24.966349191963673
20
15.774797797203068
30
0
0
SPLINE
5
253
100
AcDbEntity
8
0
100
AcDbSpline
70
0
71
3
72
9
73
5
74
0
42
0.000000001
43
0.0000000001
44
0.0000000001
40
0
40
0
40
0
40
0
40
0.024176968294025214
40
0.045690409372146815
40
0.045690409372146815
40
0.045690409372146815
40
0.045690409372146815
10
-24.966349191963673
20
15.774797797203068
30
0
10
-25.047965063263202
20
15.771289554602067
30
0
10
-25.202205352020233
20
15.764659565321889
30
0
10
-25.33953875798295
20
15.694729993843254
30
0
10
-25.404202528297901
20
15.661803483963016
30
0
0
SPLINE
5
254
100
AcDbEntity
8
0
100
AcDbSpline
70
0
71
3
72
9
73
5
74
0
42
0.000000001
43
0.0000000001
44
0.0000000001
40
0
40
0
40
0
40
0
40
0.021865551317119761
40
0.044137960159304268
40
0.044137960159304268
40
0.044137960159304268
40
0.044137960159304268
10
-17.423976846039299
20
15.66180348396302
30
0
10
-17.483324169340527
20
15.618859008669171
30
0
10
-17.603123105733225
20
15.532170979993758
30
0
10
-17.695273435489494
20
15.416499695126593
30
0
10
-17.74177331477404
20
15.358130931854255
30
0
0
LINE
5
255
100
AcDbEntity
8
0
100
AcDbLine
10
-17.74177331477404
20
15.358130931854252
30
0
11
-18.483298607170585
21
15.901916027069099
31
0
0
SPLINE
5
256
100
AcDbEntity
8
0
100
AcDbSpline
70
0
71
3
72
9
73
5
74
0
42
0.000000001
43
0.0000000001
44
0.0000000001
40
0
40
0
40
0
40
0
40
0.040698598502449987
40
0.082119898866617261
40
0.082119898866617261
40
0.082119898866617261
40
0.082119898866617261
10
-18.483298607170585
20
15.901916027069099
30
0
10
-18.392401569399915
20
16.004276698060995
30
0
10
-18.208993397529991
20
16.210815700854116
30
0
10
-17.964145207923107
20
16.338782358045748
30
0
10
-17.840643711388115
20
16.403328776359565
30
0
0
SPLINE
5
257
100
AcDbEntity
8
0
100
AcDbSpline
70
0
71
3
72
9
73
5
74
0
42
0.000000001
43
0.0000000001
44
0.0000000001
40
0
40
0
40
0
40
0
40
0.041705941133409551
40
0.082903500857341828
40
0.082903500857341828
40
0.082903500857341828
40
0.082903500857341828
10
-17.840643711388115
20
16.403328776359565
30
0
10
-17.710424919532166
20
16.454823056493243
30
0
10
-17.451574659140277
20
16.557183918787526
30
0
10
-17.173662819448413
20
16.572347302968808
30
0
10
-17.035559006035331
20
16.579882502555854
30
0
0
SPLINE
5
258
100
AcDbEntity
8
0
100
AcDbSpline
70
0
71
3
72
9
73
5
74
0
42
0.000000001
43
0.0000000001
44
0.0000000001
40
0
40
0
40
0
40
0
40
0.038619666536510583
40
0.076218589129968609
40
0.076218589129968609
40
0.076218589129968609
40
0.076218589129968609
10
-17.035559006035331
20
16.579882502555854
30
0
10
-16.906308091263366
20
16.574875247703552
30
0
10
-16.651222450936466
20
16.564993083136034
30
0
10
-16.407299357569805
20
16.489837978335025
30
0
10
-16.28697115927935
20
16.452763676643379
30
0
0
SPLINE
5
259
100
AcDbEntity
8
0
100
AcDbSpline
70
0
71
3
72
9
73
5
74
0
42
0.000000001
43
0.0000000001
44
0.0000000001
40
0
40
0
40
0
40
0
40
0.035934229822157646
40
0.07092969256664966
40
0.07092969256664966
40
0.07092969256664966
40
0.07092969256664966
10
-16.28697115927935
20
16.452763676643379
30
0
10
-16.175746794785621
20
16.406503212288804
30
0
10
-15.956203756893759
20
16.315190819316982
30
0
10
-15.771001960146663
20
16.166135525971384
30
0
10
-15.679626651108267
20
16.092594265937812
30
0
0
SPLINE
5
260
100
AcDbEntity
8
0
100
AcDbSpline
70
0
71
3
72
9
73
5
74
0
42
0.000000001
43
0.0000000001
44
0.0000000001
40
0
40
0
40
0
40
0
40
0.034795898547763687
40
0.070294177872406938
40
0.070294177872406938
40
0.070294177872406938
40
0.070294177872406938
10
-15.679626651108267
20
16.092594265937812
30
0
10
-15.599053322479683
20
16.008188646796672
30
0
10
-15.436280233386587
20
15.837673619078858
30
0
10
-15.330501527008476
20
15.62696643336205
30
0
10
-15.277083702385427
20
15.520560145378122
30
0
0
SPLINE
5
261
100
AcDbEntity
8
0
100
AcDbSpline
70
0
71
3
72
9
73
5
74
0
42
0.000000001
43
0.0000000001
44
0.0000000001
40
0
40
0
40
0
40
0
40
0.036852744079753114
40
0.076046896792449858
40
0.076046896792449858
40
0.076046896792449858
40
0.076046896792449858
10
-15.277083702385427
20
15.520560145378122
30
0
10
-15.233839676358951
20
15.404700957227364
30
0
10
-15.144604150857548
20
15.165621563174906
30
0
10
-15.13416122706866
20
14.910515246652754
30
0
10
-15.128779001533987
20
14.779034852981576
30
0
0
SPLINE
5
262
100
AcDbEntity
8
0
100
AcDbSpline
70
0
71
3
72
9
73
5
74
0
42
0.000000001
43
0.0000000001
44
0.0000000001
40
0
40
0
40
0
40
0
40
0.039194093375340237
40
0.07604689428011277
40
0.07604689428011277
40
0.07604689428011277
40
0.07604689428011277
10
-15.128779001533987
20
14.779034852981576
30
0
10
-15.134161268452333
20
14.647554667660931
30
0
10
-15.144604288001407
20
14.392448377607048
30
0
10
-15.23383967524895
20
14.153368948297878
30
0
10
-15.277083702385427
20
14.037509560585031
30
0
0
SPLINE
5
263
100
AcDbEntity
8
0
100
AcDbSpline
70
0
71
3
72
9
73
5
74
0
42
0.000000001
43
0.0000000001
44
0.0000000001
40
0
40
0
40
0
40
0
40
0.035344751469781173
40
0.069741887573789935
40
0.069741887573789935
40
0.069741887573789935
40
0.069741887573789935
10
-15.277083702385427
20
14.037509560585031
30
0
10
-15.33034292521517
20
13.931532600667776
30
0
10
-15.43543345708763
20
13.722419990828648
30
0
10
-15.598969600237613
20
13.555074057601715
30
0
10
-15.679626651108267
20
13.472537994384775
30
0
0
SPLINE
5
264
100
AcDbEntity
8
0
100
AcDbSpline
70
0
71
3
72
9
73
5
74
0
42
0.000000001
43
0.0000000001
44
0.0000000001
40
0
40
0
40
0
40
0
40
0.035310721397432097
40
0.071320771227648211
40
0.071320771227648211
40
0.071320771227648211
40
0.071320771227648211
10
-15.679626651108267
20
13.472537994384775
30
0
10
-15.770812560477987
20
13.397005492907015
30
0
10
-15.954990315107942
20
13.244444569624976
30
0
10
-16.175589855908488
20
13.151987734726578
30
0
10
-16.28697115927935
20
13.105306029319772
30
0
0
SPLINE
5
265
100
AcDbEntity
8
0
100
AcDbSpline
70
0
71
3
72
9
73
5
74
0
42
0.000000001
43
0.0000000001
44
0.0000000001
40
0
40
0
40
0
40
0
40
0.037598849823033458
40
0.076218575762037111
40
0.076218575762037111
40
0.076218575762037111
40
0.076218575762037111
10
-16.28697115927935
20
13.105306029319772
30
0
10
-16.407299170779861
20
13.068231975798358
30
0
10
-16.65122231481255
20
12.993077241799117
30
0
10
-16.90630789849137
20
12.983195067710462
30
0
10
-17.035559006035331
20
12.978187799453744
30
0
0
SPLINE
5
266
100
AcDbEntity
8
0
100
AcDbSpline
70
0
71
3
72
9
73
5
74
0
42
0.000000001
43
0.0000000001
44
0.0000000001
40
0
40
0
40
0
40
0
40
0.035101741369146726
40
0.067942613587758577
40
0.067942613587758577
40
0.067942613587758577
40
0.067942613587758577
10
-17.035559006035331
20
12.978187799453744
30
0
10
-17.153261833788825
20
12.98274291422635
30
0
10
-17.381086364205753
20
12.991559753242639
30
0
10
-17.595675942177472
20
13.068241158144655
30
0
10
-17.699400372803215
20
13.10530602931977
30
0
0
SPLINE
5
267
100
AcDbEntity
8
0
100
AcDbSpline
70
0
71
3
72
9
73
5
74
0
42
0.000000001
43
0.0000000001
44
0.0000000001
40
0
40
0
40
0
40
0
40
0.031930382538438482
40
0.063165923938124813
40
0.063165923938124813
40
0.063165923938124813
40
0.063165923938124813
10
-17.699400372803215
20
13.10530602931977
30
0
10
-17.796120192095138
20
13.151938134428093
30
0
10
-17.987455098319586
20
13.244187577440593
30
0
10
-18.134942552811236
20
13.396981445801849
30
0
10
-18.207875080406669
20
13.472537994384773
30
0
0
SPLINE
5
268
100
AcDbEntity
8
0
100
AcDbSpline
70
0
71
3
72
9
73
5
74
0
42
0.000000001
43
0.0000000001
44
0.0000000001
40
0
40
0
40
0
40
0
40
0.031854078789925709
40
0.065519892839371069
40
0.065519892839371069
40
0.065519892839371069
40
0.065519892839371069
10
-18.207875080406669
20
13.472537994384773
30
0
10
-18.274863423671913
20
13.555794554233389
30
0
10
-18.412650144837869
20
13.727042981018261
30
0
10
-18.491974962395965
20
13.9321303636814
30
0
10
-18.532734103500847
20
14.037509560585029
30
0
0
SPLINE
5
269
100
AcDbEntity
8
0
100
AcDbSpline
70
0
71
3
72
9
73
5
74
0
42
0.000000001
43
0.0000000001
44
0.0000000001
40
0
40
0
40
0
40
0
40
0.036141737620480431
40
0.075262256948823603
40
0.075262256948823603
40
0.075262256948823603
40
0.075262256948823603
10
-18.532734103500847
20
14.037509560585029
30
0
10
-18.565676371708886
20
14.153892428483053
30
0
10
-18.634275991361527
20
14.396250374859662
30
0
10
-18.641811526077877
20
14.648117174093699
30
0
10
-18.645728416740898
20
14.779034852981574
30
0
0
LINE
5
270
100
AcDbEntity
8
0
100
AcDbLine
10
-18.645728416740894
20
14.779034852981576
30
0
11
-18.645728416740898
21
15.11095583438874
31
0
0
LINE
5
271
100
AcDbEntity
8
0
100
AcDbLine
10
-18.645728416740898
20
15.11095583438874
30
0
11
-16.188101358711723
21
15.11095583438874
31
0
0
SPLINE
5
272
100
AcDbEntity
8
0
100
AcDbSpline
70
0
71
3
72
9
73
5
74
0
42
0.000000001
43
0.0000000001
44
0.0000000001
40
0
40
0
40
0
40
0
40
0.029157590635238435
40
0.056759861393796032
40
0.056759861393796032
40
0.056759861393796032
40
0.056759861393796032
10
-16.188101358711723
20
15.110955834388742
30
0
10
-16.214454486242271
20
15.206284260530278
30
0
10
-16.26575501668183
20
15.391856118039765
30
0
10
-16.3988169729673
20
15.530716425441684
30
0
10
-16.463524885475639
20
15.598244071006784
30
0
0
SPLINE
5
273
100
AcDbEntity
8
0
100
AcDbSpline
70
0
71
3
72
9
73
5
74
0
42
0.000000001
43
0.0000000001
44
0.0000000001
40
0
40
0
40
0
40
0
40
0.027111792394620034
40
0.056052009904546771
40
0.056052009904546771
40
0.056052009904546771
40
0.056052009904546771
10
-16.463524885475639
20
15.598244071006784
30
0
10
-16.53985720022067
20
15.649723746842879
30
0
10
-16.697669697448802
20
15.75615489893522
30
0
10
-16.887903751002259
20
15.768449810483581
30
0
10
-16.98612350970507
20
15.774797797203073
30
0
0
SPLINE
5
274
100
AcDbEntity
8
0
100
AcDbSpline
70
0
71
3
72
9
73
5
74
0
42
0.000000001
43
0.0000000001
44
0.0000000001
40
0
40
0
40
0
40
0
40
0.024176909097630216
40
0.045690404961043471
40
0.045690404961043471
40
0.045690404961043471
40
0.045690404961043471
10
-16.98612350970507
20
15.774797797203073
30
0
10
-17.067739164863376
20
15.771289498753344
30
0
10
-17.221979407910382
20
15.764659388334971
30
0
10
-17.359312875699867
20
15.694729996354223
30
0
10
-17.423976846039299
20
15.66180348396302
30
0
0
SPLINE
5
275
100
AcDbEntity
8
0
100
AcDbSpline
70
0
71
3
72
9
73
5
74
0
42
0.000000001
43
0.0000000001
44
0.0000000001
40
0
40
0
40
0
40
0
40
0.032465331142006011
40
0.068805066700598785
40
0.068805066700598785
40
0.068805066700598785
40
0.068805066700598785
10
-48.031320162117481
20
15.407565832138062
30
0
10
-48.117425752570959
20
15.477538695455127
30
0
10
-48.299912752889291
20
15.625834965919871
30
0
10
-48.53545220260861
20
15.640129331539917
30
0
10
-48.659853525459766
20
15.647678971290588
30
0
0
SPLINE
5
276
100
AcDbEntity
8
0
100
AcDbSpline
70
0
71
3
72
9
73
5
74
0
42
0.000000001
43
0.0000000001
44
0.0000000001
40
0
40
0
40
0
40
0
40
0.036339735558592774
40
0.068805066700598785
40
0.068805066700598785
40
0.068805066700598785
40
0.068805066700598785
10
-48.659853525459766
20
13.910390734672546
30
0
10
-48.535452202608617
20
13.917940374423218
30
0
10
-48.299912752889298
20
13.932234740043263
30
0
10
-48.117425752570959
20
14.080531010508011
30
0
10
-48.031320162117481
20
14.150503873825073
30
0
0
SPLINE
5
277
100
AcDbEntity
8
0
100
AcDbSpline
70
0
71
3
72
9
73
5
74
0
42
0.000000001
43
0.0000000001
44
0.0000000001
40
0
40
0
40
0
40
0
40
0.032216991723707358
40
0.067774930020081059
40
0.067774930020081059
40
0.067774930020081059
40
0.067774930020081059
10
-48.031320162117481
20
14.150503873825073
30
0
10
-47.96750914746081
20
14.239640749715168
30
0
10
-47.833269827726795
20
14.427158118731791
30
0
10
-47.819578044175145
20
14.657950328684175
30
0
10
-47.812394686043262
20
14.779034852981567
30
0
0
SPLINE
5
278
100
AcDbEntity
8
0
100
AcDbSpline
70
0
71
3
72
9
73
5
74
0
42
0.000000001
43
0.0000000001
44
0.0000000001
40
0
40
0
40
0
40
0
40
0.035557938296373708
40
0.067774930020081059
40
0.067774930020081059
40
0.067774930020081059
40
0.067774930020081059
10
-47.812394686043262
20
14.779034852981567
30
0
10
-47.819578044175145
20
14.900119377278962
30
0
10
-47.833269827726809
20
15.130911587231349
30
0
10
-47.967509147460817
20
15.318428956247967
30
0
10
-48.031320162117481
20
15.407565832138062
30
0
0
SPLINE
5
279
100
AcDbEntity
8
0
100
AcDbSpline
70
0
71
3
72
9
73
5
74
0
42
0.000000001
43
0.0000000001
44
0.0000000001
40
0
40
0
40
0
40
0
40
0.032465331142006011
40
0.068805066700598785
40
0.068805066700598785
40
0.068805066700598785
40
0.068805066700598785
10
-48.031320162117481
20
15.407565832138062
30
0
10
-48.117425752570959
20
15.477538695455127
30
0
10
-48.299912752889291
20
15.625834965919871
30
0
10
-48.53545220260861
20
15.640129331539917
30
0
10
-48.659853525459766
20
15.647678971290588
30
0
0
SPLINE
5
280
100
AcDbEntity
8
0
100
AcDbSpline
70
0
71
3
72
9
73
5
74
0
42
0.000000001
43
0.0000000001
44
0.0000000001
40
0
40
0
40
0
40
0
40
0.036165271068160788
40
0.068191157804992242
40
0.068191157804992242
40
0.068191157804992242
40
0.068191157804992242
10
-48.659853525459766
20
15.647678971290588
30
0
10
-48.783821440362033
20
15.640338917979832
30
0
10
-49.017568220025971
20
15.626498935067287
30
0
10
-49.197034201953123
20
15.477529247936342
30
0
10
-49.281320162117481
20
15.407565832138062
30
0
0
SPLINE
5
281
100
AcDbEntity
8
0
100
AcDbSpline
70
0
71
3
72
9
73
5
74
0
42
0.000000001
43
0.0000000001
44
0.0000000001
40
0
40
0
40
0
40
0
40
0.032490184696449889
40
0.068075782060460249
40
0.068075782060460249
40
0.068075782060460249
40
0.068075782060460249
10
-49.281320162117481
20
15.407565832138062
30
0
10
-49.347196153394499
20
15.318636940222905
30
0
10
-49.485224289186561
20
15.132306701676864
30
0
10
-49.499729817042123
20
14.90030846363104
30
0
10
-49.50731236487627
20
14.779034852981567
30
0
0
SPLINE
5
282
100
AcDbEntity
8
0
100
AcDbSpline
70
0
71
3
72
9
73
5
74
0
42
0.000000001
43
0.0000000001
44
0.0000000001
40
0
40
0
40
0
40
0
40
0.03558552165810519
40
0.068075955109067138
40
0.068075955109067138
40
0.068075955109067138
40
0.068075955109067138
10
-49.50731236487627
20
14.779034852981567
30
0
10
-49.499732066165556
20
14.657761002977029
30
0
10
-49.485230773204293
20
14.425761223737254
30
0
10
-49.34719847627715
20
14.239432498361209
30
0
10
-49.281320162117481
20
14.150503873825073
30
0
0
SPLINE
5
283
100
AcDbEntity
8
0
100
AcDbSpline
70
0
71
3
72
9
73
5
74
0
42
0.000000001
43
0.0000000001
44
0.0000000001
40
0
40
0
40
0
40
0
40
0.03202588673683146
40
0.068191157804992242
40
0.068191157804992242
40
0.068191157804992242
40
0.068191157804992242
10
-49.281320162117481
20
14.150503873825073
30
0
10
-49.197034201953123
20
14.080540458026793
30
0
10
-49.017568220025964
20
13.931570770895847
30
0
10
-48.783821440362026
20
13.917730787983304
30
0
10
-48.659853525459766
20
13.910390734672546
30
0
0
SPLINE
5
284
100
AcDbEntity
8
0
100
AcDbSpline
70
0
71
3
72
9
73
5
74
0
42
0.000000001
43
0.0000000001
44
0.0000000001
40
0
40
0
40
0
40
0
40
0.01228288828054998
40
0.024767172561860434
40
0.024767172561860434
40
0.024767172561860434
40
0.024767172561860434
10
-37.692341394722462
20
14.150503873825077
30
0
10
-37.677618998850704
20
14.188926669434467
30
0
10
-37.647932811795066
20
14.266402258842357
30
0
10
-37.639893368262648
20
14.34898824368984
30
0
10
-37.635840959846973
20
14.390617012977604
30
0
0
LINE
5
285
100
AcDbEntity
8
0
100
AcDbLine
10
-37.635840959846966
20
14.390617012977604
30
0
11
-39.034146852791309
21
14.390617012977602
31
0
0
SPLINE
5
286
100
AcDbEntity
8
0
100
AcDbSpline
70
0
71
3
72
9
73
5
74
0
42
0.000000001
43
0.0000000001
44
0.0000000001
40
0
40
0
40
0
40
0
40
0.025223080911638936
40
0.050247683150564895
40
0.050247683150564895
40
0.050247683150564895
40
0.050247683150564895
10
-39.034146852791309
20
14.390617012977602
30
0
10
-39.028677527474606
20
14.304526664002097
30
0
10
-39.017781914582422
20
14.133023405030805
30
0
10
-38.910848593488019
20
13.99854888036883
30
0
10
-38.85759312659502
20
13.931577205657961
30
0
0
SPLINE
5
287
100
AcDbEntity
8
0
100
AcDbSpline
70
0
71
3
72
9
73
5
74
0
42
0.000000001
43
0.0000000001
44
0.0000000001
40
0
40
0
40
0
40
0
40
0.025415160202854517
40
0.052149732918773194
40
0.052149732918773194
40
0.052149732918773194
40
0.052149732918773194
10
-38.85759312659502
20
13.931577205657961
30
0
10
-38.790807395710793
20
13.875972813458723
30
0
10
-38.653768793530077
20
13.761877361013955
30
0
10
-38.475712819434776
20
13.748009119880081
30
0
10
-38.384432382881641
20
13.740899562835697
30
0
0
SPLINE
5
288
100
AcDbEntity
8
0
100
AcDbSpline
70
0
71
3
72
9
73
5
74
0
42
0.000000001
43
0.0000000001
44
0.0000000001
40
0
40
0
40
0
40
0
40
0.01665607048966871
40
0.031740911182741985
40
0.031740911182741985
40
0.031740911182741985
40
0.031740911182741985
10
-38.384432382881641
20
13.740899562835697
30
0
10
-38.328578081972815
20
13.742750916356021
30
0
10
-38.222138426507797
20
13.746278978253505
30
0
10
-38.121516950261956
20
13.78092901928512
30
0
10
-38.073696680366993
20
13.797396421432499
30
0
0
SPLINE
5
289
100
AcDbEntity
8
0
100
AcDbSpline
70
0
71
3
72
9
73
5
74
0
42
0.000000001
43
0.0000000001
44
0.0000000001
40
0
40
0
40
0
40
0
40
0.014135557844752076
40
0.027731402778402373
40
0.027731402778402373
40
0.027731402778402373
40
0.027731402778402373
10
-38.073696680366993
20
13.797396421432499
30
0
10
-38.030774571199203
20
13.81739161562022
30
0
10
-37.946569171560711
20
13.856618562992375
30
0
10
-37.875490287251523
20
13.916395126838626
30
0
10
-37.840642519295216
20
13.945701718330387
30
0
0
SPLINE
5
290
100
AcDbEntity
8
0
100
AcDbSpline
70
0
71
3
72
9
73
5
74
0
42
0.000000001
43
0.0000000001
44
0.0000000001
40
0
40
0
40
0
40
0
40
0.012506402049359646
40
0.025405723282191039
40
0.025405723282191039
40
0.025405723282191039
40
0.025405723282191039
10
-37.840642519295216
20
13.945701718330387
30
0
10
-37.811372035270438
20
13.975721971046015
30
0
10
-37.751911463434141
20
14.0367056360797
30
0
10
-37.712401766976377
20
14.112182027629805
30
0
10
-37.692341394722462
20
14.150503873825077
30
0
0
SPLINE
5
291
100
AcDbEntity
8
0
100
AcDbSpline
70
0
71
3
72
9
73
5
74
0
42
0.000000001
43
0.0000000001
44
0.0000000001
40
0
40
0
40
0
40
0
40
0.036165271068160788
40
0.068191157804992242
40
0.068191157804992242
40
0.068191157804992242
40
0.068191157804992242
10
-34.012960977852345
20
15.647678971290592
30
0
10
-34.136928892754611
20
15.640338917979836
30
0
10
-34.37067567241855
20
15.626498935067289
30
0
10
-34.550141654345701
20
15.477529247936346
30
0
10
-34.634427614510059
20
15.407565832138065
30
0
0
SPLINE
5
292
100
AcDbEntity
8
0
100
AcDbSpline
70
0
71
3
72
9
73
5
74
0
42
0.000000001
43
0.0000000001
44
0.0000000001
40
0
40
0
40
0
40
0
40
0.032490309073069212
40
0.068075868583348437
40
0.068075868583348437
40
0.068075868583348437
40
0.068075868583348437
10
-34.634427614510059
20
15.407565832138065
30
0
10
-34.700304767226733
20
15.31863707391204
30
0
10
-34.838334983587544
20
15.132307591952966
30
0
10
-34.852838393997978
20
14.900308583309414
30
0
10
-34.860419817268848
20
14.779034852981571
30
0
0
SPLINE
5
293
100
AcDbEntity
8
0
100
AcDbSpline
70
0
71
3
72
9
73
5
74
0
42
0.000000001
43
0.0000000001
44
0.0000000001
40
0
40
0
40
0
40
0
40
0.035585559510279217
40
0.068075868583348437
40
0.068075868583348437
40
0.068075868583348437
40
0.068075868583348437
10
-34.860419817268848
20
14.779034852981571
30
0
10
-34.852838393997978
20
14.657761122653724
30
0
10
-34.838334983587529
20
14.425762114010174
30
0
10
-34.700304767226733
20
14.239432632051102
30
0
10
-34.634427614510059
20
14.150503873825077
30
0
0
SPLINE
5
294
100
AcDbEntity
8
0
100
AcDbSpline
70
0
71
3
72
9
73
5
74
0
42
0.000000001
43
0.0000000001
44
0.0000000001
40
0
40
0
40
0
40
0
40
0.03202588673683146
40
0.068191157804992242
40
0.068191157804992242
40
0.068191157804992242
40
0.068191157804992242
10
-34.634427614510059
20
14.150503873825077
30
0
10
-34.550141654345701
20
14.080540458026796
30
0
10
-34.37067567241855
20
13.931570770895849
30
0
10
-34.136928892754611
20
13.917730787983306
30
0
10
-34.012960977852345
20
13.91039073467255
30
0
0
SPLINE
5
295
100
AcDbEntity
8
0
100
AcDbSpline
70
0
71
3
72
9
73
5
74
0
42
0.000000001
43
0.0000000001
44
0.0000000001
40
0
40
0
40
0
40
0
40
0.036339735558592774
40
0.068805066700598785
40
0.068805066700598785
40
0.068805066700598785
40
0.068805066700598785
10
-34.012960977852345
20
13.91039073467255
30
0
10
-33.888559655001188
20
13.917940374423221
30
0
10
-33.653020205281869
20
13.932234740043267
30
0
10
-33.470533204963537
20
14.080531010508013
30
0
10
-33.384427614510059
20
14.150503873825077
30
0
0
SPLINE
5
296
100
AcDbEntity
8
0
100
AcDbSpline
70
0
71
3
72
9
73
5
74
0
42
0.000000001
43
0.0000000001
44
0.0000000001
40
0
40
0
40
0
40
0
40
0.032216991723707358
40
0.067774930020081059
40
0.067774930020081059
40
0.067774930020081059
40
0.067774930020081059
10
-33.384427614510059
20
14.150503873825077
30
0
10
-33.320616599853388
20
14.239640749715171
30
0
10
-33.186377280119387
20
14.427158118731791
30
0
10
-33.172685496567723
20
14.657950328684176
30
0
10
-33.165502138435841
20
14.779034852981571
30
0
0
SPLINE
5
297
100
AcDbEntity
8
0
100
AcDbSpline
70
0
71
3
72
9
73
5
74
0
42
0.000000001
43
0.0000000001
44
0.0000000001
40
0
40
0
40
0
40
0
40
0.035557938296373708
40
0.067774930020081059
40
0.067774930020081059
40
0.067774930020081059
40
0.067774930020081059
10
-33.165502138435841
20
14.779034852981571
30
0
10
-33.172685496567723
20
14.900119377278964
30
0
10
-33.186377280119387
20
15.130911587231349
30
0
10
-33.320616599853388
20
15.318428956247971
30
0
10
-33.384427614510059
20
15.407565832138065
30
0
0
SPLINE
5
298
100
AcDbEntity
8
0
100
AcDbSpline
70
0
71
3
72
9
73
5
74
0
42
0.000000001
43
0.0000000001
44
0.0000000001
40
0
40
0
40
0
40
0
40
0.032465331142006011
40
0.068805066700598785
40
0.068805066700598785
40
0.068805066700598785
40
0.068805066700598785
10
-33.384427614510059
20
15.407565832138065
30
0
10
-33.470533204963537
20
15.477538695455129
30
0
10
-33.653020205281869
20
15.625834965919875
30
0
10
-33.888559655001195
20
15.640129331539921
30
0
10
-34.012960977852345
20
15.647678971290592
30
0
0
SPLINE
5
299
100
AcDbEntity
8
0
100
AcDbSpline
70
0
71
3
72
9
73
5
74
0
42
0.000000001
43
0.0000000001
44
0.0000000001
40
0
40
0
40
0
40
0
40
0.01228288828054998
40
0.024767138843106731
40
0.024767138843106731
40
0.024767138843106731
40
0.024767138843106731
10
-24.224824495613575
20
14.150503873825077
30
0
10
-24.21010190731576
20
14.188926641718746
30
0
10
-24.180415372669081
20
14.266402069763288
30
0
10
-24.172377869727406
20
14.348988217395943
30
0
10
-24.168326444923878
20
14.390617012977604
30
0
0
LINE
5
300
100
AcDbEntity
8
0
100
AcDbLine
10
-24.168326444923878
20
14.390617012977604
30
0
11
-25.566632337868214
21
14.390617012977604
31
0
0
SPLINE
5
301
100
AcDbEntity
8
0
100
AcDbSpline
70
0
71
3
72
9
73
5
74
0
42
0.000000001
43
0.0000000001
44
0.0000000001
40
0
40
0
40
0
40
0
40
0.025223080911638936
40
0.050247683150564895
40
0.050247683150564895
40
0.050247683150564895
40
0.050247683150564895
10
-25.566632337868214
20
14.390617012977604
30
0
10
-25.561163012551503
20
14.3045266640021
30
0
10
-25.550267399659326
20
14.133023405030807
30
0
10
-25.443334078564924
20
13.998548880368835
30
0
10
-25.390078611671925
20
13.931577205657963
30
0
0
SPLINE
5
302
100
AcDbEntity
8
0
100
AcDbSpline
70
0
71
3
72
9
73
5
74
0
42
0.000000001
43
0.0000000001
44
0.0000000001
40
0
40
0
40
0
40
0
40
0.025415061656333122
40
0.052150103568250353
40
0.052150103568250353
40
0.052150103568250353
40
0.052150103568250353
10
-25.390078611671925
20
13.931577205657963
30
0
10
-25.32329327225203
20
13.875972821753138
30
0
10
-25.186253967973173
20
13.761876132998392
30
0
10
-25.00819646515388
20
13.748008752773224
30
0
10
-24.916914291679859
20
13.740899562835697
30
0
0
SPLINE
5
303
100
AcDbEntity
8
0
100
AcDbSpline
70
0
71
3
72
9
73
5
74
0
42
0.000000001
43
0.0000000001
44
0.0000000001
40
0
40
0
40
0
40
0
40
0.01665607048966871
40
0.031740796773121346
40
0.031740796773121346
40
0.031740796773121346
40
0.031740796773121346
10
-24.916914291679859
20
13.740899562835697
30
0
10
-24.861059979762743
20
13.742750875024541
30
0
10
-24.754620686979756
20
13.746278845441459
30
0
10
-24.653999651404
20
13.780929020926012
30
0
10
-24.606179781258106
20
13.797396421432499
30
0
0
SPLINE
5
304
100
AcDbEntity
8
0
100
AcDbSpline
70
0
71
3
72
9
73
5
74
0
42
0.000000001
43
0.0000000001
44
0.0000000001
40
0
40
0
40
0
40
0
40
0.014135240697292672
40
0.027731085630942971
40
0.027731085630942971
40
0.027731085630942971
40
0.027731085630942971
10
-24.606179781258106
20
13.797396421432499
30
0
10
-24.563258967081598
20
13.817391799640586
30
0
10
-24.479055181750482
20
13.856619539527447
30
0
10
-24.40797701242208
20
13.916395223199721
30
0
10
-24.373129196465015
20
13.945701718330387
30
0
0
SPLINE
5
305
100
AcDbEntity
8
0
100
AcDbSpline
70
0
71
3
72
9
73
5
74
0
42
0.000000001
43
0.0000000001
44
0.0000000001
40
0
40
0
40
0
40
0
40
0.012506639329278058
40
0.025405960562109448
40
0.025405960562109448
40
0.025405960562109448
40
0.025405960562109448
10
-24.373129196465015
20
13.945701718330387
30
0
10
-24.343857309994192
20
13.975721791901243
30
0
10
-24.284394462007882
20
14.036704505572954
30
0
10
-24.244884709149211
20
14.112181884313665
30
0
10
-24.224824495613575
20
14.150503873825077
30
0
0
SPLINE
5
306
100
AcDbEntity
8
0
100
AcDbSpline
70
0
71
3
72
9
73
5
74
0
42
0.000000001
43
0.0000000001
44
0.0000000001
40
0
40
0
40
0
40
0
40
0.012282850582568478
40
0.024767101145125231
40
0.024767101145125231
40
0.024767101145125231
40
0.024767101145125231
10
-16.244598217308525
20
14.150503873825082
30
0
10
-16.229876123247585
20
14.188926673213334
30
0
10
-16.200190539251892
20
14.266402284622153
30
0
10
-16.192152872335811
20
14.348988247274869
30
0
10
-16.188101358711723
20
14.390617012977609
30
0
0
LINE
5
307
100
AcDbEntity
8
0
100
AcDbLine
10
-16.188101358711723
20
14.390617012977609
30
0
11
-17.586406059563163
21
14.390617012977607
31
0
0
SPLINE
5
308
100
AcDbEntity
8
0
100
AcDbSpline
70
0
71
3
72
9
73
5
74
0
42
0.000000001
43
0.0000000001
44
0.0000000001
40
0
40
0
40
0
40
0
40
0.025223080911638936
40
0.050247683150564895
40
0.050247683150564895
40
0.050247683150564895
40
0.050247683150564895
10
-17.586406059563163
20
14.390617012977607
30
0
10
-17.58093673424645
20
14.304526664002102
30
0
10
-17.570041121354269
20
14.133023405030809
30
0
10
-17.46310780025987
20
13.998548880368835
30
0
10
-17.409852333366874
20
13.931577205657966
30
0
0
SPLINE
5
309
100
AcDbEntity
8
0
100
AcDbSpline
70
0
71
3
72
9
73
5
74
0
42
0.000000001
43
0.0000000001
44
0.0000000001
40
0
40
0
40
0
40
0
40
0.025415160202854517
40
0.0521500261662406
40
0.0521500261662406
40
0.0521500261662406
40
0.0521500261662406
10
-17.409852333366874
20
13.931577205657966
30
0
10
-17.343066591538488
20
13.875972817704238
30
0
10
-17.206027196308131
20
13.761876732391389
30
0
10
-17.027970106103233
20
13.748008931958511
30
0
10
-16.936688609421257
20
13.740899562835702
30
0
0
SPLINE
5
310
100
AcDbEntity
8
0
100
AcDbSpline
70
0
71
3
72
9
73
5
74
0
42
0.000000001
43
0.0000000001
44
0.0000000001
40
0
40
0
40
0
40
0
40
0.016656011099707931
40
0.031740794587961599
40
0.031740794587961599
40
0.031740794587961599
40
0.031740794587961599
10
-16.936688609421257
20
13.740899562835702
30
0
10
-16.880834504874503
20
13.742750915121489
30
0
10
-16.774395235069733
20
13.746278974286515
30
0
10
-16.67377416850778
20
13.780929019334138
30
0
10
-16.625954098999504
20
13.797396421432504
30
0
0
SPLINE
5
311
100
AcDbEntity
8
0
100
AcDbSpline
70
0
71
3
72
9
73
5
74
0
42
0.000000001
43
0.0000000001
44
0.0000000001
40
0
40
0
40
0
40
0
40
0.014135346412897761
40
0.027731096916020367
40
0.027731096916020367
40
0.027731096916020367
40
0.027731096916020367
10
-16.625954098999504
20
13.797396421432504
30
0
10
-16.583032810065156
20
13.817391681334353
30
0
10
-16.498828688819653
20
13.856618911711479
30
0
10
-16.427750891540455
20
13.916395161248381
30
0
10
-16.392903514206413
20
13.945701718330392
30
0
0
SPLINE
5
312
100
AcDbEntity
8
0
100
AcDbSpline
70
0
71
3
72
9
73
5
74
0
42
0.000000001
43
0.0000000001
44
0.0000000001
40
0
40
0
40
0
40
0
40
0.012506599782227444
40
0.025405981385033798
40
0.025405981385033798
40
0.025405981385033798
40
0.025405981385033798
10
-16.392903514206413
20
13.945701718330392
30
0
10
-16.363631935814269
20
13.975721865950446
30
0
10
-16.304169476897322
20
14.036704972861314
30
0
10
-16.264658917692429
20
14.112181943551828
30
0
10
-16.244598217308525
20
14.150503873825082
30
0
0
LINE
5
313
100
AcDbEntity
8
0
100
AcDbLine
10
-5
20
95.750000000000014
30
0
11
2.0868907084880395e-16
21
95.750000000000014
31
0
0
LINE
5
314
100
AcDbEntity
8
0
100
AcDbLine
10
7.4435407332823001e-16
20
104.50000000000001
30
0
11
-4.9999999999999991
21
104.50000000000001
31
0
0
LINE
5
315
100
AcDbEntity
8
0
100
AcDbLine
10
-4.9999999999999991
20
104.50000000000001
30
0
11
-4.9999999999999991
21
105.5
31
0
0
LINE
5
316
100
AcDbEntity
8
0
100
AcDbLine
10
-4.9999999999999991
20
105.5
30
0
11
0
21
105.5
31
0
0
LINE
5
317
100
AcDbEntity
8
0
100
AcDbLine
10
0
20
105.5
30
0
11
7.0920902628246608e-16
21
114.25000000000003
31
0
0
LINE
5
318
100
AcDbEntity
8
0
100
AcDbLine
10
7.0920902628246608e-16
20
114.25000000000003
30
0
11
-4.9999999999999964
21
114.25000000000003
31
0
0
LINE
5
319
100
AcDbEntity
8
0
100
AcDbLine
10
-4.9999999999999964
20
114.25000000000003
30
0
11
-4.9999999999999991
21
115.25000000000003
31
0
0
LINE
5
320
100
AcDbEntity
8
0
100
AcDbLine
10
-4.9999999999999991
20
115.25000000000003
30
0
11
1.1102230246251565e-15
21
115.25000000000003
31
0
0
LINE
5
321
100
AcDbEntity
8
0
100
AcDbLine
10
1.1102230246251565e-15
20
115.25000000000003
30
0
11
5.5511151231257827e-16
21
157
31
0
0
LINE
5
322
100
AcDbEntity
8
0
100
AcDbLine
10
-7.2164496600635175e-15
20
3.0000000000000071
30
0
11
7.0560440607264411e-16
21
75.250000000000028
31
0
0
LINE
5
323
100
AcDbEntity
8
0
100
AcDbLine
10
7.0560440607264411e-16
20
75.250000000000028
30
0
11
-5.0000000000000018
21
75.250000000000028
31
0
0
LINE
5
324
100
AcDbEntity
8
0
100
AcDbLine
10
-5.0000000000000018
20
75.250000000000028
30
0
11
-4.9999999999999991
21
76.250000000000014
31
0
0
LINE
5
325
100
AcDbEntity
8
0
100
AcDbLine
10
-4.9999999999999991
20
76.250000000000014
30
0
11
1.1102230246251565e-15
21
76.250000000000014
31
0
0
LINE
5
326
100
AcDbEntity
8
0
100
AcDbLine
10
1.1102230246251565e-15
20
76.250000000000014
30
0
11
7.0560440607264362e-16
21
85.000000000000014
31
0
0
LINE
5
327
100
AcDbEntity
8
0
100
AcDbLine
10
7.0560440607264362e-16
20
85.000000000000014
30
0
11
-5.0000000000000036
21
85.000000000000014
31
0
0
LINE
5
328
100
AcDbEntity
8
0
100
AcDbLine
10
-5.0000000000000036
20
85.000000000000014
30
0
11
-4.9999999999999902
21
86.000000000000014
31
0
0
LINE
5
329
100
AcDbEntity
8
0
100
AcDbLine
10
-4.9999999999999902
20
86.000000000000014
30
0
11
9.4368957093138306e-15
21
86
31
0
0
LINE
5
330
100
AcDbEntity
8
0
100
AcDbLine
10
9.4368957093138306e-15
20
86
30
0
11
7.7949912037399373e-16
21
94.750000000000014
31
0
0
LINE
5
331
100
AcDbEntity
8
0
100
AcDbLine
10
7.7949912037399373e-16
20
94.750000000000014
30
0
11
-4.9999999999999991
21
94.750000000000014
31
0
0
LINE
5
332
100
AcDbEntity
8
0
100
AcDbLine
10
-4.9999999999999991
20
94.750000000000014
30
0
11
-5
21
95.750000000000014
31
0
0
CIRCLE
5
333
100
AcDbEntity
8
0
100
AcDbCircle
10
-100.00000000000435
20
15.96796769724744
30
0
40
1.5000000000000036
210
0
220
-0
230
1
0
CIRCLE
5
334
100
AcDbEntity
8
0
100
AcDbCircle
10
-116.56854249492534
20
141.8185424949223
30
0
40
1.5000000000000036
210
0
220
-0
230
1
0
LINE
5
335
100
AcDbEntity
8
0
100
AcDbLine
10
1.1102230246251565e-15
20
3.0000000000000075
30
0
11
5.5511151231257827e-16
21
157
31
0
0
ENDSEC
0
SECTION
2
OBJECTS
0
DICTIONARY
5
C
100
AcDbDictionary
3
ACAD_GROUP
350
D
3
ACAD_MLINESTYLE
350
17
0
DICTIONARY
5
D
100
AcDbDictionary
0
DICTIONARY
5
1A
330
C
100
AcDbDictionary
0
DICTIONARY
5
17
100
AcDbDictionary
0
ENDSEC
0
EOF
