0
SECTION
2
HEADER
9
$INSUNITS
70
4
9
$ACADVER
1
AC1014
9
$HANDSEED
5
FFFF
0
ENDSEC
0
SECTION
2
TABLES
0
TABLE
2
VPORT
5
8
100
AcDbSymbolTable
0
ENDTAB
0
TABLE
2
LTYPE
5
5
100
AcDbSymbolTable
0
LTYPE
5
14
100
AcDbSymbolTableRecord
100
AcDbLinetypeTableRecord
2
BYBLOCK
70
0
0
LTYPE
5
15
100
AcDbSymbolTableRecord
100
AcDbLinetypeTableRecord
2
BYLAYER
70
0
0
LTYPE
5
16
100
AcDbSymbolTableRecord
100
AcDbLinetypeTableRecord
2
DASHED
70
0
3
Dashed __ __ __ __ __ __ __ __ __ __ __ __ __ _
72
65
73
2
40
0.75
49
0.5
74
0
49
-0.25
74
0
0
ENDTAB
0
TABLE
2
LAYER
5
2
100
AcDbSymbolTable
70
2
0
LAYER
5
50
100
AcDbSymbolTableRecord
100
AcDbLayerTableRecord
2
0
70
0
62
7
6
CONTINUOUS
0
ENDTAB
0
TABLE
2
STYLE
5
3
100
AcDbSymbolTable
70
1
0
STYLE
5
11
100
AcDbSymbolTableRecord
100
AcDbTextStyleTableRecord
2
STANDARD
70
0
0
ENDTAB
0
TABLE
2
VIEW
5
6
100
AcDbSymbolTable
70
0
0
ENDTAB
0
TABLE
2
UCS
5
7
100
AcDbSymbolTable
70
0
0
ENDTAB
0
TABLE
2
APPID
5
9
100
AcDbSymbolTable
70
2
0
APPID
5
12
100
AcDbSymbolTableRecord
100
AcDbRegAppTableRecord
2
ACAD
70
0
0
ENDTAB
0
TABLE
2
DIMSTYLE
5
A
100
AcDbSymbolTable
70
1
0
ENDTAB
0
TABLE
2
BLOCK_RECORD
5
1
100
AcDbSymbolTable
70
1
0
BLOCK_RECORD
5
1F
100
AcDbSymbolTableRecord
100
AcDbBlockTableRecord
2
*MODEL_SPACE
0
BLOCK_RECORD
5
1B
100
AcDbSymbolTableRecord
100
AcDbBlockTableRecord
2
*PAPER_SPACE
0
ENDTAB
0
ENDSEC
0
SECTION
2
BLOCKS
0
BLOCK
5
20
100
AcDbEntity
100
AcDbBlockBegin
2
*MODEL_SPACE
0
ENDBLK
5
21
100
AcDbEntity
100
AcDbBlockEnd
0
BLOCK
5
1C
100
AcDbEntity
100
AcDbBlockBegin
2
*PAPER_SPACE
0
ENDBLK
5
1D
100
AcDbEntity
100
AcDbBlockEnd
0
ENDSEC
0
SECTION
2
ENTITIES
0
LWPOLYLINE
5
100
100
AcDbEntity
8
0
100
AcDbPolyline
90
8
70
1
43
0.0
10
4.4708333333333306
20
141.1972916666667
42
0.41421356237309359
10
1.4708333333333292
20
144.1972916666667
10
-234.38354166666667
20
144.1972916666667
42
0.41421356237309331
10
-237.38354166666667
20
141.1972916666667
10
-237.38354166666667
20
-12.439414503022519
42
0.41421356237308937
10
-234.3835416666667
20
-15.43941450302254
10
1.4708333333333456
20
-15.439414503022522
42
0.4142135623730932
10
4.470833333333327
20
-12.439414503022522
0
CIRCLE
5
101
100
AcDbEntity
8
0
100
AcDbCircle
10
-66.675000000000011
20
104.80145833333336
30
0
40
1.5000000000000036
210
0
220
-0
230
1
0
CIRCLE
5
102
100
AcDbEntity
8
0
100
AcDbCircle
10
-200.76583333333335
20
104.80145833333336
30
0
40
1.4999999999999858
210
0
220
-0
230
1
0
CIRCLE
5
103
100
AcDbEntity
8
0
100
AcDbCircle
10
-122.21104166666669
20
19.050000000000004
30
0
40
1.5000000000000036
210
0
220
-0
230
1
0
CIRCLE
5
104
100
AcDbEntity
8
0
100
AcDbCircle
10
-163.35375000000002
20
60.21916666666668
30
0
40
1.4999999999999858
210
0
220
-0
230
1
0
LWPOLYLINE
5
105
100
AcDbEntity
8
0
100
AcDbPolyline
90
4
70
1
43
0.0
10
-40.529166666666669
20
-7.1240026809987365
42
0.99999999999999989
10
-40.529166666666669
20
-4.1240026810429207
10
-192.38354166666667
20
-4.1240026810429207
42
0.99999999999999989
10
-192.38354166666667
20
-7.1240026809987356
0
CIRCLE
5
106
100
AcDbEntity
8
0
100
AcDbCircle
10
-19.050000000000004
20
104.80145833333336
30
0
40
1.4999999999999991
210
0
220
-0
230
1
0
LINE
5
107
100
AcDbEntity
8
0
100
AcDbLine
10
-10.529166666666676
20
52.724585571266061
30
0
11
-99.684133820303501
21
52.724585571266054
31
0
6
DASHED
0
LINE
5
108
100
AcDbEntity
8
0
100
AcDbLine
10
-99.684133820303501
20
52.724585571266054
30
0
11
-99.684133820303501
21
24.560585496977474
31
0
6
DASHED
0
LINE
5
109
100
AcDbEntity
8
0
100
AcDbLine
10
-99.684133820303501
20
24.560585496977474
30
0
11
-10.529166666666669
21
24.560585496977474
31
0
6
DASHED
0
LINE
5
110
100
AcDbEntity
8
0
100
AcDbLine
10
-10.529166666666669
20
24.560585496977474
30
0
11
-10.529166666666676
21
52.724585571266061
31
0
6
DASHED
0
SPLINE
5
111
100
AcDbEntity
8
0
100
AcDbSpline
70
0
71
2
72
6
73
3
74
0
42
0.000000001
43
0.0000000001
44
0.0000000001
40
0
40
0
40
0
40
1
40
1
40
1
10
-20.11956265370052
20
33.854370592192325
30
0
10
-19.144986180464436
20
34.362845895842227
30
0
10
-18.085663823286701
20
34.58883452232233
30
0
0
SPLINE
5
112
100
AcDbEntity
8
0
100
AcDbSpline
70
0
71
2
72
6
73
3
74
0
42
0.000000001
43
0.0000000001
44
0.0000000001
40
0
40
0
40
0
40
1
40
1
40
1
10
-18.085663823286701
20
34.58883452232233
30
0
10
-17.026342062155415
20
34.814823148802432
30
0
10
-15.924646763006855
20
34.814823148802432
30
0
0
SPLINE
5
113
100
AcDbEntity
8
0
100
AcDbSpline
70
0
71
2
72
6
73
3
74
0
42
0.000000001
43
0.0000000001
44
0.0000000001
40
0
40
0
40
0
40
1
40
1
40
1
10
-15.924646763006855
20
34.814823148802432
30
0
10
-14.752330390612293
20
34.814823148802432
30
0
10
-13.763630000750233
20
34.447590587690982
30
0
0
SPLINE
5
114
100
AcDbEntity
8
0
100
AcDbSpline
70
0
71
2
72
6
73
3
74
0
42
0.000000001
43
0.0000000001
44
0.0000000001
40
0
40
0
40
0
40
1
40
1
40
1
10
-13.763630000750233
20
34.447590587690982
30
0
10
-12.774929312864948
20
34.080359218672427
30
0
10
-12.054590342442204
20
33.40239333923212
30
0
0
SPLINE
5
115
100
AcDbEntity
8
0
100
AcDbSpline
70
0
71
2
72
6
73
3
74
0
42
0.000000001
43
0.0000000001
44
0.0000000001
40
0
40
0
40
0
40
1
40
1
40
1
10
-12.054590342442204
20
33.40239333923212
30
0
10
-11.334251372019459
20
32.710303543165836
30
0
10
-10.924646912018467
20
31.735727069929752
30
0
0
SPLINE
5
116
100
AcDbEntity
8
0
100
AcDbSpline
70
0
71
2
72
6
73
3
74
0
42
0.000000001
43
0.0000000001
44
0.0000000001
40
0
40
0
40
0
40
1
40
1
40
1
10
-10.924646912018467
20
31.735727069929752
30
0
10
-10.529166666666676
20
30.761150596693668
30
0
10
-10.529166666666676
20
29.560585496977481
30
0
0
SPLINE
5
117
100
AcDbEntity
8
0
100
AcDbSpline
70
0
71
2
72
6
73
3
74
0
42
0.000000001
43
0.0000000001
44
0.0000000001
40
0
40
0
40
0
40
1
40
1
40
1
10
-10.529166666666676
20
29.560585496977481
30
0
10
-10.529166666666676
20
28.360020993307742
30
0
10
-10.924646912018467
20
27.385445116118106
30
0
0
SPLINE
5
118
100
AcDbEntity
8
0
100
AcDbSpline
70
0
71
2
72
6
73
3
74
0
42
0.000000001
43
0.0000000001
44
0.0000000001
40
0
40
0
40
0
40
1
40
1
40
1
10
-10.924646912018467
20
27.385445116118106
30
0
10
-11.334251372019459
20
26.410868642882022
30
0
10
-12.054590342442204
20
25.732902763441714
30
0
0
SPLINE
5
119
100
AcDbEntity
8
0
100
AcDbSpline
70
0
71
2
72
6
73
3
74
0
42
0.000000001
43
0.0000000001
44
0.0000000001
40
0
40
0
40
0
40
1
40
1
40
1
10
-12.054590342442204
20
25.732902763441714
30
0
10
-12.774929312864948
20
25.040812371328983
30
0
10
-13.763630000750233
20
24.67358040626398
30
0
0
SPLINE
5
120
100
AcDbEntity
8
0
100
AcDbSpline
70
0
71
2
72
6
73
3
74
0
42
0.000000001
43
0.0000000001
44
0.0000000001
40
0
40
0
40
0
40
1
40
1
40
1
10
-13.763630000750233
20
24.67358040626398
30
0
10
-14.752330390612293
20
24.306349037245425
30
0
10
-15.924646763006855
20
24.306349037245425
30
0
0
SPLINE
5
121
100
AcDbEntity
8
0
100
AcDbSpline
70
0
71
2
72
6
73
3
74
0
42
0.000000001
43
0.0000000001
44
0.0000000001
40
0
40
0
40
0
40
1
40
1
40
1
10
-15.924646763006855
20
24.306349037245425
30
0
10
-17.125211862723042
20
24.306349037245425
30
0
10
-18.128036765257526
20
24.602959034994754
30
0
0
SPLINE
5
122
100
AcDbEntity
8
0
100
AcDbSpline
70
0
71
2
72
6
73
3
74
0
42
0.000000001
43
0.0000000001
44
0.0000000001
40
0
40
0
40
0
40
1
40
1
40
1
10
-18.128036765257526
20
24.602959034994754
30
0
10
-19.144986180464436
20
24.885445116118106
30
0
10
-19.907697943846394
20
25.591659424856815
30
0
0
LINE
5
123
100
AcDbEntity
8
0
100
AcDbLine
10
-19.907697943846394
20
25.591659424856815
30
0
11
-18.354025391737629
21
27.286574719504031
31
0
0
SPLINE
5
124
100
AcDbEntity
8
0
100
AcDbSpline
70
0
71
2
72
6
73
3
74
0
42
0.000000001
43
0.0000000001
44
0.0000000001
40
0
40
0
40
0
40
1
40
1
40
1
10
-18.354025391737629
20
27.286574719504031
30
0
10
-17.902048138777424
20
26.820472953871402
30
0
10
-17.337076572577168
20
26.580360410765323
30
0
0
SPLINE
5
125
100
AcDbEntity
8
0
100
AcDbSpline
70
0
71
2
72
6
73
3
74
0
42
0.000000001
43
0.0000000001
44
0.0000000001
40
0
40
0
40
0
40
1
40
1
40
1
10
-17.337076572577168
20
26.580360410765323
30
0
10
-16.772104410330464
20
26.340247271612796
30
0
10
-15.924646763006855
20
26.340247271612796
30
0
0
SPLINE
5
126
100
AcDbEntity
8
0
100
AcDbSpline
70
0
71
2
72
6
73
3
74
0
42
0.000000001
43
0.0000000001
44
0.0000000001
40
0
40
0
40
0
40
1
40
1
40
1
10
-15.924646763006855
20
26.340247271612796
30
0
10
-15.218432454268147
20
26.340247271612796
30
0
10
-14.639336077372242
20
26.580360410765323
30
0
0
SPLINE
5
127
100
AcDbEntity
8
0
100
AcDbSpline
70
0
71
2
72
6
73
3
74
0
42
0.000000001
43
0.0000000001
44
0.0000000001
40
0
40
0
40
0
40
1
40
1
40
1
10
-14.639336077372242
20
26.580360410765323
30
0
10
-14.074364511171986
20
26.820472953871402
30
0
10
-13.664759902159382
20
27.25832629020563
30
0
0
SPLINE
5
128
100
AcDbEntity
8
0
100
AcDbSpline
70
0
71
2
72
6
73
3
74
0
42
0.000000001
43
0.0000000001
44
0.0000000001
40
0
40
0
40
0
40
1
40
1
40
1
10
-13.664759902159382
20
27.25832629020563
30
0
10
-13.255155293146778
20
27.682055113867435
30
0
10
-13.029166666666676
20
28.275275109366092
30
0
0
SPLINE
5
129
100
AcDbEntity
8
0
100
AcDbSpline
70
0
71
2
72
6
73
3
74
0
42
0.000000001
43
0.0000000001
44
0.0000000001
40
0
40
0
40
0
40
1
40
1
40
1
10
-13.029166666666676
20
28.275275109366092
30
0
10
-12.817302254835774
20
28.868495700911197
30
0
10
-12.817302254835774
20
29.560585496977481
30
0
0
SPLINE
5
130
100
AcDbEntity
8
0
100
AcDbSpline
70
0
71
2
72
6
73
3
74
0
42
0.000000001
43
0.0000000001
44
0.0000000001
40
0
40
0
40
0
40
1
40
1
40
1
10
-12.817302254835774
20
29.560585496977481
30
0
10
-12.817302254835774
20
30.266800401762637
30
0
10
-13.029166666666676
20
30.860020397261295
30
0
0
SPLINE
5
131
100
AcDbEntity
8
0
100
AcDbSpline
70
0
71
2
72
6
73
3
74
0
42
0.000000001
43
0.0000000001
44
0.0000000001
40
0
40
0
40
0
40
1
40
1
40
1
10
-13.029166666666676
20
30.860020397261295
30
0
10
-13.255155293146778
20
31.439116476133975
30
0
10
-13.664759902159382
20
31.876969812468204
30
0
0
SPLINE
5
132
100
AcDbEntity
8
0
100
AcDbSpline
70
0
71
2
72
6
73
3
74
0
42
0.000000001
43
0.0000000001
44
0.0000000001
40
0
40
0
40
0
40
1
40
1
40
1
10
-13.664759902159382
20
31.876969812468204
30
0
10
-14.074364511171986
20
32.300699232176456
30
0
10
-14.639336077372242
20
32.540811775282535
30
0
0
SPLINE
5
133
100
AcDbEntity
8
0
100
AcDbSpline
70
0
71
2
72
6
73
3
74
0
42
0.000000001
43
0.0000000001
44
0.0000000001
40
0
40
0
40
0
40
1
40
1
40
1
10
-14.639336077372242
20
32.540811775282535
30
0
10
-15.218432454268147
20
32.780924318388614
30
0
10
-15.924646763006855
20
32.780924318388614
30
0
0
SPLINE
5
134
100
AcDbEntity
8
0
100
AcDbSpline
70
0
71
2
72
6
73
3
74
0
42
0.000000001
43
0.0000000001
44
0.0000000001
40
0
40
0
40
0
40
1
40
1
40
1
10
-15.924646763006855
20
32.780924318388614
30
0
10
-16.644986180464436
20
32.780924318388614
30
0
10
-17.167584804693867
20
32.625557659224185
30
0
0
SPLINE
5
135
100
AcDbEntity
8
0
100
AcDbSpline
70
0
71
2
72
6
73
3
74
0
42
0.000000001
43
0.0000000001
44
0.0000000001
40
0
40
0
40
0
40
1
40
1
40
1
10
-17.167584804693867
20
32.625557659224185
30
0
10
-17.690183428923298
20
32.456065891340884
30
0
10
-18.000917939345051
20
32.286574123457584
30
0
0
LINE
5
136
100
AcDbEntity
8
0
100
AcDbLine
10
-18.000917939345051
20
32.286574123457584
30
0
11
-18.000917939345051
21
30.662280796126041
31
0
0
LINE
5
137
100
AcDbEntity
8
0
100
AcDbLine
10
-18.000917939345051
20
30.662280796126041
30
0
11
-16.207132844130207
21
30.662280796126041
31
0
0
LINE
5
138
100
AcDbEntity
8
0
100
AcDbLine
10
-16.207132844130207
20
30.662280796126041
30
0
11
-16.207132844130207
21
28.62838256175867
31
0
0
LINE
5
139
100
AcDbEntity
8
0
100
AcDbLine
10
-16.207132844130207
20
28.62838256175867
30
0
11
-20.11956265370052
21
28.62838256175867
31
0
0
LINE
5
140
100
AcDbEntity
8
0
100
AcDbLine
10
-20.11956265370052
20
28.62838256175867
30
0
11
-20.11956265370052
21
33.854370592192325
31
0
0
SPLINE
5
141
100
AcDbEntity
8
0
100
AcDbSpline
70
0
71
2
72
6
73
3
74
0
42
0.000000001
43
0.0000000001
44
0.0000000001
40
0
40
0
40
0
40
1
40
1
40
1
10
-28.283403424421955
20
33.374144313887271
30
0
10
-27.774929312864948
20
34.023862360075626
30
0
10
-26.998093632857014
20
34.376969812468204
30
0
0
SPLINE
5
142
100
AcDbEntity
8
0
100
AcDbSpline
70
0
71
2
72
6
73
3
74
0
42
0.000000001
43
0.0000000001
44
0.0000000001
40
0
40
0
40
0
40
1
40
1
40
1
10
-26.998093632857014
20
34.376969812468204
30
0
10
-26.221256760756184
20
34.730077264860782
30
0
10
-25.387924222151447
20
34.730077264860782
30
0
0
SPLINE
5
143
100
AcDbEntity
8
0
100
AcDbSpline
70
0
71
2
72
6
73
3
74
0
42
0.000000001
43
0.0000000001
44
0.0000000001
40
0
40
0
40
0
40
1
40
1
40
1
10
-25.387924222151447
20
34.730077264860782
30
0
10
-24.596963433424641
20
34.730077264860782
30
0
10
-23.890748528639485
20
34.475839613035831
30
0
0
SPLINE
5
144
100
AcDbEntity
8
0
100
AcDbSpline
70
0
71
2
72
6
73
3
74
0
42
0.000000001
43
0.0000000001
44
0.0000000001
40
0
40
0
40
0
40
1
40
1
40
1
10
-23.890748528639485
20
34.475839613035831
30
0
10
-23.198657540480305
20
34.221601961210879
30
0
10
-22.676059512297321
20
33.755500791624698
30
0
0
SPLINE
5
145
100
AcDbEntity
8
0
100
AcDbSpline
70
0
71
2
72
6
73
3
74
0
42
0.000000001
43
0.0000000001
44
0.0000000001
40
0
40
0
40
0
40
1
40
1
40
1
10
-22.676059512297321
20
33.755500791624698
30
0
10
-22.167584208647419
20
33.275274513319644
30
0
10
-21.870974806944538
20
32.611432550505313
30
0
0
SPLINE
5
146
100
AcDbEntity
8
0
100
AcDbSpline
70
0
71
2
72
6
73
3
74
0
42
0.000000001
43
0.0000000001
44
0.0000000001
40
0
40
0
40
0
40
1
40
1
40
1
10
-21.870974806944538
20
32.611432550505313
30
0
10
-21.574364213148762
20
31.947591779783878
30
0
10
-21.574364213148762
20
31.128381965712222
30
0
0
SPLINE
5
147
100
AcDbEntity
8
0
100
AcDbSpline
70
0
71
2
72
6
73
3
74
0
42
0.000000001
43
0.0000000001
44
0.0000000001
40
0
40
0
40
0
40
1
40
1
40
1
10
-21.574364213148762
20
31.128381965712222
30
0
10
-21.574364213148762
20
30.309173343733463
30
0
10
-21.870974806944538
20
29.645331380919131
30
0
0
SPLINE
5
148
100
AcDbEntity
8
0
100
AcDbSpline
70
0
71
2
72
6
73
3
74
0
42
0.000000001
43
0.0000000001
44
0.0000000001
40
0
40
0
40
0
40
1
40
1
40
1
10
-21.870974806944538
20
29.645331380919131
30
0
10
-22.167584208647419
20
28.9814894181048
30
0
10
-22.676059512297321
20
28.515387652472171
30
0
0
SPLINE
5
149
100
AcDbEntity
8
0
100
AcDbSpline
70
0
71
2
72
6
73
3
74
0
42
0.000000001
43
0.0000000001
44
0.0000000001
40
0
40
0
40
0
40
1
40
1
40
1
10
-22.676059512297321
20
28.515387652472171
30
0
10
-23.198657540480305
20
28.035161970213565
30
0
10
-23.890748528639485
20
27.780924318388614
30
0
0
SPLINE
5
150
100
AcDbEntity
8
0
100
AcDbSpline
70
0
71
2
72
6
73
3
74
0
42
0.000000001
43
0.0000000001
44
0.0000000001
40
0
40
0
40
0
40
1
40
1
40
1
10
-23.890748528639485
20
27.780924318388614
30
0
10
-24.596963433424641
20
27.52668726261011
30
0
10
-25.387924222151447
20
27.52668726261011
30
0
0
SPLINE
5
151
100
AcDbEntity
8
0
100
AcDbSpline
70
0
71
2
72
6
73
3
74
0
42
0.000000001
43
0.0000000001
44
0.0000000001
40
0
40
0
40
0
40
1
40
1
40
1
10
-25.387924222151447
20
27.52668726261011
30
0
10
-26.122386960188557
20
27.52668726261011
30
0
10
-26.715606955687214
20
27.780924318388614
30
0
0
SPLINE
5
152
100
AcDbEntity
8
0
100
AcDbSpline
70
0
71
2
72
6
73
3
74
0
42
0.000000001
43
0.0000000001
44
0.0000000001
40
0
40
0
40
0
40
1
40
1
40
1
10
-26.715606955687214
20
27.780924318388614
30
0
10
-27.322952059904743
20
28.035161970213565
30
0
10
-27.732556370894123
20
28.515387652472171
30
0
0
SPLINE
5
153
100
AcDbEntity
8
0
100
AcDbSpline
70
0
71
2
72
6
73
3
74
0
42
0.000000001
43
0.0000000001
44
0.0000000001
40
0
40
0
40
0
40
1
40
1
40
1
10
-27.732556370894123
20
28.515387652472171
30
0
10
-28.156285790602375
20
28.9814894181048
30
0
10
-28.382274417082478
20
29.645331380919131
30
0
0
SPLINE
5
154
100
AcDbEntity
8
0
100
AcDbSpline
70
0
71
2
72
6
73
3
74
0
42
0.000000001
43
0.0000000001
44
0.0000000001
40
0
40
0
40
0
40
1
40
1
40
1
10
-28.382274417082478
20
29.645331380919131
30
0
10
-28.60826304356258
20
30.309173343733463
30
0
10
-28.60826304356258
20
31.128381965712222
30
0
0
LINE
5
155
100
AcDbEntity
8
0
100
AcDbLine
10
-28.60826304356258
20
31.128381965712222
30
0
11
-28.60826304356258
21
31.792223928526553
31
0
0
LINE
5
156
100
AcDbEntity
8
0
100
AcDbLine
10
-28.60826304356258
20
31.792223928526553
30
0
11
-23.693008927504231
21
31.792223928526553
31
0
0
SPLINE
5
157
100
AcDbEntity
8
0
100
AcDbSpline
70
0
71
2
72
6
73
3
74
0
42
0.000000001
43
0.0000000001
44
0.0000000001
40
0
40
0
40
0
40
1
40
1
40
1
10
-23.693008927504231
20
31.792223928526553
30
0
10
-23.820126561323811
20
32.399569032744083
30
0
10
-24.243855981032063
20
32.766800401762637
30
0
0
SPLINE
5
158
100
AcDbEntity
8
0
100
AcDbSpline
70
0
71
2
72
6
73
3
74
0
42
0.000000001
43
0.0000000001
44
0.0000000001
40
0
40
0
40
0
40
1
40
1
40
1
10
-24.243855981032063
20
32.766800401762637
30
0
10
-24.667584208647419
20
33.119907854155215
30
0
10
-25.289053229490925
20
33.119907854155215
30
0
0
SPLINE
5
159
100
AcDbEntity
8
0
100
AcDbSpline
70
0
71
2
72
6
73
3
74
0
42
0.000000001
43
0.0000000001
44
0.0000000001
40
0
40
0
40
0
40
1
40
1
40
1
10
-25.289053229490925
20
33.119907854155215
30
0
10
-25.811652449766804
20
33.119907854155215
30
0
10
-26.164759902159382
20
32.893919227675113
30
0
0
SPLINE
5
160
100
AcDbEntity
8
0
100
AcDbSpline
70
0
71
2
72
6
73
3
74
0
42
0.000000001
43
0.0000000001
44
0.0000000001
40
0
40
0
40
0
40
1
40
1
40
1
10
-26.164759902159382
20
32.893919227675113
30
0
10
-26.531991271177937
20
32.653805492476138
30
0
10
-26.800352839628864
20
32.286574123457584
30
0
0
LINE
5
161
100
AcDbEntity
8
0
100
AcDbLine
10
-26.800352839628864
20
32.286574123457584
30
0
11
-28.283403424421955
21
33.374144313887271
31
0
0
SPLINE
5
162
100
AcDbEntity
8
0
100
AcDbSpline
70
0
71
2
72
6
73
3
74
0
42
0.000000001
43
0.0000000001
44
0.0000000001
40
0
40
0
40
0
40
1
40
1
40
1
10
-26.489618329207111
20
30.351546285704288
30
0
10
-26.503743437925984
20
29.814823148802432
30
0
10
-26.136510876814533
20
29.433466671065005
30
0
0
SPLINE
5
163
100
AcDbEntity
8
0
100
AcDbSpline
70
0
71
2
72
6
73
3
74
0
42
0.000000001
43
0.0000000001
44
0.0000000001
40
0
40
0
40
0
40
1
40
1
40
1
10
-26.136510876814533
20
29.433466671065005
30
0
10
-25.769279507795979
20
29.052110789374026
30
0
10
-25.190183428923298
20
29.052110789374026
30
0
0
SPLINE
5
164
100
AcDbEntity
8
0
100
AcDbSpline
70
0
71
2
72
6
73
3
74
0
42
0.000000001
43
0.0000000001
44
0.0000000001
40
0
40
0
40
0
40
1
40
1
40
1
10
-25.190183428923298
20
29.052110789374026
30
0
10
-24.83707597653072
20
29.052110789374026
30
0
10
-24.568714408079792
20
29.165105102614078
30
0
0
SPLINE
5
165
100
AcDbEntity
8
0
100
AcDbSpline
70
0
71
2
72
6
73
3
74
0
42
0.000000001
43
0.0000000001
44
0.0000000001
40
0
40
0
40
0
40
1
40
1
40
1
10
-24.568714408079792
20
29.165105102614078
30
0
10
-24.300352839628864
20
29.278099415854129
30
0
10
-24.10261323849361
20
29.461715696409854
30
0
0
SPLINE
5
166
100
AcDbEntity
8
0
100
AcDbSpline
70
0
71
2
72
6
73
3
74
0
42
0.000000001
43
0.0000000001
44
0.0000000001
40
0
40
0
40
0
40
1
40
1
40
1
10
-24.10261323849361
20
29.461715696409854
30
0
10
-23.918997553984333
20
29.631206868246707
30
0
10
-23.806002644697834
20
29.871320007399234
30
0
0
SPLINE
5
167
100
AcDbEntity
8
0
100
AcDbSpline
70
0
71
2
72
6
73
3
74
0
42
0.000000001
43
0.0000000001
44
0.0000000001
40
0
40
0
40
0
40
1
40
1
40
1
10
-23.806002644697834
20
29.871320007399234
30
0
10
-23.707132844130207
20
30.097308633879337
30
0
10
-23.693008927504231
20
30.351546285704288
30
0
0
LINE
5
168
100
AcDbEntity
8
0
100
AcDbLine
10
-23.693008927504231
20
30.351546285704288
30
0
11
-26.489618329207111
21
30.351546285704288
31
0
0
LINE
5
169
100
AcDbEntity
8
0
100
AcDbLine
10
-34.201484231154133
20
33.699003933027896
30
0
11
-34.17323639790218
21
33.699003933027896
31
0
0
SPLINE
5
170
100
AcDbEntity
8
0
100
AcDbSpline
70
0
71
2
72
6
73
3
74
0
42
0.000000001
43
0.0000000001
44
0.0000000001
40
0
40
0
40
0
40
1
40
1
40
1
10
-34.17323639790218
20
33.699003933027896
30
0
10
-33.820128945509602
20
34.249850986555728
30
0
10
-33.226907757918049
20
34.489963529661807
30
0
0
SPLINE
5
171
100
AcDbEntity
8
0
100
AcDbSpline
70
0
71
2
72
6
73
3
74
0
42
0.000000001
43
0.0000000001
44
0.0000000001
40
0
40
0
40
0
40
1
40
1
40
1
10
-33.226907757918049
20
34.489963529661807
30
0
10
-32.647810486952473
20
34.730077264860782
30
0
10
-31.998093632857014
20
34.730077264860782
30
0
0
SPLINE
5
172
100
AcDbEntity
8
0
100
AcDbSpline
70
0
71
2
72
6
73
3
74
0
42
0.000000001
43
0.0000000001
44
0.0000000001
40
0
40
0
40
0
40
1
40
1
40
1
10
-31.998093632857014
20
34.730077264860782
30
0
10
-31.517868546644856
20
34.730077264860782
30
0
10
-31.065891293684651
20
34.58883452232233
30
0
0
SPLINE
5
173
100
AcDbEntity
8
0
100
AcDbSpline
70
0
71
2
72
6
73
3
74
0
42
0.000000001
43
0.0000000001
44
0.0000000001
40
0
40
0
40
0
40
1
40
1
40
1
10
-31.065891293684651
20
34.58883452232233
30
0
10
-30.628037957350422
20
34.461715696409854
30
0
10
-30.28905442158382
20
34.193354127958926
30
0
0
SPLINE
5
174
100
AcDbEntity
8
0
100
AcDbSpline
70
0
71
2
72
6
73
3
74
0
42
0.000000001
43
0.0000000001
44
0.0000000001
40
0
40
0
40
0
40
1
40
1
40
1
10
-30.28905442158382
20
34.193354127958926
30
0
10
-29.950070885817219
20
33.924992559507999
30
0
10
-29.752331284681965
20
33.529512165144595
30
0
0
SPLINE
5
175
100
AcDbEntity
8
0
100
AcDbSpline
70
0
71
2
72
6
73
3
74
0
42
0.000000001
43
0.0000000001
44
0.0000000001
40
0
40
0
40
0
40
1
40
1
40
1
10
-29.752331284681965
20
33.529512165144595
30
0
10
-29.554590491453816
20
33.134031770781192
30
0
10
-29.554590491453816
20
32.611432550505313
30
0
0
SPLINE
5
176
100
AcDbEntity
8
0
100
AcDbSpline
70
0
71
2
72
6
73
3
74
0
42
0.000000001
43
0.0000000001
44
0.0000000001
40
0
40
0
40
0
40
1
40
1
40
1
10
-29.554590491453816
20
32.611432550505313
30
0
10
-29.554590491453816
20
32.018212555006656
30
0
10
-29.766455201307942
20
31.608608244017276
30
0
0
SPLINE
5
177
100
AcDbEntity
8
0
100
AcDbSpline
70
0
71
2
72
6
73
3
74
0
42
0.000000001
43
0.0000000001
44
0.0000000001
40
0
40
0
40
0
40
1
40
1
40
1
10
-29.766455201307942
20
31.608608244017276
30
0
10
-29.992443827788044
20
31.199003933027896
30
0
10
-30.359676388899494
20
30.930642364576968
30
0
0
SPLINE
5
178
100
AcDbEntity
8
0
100
AcDbSpline
70
0
71
2
72
6
73
3
74
0
42
0.000000001
43
0.0000000001
44
0.0000000001
40
0
40
0
40
0
40
1
40
1
40
1
10
-30.359676388899494
20
30.930642364576968
30
0
10
-30.741031674544026
20
30.662280796126041
30
0
10
-31.221256760756184
20
30.521038053587588
30
0
0
SPLINE
5
179
100
AcDbEntity
8
0
100
AcDbSpline
70
0
71
2
72
6
73
3
74
0
42
0.000000001
43
0.0000000001
44
0.0000000001
40
0
40
0
40
0
40
1
40
1
40
1
10
-31.221256760756184
20
30.521038053587588
30
0
10
-31.701484231154133
20
30.365670202330264
30
0
10
-32.209959534804035
20
30.295048831061038
30
0
0
SPLINE
5
180
100
AcDbEntity
8
0
100
AcDbSpline
70
0
71
2
72
6
73
3
74
0
42
0.000000001
43
0.0000000001
44
0.0000000001
40
0
40
0
40
0
40
1
40
1
40
1
10
-32.209959534804035
20
30.295048831061038
30
0
10
-32.732556370894123
20
30.224427459791812
30
0
10
-33.241031674544026
20
30.210302947119388
30
0
0
SPLINE
5
181
100
AcDbEntity
8
0
100
AcDbSpline
70
0
71
2
72
6
73
3
74
0
42
0.000000001
43
0.0000000001
44
0.0000000001
40
0
40
0
40
0
40
1
40
1
40
1
10
-33.241031674544026
20
30.210302947119388
30
0
10
-33.763630894819904
20
30.196178434446963
30
0
10
-34.201484231154133
20
30.196178434446963
30
0
0
SPLINE
5
182
100
AcDbEntity
8
0
100
AcDbSpline
70
0
71
2
72
6
73
3
74
0
42
0.000000001
43
0.0000000001
44
0.0000000001
40
0
40
0
40
0
40
1
40
1
40
1
10
-34.201484231154133
20
30.196178434446963
30
0
10
-34.201484231154133
20
29.631206868246707
30
0
10
-33.791878728071858
20
29.306348441198978
30
0
0
SPLINE
5
183
100
AcDbEntity
8
0
100
AcDbSpline
70
0
71
2
72
6
73
3
74
0
42
0.000000001
43
0.0000000001
44
0.0000000001
40
0
40
0
40
0
40
1
40
1
40
1
10
-33.791878728071858
20
29.306348441198978
30
0
10
-33.39639952580135
20
28.967364905432376
30
0
10
-32.845552472273518
20
28.967364905432376
30
0
0
SPLINE
5
184
100
AcDbEntity
8
0
100
AcDbSpline
70
0
71
2
72
6
73
3
74
0
42
0.000000001
43
0.0000000001
44
0.0000000001
40
0
40
0
40
0
40
1
40
1
40
1
10
-32.845552472273518
20
28.967364905432376
30
0
10
-32.322953251997639
20
28.967364905432376
30
0
10
-31.88509991566341
20
29.193354127958926
30
0
0
SPLINE
5
185
100
AcDbEntity
8
0
100
AcDbSpline
70
0
71
2
72
6
73
3
74
0
42
0.000000001
43
0.0000000001
44
0.0000000001
40
0
40
0
40
0
40
1
40
1
40
1
10
-31.88509991566341
20
29.193354127958926
30
0
10
-31.461370495955158
20
29.405218241766605
30
0
10
-31.122386960188557
20
29.786574123457584
30
0
0
LINE
5
186
100
AcDbEntity
8
0
100
AcDbLine
10
-31.122386960188557
20
29.786574123457584
30
0
11
-29.992443827788044
21
28.628381965712222
31
0
0
SPLINE
5
187
100
AcDbEntity
8
0
100
AcDbSpline
70
0
71
2
72
6
73
3
74
0
42
0.000000001
43
0.0000000001
44
0.0000000001
40
0
40
0
40
0
40
1
40
1
40
1
10
-29.992443827788044
20
28.628381965712222
30
0
10
-30.585663823286701
20
28.07753491218439
30
0
10
-31.376624612013508
20
27.809173343733463
30
0
0
SPLINE
5
188
100
AcDbEntity
8
0
100
AcDbSpline
70
0
71
2
72
6
73
3
74
0
42
0.000000001
43
0.0000000001
44
0.0000000001
40
0
40
0
40
0
40
1
40
1
40
1
10
-31.376624612013508
20
27.809173343733463
30
0
10
-32.167585400740315
20
27.52668726261011
30
0
10
-33.015044240156818
20
27.52668726261011
30
0
0
SPLINE
5
189
100
AcDbEntity
8
0
100
AcDbSpline
70
0
71
2
72
6
73
3
74
0
42
0.000000001
43
0.0000000001
44
0.0000000001
40
0
40
0
40
0
40
1
40
1
40
1
10
-33.015044240156818
20
27.52668726261011
30
0
10
-33.947246579329182
20
27.52668726261011
30
0
10
-34.540467766920735
20
27.766800401762637
30
0
0
SPLINE
5
190
100
AcDbEntity
8
0
100
AcDbSpline
70
0
71
2
72
6
73
3
74
0
42
0.000000001
43
0.0000000001
44
0.0000000001
40
0
40
0
40
0
40
1
40
1
40
1
10
-34.540467766920735
20
27.766800401762637
30
0
10
-35.147812871138264
20
27.99278902824274
30
0
10
-35.500920323530842
20
28.444766281202945
30
0
0
SPLINE
5
191
100
AcDbEntity
8
0
100
AcDbSpline
70
0
71
2
72
6
73
3
74
0
42
0.000000001
43
0.0000000001
44
0.0000000001
40
0
40
0
40
0
40
1
40
1
40
1
10
-35.500920323530842
20
28.444766281202945
30
0
10
-35.868151692549397
20
28.89674353416315
30
0
10
-36.009393242994953
20
29.560585496977481
30
0
0
SPLINE
5
192
100
AcDbEntity
8
0
100
AcDbSpline
70
0
71
2
72
6
73
3
74
0
42
0.000000001
43
0.0000000001
44
0.0000000001
40
0
40
0
40
0
40
1
40
1
40
1
10
-36.009393242994953
20
29.560585496977481
30
0
10
-36.150637177626301
20
30.210302947119388
30
0
10
-36.150637177626301
20
31.071885107115421
30
0
0
LINE
5
193
100
AcDbEntity
8
0
100
AcDbLine
10
-36.150637177626301
20
31.071885107115421
30
0
11
-36.150637177626301
21
34.560585496977481
31
0
0
LINE
5
194
100
AcDbEntity
8
0
100
AcDbLine
10
-36.150637177626301
20
34.560585496977481
30
0
11
-34.201484231154133
21
34.560585496977481
31
0
0
LINE
5
195
100
AcDbEntity
8
0
100
AcDbLine
10
-34.201484231154133
20
34.560585496977481
30
0
11
-34.201484231154133
21
33.699003933027896
31
0
0
SPLINE
5
196
100
AcDbEntity
8
0
100
AcDbSpline
70
0
71
2
72
6
73
3
74
0
42
0.000000001
43
0.0000000001
44
0.0000000001
40
0
40
0
40
0
40
1
40
1
40
1
10
-33.678885010878254
20
31.552110193327579
30
0
10
-33.438771275679279
20
31.552110193327579
30
0
10
-33.071539906660725
20
31.580359218672427
30
0
0
SPLINE
5
197
100
AcDbEntity
8
0
100
AcDbSpline
70
0
71
2
72
6
73
3
74
0
42
0.000000001
43
0.0000000001
44
0.0000000001
40
0
40
0
40
0
40
1
40
1
40
1
10
-33.071539906660725
20
31.580359218672427
30
0
10
-32.718432454268147
20
31.594484327391299
30
0
10
-32.379448918501545
20
31.693354127958926
30
0
0
SPLINE
5
198
100
AcDbEntity
8
0
100
AcDbSpline
70
0
71
2
72
6
73
3
74
0
42
0.000000001
43
0.0000000001
44
0.0000000001
40
0
40
0
40
0
40
1
40
1
40
1
10
-32.379448918501545
20
31.693354127958926
30
0
10
-32.054591683546711
20
31.792223928526553
30
0
10
-31.814477948347736
20
31.989963529661807
30
0
0
SPLINE
5
199
100
AcDbEntity
8
0
100
AcDbSpline
70
0
71
2
72
6
73
3
74
0
42
0.000000001
43
0.0000000001
44
0.0000000001
40
0
40
0
40
0
40
1
40
1
40
1
10
-31.814477948347736
20
31.989963529661807
30
0
10
-31.588490513960529
20
32.187704322889957
30
0
10
-31.588490513960529
20
32.540811775282535
30
0
0
SPLINE
5
200
100
AcDbEntity
8
0
100
AcDbSpline
70
0
71
2
72
6
73
3
74
0
42
0.000000001
43
0.0000000001
44
0.0000000001
40
0
40
0
40
0
40
1
40
1
40
1
10
-31.588490513960529
20
32.540811775282535
30
0
10
-31.588490513960529
20
32.922167060927066
30
0
10
-31.913347748915363
20
33.105782745436343
30
0
0
SPLINE
5
201
100
AcDbEntity
8
0
100
AcDbSpline
70
0
71
2
72
6
73
3
74
0
42
0.000000001
43
0.0000000001
44
0.0000000001
40
0
40
0
40
0
40
1
40
1
40
1
10
-31.913347748915363
20
33.105782745436343
30
0
10
-32.238207368055988
20
33.289399622038516
30
0
10
-32.591314820448567
20
33.289399622038516
30
0
0
SPLINE
5
202
100
AcDbEntity
8
0
100
AcDbSpline
70
0
71
2
72
6
73
3
74
0
42
0.000000001
43
0.0000000001
44
0.0000000001
40
0
40
0
40
0
40
1
40
1
40
1
10
-32.591314820448567
20
33.289399622038516
30
0
10
-32.902048138777424
20
33.289399622038516
30
0
10
-33.184536008040119
20
33.204653738096866
30
0
0
SPLINE
5
203
100
AcDbEntity
8
0
100
AcDbSpline
70
0
71
2
72
6
73
3
74
0
42
0.000000001
43
0.0000000001
44
0.0000000001
40
0
40
0
40
0
40
1
40
1
40
1
10
-33.184536008040119
20
33.204653738096866
30
0
10
-33.481145409743
20
33.119907854155215
30
0
10
-33.707132844130207
20
32.964540002897891
30
0
0
SPLINE
5
204
100
AcDbEntity
8
0
100
AcDbSpline
70
0
71
2
72
6
73
3
74
0
42
0.000000001
43
0.0000000001
44
0.0000000001
40
0
40
0
40
0
40
1
40
1
40
1
10
-33.707132844130207
20
32.964540002897891
30
0
10
-33.933122662703205
20
32.809173343733463
30
0
10
-34.060240296522785
20
32.569059608534488
30
0
0
SPLINE
5
205
100
AcDbEntity
8
0
100
AcDbSpline
70
0
71
2
72
6
73
3
74
0
42
0.000000001
43
0.0000000001
44
0.0000000001
40
0
40
0
40
0
40
1
40
1
40
1
10
-34.060240296522785
20
32.569059608534488
30
0
10
-34.201484231154133
20
32.328947065428409
30
0
10
-34.201484231154133
20
32.004088638380679
30
0
0
LINE
5
206
100
AcDbEntity
8
0
100
AcDbLine
10
-34.201484231154133
20
32.004088638380679
30
0
11
-34.201484231154133
21
31.552110193327579
31
0
0
LINE
5
207
100
AcDbEntity
8
0
100
AcDbLine
10
-34.201484231154133
20
31.552110193327579
30
0
11
-33.678885010878254
21
31.552110193327579
31
0
0
LINE
5
208
100
AcDbEntity
8
0
100
AcDbLine
10
-37.478318719069172
20
27.696178434446963
30
0
11
-39.596963433424641
21
27.696178434446963
31
0
0
LINE
5
209
100
AcDbEntity
8
0
100
AcDbLine
10
-39.596963433424641
20
27.69617843444696
30
0
11
-39.596963433424641
21
28.797873733595519
31
0
0
LINE
5
210
100
AcDbEntity
8
0
100
AcDbLine
10
-39.596963433424641
20
28.797873733595519
30
0
11
-39.625211266676594
21
28.797873733595519
31
0
0
SPLINE
5
211
100
AcDbEntity
8
0
100
AcDbSpline
70
0
71
2
72
6
73
3
74
0
42
0.000000001
43
0.0000000001
44
0.0000000001
40
0
40
0
40
0
40
1
40
1
40
1
10
-39.625211266676594
20
28.797873733595519
30
0
10
-39.964194802443195
20
28.162280200079589
30
0
10
-40.430298356215168
20
27.851545689657836
30
0
0
SPLINE
5
212
100
AcDbEntity
8
0
100
AcDbSpline
70
0
71
2
72
6
73
3
74
0
42
0.000000001
43
0.0000000001
44
0.0000000001
40
0
40
0
40
0
40
1
40
1
40
1
10
-40.430298356215168
20
27.851545689657836
30
0
10
-40.89639952580135
20
27.526687262610107
30
0
10
-41.602614430586506
20
27.526687262610107
30
0
0
SPLINE
5
213
100
AcDbEntity
8
0
100
AcDbSpline
70
0
71
2
72
6
73
3
74
0
42
0.000000001
43
0.0000000001
44
0.0000000001
40
0
40
0
40
0
40
1
40
1
40
1
10
-41.602614430586506
20
27.526687262610107
30
0
10
-41.786230115095783
20
27.526687262610107
30
0
10
-41.969845799605061
20
27.540811179236083
30
0
0
SPLINE
5
214
100
AcDbEntity
8
0
100
AcDbSpline
70
0
71
2
72
6
73
3
74
0
42
0.000000001
43
0.0000000001
44
0.0000000001
40
0
40
0
40
0
40
1
40
1
40
1
10
-41.969845799605061
20
27.540811179236083
30
0
10
-42.153461484114338
20
27.554935691908508
30
0
10
-42.308829335371662
20
27.597308633879333
30
0
0
LINE
5
215
100
AcDbEntity
8
0
100
AcDbLine
10
-42.308829335371662
20
27.597308633879333
30
0
11
-42.308829335371662
21
29.532337067679077
31
0
0
SPLINE
5
216
100
AcDbEntity
8
0
100
AcDbSpline
70
0
71
2
72
6
73
3
74
0
42
0.000000001
43
0.0000000001
44
0.0000000001
40
0
40
0
40
0
40
1
40
1
40
1
10
-42.308829335371662
20
29.532337067679077
30
0
10
-42.082839516798664
20
29.461715696409851
30
0
10
-41.856849698225666
20
29.433466671065002
30
0
0
SPLINE
5
217
100
AcDbEntity
8
0
100
AcDbSpline
70
0
71
2
72
6
73
3
74
0
42
0.000000001
43
0.0000000001
44
0.0000000001
40
0
40
0
40
0
40
1
40
1
40
1
10
-41.856849698225666
20
29.433466671065002
30
0
10
-41.644986180464436
20
29.391093729094177
30
0
10
-41.404872445265461
20
29.391093729094177
30
0
0
SPLINE
5
218
100
AcDbEntity
8
0
100
AcDbSpline
70
0
71
2
72
6
73
3
74
0
42
0.000000001
43
0.0000000001
44
0.0000000001
40
0
40
0
40
0
40
1
40
1
40
1
10
-41.404872445265461
20
29.391093729094177
30
0
10
-40.797529725233723
20
29.391093729094177
30
0
10
-40.444422272841145
20
29.560585496977478
30
0
0
SPLINE
5
219
100
AcDbEntity
8
0
100
AcDbSpline
70
0
71
2
72
6
73
3
74
0
42
0.000000001
43
0.0000000001
44
0.0000000001
40
0
40
0
40
0
40
1
40
1
40
1
10
-40.444422272841145
20
29.560585496977478
30
0
10
-40.091314820448567
20
29.730077264860778
30
0
10
-39.893572835127522
20
30.040811775282531
30
0
0
SPLINE
5
220
100
AcDbEntity
8
0
100
AcDbSpline
70
0
71
2
72
6
73
3
74
0
42
0.000000001
43
0.0000000001
44
0.0000000001
40
0
40
0
40
0
40
1
40
1
40
1
10
-39.893572835127522
20
30.040811775282531
30
0
10
-39.709957150618244
20
30.33742177303186
30
0
10
-39.653461484114338
20
30.761150596693668
30
0
0
SPLINE
5
221
100
AcDbEntity
8
0
100
AcDbSpline
70
0
71
2
72
6
73
3
74
0
42
0.000000001
43
0.0000000001
44
0.0000000001
40
0
40
0
40
0
40
1
40
1
40
1
10
-39.653461484114338
20
30.761150596693668
30
0
10
-39.596963433424641
20
31.184878824309024
30
0
10
-39.596963433424641
20
31.693354127958926
30
0
0
LINE
5
222
100
AcDbEntity
8
0
100
AcDbLine
10
-39.596963433424641
20
31.693354127958926
30
0
11
-39.596963433424641
21
34.560585496977481
31
0
0
LINE
5
223
100
AcDbEntity
8
0
100
AcDbLine
10
-39.596963433424641
20
34.560585496977481
30
0
11
-37.478318719069172
21
34.560585496977481
31
0
0
LINE
5
224
100
AcDbEntity
8
0
100
AcDbLine
10
-37.478318719069172
20
34.560585496977481
30
0
11
-37.478318719069172
21
27.696178434446963
31
0
0
LINE
5
225
100
AcDbEntity
8
0
100
AcDbLine
10
-54.611089734236408
20
34.560585496977481
30
0
11
-52.66193678776424
21
34.560585496977481
31
0
0
LINE
5
226
100
AcDbEntity
8
0
100
AcDbLine
10
-52.66193678776424
20
34.560585496977481
30
0
11
-52.66193678776424
21
33.656630991057071
31
0
0
LINE
5
227
100
AcDbEntity
8
0
100
AcDbLine
10
-52.66193678776424
20
33.656630991057071
30
0
11
-52.633688954512287
21
33.656630991057071
31
0
0
SPLINE
5
228
100
AcDbEntity
8
0
100
AcDbSpline
70
0
71
2
72
6
73
3
74
0
42
0.000000001
43
0.0000000001
44
0.0000000001
40
0
40
0
40
0
40
1
40
1
40
1
10
-52.633688954512287
20
33.656630991057071
30
0
10
-52.506568936506916
20
33.840246675566348
30
0
10
-52.294705418745686
20
34.037986276701602
30
0
0
SPLINE
5
229
100
AcDbEntity
8
0
100
AcDbSpline
70
0
71
2
72
6
73
3
74
0
42
0.000000001
43
0.0000000001
44
0.0000000001
40
0
40
0
40
0
40
1
40
1
40
1
10
-52.294705418745686
20
34.037986276701602
30
0
10
-52.096965817610432
20
34.221601961210879
30
0
10
-51.814477948347736
20
34.376969812468204
30
0
0
SPLINE
5
230
100
AcDbEntity
8
0
100
AcDbSpline
70
0
71
2
72
6
73
3
74
0
42
0.000000001
43
0.0000000001
44
0.0000000001
40
0
40
0
40
0
40
1
40
1
40
1
10
-51.814477948347736
20
34.376969812468204
30
0
10
-51.546113995711018
20
34.532336471632632
30
0
10
-51.207135228315998
20
34.631207464293155
30
0
0
SPLINE
5
231
100
AcDbEntity
8
0
100
AcDbSpline
70
0
71
2
72
6
73
3
74
0
42
0.000000001
43
0.0000000001
44
0.0000000001
40
0
40
0
40
0
40
1
40
1
40
1
10
-51.207135228315998
20
34.631207464293155
30
0
10
-50.882275609175373
20
34.730077264860782
30
0
10
-50.529168156782795
20
34.730077264860782
30
0
0
SPLINE
5
232
100
AcDbEntity
8
0
100
AcDbSpline
70
0
71
2
72
6
73
3
74
0
42
0.000000001
43
0.0000000001
44
0.0000000001
40
0
40
0
40
0
40
1
40
1
40
1
10
-50.529168156782795
20
34.730077264860782
30
0
10
-49.766455201307942
20
34.730077264860782
30
0
10
-49.144986180464436
20
34.475839613035831
30
0
0
SPLINE
5
233
100
AcDbEntity
8
0
100
AcDbSpline
70
0
71
2
72
6
73
3
74
0
42
0.000000001
43
0.0000000001
44
0.0000000001
40
0
40
0
40
0
40
1
40
1
40
1
10
-49.144986180464436
20
34.475839613035831
30
0
10
-48.52351715962093
20
34.207478044584903
30
0
10
-48.071539906660725
20
33.741376874998721
30
0
0
SPLINE
5
234
100
AcDbEntity
8
0
100
AcDbSpline
70
0
71
2
72
6
73
3
74
0
42
0.000000001
43
0.0000000001
44
0.0000000001
40
0
40
0
40
0
40
1
40
1
40
1
10
-48.071539906660725
20
33.741376874998721
30
0
10
-47.633686570326496
20
33.261150596693668
30
0
10
-47.393572835127522
20
32.611432550505313
30
0
0
SPLINE
5
235
100
AcDbEntity
8
0
100
AcDbSpline
70
0
71
2
72
6
73
3
74
0
42
0.000000001
43
0.0000000001
44
0.0000000001
40
0
40
0
40
0
40
1
40
1
40
1
10
-47.393572835127522
20
32.611432550505313
30
0
10
-47.153461484114338
20
31.961715696409851
30
0
10
-47.153461484114338
20
31.18487882430902
30
0
0
SPLINE
5
236
100
AcDbEntity
8
0
100
AcDbSpline
70
0
71
2
72
6
73
3
74
0
42
0.000000001
43
0.0000000001
44
0.0000000001
40
0
40
0
40
0
40
1
40
1
40
1
10
-47.153461484114338
20
31.18487882430902
30
0
10
-47.153461484114338
20
30.464540002897888
30
0
10
-47.365325001875568
20
29.814823148802429
30
0
0
SPLINE
5
237
100
AcDbEntity
8
0
100
AcDbSpline
70
0
71
2
72
6
73
3
74
0
42
0.000000001
43
0.0000000001
44
0.0000000001
40
0
40
0
40
0
40
1
40
1
40
1
10
-47.365325001875568
20
29.814823148802429
30
0
10
-47.591314820448567
20
29.150981185988098
30
0
10
-47.986794022719074
20
28.642506478384643
30
0
0
SPLINE
5
238
100
AcDbEntity
8
0
100
AcDbSpline
70
0
71
2
72
6
73
3
74
0
42
0.000000001
43
0.0000000001
44
0.0000000001
40
0
40
0
40
0
40
1
40
1
40
1
10
-47.986794022719074
20
28.642506478384643
30
0
10
-48.39639952580135
20
28.134031770781188
30
0
10
-48.975494412581135
20
27.83742177303186
30
0
0
SPLINE
5
239
100
AcDbEntity
8
0
100
AcDbSpline
70
0
71
2
72
6
73
3
74
0
42
0.000000001
43
0.0000000001
44
0.0000000001
40
0
40
0
40
0
40
1
40
1
40
1
10
-48.975494412581135
20
27.83742177303186
30
0
10
-49.554591683546711
20
27.526687262610107
30
0
10
-50.289052037398029
20
27.526687262610107
30
0
0
SPLINE
5
240
100
AcDbEntity
8
0
100
AcDbSpline
70
0
71
2
72
6
73
3
74
0
42
0.000000001
43
0.0000000001
44
0.0000000001
40
0
40
0
40
0
40
1
40
1
40
1
10
-50.289052037398029
20
27.526687262610107
30
0
10
-50.952895192305256
20
27.526687262610107
30
0
10
-51.517866162459065
20
27.738551376417785
30
0
0
SPLINE
5
241
100
AcDbEntity
8
0
100
AcDbSpline
70
0
71
2
72
6
73
3
74
0
42
0.000000001
43
0.0000000001
44
0.0000000001
40
0
40
0
40
0
40
1
40
1
40
1
10
-51.517866162459065
20
27.738551376417785
30
0
10
-52.096965817610432
20
27.936291573599487
30
0
10
-52.464197186628986
20
28.430641768530517
30
0
0
LINE
5
242
100
AcDbEntity
8
0
100
AcDbLine
10
-52.464197186628986
20
28.430641768530517
30
0
11
-52.49244501988094
21
28.430641768530517
31
0
0
LINE
5
243
100
AcDbEntity
8
0
100
AcDbLine
10
-52.49244501988094
20
28.430641768530517
30
0
11
-52.49244501988094
21
23.88261961753717
31
0
0
LINE
5
244
100
AcDbEntity
8
0
100
AcDbLine
10
-52.49244501988094
20
23.88261961753717
30
0
11
-54.611089734236408
21
23.88261961753717
31
0
0
LINE
5
245
100
AcDbEntity
8
0
100
AcDbLine
10
-54.611089734236408
20
23.88261961753717
30
0
11
-54.611089734236408
21
34.560585496977481
31
0
0
SPLINE
5
246
100
AcDbEntity
8
0
100
AcDbSpline
70
0
71
2
72
6
73
3
74
0
42
0.000000001
43
0.0000000001
44
0.0000000001
40
0
40
0
40
0
40
1
40
1
40
1
10
-52.66193678776424
20
31.128381965712219
30
0
10
-52.66193678776424
20
30.351546285704284
30
0
10
-52.209957150618244
20
29.87132000739923
30
0
0
SPLINE
5
247
100
AcDbEntity
8
0
100
AcDbSpline
70
0
71
2
72
6
73
3
74
0
42
0.000000001
43
0.0000000001
44
0.0000000001
40
0
40
0
40
0
40
1
40
1
40
1
10
-52.209957150618244
20
29.87132000739923
30
0
10
-51.772106198469807
20
29.391093729094177
30
0
10
-50.967019108931233
20
29.391093729094177
30
0
0
SPLINE
5
248
100
AcDbEntity
8
0
100
AcDbSpline
70
0
71
2
72
6
73
3
74
0
42
0.000000001
43
0.0000000001
44
0.0000000001
40
0
40
0
40
0
40
1
40
1
40
1
10
-50.967019108931233
20
29.391093729094177
30
0
10
-50.16193678776424
20
29.391093729094177
30
0
10
-49.709957150618244
20
29.87132000739923
30
0
0
SPLINE
5
249
100
AcDbEntity
8
0
100
AcDbSpline
70
0
71
2
72
6
73
3
74
0
42
0.000000001
43
0.0000000001
44
0.0000000001
40
0
40
0
40
0
40
1
40
1
40
1
10
-49.709957150618244
20
29.87132000739923
30
0
10
-49.272103814284016
20
30.351546285704284
30
0
10
-49.272103814284016
20
31.128381965712219
30
0
0
SPLINE
5
250
100
AcDbEntity
8
0
100
AcDbSpline
70
0
71
2
72
6
73
3
74
0
42
0.000000001
43
0.0000000001
44
0.0000000001
40
0
40
0
40
0
40
1
40
1
40
1
10
-49.272103814284016
20
31.128381965712219
30
0
10
-49.272103814284016
20
31.905217645720153
30
0
10
-49.709957150618244
20
32.385443924025211
30
0
0
SPLINE
5
251
100
AcDbEntity
8
0
100
AcDbSpline
70
0
71
2
72
6
73
3
74
0
42
0.000000001
43
0.0000000001
44
0.0000000001
40
0
40
0
40
0
40
1
40
1
40
1
10
-49.709957150618244
20
32.385443924025211
30
0
10
-50.16193678776424
20
32.865670202330264
30
0
10
-50.967019108931233
20
32.865670202330264
30
0
0
SPLINE
5
252
100
AcDbEntity
8
0
100
AcDbSpline
70
0
71
2
72
6
73
3
74
0
42
0.000000001
43
0.0000000001
44
0.0000000001
40
0
40
0
40
0
40
1
40
1
40
1
10
-50.967019108931233
20
32.865670202330264
30
0
10
-51.772106198469807
20
32.865670202330264
30
0
10
-52.209957150618244
20
32.385443924025211
30
0
0
SPLINE
5
253
100
AcDbEntity
8
0
100
AcDbSpline
70
0
71
2
72
6
73
3
74
0
42
0.000000001
43
0.0000000001
44
0.0000000001
40
0
40
0
40
0
40
1
40
1
40
1
10
-52.209957150618244
20
32.385443924025211
30
0
10
-52.66193678776424
20
31.905217645720153
30
0
10
-52.66193678776424
20
31.128381965712219
30
0
0
SPLINE
5
254
100
AcDbEntity
8
0
100
AcDbSpline
70
0
71
2
72
6
73
3
74
0
42
0.000000001
43
0.0000000001
44
0.0000000001
40
0
40
0
40
0
40
1
40
1
40
1
10
-62.803180722395588
20
33.374144313887271
30
0
10
-62.294705418745686
20
34.023862360075626
30
0
10
-61.517870930830647
20
34.376969812468204
30
0
0
SPLINE
5
255
100
AcDbEntity
8
0
100
AcDbSpline
70
0
71
2
72
6
73
3
74
0
42
0.000000001
43
0.0000000001
44
0.0000000001
40
0
40
0
40
0
40
1
40
1
40
1
10
-61.517870930830647
20
34.376969812468204
30
0
10
-60.741031674544026
20
34.730077264860782
30
0
10
-59.90770152012508
20
34.730077264860782
30
0
0
SPLINE
5
256
100
AcDbEntity
8
0
100
AcDbSpline
70
0
71
2
72
6
73
3
74
0
42
0.000000001
43
0.0000000001
44
0.0000000001
40
0
40
0
40
0
40
1
40
1
40
1
10
-59.90770152012508
20
34.730077264860782
30
0
10
-59.116738347212483
20
34.730077264860782
30
0
10
-58.410523442427326
20
34.475839613035831
30
0
0
SPLINE
5
257
100
AcDbEntity
8
0
100
AcDbSpline
70
0
71
2
72
6
73
3
74
0
42
0.000000001
43
0.0000000001
44
0.0000000001
40
0
40
0
40
0
40
1
40
1
40
1
10
-58.410523442427326
20
34.475839613035831
30
0
10
-57.718432454268147
20
34.221601961210879
30
0
10
-57.195833233992268
20
33.755500791624698
30
0
0
SPLINE
5
258
100
AcDbEntity
8
0
100
AcDbSpline
70
0
71
2
72
6
73
3
74
0
42
0.000000001
43
0.0000000001
44
0.0000000001
40
0
40
0
40
0
40
1
40
1
40
1
10
-57.195833233992268
20
33.755500791624698
30
0
10
-56.687362698713947
20
33.275274513319644
30
0
10
-56.390750912825276
20
32.611432550505313
30
0
0
SPLINE
5
259
100
AcDbEntity
8
0
100
AcDbSpline
70
0
71
2
72
6
73
3
74
0
42
0.000000001
43
0.0000000001
44
0.0000000001
40
0
40
0
40
0
40
1
40
1
40
1
10
-56.390750912825276
20
32.611432550505313
30
0
10
-56.094139126936604
20
31.947591779783874
30
0
10
-56.094139126936604
20
31.128381965712219
30
0
0
SPLINE
5
260
100
AcDbEntity
8
0
100
AcDbSpline
70
0
71
2
72
6
73
3
74
0
42
0.000000001
43
0.0000000001
44
0.0000000001
40
0
40
0
40
0
40
1
40
1
40
1
10
-56.094139126936604
20
31.128381965712219
30
0
10
-56.094139126936604
20
30.309173343733459
30
0
10
-56.390750912825276
20
29.645331380919128
30
0
0
SPLINE
5
261
100
AcDbEntity
8
0
100
AcDbSpline
70
0
71
2
72
6
73
3
74
0
42
0.000000001
43
0.0000000001
44
0.0000000001
40
0
40
0
40
0
40
1
40
1
40
1
10
-56.390750912825276
20
29.645331380919128
30
0
10
-56.687362698713947
20
28.981489418104797
30
0
10
-57.195833233992268
20
28.515387652472167
30
0
0
SPLINE
5
262
100
AcDbEntity
8
0
100
AcDbSpline
70
0
71
2
72
6
73
3
74
0
42
0.000000001
43
0.0000000001
44
0.0000000001
40
0
40
0
40
0
40
1
40
1
40
1
10
-57.195833233992268
20
28.515387652472167
30
0
10
-57.718432454268147
20
28.035161970213561
30
0
10
-58.410523442427326
20
27.78092431838861
30
0
0
SPLINE
5
263
100
AcDbEntity
8
0
100
AcDbSpline
70
0
71
2
72
6
73
3
74
0
42
0.000000001
43
0.0000000001
44
0.0000000001
40
0
40
0
40
0
40
1
40
1
40
1
10
-58.410523442427326
20
27.78092431838861
30
0
10
-59.116738347212483
20
27.526687262610107
30
0
10
-59.90770152012508
20
27.526687262610107
30
0
0
SPLINE
5
264
100
AcDbEntity
8
0
100
AcDbSpline
70
0
71
2
72
6
73
3
74
0
42
0.000000001
43
0.0000000001
44
0.0000000001
40
0
40
0
40
0
40
1
40
1
40
1
10
-59.90770152012508
20
27.526687262610107
30
0
10
-60.64216425816219
20
27.526687262610107
30
0
10
-61.235383061567951
20
27.78092431838861
30
0
0
SPLINE
5
265
100
AcDbEntity
8
0
100
AcDbSpline
70
0
71
2
72
6
73
3
74
0
42
0.000000001
43
0.0000000001
44
0.0000000001
40
0
40
0
40
0
40
1
40
1
40
1
10
-61.235383061567951
20
27.78092431838861
30
0
10
-61.84272578159969
20
28.035161970213561
30
0
10
-62.252333668867756
20
28.515387652472167
30
0
0
SPLINE
5
266
100
AcDbEntity
8
0
100
AcDbSpline
70
0
71
2
72
6
73
3
74
0
42
0.000000001
43
0.0000000001
44
0.0000000001
40
0
40
0
40
0
40
1
40
1
40
1
10
-62.252333668867756
20
28.515387652472167
30
0
10
-62.676060704390217
20
28.981489418104797
30
0
10
-62.902048138777424
20
29.645331380919128
30
0
0
SPLINE
5
267
100
AcDbEntity
8
0
100
AcDbSpline
70
0
71
2
72
6
73
3
74
0
42
0.000000001
43
0.0000000001
44
0.0000000001
40
0
40
0
40
0
40
1
40
1
40
1
10
-62.902048138777424
20
29.645331380919128
30
0
10
-63.128040341536213
20
30.309173343733459
30
0
10
-63.128040341536213
20
31.128381965712219
30
0
0
LINE
5
268
100
AcDbEntity
8
0
100
AcDbLine
10
-63.128040341536213
20
31.128381965712219
30
0
11
-63.128040341536213
21
31.79222392852655
31
0
0
LINE
5
269
100
AcDbEntity
8
0
100
AcDbLine
10
-63.128040341536213
20
31.79222392852655
30
0
11
-58.212783841292072
21
31.79222392852655
31
0
0
SPLINE
5
270
100
AcDbEntity
8
0
100
AcDbSpline
70
0
71
2
72
6
73
3
74
0
42
0.000000001
43
0.0000000001
44
0.0000000001
40
0
40
0
40
0
40
1
40
1
40
1
10
-58.212783841292072
20
31.79222392852655
30
0
10
-58.339903859297443
20
32.399569032744083
30
0
10
-58.763630894819904
20
32.766800401762637
30
0
0
SPLINE
5
271
100
AcDbEntity
8
0
100
AcDbSpline
70
0
71
2
72
6
73
3
74
0
42
0.000000001
43
0.0000000001
44
0.0000000001
40
0
40
0
40
0
40
1
40
1
40
1
10
-58.763630894819904
20
32.766800401762637
30
0
10
-59.187362698713947
20
33.119907854155215
30
0
10
-59.808829335371662
20
33.119907854155215
30
0
0
SPLINE
5
272
100
AcDbEntity
8
0
100
AcDbSpline
70
0
71
2
72
6
73
3
74
0
42
0.000000001
43
0.0000000001
44
0.0000000001
40
0
40
0
40
0
40
1
40
1
40
1
10
-59.808829335371662
20
33.119907854155215
30
0
10
-60.331428555647541
20
33.119907854155215
30
0
10
-60.684536008040119
20
32.893919227675113
30
0
0
SPLINE
5
273
100
AcDbEntity
8
0
100
AcDbSpline
70
0
71
2
72
6
73
3
74
0
42
0.000000001
43
0.0000000001
44
0.0000000001
40
0
40
0
40
0
40
1
40
1
40
1
10
-60.684536008040119
20
32.893919227675113
30
0
10
-61.051767377058674
20
32.653805492476138
30
0
10
-61.320131329695393
20
32.286574123457584
30
0
0
LINE
5
274
100
AcDbEntity
8
0
100
AcDbLine
10
-61.320131329695393
20
32.286574123457584
30
0
11
-62.803180722395588
21
33.374144313887271
31
0
0
SPLINE
5
275
100
AcDbEntity
8
0
100
AcDbSpline
70
0
71
2
72
6
73
3
74
0
42
0.000000001
43
0.0000000001
44
0.0000000001
40
0
40
0
40
0
40
1
40
1
40
1
10
-61.009395627180744
20
30.351546285704284
30
0
10
-61.023519543806721
20
29.814823148802429
30
0
10
-60.656288174788166
20
29.433466671065002
30
0
0
SPLINE
5
276
100
AcDbEntity
8
0
100
AcDbSpline
70
0
71
2
72
6
73
3
74
0
42
0.000000001
43
0.0000000001
44
0.0000000001
40
0
40
0
40
0
40
1
40
1
40
1
10
-60.656288174788166
20
29.433466671065002
30
0
10
-60.289056805769611
20
29.052110789374023
30
0
10
-59.709961918989826
20
29.052110789374023
30
0
0
SPLINE
5
277
100
AcDbEntity
8
0
100
AcDbSpline
70
0
71
2
72
6
73
3
74
0
42
0.000000001
43
0.0000000001
44
0.0000000001
40
0
40
0
40
0
40
1
40
1
40
1
10
-59.709961918989826
20
29.052110789374023
30
0
10
-59.356854466597248
20
29.052110789374023
30
0
10
-59.088490513960529
20
29.165105102614074
30
0
0
SPLINE
5
278
100
AcDbEntity
8
0
100
AcDbSpline
70
0
71
2
72
6
73
3
74
0
42
0.000000001
43
0.0000000001
44
0.0000000001
40
0
40
0
40
0
40
1
40
1
40
1
10
-59.088490513960529
20
29.165105102614074
30
0
10
-58.820131329695393
20
29.278099415854125
30
0
10
-58.622386960188557
20
29.461715696409851
30
0
0
SPLINE
5
279
100
AcDbEntity
8
0
100
AcDbSpline
70
0
71
2
72
6
73
3
74
0
42
0.000000001
43
0.0000000001
44
0.0000000001
40
0
40
0
40
0
40
1
40
1
40
1
10
-58.622386960188557
20
29.461715696409851
30
0
10
-58.438771275679279
20
29.631206868246704
30
0
10
-58.325779942671467
20
29.87132000739923
30
0
0
SPLINE
5
280
100
AcDbEntity
8
0
100
AcDbSpline
70
0
71
2
72
6
73
3
74
0
42
0.000000001
43
0.0000000001
44
0.0000000001
40
0
40
0
40
0
40
1
40
1
40
1
10
-58.325779942671467
20
29.87132000739923
30
0
10
-58.226907757918049
20
30.097308633879333
30
0
10
-58.212783841292072
20
30.351546285704284
30
0
0
LINE
5
281
100
AcDbEntity
8
0
100
AcDbLine
10
-58.212783841292072
20
30.351546285704284
30
0
11
-61.009395627180744
21
30.351546285704284
31
0
0
LINE
5
282
100
AcDbEntity
8
0
100
AcDbLine
10
-64.413345364729565
20
27.69617843444696
30
0
11
-66.447246579329175
21
27.69617843444696
31
0
0
LINE
5
283
100
AcDbEntity
8
0
100
AcDbLine
10
-66.447246579329175
20
27.69617843444696
30
0
11
-66.447246579329175
21
28.628381965712219
31
0
0
LINE
5
284
100
AcDbEntity
8
0
100
AcDbLine
10
-66.447246579329175
20
28.628381965712219
30
0
11
-66.475494412581128
21
28.628381965712219
31
0
0
SPLINE
5
285
100
AcDbEntity
8
0
100
AcDbSpline
70
0
71
2
72
6
73
3
74
0
42
0.000000001
43
0.0000000001
44
0.0000000001
40
0
40
0
40
0
40
1
40
1
40
1
10
-66.475494412581128
20
28.628381965712219
30
0
10
-66.574361828962964
20
28.430641768530517
30
0
10
-66.757977513472241
20
28.232901571348815
30
0
0
SPLINE
5
286
100
AcDbEntity
8
0
100
AcDbSpline
70
0
71
2
72
6
73
3
74
0
42
0.000000001
43
0.0000000001
44
0.0000000001
40
0
40
0
40
0
40
1
40
1
40
1
10
-66.757977513472241
20
28.232901571348815
30
0
10
-66.941593197981518
20
28.035161970213561
30
0
10
-67.195833233992261
20
27.879794715002685
30
0
0
SPLINE
5
287
100
AcDbEntity
8
0
100
AcDbSpline
70
0
71
2
72
6
73
3
74
0
42
0.000000001
43
0.0000000001
44
0.0000000001
40
0
40
0
40
0
40
1
40
1
40
1
10
-67.195833233992261
20
27.879794715002685
30
0
10
-67.450068501631421
20
27.724427459791809
30
0
10
-67.774928120772046
20
27.625557063177734
30
0
0
SPLINE
5
288
100
AcDbEntity
8
0
100
AcDbSpline
70
0
71
2
72
6
73
3
74
0
42
0.000000001
43
0.0000000001
44
0.0000000001
40
0
40
0
40
0
40
1
40
1
40
1
10
-67.774928120772046
20
27.625557063177734
30
0
10
-68.099787739912671
20
27.526687262610107
30
0
10
-68.481143025557202
20
27.526687262610107
30
0
0
SPLINE
5
289
100
AcDbEntity
8
0
100
AcDbSpline
70
0
71
2
72
6
73
3
74
0
42
0.000000001
43
0.0000000001
44
0.0000000001
40
0
40
0
40
0
40
1
40
1
40
1
10
-68.481143025557202
20
27.526687262610107
30
0
10
-69.201481846968335
20
27.526687262610107
30
0
10
-69.752328900496167
20
27.823297260359436
30
0
0
SPLINE
5
290
100
AcDbEntity
8
0
100
AcDbSpline
70
0
71
2
72
6
73
3
74
0
42
0.000000001
43
0.0000000001
44
0.0000000001
40
0
40
0
40
0
40
1
40
1
40
1
10
-69.752328900496167
20
27.823297260359436
30
0
10
-70.317299870649975
20
28.119907258108764
30
0
10
-70.599787739912671
20
28.755500791624694
30
0
0
SPLINE
5
291
100
AcDbEntity
8
0
100
AcDbSpline
70
0
71
2
72
6
73
3
74
0
42
0.000000001
43
0.0000000001
44
0.0000000001
40
0
40
0
40
0
40
1
40
1
40
1
10
-70.599787739912671
20
28.755500791624694
30
0
10
-70.967019108931225
20
28.091658828810363
30
0
10
-71.489618329207104
20
27.809173343733455
30
0
0
SPLINE
5
292
100
AcDbEntity
8
0
100
AcDbSpline
70
0
71
2
72
6
73
3
74
0
42
0.000000001
43
0.0000000001
44
0.0000000001
40
0
40
0
40
0
40
1
40
1
40
1
10
-71.489618329207104
20
27.809173343733455
30
0
10
-72.012217549482983
20
27.526687262610103
30
0
10
-72.774928120772046
20
27.526687262610103
30
0
0
SPLINE
5
293
100
AcDbEntity
8
0
100
AcDbSpline
70
0
71
2
72
6
73
3
74
0
42
0.000000001
43
0.0000000001
44
0.0000000001
40
0
40
0
40
0
40
1
40
1
40
1
10
-72.774928120772046
20
27.526687262610103
30
0
10
-73.467019108931225
20
27.526687262610103
30
0
10
-73.933122662703198
20
27.76680040176263
30
0
0
SPLINE
5
294
100
AcDbEntity
8
0
100
AcDbSpline
70
0
71
2
72
6
73
3
74
0
42
0.000000001
43
0.0000000001
44
0.0000000001
40
0
40
0
40
0
40
1
40
1
40
1
10
-73.933122662703198
20
27.76680040176263
30
0
10
-74.413345364729565
20
27.992789028242733
30
0
10
-74.681709317366284
20
28.402393339232113
30
0
0
SPLINE
5
295
100
AcDbEntity
8
0
100
AcDbSpline
70
0
71
2
72
6
73
3
74
0
42
0.000000001
43
0.0000000001
44
0.0000000001
40
0
40
0
40
0
40
1
40
1
40
1
10
-74.681709317366284
20
28.402393339232113
30
0
10
-74.964192418257397
20
28.797873733595516
30
0
10
-75.077188519636792
20
29.348720787123348
30
0
0
SPLINE
5
296
100
AcDbEntity
8
0
100
AcDbSpline
70
0
71
2
72
6
73
3
74
0
42
0.000000001
43
0.0000000001
44
0.0000000001
40
0
40
0
40
0
40
1
40
1
40
1
10
-75.077188519636792
20
29.348720787123348
30
0
10
-75.204308537642163
20
29.885443924025203
30
0
10
-75.204308537642163
20
30.506912944868709
30
0
0
LINE
5
297
100
AcDbEntity
8
0
100
AcDbLine
10
-75.204308537642163
20
30.506912944868709
30
0
11
-75.204308537642163
21
34.560585496977474
31
0
0
LINE
5
298
100
AcDbEntity
8
0
100
AcDbLine
10
-75.204308537642163
20
34.560585496977474
30
0
11
-73.085663823286694
21
34.560585496977474
31
0
0
LINE
5
299
100
AcDbEntity
8
0
100
AcDbLine
10
-73.085663823286694
20
34.560585496977474
30
0
11
-73.085663823286694
21
30.563409803465511
31
0
0
SPLINE
5
300
100
AcDbEntity
8
0
100
AcDbSpline
70
0
71
2
72
6
73
3
74
0
42
0.000000001
43
0.0000000001
44
0.0000000001
40
0
40
0
40
0
40
1
40
1
40
1
10
-73.085663823286694
20
30.563409803465511
30
0
10
-73.085663823286694
20
30.083184717253353
30
0
10
-72.873800305525464
20
29.744201181486751
30
0
0
SPLINE
5
301
100
AcDbEntity
8
0
100
AcDbSpline
70
0
71
2
72
6
73
3
74
0
42
0.000000001
43
0.0000000001
44
0.0000000001
40
0
40
0
40
0
40
1
40
1
40
1
10
-72.873800305525464
20
29.744201181486751
30
0
10
-72.676055936018628
20
29.391093729094173
30
0
10
-72.153461484114331
20
29.391093729094173
30
0
0
SPLINE
5
302
100
AcDbEntity
8
0
100
AcDbSpline
70
0
71
2
72
6
73
3
74
0
42
0.000000001
43
0.0000000001
44
0.0000000001
40
0
40
0
40
0
40
1
40
1
40
1
10
-72.153461484114331
20
29.391093729094173
30
0
10
-71.786230115095776
20
29.391093729094173
30
0
10
-71.531990079085034
20
29.518212555006649
30
0
0
SPLINE
5
303
100
AcDbEntity
8
0
100
AcDbSpline
70
0
71
2
72
6
73
3
74
0
42
0.000000001
43
0.0000000001
44
0.0000000001
40
0
40
0
40
0
40
1
40
1
40
1
10
-71.531990079085034
20
29.518212555006649
30
0
10
-71.29187872807185
20
29.631206868246704
30
0
10
-71.136510876814526
20
29.843070982054382
30
0
0
SPLINE
5
304
100
AcDbEntity
8
0
100
AcDbSpline
70
0
71
2
72
6
73
3
74
0
42
0.000000001
43
0.0000000001
44
0.0000000001
40
0
40
0
40
0
40
1
40
1
40
1
10
-71.136510876814526
20
29.843070982054382
30
0
10
-70.995266942183179
20
30.054935691908508
30
0
10
-70.924647359053296
20
30.33742177303186
30
0
0
SPLINE
5
305
100
AcDbEntity
8
0
100
AcDbSpline
70
0
71
2
72
6
73
3
74
0
42
0.000000001
43
0.0000000001
44
0.0000000001
40
0
40
0
40
0
40
1
40
1
40
1
10
-70.924647359053296
20
30.33742177303186
30
0
10
-70.868146924177807
20
30.619907854155208
30
0
10
-70.868146924177807
20
30.930642364576961
30
0
0
LINE
5
306
100
AcDbEntity
8
0
100
AcDbLine
10
-70.868146924177807
20
30.930642364576961
30
0
11
-70.868146924177807
21
34.560585496977474
31
0
0
LINE
5
307
100
AcDbEntity
8
0
100
AcDbLine
10
-70.868146924177807
20
34.560585496977474
30
0
11
-68.749506978193921
21
34.560585496977474
31
0
0
LINE
5
308
100
AcDbEntity
8
0
100
AcDbLine
10
-68.749506978193921
20
34.560585496977474
30
0
11
-68.749506978193921
21
30.930642364576961
31
0
0
SPLINE
5
309
100
AcDbEntity
8
0
100
AcDbSpline
70
0
71
2
72
6
73
3
74
0
42
0.000000001
43
0.0000000001
44
0.0000000001
40
0
40
0
40
0
40
1
40
1
40
1
10
-68.749506978193921
20
30.930642364576961
30
0
10
-68.749506978193921
20
30.747025487974788
30
0
10
-68.735378293196362
20
30.478663919523861
30
0
0
SPLINE
5
310
100
AcDbEntity
8
0
100
AcDbSpline
70
0
71
2
72
6
73
3
74
0
42
0.000000001
43
0.0000000001
44
0.0000000001
40
0
40
0
40
0
40
1
40
1
40
1
10
-68.735378293196362
20
30.478663919523861
30
0
10
-68.721254376570386
20
30.210302947119384
30
0
10
-68.636510876814526
20
29.970189807966857
30
0
0
SPLINE
5
311
100
AcDbEntity
8
0
100
AcDbSpline
70
0
71
2
72
6
73
3
74
0
42
0.000000001
43
0.0000000001
44
0.0000000001
40
0
40
0
40
0
40
1
40
1
40
1
10
-68.636510876814526
20
29.970189807966857
30
0
10
-68.551762608687085
20
29.730077264860778
30
0
10
-68.354023007551831
20
29.560585496977478
30
0
0
SPLINE
5
312
100
AcDbEntity
8
0
100
AcDbSpline
70
0
71
2
72
6
73
3
74
0
42
0.000000001
43
0.0000000001
44
0.0000000001
40
0
40
0
40
0
40
1
40
1
40
1
10
-68.354023007551831
20
29.560585496977478
30
0
10
-68.170407323042554
20
29.391093729094177
30
0
10
-67.803175954023999
20
29.391093729094177
30
0
0
SPLINE
5
313
100
AcDbEntity
8
0
100
AcDbSpline
70
0
71
2
72
6
73
3
74
0
42
0.000000001
43
0.0000000001
44
0.0000000001
40
0
40
0
40
0
40
1
40
1
40
1
10
-67.803175954023999
20
29.391093729094177
30
0
10
-67.393572835127515
20
29.391093729094177
30
0
10
-67.139332799116772
20
29.546460984305053
30
0
0
SPLINE
5
314
100
AcDbEntity
8
0
100
AcDbSpline
70
0
71
2
72
6
73
3
74
0
42
0.000000001
43
0.0000000001
44
0.0000000001
40
0
40
0
40
0
40
1
40
1
40
1
10
-67.139332799116772
20
29.546460984305053
30
0
10
-66.885097531477612
20
29.687704322889953
30
0
10
-66.743853596846265
20
29.941941378668457
30
0
0
SPLINE
5
315
100
AcDbEntity
8
0
100
AcDbSpline
70
0
71
2
72
6
73
3
74
0
42
0.000000001
43
0.0000000001
44
0.0000000001
40
0
40
0
40
0
40
1
40
1
40
1
10
-66.743853596846265
20
29.941941378668457
30
0
10
-66.616738347212475
20
30.182054517820983
30
0
10
-66.574361828962964
20
30.492789028242733
30
0
0
SPLINE
5
316
100
AcDbEntity
8
0
100
AcDbSpline
70
0
71
2
72
6
73
3
74
0
42
0.000000001
43
0.0000000001
44
0.0000000001
40
0
40
0
40
0
40
1
40
1
40
1
10
-66.574361828962964
20
30.492789028242733
30
0
10
-66.531990079085034
20
30.803523538664486
30
0
10
-66.531990079085034
20
31.142507074431087
30
0
0
LINE
5
317
100
AcDbEntity
8
0
100
AcDbLine
10
-66.531990079085034
20
31.142507074431087
30
0
11
-66.531990079085034
21
34.560585496977474
31
0
0
LINE
5
318
100
AcDbEntity
8
0
100
AcDbLine
10
-66.531990079085034
20
34.560585496977474
30
0
11
-64.413345364729565
21
34.560585496977474
31
0
0
LINE
5
319
100
AcDbEntity
8
0
100
AcDbLine
10
-64.413345364729565
20
34.560585496977481
30
0
11
-64.413345364729565
21
27.69617843444696
31
0
0
SPLINE
5
320
100
AcDbEntity
8
0
100
AcDbSpline
70
0
71
2
72
6
73
3
74
0
42
0.000000001
43
0.0000000001
44
0.0000000001
40
0
40
0
40
0
40
1
40
1
40
1
10
-76.447246579329175
20
31.128381965712215
30
0
10
-76.447246579329175
20
30.309173343733455
30
0
10
-76.743858365217847
20
29.645331380919124
30
0
0
SPLINE
5
321
100
AcDbEntity
8
0
100
AcDbSpline
70
0
71
2
72
6
73
3
74
0
42
0.000000001
43
0.0000000001
44
0.0000000001
40
0
40
0
40
0
40
1
40
1
40
1
10
-76.743858365217847
20
29.645331380919124
30
0
10
-77.040465382734936
20
28.981489418104793
30
0
10
-77.548940686384839
20
28.515387652472164
30
0
0
SPLINE
5
322
100
AcDbEntity
8
0
100
AcDbSpline
70
0
71
2
72
6
73
3
74
0
42
0.000000001
43
0.0000000001
44
0.0000000001
40
0
40
0
40
0
40
1
40
1
40
1
10
-77.548940686384839
20
28.515387652472164
30
0
10
-78.071539906660718
20
28.035161970213558
30
0
10
-78.763630894819897
20
27.780924318388607
30
0
0
SPLINE
5
323
100
AcDbEntity
8
0
100
AcDbSpline
70
0
71
2
72
6
73
3
74
0
42
0.000000001
43
0.0000000001
44
0.0000000001
40
0
40
0
40
0
40
1
40
1
40
1
10
-78.763630894819897
20
27.780924318388607
30
0
10
-79.469845799605054
20
27.526687262610103
30
0
10
-80.260804204146083
20
27.526687262610103
30
0
0
SPLINE
5
324
100
AcDbEntity
8
0
100
AcDbSpline
70
0
71
2
72
6
73
3
74
0
42
0.000000001
43
0.0000000001
44
0.0000000001
40
0
40
0
40
0
40
1
40
1
40
1
10
-80.260804204146083
20
27.526687262610103
30
0
10
-81.051767377058681
20
27.526687262610103
30
0
10
-81.743858365217861
20
27.780924318388607
30
0
0
SPLINE
5
325
100
AcDbEntity
8
0
100
AcDbSpline
70
0
71
2
72
6
73
3
74
0
42
0.000000001
43
0.0000000001
44
0.0000000001
40
0
40
0
40
0
40
1
40
1
40
1
10
-81.743858365217861
20
27.780924318388607
30
0
10
-82.450068501631435
20
28.035161970213558
30
0
10
-82.958543805281337
20
28.515387652472164
30
0
0
SPLINE
5
326
100
AcDbEntity
8
0
100
AcDbSpline
70
0
71
2
72
6
73
3
74
0
42
0.000000001
43
0.0000000001
44
0.0000000001
40
0
40
0
40
0
40
1
40
1
40
1
10
-82.958543805281337
20
28.515387652472164
30
0
10
-83.481143025557216
20
28.981489418104793
30
0
10
-83.777754811445888
20
29.645331380919124
30
0
0
SPLINE
5
327
100
AcDbEntity
8
0
100
AcDbSpline
70
0
71
2
72
6
73
3
74
0
42
0.000000001
43
0.0000000001
44
0.0000000001
40
0
40
0
40
0
40
1
40
1
40
1
10
-83.777754811445888
20
29.645331380919124
30
0
10
-84.07436659733456
20
30.309173343733455
30
0
10
-84.07436659733456
20
31.128381965712215
30
0
0
SPLINE
5
328
100
AcDbEntity
8
0
100
AcDbSpline
70
0
71
2
72
6
73
3
74
0
42
0.000000001
43
0.0000000001
44
0.0000000001
40
0
40
0
40
0
40
1
40
1
40
1
10
-84.07436659733456
20
31.128381965712215
30
0
10
-84.07436659733456
20
31.94759177978387
30
0
10
-83.777754811445888
20
32.611432550505306
30
0
0
SPLINE
5
329
100
AcDbEntity
8
0
100
AcDbSpline
70
0
71
2
72
6
73
3
74
0
42
0.000000001
43
0.0000000001
44
0.0000000001
40
0
40
0
40
0
40
1
40
1
40
1
10
-83.777754811445888
20
32.611432550505306
30
0
10
-83.481143025557216
20
33.275274513319637
30
0
10
-82.958543805281337
20
33.755500791624691
30
0
0
SPLINE
5
330
100
AcDbEntity
8
0
100
AcDbSpline
70
0
71
2
72
6
73
3
74
0
42
0.000000001
43
0.0000000001
44
0.0000000001
40
0
40
0
40
0
40
1
40
1
40
1
10
-82.958543805281337
20
33.755500791624691
30
0
10
-82.450068501631435
20
34.221601961210872
30
0
10
-81.743858365217861
20
34.475839613035824
30
0
0
SPLINE
5
331
100
AcDbEntity
8
0
100
AcDbSpline
70
0
71
2
72
6
73
3
74
0
42
0.000000001
43
0.0000000001
44
0.0000000001
40
0
40
0
40
0
40
1
40
1
40
1
10
-81.743858365217861
20
34.475839613035824
30
0
10
-81.051767377058681
20
34.730077264860775
30
0
10
-80.260804204146083
20
34.730077264860775
30
0
0
SPLINE
5
332
100
AcDbEntity
8
0
100
AcDbSpline
70
0
71
2
72
6
73
3
74
0
42
0.000000001
43
0.0000000001
44
0.0000000001
40
0
40
0
40
0
40
1
40
1
40
1
10
-80.260804204146083
20
34.730077264860775
30
0
10
-79.469845799605054
20
34.730077264860775
30
0
10
-78.763630894819897
20
34.475839613035824
30
0
0
SPLINE
5
333
100
AcDbEntity
8
0
100
AcDbSpline
70
0
71
2
72
6
73
3
74
0
42
0.000000001
43
0.0000000001
44
0.0000000001
40
0
40
0
40
0
40
1
40
1
40
1
10
-78.763630894819897
20
34.475839613035824
30
0
10
-78.071539906660718
20
34.221601961210872
30
0
10
-77.548940686384839
20
33.755500791624691
30
0
0
SPLINE
5
334
100
AcDbEntity
8
0
100
AcDbSpline
70
0
71
2
72
6
73
3
74
0
42
0.000000001
43
0.0000000001
44
0.0000000001
40
0
40
0
40
0
40
1
40
1
40
1
10
-77.548940686384839
20
33.755500791624691
30
0
10
-77.040465382734936
20
33.275274513319637
30
0
10
-76.743858365217847
20
32.611432550505306
30
0
0
SPLINE
5
335
100
AcDbEntity
8
0
100
AcDbSpline
70
0
71
2
72
6
73
3
74
0
42
0.000000001
43
0.0000000001
44
0.0000000001
40
0
40
0
40
0
40
1
40
1
40
1
10
-76.743858365217847
20
32.611432550505306
30
0
10
-76.447246579329175
20
31.94759177978387
30
0
10
-76.447246579329175
20
31.128381965712215
30
0
0
SPLINE
5
336
100
AcDbEntity
8
0
100
AcDbSpline
70
0
71
2
72
6
73
3
74
0
42
0.000000001
43
0.0000000001
44
0.0000000001
40
0
40
0
40
0
40
1
40
1
40
1
10
-78.565891293684643
20
31.128381965712215
30
0
10
-78.565891293684643
20
31.90521764572015
30
0
10
-79.003742245833081
20
32.385443924025203
30
0
0
SPLINE
5
337
100
AcDbEntity
8
0
100
AcDbSpline
70
0
71
2
72
6
73
3
74
0
42
0.000000001
43
0.0000000001
44
0.0000000001
40
0
40
0
40
0
40
1
40
1
40
1
10
-79.003742245833081
20
32.385443924025203
30
0
10
-79.455721882979077
20
32.865670202330257
30
0
10
-80.260804204146083
20
32.865670202330257
30
0
0
SPLINE
5
338
100
AcDbEntity
8
0
100
AcDbSpline
70
0
71
2
72
6
73
3
74
0
42
0.000000001
43
0.0000000001
44
0.0000000001
40
0
40
0
40
0
40
1
40
1
40
1
10
-80.260804204146083
20
32.865670202330257
30
0
10
-81.065891293684658
20
32.865670202330257
30
0
10
-81.503742245833095
20
32.385443924025203
30
0
0
SPLINE
5
339
100
AcDbEntity
8
0
100
AcDbSpline
70
0
71
2
72
6
73
3
74
0
42
0.000000001
43
0.0000000001
44
0.0000000001
40
0
40
0
40
0
40
1
40
1
40
1
10
-81.503742245833095
20
32.385443924025203
30
0
10
-81.955721882979091
20
31.90521764572015
30
0
10
-81.955721882979091
20
31.128381965712215
30
0
0
SPLINE
5
340
100
AcDbEntity
8
0
100
AcDbSpline
70
0
71
2
72
6
73
3
74
0
42
0.000000001
43
0.0000000001
44
0.0000000001
40
0
40
0
40
0
40
1
40
1
40
1
10
-81.955721882979091
20
31.128381965712215
30
0
10
-81.955721882979091
20
30.351546285704281
30
0
10
-81.503742245833095
20
29.871320007399227
30
0
0
SPLINE
5
341
100
AcDbEntity
8
0
100
AcDbSpline
70
0
71
2
72
6
73
3
74
0
42
0.000000001
43
0.0000000001
44
0.0000000001
40
0
40
0
40
0
40
1
40
1
40
1
10
-81.503742245833095
20
29.871320007399227
30
0
10
-81.065891293684658
20
29.391093729094173
30
0
10
-80.260804204146083
20
29.391093729094173
30
0
0
SPLINE
5
342
100
AcDbEntity
8
0
100
AcDbSpline
70
0
71
2
72
6
73
3
74
0
42
0.000000001
43
0.0000000001
44
0.0000000001
40
0
40
0
40
0
40
1
40
1
40
1
10
-80.260804204146083
20
29.391093729094173
30
0
10
-79.455721882979077
20
29.391093729094173
30
0
10
-79.003742245833081
20
29.871320007399227
30
0
0
SPLINE
5
343
100
AcDbEntity
8
0
100
AcDbSpline
70
0
71
2
72
6
73
3
74
0
42
0.000000001
43
0.0000000001
44
0.0000000001
40
0
40
0
40
0
40
1
40
1
40
1
10
-79.003742245833081
20
29.871320007399227
30
0
10
-78.565891293684643
20
30.351546285704281
30
0
10
-78.565891293684643
20
31.128381965712215
30
0
0
ENDSEC
0
SECTION
2
OBJECTS
0
DICTIONARY
5
C
100
AcDbDictionary
3
ACAD_GROUP
350
D
3
ACAD_MLINESTYLE
350
17
0
DICTIONARY
5
D
100
AcDbDictionary
0
DICTIONARY
5
1A
330
C
100
AcDbDictionary
0
DICTIONARY
5
17
100
AcDbDictionary
0
ENDSEC
0
EOF
