0
SECTION
2
HEADER
9
$ACADVER
1
AC1027
9
$ACADMAINTVER
70
8
9
$DWGCODEPAGE
3
ANSI_1252
9
$LASTSAVEDBY
1
macc
9
$REQUIREDVERSIONS
160
0
9
$INSBASE
10
0.0
20
0.0
30
0.0
9
$EXTMIN
10
1.000000000000000E+20
20
1.000000000000000E+20
30
1.000000000000000E+20
9
$EXTMAX
10
-1.000000000000000E+20
20
-1.000000000000000E+20
30
-1.000000000000000E+20
9
$LIMMIN
10
0.0
20
0.0
9
$LIMMAX
10
12.0
20
9.0
9
$MEASUREMENT
70
1
9
$CELWEIGHT
370
-1
9
$ENDCAPS
280
0
9
$JOINSTYLE
280
0
9
$LWDISPLAY
290
0
9
$INSUNITS
70
0
9
$HYPERLINKBASE
1

9
$STYLESHEET
1

9
$XEDIT
290
1
9
$CEPSNTYPE
380
0
9
$PSTYLEMODE
290
1
9
$EXTNAMES
290
1
9
$PSVPSCALE
40
0.0
9
$OLESTARTUP
290
0
9
$SORTENTS
280
127
9
$INDEXCTL
280
0
9
$HIDETEXT
280
0
9
$XCLIPFRAME
280
2
9
$HALOGAP
280
0
9
$OBSCOLOR
70
257
9
$OBSLTYPE
280
0
9
$INTERSECTIONDISPLAY
280
0
9
$INTERSECTIONCOLOR
70
257
9
$DIMASSOC
280
1
9
$PROJECTNAME
1

9
$CAMERADISPLAY
290
0
9
$LENSLENGTH
40
50.0
9
$CAMERAHEIGHT
40
0.0
9
$STEPSPERSEC
40
2.0
9
$STEPSIZE
40
6.0
9
$3DDWFPREC
40
2.0
9
$PSOLWIDTH
40
0.25
9
$PSOLHEIGHT
40
4.0
9
$LOFTANG1
40
1.570796326794896
9
$LOFTANG2
40
1.570796326794896
9
$LOFTMAG1
40
0.0
9
$LOFTMAG2
40
0.0
9
$LOFTPARAM
70
7
9
$LOFTNORMALS
280
1
9
$LATITUDE
40
37.795
9
$LONGITUDE
40
-122.394
9
$NORTHDIRECTION
40
0.0
9
$TIMEZONE
70
-8000
9
$LIGHTGLYPHDISPLAY
280
1
9
$TILEMODELIGHTSYNCH
280
1
9
$CMATERIAL
347
222
9
$SOLIDHIST
280
0
9
$SHOWHIST
280
1
9
$DWFFRAME
280
2
9
$DGNFRAME
280
0
9
$REALWORLDSCALE
290
1
9
$INTERFERECOLOR
62
1
9
$INTERFEREOBJVS
345
244
9
$INTERFEREVPVS
346
241
9
$CSHADOW
280
0
9
$SHADOWPLANELOCATION
40
0.0
0
ENDSEC
0
SECTION
2
CLASSES
0
CLASS
1
ACDBDICTIONARYWDFLT
2
AcDbDictionaryWithDefault
3
ObjectDBX Classes
90
0
91
1
280
0
281
0
0
CLASS
1
MATERIAL
2
AcDbMaterial
3
ObjectDBX Classes
90
1153
91
3
280
0
281
0
0
CLASS
1
VISUALSTYLE
2
AcDbVisualStyle
3
ObjectDBX Classes
90
4095
91
24
280
0
281
0
0
CLASS
1
SCALE
2
AcDbScale
3
ObjectDBX Classes
90
1153
91
17
280
0
281
0
0
CLASS
1
TABLESTYLE
2
AcDbTableStyle
3
ObjectDBX Classes
90
4095
91
1
280
0
281
0
0
CLASS
1
MLEADERSTYLE
2
AcDbMLeaderStyle
3
ACDB_MLEADERSTYLE_CLASS
90
4095
91
1
280
0
281
0
0
CLASS
1
ACDBSECTIONVIEWSTYLE
2
AcDbSectionViewStyle
3
ObjectDBX Classes
90
1025
91
1
280
0
281
0
0
CLASS
1
ACDBDETAILVIEWSTYLE
2
AcDbDetailViewStyle
3
ObjectDBX Classes
90
1025
91
1
280
0
281
0
0
CLASS
1
DICTIONARYVAR
2
AcDbDictionaryVar
3
ObjectDBX Classes
90
0
91
9
280
0
281
0
0
CLASS
1
CELLSTYLEMAP
2
AcDbCellStyleMap
3
ObjectDBX Classes
90
1152
91
2
280
0
281
0
0
ENDSEC
0
SECTION
2
TABLES
0
TABLE
2
VPORT
5
219
330
0
100
AcDbSymbolTable
70
1
0
VPORT
5
285
330
219
100
AcDbSymbolTableRecord
100
AcDbViewportTableRecord
2
*ACTIVE
70
0
10
0.0
20
0.0
11
1.0
21
1.0
12
60.85393284500712
22
1.602311788490737
13
0.0
23
0.0
14
0.5
24
0.5
15
0.5
25
0.5
16
0.0
26
0.0
36
1.0
17
0.0
27
0.0
37
0.0
40
135.7601553851812
41
1.367970660146699
42
50.0
43
0.0
44
0.0
50
0.0
51
0.0
71
0
72
1000
73
1
74
3
75
0
76
1
77
0
78
0
281
0
65
1
110
0.0
120
0.0
130
0.0
111
1.0
121
0.0
131
0.0
112
0.0
122
1.0
132
0.0
79
0
146
0.0
348
240
60
3
61
5
292
1
282
0
141
0.0
142
0.0
63
250
421
3355443
1001
ACAD_NAV_VCDISPLAY
1070
3
0
ENDTAB
0
TABLE
2
LTYPE
5
216
330
0
100
AcDbSymbolTable
70
2
0
LTYPE
5
26B
330
216
100
AcDbSymbolTableRecord
100
AcDbLinetypeTableRecord
2
ByBlock
70
0
3

72
65
73
0
40
0.0
0
LTYPE
5
26C
330
216
100
AcDbSymbolTableRecord
100
AcDbLinetypeTableRecord
2
ByLayer
70
0
3

72
65
73
0
40
0.0
0
LTYPE
5
26D
330
216
100
AcDbSymbolTableRecord
100
AcDbLinetypeTableRecord
2
CONTINUOUS
70
0
3
Solid line
72
65
73
0
40
0.0
0
LTYPE
5
103D
330
216
100
AcDbSymbolTableRecord
100
AcDbLinetypeTableRecord
2
DOTTED
70
0
3
Dotted . . . . . . . . . . . . . . . . . . . .
72
65
73
2
40
3.0
49
0.0
74
0
49
-3.0
74
0
0
ENDTAB
0
TABLE
2
LAYER
5
213
102
{ACAD_XDICTIONARY
360
297
102
}
330
0
100
AcDbSymbolTable
70
4
0
LAYER
5
265
102
{ACAD_XDICTIONARY
360
292
102
}
330
213
100
AcDbSymbolTableRecord
100
AcDbLayerTableRecord
2
0
70
0
62
7
6
CONTINUOUS
370
-3
390
220
347
232
348
0
0
LAYER
5
1900
330
213
100
AcDbSymbolTableRecord
100
AcDbLayerTableRecord
2
primarychainwheel
70
0
62
7
6
CONTINUOUS
370
-3
390
220
347
232
348
0
1001
AcAecLayerStandard
1000

1000

1001
AcCmTransparency
1071
0
0
LAYER
5
1901
330
213
100
AcDbSymbolTableRecord
100
AcDbLayerTableRecord
2
primarychainwheel_guides
70
0
62
5
6
CONTINUOUS
370
-3
390
220
347
232
348
0
1001
AcAecLayerStandard
1000

1000

1001
AcCmTransparency
1071
0
0
LAYER
5
1902
330
213
100
AcDbSymbolTableRecord
100
AcDbLayerTableRecord
2
primarychainwheel_texts
70
0
62
7
6
CONTINUOUS
370
-3
390
220
347
232
348
0
1001
AcAecLayerStandard
1000

1000

1001
AcCmTransparency
1071
0
0
LAYER
5
1903
330
213
100
AcDbSymbolTableRecord
100
AcDbLayerTableRecord
2
secondarychainwheel
70
0
62
7
6
CONTINUOUS
370
-3
390
220
347
232
348
0
1001
AcAecLayerStandard
1000

1000

1001
AcCmTransparency
1071
0
0
LAYER
5
1904
330
213
100
AcDbSymbolTableRecord
100
AcDbLayerTableRecord
2
secondarychainwheel_guides
70
0
62
5
6
CONTINUOUS
370
-3
390
220
347
232
348
0
1001
AcAecLayerStandard
1000

1000

1001
AcCmTransparency
1071
0
0
LAYER
5
1905
330
213
100
AcDbSymbolTableRecord
100
AcDbLayerTableRecord
2
secondarychainwheel_texts
70
0
62
7
6
CONTINUOUS
370
-3
390
220
347
232
348
0
1001
AcAecLayerStandard
1000

1000

1001
AcCmTransparency
1071
0
0
ENDTAB
0
TABLE
2
STYLE
5
214
330
0
100
AcDbSymbolTable
70
3
0
STYLE
5
266
330
214
100
AcDbSymbolTableRecord
100
AcDbTextStyleTableRecord
2
STANDARD
70
0
40
0.0
41
1.0
50
0.0
71
0
42
0.2
3
txt
4

0
STYLE
5
26A
330
214
100
AcDbSymbolTableRecord
100
AcDbTextStyleTableRecord
2
ANNOTATIVE
70
0
40
0.0
41
1.0
50
0.0
71
0
42
0.2
3
txt
4

1001
ACADANNOTATIVE
1000
AnnotativeData
1002
{
1070
1
1070
1
1002
}
0
STYLE
5
301
330
214
100
AcDbSymbolTableRecord
100
AcDbTextStyleTableRecord
2

70
1
40
0.0
41
1.0
50
0.0
71
0
42
0.2
3
ltypeshp.shx
4

0
ENDTAB
0
TABLE
2
VIEW
5
217
330
0
100
AcDbSymbolTable
70
1
0
ENDTAB
0
TABLE
2
UCS
5
218
330
0
100
AcDbSymbolTable
70
0
0
ENDTAB
0
TABLE
2
APPID
5
21A
330
0
100
AcDbSymbolTable
70
10
0
APPID
5
267
330
21A
100
AcDbSymbolTableRecord
100
AcDbRegAppTableRecord
2
ACAD
70
0
0
APPID
5
26E
330
21A
100
AcDbSymbolTableRecord
100
AcDbRegAppTableRecord
2
ACADANNOTATIVE
70
0
0
APPID
5
286
330
21A
100
AcDbSymbolTableRecord
100
AcDbRegAppTableRecord
2
ACADANNOPO
70
0
0
APPID
5
287
330
21A
100
AcDbSymbolTableRecord
100
AcDbRegAppTableRecord
2
ACAD_DSTYLE_DIMJAG
70
0
0
APPID
5
288
330
21A
100
AcDbSymbolTableRecord
100
AcDbRegAppTableRecord
2
ACAD_DSTYLE_DIMTALN
70
0
0
APPID
5
289
330
21A
100
AcDbSymbolTableRecord
100
AcDbRegAppTableRecord
2
ACAD_MLEADERVER
70
0
0
APPID
5
28A
330
21A
100
AcDbSymbolTableRecord
100
AcDbRegAppTableRecord
2
ACAD_NAV_VCDISPLAY
70
0
0
APPID
5
2E7
330
21A
100
AcDbSymbolTableRecord
100
AcDbRegAppTableRecord
2
ACAD_EXEMPT_FROM_CAD_STANDARDS
70
0
0
APPID
5
2FC
330
21A
100
AcDbSymbolTableRecord
100
AcDbRegAppTableRecord
2
AcAecLayerStandard
70
0
0
APPID
5
2FD
330
21A
100
AcDbSymbolTableRecord
100
AcDbRegAppTableRecord
2
AcCmTransparency
70
0
0
ENDTAB
0
TABLE
2
DIMSTYLE
5
21B
330
0
100
AcDbSymbolTable
70
2
100
AcDbDimStyleTable
71
1
340
268
0
DIMSTYLE
105
268
330
21B
100
AcDbSymbolTableRecord
100
AcDbDimStyleTableRecord
2
STANDARD
70
0
279
2
340
266
0
DIMSTYLE
105
269
330
21B
100
AcDbSymbolTableRecord
100
AcDbDimStyleTableRecord
2
ANNOTATIVE
70
0
40
0.0
279
2
340
266
1001
ACADANNOTATIVE
1000
AnnotativeData
1002
{
1070
1
1070
1
1002
}
0
ENDTAB
0
TABLE
2
BLOCK_RECORD
5
212
330
0
100
AcDbSymbolTable
70
2
0
BLOCK_RECORD
5
281
330
212
100
AcDbSymbolTableRecord
100
AcDbBlockTableRecord
2
*Model_Space
340
284
70
0
280
1
281
0
0
BLOCK_RECORD
5
27D
330
212
100
AcDbSymbolTableRecord
100
AcDbBlockTableRecord
2
*Paper_Space
340
280
70
0
280
1
281
0
0
BLOCK_RECORD
5
28C
330
212
100
AcDbSymbolTableRecord
100
AcDbBlockTableRecord
2
$MODEL_SPACE
340
0
70
0
280
1
281
0
0
BLOCK_RECORD
5
28E
330
212
100
AcDbSymbolTableRecord
100
AcDbBlockTableRecord
2
$PAPER_SPACE
340
0
70
0
280
1
281
0
0
ENDTAB
0
ENDSEC
0
SECTION
2
BLOCKS
0
BLOCK
5
282
330
281
100
AcDbEntity
8
0
100
AcDbBlockBegin
2
*Model_Space
70
0
10
0.0
20
0.0
30
0.0
3
*Model_Space
1

0
ENDBLK
5
283
330
281
100
AcDbEntity
8
0
100
AcDbBlockEnd
0
BLOCK
5
27E
330
27D
100
AcDbEntity
67
1
8
0
100
AcDbBlockBegin
2
*Paper_Space
70
0
10
0.0
20
0.0
30
0.0
3
*Paper_Space
1

0
ENDBLK
5
27F
330
27D
100
AcDbEntity
67
1
8
0
100
AcDbBlockEnd
0
BLOCK
5
28D
330
28C
100
AcDbEntity
8
0
100
AcDbBlockBegin
2
$MODEL_SPACE
70
0
10
0.0
20
0.0
30
0.0
3
$MODEL_SPACE
1

0
ENDBLK
5
21
330
28C
100
AcDbEntity
8
0
100
AcDbBlockEnd
0
BLOCK
5
28F
330
28E
100
AcDbEntity
8
0
100
AcDbBlockBegin
2
$PAPER_SPACE
70
0
10
0.0
20
0.0
30
0.0
3
$PAPER_SPACE
1

0
ENDBLK
5
5B
330
28E
100
AcDbEntity
8
0
100
AcDbBlockEnd
0
ENDSEC
0
SECTION
2
ENTITIES
0
LWPOLYLINE
5
2000
100
AcDbEntity
100
AcDbPolyline
66
1
90
420
70
1
43
0
10
9.772212
20
0
30
0
10
9.778296
20
0.148642
30
0
10
9.796507
20
0.29629
30
0
10
9.826722
20
0.441956
30
0
10
9.868741
20
0.584665
30
0
10
9.922281
20
0.723464
30
0
10
9.986985
20
0.857422
30
0
10
10.06242
20
0.985645
30
0
10
10.148081
20
1.107275
30
0
10
10.243396
20
1.221497
30
0
10
10.347725
20
1.327548
30
0
10
10.460373
20
1.424718
30
0
10
10.580585
20
1.512358
30
0
10
10.707556
20
1.589881
30
0
10
10.840438
20
1.656768
30
0
10
10.978342
20
1.712572
30
0
10
11.120345
20
1.75692
30
0
10
12.193381
20
2.754167
30
0
10
11.936861
20
3.711511
30
0
10
10.508961
20
4.038635
30
0
10
10.363809
20
4.00604
30
0
10
10.216479
20
3.985416
30
0
10
10.067956
20
3.976901
30
0
10
9.919234
20
3.980552
30
0
10
9.771308
20
3.996344
30
0
10
9.625167
20
4.024172
30
0
10
9.481789
20
4.06385
30
0
10
9.342134
20
4.115113
30
0
10
9.207134
20
4.177616
30
0
10
9.077694
20
4.250943
30
0
10
8.95468
20
4.334603
30
0
10
8.838913
20
4.428035
30
0
10
8.731169
20
4.530616
30
0
10
8.632169
20
4.641659
30
0
10
8.542574
20
4.76042
30
0
10
8.462984
20
4.886106
30
0
10
8.393932
20
5.017876
30
0
10
8.335879
20
5.154848
30
0
10
8.289213
20
5.296106
30
0
10
8.254248
20
5.440706
30
0
10
8.231216
20
5.587679
30
0
10
8.220272
20
5.736042
30
0
10
8.221489
20
5.884804
30
0
10
8.234859
20
6.032969
30
0
10
8.260292
20
6.179545
30
0
10
8.297619
20
6.323553
30
0
10
8.34659
20
6.464029
30
0
10
8.406876
20
6.600033
30
0
10
8.478075
20
6.730655
30
0
10
8.559711
20
6.855022
30
0
10
8.651237
20
6.972302
30
0
10
8.752041
20
7.08171
30
0
10
9.182694
20
8.481869
30
0
10
8.481869
20
9.182694
30
0
10
7.08171
20
8.752041
30
0
10
6.972302
20
8.651237
30
0
10
6.855022
20
8.559711
30
0
10
6.730655
20
8.478075
30
0
10
6.600033
20
8.406876
30
0
10
6.464029
20
8.34659
30
0
10
6.323553
20
8.297619
30
0
10
6.179545
20
8.260292
30
0
10
6.032969
20
8.234859
30
0
10
5.884804
20
8.221489
30
0
10
5.736042
20
8.220272
30
0
10
5.587679
20
8.231216
30
0
10
5.440706
20
8.254248
30
0
10
5.296106
20
8.289213
30
0
10
5.154848
20
8.335879
30
0
10
5.017876
20
8.393932
30
0
10
4.886106
20
8.462984
30
0
10
4.76042
20
8.542574
30
0
10
4.641659
20
8.632169
30
0
10
4.530616
20
8.731169
30
0
10
4.428035
20
8.838913
30
0
10
4.334603
20
8.95468
30
0
10
4.250943
20
9.077694
30
0
10
4.177616
20
9.207134
30
0
10
4.115113
20
9.342134
30
0
10
4.06385
20
9.481789
30
0
10
4.024172
20
9.625167
30
0
10
3.996344
20
9.771308
30
0
10
3.980552
20
9.919234
30
0
10
3.976901
20
10.067956
30
0
10
3.985416
20
10.216479
30
0
10
4.00604
20
10.363809
30
0
10
4.038635
20
10.508961
30
0
10
3.711511
20
11.936861
30
0
10
2.754167
20
12.193381
30
0
10
1.75692
20
11.120345
30
0
10
1.712572
20
10.978342
30
0
10
1.656768
20
10.840438
30
0
10
1.589881
20
10.707556
30
0
10
1.512358
20
10.580585
30
0
10
1.424718
20
10.460373
30
0
10
1.327548
20
10.347725
30
0
10
1.221497
20
10.243396
30
0
10
1.107275
20
10.148081
30
0
10
0.985645
20
10.06242
30
0
10
0.857422
20
9.986985
30
0
10
0.723464
20
9.922281
30
0
10
0.584665
20
9.868741
30
0
10
0.441956
20
9.826722
30
0
10
0.29629
20
9.796507
30
0
10
0.148642
20
9.778296
30
0
10
0
20
9.772212
30
0
10
-0.148642
20
9.778296
30
0
10
-0.29629
20
9.796507
30
0
10
-0.441956
20
9.826722
30
0
10
-0.584665
20
9.868741
30
0
10
-0.723464
20
9.922281
30
0
10
-0.857422
20
9.986985
30
0
10
-0.985645
20
10.06242
30
0
10
-1.107275
20
10.148081
30
0
10
-1.221497
20
10.243396
30
0
10
-1.327548
20
10.347725
30
0
10
-1.424718
20
10.460373
30
0
10
-1.512358
20
10.580585
30
0
10
-1.589881
20
10.707556
30
0
10
-1.656768
20
10.840438
30
0
10
-1.712572
20
10.978342
30
0
10
-1.75692
20
11.120345
30
0
10
-2.754167
20
12.193381
30
0
10
-3.711511
20
11.936861
30
0
10
-4.038635
20
10.508961
30
0
10
-4.00604
20
10.363809
30
0
10
-3.985416
20
10.216479
30
0
10
-3.976901
20
10.067956
30
0
10
-3.980552
20
9.919234
30
0
10
-3.996344
20
9.771308
30
0
10
-4.024172
20
9.625167
30
0
10
-4.06385
20
9.481789
30
0
10
-4.115113
20
9.342134
30
0
10
-4.177616
20
9.207134
30
0
10
-4.250943
20
9.077694
30
0
10
-4.334603
20
8.95468
30
0
10
-4.428035
20
8.838913
30
0
10
-4.530616
20
8.731169
30
0
10
-4.641659
20
8.632169
30
0
10
-4.76042
20
8.542574
30
0
10
-4.886106
20
8.462984
30
0
10
-5.017876
20
8.393932
30
0
10
-5.154848
20
8.335879
30
0
10
-5.296106
20
8.289213
30
0
10
-5.440706
20
8.254248
30
0
10
-5.587679
20
8.231216
30
0
10
-5.736042
20
8.220272
30
0
10
-5.884804
20
8.221489
30
0
10
-6.032969
20
8.234859
30
0
10
-6.179545
20
8.260292
30
0
10
-6.323553
20
8.297619
30
0
10
-6.464029
20
8.34659
30
0
10
-6.600033
20
8.406876
30
0
10
-6.730655
20
8.478075
30
0
10
-6.855022
20
8.559711
30
0
10
-6.972302
20
8.651237
30
0
10
-7.08171
20
8.752041
30
0
10
-8.481869
20
9.182694
30
0
10
-9.182694
20
8.481869
30
0
10
-8.752041
20
7.08171
30
0
10
-8.651237
20
6.972302
30
0
10
-8.559711
20
6.855022
30
0
10
-8.478075
20
6.730655
30
0
10
-8.406876
20
6.600033
30
0
10
-8.34659
20
6.464029
30
0
10
-8.297619
20
6.323553
30
0
10
-8.260292
20
6.179545
30
0
10
-8.234859
20
6.032969
30
0
10
-8.221489
20
5.884804
30
0
10
-8.220272
20
5.736042
30
0
10
-8.231216
20
5.587679
30
0
10
-8.254248
20
5.440706
30
0
10
-8.289213
20
5.296106
30
0
10
-8.335879
20
5.154848
30
0
10
-8.393932
20
5.017876
30
0
10
-8.462984
20
4.886106
30
0
10
-8.542574
20
4.76042
30
0
10
-8.632169
20
4.641659
30
0
10
-8.731169
20
4.530616
30
0
10
-8.838913
20
4.428035
30
0
10
-8.95468
20
4.334603
30
0
10
-9.077694
20
4.250943
30
0
10
-9.207134
20
4.177616
30
0
10
-9.342134
20
4.115113
30
0
10
-9.481789
20
4.06385
30
0
10
-9.625167
20
4.024172
30
0
10
-9.771308
20
3.996344
30
0
10
-9.919234
20
3.980552
30
0
10
-10.067956
20
3.976901
30
0
10
-10.216479
20
3.985416
30
0
10
-10.363809
20
4.00604
30
0
10
-10.508961
20
4.038635
30
0
10
-11.936861
20
3.711511
30
0
10
-12.193381
20
2.754167
30
0
10
-11.120345
20
1.75692
30
0
10
-10.978342
20
1.712572
30
0
10
-10.840438
20
1.656768
30
0
10
-10.707556
20
1.589881
30
0
10
-10.580585
20
1.512358
30
0
10
-10.460373
20
1.424718
30
0
10
-10.347725
20
1.327548
30
0
10
-10.243396
20
1.221497
30
0
10
-10.148081
20
1.107275
30
0
10
-10.06242
20
0.985645
30
0
10
-9.986985
20
0.857422
30
0
10
-9.922281
20
0.723464
30
0
10
-9.868741
20
0.584665
30
0
10
-9.826722
20
0.441956
30
0
10
-9.796507
20
0.29629
30
0
10
-9.778296
20
0.148642
30
0
10
-9.772212
20
0
30
0
10
-9.778296
20
-0.148642
30
0
10
-9.796507
20
-0.29629
30
0
10
-9.826722
20
-0.441956
30
0
10
-9.868741
20
-0.584665
30
0
10
-9.922281
20
-0.723464
30
0
10
-9.986985
20
-0.857422
30
0
10
-10.06242
20
-0.985645
30
0
10
-10.148081
20
-1.107275
30
0
10
-10.243396
20
-1.221497
30
0
10
-10.347725
20
-1.327548
30
0
10
-10.460373
20
-1.424718
30
0
10
-10.580585
20
-1.512358
30
0
10
-10.707556
20
-1.589881
30
0
10
-10.840438
20
-1.656768
30
0
10
-10.978342
20
-1.712572
30
0
10
-11.120345
20
-1.75692
30
0
10
-12.193381
20
-2.754167
30
0
10
-11.936861
20
-3.711511
30
0
10
-10.508961
20
-4.038635
30
0
10
-10.363809
20
-4.00604
30
0
10
-10.216479
20
-3.985416
30
0
10
-10.067956
20
-3.976901
30
0
10
-9.919234
20
-3.980552
30
0
10
-9.771308
20
-3.996344
30
0
10
-9.625167
20
-4.024172
30
0
10
-9.481789
20
-4.06385
30
0
10
-9.342134
20
-4.115113
30
0
10
-9.207134
20
-4.177616
30
0
10
-9.077694
20
-4.250943
30
0
10
-8.95468
20
-4.334603
30
0
10
-8.838913
20
-4.428035
30
0
10
-8.731169
20
-4.530616
30
0
10
-8.632169
20
-4.641659
30
0
10
-8.542574
20
-4.76042
30
0
10
-8.462984
20
-4.886106
30
0
10
-8.393932
20
-5.017876
30
0
10
-8.335879
20
-5.154848
30
0
10
-8.289213
20
-5.296106
30
0
10
-8.254248
20
-5.440706
30
0
10
-8.231216
20
-5.587679
30
0
10
-8.220272
20
-5.736042
30
0
10
-8.221489
20
-5.884804
30
0
10
-8.234859
20
-6.032969
30
0
10
-8.260292
20
-6.179545
30
0
10
-8.297619
20
-6.323553
30
0
10
-8.34659
20
-6.464029
30
0
10
-8.406876
20
-6.600033
30
0
10
-8.478075
20
-6.730655
30
0
10
-8.559711
20
-6.855022
30
0
10
-8.651237
20
-6.972302
30
0
10
-8.752041
20
-7.08171
30
0
10
-9.182694
20
-8.481869
30
0
10
-8.481869
20
-9.182694
30
0
10
-7.08171
20
-8.752041
30
0
10
-6.972302
20
-8.651237
30
0
10
-6.855022
20
-8.559711
30
0
10
-6.730655
20
-8.478075
30
0
10
-6.600033
20
-8.406876
30
0
10
-6.464029
20
-8.34659
30
0
10
-6.323553
20
-8.297619
30
0
10
-6.179545
20
-8.260292
30
0
10
-6.032969
20
-8.234859
30
0
10
-5.884804
20
-8.221489
30
0
10
-5.736042
20
-8.220272
30
0
10
-5.587679
20
-8.231216
30
0
10
-5.440706
20
-8.254248
30
0
10
-5.296106
20
-8.289213
30
0
10
-5.154848
20
-8.335879
30
0
10
-5.017876
20
-8.393932
30
0
10
-4.886106
20
-8.462984
30
0
10
-4.76042
20
-8.542574
30
0
10
-4.641659
20
-8.632169
30
0
10
-4.530616
20
-8.731169
30
0
10
-4.428035
20
-8.838913
30
0
10
-4.334603
20
-8.95468
30
0
10
-4.250943
20
-9.077694
30
0
10
-4.177616
20
-9.207134
30
0
10
-4.115113
20
-9.342134
30
0
10
-4.06385
20
-9.481789
30
0
10
-4.024172
20
-9.625167
30
0
10
-3.996344
20
-9.771308
30
0
10
-3.980552
20
-9.919234
30
0
10
-3.976901
20
-10.067956
30
0
10
-3.985416
20
-10.216479
30
0
10
-4.00604
20
-10.363809
30
0
10
-4.038635
20
-10.508961
30
0
10
-3.711511
20
-11.936861
30
0
10
-2.754167
20
-12.193381
30
0
10
-1.75692
20
-11.120345
30
0
10
-1.712572
20
-10.978342
30
0
10
-1.656768
20
-10.840438
30
0
10
-1.589881
20
-10.707556
30
0
10
-1.512358
20
-10.580585
30
0
10
-1.424718
20
-10.460373
30
0
10
-1.327548
20
-10.347725
30
0
10
-1.221497
20
-10.243396
30
0
10
-1.107275
20
-10.148081
30
0
10
-0.985645
20
-10.06242
30
0
10
-0.857422
20
-9.986985
30
0
10
-0.723464
20
-9.922281
30
0
10
-0.584665
20
-9.868741
30
0
10
-0.441956
20
-9.826722
30
0
10
-0.29629
20
-9.796507
30
0
10
-0.148642
20
-9.778296
30
0
10
0
20
-9.772212
30
0
10
0.148642
20
-9.778296
30
0
10
0.29629
20
-9.796507
30
0
10
0.441956
20
-9.826722
30
0
10
0.584665
20
-9.868741
30
0
10
0.723464
20
-9.922281
30
0
10
0.857422
20
-9.986985
30
0
10
0.985645
20
-10.06242
30
0
10
1.107275
20
-10.148081
30
0
10
1.221497
20
-10.243396
30
0
10
1.327548
20
-10.347725
30
0
10
1.424718
20
-10.460373
30
0
10
1.512358
20
-10.580585
30
0
10
1.589881
20
-10.707556
30
0
10
1.656768
20
-10.840438
30
0
10
1.712572
20
-10.978342
30
0
10
1.75692
20
-11.120345
30
0
10
2.754167
20
-12.193381
30
0
10
3.711511
20
-11.936861
30
0
10
4.038635
20
-10.508961
30
0
10
4.00604
20
-10.363809
30
0
10
3.985416
20
-10.216479
30
0
10
3.976901
20
-10.067956
30
0
10
3.980552
20
-9.919234
30
0
10
3.996344
20
-9.771308
30
0
10
4.024172
20
-9.625167
30
0
10
4.06385
20
-9.481789
30
0
10
4.115113
20
-9.342134
30
0
10
4.177616
20
-9.207134
30
0
10
4.250943
20
-9.077694
30
0
10
4.334603
20
-8.95468
30
0
10
4.428035
20
-8.838913
30
0
10
4.530616
20
-8.731169
30
0
10
4.641659
20
-8.632169
30
0
10
4.76042
20
-8.542574
30
0
10
4.886106
20
-8.462984
30
0
10
5.017876
20
-8.393932
30
0
10
5.154848
20
-8.335879
30
0
10
5.296106
20
-8.289213
30
0
10
5.440706
20
-8.254248
30
0
10
5.587679
20
-8.231216
30
0
10
5.736042
20
-8.220272
30
0
10
5.884804
20
-8.221489
30
0
10
6.032969
20
-8.234859
30
0
10
6.179545
20
-8.260292
30
0
10
6.323553
20
-8.297619
30
0
10
6.464029
20
-8.34659
30
0
10
6.600033
20
-8.406876
30
0
10
6.730655
20
-8.478075
30
0
10
6.855022
20
-8.559711
30
0
10
6.972302
20
-8.651237
30
0
10
7.08171
20
-8.752041
30
0
10
8.481869
20
-9.182694
30
0
10
9.182694
20
-8.481869
30
0
10
8.752041
20
-7.08171
30
0
10
8.651237
20
-6.972302
30
0
10
8.559711
20
-6.855022
30
0
10
8.478075
20
-6.730655
30
0
10
8.406876
20
-6.600033
30
0
10
8.34659
20
-6.464029
30
0
10
8.297619
20
-6.323553
30
0
10
8.260292
20
-6.179545
30
0
10
8.234859
20
-6.032969
30
0
10
8.221489
20
-5.884804
30
0
10
8.220272
20
-5.736042
30
0
10
8.231216
20
-5.587679
30
0
10
8.254248
20
-5.440706
30
0
10
8.289213
20
-5.296106
30
0
10
8.335879
20
-5.154848
30
0
10
8.393932
20
-5.017876
30
0
10
8.462984
20
-4.886106
30
0
10
8.542574
20
-4.76042
30
0
10
8.632169
20
-4.641659
30
0
10
8.731169
20
-4.530616
30
0
10
8.838913
20
-4.428035
30
0
10
8.95468
20
-4.334603
30
0
10
9.077694
20
-4.250943
30
0
10
9.207134
20
-4.177616
30
0
10
9.342134
20
-4.115113
30
0
10
9.481789
20
-4.06385
30
0
10
9.625167
20
-4.024172
30
0
10
9.771308
20
-3.996344
30
0
10
9.919234
20
-3.980552
30
0
10
10.067956
20
-3.976901
30
0
10
10.216479
20
-3.985416
30
0
10
10.363809
20
-4.00604
30
0
10
10.508961
20
-4.038635
30
0
10
11.936861
20
-3.711511
30
0
10
12.193381
20
-2.754167
30
0
10
11.120345
20
-1.75692
30
0
10
10.978342
20
-1.712572
30
0
10
10.840438
20
-1.656768
30
0
10
10.707556
20
-1.589881
30
0
10
10.580585
20
-1.512358
30
0
10
10.460373
20
-1.424718
30
0
10
10.347725
20
-1.327548
30
0
10
10.243396
20
-1.221497
30
0
10
10.148081
20
-1.107275
30
0
10
10.06242
20
-0.985645
30
0
10
9.986985
20
-0.857422
30
0
10
9.922281
20
-0.723464
30
0
10
9.868741
20
-0.584665
30
0
10
9.826722
20
-0.441956
30
0
10
9.796507
20
-0.29629
30
0
10
9.778296
20
-0.148642
30
0
8
primarychainwheel
0
CIRCLE
5
2001
100
AcDbEntity
100
AcDbCircle
10
0
20
0
30
0
40
11.59111
8
primarychainwheel_guides
0
CIRCLE
5
2002
100
AcDbEntity
100
AcDbCircle
10
0
20
0
30
0
40
12.500559
8
primarychainwheel_guides
0
CIRCLE
5
2003
100
AcDbEntity
100
AcDbCircle
10
0
20
0
30
0
40
9.772212
8
primarychainwheel_guides
0
LINE
5
2004
100
AcDbEntity
100
AcDbLine
10
1.6
20
0
30
0
11
-1.6
21
0
31
0
8
primarychainwheel_guides
0
LINE
5
2005
100
AcDbEntity
100
AcDbLine
10
0
20
1.6
30
0
11
0
21
-1.6
31
0
8
primarychainwheel_guides
0
LWPOLYLINE
5
2006
100
AcDbEntity
100
AcDbPolyline
66
1
90
5
70
0
43
0
10
-0.114894
20
6.356411
30
0
10
-0.399177
20
6.344905
30
0
10
-0.682661
20
6.320691
30
0
10
-0.964777
20
6.283818
30
0
10
-1.244961
20
6.234359
30
0
8
primarychainwheel_texts
0
LWPOLYLINE
5
2007
100
AcDbEntity
100
AcDbPolyline
66
1
90
2
70
0
43
0
10
-0.621553
20
5.754902
30
0
10
-0.743768
20
6.88648
30
0
8
primarychainwheel_texts
0
LWPOLYLINE
5
2008
100
AcDbEntity
100
AcDbPolyline
66
1
90
5
70
0
43
0
10
-0.125179
20
6.925397
30
0
10
-0.417043
20
6.628883
30
0
10
-0.682661
20
6.320691
30
0
10
-0.921597
20
6.002574
30
0
10
-1.13352
20
5.676298
30
0
8
primarychainwheel_texts
0
LWPOLYLINE
5
2009
100
AcDbEntity
100
AcDbPolyline
66
1
90
5
70
0
43
0
10
-0.104609
20
5.787424
30
0
10
-0.381311
20
6.060927
30
0
10
-0.682661
20
6.320691
30
0
10
-1.007958
20
6.565062
30
0
10
-1.356402
20
6.79242
30
0
8
primarychainwheel_texts
0
LWPOLYLINE
5
2010
100
AcDbEntity
100
AcDbPolyline
66
1
90
11
70
0
43
0
10
0.453793
20
6.341233
30
0
10
0.737058
20
6.314579
30
0
10
1.018846
20
6.275278
30
0
10
1.298594
20
6.223409
30
0
10
1.646266
20
6.434736
30
0
10
1.716791
20
6.710397
30
0
10
1.472957
20
7.05903
30
0
10
1.155647
20
7.117864
30
0
10
0.836023
20
7.162442
30
0
10
0.514724
20
7.192674
30
0
10
0.392862
20
5.489791
30
0
8
primarychainwheel_texts
0
LWPOLYLINE
5
2011
100
AcDbEntity
100
AcDbPolyline
66
1
90
14
70
0
43
0
10
2.120018
20
5.993553
30
0
10
2.386058
20
5.892698
30
0
10
2.64732
20
5.78004
30
0
10
2.903279
20
5.655805
30
0
10
3.012286
20
5.273174
30
0
10
2.871148
20
5.026105
30
0
10
2.513454
20
4.896396
30
0
10
2.291862
20
5.00395
30
0
10
2.065681
20
5.101481
30
0
10
1.930247
20
5.457048
30
0
10
2.214904
20
6.261806
30
0
10
2.599644
20
6.420175
30
0
10
3.002777
20
6.556129
30
0
10
3.293104
20
6.415214
30
0
8
primarychainwheel_texts
0
LWPOLYLINE
5
2012
100
AcDbEntity
100
AcDbPolyline
66
1
90
7
70
0
43
0
10
6.111677
20
3.827127
30
0
10
4.664723
20
2.921045
30
0
10
4.8806
20
3.369307
30
0
10
5.065004
20
3.842252
30
0
10
5.21618
20
4.337929
30
0
10
5.332489
20
4.854283
30
0
10
4.07001
20
3.705019
30
0
8
primarychainwheel_texts
0
LWPOLYLINE
5
2013
100
AcDbEntity
100
AcDbPolyline
66
1
90
5
70
0
43
0
10
6.362895
20
1.905145
30
0
10
6.271284
20
2.187925
30
0
10
6.167111
20
2.466324
30
0
10
6.050587
20
2.739783
30
0
10
5.921945
20
3.007754
30
0
8
primarychainwheel_texts
0
LWPOLYLINE
5
2014
100
AcDbEntity
100
AcDbPolyline
66
1
90
5
70
0
43
0
10
5.817729
20
1.741914
30
0
10
5.733966
20
2.000466
30
0
10
5.638719
20
2.255011
30
0
10
5.532179
20
2.505041
30
0
10
5.414558
20
2.750052
30
0
8
primarychainwheel_texts
0
LWPOLYLINE
5
2015
100
AcDbEntity
100
AcDbPolyline
66
1
90
3
70
0
43
0
10
6.786518
20
1.385632
30
0
10
7.122773
20
1.124993
30
0
10
5.436439
20
0.858648
30
0
8
primarychainwheel_texts
0
LWPOLYLINE
5
2016
100
AcDbEntity
100
AcDbPolyline
66
1
90
3
70
0
43
0
10
5.469412
20
0.614552
30
0
10
5.436439
20
0.858648
30
0
10
5.392577
20
1.101025
30
0
8
primarychainwheel_texts
0
LWPOLYLINE
5
2017
100
AcDbEntity
100
AcDbPolyline
66
1
90
15
70
0
43
0
10
5.436439
20
-0.858648
30
0
10
5.469412
20
-0.614552
30
0
10
5.491432
20
-0.369224
30
0
10
5.502452
20
-0.123157
30
0
10
5.502452
20
0.123157
30
0
10
6.071389
20
0.135891
30
0
10
6.355857
20
-0.142258
30
0
10
6.343128
20
-0.426489
30
0
10
6.317693
20
-0.709866
30
0
10
6.560662
20
-1.036212
30
0
10
6.841717
20
-1.080602
30
0
10
7.165974
20
-0.80518
30
0
10
7.194824
20
-0.483754
30
0
10
7.209263
20
-0.161359
30
0
10
6.924794
20
0.154992
30
0
8
primarychainwheel_texts
0
LWPOLYLINE
5
2018
100
AcDbEntity
100
AcDbPolyline
66
1
90
11
70
0
43
0
10
5.668252
20
-2.878903
30
0
10
5.533768
20
-3.129629
30
0
10
5.3882
20
-3.374086
30
0
10
5.231841
20
-3.611786
30
0
10
5.291697
20
-4.014219
30
0
10
5.518391
20
-4.186186
30
0
10
5.934324
20
-4.096743
30
0
10
6.111677
20
-3.827127
30
0
10
6.27679
20
-3.549846
30
0
10
6.429332
20
-3.265455
30
0
10
4.907172
20
-2.492351
30
0
8
primarychainwheel_texts
0
LWPOLYLINE
5
2019
100
AcDbEntity
100
AcDbPolyline
66
1
90
5
70
0
43
0
10
4.036963
20
-5.274367
30
0
10
4.268906
20
-5.088463
30
0
10
4.492299
20
-4.892368
30
0
10
4.706694
20
-4.686475
30
0
10
4.911663
20
-4.471195
30
0
8
primarychainwheel_texts
0
LWPOLYLINE
5
2020
100
AcDbEntity
100
AcDbPolyline
66
1
90
5
70
0
43
0
10
3.69108
20
-4.822464
30
0
10
3.90315
20
-4.652488
30
0
10
4.107403
20
-4.473195
30
0
10
4.303429
20
-4.284942
30
0
10
4.490836
20
-4.088107
30
0
8
primarychainwheel_texts
0
LWPOLYLINE
5
2021
100
AcDbEntity
100
AcDbPolyline
66
1
90
14
70
0
43
0
10
3.397252
20
-5.373624
30
0
10
3.153423
20
-5.520243
30
0
10
2.903279
20
-5.655805
30
0
10
2.64732
20
-5.78004
30
0
10
2.279266
20
-5.628959
30
0
10
2.172473
20
-5.36522
30
0
10
2.291862
20
-5.00395
30
0
10
2.513454
20
-4.896396
30
0
10
2.730011
20
-4.779036
30
0
10
3.093151
20
-4.892611
30
0
10
3.549302
20
-5.614131
30
0
10
3.435698
20
-6.014381
30
0
10
3.293104
20
-6.415214
30
0
10
3.002777
20
-6.556129
30
0
8
primarychainwheel_texts
0
LWPOLYLINE
5
2022
100
AcDbEntity
100
AcDbPolyline
66
1
90
2
70
0
43
0
10
1.601367
20
-5.265716
30
0
10
1.93252
20
-6.354635
30
0
8
primarychainwheel_texts
0
LWPOLYLINE
5
2023
100
AcDbEntity
100
AcDbPolyline
66
1
90
6
70
0
43
0
10
1.849732
20
-6.082405
30
0
10
1.646266
20
-6.434736
30
0
10
1.298594
20
-6.223409
30
0
10
1.064446
20
-6.55614
30
0
10
0.737058
20
-6.314579
30
0
10
0.638092
20
-5.466716
30
0
8
primarychainwheel_texts
0
LWPOLYLINE
5
2024
100
AcDbEntity
100
AcDbPolyline
66
1
90
2
70
0
43
0
10
1.240473
20
-5.944868
30
0
10
1.298594
20
-6.223409
30
0
8
primarychainwheel_texts
0
LWPOLYLINE
5
2025
100
AcDbEntity
100
AcDbPolyline
66
1
90
2
70
0
43
0
10
0.146844
20
-5.501871
30
0
10
0.177211
20
-6.639624
30
0
8
primarychainwheel_texts
0
LWPOLYLINE
5
2026
100
AcDbEntity
100
AcDbPolyline
66
1
90
6
70
0
43
0
10
0.169619
20
-6.355186
30
0
10
-0.120036
20
-6.640904
30
0
10
-0.399177
20
-6.344905
30
0
10
-0.713215
20
-6.603585
30
0
10
-0.964777
20
-6.283818
30
0
10
-0.835236
20
-5.440085
30
0
8
primarychainwheel_texts
0
LWPOLYLINE
5
2027
100
AcDbEntity
100
AcDbPolyline
66
1
90
2
70
0
43
0
10
-0.381311
20
-6.060927
30
0
10
-0.399177
20
-6.344905
30
0
8
primarychainwheel_texts
0
LWPOLYLINE
5
2028
100
AcDbEntity
100
AcDbPolyline
66
1
90
840
70
1
43
0
10
21.164995
20
0
30
0
10
21.172356
20
0.163468
30
0
10
21.194378
20
0.325613
30
0
10
21.230883
20
0.485123
30
0
10
21.281576
20
0.640707
30
0
10
21.346046
20
0.791105
30
0
10
21.423772
20
0.9351
30
0
10
21.514125
20
1.071528
30
0
10
21.616373
20
1.199283
30
0
10
21.729689
20
1.317331
30
0
10
21.853156
20
1.424718
30
0
10
21.985774
20
1.520575
30
0
10
22.12647
20
1.604125
30
0
10
22.274106
20
1.674691
30
0
10
22.427486
20
1.731705
30
0
10
22.58537
20
1.774702
30
0
10
22.746479
20
1.803337
30
0
10
23.744068
20
2.666647
30
0
10
23.625187
20
3.569634
30
0
10
22.438149
20
4.145332
30
0
10
22.275119
20
4.131293
30
0
10
22.111486
20
4.131962
30
0
10
21.948576
20
4.147335
30
0
10
21.787707
20
4.177287
30
0
10
21.630181
20
4.221575
30
0
10
21.477272
20
4.279841
30
0
10
21.330218
20
4.351613
30
0
10
21.19021
20
4.436311
30
0
10
21.058381
20
4.533249
30
0
10
20.935797
20
4.641643
30
0
10
20.82345
20
4.760615
30
0
10
20.722251
20
4.889202
30
0
10
20.633017
20
5.026364
30
0
10
20.556472
20
5.17099
30
0
10
20.493234
20
5.321911
30
0
10
20.443815
20
5.477904
30
0
10
20.408616
20
5.637707
30
0
10
20.387922
20
5.800027
30
0
10
20.381899
20
5.96355
30
0
10
20.390596
20
6.126952
30
0
10
20.413944
20
6.288912
30
0
10
20.451753
20
6.448118
30
0
10
20.503717
20
6.603281
30
0
10
20.569416
20
6.753147
30
0
10
20.648317
20
6.896502
30
0
10
20.739783
20
7.032185
30
0
10
20.843073
20
7.159099
30
0
10
20.957351
20
7.276217
30
0
10
21.081692
20
7.382591
30
0
10
21.21509
20
7.477359
30
0
10
21.356465
20
7.559755
30
0
10
21.504674
20
7.629111
30
0
10
22.24483
20
8.7212
30
0
10
21.896289
20
9.56265
30
0
10
20.600697
20
9.811504
30
0
10
20.446855
20
9.755748
30
0
10
20.288625
20
9.714043
30
0
10
20.127287
20
9.686728
30
0
10
19.964148
20
9.674023
30
0
10
19.800526
20
9.676031
30
0
10
19.637747
20
9.692736
30
0
10
19.477128
20
9.724002
30
0
10
19.319969
20
9.769577
30
0
10
19.167543
20
9.829092
30
0
10
19.021081
20
9.902066
30
0
10
18.881771
20
9.987906
30
0
10
18.750739
20
10.085919
30
0
10
18.629045
20
10.195312
30
0
10
18.517676
20
10.315199
30
0
10
18.417532
20
10.44461
30
0
10
18.329423
20
10.582498
30
0
10
18.254064
20
10.727745
30
0
10
18.192063
20
10.879178
30
0
10
18.143922
20
11.03557
30
0
10
18.110032
20
11.195656
30
0
10
18.090666
20
11.35814
30
0
10
18.085981
20
11.521707
30
0
10
18.096015
20
11.685033
30
0
10
18.120687
20
11.846796
30
0
10
18.159797
20
12.005687
30
0
10
18.213029
20
12.16042
30
0
10
18.279951
20
12.309743
30
0
10
18.360023
20
12.452448
30
0
10
18.452596
20
12.587378
30
0
10
18.556921
20
12.713443
30
0
10
18.672153
20
12.829622
30
0
10
18.79736
20
12.934975
30
0
10
19.229643
20
14.181418
30
0
10
18.675195
20
14.903988
30
0
10
17.359341
20
14.809038
30
0
10
17.225172
20
14.715364
30
0
10
17.083128
20
14.634128
30
0
10
16.934357
20
14.565986
30
0
10
16.780065
20
14.51149
30
0
10
16.621499
20
14.471081
30
0
10
16.459943
20
14.445087
30
0
10
16.296704
20
14.433717
30
0
10
16.133105
20
14.437063
30
0
10
15.970468
20
14.455099
30
0
10
15.81011
20
14.487679
30
0
10
15.65333
20
14.534538
30
0
10
15.501395
20
14.595298
30
0
10
15.355535
20
14.669467
30
0
10
15.216931
20
14.756445
30
0
10
15.086706
20
14.855527
30
0
10
14.965912
20
14.965912
30
0
10
14.855527
20
15.086706
30
0
10
14.756445
20
15.216931
30
0
10
14.669467
20
15.355535
30
0
10
14.595298
20
15.501395
30
0
10
14.534538
20
15.65333
30
0
10
14.487679
20
15.81011
30
0
10
14.455099
20
15.970468
30
0
10
14.437063
20
16.133105
30
0
10
14.433717
20
16.296704
30
0
10
14.445087
20
16.459943
30
0
10
14.471081
20
16.621499
30
0
10
14.51149
20
16.780065
30
0
10
14.565986
20
16.934357
30
0
10
14.634128
20
17.083128
30
0
10
14.715364
20
17.225172
30
0
10
14.809038
20
17.359341
30
0
10
14.903988
20
18.675195
30
0
10
14.181418
20
19.229643
30
0
10
12.934975
20
18.79736
30
0
10
12.829622
20
18.672153
30
0
10
12.713443
20
18.556921
30
0
10
12.587378
20
18.452596
30
0
10
12.452448
20
18.360023
30
0
10
12.309743
20
18.279951
30
0
10
12.16042
20
18.213029
30
0
10
12.005687
20
18.159797
30
0
10
11.846796
20
18.120687
30
0
10
11.685033
20
18.096015
30
0
10
11.521707
20
18.085981
30
0
10
11.35814
20
18.090666
30
0
10
11.195656
20
18.110032
30
0
10
11.03557
20
18.143922
30
0
10
10.879178
20
18.192063
30
0
10
10.727745
20
18.254064
30
0
10
10.582498
20
18.329423
30
0
10
10.44461
20
18.417532
30
0
10
10.315199
20
18.517676
30
0
10
10.195312
20
18.629045
30
0
10
10.085919
20
18.750739
30
0
10
9.987906
20
18.881771
30
0
10
9.902066
20
19.021081
30
0
10
9.829092
20
19.167543
30
0
10
9.769577
20
19.319969
30
0
10
9.724002
20
19.477128
30
0
10
9.692736
20
19.637747
30
0
10
9.676031
20
19.800526
30
0
10
9.674023
20
19.964148
30
0
10
9.686728
20
20.127287
30
0
10
9.714043
20
20.288625
30
0
10
9.755748
20
20.446855
30
0
10
9.811504
20
20.600697
30
0
10
9.56265
20
21.896289
30
0
10
8.7212
20
22.24483
30
0
10
7.629111
20
21.504674
30
0
10
7.559755
20
21.356465
30
0
10
7.477359
20
21.21509
30
0
10
7.382591
20
21.081692
30
0
10
7.276217
20
20.957351
30
0
10
7.159099
20
20.843073
30
0
10
7.032185
20
20.739783
30
0
10
6.896502
20
20.648317
30
0
10
6.753147
20
20.569416
30
0
10
6.603281
20
20.503717
30
0
10
6.448118
20
20.451753
30
0
10
6.288912
20
20.413944
30
0
10
6.126952
20
20.390596
30
0
10
5.96355
20
20.381899
30
0
10
5.800027
20
20.387922
30
0
10
5.637707
20
20.408616
30
0
10
5.477904
20
20.443815
30
0
10
5.321911
20
20.493234
30
0
10
5.17099
20
20.556472
30
0
10
5.026364
20
20.633017
30
0
10
4.889202
20
20.722251
30
0
10
4.760615
20
20.82345
30
0
10
4.641643
20
20.935797
30
0
10
4.533249
20
21.058381
30
0
10
4.436311
20
21.19021
30
0
10
4.351613
20
21.330218
30
0
10
4.279841
20
21.477272
30
0
10
4.221575
20
21.630181
30
0
10
4.177287
20
21.787707
30
0
10
4.147335
20
21.948576
30
0
10
4.131962
20
22.111486
30
0
10
4.131293
20
22.275119
30
0
10
4.145332
20
22.438149
30
0
10
3.569634
20
23.625187
30
0
10
2.666647
20
23.744068
30
0
10
1.803337
20
22.746479
30
0
10
1.774702
20
22.58537
30
0
10
1.731705
20
22.427486
30
0
10
1.674691
20
22.274106
30
0
10
1.604125
20
22.12647
30
0
10
1.520575
20
21.985774
30
0
10
1.424718
20
21.853156
30
0
10
1.317331
20
21.729689
30
0
10
1.199283
20
21.616373
30
0
10
1.071528
20
21.514125
30
0
10
0.9351
20
21.423772
30
0
10
0.791105
20
21.346046
30
0
10
0.640707
20
21.281576
30
0
10
0.485123
20
21.230883
30
0
10
0.325613
20
21.194378
30
0
10
0.163468
20
21.172356
30
0
10
0
20
21.164995
30
0
10
-0.163468
20
21.172356
30
0
10
-0.325613
20
21.194378
30
0
10
-0.485123
20
21.230883
30
0
10
-0.640707
20
21.281576
30
0
10
-0.791105
20
21.346046
30
0
10
-0.9351
20
21.423772
30
0
10
-1.071528
20
21.514125
30
0
10
-1.199283
20
21.616373
30
0
10
-1.317331
20
21.729689
30
0
10
-1.424718
20
21.853156
30
0
10
-1.520575
20
21.985774
30
0
10
-1.604125
20
22.12647
30
0
10
-1.674691
20
22.274106
30
0
10
-1.731705
20
22.427486
30
0
10
-1.774702
20
22.58537
30
0
10
-1.803337
20
22.746479
30
0
10
-2.666647
20
23.744068
30
0
10
-3.569634
20
23.625187
30
0
10
-4.145332
20
22.438149
30
0
10
-4.131293
20
22.275119
30
0
10
-4.131962
20
22.111486
30
0
10
-4.147335
20
21.948576
30
0
10
-4.177287
20
21.787707
30
0
10
-4.221575
20
21.630181
30
0
10
-4.279841
20
21.477272
30
0
10
-4.351613
20
21.330218
30
0
10
-4.436311
20
21.19021
30
0
10
-4.533249
20
21.058381
30
0
10
-4.641643
20
20.935797
30
0
10
-4.760615
20
20.82345
30
0
10
-4.889202
20
20.722251
30
0
10
-5.026364
20
20.633017
30
0
10
-5.17099
20
20.556472
30
0
10
-5.321911
20
20.493234
30
0
10
-5.477904
20
20.443815
30
0
10
-5.637707
20
20.408616
30
0
10
-5.800027
20
20.387922
30
0
10
-5.96355
20
20.381899
30
0
10
-6.126952
20
20.390596
30
0
10
-6.288912
20
20.413944
30
0
10
-6.448118
20
20.451753
30
0
10
-6.603281
20
20.503717
30
0
10
-6.753147
20
20.569416
30
0
10
-6.896502
20
20.648317
30
0
10
-7.032185
20
20.739783
30
0
10
-7.159099
20
20.843073
30
0
10
-7.276217
20
20.957351
30
0
10
-7.382591
20
21.081692
30
0
10
-7.477359
20
21.21509
30
0
10
-7.559755
20
21.356465
30
0
10
-7.629111
20
21.504674
30
0
10
-8.7212
20
22.24483
30
0
10
-9.56265
20
21.896289
30
0
10
-9.811504
20
20.600697
30
0
10
-9.755748
20
20.446855
30
0
10
-9.714043
20
20.288625
30
0
10
-9.686728
20
20.127287
30
0
10
-9.674023
20
19.964148
30
0
10
-9.676031
20
19.800526
30
0
10
-9.692736
20
19.637747
30
0
10
-9.724002
20
19.477128
30
0
10
-9.769577
20
19.319969
30
0
10
-9.829092
20
19.167543
30
0
10
-9.902066
20
19.021081
30
0
10
-9.987906
20
18.881771
30
0
10
-10.085919
20
18.750739
30
0
10
-10.195312
20
18.629045
30
0
10
-10.315199
20
18.517676
30
0
10
-10.44461
20
18.417532
30
0
10
-10.582498
20
18.329423
30
0
10
-10.727745
20
18.254064
30
0
10
-10.879178
20
18.192063
30
0
10
-11.03557
20
18.143922
30
0
10
-11.195656
20
18.110032
30
0
10
-11.35814
20
18.090666
30
0
10
-11.521707
20
18.085981
30
0
10
-11.685033
20
18.096015
30
0
10
-11.846796
20
18.120687
30
0
10
-12.005687
20
18.159797
30
0
10
-12.16042
20
18.213029
30
0
10
-12.309743
20
18.279951
30
0
10
-12.452448
20
18.360023
30
0
10
-12.587378
20
18.452596
30
0
10
-12.713443
20
18.556921
30
0
10
-12.829622
20
18.672153
30
0
10
-12.934975
20
18.79736
30
0
10
-14.181418
20
19.229643
30
0
10
-14.903988
20
18.675195
30
0
10
-14.809038
20
17.359341
30
0
10
-14.715364
20
17.225172
30
0
10
-14.634128
20
17.083128
30
0
10
-14.565986
20
16.934357
30
0
10
-14.51149
20
16.780065
30
0
10
-14.471081
20
16.621499
30
0
10
-14.445087
20
16.459943
30
0
10
-14.433717
20
16.296704
30
0
10
-14.437063
20
16.133105
30
0
10
-14.455099
20
15.970468
30
0
10
-14.487679
20
15.81011
30
0
10
-14.534538
20
15.65333
30
0
10
-14.595298
20
15.501395
30
0
10
-14.669467
20
15.355535
30
0
10
-14.756445
20
15.216931
30
0
10
-14.855527
20
15.086706
30
0
10
-14.965912
20
14.965912
30
0
10
-15.086706
20
14.855527
30
0
10
-15.216931
20
14.756445
30
0
10
-15.355535
20
14.669467
30
0
10
-15.501395
20
14.595298
30
0
10
-15.65333
20
14.534538
30
0
10
-15.81011
20
14.487679
30
0
10
-15.970468
20
14.455099
30
0
10
-16.133105
20
14.437063
30
0
10
-16.296704
20
14.433717
30
0
10
-16.459943
20
14.445087
30
0
10
-16.621499
20
14.471081
30
0
10
-16.780065
20
14.51149
30
0
10
-16.934357
20
14.565986
30
0
10
-17.083128
20
14.634128
30
0
10
-17.225172
20
14.715364
30
0
10
-17.359341
20
14.809038
30
0
10
-18.675195
20
14.903988
30
0
10
-19.229643
20
14.181418
30
0
10
-18.79736
20
12.934975
30
0
10
-18.672153
20
12.829622
30
0
10
-18.556921
20
12.713443
30
0
10
-18.452596
20
12.587378
30
0
10
-18.360023
20
12.452448
30
0
10
-18.279951
20
12.309743
30
0
10
-18.213029
20
12.16042
30
0
10
-18.159797
20
12.005687
30
0
10
-18.120687
20
11.846796
30
0
10
-18.096015
20
11.685033
30
0
10
-18.085981
20
11.521707
30
0
10
-18.090666
20
11.35814
30
0
10
-18.110032
20
11.195656
30
0
10
-18.143922
20
11.03557
30
0
10
-18.192063
20
10.879178
30
0
10
-18.254064
20
10.727745
30
0
10
-18.329423
20
10.582498
30
0
10
-18.417532
20
10.44461
30
0
10
-18.517676
20
10.315199
30
0
10
-18.629045
20
10.195312
30
0
10
-18.750739
20
10.085919
30
0
10
-18.881771
20
9.987906
30
0
10
-19.021081
20
9.902066
30
0
10
-19.167543
20
9.829092
30
0
10
-19.319969
20
9.769577
30
0
10
-19.477128
20
9.724002
30
0
10
-19.637747
20
9.692736
30
0
10
-19.800526
20
9.676031
30
0
10
-19.964148
20
9.674023
30
0
10
-20.127287
20
9.686728
30
0
10
-20.288625
20
9.714043
30
0
10
-20.446855
20
9.755748
30
0
10
-20.600697
20
9.811504
30
0
10
-21.896289
20
9.56265
30
0
10
-22.24483
20
8.7212
30
0
10
-21.504674
20
7.629111
30
0
10
-21.356465
20
7.559755
30
0
10
-21.21509
20
7.477359
30
0
10
-21.081692
20
7.382591
30
0
10
-20.957351
20
7.276217
30
0
10
-20.843073
20
7.159099
30
0
10
-20.739783
20
7.032185
30
0
10
-20.648317
20
6.896502
30
0
10
-20.569416
20
6.753147
30
0
10
-20.503717
20
6.603281
30
0
10
-20.451753
20
6.448118
30
0
10
-20.413944
20
6.288912
30
0
10
-20.390596
20
6.126952
30
0
10
-20.381899
20
5.96355
30
0
10
-20.387922
20
5.800027
30
0
10
-20.408616
20
5.637707
30
0
10
-20.443815
20
5.477904
30
0
10
-20.493234
20
5.321911
30
0
10
-20.556472
20
5.17099
30
0
10
-20.633017
20
5.026364
30
0
10
-20.722251
20
4.889202
30
0
10
-20.82345
20
4.760615
30
0
10
-20.935797
20
4.641643
30
0
10
-21.058381
20
4.533249
30
0
10
-21.19021
20
4.436311
30
0
10
-21.330218
20
4.351613
30
0
10
-21.477272
20
4.279841
30
0
10
-21.630181
20
4.221575
30
0
10
-21.787707
20
4.177287
30
0
10
-21.948576
20
4.147335
30
0
10
-22.111486
20
4.131962
30
0
10
-22.275119
20
4.131293
30
0
10
-22.438149
20
4.145332
30
0
10
-23.625187
20
3.569634
30
0
10
-23.744068
20
2.666647
30
0
10
-22.746479
20
1.803337
30
0
10
-22.58537
20
1.774702
30
0
10
-22.427486
20
1.731705
30
0
10
-22.274106
20
1.674691
30
0
10
-22.12647
20
1.604125
30
0
10
-21.985774
20
1.520575
30
0
10
-21.853156
20
1.424718
30
0
10
-21.729689
20
1.317331
30
0
10
-21.616373
20
1.199283
30
0
10
-21.514125
20
1.071528
30
0
10
-21.423772
20
0.9351
30
0
10
-21.346046
20
0.791105
30
0
10
-21.281576
20
0.640707
30
0
10
-21.230883
20
0.485123
30
0
10
-21.194378
20
0.325613
30
0
10
-21.172356
20
0.163468
30
0
10
-21.164995
20
0
30
0
10
-21.172356
20
-0.163468
30
0
10
-21.194378
20
-0.325613
30
0
10
-21.230883
20
-0.485123
30
0
10
-21.281576
20
-0.640707
30
0
10
-21.346046
20
-0.791105
30
0
10
-21.423772
20
-0.9351
30
0
10
-21.514125
20
-1.071528
30
0
10
-21.616373
20
-1.199283
30
0
10
-21.729689
20
-1.317331
30
0
10
-21.853156
20
-1.424718
30
0
10
-21.985774
20
-1.520575
30
0
10
-22.12647
20
-1.604125
30
0
10
-22.274106
20
-1.674691
30
0
10
-22.427486
20
-1.731705
30
0
10
-22.58537
20
-1.774702
30
0
10
-22.746479
20
-1.803337
30
0
10
-23.744068
20
-2.666647
30
0
10
-23.625187
20
-3.569634
30
0
10
-22.438149
20
-4.145332
30
0
10
-22.275119
20
-4.131293
30
0
10
-22.111486
20
-4.131962
30
0
10
-21.948576
20
-4.147335
30
0
10
-21.787707
20
-4.177287
30
0
10
-21.630181
20
-4.221575
30
0
10
-21.477272
20
-4.279841
30
0
10
-21.330218
20
-4.351613
30
0
10
-21.19021
20
-4.436311
30
0
10
-21.058381
20
-4.533249
30
0
10
-20.935797
20
-4.641643
30
0
10
-20.82345
20
-4.760615
30
0
10
-20.722251
20
-4.889202
30
0
10
-20.633017
20
-5.026364
30
0
10
-20.556472
20
-5.17099
30
0
10
-20.493234
20
-5.321911
30
0
10
-20.443815
20
-5.477904
30
0
10
-20.408616
20
-5.637707
30
0
10
-20.387922
20
-5.800027
30
0
10
-20.381899
20
-5.96355
30
0
10
-20.390596
20
-6.126952
30
0
10
-20.413944
20
-6.288912
30
0
10
-20.451753
20
-6.448118
30
0
10
-20.503717
20
-6.603281
30
0
10
-20.569416
20
-6.753147
30
0
10
-20.648317
20
-6.896502
30
0
10
-20.739783
20
-7.032185
30
0
10
-20.843073
20
-7.159099
30
0
10
-20.957351
20
-7.276217
30
0
10
-21.081692
20
-7.382591
30
0
10
-21.21509
20
-7.477359
30
0
10
-21.356465
20
-7.559755
30
0
10
-21.504674
20
-7.629111
30
0
10
-22.24483
20
-8.7212
30
0
10
-21.896289
20
-9.56265
30
0
10
-20.600697
20
-9.811504
30
0
10
-20.446855
20
-9.755748
30
0
10
-20.288625
20
-9.714043
30
0
10
-20.127287
20
-9.686728
30
0
10
-19.964148
20
-9.674023
30
0
10
-19.800526
20
-9.676031
30
0
10
-19.637747
20
-9.692736
30
0
10
-19.477128
20
-9.724002
30
0
10
-19.319969
20
-9.769577
30
0
10
-19.167543
20
-9.829092
30
0
10
-19.021081
20
-9.902066
30
0
10
-18.881771
20
-9.987906
30
0
10
-18.750739
20
-10.085919
30
0
10
-18.629045
20
-10.195312
30
0
10
-18.517676
20
-10.315199
30
0
10
-18.417532
20
-10.44461
30
0
10
-18.329423
20
-10.582498
30
0
10
-18.254064
20
-10.727745
30
0
10
-18.192063
20
-10.879178
30
0
10
-18.143922
20
-11.03557
30
0
10
-18.110032
20
-11.195656
30
0
10
-18.090666
20
-11.35814
30
0
10
-18.085981
20
-11.521707
30
0
10
-18.096015
20
-11.685033
30
0
10
-18.120687
20
-11.846796
30
0
10
-18.159797
20
-12.005687
30
0
10
-18.213029
20
-12.16042
30
0
10
-18.279951
20
-12.309743
30
0
10
-18.360023
20
-12.452448
30
0
10
-18.452596
20
-12.587378
30
0
10
-18.556921
20
-12.713443
30
0
10
-18.672153
20
-12.829622
30
0
10
-18.79736
20
-12.934975
30
0
10
-19.229643
20
-14.181418
30
0
10
-18.675195
20
-14.903988
30
0
10
-17.359341
20
-14.809038
30
0
10
-17.225172
20
-14.715364
30
0
10
-17.083128
20
-14.634128
30
0
10
-16.934357
20
-14.565986
30
0
10
-16.780065
20
-14.51149
30
0
10
-16.621499
20
-14.471081
30
0
10
-16.459943
20
-14.445087
30
0
10
-16.296704
20
-14.433717
30
0
10
-16.133105
20
-14.437063
30
0
10
-15.970468
20
-14.455099
30
0
10
-15.81011
20
-14.487679
30
0
10
-15.65333
20
-14.534538
30
0
10
-15.501395
20
-14.595298
30
0
10
-15.355535
20
-14.669467
30
0
10
-15.216931
20
-14.756445
30
0
10
-15.086706
20
-14.855527
30
0
10
-14.965912
20
-14.965912
30
0
10
-14.855527
20
-15.086706
30
0
10
-14.756445
20
-15.216931
30
0
10
-14.669467
20
-15.355535
30
0
10
-14.595298
20
-15.501395
30
0
10
-14.534538
20
-15.65333
30
0
10
-14.487679
20
-15.81011
30
0
10
-14.455099
20
-15.970468
30
0
10
-14.437063
20
-16.133105
30
0
10
-14.433717
20
-16.296704
30
0
10
-14.445087
20
-16.459943
30
0
10
-14.471081
20
-16.621499
30
0
10
-14.51149
20
-16.780065
30
0
10
-14.565986
20
-16.934357
30
0
10
-14.634128
20
-17.083128
30
0
10
-14.715364
20
-17.225172
30
0
10
-14.809038
20
-17.359341
30
0
10
-14.903988
20
-18.675195
30
0
10
-14.181418
20
-19.229643
30
0
10
-12.934975
20
-18.79736
30
0
10
-12.829622
20
-18.672153
30
0
10
-12.713443
20
-18.556921
30
0
10
-12.587378
20
-18.452596
30
0
10
-12.452448
20
-18.360023
30
0
10
-12.309743
20
-18.279951
30
0
10
-12.16042
20
-18.213029
30
0
10
-12.005687
20
-18.159797
30
0
10
-11.846796
20
-18.120687
30
0
10
-11.685033
20
-18.096015
30
0
10
-11.521707
20
-18.085981
30
0
10
-11.35814
20
-18.090666
30
0
10
-11.195656
20
-18.110032
30
0
10
-11.03557
20
-18.143922
30
0
10
-10.879178
20
-18.192063
30
0
10
-10.727745
20
-18.254064
30
0
10
-10.582498
20
-18.329423
30
0
10
-10.44461
20
-18.417532
30
0
10
-10.315199
20
-18.517676
30
0
10
-10.195312
20
-18.629045
30
0
10
-10.085919
20
-18.750739
30
0
10
-9.987906
20
-18.881771
30
0
10
-9.902066
20
-19.021081
30
0
10
-9.829092
20
-19.167543
30
0
10
-9.769577
20
-19.319969
30
0
10
-9.724002
20
-19.477128
30
0
10
-9.692736
20
-19.637747
30
0
10
-9.676031
20
-19.800526
30
0
10
-9.674023
20
-19.964148
30
0
10
-9.686728
20
-20.127287
30
0
10
-9.714043
20
-20.288625
30
0
10
-9.755748
20
-20.446855
30
0
10
-9.811504
20
-20.600697
30
0
10
-9.56265
20
-21.896289
30
0
10
-8.7212
20
-22.24483
30
0
10
-7.629111
20
-21.504674
30
0
10
-7.559755
20
-21.356465
30
0
10
-7.477359
20
-21.21509
30
0
10
-7.382591
20
-21.081692
30
0
10
-7.276217
20
-20.957351
30
0
10
-7.159099
20
-20.843073
30
0
10
-7.032185
20
-20.739783
30
0
10
-6.896502
20
-20.648317
30
0
10
-6.753147
20
-20.569416
30
0
10
-6.603281
20
-20.503717
30
0
10
-6.448118
20
-20.451753
30
0
10
-6.288912
20
-20.413944
30
0
10
-6.126952
20
-20.390596
30
0
10
-5.96355
20
-20.381899
30
0
10
-5.800027
20
-20.387922
30
0
10
-5.637707
20
-20.408616
30
0
10
-5.477904
20
-20.443815
30
0
10
-5.321911
20
-20.493234
30
0
10
-5.17099
20
-20.556472
30
0
10
-5.026364
20
-20.633017
30
0
10
-4.889202
20
-20.722251
30
0
10
-4.760615
20
-20.82345
30
0
10
-4.641643
20
-20.935797
30
0
10
-4.533249
20
-21.058381
30
0
10
-4.436311
20
-21.19021
30
0
10
-4.351613
20
-21.330218
30
0
10
-4.279841
20
-21.477272
30
0
10
-4.221575
20
-21.630181
30
0
10
-4.177287
20
-21.787707
30
0
10
-4.147335
20
-21.948576
30
0
10
-4.131962
20
-22.111486
30
0
10
-4.131293
20
-22.275119
30
0
10
-4.145332
20
-22.438149
30
0
10
-3.569634
20
-23.625187
30
0
10
-2.666647
20
-23.744068
30
0
10
-1.803337
20
-22.746479
30
0
10
-1.774702
20
-22.58537
30
0
10
-1.731705
20
-22.427486
30
0
10
-1.674691
20
-22.274106
30
0
10
-1.604125
20
-22.12647
30
0
10
-1.520575
20
-21.985774
30
0
10
-1.424718
20
-21.853156
30
0
10
-1.317331
20
-21.729689
30
0
10
-1.199283
20
-21.616373
30
0
10
-1.071528
20
-21.514125
30
0
10
-0.9351
20
-21.423772
30
0
10
-0.791105
20
-21.346046
30
0
10
-0.640707
20
-21.281576
30
0
10
-0.485123
20
-21.230883
30
0
10
-0.325613
20
-21.194378
30
0
10
-0.163468
20
-21.172356
30
0
10
0
20
-21.164995
30
0
10
0.163468
20
-21.172356
30
0
10
0.325613
20
-21.194378
30
0
10
0.485123
20
-21.230883
30
0
10
0.640707
20
-21.281576
30
0
10
0.791105
20
-21.346046
30
0
10
0.9351
20
-21.423772
30
0
10
1.071528
20
-21.514125
30
0
10
1.199283
20
-21.616373
30
0
10
1.317331
20
-21.729689
30
0
10
1.424718
20
-21.853156
30
0
10
1.520575
20
-21.985774
30
0
10
1.604125
20
-22.12647
30
0
10
1.674691
20
-22.274106
30
0
10
1.731705
20
-22.427486
30
0
10
1.774702
20
-22.58537
30
0
10
1.803337
20
-22.746479
30
0
10
2.666647
20
-23.744068
30
0
10
3.569634
20
-23.625187
30
0
10
4.145332
20
-22.438149
30
0
10
4.131293
20
-22.275119
30
0
10
4.131962
20
-22.111486
30
0
10
4.147335
20
-21.948576
30
0
10
4.177287
20
-21.787707
30
0
10
4.221575
20
-21.630181
30
0
10
4.279841
20
-21.477272
30
0
10
4.351613
20
-21.330218
30
0
10
4.436311
20
-21.19021
30
0
10
4.533249
20
-21.058381
30
0
10
4.641643
20
-20.935797
30
0
10
4.760615
20
-20.82345
30
0
10
4.889202
20
-20.722251
30
0
10
5.026364
20
-20.633017
30
0
10
5.17099
20
-20.556472
30
0
10
5.321911
20
-20.493234
30
0
10
5.477904
20
-20.443815
30
0
10
5.637707
20
-20.408616
30
0
10
5.800027
20
-20.387922
30
0
10
5.96355
20
-20.381899
30
0
10
6.126952
20
-20.390596
30
0
10
6.288912
20
-20.413944
30
0
10
6.448118
20
-20.451753
30
0
10
6.603281
20
-20.503717
30
0
10
6.753147
20
-20.569416
30
0
10
6.896502
20
-20.648317
30
0
10
7.032185
20
-20.739783
30
0
10
7.159099
20
-20.843073
30
0
10
7.276217
20
-20.957351
30
0
10
7.382591
20
-21.081692
30
0
10
7.477359
20
-21.21509
30
0
10
7.559755
20
-21.356465
30
0
10
7.629111
20
-21.504674
30
0
10
8.7212
20
-22.24483
30
0
10
9.56265
20
-21.896289
30
0
10
9.811504
20
-20.600697
30
0
10
9.755748
20
-20.446855
30
0
10
9.714043
20
-20.288625
30
0
10
9.686728
20
-20.127287
30
0
10
9.674023
20
-19.964148
30
0
10
9.676031
20
-19.800526
30
0
10
9.692736
20
-19.637747
30
0
10
9.724002
20
-19.477128
30
0
10
9.769577
20
-19.319969
30
0
10
9.829092
20
-19.167543
30
0
10
9.902066
20
-19.021081
30
0
10
9.987906
20
-18.881771
30
0
10
10.085919
20
-18.750739
30
0
10
10.195312
20
-18.629045
30
0
10
10.315199
20
-18.517676
30
0
10
10.44461
20
-18.417532
30
0
10
10.582498
20
-18.329423
30
0
10
10.727745
20
-18.254064
30
0
10
10.879178
20
-18.192063
30
0
10
11.03557
20
-18.143922
30
0
10
11.195656
20
-18.110032
30
0
10
11.35814
20
-18.090666
30
0
10
11.521707
20
-18.085981
30
0
10
11.685033
20
-18.096015
30
0
10
11.846796
20
-18.120687
30
0
10
12.005687
20
-18.159797
30
0
10
12.16042
20
-18.213029
30
0
10
12.309743
20
-18.279951
30
0
10
12.452448
20
-18.360023
30
0
10
12.587378
20
-18.452596
30
0
10
12.713443
20
-18.556921
30
0
10
12.829622
20
-18.672153
30
0
10
12.934975
20
-18.79736
30
0
10
14.181418
20
-19.229643
30
0
10
14.903988
20
-18.675195
30
0
10
14.809038
20
-17.359341
30
0
10
14.715364
20
-17.225172
30
0
10
14.634128
20
-17.083128
30
0
10
14.565986
20
-16.934357
30
0
10
14.51149
20
-16.780065
30
0
10
14.471081
20
-16.621499
30
0
10
14.445087
20
-16.459943
30
0
10
14.433717
20
-16.296704
30
0
10
14.437063
20
-16.133105
30
0
10
14.455099
20
-15.970468
30
0
10
14.487679
20
-15.81011
30
0
10
14.534538
20
-15.65333
30
0
10
14.595298
20
-15.501395
30
0
10
14.669467
20
-15.355535
30
0
10
14.756445
20
-15.216931
30
0
10
14.855527
20
-15.086706
30
0
10
14.965912
20
-14.965912
30
0
10
15.086706
20
-14.855527
30
0
10
15.216931
20
-14.756445
30
0
10
15.355535
20
-14.669467
30
0
10
15.501395
20
-14.595298
30
0
10
15.65333
20
-14.534538
30
0
10
15.81011
20
-14.487679
30
0
10
15.970468
20
-14.455099
30
0
10
16.133105
20
-14.437063
30
0
10
16.296704
20
-14.433717
30
0
10
16.459943
20
-14.445087
30
0
10
16.621499
20
-14.471081
30
0
10
16.780065
20
-14.51149
30
0
10
16.934357
20
-14.565986
30
0
10
17.083128
20
-14.634128
30
0
10
17.225172
20
-14.715364
30
0
10
17.359341
20
-14.809038
30
0
10
18.675195
20
-14.903988
30
0
10
19.229643
20
-14.181418
30
0
10
18.79736
20
-12.934975
30
0
10
18.672153
20
-12.829622
30
0
10
18.556921
20
-12.713443
30
0
10
18.452596
20
-12.587378
30
0
10
18.360023
20
-12.452448
30
0
10
18.279951
20
-12.309743
30
0
10
18.213029
20
-12.16042
30
0
10
18.159797
20
-12.005687
30
0
10
18.120687
20
-11.846796
30
0
10
18.096015
20
-11.685033
30
0
10
18.085981
20
-11.521707
30
0
10
18.090666
20
-11.35814
30
0
10
18.110032
20
-11.195656
30
0
10
18.143922
20
-11.03557
30
0
10
18.192063
20
-10.879178
30
0
10
18.254064
20
-10.727745
30
0
10
18.329423
20
-10.582498
30
0
10
18.417532
20
-10.44461
30
0
10
18.517676
20
-10.315199
30
0
10
18.629045
20
-10.195312
30
0
10
18.750739
20
-10.085919
30
0
10
18.881771
20
-9.987906
30
0
10
19.021081
20
-9.902066
30
0
10
19.167543
20
-9.829092
30
0
10
19.319969
20
-9.769577
30
0
10
19.477128
20
-9.724002
30
0
10
19.637747
20
-9.692736
30
0
10
19.800526
20
-9.676031
30
0
10
19.964148
20
-9.674023
30
0
10
20.127287
20
-9.686728
30
0
10
20.288625
20
-9.714043
30
0
10
20.446855
20
-9.755748
30
0
10
20.600697
20
-9.811504
30
0
10
21.896289
20
-9.56265
30
0
10
22.24483
20
-8.7212
30
0
10
21.504674
20
-7.629111
30
0
10
21.356465
20
-7.559755
30
0
10
21.21509
20
-7.477359
30
0
10
21.081692
20
-7.382591
30
0
10
20.957351
20
-7.276217
30
0
10
20.843073
20
-7.159099
30
0
10
20.739783
20
-7.032185
30
0
10
20.648317
20
-6.896502
30
0
10
20.569416
20
-6.753147
30
0
10
20.503717
20
-6.603281
30
0
10
20.451753
20
-6.448118
30
0
10
20.413944
20
-6.288912
30
0
10
20.390596
20
-6.126952
30
0
10
20.381899
20
-5.96355
30
0
10
20.387922
20
-5.800027
30
0
10
20.408616
20
-5.637707
30
0
10
20.443815
20
-5.477904
30
0
10
20.493234
20
-5.321911
30
0
10
20.556472
20
-5.17099
30
0
10
20.633017
20
-5.026364
30
0
10
20.722251
20
-4.889202
30
0
10
20.82345
20
-4.760615
30
0
10
20.935797
20
-4.641643
30
0
10
21.058381
20
-4.533249
30
0
10
21.19021
20
-4.436311
30
0
10
21.330218
20
-4.351613
30
0
10
21.477272
20
-4.279841
30
0
10
21.630181
20
-4.221575
30
0
10
21.787707
20
-4.177287
30
0
10
21.948576
20
-4.147335
30
0
10
22.111486
20
-4.131962
30
0
10
22.275119
20
-4.131293
30
0
10
22.438149
20
-4.145332
30
0
10
23.625187
20
-3.569634
30
0
10
23.744068
20
-2.666647
30
0
10
22.746479
20
-1.803337
30
0
10
22.58537
20
-1.774702
30
0
10
22.427486
20
-1.731705
30
0
10
22.274106
20
-1.674691
30
0
10
22.12647
20
-1.604125
30
0
10
21.985774
20
-1.520575
30
0
10
21.853156
20
-1.424718
30
0
10
21.729689
20
-1.317331
30
0
10
21.616373
20
-1.199283
30
0
10
21.514125
20
-1.071528
30
0
10
21.423772
20
-0.9351
30
0
10
21.346046
20
-0.791105
30
0
10
21.281576
20
-0.640707
30
0
10
21.230883
20
-0.485123
30
0
10
21.194378
20
-0.325613
30
0
10
21.172356
20
-0.163468
30
0
8
secondarychainwheel
0
CIRCLE
5
2029
100
AcDbEntity
100
AcDbCircle
10
0
20
0
30
0
40
22.983893
8
secondarychainwheel_guides
0
CIRCLE
5
2030
100
AcDbEntity
100
AcDbCircle
10
0
20
0
30
0
40
23.893342
8
secondarychainwheel_guides
0
CIRCLE
5
2031
100
AcDbEntity
100
AcDbCircle
10
0
20
0
30
0
40
21.164995
8
secondarychainwheel_guides
0
LINE
5
2032
100
AcDbEntity
100
AcDbLine
10
1.6
20
0
30
0
11
-1.6
21
0
31
0
8
secondarychainwheel_guides
0
LINE
5
2033
100
AcDbEntity
100
AcDbLine
10
0
20
1.6
30
0
11
0
21
-1.6
31
0
8
secondarychainwheel_guides
0
LWPOLYLINE
5
2034
100
AcDbEntity
100
AcDbPolyline
66
1
90
5
70
0
43
0
10
4.423872
20
15.122714
30
0
10
3.888334
20
15.269184
30
0
10
3.347968
20
15.396696
30
0
10
2.803446
20
15.50509
30
0
10
2.255442
20
15.594233
30
0
8
secondarychainwheel_texts
0
LWPOLYLINE
5
2035
100
AcDbEntity
100
AcDbPolyline
66
1
90
2
70
0
43
0
10
3.112013
20
14.311583
30
0
10
3.583923
20
16.481809
30
0
8
secondarychainwheel_texts
0
LWPOLYLINE
5
2036
100
AcDbEntity
100
AcDbPolyline
66
1
90
5
70
0
43
0
10
4.735653
20
16.188518
30
0
10
4.025353
20
15.807248
30
0
10
3.347968
20
15.396696
30
0
10
2.704656
20
14.958714
30
0
10
2.096485
20
14.495199
30
0
8
secondarychainwheel_texts
0
LWPOLYLINE
5
2037
100
AcDbEntity
100
AcDbPolyline
66
1
90
5
70
0
43
0
10
4.112091
20
14.056911
30
0
10
3.751315
20
14.731121
30
0
10
3.347968
20
15.396696
30
0
10
2.902235
20
16.051466
30
0
10
2.414399
20
16.693268
30
0
8
secondarychainwheel_texts
0
LWPOLYLINE
5
2038
100
AcDbEntity
100
AcDbPolyline
66
1
90
13
70
0
43
0
10
8.027508
20
14.834205
30
0
10
7.746783
20
15.605141
30
0
10
7.192186
20
15.868382
30
0
10
6.628658
20
16.11192
30
0
10
5.863871
20
15.814852
30
0
10
6.206155
20
15.084965
30
0
10
6.504553
20
14.351234
30
0
10
6.759241
20
13.615835
30
0
10
6.970494
20
12.880926
30
0
10
6.26547
20
12.621181
30
0
10
5.816921
20
12.834086
30
0
10
5.36115
20
13.031056
30
0
10
5.091751
20
13.732447
30
0
8
secondarychainwheel_texts
0
LWPOLYLINE
5
2039
100
AcDbEntity
100
AcDbPolyline
66
1
90
14
70
0
43
0
10
8.456216
20
13.295095
30
0
10
8.919369
20
12.988918
30
0
10
9.371447
20
12.666614
30
0
10
9.811889
20
12.328583
30
0
10
9.879301
20
11.553255
30
0
10
9.518454
20
11.131266
30
0
10
8.77462
20
11.025261
30
0
10
8.38074
20
11.327557
30
0
10
7.976453
20
11.615788
30
0
10
7.860247
20
12.358096
30
0
10
8.754201
20
13.763594
30
0
10
9.547979
20
13.904338
30
0
10
10.362154
20
14.005672
30
0
10
10.849158
20
13.631906
30
0
8
secondarychainwheel_texts
0
LWPOLYLINE
5
2040
100
AcDbEntity
100
AcDbPolyline
66
1
90
7
70
0
43
0
10
15.487697
20
7.978992
30
0
10
12.526195
20
6.453277
30
0
10
13.017539
20
7.29786
30
0
10
13.464023
20
8.184571
30
0
10
13.863307
20
9.111267
30
0
10
14.213147
20
10.075691
30
0
10
11.495359
20
8.149053
30
0
8
secondarychainwheel_texts
0
LWPOLYLINE
5
2041
100
AcDbEntity
100
AcDbPolyline
66
1
90
5
70
0
43
0
10
15.745363
20
4.260996
30
0
10
15.585468
20
4.813079
30
0
10
15.406222
20
5.359185
30
0
10
15.207847
20
5.898638
30
0
10
14.99059
20
6.430767
30
0
8
secondarychainwheel_texts
0
LWPOLYLINE
5
2042
100
AcDbEntity
100
AcDbPolyline
66
1
90
5
70
0
43
0
10
14.67345
20
3.970915
30
0
10
14.52444
20
4.485414
30
0
10
14.357397
20
4.994343
30
0
10
14.172527
20
5.49707
30
0
10
13.97006
20
5.992973
30
0
8
secondarychainwheel_texts
0
LWPOLYLINE
5
2043
100
AcDbEntity
100
AcDbPolyline
66
1
90
15
70
0
43
0
10
14.071109
20
0.744461
30
0
10
14.036146
20
1.239741
30
0
10
13.983754
20
1.733481
30
0
10
13.914
20
2.22507
30
0
10
13.82697
20
2.713895
30
0
10
14.91665
20
2.927773
30
0
10
15.558807
20
2.488101
30
0
10
15.636807
20
1.9384
30
0
10
15.695392
20
1.386293
30
0
10
16.288949
20
0.8618
30
0
10
16.843408
20
0.891135
30
0
10
17.354638
20
1.532846
30
0
10
17.28986
20
2.143319
30
0
10
17.203615
20
2.751131
30
0
10
16.551169
20
3.248589
30
0
8
secondarychainwheel_texts
0
LWPOLYLINE
5
2044
100
AcDbEntity
100
AcDbPolyline
66
1
90
9
70
0
43
0
10
15.010538
20
-2.400424
30
0
10
15.085789
20
-1.870094
30
0
10
15.14231
20
-1.337442
30
0
10
15.180029
20
-0.80313
30
0
10
15.1989
20
-0.267821
30
0
10
15.919309
20
-0.842243
30
0
10
16.617195
20
-1.467712
30
0
10
17.28986
20
-2.143319
30
0
10
13.983754
20
-1.733481
30
0
8
secondarychainwheel_texts
0
LWPOLYLINE
5
2045
100
AcDbEntity
100
AcDbPolyline
66
1
90
11
70
0
43
0
10
14.480325
20
-6.21187
30
0
10
14.252483
20
-6.718173
30
0
10
14.006946
20
-7.216134
30
0
10
13.744017
20
-7.705136
30
0
10
13.938476
20
-8.472983
30
0
10
14.412928
20
-8.761395
30
0
10
15.196973
20
-8.519689
30
0
10
15.487697
20
-7.978992
30
0
10
15.759192
20
-7.428388
30
0
10
16.01112
20
-6.868561
30
0
10
12.94953
20
-5.555179
30
0
8
secondarychainwheel_texts
0
LWPOLYLINE
5
2046
100
AcDbEntity
100
AcDbPolyline
66
1
90
5
70
0
43
0
10
11.849954
20
-11.209421
30
0
10
12.237519
20
-10.784974
30
0
10
12.609889
20
-10.347136
30
0
10
12.966603
20
-9.896451
30
0
10
13.307217
20
-9.433478
30
0
8
secondarychainwheel_texts
0
LWPOLYLINE
5
2047
100
AcDbEntity
100
AcDbPolyline
66
1
90
5
70
0
43
0
10
11.043233
20
-10.446306
30
0
10
11.404413
20
-10.050755
30
0
10
11.751433
20
-9.642724
30
0
10
12.083862
20
-9.22272
30
0
10
12.401288
20
-8.791265
30
0
8
secondarychainwheel_texts
0
LWPOLYLINE
5
2048
100
AcDbEntity
100
AcDbPolyline
66
1
90
14
70
0
43
0
10
10.655694
20
-11.607038
30
0
10
10.240148
20
-11.975245
30
0
10
9.811889
20
-12.328583
30
0
10
9.371447
20
-12.666614
30
0
10
8.605063
20
-12.531208
30
0
10
8.290758
20
-12.073498
30
0
10
8.38074
20
-11.327557
30
0
10
8.77462
20
-11.025261
30
0
10
9.157606
20
-10.709276
30
0
10
9.904712
20
-10.789009
30
0
10
11.031184
20
-12.016052
30
0
10
10.961843
20
-12.819224
30
0
10
10.849158
20
-13.631906
30
0
10
10.362154
20
-14.005672
30
0
8
secondarychainwheel_texts
0
LWPOLYLINE
5
2049
100
AcDbEntity
100
AcDbPolyline
66
1
90
2
70
0
43
0
10
7.138683
20
-12.148644
30
0
10
8.263858
20
-14.06347
30
0
8
secondarychainwheel_texts
0
LWPOLYLINE
5
2050
100
AcDbEntity
100
AcDbPolyline
66
1
90
6
70
0
43
0
10
7.982564
20
-13.584764
30
0
10
7.763254
20
-14.345885
30
0
10
7.006127
20
-14.113161
30
0
10
6.733764
20
-14.85695
30
0
10
5.994904
20
-14.571488
30
0
10
5.36115
20
-13.031056
30
0
8
secondarychainwheel_texts
0
LWPOLYLINE
5
2051
100
AcDbEntity
100
AcDbPolyline
66
1
90
2
70
0
43
0
10
6.759241
20
-13.615835
30
0
10
7.006127
20
-14.113161
30
0
8
secondarychainwheel_texts
0
LWPOLYLINE
5
2052
100
AcDbEntity
100
AcDbPolyline
66
1
90
2
70
0
43
0
10
4.430211
20
-13.376232
30
0
10
5.128486
20
-15.484546
30
0
8
secondarychainwheel_texts
0
LWPOLYLINE
5
2053
100
AcDbEntity
100
AcDbPolyline
66
1
90
6
70
0
43
0
10
4.953917
20
-14.957468
30
0
10
4.579762
20
-15.655616
30
0
10
3.888334
20
-15.269184
30
0
10
3.465946
20
-15.939252
30
0
10
2.803446
20
-15.50509
30
0
10
2.507078
20
-13.865962
30
0
8
secondarychainwheel_texts
0
LWPOLYLINE
5
2054
100
AcDbEntity
100
AcDbPolyline
66
1
90
2
70
0
43
0
10
3.751315
20
-14.731121
30
0
10
3.888334
20
-15.269184
30
0
8
secondarychainwheel_texts
0
ENDSEC
0
SECTION
2
OBJECTS
0
DICTIONARY
5
21D
330
0
100
AcDbDictionary
281
1
3
ACAD_CIP_PREVIOUS_PRODUCT_INFO
350
291
3
ACAD_COLOR
350
273
3
ACAD_DETAILVIEWSTYLE
350
27B
3
ACAD_GROUP
350
21E
3
ACAD_LAYOUT
350
272
3
ACAD_MATERIAL
350
221
3
ACAD_MLEADERSTYLE
350
276
3
ACAD_MLINESTYLE
350
26F
3
ACAD_PLOTSETTINGS
350
271
3
ACAD_PLOTSTYLENAME
350
21F
3
ACAD_SCALELIST
350
253
3
ACAD_SECTIONVIEWSTYLE
350
278
3
ACAD_TABLESTYLE
350
274
3
ACAD_VISUALSTYLE
350
23A
3
ACDB_RECOMPOSE_DATA
350
1057
3
AcDbVariableDictionary
350
29D
0
DICTIONARY
5
297
330
213
100
AcDbDictionary
280
1
281
1
3
ACAD_LAYERSTATES
360
298
0
DICTIONARY
5
292
330
265
100
AcDbDictionary
280
1
281
1
3
ADSK_XREC_LAYER_RECONCILED
360
293
0
XRECORD
5
291
102
{ACAD_REACTORS
330
21D
102
}
330
21D
100
AcDbXrecord
280
1
300
ACDMAC
300
2013
300
ACDMAC_F_S
0
DICTIONARY
5
273
102
{ACAD_REACTORS
330
21D
102
}
330
21D
100
AcDbDictionary
281
1
0
DICTIONARY
5
21E
102
{ACAD_REACTORS
330
21D
102
}
330
21D
100
AcDbDictionary
281
1
0
DICTIONARY
5
272
102
{ACAD_REACTORS
330
21D
102
}
330
21D
100
AcDbDictionary
281
1
3
Layout1
350
280
3
Model
350
284
0
DICTIONARY
5
221
102
{ACAD_REACTORS
330
21D
102
}
330
21D
100
AcDbDictionary
281
1
3
ByBlock
350
22A
3
ByLayer
350
222
3
Global
350
232
0
DICTIONARY
5
276
102
{ACAD_REACTORS
330
21D
102
}
330
21D
100
AcDbDictionary
281
1
3
Standard
350
277
0
DICTIONARY
5
26F
102
{ACAD_REACTORS
330
21D
102
}
330
21D
100
AcDbDictionary
281
1
3
Standard
350
270
0
DICTIONARY
5
271
102
{ACAD_REACTORS
330
21D
102
}
330
21D
100
AcDbDictionary
281
1
0
ACDBDICTIONARYWDFLT
5
21F
102
{ACAD_REACTORS
330
21D
102
}
330
21D
100
AcDbDictionary
281
1
3
Normal
350
220
100
AcDbDictionaryWithDefault
340
220
0
DICTIONARY
5
253
102
{ACAD_REACTORS
330
21D
102
}
330
21D
100
AcDbDictionary
281
1
3
A0
350
254
3
A1
350
255
3
A2
350
256
3
A3
350
257
3
A4
350
258
3
A5
350
259
3
A6
350
25A
3
A7
350
25B
3
A8
350
25C
3
A9
350
25D
3
B0
350
25E
3
B1
350
25F
3
B2
350
260
3
B3
350
261
3
B4
350
262
3
B5
350
263
3
B6
350
264
0
DICTIONARY
5
274
102
{ACAD_REACTORS
330
21D
102
}
330
21D
100
AcDbDictionary
281
1
3
Standard
350
275
0
DICTIONARY
5
23A
102
{ACAD_REACTORS
330
21D
102
}
330
21D
100
AcDbDictionary
281
1
3
2dWireframe
350
240
3
Basic
350
23F
3
Brighten
350
246
3
ColorChange
350
24A
3
Conceptual
350
243
3
Dim
350
245
3
EdgeColorOff
350
252
3
Facepattern
350
249
3
Flat
350
23B
3
FlatWithEdges
350
23C
3
Gouraud
350
23D
3
GouraudWithEdges
350
23E
3
Hidden
350
242
3
JitterOff
350
250
3
Linepattern
350
248
3
OverhangOff
350
251
3
Realistic
350
244
3
Shaded
350
24F
3
Shaded with edges
350
24E
3
Shades of Gray
350
24B
3
Sketchy
350
24C
3
Thicken
350
247
3
Wireframe
350
241
3
X-Ray
350
24D
0
XRECORD
5
1057
102
{ACAD_REACTORS
330
21D
102
}
330
21D
100
AcDbXrecord
280
1
90
1
330
275
0
DICTIONARY
5
29D
102
{ACAD_REACTORS
330
21D
102
}
330
21D
100
AcDbDictionary
281
1
3
CANNOSCALE
350
2A3
3
CMLEADERSTYLE
350
29F
3
CTABLESTYLE
350
29E
3
CVIEWDETAILSTYLE
350
2A0
3
CVIEWSECTIONSTYLE
350
2A1
3
LAYEREVAL
350
2A5
3
LAYERNOTIFY
350
2A6
3
LIGHTINGUNITS
350
2A4
3
MSLTSCALE
350
2A2
0
ENDSEC
0
EOF
