<?xml version="1.0" encoding="UTF-8"?>
<svg xmlns="http://www.w3.org/2000/svg" version="1.1" viewBox="0 0 892.8 530.1">
  <!-- Generator: Adobe Illustrator 29.4.0, SVG Export Plug-In . SVG Version: 2.1.0 Build 152)  -->
  <defs>
    <style>
      .st0 {
        stroke-miterlimit: 10;
        stroke-width: 1px;
      }

      .st0, .st1, .st2, .st3, .st4, .st5 {
        fill: #ddd;
        stroke: #444;
      }

      .st1 {
        stroke-miterlimit: 10;
        stroke-width: 1px;
      }

      .st2 {
        stroke-miterlimit: 10;
        stroke-width: 1px;
      }

      .st3 {
        stroke-miterlimit: 10;
        stroke-width: 1px;
      }

      .st4 {
        stroke-miterlimit: 10;
        stroke-width: 1px;
      }

      .st5 {
        stroke-miterlimit: 10;
        stroke-width: .8px;
      }
    </style>
  </defs>
  <g id="Layer_1">
    <path id="gearpoly0" class="st4" d="M34.5,54l-5.6-4.4h-.1c0,0-.3-.3-.3-.3l-.5-.3-.6-.3-.8-.3-1-.3-1.2-.3-1.4-.3-1.6-.2-1.8-.2h-2c0,0-2.2,0-2.2,0h-1.2c0,0-.6.1-.6.1h-.2s0,0,0,0h0s0,0,0,0h0s-2.4,4.2-2.4,4.2h0s0,0,0,0h0s0,0,0,0h0c0,.1.3.7.3.7l.5,1.1,1.1,1.9,1.1,1.7,1.1,1.5,1.1,1.3,1,1.1.9.9.8.7.7.5.6.4.5.3.3.2h.1c0,0,6.7,2.6,6.7,2.6l-2.8,10.8-7.1-1h-.2s-.3,0-.3,0h-.5s-.7,0-.7,0h-.9c0,.1-1.1.3-1.1.3l-1.2.3-1.4.5-1.5.6-1.7.8-1.8,1-1.9,1.2-1,.7-.5.4h-.1c0,0,0,.1,0,.1h0s0,0,0,0h0s0,4.8,0,4.8h0s0,0,0,0h0s0,0,0,0h.1c0,0,.5.4.5.4l1,.6,1.9,1.1,1.8.9,1.7.7,1.6.6,1.4.4,1.2.3,1.1.2h.9c0,.1.7.2.7.2h.5s.3,0,.3,0h.1s7.1-1.1,7.1-1.1l3,10.8-6.6,2.7h-.1c0,0-.3.2-.3.2l-.4.3-.6.4-.7.6-.8.7-.9.9-1,1.1-1,1.3-1.1,1.5-1.1,1.7-1.1,2-.5,1.1-.3.6h0c0,.1,0,.2,0,.2h0s0,0,0,0h0s2.5,4.2,2.5,4.2h0s0,0,0,0h0s0,0,0,0h.2s.6,0,.6,0h1.2c0,0,2.2,0,2.2,0h2c0,0,1.8-.3,1.8-.3l1.6-.3,1.4-.3,1.2-.4,1-.4.8-.3.6-.3.5-.3.3-.2h.1c0,0,5.6-4.6,5.6-4.6l8,7.9-4.4,5.6h0c0,.1-.2.4-.2.4l-.3.5-.3.6-.3.8-.3,1-.3,1.2-.3,1.4-.2,1.6-.2,1.8v2c0,0,0,2.2,0,2.2v1.2c0,0,.1.6.1.6v.2s0,0,0,0h0s0,0,0,0h0s4.2,2.4,4.2,2.4h0s0,0,0,0h0s0,0,0,0h.1c0,0,.5-.3.5-.3l1.1-.5,1.9-1.1,1.7-1.1,1.5-1.1,1.3-1.1,1.1-1,.9-.9.7-.8.5-.7.4-.6.3-.5.2-.3h0c0-.1,2.6-6.8,2.6-6.8l10.8,2.8-1,7.1v.2s0,.3,0,.3v.5s0,.7,0,.7v.9c.1,0,.3,1.1.3,1.1l.3,1.2.5,1.4.6,1.5.8,1.7,1,1.8,1.2,1.9.7,1,.4.5h0c0,.1,0,.1,0,.1h0s0,0,0,0h0s4.8,0,4.8,0h0s0,0,0,0h0s0,0,0,0h0c0-.1.3-.6.3-.6l.6-1,1.1-1.9.9-1.8.7-1.7.6-1.6.4-1.4.3-1.2.2-1.1v-.9c.1,0,.2-.7.2-.7v-.5s0-.3,0-.3h0c0-.1-1.1-7.2-1.1-7.2l10.8-3,2.7,6.6h0c0,.1.2.4.2.4l.3.4.4.6.6.7.7.8.9.9,1.1,1,1.3,1,1.5,1.1,1.7,1.1,2,1.1,1.1.5.6.3h.1c0,0,0,0,0,0h0s0,0,0,0h0s4.2-2.5,4.2-2.5h0s0,0,0,0h0s0,0,0,0v-.2s0-.6,0-.6v-1.2c0,0,0-2.2,0-2.2v-2c0,0-.3-1.8-.3-1.8l-.3-1.6-.3-1.4-.4-1.2-.4-1-.3-.8-.3-.6-.3-.5-.2-.3h0c0-.1-4.5-5.7-4.5-5.7l7.9-8,5.6,4.4h.1c0,0,.3.3.3.3l.5.3.6.3.8.3,1,.3,1.2.3,1.4.3,1.6.2,1.8.2h2c0,0,2.2,0,2.2,0h1.2c0,0,.6-.1.6-.1h.2s0,0,0,0h0s0,0,0,0h0s2.4-4.2,2.4-4.2h0s0,0,0,0h0s0,0,0,0h0c0-.1-.3-.7-.3-.7l-.5-1.1-1.1-1.9-1.1-1.7-1.1-1.5-1.1-1.3-1-1.1-.9-.9-.8-.7-.7-.5-.6-.4-.5-.3-.3-.2h-.1c0,0-6.7-2.6-6.7-2.6l2.8-10.8,7.1,1h.2s.3,0,.3,0h.5s.7,0,.7,0h.9c0-.1,1.1-.3,1.1-.3l1.2-.3,1.4-.5,1.5-.6,1.7-.8,1.8-1,1.9-1.2,1-.7.5-.4h.1c0,0,0-.1,0-.1h0s0,0,0,0h0s0-4.8,0-4.8h0s0,0,0,0h0s0,0,0,0h-.1c0,0-.5-.4-.5-.4l-1-.6-1.9-1.1-1.8-.9-1.7-.7-1.6-.6-1.4-.4-1.2-.3-1.1-.2h-.9c0-.1-.7-.2-.7-.2h-.5s-.3,0-.3,0h-.1s-7.1,1.1-7.1,1.1l-3-10.8,6.6-2.7h.1c0,0,.3-.2.3-.2l.4-.3.6-.4.7-.6.8-.7.9-.9,1-1.1,1-1.3,1.1-1.5,1.1-1.7,1.1-2,.5-1.1.3-.6h0c0-.1,0-.2,0-.2h0s0,0,0,0h0s-2.5-4.2-2.5-4.2h0s0,0,0,0h0s0,0,0,0h-.2s-.6,0-.6,0h-1.2c0,0-2.2,0-2.2,0h-2c0,0-1.8.3-1.8.3l-1.6.3-1.4.3-1.2.4-1,.4-.8.3-.6.3-.5.3-.3.2h-.1c0,0-5.6,4.6-5.6,4.6l-8-7.9,4.4-5.6h0c0-.1.2-.4.2-.4l.3-.5.3-.6.3-.8.3-1,.3-1.2.3-1.4.2-1.6.2-1.8v-2c0,0,0-2.2,0-2.2v-1.2c0,0-.1-.6-.1-.6v-.2s0,0,0,0h0s0,0,0,0h0s-4.2-2.4-4.2-2.4h0s0,0,0,0h0s0,0,0,0h-.1c0,0-.5.3-.5.3l-1.1.5-1.9,1.1-1.7,1.1-1.5,1.1-1.3,1.1-1.1,1-.9.9-.7.8-.5.7-.4.6-.3.5-.2.3h0c0,.1-2.6,6.8-2.6,6.8l-10.8-2.8,1-7.1v-.2s0-.3,0-.3v-.5s0-.7,0-.7v-.9c-.1,0-.3-1.1-.3-1.1l-.3-1.2-.5-1.4-.6-1.5-.8-1.7-1-1.8-1.2-1.9-.7-1-.4-.5h0c0-.1,0-.1,0-.1h0s0,0,0,0h0s-4.8,0-4.8,0h0s0,0,0,0h0s0,0,0,0h0c0,.1-.3.6-.3.6l-.6,1-1.1,1.9-.9,1.8-.7,1.7-.6,1.6-.4,1.4-.3,1.2-.2,1.1v.9c-.1,0-.2.7-.2.7v.5s0,.3,0,.3h0c0,.1,1.1,7.2,1.1,7.2l-10.8,3-2.7-6.6h0c0-.1-.2-.4-.2-.4l-.3-.4-.4-.6-.6-.7-.7-.8-.9-.9-1.1-1-1.3-1-1.5-1.1-1.7-1.1-2-1.1-1.1-.5-.6-.3h-.1c0,0,0,0,0,0h0s0,0,0,0h0s-4.2,2.5-4.2,2.5h0s0,0,0,0h0s0,0,0,0v.2s0,.6,0,.6v1.2c0,0,0,2.2,0,2.2v2c0,0,.3,1.8.3,1.8l.3,1.6.3,1.4.4,1.2.4,1,.3.8.3.6.3.5.2.3h0c0,.1,4.5,5.7,4.5,5.7l-7.9,8Z"/>
  </g>
  <g id="Layer_5">
    <path id="gearpoly8" class="st0" d="M841.6,100.6h0s.1-.1.1-.1l.2-.2.3-.2.3-.3.3-.3.4-.4.4-.4.5-.5.5-.5.5-.6.6-.7.6-.7.6-.8.7-.9.7-1,.7-1,.7-1.1.7-1.2.7-1.2.7-1.3.8-1.4.8-1.5.8-1.6.4-.8h0c0-.1,0-.1,0-.1h0s-3.8-5-3.8-5h0s0,0,0,0h-.1s-.9.2-.9.2l-1.7.3-1.6.3-1.6.4-1.5.4-1.4.4-1.3.4-1.2.4-1.2.4-1.1.4-1,.4-.9.4-.9.4-.8.4-.7.4-.7.4-.6.3-.5.3-.5.3-.4.3-.3.2-.3.2-.2.2h-.1c0,.1,0,.1,0,.1l-6.2-6.6h0s.1-.1.1-.1l.2-.2.2-.2.2-.3.3-.4.3-.4.3-.5.4-.6.4-.6.4-.7.4-.8.5-.8.5-.9.5-1,.5-1.1.5-1.1.5-1.2.5-1.3.5-1.4.5-1.4.5-1.5.5-1.6.4-1.7.2-.9h0c0-.1,0-.1,0-.1h0s-4.7-4.1-4.7-4.1h0s0,0,0,0h-.1s-.8.4-.8.4l-1.6.6-1.5.7-1.5.7-1.4.7-1.3.7-1.2.7-1.1.6-1.1.6-1,.6-.9.6-.8.6-.8.6-.7.5-.6.5-.6.5-.5.4-.5.4-.4.4-.3.3-.3.3-.2.2-.2.2h-.1c0,.1,0,.1,0,.1l-7.3-5.3h0s0-.2,0-.2v-.2c.1,0,.3-.3.3-.3l.2-.4.2-.4.2-.5.2-.6.3-.6.3-.7.3-.8.3-.8.3-.9.3-1,.3-1.1.3-1.1.3-1.2.2-1.3.2-1.4.2-1.4.2-1.5.2-1.6v-1.7c.1,0,.2-1.7.2-1.7v-.9s0-.1,0-.1h0s0,0,0,0l-5.4-3.1h0s0,0,0,0h0c0,0-.8.5-.8.5l-1.5.9-1.4.9-1.3.9-1.2.9-1.1.9-1.1.9-1,.9-.9.8-.9.8-.8.8-.7.7-.7.7-.6.7-.5.6-.5.6-.4.5-.4.5-.3.4-.3.4-.2.3-.2.3v.2c-.1,0-.2.2-.2.2h0s-8.2-3.7-8.2-3.7h0s0-.2,0-.2v-.2c0,0,.2-.3.2-.3v-.4c.1,0,.2-.4.2-.4v-.5c.1,0,.2-.6.2-.6v-.7c.1,0,.2-.7.2-.7v-.8c.1,0,.2-.9.2-.9v-1c0,0,.2-1,.2-1v-1.1c0,0,.1-1.2.1-1.2v-1.2s0-1.3,0-1.3v-1.4s-.1-1.5-.1-1.5v-1.5c-.1,0-.3-1.6-.3-1.6l-.2-1.7-.2-1.7v-.9c-.1,0-.2-.1-.2-.1h0s0,0,0,0l-5.9-2h0s0,0,0,0h0c0,0-.6.7-.6.7l-1.2,1.2-1.2,1.2-1.1,1.2-1,1.1-.9,1.1-.9,1.1-.8,1-.7,1-.7,1-.6.9-.6.9-.5.8-.5.8-.4.7-.4.7-.3.6-.3.5-.2.5-.2.4v.4c-.1,0-.3.3-.3.3v.2c0,0-.1.2-.1.2h0s-8.8-2.1-8.8-2.1h0s0-.2,0-.2v-.3s0-.3,0-.3v-.4s0-.5,0-.5v-.5s0-.6,0-.6v-.7s0-.7,0-.7v-.8s-.1-.9-.1-.9v-1c0,0-.2-1-.2-1l-.2-1.1-.2-1.2-.2-1.2-.3-1.3-.3-1.3-.4-1.4-.4-1.5-.5-1.5-.5-1.6-.6-1.6-.3-.8h0c0-.1,0-.1,0-.1h0s-6.2-.8-6.2-.8h0s0,0,0,0h0c0,0-.5.8-.5.8l-1,1.4-.9,1.4-.8,1.4-.8,1.3-.7,1.3-.7,1.2-.6,1.2-.5,1.1-.5,1.1-.4,1-.4,1-.3.9-.3.8-.3.8-.2.7-.2.7-.2.6v.5c-.1,0-.2.5-.2.5v.4c0,0-.1.3-.1.3v.3s0,.2,0,.2h0s-9-.3-9-.3h0s0-.2,0-.2v-.3s0-.3,0-.3v-.4s-.1-.5-.1-.5v-.5c0,0-.2-.6-.2-.6v-.7c-.1,0-.3-.7-.3-.7l-.2-.8-.2-.9-.3-.9-.3-1-.4-1-.4-1.1-.5-1.2-.5-1.2-.6-1.3-.6-1.3-.7-1.4-.7-1.4-.8-1.5-.9-1.5-.5-.8h0c0,0,0-.1,0-.1h0s-6.2.4-6.2.4h0s0,0,0,0h0c0,.1-.4.9-.4.9l-.7,1.6-.6,1.5-.6,1.5-.5,1.4-.5,1.4-.4,1.3-.4,1.3-.3,1.2-.3,1.1-.2,1.1-.2,1-.2.9v.9c-.1,0-.2.8-.2.8v.7c0,0-.1.7-.1.7v.6s0,.5,0,.5v.5s0,.4,0,.4v.3s0,.3,0,.3v.2s0,0,0,0l-8.9,1.5h0s0-.2,0-.2v-.2c0,0-.2-.3-.2-.3v-.4c-.1,0-.3-.4-.3-.4l-.2-.5-.2-.6-.3-.6-.3-.7-.4-.7-.4-.8-.5-.8-.5-.9-.6-.9-.6-1-.7-1-.7-1.1-.8-1.1-.9-1.2-.9-1.2-1-1.2-1.1-1.3-1.2-1.3-.6-.7h0c0,0,0,0,0,0h0s-6,1.6-6,1.6h0s0,0,0,0h0c0,.1-.2,1-.2,1l-.4,1.7-.3,1.6-.3,1.6-.2,1.5-.2,1.4v1.4c-.1,0-.2,1.3-.2,1.3v1.2c0,0-.1,1.2-.1,1.2v1.1s0,1,0,1v1s0,.9,0,.9v.8c0,0,.1.7.1.7v.7c0,0,.2.6.2.6v.5c0,0,.2.5.2.5v.4c0,0,.2.3.2.3v.2c0,0,.1.2.1.2h0s-8.4,3.2-8.4,3.2h0s0-.2,0-.2v-.2c-.1,0-.3-.3-.3-.3l-.2-.3-.2-.4-.3-.5-.3-.5-.4-.6-.4-.6-.5-.7-.5-.7-.6-.7-.7-.8-.7-.8-.8-.9-.9-.9-.9-.9-1-.9-1.1-1-1.2-1-1.2-1-1.3-1-1.4-1-.7-.5h0c0,0,0,0,0,0h0s-5.6,2.8-5.6,2.8h0s0,0,0,0h0c0,.1,0,1,0,1v1.7s0,1.7,0,1.7v1.6c0,0,.1,1.5.1,1.5v1.4c.1,0,.2,1.4.2,1.4l.2,1.3.2,1.2.2,1.2.2,1.1.2,1,.2.9.2.9.2.8.2.7.2.6.2.6.2.5.2.4.2.4v.3c.1,0,.2.2.2.2v.2c0,0,0,0,0,0l-7.7,4.8h0s-.1-.1-.1-.1l-.2-.2-.2-.3-.3-.3-.3-.3-.4-.4-.4-.4-.5-.5-.5-.5-.6-.5-.7-.6-.7-.6-.8-.6-.9-.7-1-.7-1-.7-1.1-.7-1.2-.7-1.2-.7-1.3-.7-1.4-.8-1.5-.8-1.6-.8-.8-.4h-.1s0,0,0,0h0s-5,3.8-5,3.8h0s0,0,0,0h0c0,.1.2,1,.2,1l.3,1.7.3,1.6.4,1.6.4,1.5.4,1.4.4,1.3.4,1.2.4,1.2.4,1.1.4,1,.4.9.4.9.4.8.4.7.4.7.3.6.3.5.3.5.3.4.2.3.2.3.2.2h.1c0,.1,0,.1,0,.1l-6.6,6.2h0s-.1-.1-.1-.1l-.2-.2-.2-.2-.3-.2-.4-.3-.4-.3-.5-.3-.6-.4-.6-.4-.7-.4-.8-.4-.8-.5-.9-.5-1-.5-1.1-.5-1.1-.5-1.2-.5-1.3-.5-1.4-.5-1.4-.5-1.5-.5-1.6-.5-1.7-.4-.9-.2h-.1s0,0,0,0h0s-4.1,4.7-4.1,4.7h0s0,0,0,0h0c0,.1.3.9.3.9l.6,1.6.7,1.5.7,1.5.7,1.4.7,1.3.7,1.2.6,1.1.6,1.1.6,1,.6.9.6.8.6.8.5.7.5.6.5.6.4.5.4.5.4.4.3.3.3.3.2.2.2.2h.1c0,.1,0,.1,0,.1l-5.3,7.3h0s-.2,0-.2,0h-.2c0-.1-.3-.3-.3-.3l-.4-.2-.4-.2-.5-.2-.6-.2-.6-.3-.7-.3-.8-.3-.8-.3-.9-.3-1-.3-1.1-.3-1.1-.3-1.2-.3-1.3-.2-1.4-.2-1.4-.2-1.5-.2-1.6-.2h-1.7c0-.1-1.7-.2-1.7-.2h-.9s-.1,0-.1,0h0s0,0,0,0l-3.1,5.4h0s0,0,0,0h0c0,0,.5.9.5.9l.9,1.5.9,1.4.9,1.3.9,1.2.9,1.1.9,1.1.9,1,.8.9.8.9.8.8.7.7.7.7.7.6.6.5.6.5.5.4.5.4.4.3.4.3.3.2.3.2h.2c0,.1.2.2.2.2h0s-3.7,8.2-3.7,8.2h0s-.2,0-.2,0h-.2c0,0-.3-.2-.3-.2h-.4c0-.1-.4-.2-.4-.2h-.5c0-.1-.6-.2-.6-.2h-.7c0-.1-.7-.2-.7-.2h-.8c0-.1-.9-.2-.9-.2h-1c0,0-1-.2-1-.2h-1.1c0,0-1.2-.1-1.2-.1h-1.2s-1.3,0-1.3,0h-1.4s-1.5.1-1.5.1h-1.5c0,.1-1.6.3-1.6.3l-1.7.2-1.7.2h-.9c0,.1-.1.2-.1.2h0s0,0,0,0l-2,5.9h0s0,0,0,0h0c0,0,.6.7.6.7l1.2,1.2,1.2,1.2,1.2,1.1,1.1,1,1.1.9,1.1.9,1,.8,1,.7,1,.7.9.6.9.6.8.5.8.5.7.4.7.4.6.3.5.3.5.2.4.2h.4c0,.1.3.3.3.3h.2c0,0,.2.1.2.1h0s-2.1,8.8-2.1,8.8h0s-.2,0-.2,0h-.3s-.3,0-.3,0h-.4s-.5,0-.5,0h-.5s-.6,0-.6,0h-.7s-.7,0-.7,0h-.8s-.9.1-.9.1h-1c0,0-1,.2-1,.2l-1.1.2-1.2.2-1.2.2-1.3.3-1.3.3-1.4.4-1.5.4-1.5.5-1.6.5-1.6.6-.8.3h-.1s0,0,0,0h0s-.8,6.2-.8,6.2h0s0,0,0,0h0c0,0,.7.6.7.6l1.4,1,1.4.9,1.4.8,1.3.8,1.3.7,1.2.7,1.2.6,1.1.5,1.1.5,1,.4,1,.4.9.3.8.3.8.3.7.2.7.2.6.2h.5c0,.1.5.2.5.2h.4c0,0,.3.1.3.1h.3s.2,0,.2,0h0s-.3,9-.3,9h0s-.2,0-.2,0h-.3s-.3,0-.3,0h-.4s-.5.1-.5.1h-.5c0,0-.6.2-.6.2h-.7c0,.1-.7.3-.7.3l-.8.2-.9.2-.9.3-1,.3-1,.4-1.1.4-1.2.5-1.2.5-1.3.6-1.3.6-1.4.7-1.4.7-1.5.8-1.5.9-.8.5h0c0,0,0,0,0,0h0s.4,6.2.4,6.2h0s0,0,0,0h.1s.8.4.8.4l1.6.7,1.5.6,1.5.6,1.4.5,1.4.5,1.3.4,1.3.4,1.2.3,1.1.3,1.1.2,1,.2.9.2h.9c0,.1.8.2.8.2h.7c0,0,.7.1.7.1h.6s.5,0,.5,0h.5s.4,0,.4,0h.3s.3,0,.3,0h.2s0,0,0,0l1.5,8.9h0s-.2,0-.2,0h-.2c0,0-.3.2-.3.2h-.4c0,.1-.4.3-.4.3l-.5.2-.6.2-.6.3-.7.3-.7.4-.8.4-.8.5-.9.5-.9.6-1,.6-1,.7-1.1.7-1.1.8-1.2.9-1.2.9-1.2,1-1.3,1.1-1.3,1.2-.7.6h0c0,0,0,0,0,0h0s1.6,6,1.6,6h0s0,0,0,0h.1s.9.2.9.2l1.7.4,1.6.3,1.6.3,1.5.2,1.4.2h1.4c0,.1,1.3.2,1.3.2h1.2c0,0,1.2.1,1.2.1h1.1s1,0,1,0h1s.9,0,.9,0h.8c0,0,.7-.1.7-.1h.7c0,0,.6-.2.6-.2h.5c0,0,.5-.2.5-.2h.4c0,0,.3-.2.3-.2h.2c0,0,.2-.1.2-.1h0s3.2,8.4,3.2,8.4h0s-.2,0-.2,0h-.2c0,.1-.3.3-.3.3l-.3.2-.4.2-.5.3-.5.3-.6.4-.6.4-.7.5-.7.5-.7.6-.8.7-.8.7-.9.8-.9.9-.9.9-.9,1-1,1.1-1,1.2-1,1.2-1,1.3-1,1.4-.5.7h0c0,0,0,.1,0,.1h0s2.8,5.6,2.8,5.6h0s0,0,0,0h.1s.9,0,.9,0h1.7s1.7,0,1.7,0h1.6c0,0,1.5-.1,1.5-.1h1.4c0-.1,1.4-.2,1.4-.2l1.3-.2,1.2-.2,1.2-.2,1.1-.2,1-.2.9-.2.9-.2.8-.2.7-.2.6-.2.6-.2.5-.2.4-.2.4-.2h.3c0-.1.2-.2.2-.2h.2c0,0,0,0,0,0l4.8,7.7h0s-.1.1-.1.1l-.2.2-.3.2-.3.3-.3.3-.4.4-.4.4-.5.5-.5.5-.5.6-.6.7-.6.7-.6.8-.7.9-.7,1-.7,1-.7,1.1-.7,1.2-.7,1.2-.7,1.3-.8,1.4-.8,1.5-.8,1.6-.4.8h0c0,.1,0,.1,0,.1h0s3.8,5,3.8,5h0s0,0,0,0h.1s.9-.2.9-.2l1.7-.3,1.6-.3,1.6-.4,1.5-.4,1.4-.4,1.3-.4,1.2-.4,1.2-.4,1.1-.4,1-.4.9-.4.9-.4.8-.4.7-.4.7-.4.6-.3.5-.3.5-.3.4-.3.3-.2.3-.2.2-.2h.1c0-.1,0-.1,0-.1l6.2,6.6h0s-.1.1-.1.1l-.2.2-.2.2-.2.3-.3.4-.3.4-.3.5-.4.6-.4.6-.4.7-.4.8-.5.8-.5.9-.5,1-.5,1.1-.5,1.1-.5,1.2-.5,1.3-.5,1.4-.5,1.4-.5,1.5-.5,1.6-.4,1.7-.2.9h0c0,.1,0,.1,0,.1h0s4.7,4.1,4.7,4.1h0s0,0,0,0h.1s.8-.4.8-.4l1.6-.6,1.5-.7,1.5-.7,1.4-.7,1.3-.7,1.2-.7,1.1-.6,1.1-.6,1-.6.9-.6.8-.6.8-.6.7-.5.6-.5.6-.5.5-.4.5-.4.4-.4.3-.3.3-.3.2-.2.2-.2h.1c0-.1,0-.1,0-.1l7.3,5.3h0s0,.2,0,.2v.2c-.1,0-.3.3-.3.3l-.2.4-.2.4-.2.5-.2.6-.3.6-.3.7-.3.8-.3.8-.3.9-.3,1-.3,1.1-.3,1.1-.3,1.2-.2,1.3-.2,1.4-.2,1.4-.2,1.5-.2,1.6v1.7c-.1,0-.2,1.7-.2,1.7v.9s0,.1,0,.1h0s0,0,0,0l5.4,3.1h0s0,0,0,0h0c0,0,.8-.5.8-.5l1.5-.9,1.4-.9,1.3-.9,1.2-.9,1.1-.9,1.1-.9,1-.9.9-.8.9-.8.8-.8.7-.7.7-.7.6-.7.5-.6.5-.6.4-.5.4-.5.3-.4.3-.4.2-.3.2-.3v-.2c.1,0,.2-.2.2-.2h0s8.2,3.7,8.2,3.7h0s0,.2,0,.2v.2c0,0-.2.3-.2.3v.4c-.1,0-.2.4-.2.4v.5c-.1,0-.2.6-.2.6v.7c-.1,0-.2.7-.2.7v.8c-.1,0-.2.9-.2.9v1c0,0-.2,1-.2,1v1.1c0,0-.1,1.2-.1,1.2v1.2s0,1.3,0,1.3v1.4s.1,1.5.1,1.5v1.5c.1,0,.3,1.6.3,1.6l.2,1.7.2,1.7v.9c.1,0,.2.1.2.1h0s0,0,0,0l5.9,2h0s0,0,0,0h0c0,0,.6-.7.6-.7l1.2-1.2,1.2-1.2,1.1-1.2,1-1.1.9-1.1.9-1.1.8-1,.7-1,.7-1,.6-.9.6-.9.5-.8.5-.8.4-.7.4-.7.3-.6.3-.5.2-.5.2-.4v-.4c.1,0,.3-.3.3-.3v-.2c0,0,.1-.2.1-.2h0s8.8,2.1,8.8,2.1h0s0,.2,0,.2v.3s0,.3,0,.3v.4s0,.5,0,.5v.5s0,.6,0,.6v.7s0,.7,0,.7v.8s.1.9.1.9v1c0,0,.2,1,.2,1l.2,1.1.2,1.2.2,1.2.3,1.3.3,1.3.4,1.4.4,1.5.5,1.5.5,1.6.6,1.6.3.8h0c0,.1,0,.1,0,.1h0s6.2.8,6.2.8h0s0,0,0,0h0c0,0,.5-.8.5-.8l1-1.4.9-1.4.8-1.4.8-1.3.7-1.3.7-1.2.6-1.2.5-1.1.5-1.1.4-1,.4-1,.3-.9.3-.8.3-.8.2-.7.2-.7.2-.6v-.5c.1,0,.2-.5.2-.5v-.4c0,0,.1-.3.1-.3v-.3s0-.2,0-.2h0s9,.3,9,.3h0s0,.2,0,.2v.3s0,.3,0,.3v.4s.1.5.1.5v.5c0,0,.2.6.2.6v.7c.1,0,.3.7.3.7l.2.8.2.9.3.9.3,1,.4,1,.4,1.1.5,1.2.5,1.2.6,1.3.6,1.3.7,1.4.7,1.4.8,1.5.9,1.5.5.8h0c0,0,0,.1,0,.1h0s6.2-.4,6.2-.4h0s0,0,0,0h0c0-.1.4-.9.4-.9l.7-1.6.6-1.5.6-1.5.5-1.4.5-1.4.4-1.3.4-1.3.3-1.2.3-1.1.2-1.1.2-1,.2-.9v-.9c.1,0,.2-.8.2-.8v-.7c0,0,.1-.7.1-.7v-.6s0-.5,0-.5v-.5s0-.4,0-.4v-.3s0-.3,0-.3v-.2s0,0,0,0l8.9-1.5h0s0,.2,0,.2v.2c0,0,.2.3.2.3v.4c.1,0,.3.4.3.4l.2.5.2.6.3.6.3.7.4.7.4.8.5.8.5.9.6.9.6,1,.7,1,.7,1.1.8,1.1.9,1.2.9,1.2,1,1.2,1.1,1.3,1.2,1.3.6.7h0c0,0,0,0,0,0h0s6-1.6,6-1.6h0s0,0,0,0h0c0-.1.2-1,.2-1l.4-1.7.3-1.6.3-1.6.2-1.5.2-1.4v-1.4c.1,0,.2-1.3.2-1.3v-1.2c0,0,.1-1.2.1-1.2v-1.1s0-1,0-1v-1s0-.9,0-.9v-.8c0,0-.1-.7-.1-.7v-.7c0,0-.2-.6-.2-.6v-.5c0,0-.2-.5-.2-.5v-.4c0,0-.2-.3-.2-.3v-.2c0,0-.1-.2-.1-.2h0s8.4-3.2,8.4-3.2h0s0,.2,0,.2v.2c.1,0,.3.3.3.3l.2.3.2.4.3.5.3.5.4.6.4.6.5.7.5.7.6.7.7.8.7.8.8.9.9.9.9.9,1,.9,1.1,1,1.2,1,1.2,1,1.3,1,1.4,1,.7.5h0c0,0,0,0,0,0h0s5.6-2.8,5.6-2.8h0s0,0,0,0h0c0-.1,0-1,0-1v-1.7s0-1.7,0-1.7v-1.6c0,0-.1-1.5-.1-1.5v-1.4c-.1,0-.2-1.4-.2-1.4l-.2-1.3-.2-1.2-.2-1.2-.2-1.1-.2-1-.2-.9-.2-.9-.2-.8-.2-.7-.2-.6-.2-.6-.2-.5-.2-.4-.2-.4v-.3c-.1,0-.2-.2-.2-.2v-.2c0,0,0,0,0,0l7.7-4.8h0s.1.1.1.1l.2.2.2.3.3.3.3.3.4.4.4.4.5.5.5.5.6.5.7.6.7.6.8.6.9.7,1,.7,1,.7,1.1.7,1.2.7,1.2.7,1.3.7,1.4.8,1.5.8,1.6.8.8.4h.1s0,0,0,0h0s5-3.8,5-3.8h0s0,0,0,0h0c0-.1-.2-1-.2-1l-.3-1.7-.3-1.6-.4-1.6-.4-1.5-.4-1.4-.4-1.3-.4-1.2-.4-1.2-.4-1.1-.4-1-.4-.9-.4-.9-.4-.8-.4-.7-.4-.7-.3-.6-.3-.5-.3-.5-.3-.4-.2-.3-.2-.3-.2-.2h-.1c0-.1,0-.1,0-.1l6.6-6.2h0s.1.1.1.1l.2.2.2.2.3.2.4.3.4.3.5.3.6.4.6.4.7.4.8.4.8.5.9.5,1,.5,1.1.5,1.1.5,1.2.5,1.3.5,1.4.5,1.4.5,1.5.5,1.6.5,1.7.4.9.2h.1s0,0,0,0h0s4.1-4.7,4.1-4.7h0s0,0,0,0h0c0-.1-.3-.9-.3-.9l-.6-1.6-.7-1.5-.7-1.5-.7-1.4-.7-1.3-.7-1.2-.6-1.1-.6-1.1-.6-1-.6-.9-.6-.8-.6-.8-.5-.7-.5-.6-.5-.6-.4-.5-.4-.5-.4-.4-.3-.3-.3-.3-.2-.2-.2-.2h-.1c0-.1,0-.1,0-.1l5.3-7.3h0s.2,0,.2,0h.2c0,.1.3.3.3.3l.4.2.4.2.5.2.6.2.6.3.7.3.8.3.8.3.9.3,1,.3,1.1.3,1.1.3,1.2.3,1.3.2,1.4.2,1.4.2,1.5.2,1.6.2h1.7c0,.1,1.7.2,1.7.2h.9s.1,0,.1,0h0s0,0,0,0l3.1-5.4h0s0,0,0,0h0c0,0-.5-.9-.5-.9l-.9-1.5-.9-1.4-.9-1.3-.9-1.2-.9-1.1-.9-1.1-.9-1-.8-.9-.8-.9-.8-.8-.7-.7-.7-.7-.7-.6-.6-.5-.6-.5-.5-.4-.5-.4-.4-.3-.4-.3-.3-.2-.3-.2h-.2c0-.1-.2-.2-.2-.2h0s3.7-8.2,3.7-8.2h0s.2,0,.2,0h.2c0,0,.3.2.3.2h.4c0,.1.4.2.4.2h.5c0,.1.6.2.6.2h.7c0,.1.7.2.7.2h.8c0,.1.9.2.9.2h1c0,0,1,.2,1,.2h1.1c0,0,1.2.1,1.2.1h1.2s1.3,0,1.3,0h1.4s1.5-.1,1.5-.1h1.5c0-.1,1.6-.3,1.6-.3l1.7-.2,1.7-.2h.9c0-.1.1-.2.1-.2h0s0,0,0,0l2-5.9h0s0,0,0,0h0c0,0-.6-.7-.6-.7l-1.2-1.2-1.2-1.2-1.2-1.1-1.1-1-1.1-.9-1.1-.9-1-.8-1-.7-1-.7-.9-.6-.9-.6-.8-.5-.8-.5-.7-.4-.7-.4-.6-.3-.5-.3-.5-.2-.4-.2h-.4c0-.1-.3-.3-.3-.3h-.2c0,0-.2-.1-.2-.1h0s2.1-8.8,2.1-8.8h0s.2,0,.2,0h.3s.3,0,.3,0h.4s.5,0,.5,0h.5s.6,0,.6,0h.7s.7,0,.7,0h.8s.9-.1.9-.1h1c0,0,1-.2,1-.2l1.1-.2,1.2-.2,1.2-.2,1.3-.3,1.3-.3,1.4-.4,1.5-.4,1.5-.5,1.6-.5,1.6-.6.8-.3h.1s0,0,0,0h0s.8-6.2.8-6.2h0s0,0,0,0h0c0,0-.7-.6-.7-.6l-1.4-1-1.4-.9-1.4-.8-1.3-.8-1.3-.7-1.2-.7-1.2-.6-1.1-.5-1.1-.5-1-.4-1-.4-.9-.3-.8-.3-.8-.3-.7-.2-.7-.2-.6-.2h-.5c0-.1-.5-.2-.5-.2h-.4c0,0-.3-.1-.3-.1h-.3s-.2,0-.2,0h0s.3-9,.3-9h0s.2,0,.2,0h.3s.3,0,.3,0h.4s.5-.1.5-.1h.5c0,0,.6-.2.6-.2h.7c0-.1.7-.3.7-.3l.8-.2.9-.2.9-.3,1-.3,1-.4,1.1-.4,1.2-.5,1.2-.5,1.3-.6,1.3-.6,1.4-.7,1.4-.7,1.5-.8,1.5-.9.8-.5h0c0,0,0,0,0,0h0s-.4-6.2-.4-6.2h0s0,0,0,0h-.1s-.8-.4-.8-.4l-1.6-.7-1.5-.6-1.5-.6-1.4-.5-1.4-.5-1.3-.4-1.3-.4-1.2-.3-1.1-.3-1.1-.2-1-.2-.9-.2h-.9c0-.1-.8-.2-.8-.2h-.7c0,0-.7-.1-.7-.1h-.6s-.5,0-.5,0h-.5s-.4,0-.4,0h-.3s-.3,0-.3,0h-.2s0,0,0,0l-1.5-8.9h0s.2,0,.2,0h.2c0,0,.3-.2.3-.2h.4c0-.1.4-.3.4-.3l.5-.2.6-.2.6-.3.7-.3.7-.4.8-.4.8-.5.9-.5.9-.6,1-.6,1-.7,1.1-.7,1.1-.8,1.2-.9,1.2-.9,1.2-1,1.3-1.1,1.3-1.2.7-.6h0c0,0,0,0,0,0h0s-1.6-6-1.6-6h0s0,0,0,0h-.1s-.9-.2-.9-.2l-1.7-.4-1.6-.3-1.6-.3-1.5-.2-1.4-.2h-1.4c0-.1-1.3-.2-1.3-.2h-1.2c0,0-1.2-.1-1.2-.1h-1.1s-1,0-1,0h-1s-.9,0-.9,0h-.8c0,0-.7.1-.7.1h-.7c0,0-.6.2-.6.2h-.5c0,0-.5.2-.5.2h-.4c0,0-.3.2-.3.2h-.2c0,0-.2.1-.2.1h0s-3.2-8.4-3.2-8.4h0s.2,0,.2,0h.2c0-.1.3-.3.3-.3l.3-.2.4-.2.5-.3.5-.3.6-.4.6-.4.7-.5.7-.5.7-.6.8-.7.8-.7.9-.8.9-.9.9-.9.9-1,1-1.1,1-1.2,1-1.2,1-1.3,1-1.4.5-.7h0c0,0,0-.1,0-.1h0s-2.8-5.6-2.8-5.6h0s0,0,0,0h-.1s-.9,0-.9,0h-1.7s-1.7,0-1.7,0h-1.6c0,0-1.5.1-1.5.1h-1.4c0,.1-1.4.2-1.4.2l-1.3.2-1.2.2-1.2.2-1.1.2-1,.2-.9.2-.9.2-.8.2-.7.2-.6.2-.6.2-.5.2-.4.2-.4.2h-.3c0,.1-.2.2-.2.2h-.2c0,0,0,0,0,0l-4.8-7.7Z"/>
  </g>
  <g id="Layer_3">
    <path id="gearpoly1" class="st1" d="M240.8,480l.8,2.7h0c0,0,0,.3,0,.3v.3c.1,0,.3.4.3.4l.2.4.3.5.3.6.4.7.5.7.5.8.6.8.7.9.8,1,.9,1,1,1,1.1,1.1,1.2,1.1,1.3,1.1,1.4,1.2,1.5,1.2.2.2h0s0,0,0,0h0s0,0,0,0l5.7-2.3h0s0,0,0,0h0s0,0,0,0v-.2s.2-1.9.2-1.9v-1.8c.1,0,.2-1.7.2-1.7v-1.6s0-1.5,0-1.5v-1.4s-.1-1.3-.1-1.3v-1.2c-.1,0-.3-1.1-.3-1.1l-.2-1-.2-.9-.2-.8-.2-.7-.2-.6-.2-.5-.2-.5v-.4c-.1,0-.2-.3-.2-.3v-.2c0,0-.1,0-.1,0l-1.3-2.5,8.8-5,1.5,2.3h0c0,0,.1.2.1.2l.2.2.2.3.3.4.4.4.5.5.5.5.6.6.7.6.8.7.9.7,1,.7,1.1.7,1.2.8,1.3.8,1.4.8,1.5.8,1.6.8,1.7.8h.2c0,0,0,.1,0,.1h0s0,0,0,0h0s4.9-3.7,4.9-3.7h0s0,0,0,0h0s0,0,0,0v-.2s-.3-1.9-.3-1.9l-.3-1.8-.4-1.7-.4-1.6-.4-1.5-.4-1.4-.4-1.3-.4-1.2-.4-1.1-.4-1-.4-.9-.4-.8-.4-.7-.3-.6-.3-.5-.3-.4-.2-.3-.2-.2v-.2c-.1,0-.2,0-.2,0l-1.9-2.1,7.2-7.1,2,1.9h0c0,0,.2.2.2.2l.2.2.3.2.4.3.5.3.6.3.7.4.8.4.9.4,1,.4,1.1.4,1.2.4,1.3.4,1.4.4,1.5.4,1.6.4,1.7.4,1.8.3,1.9.3h.2s0,0,0,0h0s0,0,0,0h0s3.8-4.9,3.8-4.9h0s0,0,0,0h0s0,0,0,0v-.2c0,0-.9-1.7-.9-1.7l-.8-1.6-.8-1.5-.8-1.4-.8-1.3-.8-1.2-.7-1.1-.7-1-.7-.9-.7-.8-.6-.7-.6-.6-.5-.6-.5-.5-.4-.4-.4-.3-.3-.2-.2-.2h-.2c0-.1,0-.2,0-.2l-2.3-1.5,5.1-8.7,2.5,1.3h0s.2.1.2.1h.3c0,.1.4.2.4.2l.5.2.5.2.6.2.7.2.8.2.9.2,1,.2h1.1c0,.1,1.2.3,1.2.3h1.3c0,0,1.4.2,1.4.2h1.5s1.6,0,1.6,0h1.7c0,0,1.8-.2,1.8-.2l1.9-.2h.2s0,0,0,0h0s0,0,0,0h0s2.4-5.7,2.4-5.7h0s0,0,0,0h0s0,0,0,0v-.2c-.1,0-1.3-1.5-1.3-1.5l-1.2-1.4-1.1-1.3-1.1-1.2-1.1-1.1-1-1-1-.9-.9-.8-.9-.7-.8-.6-.8-.5-.7-.5-.7-.4-.6-.3-.5-.3-.4-.2-.4-.2h-.3c0-.1-.2-.2-.2-.2h0s-2.6-.9-2.6-.9l2.7-9.7,2.7.6h.1s.2,0,.2,0h.3s.4,0,.4,0h.5s.6,0,.6,0h.7s.8,0,.8,0h.9s.9-.1.9-.1h1c0-.1,1.1-.3,1.1-.3l1.2-.2,1.3-.3,1.4-.3,1.5-.4,1.5-.4,1.6-.5,1.7-.6,1.8-.7h.2c0,0,0-.1,0-.1h0s0,0,0,0h0s.8-6.1.8-6.1h0s0,0,0,0h0s0,0,0,0h-.2c0-.1-1.5-1.3-1.5-1.3l-1.5-1-1.4-.9-1.4-.8-1.3-.8-1.3-.7-1.2-.6-1.1-.5-1-.4-1-.4-.9-.3-.8-.3-.7-.2-.6-.2h-.6c0-.1-.5-.2-.5-.2h-.4c0,0-.3-.1-.3-.1h-.2s-.1,0-.1,0h-2.8c0-.1,0-10.2,0-10.2h2.8c0-.1.1-.1.1-.1h.2s.3,0,.3,0h.4c0,0,.5-.2.5-.2h.6c0-.1.6-.3.6-.3l.7-.2.8-.3.9-.3,1-.4,1.1-.4,1.1-.5,1.2-.6,1.3-.7,1.3-.7,1.4-.8,1.4-.9,1.5-1,1.5-1.1h.2c0-.1,0-.2,0-.2h0s0,0,0,0h0s-.8-6.1-.8-6.1h0s0,0,0,0h0s0,0,0,0h-.2c0,0-1.8-.8-1.8-.8l-1.7-.6-1.6-.5-1.5-.5-1.5-.4-1.4-.3-1.3-.3-1.2-.2-1.1-.2h-1c0-.1-.9-.2-.9-.2h-.9s-.8,0-.8,0h-.7s-.6,0-.6,0h-.5s-.4,0-.4,0h-.3s-.2,0-.2,0h-.1s-2.7.6-2.7.6l-2.6-9.8,2.7-.8h0s.2-.1.2-.1h.3c0-.1.4-.3.4-.3l.4-.2.5-.3.6-.3.7-.4.7-.5.8-.5.8-.6.9-.7,1-.8,1-.9,1-1,1.1-1.1,1.1-1.2,1.1-1.3,1.2-1.4,1.2-1.5.2-.2h0s0,0,0,0h0s0,0,0,0l-2.3-5.7h0s0,0,0,0h0s0,0,0,0h-.2s-1.9-.2-1.9-.2h-1.8c0-.1-1.7-.2-1.7-.2h-1.6s-1.5,0-1.5,0h-1.4s-1.3.1-1.3.1h-1.2c0,.1-1.1.3-1.1.3l-1,.2-.9.2-.8.2-.7.2-.6.2-.5.2-.5.2h-.4c0,.1-.3.2-.3.2h-.2c0,0,0,.1,0,.1l-2.5,1.3-5-8.8,2.3-1.5h0c0,0,.2-.2.2-.2l.2-.2.3-.2.4-.3.4-.4.5-.5.5-.5.6-.6.6-.7.7-.8.7-.9.7-1,.7-1.1.8-1.2.8-1.3.8-1.4.8-1.5.8-1.6.8-1.7v-.2c0,0,.1,0,.1,0h0s0,0,0,0h0s-3.7-4.9-3.7-4.9h0s0,0,0,0h0s0,0,0,0h-.2s-1.9.3-1.9.3l-1.8.3-1.7.4-1.6.4-1.5.4-1.4.4-1.3.4-1.2.4-1.1.4-1,.4-.9.4-.8.4-.7.4-.6.3-.5.3-.4.3-.3.2-.2.2h-.2c0,.1,0,.2,0,.2l-2.1,1.9-7.1-7.2,1.9-2h0c0,0,.1-.2.1-.2l.2-.2.2-.3.3-.4.3-.5.3-.6.4-.7.4-.8.4-.9.4-1,.4-1.1.4-1.2.4-1.3.4-1.4.4-1.5.4-1.6.4-1.7.3-1.8.3-1.9v-.2s0,0,0,0h0s0,0,0,0h0s-4.9-3.8-4.9-3.8h0s0,0,0,0h0s0,0,0,0h-.2c0,0-1.7.9-1.7.9l-1.6.8-1.5.8-1.4.8-1.3.8-1.2.8-1.1.7-1,.7-.9.7-.8.7-.7.6-.6.6-.6.5-.5.5-.4.4-.3.4-.2.3-.2.2v.2c-.1,0-.2,0-.2,0l-1.5,2.3-8.7-5.1,1.3-2.5h0c0,0,0-.3,0-.3v-.3c.1,0,.2-.4.2-.4l.2-.5.2-.5.2-.6.2-.7.2-.8.2-.9.2-1v-1.1c.1,0,.3-1.2.3-1.2v-1.3c0,0,.2-1.4.2-1.4v-1.5s0-1.6,0-1.6v-1.7c0,0-.2-1.8-.2-1.8l-.2-1.9v-.2s0,0,0,0h0s0,0,0,0h0s-5.7-2.4-5.7-2.4h0s0,0,0,0h0s0,0,0,0h-.2c0,.1-1.5,1.3-1.5,1.3l-1.4,1.2-1.3,1.1-1.2,1.1-1.1,1.1-1,1-.9,1-.8.9-.7.9-.6.8-.5.8-.5.7-.4.7-.3.6-.3.5-.2.4-.2.4v.3c-.1,0-.2.2-.2.2h0c0,0-.9,2.7-.9,2.7l-9.7-2.7.6-2.7h0c0-.1,0-.3,0-.3v-.3s0-.4,0-.4v-.5s0-.6,0-.6v-.7s0-.8,0-.8v-.9s-.1-.9-.1-.9v-1c-.1,0-.3-1.1-.3-1.1l-.2-1.2-.3-1.3-.3-1.4-.4-1.5-.4-1.5-.5-1.6-.6-1.7-.7-1.8v-.2c0,0-.1,0-.1,0h0s0,0,0,0h0s-6.1-.8-6.1-.8h0s0,0,0,0h0s0,0,0,0v.2c-.1,0-1.3,1.5-1.3,1.5l-1,1.5-.9,1.4-.8,1.4-.8,1.3-.7,1.3-.6,1.2-.5,1.1-.4,1-.4,1-.3.9-.3.8-.2.7-.2.6v.6c-.1,0-.2.5-.2.5v.4c0,0-.1.3-.1.3v.2s0,.1,0,.1v2.8c-.1,0-10.2,0-10.2,0v-2.8c-.1,0-.1-.1-.1-.1v-.2s0-.3,0-.3v-.4c0,0-.2-.5-.2-.5v-.6c-.1,0-.3-.6-.3-.6l-.2-.7-.3-.8-.3-.9-.4-1-.4-1.1-.5-1.1-.6-1.2-.7-1.3-.7-1.3-.8-1.4-.9-1.4-1-1.5-1.1-1.5v-.2c-.1,0-.2,0-.2,0h0s0,0,0,0h0s-6.1.8-6.1.8h0s0,0,0,0h0s0,0,0,0v.2c0,0-.8,1.8-.8,1.8l-.6,1.7-.5,1.6-.5,1.5-.4,1.5-.3,1.4-.3,1.3-.2,1.2-.2,1.1v1c-.1,0-.2.9-.2.9v.9s0,.8,0,.8v.7s0,.6,0,.6v.5s0,.4,0,.4v.3s0,.2,0,.2h0c0,.1.6,2.8.6,2.8l-9.8,2.6-.8-2.7h0c0,0,0-.3,0-.3v-.3c-.1,0-.3-.4-.3-.4l-.2-.4-.3-.5-.3-.6-.4-.7-.5-.7-.5-.8-.6-.8-.7-.9-.8-1-.9-1-1-1-1.1-1.1-1.2-1.1-1.3-1.1-1.4-1.2-1.5-1.2-.2-.2h0s0,0,0,0h0s0,0,0,0l-5.7,2.3h0s0,0,0,0h0s0,0,0,0v.2s-.2,1.9-.2,1.9v1.8c-.1,0-.2,1.7-.2,1.7v1.6s0,1.5,0,1.5v1.4s.1,1.3.1,1.3v1.2c.1,0,.3,1.1.3,1.1l.2,1,.2.9.2.8.2.7.2.6.2.5.2.5v.4c.1,0,.2.3.2.3v.2c0,0,.1,0,.1,0l1.3,2.5-8.8,5-1.5-2.3h0c0,0-.1-.2-.1-.2l-.2-.2-.2-.3-.3-.4-.4-.4-.5-.5-.5-.5-.6-.6-.7-.6-.8-.7-.9-.7-1-.7-1.1-.7-1.2-.8-1.3-.8-1.4-.8-1.5-.8-1.6-.8-1.7-.8h-.2c0,0,0-.1,0-.1h0s0,0,0,0h0s-4.9,3.7-4.9,3.7h0s0,0,0,0h0s0,0,0,0v.2s.3,1.9.3,1.9l.3,1.8.4,1.7.4,1.6.4,1.5.4,1.4.4,1.3.4,1.2.4,1.1.4,1,.4.9.4.8.4.7.3.6.3.5.3.4.2.3.2.2v.2c.1,0,.2,0,.2,0l1.9,2.1-7.2,7.1-2-1.9h0c0,0-.2-.2-.2-.2l-.2-.2-.3-.2-.4-.3-.5-.3-.6-.3-.7-.4-.8-.4-.9-.4-1-.4-1.1-.4-1.2-.4-1.3-.4-1.4-.4-1.5-.4-1.6-.4-1.7-.4-1.8-.3-1.9-.3h-.2s0,0,0,0h0s0,0,0,0h0s-3.8,4.9-3.8,4.9h0s0,0,0,0h0s0,0,0,0v.2c0,0,.9,1.7.9,1.7l.8,1.6.8,1.5.8,1.4.8,1.3.8,1.2.7,1.1.7,1,.7.9.7.8.6.7.6.6.5.6.5.5.4.4.4.3.3.2.2.2h.2c0,.1,0,.2,0,.2l2.3,1.5-5.1,8.7-2.5-1.3h0s-.2-.1-.2-.1h-.3c0-.1-.4-.2-.4-.2l-.5-.2-.5-.2-.6-.2-.7-.2-.8-.2-.9-.2-1-.2h-1.1c0-.1-1.2-.3-1.2-.3h-1.3c0,0-1.4-.2-1.4-.2h-1.5s-1.6,0-1.6,0h-1.7c0,0-1.8.2-1.8.2l-1.9.2h-.2s0,0,0,0h0s0,0,0,0h0s-2.4,5.7-2.4,5.7h0s0,0,0,0h0s0,0,0,0v.2c.1,0,1.3,1.5,1.3,1.5l1.2,1.4,1.1,1.3,1.1,1.2,1.1,1.1,1,1,1,.9.9.8.9.7.8.6.8.5.7.5.7.4.6.3.5.3.4.2.4.2h.3c0,.1.2.2.2.2h0s2.6.9,2.6.9l-2.7,9.7-2.7-.6h-.1s-.2,0-.2,0h-.3s-.4,0-.4,0h-.5s-.6,0-.6,0h-.7s-.8,0-.8,0h-.9s-.9.1-.9.1h-1c0,.1-1.1.3-1.1.3l-1.2.2-1.3.3-1.4.3-1.5.4-1.5.4-1.6.5-1.7.6-1.8.7h-.2c0,0,0,.1,0,.1h0s0,0,0,0h0s-.8,6.1-.8,6.1h0s0,0,0,0h0s0,0,0,0h.2c0,.1,1.5,1.3,1.5,1.3l1.5,1,1.4.9,1.4.8,1.3.8,1.3.7,1.2.6,1.1.5,1,.4,1,.4.9.3.8.3.7.2.6.2h.6c0,.1.5.2.5.2h.4c0,0,.3.1.3.1h.2s.1,0,.1,0h2.8c0,.1,0,10.2,0,10.2h-2.8c0,.1-.1.1-.1.1h-.2s-.3,0-.3,0h-.4c0,0-.5.2-.5.2h-.6c0,.1-.6.3-.6.3l-.7.2-.8.3-.9.3-1,.4-1.1.4-1.1.5-1.2.6-1.3.7-1.3.7-1.4.8-1.4.9-1.5,1-1.5,1.1h-.2c0,.1,0,.2,0,.2h0s0,0,0,0h0s.8,6.1.8,6.1h0s0,0,0,0h0s0,0,0,0h.2c0,0,1.8.8,1.8.8l1.7.6,1.6.5,1.5.5,1.5.4,1.4.3,1.3.3,1.2.2,1.1.2h1c0,.1.9.2.9.2h.9s.8,0,.8,0h.7s.6,0,.6,0h.5s.4,0,.4,0h.3s.2,0,.2,0h.1s2.7-.6,2.7-.6l2.6,9.8-2.7.8h0s-.2.1-.2.1h-.3c0,.1-.4.3-.4.3l-.4.2-.5.3-.6.3-.7.4-.7.5-.8.5-.8.6-.9.7-1,.8-1,.9-1,1-1.1,1.1-1.1,1.2-1.1,1.3-1.2,1.4-1.2,1.5-.2.2h0s0,0,0,0h0s0,0,0,0l2.3,5.7h0s0,0,0,0h0s0,0,0,0h.2s1.9.2,1.9.2h1.8c0,.1,1.7.2,1.7.2h1.6s1.5,0,1.5,0h1.4s1.3-.1,1.3-.1h1.2c0-.1,1.1-.3,1.1-.3l1-.2.9-.2.8-.2.7-.2.6-.2.5-.2.5-.2h.4c0-.1.3-.2.3-.2h.2c0,0,0-.1,0-.1l2.5-1.3,5,8.8-2.3,1.5h0c0,0-.2.2-.2.2l-.2.2-.3.2-.4.3-.4.4-.5.5-.5.5-.6.6-.6.7-.7.8-.7.9-.7,1-.7,1.1-.8,1.2-.8,1.3-.8,1.4-.8,1.5-.8,1.6-.8,1.7v.2c0,0-.1,0-.1,0h0s0,0,0,0h0s3.7,4.9,3.7,4.9h0s0,0,0,0h0s0,0,0,0h.2s1.9-.3,1.9-.3l1.8-.3,1.7-.4,1.6-.4,1.5-.4,1.4-.4,1.3-.4,1.2-.4,1.1-.4,1-.4.9-.4.8-.4.7-.4.6-.3.5-.3.4-.3.3-.2.2-.2h.2c0-.1,0-.2,0-.2l2.1-1.9,7.1,7.2-1.9,2h0c0,0-.1.2-.1.2l-.2.2-.2.3-.3.4-.3.5-.3.6-.4.7-.4.8-.4.9-.4,1-.4,1.1-.4,1.2-.4,1.3-.4,1.4-.4,1.5-.4,1.6-.4,1.7-.3,1.8-.3,1.9v.2s0,0,0,0h0s0,0,0,0h0s4.9,3.8,4.9,3.8h0s0,0,0,0h0s0,0,0,0h.2c0,0,1.7-.9,1.7-.9l1.6-.8,1.5-.8,1.4-.8,1.3-.8,1.2-.8,1.1-.7,1-.7.9-.7.8-.7.7-.6.6-.6.6-.5.5-.5.4-.4.3-.4.2-.3.2-.2v-.2c.1,0,.2,0,.2,0l1.5-2.3,8.7,5.1-1.3,2.5h0c0,0,0,.3,0,.3v.3c-.1,0-.2.4-.2.4l-.2.5-.2.5-.2.6-.2.7-.2.8-.2.9-.2,1v1.1c-.1,0-.3,1.2-.3,1.2v1.3c0,0-.2,1.4-.2,1.4v1.5s0,1.6,0,1.6v1.7c0,0,.2,1.8.2,1.8l.2,1.9v.2s0,0,0,0h0s0,0,0,0h0s5.7,2.4,5.7,2.4h0s0,0,0,0h0s0,0,0,0h.2c0-.1,1.5-1.3,1.5-1.3l1.4-1.2,1.3-1.1,1.2-1.1,1.1-1.1,1-1,.9-1,.8-.9.7-.9.6-.8.5-.8.5-.7.4-.7.3-.6.3-.5.2-.4.2-.4v-.3c.1,0,.2-.2.2-.2h0c0,0,.9-2.7.9-2.7l9.7,2.7-.6,2.7h0c0,.1,0,.3,0,.3v.3s0,.4,0,.4v.5s0,.6,0,.6v.7s0,.8,0,.8v.9s.1.9.1.9v1c.1,0,.3,1.1.3,1.1l.2,1.2.3,1.3.3,1.4.4,1.5.4,1.5.5,1.6.6,1.7.7,1.8v.2c0,0,.1,0,.1,0h0s0,0,0,0h0s6.1.8,6.1.8h0s0,0,0,0h0s0,0,0,0v-.2c.1,0,1.3-1.5,1.3-1.5l1-1.5.9-1.4.8-1.4.8-1.3.7-1.3.6-1.2.5-1.1.4-1,.4-1,.3-.9.3-.8.2-.7.2-.6v-.6c.1,0,.2-.5.2-.5v-.4c0,0,.1-.3.1-.3v-.2s0-.1,0-.1v-2.8c.1,0,10.2,0,10.2,0v2.8c.1,0,.1.1.1.1v.2s0,.3,0,.3v.4c0,0,.2.5.2.5v.6c.1,0,.3.6.3.6l.2.7.3.8.3.9.4,1,.4,1.1.5,1.1.6,1.2.7,1.3.7,1.3.8,1.4.9,1.4,1,1.5,1.1,1.5v.2c.1,0,.2,0,.2,0h0s0,0,0,0h0s6.1-.8,6.1-.8h0s0,0,0,0h0s0,0,0,0v-.2c0,0,.8-1.8.8-1.8l.6-1.7.5-1.6.5-1.5.4-1.5.3-1.4.3-1.3.2-1.2.2-1.1v-1c.1,0,.2-.9.2-.9v-.9s0-.8,0-.8v-.7s0-.6,0-.6v-.5s0-.4,0-.4v-.3s0-.2,0-.2h0c0-.1-.6-2.8-.6-2.8l9.8-2.6Z"/>
  </g>
  <g id="Layer_2">
    <path id="gearpolyP6" class="st3" d="M86.1,272.6l.7-.2h.7c0-.1.7-.2.7-.2h.7s.7,0,.7,0h.7c0,0,.7.2.7.2l.7.2.7.3.7.3.6.4.6.4.6.5.5.5.5.6.4.6,6.4,3.5,4.1-2.7-.7-7.3-.4-.6-.3-.7-.3-.7-.2-.7-.2-.7v-.7c-.1,0-.1-.7-.1-.7v-.7s.1-.7.1-.7v-.7c.1,0,.3-.7.3-.7l.3-.7.3-.7.4-.6.4-.6.5-.6.5-.5.6-.5.6-.4.6-.4.7-.3.7-.3.7-.2.7-.2h.7c0-.1.7-.2.7-.2h.7s.7,0,.7,0h.7c0,.1.7.3.7.3l.7.2.7.3,7.3-.2,2.2-4.4-4.3-6-.7-.4-.6-.4-.6-.5-.5-.5-.5-.5-.5-.6-.4-.6-.4-.7-.3-.7-.2-.7-.2-.7v-.7c-.1,0-.2-.7-.2-.7v-.7s0-.7,0-.7v-.7c.1,0,.3-.7.3-.7l.2-.7.3-.7.3-.7.4-.6.5-.6.5-.6.5-.5.6-.5.6-.4.6-.4.7-.3.7-.3.7-.2h.7c0-.1.7-.2.7-.2l6.2-3.8-.3-4.9-6.7-3h-.7s-.7,0-.7,0h-.7c0-.1-.7-.3-.7-.3l-.7-.2-.7-.3-.7-.3-.6-.4-.6-.4-.6-.5-.5-.5-.5-.6-.4-.6-.4-.6-.3-.7-.3-.7-.2-.7v-.7c-.1,0-.2-.7-.2-.7v-.7s0-.7,0-.7v-.7c0,0,.2-.7.2-.7l.2-.7.3-.7.3-.7.4-.6.4-.6.5-.6.5-.5.6-.5.6-.4,3.5-6.4-2.7-4.1-7.3.7-.6.4-.7.3-.7.3-.7.2-.7.2h-.7c0,.1-.7.1-.7.1h-.7s-.7-.1-.7-.1h-.7c0-.1-.7-.3-.7-.3l-.7-.3-.7-.3-.6-.4-.6-.4-.6-.5-.5-.5-.5-.6-.4-.6-.4-.6-.3-.7-.3-.7-.2-.7-.2-.7v-.7c-.1,0-.2-.7-.2-.7v-.7s0-.7,0-.7v-.7c.1,0,.3-.7.3-.7l.2-.7.3-.7-.2-7.3-4.4-2.2-6,4.3-.4.7-.4.6-.5.6-.5.5-.5.5-.6.5-.6.4-.7.4-.7.3-.7.2-.7.2h-.7c0,.1-.7.2-.7.2h-.7s-.7,0-.7,0h-.7c0-.1-.7-.3-.7-.3l-.7-.2-.7-.3-.7-.3-.6-.4-.6-.5-.6-.5-.5-.5-.5-.6-.4-.6-.4-.6-.3-.7-.3-.7-.2-.7v-.7c-.1,0-.2-.7-.2-.7l-3.8-6.2-4.9.3-3,6.7v.7s0,.7,0,.7v.7c-.1,0-.3.7-.3.7l-.2.7-.3.7-.3.7-.4.6-.4.6-.5.6-.5.5-.6.5-.6.4-.6.4-.7.3-.7.3-.7.2h-.7c0,.1-.7.2-.7.2h-.7s-.7,0-.7,0h-.7c0,0-.7-.2-.7-.2l-.7-.2-.7-.3-.7-.3-.6-.4-.6-.4-.6-.5-.5-.5-.5-.6-.4-.6-6.4-3.5-4.1,2.7.7,7.3.4.6.3.7.3.7.2.7.2.7v.7c.1,0,.1.7.1.7v.7s-.1.7-.1.7v.7c-.1,0-.3.7-.3.7l-.3.7-.3.7-.4.6-.4.6-.5.6-.5.5-.6.5-.6.4-.6.4-.7.3-.7.3-.7.2-.7.2h-.7c0,.1-.7.2-.7.2h-.7s-.7,0-.7,0h-.7c0-.1-.7-.3-.7-.3l-.7-.2-.7-.3-7.3.2-2.2,4.4,4.3,6,.7.4.6.4.6.5.5.5.5.5.5.6.4.6.4.7.3.7.2.7.2.7v.7c.1,0,.2.7.2.7v.7s0,.7,0,.7v.7c-.1,0-.3.7-.3.7l-.2.7-.3.7-.3.7-.4.6-.5.6-.5.6-.5.5-.6.5-.6.4-.6.4-.7.3-.7.3-.7.2h-.7c0,.1-.7.2-.7.2l-6.2,3.8.3,4.9,6.7,3h.7s.7,0,.7,0h.7c0,.1.7.3.7.3l.7.2.7.3.7.3.6.4.6.4.6.5.5.5.5.6.4.6.4.6.3.7.3.7.2.7v.7c.1,0,.2.7.2.7v.7s0,.7,0,.7v.7c0,0-.2.7-.2.7l-.2.7-.3.7-.3.7-.4.6-.4.6-.5.6-.5.5-.6.5-.6.4-3.5,6.4,2.7,4.1,7.3-.7.6-.4.7-.3.7-.3.7-.2.7-.2h.7c0-.1.7-.1.7-.1h.7s.7.1.7.1h.7c0,.1.7.3.7.3l.7.3.7.3.6.4.6.4.6.5.5.5.5.6.4.6.4.6.3.7.3.7.2.7.2.7v.7c.1,0,.2.7.2.7v.7s0,.7,0,.7v.7c-.1,0-.3.7-.3.7l-.2.7-.3.7.2,7.3,4.4,2.2,6-4.3.4-.7.4-.6.5-.6.5-.5.5-.5.6-.5.6-.4.7-.4.7-.3.7-.2.7-.2h.7c0-.1.7-.2.7-.2h.7s.7,0,.7,0h.7c0,.1.7.3.7.3l.7.2.7.3.7.3.6.4.6.5.6.5.5.5.5.6.4.6.4.6.3.7.3.7.2.7v.7c.1,0,.2.7.2.7l3.8,6.2,4.9-.3,3-6.7v-.7s0-.7,0-.7v-.7c.1,0,.3-.7.3-.7l.2-.7.3-.7.3-.7.4-.6.4-.6.5-.6.5-.5.6-.5.6-.4.6-.4.7-.3.7-.3Z"/>
    <path id="gearpolyS6" class="st2" d="M367.2,241.1l-.5.6-.6.6-.6.5-.7.5-.7.4-.7.4-.8.3-.8.2h-.8c0,.1-.8.2-.8.2h-.8s-.8,0-.8,0h-.8c0-.1-.8-.4-.8-.4l-.8-.3-.7-.4-6.6.6-2.2,4,3.1,5.8.7.4.7.5.6.5.6.6.5.6.5.7.4.7.3.8.3.8.2.8v.8c.1,0,.1.8.1.8v.8s-.2.8-.2.8l-.2.8-.3.8-.3.8-.4.7-.5.7-.5.6-.6.6-.6.5-.7.5-.7.4-.7.4-.8.3-.8.2h-.8c0,.1-.8.2-.8.2h-.8s-.8,0-.8,0l-.8-.2-6.2,2.3-1,4.4,4.5,4.8.8.2.8.3.7.4.7.4.7.5.6.5.6.6.5.6.4.7.4.7.3.8.2.8.2.8v.8c.1,0,.1.8.1.8v.8s-.2.8-.2.8l-.2.8-.3.8-.3.7-.4.7-.5.7-.5.6-.6.6-.6.5-.7.5-.7.4-.7.3-.8.3-.8.2h-.8c0,.1-.8.2-.8.2l-5.4,3.8v4.6c.1,0,5.8,3.5,5.8,3.5h.8s.8,0,.8,0l.8.2.8.2.8.3.7.4.7.4.7.5.6.5.6.6.5.6.4.7.4.7.3.8.2.8.2.8v.8c0,0,.1.8.1.8v.8c0,0-.2.8-.2.8l-.2.8-.3.8-.3.7-.4.7-.5.7-.5.6-.6.6-.6.5-.7.5-.7.4-.7.3-.8.3-4.2,5.1,1.3,4.4,6.3,1.9.8-.2h.8c0-.1.8-.2.8-.2h.8s.8.1.8.1l.8.2.8.2.8.3.7.4.7.4.7.5.6.6.6.6.5.7.4.7.4.7.3.8.2.8.2.8v.8c0,0,.1.8.1.8v.8c0,0-.2.8-.2.8l-.2.8-.3.8-.3.7-.4.7-.5.7-.5.6-.6.6-.6.5-.7.5-2.8,6,2.4,3.9,6.6.2.7-.4.7-.3.8-.3.8-.2h.8c0-.1.8-.2.8-.2h.8s.8.1.8.1l.8.2.8.2.8.3.7.4.7.4.6.5.6.6.5.6.5.7.4.7.4.7.3.8.2.8.2.8v.8c0,0,0,.8,0,.8v.8c0,0-.2.8-.2.8l-.2.8-.3.8-.3.7-.4.7-.5.7-.5.6-1.1,6.5,3.3,3.1,6.4-1.5.6-.6.6-.5.7-.5.7-.4.7-.3.8-.3.8-.2h.8c0-.1.8-.2.8-.2h.8s.8.1.8.1l.8.2.8.2.8.3.7.4.7.4.6.5.6.6.5.6.5.7.4.7.4.7.3.8.2.8v.8c.1,0,.2.8.2.8v.8s0,.8,0,.8v.8c-.1,0-.4.8-.4.8l-.3.8-.4.7.6,6.6,4,2.2,5.8-3.1.4-.7.5-.7.5-.6.6-.6.6-.5.7-.5.7-.4.8-.3.8-.3.8-.2h.8c0-.1.8-.1.8-.1h.8s.8.2.8.2l.8.2.8.3.8.3.7.4.7.5.6.5.6.6.5.6.5.7.4.7.4.7.3.8.2.8v.8c.1,0,.2.8.2.8v.8s0,.8,0,.8l-.2.8,2.3,6.2,4.4,1,4.8-4.5.2-.8.3-.8.4-.7.4-.7.5-.7.5-.6.6-.6.6-.5.7-.4.7-.4.8-.3.8-.2.8-.2h.8c0-.1.8-.1.8-.1h.8s.8.2.8.2l.8.2.8.3.7.3.7.4.7.5.6.5.6.6.5.6.5.7.4.7.3.7.3.8.2.8v.8c.1,0,.2.8.2.8l3.8,5.4h4.6c0-.1,3.5-5.8,3.5-5.8v-.8s0-.8,0-.8l.2-.8.2-.8.3-.8.4-.7.4-.7.5-.7.5-.6.6-.6.6-.5.7-.4.7-.4.8-.3.8-.2.8-.2h.8c0,0,.8-.1.8-.1h.8c0,0,.8.2.8.2l.8.2.8.3.7.3.7.4.7.5.6.5.6.6.5.6.5.7.4.7.3.7.3.8,5.1,4.2,4.4-1.3,1.9-6.3-.2-.8v-.8c-.1,0-.2-.8-.2-.8v-.8s.1-.8.1-.8l.2-.8.2-.8.3-.8.4-.7.4-.7.5-.7.6-.6.6-.6.7-.5.7-.4.7-.4.8-.3.8-.2.8-.2h.8c0,0,.8-.1.8-.1h.8c0,0,.8.2.8.2l.8.2.8.3.7.3.7.4.7.5.6.5.6.6.5.6.5.7,6,2.8,3.9-2.4.2-6.6-.4-.7-.3-.7-.3-.8-.2-.8v-.8c-.1,0-.2-.8-.2-.8v-.8s.1-.8.1-.8l.2-.8.2-.8.3-.8.4-.7.4-.7.5-.6.6-.6.6-.5.7-.5.7-.4.7-.4.8-.3.8-.2.8-.2h.8c0,0,.8,0,.8,0h.8c0,0,.8.2.8.2l.8.2.8.3.7.3.7.4.7.5.6.5,6.5,1.1,3.1-3.3-1.5-6.4-.6-.6-.5-.6-.5-.7-.4-.7-.3-.7-.3-.8-.2-.8v-.8c-.1,0-.2-.8-.2-.8v-.8s.1-.8.1-.8l.2-.8.2-.8.3-.8.4-.7.4-.7.5-.6.6-.6.6-.5.7-.5.7-.4.7-.4.8-.3.8-.2h.8c0-.1.8-.2.8-.2h.8s.8,0,.8,0h.8c0,.1.8.4.8.4l.8.3.7.4,6.6-.6,2.2-4-3.1-5.8-.7-.4-.7-.5-.6-.5-.6-.6-.5-.6-.5-.7-.4-.7-.3-.8-.3-.8-.2-.8v-.8c-.1,0-.1-.8-.1-.8v-.8s.2-.8.2-.8l.2-.8.3-.8.3-.8.4-.7.5-.7.5-.6.6-.6.6-.5.7-.5.7-.4.7-.4.8-.3.8-.2h.8c0-.1.8-.2.8-.2h.8s.8,0,.8,0l.8.2,6.2-2.3,1-4.4-4.5-4.8-.8-.2-.8-.3-.7-.4-.7-.4-.7-.5-.6-.5-.6-.6-.5-.6-.4-.7-.4-.7-.3-.8-.2-.8-.2-.8v-.8c-.1,0-.1-.8-.1-.8v-.8s.2-.8.2-.8l.2-.8.3-.8.3-.7.4-.7.5-.7.5-.6.6-.6.6-.5.7-.5.7-.4.7-.3.8-.3.8-.2h.8c0-.1.8-.2.8-.2l5.4-3.8v-4.6c-.1,0-5.8-3.5-5.8-3.5h-.8s-.8,0-.8,0l-.8-.2-.8-.2-.8-.3-.7-.4-.7-.4-.7-.5-.6-.5-.6-.6-.5-.6-.4-.7-.4-.7-.3-.8-.2-.8-.2-.8v-.8c0,0-.1-.8-.1-.8v-.8c0,0,.2-.8.2-.8l.2-.8.3-.8.3-.7.4-.7.5-.7.5-.6.6-.6.6-.5.7-.5.7-.4.7-.3.8-.3,4.2-5.1-1.3-4.4-6.3-1.9-.8.2h-.8c0,.1-.8.2-.8.2h-.8s-.8-.1-.8-.1l-.8-.2-.8-.2-.8-.3-.7-.4-.7-.4-.7-.5-.6-.6-.6-.6-.5-.7-.4-.7-.4-.7-.3-.8-.2-.8-.2-.8v-.8c0,0-.1-.8-.1-.8v-.8c0,0,.2-.8.2-.8l.2-.8.3-.8.3-.7.4-.7.5-.7.5-.6.6-.6.6-.5.7-.5,2.8-6-2.4-3.9-6.6-.2-.7.4-.7.3-.8.3-.8.2h-.8c0,.1-.8.2-.8.2h-.8s-.8-.1-.8-.1l-.8-.2-.8-.2-.8-.3-.7-.4-.7-.4-.6-.5-.6-.6-.5-.6-.5-.7-.4-.7-.4-.7-.3-.8-.2-.8-.2-.8v-.8c0,0,0-.8,0-.8v-.8c0,0,.2-.8.2-.8l.2-.8.3-.8.3-.7.4-.7.5-.7.5-.6,1.1-6.5-3.3-3.1-6.4,1.5-.6.6-.6.5-.7.5-.7.4-.7.3-.8.3-.8.2h-.8c0,.1-.8.2-.8.2h-.8s-.8-.1-.8-.1l-.8-.2-.8-.2-.8-.3-.7-.4-.7-.4-.6-.5-.6-.6-.5-.6-.5-.7-.4-.7-.4-.7-.3-.8-.2-.8v-.8c-.1,0-.2-.8-.2-.8v-.8s0-.8,0-.8v-.8c.1,0,.4-.8.4-.8l.3-.8.4-.7-.6-6.6-4-2.2-5.8,3.1-.4.7-.5.7-.5.6-.6.6-.6.5-.7.5-.7.4-.8.3-.8.3-.8.2h-.8c0,.1-.8.1-.8.1h-.8s-.8-.2-.8-.2l-.8-.2-.8-.3-.8-.3-.7-.4-.7-.5-.6-.5-.6-.6-.5-.6-.5-.7-.4-.7-.4-.7-.3-.8-.2-.8v-.8c-.1,0-.2-.8-.2-.8v-.8s0-.8,0-.8l.2-.8-2.3-6.2-4.4-1-4.8,4.5-.2.8-.3.8-.4.7-.4.7-.5.7-.5.6-.6.6-.6.5-.7.4-.7.4-.8.3-.8.2-.8.2h-.8c0,.1-.8.1-.8.1h-.8s-.8-.2-.8-.2l-.8-.2-.8-.3-.7-.3-.7-.4-.7-.5-.6-.5-.6-.6-.5-.6-.5-.7-.4-.7-.3-.7-.3-.8-.2-.8v-.8c-.1,0-.2-.8-.2-.8l-3.8-5.4h-4.6c0,.1-3.5,5.8-3.5,5.8v.8s0,.8,0,.8l-.2.8-.2.8-.3.8-.4.7-.4.7-.5.7-.5.6-.6.6-.6.5-.7.4-.7.4-.8.3-.8.2-.8.2h-.8c0,0-.8.1-.8.1h-.8c0,0-.8-.2-.8-.2l-.8-.2-.8-.3-.7-.3-.7-.4-.7-.5-.6-.5-.6-.6-.5-.6-.5-.7-.4-.7-.3-.7-.3-.8-5.1-4.2-4.4,1.3-1.9,6.3.2.8v.8c.1,0,.2.8.2.8v.8s-.1.8-.1.8l-.2.8-.2.8-.3.8-.4.7-.4.7-.5.7-.6.6-.6.6-.7.5-.7.4-.7.4-.8.3-.8.2-.8.2h-.8c0,0-.8.1-.8.1h-.8c0,0-.8-.2-.8-.2l-.8-.2-.8-.3-.7-.3-.7-.4-.7-.5-.6-.5-.6-.6-.5-.6-.5-.7-6-2.8-3.9,2.4-.2,6.6.4.7.3.7.3.8.2.8v.8c.1,0,.2.8.2.8v.8s-.1.8-.1.8l-.2.8-.2.8-.3.8-.4.7-.4.7-.5.6-.6.6-.6.5-.7.5-.7.4-.7.4-.8.3-.8.2-.8.2h-.8c0,0-.8,0-.8,0h-.8c0,0-.8-.2-.8-.2l-.8-.2-.8-.3-.7-.3-.7-.4-.7-.5-.6-.5-6.5-1.1-3.1,3.3,1.5,6.4.6.6.5.6.5.7.4.7.3.7.3.8.2.8v.8c.1,0,.2.8.2.8v.8s-.1.8-.1.8l-.2.8-.2.8-.3.8-.4.7-.4.7Z"/>
  </g>
  <g id="Layer_7">
    <path class="st5" d="M538.2,475.4h1.1s1.1,0,1.1,0l1.1.2,1.1.3,1,.4,1,.5.9.6.9.7.8.8.7.8.6.9.5,1,.4,1,.3,1,.2,1.1v1.1c.1,0,.2,1.1.2,1.1v1.1c0,0-.2,1.1-.2,1.1l-.3,1.1-.4,1-.5,1-.6.9-.7.9-.7.8-.8.7-.9.7-.9.6-1,.5-1,.4-1.1.3-1.1.2h-1.1c0,0-1.1,0-1.1,0h-1.1c0-.1-1.1-.4-1.1-.4l-2.1-.6-2.1-.5-2.1-.5-2.2-.4-2.2-.3-2.2-.3-2.2-.2-2.2-.2h-2.2c0,0-2.2-.1-2.2-.1h-2.2s-2.2.1-2.2.1h-1.1s-1.1,0-1.1,0l-1.1-.2-1.1-.3-1-.4-1-.5-.9-.6-.9-.7-.8-.8-.7-.8-.6-.9-.5-1-.4-1-.3-1-.2-1.1v-1.1c-.1,0-.2-1.1-.2-1.1v-1.1c0,0,.2-1.1.2-1.1l.3-1.1.4-1,.5-1,.6-.9.7-.9.7-.8.8-.7.9-.7.9-.6,1-.5,1-.4,1.1-.3,1.1-.2h1.1c0,0,1.1,0,1.1,0h1.1c0,.1,1.1.4,1.1.4l2.1.6,2.1.5,2.1.5,2.2.4,2.2.3,2.2.3,2.2.2,2.2.2h2.2c0,0,2.2.1,2.2.1h2.2s2.2-.1,2.2-.1Z"/>
    <circle class="st5" cx="538.8" cy="486.9" r="4.3"/>
    <path class="st5" d="M562.9,441.8l1.5-.6,1.6-.4,1.6-.2h1.6s1.6.2,1.6.2l1.6.4,1.6.6,1.5.7,1.4.9,1.3,1.1,1.1,1.2,1,1.3.8,1.4.7,1.5.5,1.6.3,1.6v1.6c.1,0,0,1.6,0,1.6l-.3,1.6-.5,1.6-.6,1.5-.8,1.4-1,1.3-1.1,1.2-1.3,1.1-1.4.9-1.5.7-1.5.6-1.6.4-1.6.2h-1.6s-1.6-.2-1.6-.2l-1.6-.4-1.6-.6-1.5-.7-1.4-.9-1.1-.8-1.2-.7-1.3-.6-1.3-.4-1.3-.3-1.4-.2h-1.4c0,0-1.4,0-1.4,0h-1.4c0,.1-1.4.4-1.4.4l-1.3.4-1.3.5-1.5.6-1.6.4-1.6.2h-1.6s-1.6-.2-1.6-.2l-1.6-.4-1.6-.6-1.5-.7-1.4-.9-1.3-1.1-1.1-1.2-1-1.3-.8-1.4-.7-1.5-.5-1.6-.3-1.6v-1.6c-.1,0,0-1.6,0-1.6l.3-1.6.5-1.6.6-1.5.8-1.4,1-1.3,1.1-1.2,1.3-1.1,1.4-.9,1.5-.7,1.5-.6,1.6-.4,1.6-.2h1.6s1.6.2,1.6.2l1.6.4,1.6.6,1.5.7,1.4.9,1.1.8,1.2.7,1.3.6,1.3.4,1.3.3,1.4.2h1.4c0,0,1.4,0,1.4,0h1.4c0-.1,1.4-.4,1.4-.4l1.3-.4,1.3-.5Z"/>
    <circle class="st5" cx="599.8" cy="454.8" r="9.1"/>
    <circle class="st5" cx="568.6" cy="454.8" r="4.3"/>
    <circle class="st5" cx="599.8" cy="454.8" r="4.3"/>
    <circle class="st5" cx="538.8" cy="451.4" r="4.3"/>
    <circle class="st5" cx="509" cy="483.5" r="4.3"/>
  </g>
</svg>