<?xml version="1.0" encoding="UTF-8"?>
<svg id="Layer_1" xmlns="http://www.w3.org/2000/svg" version="1.1" viewBox="0 0 892.8 530.1">
  <!-- Generator: Adobe Illustrator 29.4.0, SVG Export Plug-In . SVG Version: 2.1.0 Build 152)  -->
  <defs>
    <style>
      .st0 {
        fill: none;
        stroke: #000;
        stroke-miterlimit: 10;
        stroke-width: 0px;
      }

      .st1 {
        fill: #ddd;
      }
    </style>
  </defs>
  <path class="st1" d="M287.8,165.9c-5,0-9.1,4.1-9.1,9.1s4.1,9.1,9.1,9.1,9.1-4.1,9.1-9.1-4.1-9.1-9.1-9.1ZM287.8,179.3c-2.4,0-4.3-1.9-4.3-4.3s1.9-4.3,4.3-4.3,4.3,1.9,4.3,4.3-1.9,4.3-4.3,4.3Z"/>
  <path class="st1" d="M270.2,171.7l-.5-1.6-.7-1.5-.8-1.4-1-1.3-1.1-1.2-1.3-1.1-1.4-.9-1.5-.7-1.6-.6-1.6-.4-1.6-.2h-1.6l-1.6.2-1.6.4-1.5.6-1.3.5-1.3.4s-1.4.3-1.4.4h-4.2l-1.4-.2-1.3-.3-1.3-.4-1.3-.6-1.2-.7-1.1-.8-1.4-.9-1.5-.7-1.6-.6-1.6-.4-1.6-.2h-1.6l-1.6.2-1.6.4-1.5.6-1.5.7-1.4.9-1.3,1.1-1.1,1.2-1,1.3-.8,1.4-.6,1.5-.5,1.6-.3,1.6v3.2l.3,1.6.5,1.6.7,1.5.8,1.4,1,1.3,1.1,1.2,1.3,1.1,1.4.9,1.5.7,1.6.6,1.6.4,1.6.2h1.6l1.6-.2,1.6-.4,1.5-.6,1.3-.5,1.3-.4s1.4-.3,1.4-.4h4.2l1.4.2,1.3.3,1.3.4,1.3.6,1.2.7,1.1.8,1.4.9,1.5.7,1.6.6,1.6.4,1.6.2h1.6l1.6-.2,1.6-.4,1.5-.6,1.5-.7,1.4-.9,1.3-1.1,1.1-1.2,1-1.3.8-1.4.6-1.5.5-1.6.3-1.6v-3.2l-.3-1.6h0ZM226.8,175.9c-2.4,0-4.3-1.9-4.3-4.3s1.9-4.3,4.3-4.3,4.3,1.9,4.3,4.3-1.9,4.3-4.3,4.3ZM256.5,179.3c-2.4,0-4.3-1.9-4.3-4.3s1.9-4.3,4.3-4.3,4.3,1.9,4.3,4.3-1.9,4.3-4.3,4.3Z"/>
  <path class="st1" d="M237.9,206v-1.1l-.2-1.1-.3-1-.4-1-.5-1-.6-.9-.7-.8-.8-.8-.9-.7-.9-.6-1-.5-1-.4-1.1-.3-1.1-.2h-2.2c0,.1-2.2.1-2.2.1,0,0-2.2,0-2.2-.1h-4.4l-2.2-.2-2.2-.2-2.2-.3-2.2-.3-2.2-.4-2.1-.5-2.1-.5-2.1-.6s-1.1-.3-1.1-.4h-3.3l-1.1.2-1.1.3-1,.4-1,.5-.9.6-.9.7-.8.7-.7.8-.7.9-.6.9-.5,1-.4,1-.3,1.1-.2,1.1v1.1s.1,1.1.2,1.1v1.1l.2,1.1.3,1,.4,1,.5,1,.6.9.7.8.8.8.9.7.9.6,1,.5,1,.4,1.1.3,1.1.2h11l2.2.2,2.2.2,2.2.3,2.2.3,2.2.4,2.1.5,2.1.5,2.1.6s1.1.3,1.1.4h3.3l1.1-.2,1.1-.3,1-.4,1-.5.9-.6.9-.7.8-.7.7-.8.7-.9.6-.9.5-1,.4-1,.3-1.1.2-1.1v-1.1l-.2-1.1h0ZM197,208c-2.4,0-4.3-1.9-4.3-4.3s1.9-4.3,4.3-4.3,4.3,1.9,4.3,4.3-1.9,4.3-4.3,4.3ZM226.8,211.4c-2.4,0-4.3-1.9-4.3-4.3s1.9-4.3,4.3-4.3,4.3,1.9,4.3,4.3-1.9,4.3-4.3,4.3Z"/>
  <path class="st1" d="M843.1,465.5v-1.7l-3.3-12.1-3.8-8.1h-6.2l-3.8,8.1-3.3,12.1v1.7h-9v-1.7l-3.3-12.1-3.8-8.1h-6.2l-3.8,8.1-3.3,12.1v1.7h-9v-1.7l-3.3-12.1-3.8-8.1h-6.2l-3.8,8.1-3.3,12.1v1.7h-9v-1.7l-3.3-12.1-3.8-8.1h-6.2l-3.8,8.1-3.3,12.1v1.7h-9v-1.7l-3.3-12.1-3.8-8.1h-6.2l-3.8,8.1-3.3,12.1v1.7h-9v-1.7l-3.3-12.1-3.8-8.1h-6.2l-3.8,8.1-3.3,12.1v1.7h-9v-1.7l-3.3-12.1-3.8-8.1h-6.2l-3.8,8.1-3.3,12.1v1.7h-9v-1.7l-3.3-12.1-3.8-8.1h-6.2l-3.8,8.1-3.3,12.1v1.7h-9v-1.7l-3.3-12.1-3.8-8.1h-6.2l-3.8,8.1-3.3,12.1v1.7h-9v-1.7l-3.3-12.1-3.8-8.1h-6.2l-3.8,8.1-3.3,12.1v1.7h-9v-1.7l-3.3-12.1-3.8-8.1h-6.2l-3.8,8.1-3.3,12.1v1.7h-9v-1.7l-3.3-12.1-3.8-8.1h-6.2l-3.8,8.1-3.3,12.1v1.7h-9v-1.7l-3.3-12.1-3.8-8.1h-6.2l-3.8,8.1-3.3,12.1v1.7h-9v-1.7l-3.3-12.1-3.8-8.1h-6.2l-3.8,8.1-3.3,12.1v1.7h-9v-1.7l-3.3-12.1-3.8-8.1h-6.2l-3.8,8.1-3.3,12.1v1.7h-9v-1.7l-3.3-12.1-6.5-8h-6.2l-3.8,8.1-3.4,12.1v41.9h473.4v-40.3h-9.2ZM476.1,491.9c-2.4,0-4.3-1.9-4.3-4.3s1.9-4.3,4.3-4.3,4.3,1.9,4.3,4.3-1.9,4.3-4.3,4.3ZM569,491.9c-2.4,0-4.3-1.9-4.3-4.3s1.9-4.3,4.3-4.3,4.3,1.9,4.3,4.3-1.9,4.3-4.3,4.3ZM662,491.9c-2.4,0-4.3-1.9-4.3-4.3s1.9-4.3,4.3-4.3,4.3,1.9,4.3,4.3-1.9,4.3-4.3,4.3ZM754.9,491.9c-2.4,0-4.3-1.9-4.3-4.3s1.9-4.3,4.3-4.3,4.3,1.9,4.3,4.3-1.9,4.3-4.3,4.3Z"/>
  <path class="st1" d="M867.9,183.1c0-.1.5-.1.5-.1l.6-.2h.7c0-.1.7-.3.7-.3l.8-.2.9-.2.9-.3,1-.3,1-.4,1.1-.4,1.2-.5,1.2-.5,1.3-.6,1.3-.6,1.4-.7,1.4-.7,1.5-.8,1.5-.9.8-.5-.4-6.2-.8-.4-1.6-.7-1.5-.6-1.5-.6-1.4-.5-1.4-.5-1.3-.4-1.3-.4-1.2-.3-1.1-.3-1.1-.2-1-.2-.9-.2h-.9l-.8-.2h-1.4c0-.1-.6-.1-.6-.1h-2.2l-1.5-8.9h.4l.3-.2h.4c0-.1.4-.3.4-.3l.5-.2.6-.2.6-.3.7-.3.7-.4.8-.4.8-.5.9-.5.9-.6,1-.6,1-.7,1.1-.7,1.1-.8,1.2-.9,1.2-.9,1.2-1,1.3-1.1,1.3-1.2.7-.6-1.6-6-.9-.2-1.7-.4-1.6-.3-1.6-.3-1.5-.2-1.4-.2h-1.4c0-.1-1.3-.2-1.3-.2h-8.6l-.6.2h-.5l-.5.2h-.4l-.3.2h-.4c0,.1-3.2-8.3-3.2-8.3h.4l.3-.3.3-.2.4-.2.5-.3.5-.3.6-.4.6-.4.7-.5.7-.5.7-.6.8-.7.8-.7.9-.8.9-.9.9-.9.9-1,1-1.1,1-1.2,1-1.2,1-1.3,1-1.4.5-.7-2.8-5.7h-8.9l-1.4.2-1.3.2-1.2.2-1.2.2-1.1.2-1,.2-.9.2-.9.2-.8.2-.7.2-.6.2-.6.2-.5.2-.4.2-.4.2h-.3l-.2.2h-.2l-4.8-7.6.2-.3.3-.2.3-.3.3-.3.4-.4.4-.4.5-.5.5-.5.5-.6.6-.7.6-.7.6-.8.7-.9.7-1,.7-1,.7-1.1.7-1.2.7-1.2.7-1.3.8-1.4.8-1.5.8-1.6.4-.8-3.8-5.1-.9.2-1.7.3-1.6.3-1.6.4-1.5.4-1.4.4-1.3.4-1.2.4-1.2.4-1.1.4-1,.4-.9.4-.9.4-.8.4-.7.4-.7.4-.6.3-.5.3-.5.3-.4.3-.3.2-.3.2-.2.2-6.2-6.5.2-.3.2-.2.2-.3.3-.4.3-.4.3-.5.4-.6.4-.6.4-.7.4-.8.5-.8.5-.9.5-1,.5-1.1.5-1.1.5-1.2.5-1.3.5-1.4.5-1.4.5-1.5.5-1.6.4-1.7.2-.9-4.7-4.2-.8.4-1.6.6-1.5.7-1.5.7-1.4.7-1.3.7-1.2.7-1.1.6-1.1.6-1,.6-.9.6-.8.6-.8.6-.7.5-.6.5-.6.5-.5.4-.5.4-.4.4-.3.3-.3.3-.2.2-.2.2-7.3-5.2v-.4l.3-.3.2-.4.2-.4.2-.5.2-.6.3-.6.3-.7.3-.8.3-.8.3-.9.3-1,.3-1.1.3-1.1.3-1.2.2-1.3.2-1.4.2-1.4.2-1.5.2-1.6v-1.7l.2-1.7v-.9l-5.4-3.2-.8.5-1.5.9-1.4.9-1.3.9-1.2.9-1.1.9-1.1.9-1,.9-.9.8-.9.8-.8.8-.7.7-.7.7-.6.7-.5.6-.5.6-.4.5-.4.5-.3.4-.3.4-.2.3-.2.3v.2l-.2.2-8.2-3.7v-.4l.2-.3v-.4l.2-.4v-.5l.2-.6v-.7l.2-.7v-.8l.2-.9v-1l.2-1v-9.2l-.3-1.6-.2-1.7-.2-1.7v-.9h-.2c0-.1-5.9-2.1-5.9-2.1l-.6.7-1.2,1.2-1.2,1.2-1.1,1.2-1,1.1-.9,1.1-.9,1.1-.8,1-.7,1-.7,1-.6.9-.6.9-.5.8-.5.8-.4.7-.4.7-.3.6-.3.5-.2.5-.2.4v.4l-.3.3v.4l-8.8-2.1v-6.9l-.2-1-.2-1.1-.2-1.2-.2-1.2-.3-1.3-.3-1.3-.4-1.4-.4-1.5-.5-1.5-.5-1.6-.6-1.6-.3-.8-6.2-.9-.5.8-1,1.4-.9,1.4-.8,1.4-.8,1.3-.7,1.3-.7,1.2-.6,1.2-.5,1.1-.5,1.1-.4,1-.4,1-.3.9-.3.8-.3.8-.2.7-.2.7-.2.6v.5l-.2.5v1.2l-9-.3v-2.2l-.2-.6v-.7l-.3-.7-.2-.8-.2-.9-.3-.9-.3-1-.4-1-.4-1.1-.5-1.2-.5-1.2-.6-1.3-.6-1.3-.7-1.4-.7-1.4-.8-1.5-.9-1.5-.5-.8-6.2.3c0,.1-.4.9-.4.9l-.7,1.6-.6,1.5-.6,1.5-.5,1.4-.5,1.4-.4,1.3-.4,1.3-.3,1.2-.3,1.1-.2,1.1-.2,1-.2.9v.9l-.2.8v4.2l-8.9,1.5v-.4l-.2-.3v-.4l-.3-.4-.2-.5-.2-.6-.3-.6-.3-.7-.4-.7-.4-.8-.5-.8-.5-.9-.6-.9-.6-1-.7-1-.7-1.1-.8-1.1-.9-1.2-.9-1.2-1-1.2-1.1-1.3-1.2-1.3-.6-.7-6,1.6-.2,1-.4,1.7-.3,1.6-.3,1.6-.2,1.5-.2,1.4v1.4l-.2,1.3v8.6l.2.6v.5l.2.5v.4l.2.3v.4l-8.4,3.2v-.4l-.3-.3-.2-.3-.2-.4-.3-.5-.3-.5-.4-.6-.4-.6-.5-.7-.5-.7-.6-.7-.7-.8-.7-.8-.8-.9-.9-.9-.9-.9-1-.9-1.1-1-1.2-1-1.2-1-1.3-1-1.4-1-.7-.5-5.6,2.8v8.9l.2,1.4.2,1.3.2,1.2.2,1.2.2,1.1.2,1,.2.9.2.9.2.8.2.7.2.6.2.6.2.5.2.4.2.4v.3l.2.2v.2l-7.7,4.8-.2-.3-.2-.3-.3-.3-.3-.3-.4-.4-.4-.4-.5-.5-.5-.5-.6-.5-.7-.6-.7-.6-.8-.6-.9-.7-1-.7-1-.7-1.1-.7-1.2-.7-1.2-.7-1.3-.7-1.4-.8-1.5-.8-1.6-.8-.8-.4-5,3.8.2,1,.3,1.7.3,1.6.4,1.6.4,1.5.4,1.4.4,1.3.4,1.2.4,1.2.4,1.1.4,1,.4.9.4.9.4.8.4.7.4.7.3.6.3.5.3.5.3.4.2.3.2.3.2.2-6.6,6.3-.2-.3-.2-.2-.3-.2-.4-.3-.4-.3-.5-.3-.6-.4-.6-.4-.7-.4-.8-.4-.8-.5-.9-.5-1-.5-1.1-.5-1.1-.5-1.2-.5-1.3-.5-1.4-.5-1.4-.5-1.5-.5-1.6-.5-1.7-.4-.9-.2-4.1,4.7.3.9.6,1.6.7,1.5.7,1.5.7,1.4.7,1.3.7,1.2.6,1.1.6,1.1.6,1,.6.9.6.8.6.8.5.7.5.6.5.6.4.5.4.5.4.4.3.3.3.3.2.2.2.2-5.3,7.4h-.4l-.3-.3-.4-.2-.4-.2-.5-.2-.6-.2-.6-.3-.7-.3-.8-.3-.8-.3-.9-.3-1-.3-1.1-.3-1.1-.3-1.2-.3-1.3-.2-1.4-.2-1.4-.2-1.5-.2-1.6-.2h-1.7l-1.7-.2h-1l-3.1,5.4.5.9.9,1.5.9,1.4.9,1.3.9,1.2.9,1.1.9,1.1.9,1,.8.9.8.9.8.8.7.7.7.7.7.6.6.5.6.5.5.4.5.4.4.3.4.3.3.2.3.2h.2l.2.2-3.7,8.2h-.4l-.3-.2h-.4l-.4-.2h-.5l-.6-.2h-.7l-.7-.2h-.8l-.9-.2h-1l-1-.2h-9.2l-1.6.3-1.7.2-1.7.2h-.9v.2l-2,5.9.6.7,1.2,1.2,1.2,1.2,1.2,1.1,1.1,1,1.1.9,1.1.9,1,.8,1,.7,1,.7.9.6.9.6.8.5.8.5.7.4.7.4.6.3.5.3.5.2.4.2h.4c0,.1.3.3.3.3h.4l-2.1,8.9h-5.9c0,.1-1,.1-1,.1l-1,.2-1.1.2-1.2.2-1.2.2-1.3.3-1.3.3-1.4.4-1.5.4-1.5.5-1.6.5-1.6.6-.8.3-.8,6.2.7.6,1.4,1,1.4.9,1.4.8,1.3.8,1.3.7,1.2.7,1.2.6,1.1.5,1.1.5,1,.4,1,.4.9.3.8.3.8.3.7.2.7.2.6.2h.5c0,.1.5.2.5.2h1.2l-.3,9h-1.7c0,.1-.5.1-.5.1l-.6.2h-.7l-.7.3-.8.2-.9.2-.9.3-1,.3-1,.4-1.1.4-1.2.5-1.2.5-1.3.6-1.3.6-1.4.7-1.4.7-1.5.8-1.5.9-.8.5.4,6.2.8.4,1.6.7,1.5.6,1.5.6,1.4.5,1.4.5,1.3.4,1.3.4,1.2.3,1.1.3,1.1.2,1,.2.9.2h.9l.8.2h4.2l1.5,8.9h-.4l-.3.2h-.4c0,.1-.4.3-.4.3l-.5.2-.6.2-.6.3-.7.3-.7.4-.8.4-.8.5-.9.5-.9.6-1,.6-1,.7-1.1.7-1.1.8-1.2.9-1.2.9-1.2,1-1.3,1.1-1.3,1.2-.7.6,1.6,6,.9.2,1.7.4,1.6.3,1.6.3,1.5.2,1.4.2h1.4c0,.1,1.3.2,1.3.2h2.4c0,.1,1.1.1,1.1.1h4.4c0-.1.7-.1.7-.1l.6-.2h.5l.5-.2h.4l.3-.2h.4c0-.1,3.2,8.3,3.2,8.3h-.4c0,.1-.3.3-.3.3l-.3.2-.4.2-.5.3-.5.3-.6.4-.6.4-.7.5-.7.5-.7.6-.8.7-.8.7-.9.8-.9.9-.9.9-.9,1-1,1.1-1,1.2-1,1.2-1,1.3-1,1.4-.5.7c0,.1,2.8,5.7,2.8,5.7h8.9c0-.1,1.4-.2,1.4-.2l1.3-.2,1.2-.2,1.2-.2,1.1-.2,1-.2.9-.2.9-.2.8-.2.7-.2.6-.2.6-.2.5-.2.4-.2.4-.2h.3c0-.1.2-.2.2-.2h.2l4.8,7.7-.2.3-.3.2-.3.3-.3.3-.4.4-.4.4-.5.5-.5.5-.5.6-.6.7-.6.7-.6.8-.7.9-.7,1-.7,1-.7,1.1-.7,1.2-.7,1.2-.7,1.3-.8,1.4-.8,1.5-.8,1.6-.4.8c0,.1,3.8,5.1,3.8,5.1l.9-.2,1.7-.3,1.6-.3,1.6-.4,1.5-.4,1.4-.4,1.3-.4,1.2-.4,1.2-.4,1.1-.4,1-.4.9-.4.9-.4.8-.4.7-.4.7-.4.6-.3.5-.3.5-.3.4-.3.3-.2.3-.2.2-.2,6.2,6.5c0,.1-.2.3-.2.3l-.2.2-.2.3-.3.4-.3.4-.3.5-.4.6-.4.6-.4.7-.4.8-.5.8-.5.9-.5,1-.5,1.1-.5,1.1-.5,1.2-.5,1.3-.5,1.4-.5,1.4-.5,1.5-.5,1.6-.4,1.7-.2.9,4.7,4.2.8-.4,1.6-.6,1.5-.7,1.5-.7,1.4-.7,1.3-.7,1.2-.7,1.1-.6,1.1-.6,1-.6.9-.6.8-.6.8-.6.7-.5.6-.5.6-.5.5-.4.5-.4.4-.4.3-.3.3-.3.2-.2.2-.2,7.3,5.2v.4l-.3.3-.2.4-.2.4-.2.5-.2.6-.3.6-.3.7-.3.8-.3.8-.3.9-.3,1-.3,1.1-.3,1.1-.3,1.2-.2,1.3-.2,1.4-.2,1.4-.2,1.5-.2,1.6v1.7l-.2,1.7v.9c0,.1,5.4,3.2,5.4,3.2l.8-.5,1.5-.9,1.4-.9,1.3-.9,1.2-.9,1.1-.9,1.1-.9,1-.9.9-.8.9-.8.8-.8.7-.7.7-.7.6-.7.5-.6.5-.6.4-.5.4-.5.3-.4.3-.4.2-.3.2-.3v-.2l.2-.2,8.2,3.7v.4l-.2.3v.4l-.2.4v.5l-.2.6v.7l-.2.7v.8l-.2.9v1l-.2,1v9.2l.3,1.6.2,1.7.2,1.7v.9h.2c0,.1,5.9,2.1,5.9,2.1l.6-.7,1.2-1.2,1.2-1.2,1.1-1.2,1-1.1.9-1.1.9-1.1.8-1,.7-1,.7-1,.6-.9.6-.9.5-.8.5-.8.4-.7.4-.7.3-.6.3-.5.2-.5.2-.4v-.4l.3-.3v-.4l8.8,2.1v6.9l.2,1,.2,1.1.2,1.2.2,1.2.3,1.3.3,1.3.4,1.4.4,1.5.5,1.5.5,1.6.6,1.6.3.8c0,.1,6.2.9,6.2.9l.5-.8,1-1.4.9-1.4.8-1.4.8-1.3.7-1.3.7-1.2.6-1.2.5-1.1.5-1.1.4-1,.4-1,.3-.9.3-.8.3-.8.2-.7.2-.7.2-.6v-.5l.2-.5v-1.2l9,.3v2.2l.2.6v.7l.3.7.2.8.2.9.3.9.3,1,.4,1,.4,1.1.5,1.2.5,1.2.6,1.3.6,1.3.7,1.4.7,1.4.8,1.5.9,1.5.5.8c0,.1,6.2-.3,6.2-.3l.4-.9.7-1.6.6-1.5.6-1.5.5-1.4.5-1.4.4-1.3.4-1.3.3-1.2.3-1.1.2-1.1.2-1,.2-.9v-.9l.2-.8v-4.2l8.9-1.5v.4l.2.3v.4l.3.4.2.5.2.6.3.6.3.7.4.7.4.8.5.8.5.9.6.9.6,1,.7,1,.7,1.1.8,1.1.9,1.2.9,1.2,1,1.2,1.1,1.3,1.2,1.3.6.7,6-1.6.2-1,.4-1.7.3-1.6.3-1.6.2-1.5.2-1.4v-1.4l.2-1.3v-8.6l-.2-.6v-.5l-.2-.5v-.4l-.2-.3v-.4l8.4-3.2v.4l.3.3.2.3.2.4.3.5.3.5.4.6.4.6.5.7.5.7.6.7.7.8.7.8.8.9.9.9.9.9,1,.9,1.1,1,1.2,1,1.2,1,1.3,1,1.4,1,.7.5,5.6-2.8v-8.9l-.2-1.4-.2-1.3-.2-1.2-.2-1.2-.2-1.1-.2-1-.2-.9-.2-.9-.2-.8-.2-.7-.2-.6-.2-.6-.2-.5-.2-.4-.2-.4v-.3l-.2-.2v-.2l7.7-4.8.2.3.2.3.3.3.3.3.4.4.4.4.5.5.5.5.6.5.7.6.7.6.8.6.9.7,1,.7,1,.7,1.1.7,1.2.7,1.2.7,1.3.7,1.4.8,1.5.8,1.6.8.8.4,5-3.8c0-.1-.2-1-.2-1l-.3-1.7-.3-1.6-.4-1.6-.4-1.5-.4-1.4-.4-1.3-.4-1.2-.4-1.2-.4-1.1-.4-1-.4-.9-.4-.9-.4-.8-.4-.7-.4-.7-.3-.6-.3-.5-.3-.5-.3-.4-.2-.3-.2-.3-.2-.2c0-.1,6.6-6.3,6.6-6.3l.2.3.2.2.3.2.4.3.4.3.5.3.6.4.6.4.7.4.8.4.8.5.9.5,1,.5,1.1.5,1.1.5,1.2.5,1.3.5,1.4.5,1.4.5,1.5.5,1.6.5,1.7.4.9.2,4.1-4.7-.3-.9-.6-1.6-.7-1.5-.7-1.5-.7-1.4-.7-1.3-.7-1.2-.6-1.1-.6-1.1-.6-1-.6-.9-.6-.8-.6-.8-.5-.7-.5-.6-.5-.6-.4-.5-.4-.5-.4-.4-.3-.3-.3-.3-.2-.2-.2-.2c0-.1,5.3-7.4,5.3-7.4h.4c0,.1.3.3.3.3l.4.2.4.2.5.2.6.2.6.3.7.3.8.3.8.3.9.3,1,.3,1.1.3,1.1.3,1.2.3,1.3.2,1.4.2,1.4.2,1.5.2,1.6.2h1.7c0,.1,1.7.2,1.7.2h1l3.1-5.4-.5-.9-.9-1.5-.9-1.4-.9-1.3-.9-1.2-.9-1.1-.9-1.1-.9-1-.8-.9-.8-.9-.8-.8-.7-.7-.7-.7-.7-.6-.6-.5-.6-.5-.5-.4-.5-.4-.4-.3-.4-.3-.3-.2-.3-.2h-.2l-.2-.2,3.7-8.2h.4l.3.2h.4l.4.2h.5c0,.1.6.2.6.2h.7c0,.1.7.2.7.2h.8l.9.2h1l1,.2h2.3c0,.1,1.2.1,1.2.1h4.2c0-.1,1.5-.1,1.5-.1l1.6-.3,1.7-.2,1.7-.2h.9v-.2l2-5.9-.6-.7-1.2-1.2-1.2-1.2-1.2-1.1-1.1-1-1.1-.9-1.1-.9-1-.8-1-.7-1-.7-.9-.6-.9-.6-.8-.5-.8-.5-.7-.4-.7-.4-.6-.3-.5-.3-.5-.2-.4-.2h-.4c0-.1-.3-.3-.3-.3h-.4c0-.1,2.1-8.9,2.1-8.9h6.9l1-.2,1.1-.2,1.2-.2,1.2-.2,1.3-.3,1.3-.3,1.4-.4,1.5-.4,1.5-.5,1.6-.5,1.6-.6.8-.3.8-6.2-.7-.6-1.4-1-1.4-.9-1.4-.8-1.3-.8-1.3-.7-1.2-.7-1.2-.6-1.1-.5-1.1-.5-1-.4-1-.4-.9-.3-.8-.3-.8-.3-.7-.2-.7-.2-.6-.2h-.5l-.5-.2h-1.2l.3-9h1.7ZM717.8,187c-2.4,0-4.3-1.9-4.3-4.3s1.9-4.3,4.3-4.3,4.3,1.9,4.3,4.3-1.9,4.3-4.3,4.3Z"/>
  <path class="st1" d="M558,314.3v-.8l.2-.8.2-.8.3-.8.3-.7.4-.7.5-.7.5-.6.6-.6.6-.5.7-.5.7-.4.7-.3.8-.3.8-.2h.8c0-.1.8-.2.8-.2l5.4-3.8v-4.6l-5.8-3.5h-1.6l-.8-.2-.8-.2-.8-.3-.7-.4-.7-.4-.7-.5-.6-.5-.6-.6-.5-.6-.4-.7-.4-.7-.3-.8-.2-.8-.2-.8v-2.4l.2-.8.2-.8.3-.8.3-.7.4-.7.5-.7.5-.6.6-.6.6-.5.7-.5.7-.4.7-.3.8-.3,4.2-5.1-1.3-4.4-6.3-1.9-.8.2h-.8l-.8.2h-1.6c0-.1-.8-.3-.8-.3l-.8-.2-.8-.3-.7-.4-.7-.4-.7-.5-.6-.6-.6-.6-.5-.7-.4-.7-.4-.7-.3-.8-.2-.8-.2-.8v-2.4l.2-.8.2-.8.3-.8.3-.7.4-.7.5-.7.5-.6.6-.6.6-.5.7-.5,2.8-6-2.4-3.9-6.6-.2-.7.4-.7.3-.8.3-.8.2h-.8c0,.1-.8.2-.8.2h-1.6l-.8-.3-.8-.2-.8-.3-.7-.4-.7-.4-.6-.5-.6-.6-.5-.6-.5-.7-.4-.7-.4-.7-.3-.8-.2-.8-.2-.8v-2.4l.2-.8.2-.8.3-.8.3-.7.4-.7.5-.7.5-.6,1.1-6.5-3.3-3.1-6.4,1.5-.6.6-.6.5-.7.5-.7.4-.7.3-.8.3-.8.2h-.8l-.8.2h-1.6l-.8-.3-.8-.2-.8-.3-.7-.4-.7-.4-.6-.5-.6-.6-.5-.6-.5-.7-.4-.7-.4-.7-.3-.8-.2-.8v-.8c-.1,0-.2-.8-.2-.8v-2.4l.4-.8.3-.8.4-.7-.6-6.6-4-2.2-5.8,3.1-.4.7-.5.7-.5.6-.6.6-.6.5-.7.5-.7.4-.8.3-.8.3-.8.2h-2.4l-.8-.2-.8-.2-.8-.3-.8-.3-.7-.4-.7-.5-.6-.5-.6-.6-.5-.6-.5-.7-.4-.7-.4-.7-.3-.8-.2-.8v-.8l-.2-.8v-1.6l.2-.8-2.3-6.2-4.4-1-4.8,4.5-.2.8-.3.8-.4.7-.4.7-.5.7-.5.6-.6.6-.6.5-.7.4-.7.4-.8.3-.8.2-.8.2h-.8c0,.1-.8.1-.8.1h-.8l-.8-.2-.8-.2-.8-.3-.7-.3-.7-.4-.7-.5-.6-.5-.6-.6-.5-.6-.5-.7-.4-.7-.3-.7-.3-.8-.2-.8v-.8l-.2-.8-3.8-5.4h-4.6l-3.5,5.8v1.6l-.2.8-.2.8-.3.8-.4.7-.4.7-.5.7-.5.6-.6.6-.6.5-.7.4-.7.4-.8.3-.8.2-.8.2h-1.6c0,.1-.8.1-.8.1l-.8-.2-.8-.2-.8-.3-.7-.3-.7-.4-.7-.5-.6-.5-.6-.6-.5-.6-.5-.7-.4-.7-.3-.7-.3-.8-5.1-4.2-4.4,1.3-1.9,6.3.2.8v.8c.1,0,.2.8.2.8v1.6l-.3.8-.2.8-.3.8-.4.7-.4.7-.5.7-.6.6-.6.6-.7.5-.7.4-.7.4-.8.3-.8.2-.8.2h-1.6c0,.1-.8.1-.8.1l-.8-.2-.8-.2-.8-.3-.7-.3-.7-.4-.7-.5-.6-.5-.6-.6-.5-.6-.5-.7-6-2.8-3.9,2.4-.2,6.6.4.7.3.7.3.8.2.8v.8l.2.8v1.6c-.1,0-.3.8-.3.8l-.2.8-.3.8-.4.7-.4.7-.5.6-.6.6-.6.5-.7.5-.7.4-.7.4-.8.3-.8.2-.8.2h-2.4l-.8-.2-.8-.2-.8-.3-.7-.3-.7-.4-.7-.5-.6-.5-6.5-1.1-3.1,3.3,1.5,6.4.6.6.5.6.5.7.4.7.3.7.3.8.2.8v.8c.1,0,.2.8.2.8v1.6l-.3.8-.2.8-.3.8-.4.7-.4.7h-.4l-.5.6-.6.6-.6.5-.7.5-.7.4-.7.4-.8.3-.8.2h-.8l-.8.2h-2.4l-.8-.4-.8-.3-.7-.4-6.6.6-2.2,4,3.1,5.8.7.4.7.5.6.5.6.6.5.6.5.7.4.7.3.8.3.8.2.8v.8c.1,0,.1.8.1.8v.8l-.2.8-.2.8-.3.8-.3.8-.4.7-.5.7-.5.6-.6.6-.6.5-.7.5-.7.4-.7.4-.8.3-.8.2h-.8c0,.1-.8.2-.8.2h-1.6l-.8-.2-6.2,2.3-1,4.4,4.5,4.8.8.2.8.3.7.4.7.4.7.5.6.5.6.6.5.6.4.7.4.7.3.8.2.8.2.8v2.4l-.2.8-.2.8-.3.8-.3.7-.4.7-.5.7-.5.6-.6.6-.6.5-.7.5-.7.4-.7.3-.8.3-.8.2h-.8c0,.1-.8.2-.8.2l-5.4,3.8v4.6c.1,0,5.8,3.5,5.8,3.5h1.6l.8.2.8.2.8.3.7.4.7.4.7.5.6.5.6.6.5.6.4.7.4.7.3.8.2.8.2.8v2.4l-.2.8-.2.8-.3.8-.3.7-.4.7-.5.7-.5.6-.6.6-.6.5-.7.5-.7.4-.7.3-.8.3-4.2,5.1,1.3,4.4,6.3,1.9.8-.2h.8l.8-.2h1.6c0,.1.8.3.8.3l.8.2.8.3.7.4.7.4.7.5.6.6.6.6.5.7.4.7.4.7.3.8.2.8.2.8v1.6c.1,0,.1.8.1.8l-.2.8-.2.8-.3.8-.3.7-.4.7-.5.7-.5.6-.6.6-.6.5-.7.5-2.8,6,2.4,3.9,6.6.2.7-.4.7-.3.8-.3.8-.2h.8c0-.1.8-.2.8-.2h1.6l.8.3.8.2.8.3.7.4.7.4.6.5.6.6.5.6.5.7.4.7.4.7.3.8.2.8.2.8v2.4l-.2.8-.2.8-.3.8-.3.7-.4.7-.5.7-.5.6-1.1,6.5,3.3,3.1,6.4-1.5.6-.6.6-.5.7-.5.7-.4.7-.3.8-.3.8-.2h.8l.8-.2h1.6c0,.1.8.3.8.3l.8.2.8.3.7.4.7.4.6.5.6.6.5.6.5.7.4.7.4.7.3.8.2.8v.8l.2.8v2.4c-.1,0-.4.8-.4.8l-.3.8-.4.7.6,6.6,4,2.2,5.8-3.1.4-.7.5-.7.5-.6.6-.6.6-.5.7-.5.7-.4.8-.3.8-.3.8-.2h2.4l.8.2.8.2.8.3.8.3.7.4.7.5.6.5.6.6.5.6.5.7.4.7.4.7.3.8.2.8v.8l.2.8v1.6l-.2.8,2.3,6.2,4.4,1,4.8-4.5.2-.8.3-.8.4-.7.4-.7.5-.7.5-.6.6-.6.6-.5.7-.4.7-.4.8-.3.8-.2.8-.2h.8c0-.1.8-.1.8-.1h.8l.8.2.8.2.8.3.7.3.7.4.7.5.6.5.6.6.5.6.5.7.4.7.3.7.3.8.2.8v.8l.2.8,3.8,5.4h4.6l3.5-5.8v-1.6l.2-.8.2-.8.3-.8.4-.7.4-.7.5-.7.5-.6.6-.6.6-.5.7-.4.7-.4.8-.3.8-.2.8-.2h1.6c0-.1.8-.1.8-.1l.8.2.8.2.8.3.7.3.7.4.7.5.6.5.6.6.5.6.5.7.4.7.3.7.3.8,5.1,4.2,4.4-1.3,1.9-6.3-.2-.8v-.8c-.1,0-.2-.8-.2-.8v-1.6l.3-.8.2-.8.3-.8.4-.7.4-.7.5-.7.6-.6.6-.6.7-.5.7-.4.7-.4.8-.3.8-.2.8-.2h2.4l.8.2.8.2.8.3.7.3.7.4.7.5.6.5.6.6.5.6.5.7,6,2.8,3.9-2.4.2-6.6-.4-.7-.3-.7-.3-.8-.2-.8v-.8l-.2-.8v-1.6l.3-.8.2-.8.3-.8.4-.7.4-.7.5-.6.6-.6.6-.5.7-.5.7-.4.7-.4.8-.3.8-.2.8-.2h2.4l.8.2.8.2.8.3.7.3.7.4.7.5.6.5,6.5,1.1,3.1-3.3-1.5-6.4-.6-.6-.5-.6-.5-.7-.4-.7-.3-.7-.3-.8-.2-.8v-.8l-.2-.8v-1.6l.3-.8.2-.8.3-.8.4-.7.4-.7.5-.6.6-.6.6-.5.7-.5.7-.4.7-.4.8-.3.8-.2h.8c0-.1.8-.2.8-.2h2.4l.8.4.8.3.7.4,6.6-.6,2.2-4-3.1-5.8-.7-.4-.7-.5-.6-.5-.6-.6-.5-.6-.5-.7-.4-.7-.3-.8-.3-.8-.2-.8v-2.4l.2-.8.2-.8.3-.8.3-.8.4-.7.5-.7.5-.6.6-.6.6-.5.7-.5.7-.4.7-.4.8-.3.8-.2h.8c0-.1.8-.2.8-.2h1.6l.8.2,6.2-2.3,1-4.4-4.5-4.8-.8-.2-.8-.3-.7-.4-.7-.4-.7-.5-.6-.5-.6-.6-.5-.6-.4-.7-.4-.7-.3-.8-.2-.8-.2-.8v-1.6h.2ZM453.2,307.2c-2.4,0-4.3-1.9-4.3-4.3s1.9-4.3,4.3-4.3,4.3,1.9,4.3,4.3-1.9,4.3-4.3,4.3Z"/>
  <path class="st1" d="M319,372.2h.9l.5-.2h.6c0-.1.6-.3.6-.3l.7-.2.8-.3.9-.3,1-.4,1.1-.4,1.1-.5,1.2-.6,1.3-.7,1.3-.7,1.4-.8,1.4-.9,1.5-1,1.5-1.1h.2v-.2l-.8-6.1h-.2l-1.8-.8-1.7-.6-1.6-.5-1.5-.5-1.5-.4-1.4-.3-1.3-.3-1.2-.2-1.1-.2h-1c0-.1-.9-.2-.9-.2h-4.5l-2.7.6-2.6-9.8,2.7-.8h.5c0-.1.4-.3.4-.3l.4-.2.5-.3.6-.3.7-.4.7-.5.8-.5.8-.6.9-.7,1-.8,1-.9,1-1,1.1-1.1,1.1-1.2,1.1-1.3,1.2-1.4,1.2-1.5.2-.2-2.3-5.7h-.2l-1.9-.2h-1.8l-1.7-.2h-5.8c0,.1-1.2.1-1.2.1l-1.1.3-1,.2-.9.2-.8.2-.7.2-.6.2-.5.2-.5.2h-.4l-.3.2h-.2l-2.5,1.4-5-8.8,2.3-1.5.2-.2.2-.2.3-.2.4-.3.4-.4.5-.5.5-.5.6-.6.6-.7.7-.8.7-.9.7-1,.7-1.1.8-1.2.8-1.3.8-1.4.8-1.5.8-1.6.8-1.7v-.2h0l-3.7-4.9h-.2l-1.9.3-1.8.3-1.7.4-1.6.4-1.5.4-1.4.4-1.3.4-1.2.4-1.1.4-1,.4-.9.4-.8.4-.7.4-.6.3-.5.3-.4.3-.3.2-.2.2h-.2v.2l-2.1,1.9-7.1-7.2,1.9-2v-.2c.1,0,.3-.2.3-.2l.2-.3.3-.4.3-.5.3-.6.4-.7.4-.8.4-.9.4-1,.4-1.1.4-1.2.4-1.3.4-1.4.4-1.5.4-1.6.4-1.7.3-1.8.3-1.9v-.2l-4.9-3.8h-.2l-1.7.9-1.6.8-1.5.8-1.4.8-1.3.8-1.2.8-1.1.7-1,.7-.9.7-.8.7-.7.6-.6.6-.6.5-.5.5-.4.4-.3.4-.2.3-.2.2v.2h-.2l-1.5,2.3-8.7-5.1,1.3-2.5v-.6l.2-.4.2-.5.2-.5.2-.6.2-.7.2-.8.2-.9.2-1v-1.1l.3-1.2v-1.3l.2-1.4v-4.8l-.2-1.8-.2-1.9v-.2l-5.7-2.4h-.2c0,.1-1.5,1.3-1.5,1.3l-1.4,1.2-1.3,1.1-1.2,1.1-1.1,1.1-1,1-.9,1-.8.9-.7.9-.6.8-.5.8-.5.7-.4.7-.3.6-.3.5-.2.4-.2.4v.3c-.1,0-.2.2-.2.2l-.9,2.7-9.7-2.7.6-2.7v-6.4c-.1,0-.3-1.1-.3-1.1l-.2-1.2-.3-1.3-.3-1.4-.4-1.5-.4-1.5-.5-1.6-.6-1.7-.7-1.8v-.2h-.1l-6.1-.8v.2c-.1,0-1.3,1.5-1.3,1.5l-1,1.5-.9,1.4-.8,1.4-.8,1.3-.7,1.3-.6,1.2-.5,1.1-.4,1-.4,1-.3.9-.3.8-.2.7-.2.6v.6l-.2.5v.7c-.1,0-.1.2-.1.2v2.9h-10.2v-2.8h0v-1l-.2-.5v-.6l-.3-.6-.2-.7-.3-.8-.3-.9-.4-1-.4-1.1-.5-1.1-.6-1.2-.7-1.3-.7-1.3-.8-1.4-.9-1.4-1-1.5-1.1-1.5v-.2h-.2l-6.1.8v.2l-.8,1.8-.6,1.7-.5,1.6-.5,1.5-.4,1.5-.3,1.4-.3,1.3-.2,1.2-.2,1.1v1c-.1,0-.2.9-.2.9v4.4c0,.1.6,2.8.6,2.8l-9.8,2.6-.8-2.7v-.6l-.3-.4-.2-.4-.3-.5-.3-.6-.4-.7-.5-.7-.5-.8-.6-.8-.7-.9-.8-1-.9-1-1-1-1.1-1.1-1.2-1.1-1.3-1.1-1.4-1.2-1.5-1.2-.2-.2-5.7,2.3v.2l-.2,1.9v1.8c-.1,0-.2,1.7-.2,1.7v5.8c.1,0,.1,1.2.1,1.2l.3,1.1.2,1,.2.9.2.8.2.7.2.6.2.5.2.5v.4c.1,0,.2.3.2.3v.2h0l1.3,2.5-8.8,5-1.5-2.3v-.2l-.3-.2-.2-.3-.3-.4-.4-.4-.5-.5-.5-.5-.6-.6-.7-.6-.8-.7-.9-.7-1-.7-1.1-.7-1.2-.8-1.3-.8-1.4-.8-1.5-.8-1.6-.8-1.7-.8h-.2c0-.1-4.9,3.6-4.9,3.6v.2l.3,1.9.3,1.8.4,1.7.4,1.6.4,1.5.4,1.4.4,1.3.4,1.2.4,1.1.4,1,.4.9.4.8.4.7.3.6.3.5.3.4.2.3.2.2v.2h.2l1.9,2.1-7.2,7.1-2-1.9-.2-.2-.2-.2-.3-.2-.4-.3-.5-.3-.6-.3-.7-.4-.8-.4-.9-.4-1-.4-1.1-.4-1.2-.4-1.3-.4-1.4-.4-1.5-.4-1.6-.4-1.7-.4-1.8-.3-1.9-.3h-.2l-3.8,4.9v.2l.9,1.7.8,1.6.8,1.5.8,1.4.8,1.3.8,1.2.7,1.1.7,1,.7.9.7.8.6.7.6.6.5.6.5.5.4.4.4.3.3.2.2.2h.2v.2l2.3,1.5-5.1,8.7-2.5-1.3h-.2c0-.1-.3-.1-.3-.1l-.4-.2-.5-.2-.5-.2-.6-.2-.7-.2-.8-.2-.9-.2-1-.2h-1.1l-1.2-.3h-1.3l-1.4-.2h-4.8l-1.8.2-1.9.2h-.2l-2.4,5.7v.2l1.3,1.5,1.2,1.4,1.1,1.3,1.1,1.2,1.1,1.1,1,1,1,.9.9.8.9.7.8.6.8.5.7.5.7.4.6.3.5.3.4.2.4.2h.3l.2.2,2.6.9-2.7,9.7-2.7-.6h-6.4c0,.1-1.1.3-1.1.3l-1.2.2-1.3.3-1.4.3-1.5.4-1.5.4-1.6.5-1.7.6-1.8.7h-.2l-.8,6.2h.2l1.5,1.3,1.5,1,1.4.9,1.4.8,1.3.8,1.3.7,1.2.6,1.1.5,1,.4,1,.4.9.3.8.3.7.2.6.2h.6l.5.2h3.8v10.2h-2.8c0,.1-.9.1-.9.1l-.5.2h-.6l-.6.3-.7.2-.8.3-.9.3-1,.4-1.1.4-1.1.5-1.2.6-1.3.7-1.3.7-1.4.8-1.4.9-1.5,1-1.5,1.1h-.2v.2l.8,6.1h.2l1.8.8,1.7.6,1.6.5,1.5.5,1.5.4,1.4.3,1.3.3,1.2.2,1.1.2h1l.9.2h4.5l2.7-.6,2.6,9.8-2.7.8h-.2c0,.1-.3.1-.3.1l-.4.3-.4.2-.5.3-.6.3-.7.4-.7.5-.8.5-.8.6-.9.7-1,.8-1,.9-1,1-1.1,1.1-1.1,1.2-1.1,1.3-1.2,1.4-1.2,1.5-.2.2,2.3,5.7h.2l1.9.2h1.8c0,.1,1.7.2,1.7.2h7c0-.1,1.1-.3,1.1-.3l1-.2.9-.2.8-.2.7-.2.6-.2.5-.2.5-.2h.4c0-.1.3-.2.3-.2h.2c0-.1,2.5-1.4,2.5-1.4l5,8.8-2.3,1.5-.2.2-.2.2-.3.2-.4.3-.4.4-.5.5-.5.5-.6.6-.6.7-.7.8-.7.9-.7,1-.7,1.1-.8,1.2-.8,1.3-.8,1.4-.8,1.5-.8,1.6-.8,1.7v.2l3.7,4.9h.2l1.9-.3,1.8-.3,1.7-.4,1.6-.4,1.5-.4,1.4-.4,1.3-.4,1.2-.4,1.1-.4,1-.4.9-.4.8-.4.7-.4.6-.3.5-.3.4-.3.3-.2.2-.2h.2v-.2l2.1-1.9,7.1,7.2-1.9,2v.2c-.1,0-.3.2-.3.2l-.2.3-.3.4-.3.5-.3.6-.4.7-.4.8-.4.9-.4,1-.4,1.1-.4,1.2-.4,1.3-.4,1.4-.4,1.5-.4,1.6-.4,1.7-.3,1.8-.3,1.9v.2l4.9,3.8h.2l1.7-.9,1.6-.8,1.5-.8,1.4-.8,1.3-.8,1.2-.8,1.1-.7,1-.7.9-.7.8-.7.7-.6.6-.6.6-.5.5-.5.4-.4.3-.4.2-.3.2-.2v-.2h.2l1.5-2.3,8.7,5.1-1.3,2.5v.6l-.2.4-.2.5-.2.5-.2.6-.2.7-.2.8-.2.9-.2,1v1.1l-.3,1.2v1.3l-.2,1.4v4.8l.2,1.8.2,1.9v.2l5.7,2.4h.2l1.5-1.3,1.4-1.2,1.3-1.1,1.2-1.1,1.1-1.1,1-1,.9-1,.8-.9.7-.9.6-.8.5-.8.5-.7.4-.7.3-.6.3-.5.2-.4.2-.4v-.3l.2-.2.9-2.7,9.7,2.7-.6,2.7v5.4c.1,0,.1,1,.1,1l.3,1.1.2,1.2.3,1.3.3,1.4.4,1.5.4,1.5.5,1.6.6,1.7.7,1.8v.2h.1l6.1.8v-.2c.1,0,1.3-1.5,1.3-1.5l1-1.5.9-1.4.8-1.4.8-1.3.7-1.3.6-1.2.5-1.1.4-1,.4-1,.3-.9.3-.8.2-.7.2-.6v-.6l.2-.5v-3.8h10.2v2.8h0v.9l.2.5v.6c.1,0,.3.6.3.6l.2.7.3.8.3.9.4,1,.4,1.1.5,1.1.6,1.2.7,1.3.7,1.3.8,1.4.9,1.4,1,1.5,1.1,1.5v.2h.2l6.1-.8v-.2l.8-1.8.6-1.7.5-1.6.5-1.5.4-1.5.3-1.4.3-1.3.2-1.2.2-1.1v-1c.1,0,.2-.9.2-.9v-4.4c0-.1-.6-2.8-.6-2.8l9.6-2.6.8,2.7v.6l.3.4.2.4.3.5.3.6.4.7.5.7.5.8.6.8.7.9.8,1,.9,1,1,1,1.1,1.1,1.2,1.1,1.3,1.1,1.4,1.2,1.5,1.2.2.2,5.7-2.3v-.2l.2-1.9v-1.8c.1,0,.2-1.7.2-1.7v-7c-.1,0-.3-1.1-.3-1.1l-.2-1-.2-.9-.2-.8-.2-.7-.2-.6-.2-.5-.2-.5v-.4c-.1,0-.2-.3-.2-.3v-.2h-.1l-1.3-2.5,8.8-5,1.5,2.3v.2c.1,0,.3.2.3.2l.2.3.3.4.4.4.5.5.5.5.6.6.7.6.8.7.9.7,1,.7,1.1.7,1.2.8,1.3.8,1.4.8,1.5.8,1.6.8,1.7.8h.2l4.9-3.6v-.2l-.3-1.9-.3-1.8-.4-1.7-.4-1.6-.4-1.5-.4-1.4-.4-1.3-.4-1.2-.4-1.1-.4-1-.4-.9-.4-.8-.4-.7-.3-.6-.3-.5-.3-.4-.2-.3-.2-.2v-.2h-.2l-1.9-2.1,7.2-7.1,2,1.9.2.2.2.2.3.2.4.3.5.3.6.3.7.4.8.4.9.4,1,.4,1.1.4,1.2.4,1.3.4,1.4.4,1.5.4,1.6.4,1.7.4,1.8.3,1.9.3h.2l3.8-4.9v-.2l-.9-1.7-.8-1.6-.8-1.5-.8-1.4-.8-1.3-.8-1.2-.7-1.1-.7-1-.7-.9-.7-.8-.6-.7-.6-.6-.5-.6-.5-.5-.4-.4-.4-.3-.3-.2-.2-.2h-.2v-.2l-2.3-1.5,5.1-8.7,2.5,1.3h.5c0,.1.4.2.4.2l.5.2.5.2.6.2.7.2.8.2.9.2,1,.2h1.1c0,.1,1.2.3,1.2.3h1.3l1.4.2h4.8l1.8-.2,1.9-.2h.2l2.4-5.7v-.2c-.1,0-1.3-1.5-1.3-1.5l-1.2-1.4-1.1-1.3-1.1-1.2-1.1-1.1-1-1-1-.9-.9-.8-.9-.7-.8-.6-.8-.5-.7-.5-.7-.4-.6-.3-.5-.3-.4-.2-.4-.2h-.3c0-.1-.2-.2-.2-.2l-2.6-.9,2.7-9.7,2.7.6h5.4c0-.1,1-.1,1-.1l1.1-.3,1.2-.2,1.3-.3,1.4-.3,1.5-.4,1.5-.4,1.6-.5,1.7-.6,1.8-.7h.2c0-.1.8-6.2.8-6.2h-.2c0-.1-1.5-1.3-1.5-1.3l-1.5-1-1.4-.9-1.4-.8-1.3-.8-1.3-.7-1.2-.6-1.1-.5-1-.4-1-.4-.9-.3-.8-.3-.7-.2-.6-.2h-.6c0-.1-.5-.2-.5-.2h-.7c0-.1-.2-.1-.2-.1h-2.9v-10.2h3ZM208.3,380.8c-2.4,0-4.3-1.9-4.3-4.3s1.9-4.3,4.3-4.3,4.3,1.9,4.3,4.3-1.9,4.3-4.3,4.3Z"/>
  <path class="st1" d="M122.1,245.7l-.6-.4-.6-.5-.5-.5-.5-.5-.5-.6-.4-.6-.4-.7-.3-.7-.2-.7-.2-.7v-.7l-.2-.7v-2.1l.3-.7.2-.7.3-.7.3-.7.4-.6.5-.6.5-.6.5-.5.6-.5.6-.4.6-.4.7-.3.7-.3.7-.2h.7l.7-.2,6.2-3.8-.3-4.9-6.7-3h-2.1c0-.1-.7-.3-.7-.3l-.7-.2-.7-.3-.7-.3-.6-.4-.6-.4-.6-.5-.5-.5-.5-.6-.4-.6-.4-.6-.3-.7-.3-.7-.2-.7v-.7l-.2-.7v-2.1l.2-.7.2-.7.3-.7.3-.7.4-.6.4-.6.5-.6.5-.5.6-.5.6-.4,3.5-6.4-2.7-4.1-7.3.7-.6.4-.7.3-.7.3-.7.2-.7.2h-3.5c0-.1-.7-.3-.7-.3l-.7-.3-.7-.3-.6-.4-.6-.4-.6-.5-.5-.5-.5-.6-.4-.6-.4-.6-.3-.7-.3-.7-.2-.7-.2-.7v-.7l-.2-.7v-2.1l.3-.7.2-.7.3-.7-.2-7.3-4.4-2.2-6,4.3-.4.7-.4.6-.5.6-.5.5-.5.5-.6.5-.6.4-.7.4-.7.3-.7.2-.7.2h-.7c0,.1-.7.2-.7.2h-2.1c0-.1-.7-.3-.7-.3l-.7-.2-.7-.3-.7-.3-.6-.4-.6-.5-.6-.5-.5-.5-.5-.6-.4-.6-.4-.6-.3-.7-.3-.7-.2-.7v-.7l-.2-.7-3.8-6.2-4.9.3-3,6.7v2.1l-.3.7-.2.7-.3.7-.3.7-.4.6-.4.6-.5.6-.5.5-.6.5-.6.4-.6.4-.7.3-.7.3-.7.2h-.7c0,.1-.7.2-.7.2h-2.1l-.7-.2-.7-.2-.7-.3-.7-.3-.6-.4-.6-.4-.6-.5-.5-.5-.5-.6-.4-.6-6.4-3.5-4.1,2.7.7,7.3.4.6.3.7.3.7.2.7.2.7v3.5l-.3.7-.3.7-.3.7-.4.6-.4.6-.5.6-.5.5-.6.5-.6.4-.6.4-.7.3-.7.3-.7.2-.7.2h-.7l-.7.2h-2.1c0-.1-.7-.3-.7-.3l-.7-.2-.7-.3-7.3.2-2.2,4.4,4.3,6,.7.4.6.4.6.5.5.5.5.5.5.6.4.6.4.7.3.7.2.7.2.7v.7l.2.7v2.1c-.1,0-.3.7-.3.7l-.2.7-.3.7-.3.7-.4.6-.5.6-.5.6-.5.5-.6.5-.6.4-.6.4-.7.3-.7.3-.7.2h-.7c0,.1-.7.2-.7.2l-6.2,3.8.3,4.9,6.7,3h2.1l.7.3.7.2.7.3.7.3.6.4.6.4.6.5.5.5.5.6.4.6.4.6.3.7.3.7.2.7v.7l.2.7v2.1l-.2.7-.2.7-.3.7-.3.7-.4.6-.4.6-.5.6-.5.5-.6.5-.6.4-3.5,6.4,2.7,4.1,7.3-.7.6-.4.7-.3.7-.3.7-.2.7-.2h.7c0-.1.7-.1.7-.1h1.4c0,.1.7.1.7.1l.7.3.7.3.7.3.6.4.6.4.6.5.5.5.5.6.4.6.4.6.3.7.3.7.2.7.2.7v.7l.2.7v2.1l-.3.7-.2.7-.3.7.2,7.3,4.4,2.2,6-4.3.4-.7.4-.6.5-.6.5-.5.5-.5.6-.5.6-.4.7-.4.7-.3.7-.2.7-.2h.7c0-.1.7-.2.7-.2h2.1l.7.3.7.2.7.3.7.3.6.4.6.5.6.5.5.5.5.6.4.6.4.6.3.7.3.7.2.7v.7l.2.7,3.8,6.2,4.9-.3,3-6.7v-2.1l.3-.7.2-.7.3-.7.3-.7.4-.6.4-.6.5-.6.5-.5.6-.5.6-.4.6-.4.7-.3.7-.3h0l.7-.2h.7c0-.1.7-.2.7-.2h2.1l.7.2.7.2.7.3.7.3.6.4.6.4.6.5.5.5.5.6.4.6,6.4,3.5,4.1-2.7-.7-7.3-.4-.6-.3-.7-.3-.7-.2-.7-.2-.7v-3.5l.3-.7.3-.7.3-.7.4-.6.4-.6.5-.6.5-.5.6-.5.6-.4.6-.4.7-.3.7-.3.7-.2.7-.2h.7l.7-.2h2.1c0,.1.7.3.7.3l.7.2.7.3,7.3-.2,2.2-4.4-4.3-6-.7-.4h0ZM70.6,230.5c-2.4,0-4.3-1.9-4.3-4.3s1.9-4.3,4.3-4.3,4.3,1.9,4.3,4.3-1.9,4.3-4.3,4.3Z"/>
  <path class="st1" d="M141.8,80.5l-.5-.4-1-.6-1.9-1.1-1.8-.9-1.7-.7-1.6-.6-1.4-.4-1.2-.3-1.1-.2h-.9l-.7-.2h-.9l-7.1,1.1-3-10.8,6.6-2.7.3-.2.4-.3.6-.4.7-.6.8-.7.9-.9,1-1.1,1-1.3,1.1-1.5,1.1-1.7,1.1-2,.5-1.1.3-.6v-.2l-2.5-4.2h-6.2l-1.8.3-1.6.3-1.4.3-1.2.4-1,.4-.8.3-.6.3-.5.3-.3.2-5.6,4.6-8-7.9,4.4-5.6.2-.4.3-.5.3-.6.3-.8.3-1,.3-1.2.3-1.4.2-1.6.2-1.8v-6.2l-4.2-2.4-.5.3-1.1.5-1.9,1.1-1.7,1.1-1.5,1.1-1.3,1.1-1.1,1-.9.9-.7.8-.5.7-.4.6-.3.5-.2.3-2.6,6.8-10.8-2.8,1-7.1v-2.6l-.3-1.1-.3-1.2-.5-1.4-.6-1.5-.8-1.7-1-1.8-1.2-1.9-.7-1-.4-.5c0-.1-4.8-.1-4.8-.1,0,.1-.3.6-.3.6l-.6,1-1.1,1.9-.9,1.8-.7,1.7-.6,1.6-.4,1.4-.3,1.2-.2,1.1v.9l-.2.7v.8c0,.1,1.1,7.2,1.1,7.2l-10.8,3-2.7-6.6-.2-.4-.3-.4-.4-.6-.6-.7-.7-.8-.9-.9-1.1-1-1.3-1-1.5-1.1-1.7-1.1-2-1.1-1.1-.5-.6-.3-4.2,2.5v6.2l.3,1.8.3,1.6.3,1.4.4,1.2.4,1,.3.8.3.6.3.5.2.3,4.5,5.7-7.9,8-5.6-4.4h-.1l-.3-.3-.5-.3-.6-.3-.8-.3-1-.3-1.2-.3-1.4-.3-1.6-.2-1.8-.2h-6.2l-2.4,4.2.3.7.5,1.1,1.1,1.9,1.1,1.7,1.1,1.5,1.1,1.3,1,1.1.9.9.8.7.7.5.6.4.5.3.3.2h0l6.7,2.6-2.8,10.8-7.1-1h-2.6l-1.1.3-1.2.3-1.4.5-1.5.6-1.7.8-1.8,1-1.9,1.2-1,.7-.5.4v4.9l.5.4,1,.6,1.9,1.1,1.8.9,1.7.7,1.6.6,1.4.4,1.2.3,1.1.2h.9l.7.2h.9l7.1-1.1,3,10.8-6.6,2.7h-.1l-.3.2-.4.3-.6.4-.7.6-.8.7-.9.9-1,1.1-1,1.3-1.1,1.5-1.1,1.7-1.1,2-.5,1.1-.3.6v.2l2.5,4.2h6.2l1.8-.3,1.6-.3,1.4-.3,1.2-.4,1-.4.8-.3.6-.3.5-.3.3-.2h0l5.6-4.6,8,7.9-4.4,5.6-.2.4-.3.5-.3.6-.3.8-.3,1-.3,1.2-.3,1.4-.2,1.6-.2,1.8v6.2l4.2,2.4.5-.3,1.1-.5,1.9-1.1,1.7-1.1,1.5-1.1,1.3-1.1,1.1-1,.9-.9.7-.8.5-.7.4-.6.3-.5.2-.3c0-.1,2.6-6.8,2.6-6.8l10.8,2.8-1,7.1v2.6l.3,1.1.3,1.2.5,1.4.6,1.5.8,1.7,1,1.8,1.2,1.9.7,1,.4.5h4.8l.3-.6.6-1,1.1-1.9.9-1.8.7-1.7.6-1.6.4-1.4.3-1.2.2-1.1v-.9l.2-.7v-.8c0-.1-1.1-7.2-1.1-7.2l10.8-3,2.7,6.6c0,.1.2.4.2.4l.3.4.4.6.6.7.7.8.9.9,1.1,1,1.3,1,1.5,1.1,1.7,1.1,2,1.1,1.1.5.6.3,4.2-2.5v-6.2l-.3-1.8-.3-1.6-.3-1.4-.4-1.2-.4-1-.3-.8-.3-.6-.3-.5-.2-.3-4.5-5.7,7.9-8,5.6,4.4.3.3.5.3.6.3.8.3,1,.3,1.2.3,1.4.3,1.6.2,1.8.2h6.2l2.4-4.2-.3-.7-.5-1.1-1.1-1.9-1.1-1.7-1.1-1.5-1.1-1.3-1-1.1-.9-.9-.8-.7-.7-.5-.6-.4-.5-.3-.3-.2-6.7-2.6,2.8-10.8,7.1,1h2.6l1.1-.3,1.2-.3,1.4-.5,1.5-.6,1.7-.8,1.8-1,1.9-1.2,1-.7.5-.4h.1v-4.9h-.1.2ZM72.7,88.1c-2.4,0-4.3-1.9-4.3-4.3s1.9-4.3,4.3-4.3,4.3,1.9,4.3,4.3-1.9,4.3-4.3,4.3Z"/>
  <g id="annotations">
    <g>
      <polyline class="st0" points="36.9 101.8 44.7 97.9 43.4 100.1 42.2 102.4 41.2 104.8 40.3 107.3 47.3 102.3"/>
      <polyline class="st0" points="36.5 92.1 36.8 93.5 37.3 95 37.7 96.4 38.3 97.8"/>
      <polyline class="st0" points="39.3 91.4 39.6 92.8 40 94.1 40.4 95.4 40.9 96.7"/>
      <polyline class="st0" points="34.5 89.3 32.9 87.9 41.5 87.1"/>
      <polyline class="st0" points="41.4 85.8 41.5 87.1 41.6 88.3"/>
      <polyline class="st0" points="41.8 78.2 41.6 79.5 41.5 80.7 41.4 82 41.3 83.3 38.4 83.2 37 81.7 37.2 80.3 37.3 78.9 36.1 77.2 34.7 76.9 33 78.3 32.9 79.9 32.7 81.5 34.1 83.1"/>
      <polyline class="st0" points="44.6 69.8 45.2 68.7 45.8 67.6 46.5 66.5 46 64.7 41.3 61.3 39.2 61.8 38.4 63.2 37.6 64.6 36.8 66"/>
      <line class="st0" x1="37.6" y1="64.6" x2="45.2" y2="68.7"/>
      <polyline class="st0" points="48.6 55.5 47.4 56.5 46.4 57.6 45.3 58.7 44.3 59.8"/>
      <polyline class="st0" points="50.4 57.7 49.4 58.6 48.4 59.6 47.5 60.6 46.5 61.6"/>
      <polyline class="st0" points="58.6 55.7 57.5 56.3 56.4 56.9 55.3 57.6 54.3 58.3 52.6 56 52.9 54 54.2 53.3 55.4 52.5 56 50.6 55.4 49.3 53.3 48.8 51.9 49.6 50.6 50.4 50.1 52.5"/>
      <polyline class="st0" points="65.1 50.4 63.8 50.7 62.5 51.1 61.1 51.5 59.8 52 60.5 49.7 61.3 47.4 62.3 45.1 64.5 53.5"/>
      <line class="st0" x1="68.2" y1="52.7" x2="67.4" y2="47"/>
      <polyline class="st0" points="67.6 48.4 68.9 46.8 70.5 48.1 71.9 46.6 73.4 48.1 73.3 52.4"/>
      <line class="st0" x1="70.6" y1="49.6" x2="70.5" y2="48.1"/>
      <line class="st0" x1="75.8" y1="52.5" x2="76.4" y2="46.8"/>
      <polyline class="st0" points="76.2 48.2 77.9 47 79.1 48.6 80.8 47.5 81.9 49.2 80.8 53.4"/>
      <line class="st0" x1="78.8" y1="50" x2="79.1" y2="48.6"/>
      <polyline class="st0" points="91.2 53.2 92.4 53.9 93.6 54.7 94.7 55.6 96.8 55.4 97.7 54.3 97.4 52.2 96.1 51.2 94.8 50.3 93.4 49.5 88.9 56.9"/>
      <polyline class="st0" points="94.9 61.5 97 59.5 100 58.5 103.2 57.8 102 60.8 100.5 63.7 98.2 65.4"/>
      <polyline class="st0" points="97 59.5 97.9 60.5 98.8 61.5 99.7 62.6 100.5 63.7"/>
      <polyline class="st0" points="107.2 69.8 106.6 68.5 106 67.1 105.3 65.8 104.5 64.5"/>
      <polyline class="st0" points="104.5 70.9 104 69.6 103.4 68.4 102.8 67.2 102.1 66"/>
      <polyline class="st0" points="103.9 79.3 103.7 78.1 103.4 76.8 103.1 75.6 102.7 74.4 105.5 73.5 107.3 74.5 107.6 75.9 107.9 77.3 109.6 78.5 111 78.3 112.1 76.5 111.8 74.9 111.4 73.3 109.6 72.2"/>
      <polyline class="st0" points="104 86.9 104.1 85.6 104.2 84.4 104.2 83.1 104.1 81.8 107 81.7 108.5 83 108.5 84.4 108.4 85.9 109.8 87.5 111.2 87.6 112.8 86.1 112.8 84.5 112.8 82.9 111.3 81.4"/>
    </g>
    <g>
      <polyline class="st0" points="772.4 69.2 766.6 81.4 766 77.4 765.4 73.4 764.6 69.4 763.7 65.4 758.8 78"/>
      <polyline class="st0" points="782.5 79.9 780.5 78.7 778.5 77.5 776.5 76.4 774.5 75.3"/>
      <polyline class="st0" points="780.1 83.7 778.2 82.5 776.3 81.4 774.4 80.3 772.4 79.3"/>
      <polyline class="st0" points="787.6 80.5 790.8 80 792.7 81.4 794.6 82.9 795 86.1 793.6 87.8 790.5 88.2 790.8 91.3 789.4 93.1 786.4 93.6 784.7 92.3 783 91 782.5 88"/>
      <line class="st0" x1="788.7" y1="86.9" x2="790.5" y2="88.2"/>
      <polyline class="st0" points="797.5 103.3 796 101.9 794.5 100.4 792.9 99 791.3 97.6 794.2 94.2 797.4 93.9 799 95.5 800.7 97 803.9 97 805.4 95.4 805.4 92.2 803.6 90.5 801.9 88.9 798.6 89.1"/>
      <polyline class="st0" points="807.2 114.5 808.5 116.2 809.8 117.9 811 119.7 814 120.2 821.5 115.3 822.1 112.1 820.8 110.1 819.4 108.2 818 106.3"/>
      <line class="st0" x1="819.4" y1="108.2" x2="808.5" y2="116.2"/>
      <polyline class="st0" points="826.5 128.4 825.4 126.4 824.4 124.4 823.2 122.4 822.1 120.4"/>
      <polyline class="st0" points="822.5 130.4 821.5 128.5 820.4 126.5 819.4 124.6 818.2 122.7"/>
      <polyline class="st0" points="826.4 133.5 827.3 135.5 828.2 137.6 829 139.7 827.7 142.6 825.6 143.3 822.7 142.1 822 140.2 821.1 138.2 822.3 135.3 828.5 132.6 831.4 133.8 834.4 135.1 835.3 137.3"/>
      <polyline class="st0" points="831.5 155.2 831 153.1 830.4 150.9 829.8 148.8 829.1 146.7 832.7 148 836.2 149.3 839.7 150.8 826.6 154.2"/>
      <line class="st0" x1="828.1" y1="160.4" x2="836.9" y2="158.6"/>
      <polyline class="st0" points="834.7 159.1 837.3 160.9 835.5 163.5 838.1 165.4 836.1 167.9 829.4 168.8"/>
      <line class="st0" x1="833.3" y1="163.8" x2="835.5" y2="163.5"/>
      <line class="st0" x1="829.9" y1="173" x2="838.8" y2="172.2"/>
      <polyline class="st0" points="836.6 172.4 839 174.5 836.9 176.9 839.3 179.1 837.1 181.4 830.3 181.4"/>
      <line class="st0" x1="834.7" y1="177" x2="836.9" y2="176.9"/>
      <polyline class="st0" points="836.2 197 835.9 199.3 835.6 201.5 835.2 203.7 837 206.4 839.2 206.8 841.8 204.9 842.2 202.6 842.6 200.2 842.9 197.9 829.5 196.2"/>
      <polyline class="st0" points="827.3 208.7 831.7 209.8 835.5 213 839.2 216.5 834.2 217.4 829.3 218.3 825 216.9"/>
      <polyline class="st0" points="831.7 209.8 831.1 211.9 830.6 214.1 829.9 216.2 829.3 218.3"/>
      <polyline class="st0" points="828.7 232.5 829.6 230.4 830.5 228.2 831.3 226.1 832.1 224"/>
      <polyline class="st0" points="824.6 230.6 825.5 228.6 826.3 226.6 827.1 224.5 827.9 222.4"/>
      <polyline class="st0" points="814.6 240.1 815.7 238.2 816.7 236.4 817.7 234.5 818.7 232.6 822.7 234.6 823.7 237.6 822.7 239.6 821.6 241.5 822.4 244.6 824.3 245.8 827.4 244.9 828.6 242.8 829.7 240.7 828.7 237.6"/>
      <polyline class="st0" points="807.6 250.6 808.8 248.9 810.1 247.2 811.2 245.4 812.4 243.7 816.2 246.1 816.8 249.2 815.6 251 814.3 252.9 814.7 256 816.5 257.4 819.7 256.8 821.1 254.9 822.4 252.9 821.8 249.7"/>
    </g>
    <g>
      <polyline class="st0" points="288.9 420.6 277.2 414.2 281.2 413.9 285.1 413.4 289.1 412.8 293 412 280.8 406.8"/>
      <polyline class="st0" points="277.6 429.8 278.9 428 280.2 426.2 281.5 424.3 282.7 422.4"/>
      <polyline class="st0" points="274.1 427.1 275.4 425.4 276.6 423.6 277.8 421.9 279 420"/>
      <polyline class="st0" points="262.4 433.5 263.8 432.1 265.3 430.6 266.6 429.1 268 427.6 271.3 430.5 271.6 433.6 270.1 435.2 268.5 436.8 268.5 439.9 270 441.5 273.2 441.5 274.9 439.8 276.5 438 276.4 434.8"/>
      <polyline class="st0" points="255.4 444.8 257.1 443.6 258.9 442.3 260.6 441 262.2 439.6 262.4 443.3 262.5 447 262.3 450.8 254.5 440"/>
      <polyline class="st0" points="240.4 448.2 238.6 449 236.7 449.8 234.8 450.5 233.5 453.2 236.3 461.6 239.2 463 241.5 462.1 243.7 461.3 245.9 460.3"/>
      <line class="st0" x1="243.7" y1="461.3" x2="238.6" y2="449"/>
      <polyline class="st0" points="222.4 462.8 224.6 462.4 226.8 461.9 229 461.4 231.3 460.8"/>
      <polyline class="st0" points="221.7 458.4 223.8 458 225.9 457.6 228 457.1 230.1 456.6"/>
      <polyline class="st0" points="208.8 459.5 210.9 459.5 213.1 459.4 215.3 459.2 217.4 459 215.5 462.1 213.4 465.2 211.2 468.3 210.8 455"/>
      <polyline class="st0" points="202.2 461.5 204.5 459.4 204.6 457.2 202.7 454.9 200.6 454.7 198.6 454.5 196.2 456.4 195.9 458.6 197.8 461.1 200 461.3 202.2 461.5 204.3 463.8 204.2 466 201.7 468.1 199.3 467.9 197 467.6 194.9 465.1 195.3 462.9 197.8 461.1"/>
      <line class="st0" x1="192.6" y1="453.5" x2="190.8" y2="462.1"/>
      <polyline class="st0" points="191.2 460 188.6 461.7 186.9 459 184.2 460.5 182.7 457.8 184.7 451.4"/>
      <line class="st0" x1="187.5" y1="456.8" x2="186.9" y2="459"/>
      <line class="st0" x1="180.8" y1="450.1" x2="177.7" y2="458.4"/>
      <polyline class="st0" points="178.5 456.3 175.6 457.6 174.4 454.7 171.4 455.8 170.4 452.8 173.3 446.9"/>
      <line class="st0" x1="175.3" y1="452.6" x2="174.4" y2="454.7"/>
      <polyline class="st0" points="157.2 444.7 155.5 443.3 153.7 441.9 152 440.5 148.9 440.7 147.4 442.3 147.7 445.5 149.5 447 151.3 448.5 153.2 450 161.2 439.4"/>
      <polyline class="st0" points="152 431.3 148.8 434.4 144.1 435.8 139.2 437.1 141.1 432.4 143.1 427.9 146.6 425.2"/>
      <polyline class="st0" points="148.8 434.4 147.3 432.8 145.9 431.2 144.5 429.6 143.1 427.9"/>
      <polyline class="st0" points="132.1 419.4 133.2 421.3 134.4 423.3 135.7 425.2 137 427"/>
      <polyline class="st0" points="136 417.2 137 419.1 138.2 420.9 139.3 422.7 140.6 424.5"/>
      <polyline class="st0" points="134.7 403.9 135.4 405.8 136.2 407.7 137 409.6 137.9 411.4 133.9 413.4 131 412.4 130.1 410.4 129.2 408.3 126.4 407 124.3 407.8 123.1 410.8 124 413 125 415.2 128 416.3"/>
      <polyline class="st0" points="131.3 392.2 131.7 394.2 132.2 396.2 132.7 398.1 133.3 400.1 129.1 401.4 126.4 399.9 125.8 397.8 125.3 395.7 122.6 393.9 120.5 394.4 118.8 397.2 119.4 399.5 120 401.8 122.8 403.4"/>
    </g>
    <g>
      <polyline class="st0" points="98.4 249.1 91.8 243.7 94.3 244 96.8 244.2 99.4 244.1 102.1 243.8 94.6 239.7"/>
      <polyline class="st0" points="89.7 253.4 90.9 252.5 92.1 251.6 93.2 250.6 94.3 249.5"/>
      <polyline class="st0" points="88.1 251.1 89.2 250.3 90.2 249.4 91.3 248.5 92.2 247.5"/>
      <polyline class="st0" points="87.9 256.2 87.2 258.2 83.3 250.7"/>
      <polyline class="st0" points="82.2 251.2 83.3 250.7 84.4 250.1"/>
      <polyline class="st0" points="75.2 253.4 76.4 253.2 77.6 252.9 78.7 252.5 79.9 252.1 80.9 254.8 80 256.6 78.6 257 77.3 257.3 76.1 259 76.3 260.4 78.1 261.5 79.7 261.1 81.3 260.7 82.3 258.8"/>
      <polyline class="st0" points="65.9 257.7 64.5 257.5 63.1 257.2 61.8 256.8 60 257.7 59.5 259.1 60.6 260.9 62.1 261.3 63.7 261.6 65.3 261.9 66.6 253.5"/>
      <polyline class="st0" points="52 253.8 53.2 254.6 54.5 255.3 55.8 256 57.2 256.6"/>
      <polyline class="st0" points="53.6 251.4 54.7 252.2 55.9 252.8 57.1 253.5 58.3 254"/>
      <polyline class="st0" points="50.5 250.9 49.4 250 48.4 249 47.4 248 47.5 246 48.6 245.1 50.5 245.1 51.4 245.9 52.3 246.8 52.3 248.7 49.6 252 47.5 252.1 45.4 252.1 44.3 250.9"/>
      <line class="st0" x1="48.2" y1="242.2" x2="43.5" y2="245.5"/>
      <polyline class="st0" points="44.7 244.7 42.7 244.3 43.1 242.3 41.2 241.7 41.8 239.8 45.7 238"/>
      <line class="st0" x1="44.4" y1="241.6" x2="43.1" y2="242.3"/>
      <line class="st0" x1="44.7" y1="235.7" x2="39.4" y2="237.6"/>
      <polyline class="st0" points="40.7 237.2 38.9 236.2 39.9 234.4 38.1 233.4 39.3 231.7 43.5 230.9"/>
      <line class="st0" x1="41.2" y1="234.1" x2="39.9" y2="234.4"/>
    </g>
    <g>
      <polyline class="st0" points="366.9 290.1 383.4 292.5 379 294.5 374.6 296.8 370.2 299.4 366 302.3 382.6 302.4"/>
      <polyline class="st0" points="376.8 274.2 375.8 276.9 374.9 279.7 374.2 282.4 373.5 285.2"/>
      <polyline class="st0" points="382 276.2 381.1 278.7 380.2 281.2 379.5 283.8 378.9 286.4"/>
      <polyline class="st0" points="393.8 264.8 392.5 267 391.3 269.1 390.1 271.3 389.1 273.6 384 271.2 382.7 267.6 384 265.1 385.4 262.7 384.5 258.8 382.1 257.3 378.2 258.4 376.7 261.1 375.2 263.8 376.4 267.8"/>
      <polyline class="st0" points="399.2 249.3 397.3 251.3 395.6 253.3 393.8 255.3 392.2 257.4 390.9 253 389.9 248.4 389.2 243.7 401.4 255"/>
      <polyline class="st0" points="412.5 235.4 414.9 234 417.3 232.7 419.8 231.5 421.3 227.8 420.2 225.3 416.3 224 413.5 225.3 410.8 226.7 408.2 228.3 416.8 242.5"/>
      <polyline class="st0" points="437.7 222.8 434.9 223.4 432.1 224.1 429.4 224.9 426.6 225.8"/>
      <polyline class="st0" points="438.8 228.3 436.2 228.8 433.6 229.5 431 230.2 428.4 231"/>
      <polyline class="st0" points="443.8 224.7 446.5 224.4 449.3 224.2 452.1 224.1 454.8 226.9 454.7 229.7 452.2 232.5 449.7 232.5 447.2 232.7 444.4 230.2 443.4 221.9 446.1 218.9 448.9 215.9 452 215.8"/>
      <line class="st0" x1="459.6" y1="232.8" x2="460.6" y2="221.7"/>
      <polyline class="st0" points="460.4 224.5 463.5 222 465.9 225.2 469.2 223 471.3 226.3 469.4 234.4"/>
      <line class="st0" x1="465.4" y1="227.9" x2="465.9" y2="225.2"/>
      <line class="st0" x1="474.2" y1="235.7" x2="477.5" y2="225.1"/>
      <polyline class="st0" points="476.7 227.7 480.2 226 481.9 229.6 485.6 228.1 487 231.8 483.4 239.3"/>
      <line class="st0" x1="480.9" y1="232.2" x2="481.9" y2="229.6"/>
    </g>
  </g>
  <polyline class="st0" points="584.8 489.6 587 489 589.2 488.5 591.3 488 593.2 485.3 592.7 483.1 590 481.4 587.7 481.9 585.3 482.5 583.1 483.1 586.6 496.1"/>
  <polyline class="st0" points="599 493.4 598.3 488.9 599.8 484.2 601.7 479.4 604.4 483.7 607.1 487.9 607.4 492.4"/>
  <polyline class="st0" points="598.3 488.9 600.5 488.7 602.7 488.3 604.9 488.2 607.1 487.9"/>
  <polyline class="st0" points="620.5 483.1 618.2 483.1 615.8 483.1 613.6 483.1 611.3 483.2"/>
  <polyline class="st0" points="620.3 487.6 618.1 487.6 615.9 487.6 613.7 487.6 611.4 487.7"/>
  <polyline class="st0" points="632.8 493.3 630.7 493 628.6 492.8 626.5 492.6 624.3 492.3 624.7 487.9 627.1 485.8 629.3 486 631.5 486.3 634 484.4 634.4 482.2 632.4 479.6 630 479.3 627.7 479.1 625.2 481.2"/>
  <polyline class="st0" points="645.2 495.8 643.2 495.3 641.1 494.8 639 494.4 637 494 637.8 489.6 640.4 487.8 642.5 488.3 644.8 488.7 647.5 487.2 648.1 485 646.4 482.3 644.1 481.7 641.7 481.2 639 483"/>
</svg>