<?xml version="1.0" encoding="UTF-8"?>
<svg xmlns="http://www.w3.org/2000/svg" version="1.1" viewBox="0 0 892.8 530.1">
  <!-- Generator: Adobe Illustrator 29.4.0, SVG Export Plug-In . SVG Version: 2.1.0 Build 152)  -->
  <defs>
    <style>
      .st0, .st1, .st2, .st3, .st4, .st5, .st6, .st7, .st8, .st9, .st10, .st11, .st12, .st13 {
        fill: none;
      }

      .st0, .st1, .st2, .st3, .st4, .st5, .st6, .st7, .st8, .st9, .st10, .st11, .st12, .st13, .st14, .st15, .st16, .st17, .st18, .st19, .st20, .st21 {
        stroke: #444;
      }

      .st0, .st11 {
        stroke-width: .5px;
      }

      .st0, .st19 {
        stroke-miterlimit: 10;
      }

      .st1, .st10 {
        stroke-width: .5px;
      }

      .st1, .st20 {
        stroke-miterlimit: 10;
      }

      .st2, .st9 {
        stroke-width: .5px;
      }

      .st2, .st18 {
        stroke-miterlimit: 10;
      }

      .st3, .st8 {
        stroke-width: .5px;
      }

      .st3, .st15 {
        stroke-miterlimit: 10;
      }

      .st4, .st7 {
        stroke-width: .5px;
      }

      .st4, .st17 {
        stroke-miterlimit: 10;
      }

      .st5, .st12 {
        stroke-width: .5px;
      }

      .st5, .st14 {
        stroke-miterlimit: 10;
      }

      .st6, .st13 {
        stroke-width: .5px;
      }

      .st6, .st16 {
        stroke-miterlimit: 10;
      }

      .st22 {
        fill: #c00;
      }

      .st7, .st8, .st9, .st10, .st11 {
        stroke-miterlimit: 10;
      }

      .st7, .st8, .st9, .st10, .st11, .st12, .st13 {
        stroke-linecap: square;
      }

      .st12 {
        stroke-miterlimit: 1;
      }

      .st13 {
        stroke-miterlimit: 1;
      }

      .st14 {
        stroke-width: 1px;
      }

      .st14, .st15, .st16, .st17, .st18, .st19, .st20, .st21 {
        fill: #ddd;
      }

      .st15 {
        stroke-width: 1px;
      }

      .st16 {
        stroke-width: 1px;
      }

      .st17 {
        stroke-width: 1px;
      }

      .st18 {
        stroke-width: 1px;
      }

      .st19 {
        stroke-width: 1px;
      }

      .st20 {
        stroke-width: 1px;
      }

      .st21 {
        stroke-miterlimit: 10;
        stroke-width: .8px;
      }
    </style>
  </defs>
  <g id="Layer_1">
    <g>
      <path id="gearpoly0" class="st20" d="M34.5,54l-5.6-4.4h-.1c0,0-.3-.3-.3-.3l-.5-.3-.6-.3-.8-.3-1-.3-1.2-.3-1.4-.3-1.6-.2-1.8-.2h-2c0,0-2.2,0-2.2,0h-1.2c0,0-.6.1-.6.1h-.2s0,0,0,0h0s0,0,0,0h0s-2.4,4.2-2.4,4.2h0s0,0,0,0h0s0,0,0,0h0c0,.1.3.7.3.7l.5,1.1,1.1,1.9,1.1,1.7,1.1,1.5,1.1,1.3,1,1.1.9.9.8.7.7.5.6.4.5.3.3.2h.1c0,0,6.7,2.6,6.7,2.6l-2.8,10.8-7.1-1h-.2s-.3,0-.3,0h-.5s-.7,0-.7,0h-.9c0,.1-1.1.3-1.1.3l-1.2.3-1.4.5-1.5.6-1.7.8-1.8,1-1.9,1.2-1,.7-.5.4h-.1c0,0,0,.1,0,.1h0s0,0,0,0h0s0,4.8,0,4.8h0s0,0,0,0h0s0,0,0,0h.1c0,0,.5.4.5.4l1,.6,1.9,1.1,1.8.9,1.7.7,1.6.6,1.4.4,1.2.3,1.1.2h.9c0,.1.7.2.7.2h.5s.3,0,.3,0h.1s7.1-1.1,7.1-1.1l3,10.8-6.6,2.7h-.1c0,0-.3.2-.3.2l-.4.3-.6.4-.7.6-.8.7-.9.9-1,1.1-1,1.3-1.1,1.5-1.1,1.7-1.1,2-.5,1.1-.3.6h0c0,.1,0,.2,0,.2h0s0,0,0,0h0s2.5,4.2,2.5,4.2h0s0,0,0,0h0s0,0,0,0h.2s.6,0,.6,0h1.2c0,0,2.2,0,2.2,0h2c0,0,1.8-.3,1.8-.3l1.6-.3,1.4-.3,1.2-.4,1-.4.8-.3.6-.3.5-.3.3-.2h.1c0,0,5.6-4.6,5.6-4.6l8,7.9-4.4,5.6h0c0,.1-.2.4-.2.4l-.3.5-.3.6-.3.8-.3,1-.3,1.2-.3,1.4-.2,1.6-.2,1.8v2c0,0,0,2.2,0,2.2v1.2c0,0,.1.6.1.6v.2s0,0,0,0h0s0,0,0,0h0s4.2,2.4,4.2,2.4h0s0,0,0,0h0s0,0,0,0h.1c0,0,.5-.3.5-.3l1.1-.5,1.9-1.1,1.7-1.1,1.5-1.1,1.3-1.1,1.1-1,.9-.9.7-.8.5-.7.4-.6.3-.5.2-.3h0c0-.1,2.6-6.8,2.6-6.8l10.8,2.8-1,7.1v.2s0,.3,0,.3v.5s0,.7,0,.7v.9c.1,0,.3,1.1.3,1.1l.3,1.2.5,1.4.6,1.5.8,1.7,1,1.8,1.2,1.9.7,1,.4.5h0c0,.1,0,.1,0,.1h0s0,0,0,0h0s4.8,0,4.8,0h0s0,0,0,0h0s0,0,0,0h0c0-.1.3-.6.3-.6l.6-1,1.1-1.9.9-1.8.7-1.7.6-1.6.4-1.4.3-1.2.2-1.1v-.9c.1,0,.2-.7.2-.7v-.5s0-.3,0-.3h0c0-.1-1.1-7.2-1.1-7.2l10.8-3,2.7,6.6h0c0,.1.2.4.2.4l.3.4.4.6.6.7.7.8.9.9,1.1,1,1.3,1,1.5,1.1,1.7,1.1,2,1.1,1.1.5.6.3h.1c0,0,0,0,0,0h0s0,0,0,0h0s4.2-2.5,4.2-2.5h0s0,0,0,0h0s0,0,0,0v-.2s0-.6,0-.6v-1.2c0,0,0-2.2,0-2.2v-2c0,0-.3-1.8-.3-1.8l-.3-1.6-.3-1.4-.4-1.2-.4-1-.3-.8-.3-.6-.3-.5-.2-.3h0c0-.1-4.5-5.7-4.5-5.7l7.9-8,5.6,4.4h.1c0,0,.3.3.3.3l.5.3.6.3.8.3,1,.3,1.2.3,1.4.3,1.6.2,1.8.2h2c0,0,2.2,0,2.2,0h1.2c0,0,.6-.1.6-.1h.2s0,0,0,0h0s0,0,0,0h0s2.4-4.2,2.4-4.2h0s0,0,0,0h0s0,0,0,0h0c0-.1-.3-.7-.3-.7l-.5-1.1-1.1-1.9-1.1-1.7-1.1-1.5-1.1-1.3-1-1.1-.9-.9-.8-.7-.7-.5-.6-.4-.5-.3-.3-.2h-.1c0,0-6.7-2.6-6.7-2.6l2.8-10.8,7.1,1h.2s.3,0,.3,0h.5s.7,0,.7,0h.9c0-.1,1.1-.3,1.1-.3l1.2-.3,1.4-.5,1.5-.6,1.7-.8,1.8-1,1.9-1.2,1-.7.5-.4h.1c0,0,0-.1,0-.1h0s0,0,0,0h0s0-4.8,0-4.8h0s0,0,0,0h0s0,0,0,0h-.1c0,0-.5-.4-.5-.4l-1-.6-1.9-1.1-1.8-.9-1.7-.7-1.6-.6-1.4-.4-1.2-.3-1.1-.2h-.9c0-.1-.7-.2-.7-.2h-.5s-.3,0-.3,0h-.1s-7.1,1.1-7.1,1.1l-3-10.8,6.6-2.7h.1c0,0,.3-.2.3-.2l.4-.3.6-.4.7-.6.8-.7.9-.9,1-1.1,1-1.3,1.1-1.5,1.1-1.7,1.1-2,.5-1.1.3-.6h0c0-.1,0-.2,0-.2h0s0,0,0,0h0s-2.5-4.2-2.5-4.2h0s0,0,0,0h0s0,0,0,0h-.2s-.6,0-.6,0h-1.2c0,0-2.2,0-2.2,0h-2c0,0-1.8.3-1.8.3l-1.6.3-1.4.3-1.2.4-1,.4-.8.3-.6.3-.5.3-.3.2h-.1c0,0-5.6,4.6-5.6,4.6l-8-7.9,4.4-5.6h0c0-.1.2-.4.2-.4l.3-.5.3-.6.3-.8.3-1,.3-1.2.3-1.4.2-1.6.2-1.8v-2c0,0,0-2.2,0-2.2v-1.2c0,0-.1-.6-.1-.6v-.2s0,0,0,0h0s0,0,0,0h0s-4.2-2.4-4.2-2.4h0s0,0,0,0h0s0,0,0,0h-.1c0,0-.5.3-.5.3l-1.1.5-1.9,1.1-1.7,1.1-1.5,1.1-1.3,1.1-1.1,1-.9.9-.7.8-.5.7-.4.6-.3.5-.2.3h0c0,.1-2.6,6.8-2.6,6.8l-10.8-2.8,1-7.1v-.2s0-.3,0-.3v-.5s0-.7,0-.7v-.9c-.1,0-.3-1.1-.3-1.1l-.3-1.2-.5-1.4-.6-1.5-.8-1.7-1-1.8-1.2-1.9-.7-1-.4-.5h0c0-.1,0-.1,0-.1h0s0,0,0,0h0s-4.8,0-4.8,0h0s0,0,0,0h0s0,0,0,0h0c0,.1-.3.6-.3.6l-.6,1-1.1,1.9-.9,1.8-.7,1.7-.6,1.6-.4,1.4-.3,1.2-.2,1.1v.9c-.1,0-.2.7-.2.7v.5s0,.3,0,.3h0c0,.1,1.1,7.2,1.1,7.2l-10.8,3-2.7-6.6h0c0-.1-.2-.4-.2-.4l-.3-.4-.4-.6-.6-.7-.7-.8-.9-.9-1.1-1-1.3-1-1.5-1.1-1.7-1.1-2-1.1-1.1-.5-.6-.3h-.1c0,0,0,0,0,0h0s0,0,0,0h0s-4.2,2.5-4.2,2.5h0s0,0,0,0h0s0,0,0,0v.2s0,.6,0,.6v1.2c0,0,0,2.2,0,2.2v2c0,0,.3,1.8.3,1.8l.3,1.6.3,1.4.4,1.2.4,1,.3.8.3.6.3.5.2.3h0c0,.1,4.5,5.7,4.5,5.7l-7.9,8Z"/>
      <circle class="st22" cx="20.6" cy="54.2" r="3.9"/>
    </g>
  </g>
  <g id="Layer_6">
    <g>
      <path id="gearpoly9" class="st18" d="M208.2,38.3l-1.5-7h0c0-.1-.1-.5-.1-.5l-.2-.5-.3-.7-.4-.8-.6-.9-.7-1.1-.9-1.2-1.1-1.2-1.3-1.3-1.5-1.4-1.7-1.4-1-.7-.5-.4h-.1c0,0,0,0,0,0h0s0,0,0,0h0s-4.5,1.7-4.5,1.7h0s0,0,0,0h0s0,0,0,0h0c0,.1-.2.7-.2.7l-.3,1.1-.4,2.2-.3,2v1.8c-.1,0-.2,1.7-.2,1.7v1.5c0,0,.2,1.3.2,1.3l.2,1.1.2.9.2.7.2.5v.3c.1,0,.2.1.2.1l3.4,6.3-9.2,6.4-4.8-5.3h-.1c0-.1-.3-.3-.3-.3l-.4-.3-.6-.4-.8-.5-1-.5-1.2-.6-1.4-.6-1.6-.5-1.8-.5-2-.4-2.2-.3h-1.2c0-.1-.6-.2-.6-.2h-.2s0,0,0,0h0s0,0,0,0h0s-3.1,3.7-3.1,3.7h0s0,0,0,0h0s0,0,0,0h0c0,.1.2.7.2.7l.3,1.1.7,2.1.8,1.9.8,1.7.8,1.4.8,1.2.7,1,.7.8.6.7.5.5.4.3.3.2h.1c0,0,6.1,3.8,6.1,3.8l-4.7,10.2-6.8-2.2h-.1s-.3-.1-.3-.1h-.5c0,0-.7-.1-.7-.1h-.9s-1.1,0-1.1,0h-1.3c0,0-1.5.3-1.5.3l-1.6.3-1.8.5-1.9.6-2.1.8-1.1.5-.6.3h-.1c0,0,0,0,0,0h0s0,0,0,0h0s-.8,4.8-.8,4.8h0s0,0,0,0h0s0,0,0,0h.1c0,.1.4.5.4.5l.9.8,1.7,1.5,1.6,1.2,1.5,1,1.4.9,1.3.7,1.2.5,1,.4.9.3.7.2h.5c0,.1.3.1.3.1h.2s7.1.2,7.1.2l1,11.2-7,1.5h-.1s-.3.1-.3.1l-.5.2-.7.3-.8.4-.9.6-1.1.7-1.2.9-1.2,1.1-1.3,1.3-1.4,1.5-1.4,1.7-.7,1-.4.5h0c0,.1,0,.1,0,.1h0s0,0,0,0h0s1.7,4.6,1.7,4.6h0s0,0,0,0h0s0,0,0,0h.1s.6.2.6.2l1.1.3,2.2.4,2,.3h1.8c0,.1,1.7.2,1.7.2h1.5c0,0,1.3-.2,1.3-.2l1.1-.2.9-.2.7-.2.5-.2h.3c0-.1.1-.2.1-.2l6.3-3.4,6.4,9.2-5.3,4.8h-.1c0,.1-.2.4-.2.4l-.3.4-.4.6-.5.8-.5,1-.6,1.2-.6,1.4-.5,1.6-.5,1.8-.4,2-.3,2.2v1.2c-.1,0-.2.6-.2.6v.2s0,0,0,0h0s0,0,0,0h0s3.7,3.1,3.7,3.1h0s0,0,0,0h0s0,0,0,0h.1s.6-.2.6-.2l1.1-.3,2.1-.7,1.9-.8,1.7-.8,1.4-.8,1.2-.8,1-.7.8-.7.7-.6.5-.5.3-.4.2-.3h0c0-.1,3.7-6.2,3.7-6.2l10.2,4.7-2.2,6.8h0c0,.1,0,.5,0,.5v.5c0,0-.1.7-.1.7v.9s0,1.1,0,1.1v1.3c0,0,.3,1.5.3,1.5l.3,1.6.5,1.8.6,1.9.8,2.1.5,1.1.3.6h0c0,.1,0,.2,0,.2h0s0,0,0,0h0s4.8.8,4.8.8h0s0,0,0,0h0s0,0,0,0h.1c0-.1.4-.5.4-.5l.8-.9,1.5-1.7,1.2-1.6,1-1.5.9-1.4.7-1.3.5-1.2.4-1,.3-.9.2-.7v-.5c.1,0,.1-.3.1-.3v-.2s.2-7.1.2-7.1l11.2-1,1.5,7h0c0,.1.1.5.1.5l.2.5.3.7.4.8.6.9.7,1.1.9,1.2,1.1,1.2,1.3,1.3,1.5,1.4,1.7,1.4,1,.7.5.4h.1c0,0,0,0,0,0h0s0,0,0,0h0s4.5-1.7,4.5-1.7h0s0,0,0,0h0s0,0,0,0h0c0-.1.2-.7.2-.7l.3-1.1.4-2.2.3-2v-1.8c.1,0,.2-1.7.2-1.7v-1.5c0,0-.2-1.3-.2-1.3l-.2-1.1-.2-.9-.2-.7-.2-.5v-.3c-.1,0-.2-.1-.2-.1l-3.4-6.3,9.2-6.4,4.8,5.3h.1c0,.1.3.3.3.3l.4.3.6.4.8.5,1,.5,1.2.6,1.4.6,1.6.5,1.8.5,2,.4,2.2.3h1.2c0,.1.6.2.6.2h.2s0,0,0,0h0s0,0,0,0h0s3.1-3.7,3.1-3.7h0s0,0,0,0h0s0,0,0,0h0c0-.1-.2-.7-.2-.7l-.3-1.1-.7-2.1-.8-1.9-.8-1.7-.8-1.4-.8-1.2-.7-1-.7-.8-.6-.7-.5-.5-.4-.3-.3-.2h-.1c0,0-6.1-3.8-6.1-3.8l4.7-10.2,6.8,2.2h.1s.3.1.3.1h.5c0,0,.7.1.7.1h.9s1.1,0,1.1,0h1.3c0,0,1.5-.3,1.5-.3l1.6-.3,1.8-.5,1.9-.6,2.1-.8,1.1-.5.6-.3h.1c0,0,0,0,0,0h0s0,0,0,0h0s.8-4.8.8-4.8h0s0,0,0,0h0s0,0,0,0h-.1c0-.1-.4-.5-.4-.5l-.9-.8-1.7-1.5-1.6-1.2-1.5-1-1.4-.9-1.3-.7-1.2-.5-1-.4-.9-.3-.7-.2h-.5c0-.1-.3-.1-.3-.1h-.2s-7.1-.2-7.1-.2l-1-11.2,7-1.5h.1s.3-.1.3-.1l.5-.2.7-.3.8-.4.9-.6,1.1-.7,1.2-.9,1.2-1.1,1.3-1.3,1.4-1.5,1.4-1.7.7-1,.4-.5h0c0-.1,0-.1,0-.1h0s0,0,0,0h0s-1.7-4.6-1.7-4.6h0s0,0,0,0h0s0,0,0,0h-.1s-.6-.2-.6-.2l-1.1-.3-2.2-.4-2-.3h-1.8c0-.1-1.7-.2-1.7-.2h-1.5c0,0-1.3.2-1.3.2l-1.1.2-.9.2-.7.2-.5.2h-.3c0,.1-.1.2-.1.2l-6.3,3.4-6.4-9.2,5.3-4.8h.1c0-.1.2-.4.2-.4l.3-.4.4-.6.5-.8.5-1,.6-1.2.6-1.4.5-1.6.5-1.8.4-2,.3-2.2v-1.2c.1,0,.2-.6.2-.6v-.2s0,0,0,0h0s0,0,0,0h0s-3.7-3.1-3.7-3.1h0s0,0,0,0h0s0,0,0,0h-.1s-.6.2-.6.2l-1.1.3-2.1.7-1.9.8-1.7.8-1.4.8-1.2.8-1,.7-.8.7-.7.6-.5.5-.3.4-.2.3h0c0,.1-3.7,6.2-3.7,6.2l-10.2-4.7,2.2-6.8h0c0-.1,0-.5,0-.5v-.5c0,0,.1-.7.1-.7v-.9s0-1.1,0-1.1v-1.3c0,0-.3-1.5-.3-1.5l-.3-1.6-.5-1.8-.6-1.9-.8-2.1-.5-1.1-.3-.6h0c0-.1,0-.2,0-.2h0s0,0,0,0h0s-4.8-.8-4.8-.8h0s0,0,0,0h0s0,0,0,0h-.1c0,.1-.4.5-.4.5l-.8.9-1.5,1.7-1.2,1.6-1,1.5-.9,1.4-.7,1.3-.5,1.2-.4,1-.3.9-.2.7v.5c-.1,0-.1.3-.1.3v.2s-.2,7.1-.2,7.1l-11.2,1Z"/>
      <circle class="st22" cx="197.5" cy="29.4" r="3.9"/>
    </g>
  </g>
  <g id="Layer_5">
    <g>
      <path id="gearpoly8" class="st14" d="M841.6,100.6h0s.1-.1.1-.1l.2-.2.3-.2.3-.3.3-.3.4-.4.4-.4.5-.5.5-.5.5-.6.6-.7.6-.7.6-.8.7-.9.7-1,.7-1,.7-1.1.7-1.2.7-1.2.7-1.3.8-1.4.8-1.5.8-1.6.4-.8h0c0-.1,0-.1,0-.1h0s-3.8-5-3.8-5h0s0,0,0,0h-.1s-.9.2-.9.2l-1.7.3-1.6.3-1.6.4-1.5.4-1.4.4-1.3.4-1.2.4-1.2.4-1.1.4-1,.4-.9.4-.9.4-.8.4-.7.4-.7.4-.6.3-.5.3-.5.3-.4.3-.3.2-.3.2-.2.2h-.1c0,.1,0,.1,0,.1l-6.2-6.6h0s.1-.1.1-.1l.2-.2.2-.2.2-.3.3-.4.3-.4.3-.5.4-.6.4-.6.4-.7.4-.8.5-.8.5-.9.5-1,.5-1.1.5-1.1.5-1.2.5-1.3.5-1.4.5-1.4.5-1.5.5-1.6.4-1.7.2-.9h0c0-.1,0-.1,0-.1h0s-4.7-4.1-4.7-4.1h0s0,0,0,0h-.1s-.8.4-.8.4l-1.6.6-1.5.7-1.5.7-1.4.7-1.3.7-1.2.7-1.1.6-1.1.6-1,.6-.9.6-.8.6-.8.6-.7.5-.6.5-.6.5-.5.4-.5.4-.4.4-.3.3-.3.3-.2.2-.2.2h-.1c0,.1,0,.1,0,.1l-7.3-5.3h0s0-.2,0-.2v-.2c.1,0,.3-.3.3-.3l.2-.4.2-.4.2-.5.2-.6.3-.6.3-.7.3-.8.3-.8.3-.9.3-1,.3-1.1.3-1.1.3-1.2.2-1.3.2-1.4.2-1.4.2-1.5.2-1.6v-1.7c.1,0,.2-1.7.2-1.7v-.9s0-.1,0-.1h0s0,0,0,0l-5.4-3.1h0s0,0,0,0h0c0,0-.8.5-.8.5l-1.5.9-1.4.9-1.3.9-1.2.9-1.1.9-1.1.9-1,.9-.9.8-.9.8-.8.8-.7.7-.7.7-.6.7-.5.6-.5.6-.4.5-.4.5-.3.4-.3.4-.2.3-.2.3v.2c-.1,0-.2.2-.2.2h0s-8.2-3.7-8.2-3.7h0s0-.2,0-.2v-.2c0,0,.2-.3.2-.3v-.4c.1,0,.2-.4.2-.4v-.5c.1,0,.2-.6.2-.6v-.7c.1,0,.2-.7.2-.7v-.8c.1,0,.2-.9.2-.9v-1c0,0,.2-1,.2-1v-1.1c0,0,.1-1.2.1-1.2v-1.2s0-1.3,0-1.3v-1.4s-.1-1.5-.1-1.5v-1.5c-.1,0-.3-1.6-.3-1.6l-.2-1.7-.2-1.7v-.9c-.1,0-.2-.1-.2-.1h0s0,0,0,0l-5.9-2h0s0,0,0,0h0c0,0-.6.7-.6.7l-1.2,1.2-1.2,1.2-1.1,1.2-1,1.1-.9,1.1-.9,1.1-.8,1-.7,1-.7,1-.6.9-.6.9-.5.8-.5.8-.4.7-.4.7-.3.6-.3.5-.2.5-.2.4v.4c-.1,0-.3.3-.3.3v.2c0,0-.1.2-.1.2h0s-8.8-2.1-8.8-2.1h0s0-.2,0-.2v-.3s0-.3,0-.3v-.4s0-.5,0-.5v-.5s0-.6,0-.6v-.7s0-.7,0-.7v-.8s-.1-.9-.1-.9v-1c0,0-.2-1-.2-1l-.2-1.1-.2-1.2-.2-1.2-.3-1.3-.3-1.3-.4-1.4-.4-1.5-.5-1.5-.5-1.6-.6-1.6-.3-.8h0c0-.1,0-.1,0-.1h0s-6.2-.8-6.2-.8h0s0,0,0,0h0c0,0-.5.8-.5.8l-1,1.4-.9,1.4-.8,1.4-.8,1.3-.7,1.3-.7,1.2-.6,1.2-.5,1.1-.5,1.1-.4,1-.4,1-.3.9-.3.8-.3.8-.2.7-.2.7-.2.6v.5c-.1,0-.2.5-.2.5v.4c0,0-.1.3-.1.3v.3s0,.2,0,.2h0s-9-.3-9-.3h0s0-.2,0-.2v-.3s0-.3,0-.3v-.4s-.1-.5-.1-.5v-.5c0,0-.2-.6-.2-.6v-.7c-.1,0-.3-.7-.3-.7l-.2-.8-.2-.9-.3-.9-.3-1-.4-1-.4-1.1-.5-1.2-.5-1.2-.6-1.3-.6-1.3-.7-1.4-.7-1.4-.8-1.5-.9-1.5-.5-.8h0c0,0,0-.1,0-.1h0s-6.2.4-6.2.4h0s0,0,0,0h0c0,.1-.4.9-.4.9l-.7,1.6-.6,1.5-.6,1.5-.5,1.4-.5,1.4-.4,1.3-.4,1.3-.3,1.2-.3,1.1-.2,1.1-.2,1-.2.9v.9c-.1,0-.2.8-.2.8v.7c0,0-.1.7-.1.7v.6s0,.5,0,.5v.5s0,.4,0,.4v.3s0,.3,0,.3v.2s0,0,0,0l-8.9,1.5h0s0-.2,0-.2v-.2c0,0-.2-.3-.2-.3v-.4c-.1,0-.3-.4-.3-.4l-.2-.5-.2-.6-.3-.6-.3-.7-.4-.7-.4-.8-.5-.8-.5-.9-.6-.9-.6-1-.7-1-.7-1.1-.8-1.1-.9-1.2-.9-1.2-1-1.2-1.1-1.3-1.2-1.3-.6-.7h0c0,0,0,0,0,0h0s-6,1.6-6,1.6h0s0,0,0,0h0c0,.1-.2,1-.2,1l-.4,1.7-.3,1.6-.3,1.6-.2,1.5-.2,1.4v1.4c-.1,0-.2,1.3-.2,1.3v1.2c0,0-.1,1.2-.1,1.2v1.1s0,1,0,1v1s0,.9,0,.9v.8c0,0,.1.7.1.7v.7c0,0,.2.6.2.6v.5c0,0,.2.5.2.5v.4c0,0,.2.3.2.3v.2c0,0,.1.2.1.2h0s-8.4,3.2-8.4,3.2h0s0-.2,0-.2v-.2c-.1,0-.3-.3-.3-.3l-.2-.3-.2-.4-.3-.5-.3-.5-.4-.6-.4-.6-.5-.7-.5-.7-.6-.7-.7-.8-.7-.8-.8-.9-.9-.9-.9-.9-1-.9-1.1-1-1.2-1-1.2-1-1.3-1-1.4-1-.7-.5h0c0,0,0,0,0,0h0s-5.6,2.8-5.6,2.8h0s0,0,0,0h0c0,.1,0,1,0,1v1.7s0,1.7,0,1.7v1.6c0,0,.1,1.5.1,1.5v1.4c.1,0,.2,1.4.2,1.4l.2,1.3.2,1.2.2,1.2.2,1.1.2,1,.2.9.2.9.2.8.2.7.2.6.2.6.2.5.2.4.2.4v.3c.1,0,.2.2.2.2v.2c0,0,0,0,0,0l-7.7,4.8h0s-.1-.1-.1-.1l-.2-.2-.2-.3-.3-.3-.3-.3-.4-.4-.4-.4-.5-.5-.5-.5-.6-.5-.7-.6-.7-.6-.8-.6-.9-.7-1-.7-1-.7-1.1-.7-1.2-.7-1.2-.7-1.3-.7-1.4-.8-1.5-.8-1.6-.8-.8-.4h-.1s0,0,0,0h0s-5,3.8-5,3.8h0s0,0,0,0h0c0,.1.2,1,.2,1l.3,1.7.3,1.6.4,1.6.4,1.5.4,1.4.4,1.3.4,1.2.4,1.2.4,1.1.4,1,.4.9.4.9.4.8.4.7.4.7.3.6.3.5.3.5.3.4.2.3.2.3.2.2h.1c0,.1,0,.1,0,.1l-6.6,6.2h0s-.1-.1-.1-.1l-.2-.2-.2-.2-.3-.2-.4-.3-.4-.3-.5-.3-.6-.4-.6-.4-.7-.4-.8-.4-.8-.5-.9-.5-1-.5-1.1-.5-1.1-.5-1.2-.5-1.3-.5-1.4-.5-1.4-.5-1.5-.5-1.6-.5-1.7-.4-.9-.2h-.1s0,0,0,0h0s-4.1,4.7-4.1,4.7h0s0,0,0,0h0c0,.1.3.9.3.9l.6,1.6.7,1.5.7,1.5.7,1.4.7,1.3.7,1.2.6,1.1.6,1.1.6,1,.6.9.6.8.6.8.5.7.5.6.5.6.4.5.4.5.4.4.3.3.3.3.2.2.2.2h.1c0,.1,0,.1,0,.1l-5.3,7.3h0s-.2,0-.2,0h-.2c0-.1-.3-.3-.3-.3l-.4-.2-.4-.2-.5-.2-.6-.2-.6-.3-.7-.3-.8-.3-.8-.3-.9-.3-1-.3-1.1-.3-1.1-.3-1.2-.3-1.3-.2-1.4-.2-1.4-.2-1.5-.2-1.6-.2h-1.7c0-.1-1.7-.2-1.7-.2h-.9s-.1,0-.1,0h0s0,0,0,0l-3.1,5.4h0s0,0,0,0h0c0,0,.5.9.5.9l.9,1.5.9,1.4.9,1.3.9,1.2.9,1.1.9,1.1.9,1,.8.9.8.9.8.8.7.7.7.7.7.6.6.5.6.5.5.4.5.4.4.3.4.3.3.2.3.2h.2c0,.1.2.2.2.2h0s-3.7,8.2-3.7,8.2h0s-.2,0-.2,0h-.2c0,0-.3-.2-.3-.2h-.4c0-.1-.4-.2-.4-.2h-.5c0-.1-.6-.2-.6-.2h-.7c0-.1-.7-.2-.7-.2h-.8c0-.1-.9-.2-.9-.2h-1c0,0-1-.2-1-.2h-1.1c0,0-1.2-.1-1.2-.1h-1.2s-1.3,0-1.3,0h-1.4s-1.5.1-1.5.1h-1.5c0,.1-1.6.3-1.6.3l-1.7.2-1.7.2h-.9c0,.1-.1.2-.1.2h0s0,0,0,0l-2,5.9h0s0,0,0,0h0c0,0,.6.7.6.7l1.2,1.2,1.2,1.2,1.2,1.1,1.1,1,1.1.9,1.1.9,1,.8,1,.7,1,.7.9.6.9.6.8.5.8.5.7.4.7.4.6.3.5.3.5.2.4.2h.4c0,.1.3.3.3.3h.2c0,0,.2.1.2.1h0s-2.1,8.8-2.1,8.8h0s-.2,0-.2,0h-.3s-.3,0-.3,0h-.4s-.5,0-.5,0h-.5s-.6,0-.6,0h-.7s-.7,0-.7,0h-.8s-.9.1-.9.1h-1c0,0-1,.2-1,.2l-1.1.2-1.2.2-1.2.2-1.3.3-1.3.3-1.4.4-1.5.4-1.5.5-1.6.5-1.6.6-.8.3h-.1s0,0,0,0h0s-.8,6.2-.8,6.2h0s0,0,0,0h0c0,0,.7.6.7.6l1.4,1,1.4.9,1.4.8,1.3.8,1.3.7,1.2.7,1.2.6,1.1.5,1.1.5,1,.4,1,.4.9.3.8.3.8.3.7.2.7.2.6.2h.5c0,.1.5.2.5.2h.4c0,0,.3.1.3.1h.3s.2,0,.2,0h0s-.3,9-.3,9h0s-.2,0-.2,0h-.3s-.3,0-.3,0h-.4s-.5.1-.5.1h-.5c0,0-.6.2-.6.2h-.7c0,.1-.7.3-.7.3l-.8.2-.9.2-.9.3-1,.3-1,.4-1.1.4-1.2.5-1.2.5-1.3.6-1.3.6-1.4.7-1.4.7-1.5.8-1.5.9-.8.5h0c0,0,0,0,0,0h0s.4,6.2.4,6.2h0s0,0,0,0h.1s.8.4.8.4l1.6.7,1.5.6,1.5.6,1.4.5,1.4.5,1.3.4,1.3.4,1.2.3,1.1.3,1.1.2,1,.2.9.2h.9c0,.1.8.2.8.2h.7c0,0,.7.1.7.1h.6s.5,0,.5,0h.5s.4,0,.4,0h.3s.3,0,.3,0h.2s0,0,0,0l1.5,8.9h0s-.2,0-.2,0h-.2c0,0-.3.2-.3.2h-.4c0,.1-.4.3-.4.3l-.5.2-.6.2-.6.3-.7.3-.7.4-.8.4-.8.5-.9.5-.9.6-1,.6-1,.7-1.1.7-1.1.8-1.2.9-1.2.9-1.2,1-1.3,1.1-1.3,1.2-.7.6h0c0,0,0,0,0,0h0s1.6,6,1.6,6h0s0,0,0,0h.1s.9.2.9.2l1.7.4,1.6.3,1.6.3,1.5.2,1.4.2h1.4c0,.1,1.3.2,1.3.2h1.2c0,0,1.2.1,1.2.1h1.1s1,0,1,0h1s.9,0,.9,0h.8c0,0,.7-.1.7-.1h.7c0,0,.6-.2.6-.2h.5c0,0,.5-.2.5-.2h.4c0,0,.3-.2.3-.2h.2c0,0,.2-.1.2-.1h0s3.2,8.4,3.2,8.4h0s-.2,0-.2,0h-.2c0,.1-.3.3-.3.3l-.3.2-.4.2-.5.3-.5.3-.6.4-.6.4-.7.5-.7.5-.7.6-.8.7-.8.7-.9.8-.9.9-.9.9-.9,1-1,1.1-1,1.2-1,1.2-1,1.3-1,1.4-.5.7h0c0,0,0,.1,0,.1h0s2.8,5.6,2.8,5.6h0s0,0,0,0h.1s.9,0,.9,0h1.7s1.7,0,1.7,0h1.6c0,0,1.5-.1,1.5-.1h1.4c0-.1,1.4-.2,1.4-.2l1.3-.2,1.2-.2,1.2-.2,1.1-.2,1-.2.9-.2.9-.2.8-.2.7-.2.6-.2.6-.2.5-.2.4-.2.4-.2h.3c0-.1.2-.2.2-.2h.2c0,0,0,0,0,0l4.8,7.7h0s-.1.1-.1.1l-.2.2-.3.2-.3.3-.3.3-.4.4-.4.4-.5.5-.5.5-.5.6-.6.7-.6.7-.6.8-.7.9-.7,1-.7,1-.7,1.1-.7,1.2-.7,1.2-.7,1.3-.8,1.4-.8,1.5-.8,1.6-.4.8h0c0,.1,0,.1,0,.1h0s3.8,5,3.8,5h0s0,0,0,0h.1s.9-.2.9-.2l1.7-.3,1.6-.3,1.6-.4,1.5-.4,1.4-.4,1.3-.4,1.2-.4,1.2-.4,1.1-.4,1-.4.9-.4.9-.4.8-.4.7-.4.7-.4.6-.3.5-.3.5-.3.4-.3.3-.2.3-.2.2-.2h.1c0-.1,0-.1,0-.1l6.2,6.6h0s-.1.1-.1.1l-.2.2-.2.2-.2.3-.3.4-.3.4-.3.5-.4.6-.4.6-.4.7-.4.8-.5.8-.5.9-.5,1-.5,1.1-.5,1.1-.5,1.2-.5,1.3-.5,1.4-.5,1.4-.5,1.5-.5,1.6-.4,1.7-.2.9h0c0,.1,0,.1,0,.1h0s4.7,4.1,4.7,4.1h0s0,0,0,0h.1s.8-.4.8-.4l1.6-.6,1.5-.7,1.5-.7,1.4-.7,1.3-.7,1.2-.7,1.1-.6,1.1-.6,1-.6.9-.6.8-.6.8-.6.7-.5.6-.5.6-.5.5-.4.5-.4.4-.4.3-.3.3-.3.2-.2.2-.2h.1c0-.1,0-.1,0-.1l7.3,5.3h0s0,.2,0,.2v.2c-.1,0-.3.3-.3.3l-.2.4-.2.4-.2.5-.2.6-.3.6-.3.7-.3.8-.3.8-.3.9-.3,1-.3,1.1-.3,1.1-.3,1.2-.2,1.3-.2,1.4-.2,1.4-.2,1.5-.2,1.6v1.7c-.1,0-.2,1.7-.2,1.7v.9s0,.1,0,.1h0s0,0,0,0l5.4,3.1h0s0,0,0,0h0c0,0,.8-.5.8-.5l1.5-.9,1.4-.9,1.3-.9,1.2-.9,1.1-.9,1.1-.9,1-.9.9-.8.9-.8.8-.8.7-.7.7-.7.6-.7.5-.6.5-.6.4-.5.4-.5.3-.4.3-.4.2-.3.2-.3v-.2c.1,0,.2-.2.2-.2h0s8.2,3.7,8.2,3.7h0s0,.2,0,.2v.2c0,0-.2.3-.2.3v.4c-.1,0-.2.4-.2.4v.5c-.1,0-.2.6-.2.6v.7c-.1,0-.2.7-.2.7v.8c-.1,0-.2.9-.2.9v1c0,0-.2,1-.2,1v1.1c0,0-.1,1.2-.1,1.2v1.2s0,1.3,0,1.3v1.4s.1,1.5.1,1.5v1.5c.1,0,.3,1.6.3,1.6l.2,1.7.2,1.7v.9c.1,0,.2.1.2.1h0s0,0,0,0l5.9,2h0s0,0,0,0h0c0,0,.6-.7.6-.7l1.2-1.2,1.2-1.2,1.1-1.2,1-1.1.9-1.1.9-1.1.8-1,.7-1,.7-1,.6-.9.6-.9.5-.8.5-.8.4-.7.4-.7.3-.6.3-.5.2-.5.2-.4v-.4c.1,0,.3-.3.3-.3v-.2c0,0,.1-.2.1-.2h0s8.8,2.1,8.8,2.1h0s0,.2,0,.2v.3s0,.3,0,.3v.4s0,.5,0,.5v.5s0,.6,0,.6v.7s0,.7,0,.7v.8s.1.9.1.9v1c0,0,.2,1,.2,1l.2,1.1.2,1.2.2,1.2.3,1.3.3,1.3.4,1.4.4,1.5.5,1.5.5,1.6.6,1.6.3.8h0c0,.1,0,.1,0,.1h0s6.2.8,6.2.8h0s0,0,0,0h0c0,0,.5-.8.5-.8l1-1.4.9-1.4.8-1.4.8-1.3.7-1.3.7-1.2.6-1.2.5-1.1.5-1.1.4-1,.4-1,.3-.9.3-.8.3-.8.2-.7.2-.7.2-.6v-.5c.1,0,.2-.5.2-.5v-.4c0,0,.1-.3.1-.3v-.3s0-.2,0-.2h0s9,.3,9,.3h0s0,.2,0,.2v.3s0,.3,0,.3v.4s.1.5.1.5v.5c0,0,.2.6.2.6v.7c.1,0,.3.7.3.7l.2.8.2.9.3.9.3,1,.4,1,.4,1.1.5,1.2.5,1.2.6,1.3.6,1.3.7,1.4.7,1.4.8,1.5.9,1.5.5.8h0c0,0,0,.1,0,.1h0s6.2-.4,6.2-.4h0s0,0,0,0h0c0-.1.4-.9.4-.9l.7-1.6.6-1.5.6-1.5.5-1.4.5-1.4.4-1.3.4-1.3.3-1.2.3-1.1.2-1.1.2-1,.2-.9v-.9c.1,0,.2-.8.2-.8v-.7c0,0,.1-.7.1-.7v-.6s0-.5,0-.5v-.5s0-.4,0-.4v-.3s0-.3,0-.3v-.2s0,0,0,0l8.9-1.5h0s0,.2,0,.2v.2c0,0,.2.3.2.3v.4c.1,0,.3.4.3.4l.2.5.2.6.3.6.3.7.4.7.4.8.5.8.5.9.6.9.6,1,.7,1,.7,1.1.8,1.1.9,1.2.9,1.2,1,1.2,1.1,1.3,1.2,1.3.6.7h0c0,0,0,0,0,0h0s6-1.6,6-1.6h0s0,0,0,0h0c0-.1.2-1,.2-1l.4-1.7.3-1.6.3-1.6.2-1.5.2-1.4v-1.4c.1,0,.2-1.3.2-1.3v-1.2c0,0,.1-1.2.1-1.2v-1.1s0-1,0-1v-1s0-.9,0-.9v-.8c0,0-.1-.7-.1-.7v-.7c0,0-.2-.6-.2-.6v-.5c0,0-.2-.5-.2-.5v-.4c0,0-.2-.3-.2-.3v-.2c0,0-.1-.2-.1-.2h0s8.4-3.2,8.4-3.2h0s0,.2,0,.2v.2c.1,0,.3.3.3.3l.2.3.2.4.3.5.3.5.4.6.4.6.5.7.5.7.6.7.7.8.7.8.8.9.9.9.9.9,1,.9,1.1,1,1.2,1,1.2,1,1.3,1,1.4,1,.7.5h0c0,0,0,0,0,0h0s5.6-2.8,5.6-2.8h0s0,0,0,0h0c0-.1,0-1,0-1v-1.7s0-1.7,0-1.7v-1.6c0,0-.1-1.5-.1-1.5v-1.4c-.1,0-.2-1.4-.2-1.4l-.2-1.3-.2-1.2-.2-1.2-.2-1.1-.2-1-.2-.9-.2-.9-.2-.8-.2-.7-.2-.6-.2-.6-.2-.5-.2-.4-.2-.4v-.3c-.1,0-.2-.2-.2-.2v-.2c0,0,0,0,0,0l7.7-4.8h0s.1.1.1.1l.2.2.2.3.3.3.3.3.4.4.4.4.5.5.5.5.6.5.7.6.7.6.8.6.9.7,1,.7,1,.7,1.1.7,1.2.7,1.2.7,1.3.7,1.4.8,1.5.8,1.6.8.8.4h.1s0,0,0,0h0s5-3.8,5-3.8h0s0,0,0,0h0c0-.1-.2-1-.2-1l-.3-1.7-.3-1.6-.4-1.6-.4-1.5-.4-1.4-.4-1.3-.4-1.2-.4-1.2-.4-1.1-.4-1-.4-.9-.4-.9-.4-.8-.4-.7-.4-.7-.3-.6-.3-.5-.3-.5-.3-.4-.2-.3-.2-.3-.2-.2h-.1c0-.1,0-.1,0-.1l6.6-6.2h0s.1.1.1.1l.2.2.2.2.3.2.4.3.4.3.5.3.6.4.6.4.7.4.8.4.8.5.9.5,1,.5,1.1.5,1.1.5,1.2.5,1.3.5,1.4.5,1.4.5,1.5.5,1.6.5,1.7.4.9.2h.1s0,0,0,0h0s4.1-4.7,4.1-4.7h0s0,0,0,0h0c0-.1-.3-.9-.3-.9l-.6-1.6-.7-1.5-.7-1.5-.7-1.4-.7-1.3-.7-1.2-.6-1.1-.6-1.1-.6-1-.6-.9-.6-.8-.6-.8-.5-.7-.5-.6-.5-.6-.4-.5-.4-.5-.4-.4-.3-.3-.3-.3-.2-.2-.2-.2h-.1c0-.1,0-.1,0-.1l5.3-7.3h0s.2,0,.2,0h.2c0,.1.3.3.3.3l.4.2.4.2.5.2.6.2.6.3.7.3.8.3.8.3.9.3,1,.3,1.1.3,1.1.3,1.2.3,1.3.2,1.4.2,1.4.2,1.5.2,1.6.2h1.7c0,.1,1.7.2,1.7.2h.9s.1,0,.1,0h0s0,0,0,0l3.1-5.4h0s0,0,0,0h0c0,0-.5-.9-.5-.9l-.9-1.5-.9-1.4-.9-1.3-.9-1.2-.9-1.1-.9-1.1-.9-1-.8-.9-.8-.9-.8-.8-.7-.7-.7-.7-.7-.6-.6-.5-.6-.5-.5-.4-.5-.4-.4-.3-.4-.3-.3-.2-.3-.2h-.2c0-.1-.2-.2-.2-.2h0s3.7-8.2,3.7-8.2h0s.2,0,.2,0h.2c0,0,.3.2.3.2h.4c0,.1.4.2.4.2h.5c0,.1.6.2.6.2h.7c0,.1.7.2.7.2h.8c0,.1.9.2.9.2h1c0,0,1,.2,1,.2h1.1c0,0,1.2.1,1.2.1h1.2s1.3,0,1.3,0h1.4s1.5-.1,1.5-.1h1.5c0-.1,1.6-.3,1.6-.3l1.7-.2,1.7-.2h.9c0-.1.1-.2.1-.2h0s0,0,0,0l2-5.9h0s0,0,0,0h0c0,0-.6-.7-.6-.7l-1.2-1.2-1.2-1.2-1.2-1.1-1.1-1-1.1-.9-1.1-.9-1-.8-1-.7-1-.7-.9-.6-.9-.6-.8-.5-.8-.5-.7-.4-.7-.4-.6-.3-.5-.3-.5-.2-.4-.2h-.4c0-.1-.3-.3-.3-.3h-.2c0,0-.2-.1-.2-.1h0s2.1-8.8,2.1-8.8h0s.2,0,.2,0h.3s.3,0,.3,0h.4s.5,0,.5,0h.5s.6,0,.6,0h.7s.7,0,.7,0h.8s.9-.1.9-.1h1c0,0,1-.2,1-.2l1.1-.2,1.2-.2,1.2-.2,1.3-.3,1.3-.3,1.4-.4,1.5-.4,1.5-.5,1.6-.5,1.6-.6.8-.3h.1s0,0,0,0h0s.8-6.2.8-6.2h0s0,0,0,0h0c0,0-.7-.6-.7-.6l-1.4-1-1.4-.9-1.4-.8-1.3-.8-1.3-.7-1.2-.7-1.2-.6-1.1-.5-1.1-.5-1-.4-1-.4-.9-.3-.8-.3-.8-.3-.7-.2-.7-.2-.6-.2h-.5c0-.1-.5-.2-.5-.2h-.4c0,0-.3-.1-.3-.1h-.3s-.2,0-.2,0h0s.3-9,.3-9h0s.2,0,.2,0h.3s.3,0,.3,0h.4s.5-.1.5-.1h.5c0,0,.6-.2.6-.2h.7c0-.1.7-.3.7-.3l.8-.2.9-.2.9-.3,1-.3,1-.4,1.1-.4,1.2-.5,1.2-.5,1.3-.6,1.3-.6,1.4-.7,1.4-.7,1.5-.8,1.5-.9.8-.5h0c0,0,0,0,0,0h0s-.4-6.2-.4-6.2h0s0,0,0,0h-.1s-.8-.4-.8-.4l-1.6-.7-1.5-.6-1.5-.6-1.4-.5-1.4-.5-1.3-.4-1.3-.4-1.2-.3-1.1-.3-1.1-.2-1-.2-.9-.2h-.9c0-.1-.8-.2-.8-.2h-.7c0,0-.7-.1-.7-.1h-.6s-.5,0-.5,0h-.5s-.4,0-.4,0h-.3s-.3,0-.3,0h-.2s0,0,0,0l-1.5-8.9h0s.2,0,.2,0h.2c0,0,.3-.2.3-.2h.4c0-.1.4-.3.4-.3l.5-.2.6-.2.6-.3.7-.3.7-.4.8-.4.8-.5.9-.5.9-.6,1-.6,1-.7,1.1-.7,1.1-.8,1.2-.9,1.2-.9,1.2-1,1.3-1.1,1.3-1.2.7-.6h0c0,0,0,0,0,0h0s-1.6-6-1.6-6h0s0,0,0,0h-.1s-.9-.2-.9-.2l-1.7-.4-1.6-.3-1.6-.3-1.5-.2-1.4-.2h-1.4c0-.1-1.3-.2-1.3-.2h-1.2c0,0-1.2-.1-1.2-.1h-1.1s-1,0-1,0h-1s-.9,0-.9,0h-.8c0,0-.7.1-.7.1h-.7c0,0-.6.2-.6.2h-.5c0,0-.5.2-.5.2h-.4c0,0-.3.2-.3.2h-.2c0,0-.2.1-.2.1h0s-3.2-8.4-3.2-8.4h0s.2,0,.2,0h.2c0-.1.3-.3.3-.3l.3-.2.4-.2.5-.3.5-.3.6-.4.6-.4.7-.5.7-.5.7-.6.8-.7.8-.7.9-.8.9-.9.9-.9.9-1,1-1.1,1-1.2,1-1.2,1-1.3,1-1.4.5-.7h0c0,0,0-.1,0-.1h0s-2.8-5.6-2.8-5.6h0s0,0,0,0h-.1s-.9,0-.9,0h-1.7s-1.7,0-1.7,0h-1.6c0,0-1.5.1-1.5.1h-1.4c0,.1-1.4.2-1.4.2l-1.3.2-1.2.2-1.2.2-1.1.2-1,.2-.9.2-.9.2-.8.2-.7.2-.6.2-.6.2-.5.2-.4.2-.4.2h-.3c0,.1-.2.2-.2.2h-.2c0,0,0,0,0,0l-4.8-7.7Z"/>
      <circle class="st22" cx="844.8" cy="85.4" r="3.9"/>
    </g>
  </g>
  <g id="Layer_3">
    <g>
      <path id="gearpoly1" class="st15" d="M240.8,480l.8,2.7h0c0,0,0,.3,0,.3v.3c.1,0,.3.4.3.4l.2.4.3.5.3.6.4.7.5.7.5.8.6.8.7.9.8,1,.9,1,1,1,1.1,1.1,1.2,1.1,1.3,1.1,1.4,1.2,1.5,1.2.2.2h0s0,0,0,0h0s0,0,0,0l5.7-2.3h0s0,0,0,0h0s0,0,0,0v-.2s.2-1.9.2-1.9v-1.8c.1,0,.2-1.7.2-1.7v-1.6s0-1.5,0-1.5v-1.4s-.1-1.3-.1-1.3v-1.2c-.1,0-.3-1.1-.3-1.1l-.2-1-.2-.9-.2-.8-.2-.7-.2-.6-.2-.5-.2-.5v-.4c-.1,0-.2-.3-.2-.3v-.2c0,0-.1,0-.1,0l-1.3-2.5,8.8-5,1.5,2.3h0c0,0,.1.2.1.2l.2.2.2.3.3.4.4.4.5.5.5.5.6.6.7.6.8.7.9.7,1,.7,1.1.7,1.2.8,1.3.8,1.4.8,1.5.8,1.6.8,1.7.8h.2c0,0,0,.1,0,.1h0s0,0,0,0h0s4.9-3.7,4.9-3.7h0s0,0,0,0h0s0,0,0,0v-.2s-.3-1.9-.3-1.9l-.3-1.8-.4-1.7-.4-1.6-.4-1.5-.4-1.4-.4-1.3-.4-1.2-.4-1.1-.4-1-.4-.9-.4-.8-.4-.7-.3-.6-.3-.5-.3-.4-.2-.3-.2-.2v-.2c-.1,0-.2,0-.2,0l-1.9-2.1,7.2-7.1,2,1.9h0c0,0,.2.2.2.2l.2.2.3.2.4.3.5.3.6.3.7.4.8.4.9.4,1,.4,1.1.4,1.2.4,1.3.4,1.4.4,1.5.4,1.6.4,1.7.4,1.8.3,1.9.3h.2s0,0,0,0h0s0,0,0,0h0s3.8-4.9,3.8-4.9h0s0,0,0,0h0s0,0,0,0v-.2c0,0-.9-1.7-.9-1.7l-.8-1.6-.8-1.5-.8-1.4-.8-1.3-.8-1.2-.7-1.1-.7-1-.7-.9-.7-.8-.6-.7-.6-.6-.5-.6-.5-.5-.4-.4-.4-.3-.3-.2-.2-.2h-.2c0-.1,0-.2,0-.2l-2.3-1.5,5.1-8.7,2.5,1.3h0s.2.1.2.1h.3c0,.1.4.2.4.2l.5.2.5.2.6.2.7.2.8.2.9.2,1,.2h1.1c0,.1,1.2.3,1.2.3h1.3c0,0,1.4.2,1.4.2h1.5s1.6,0,1.6,0h1.7c0,0,1.8-.2,1.8-.2l1.9-.2h.2s0,0,0,0h0s0,0,0,0h0s2.4-5.7,2.4-5.7h0s0,0,0,0h0s0,0,0,0v-.2c-.1,0-1.3-1.5-1.3-1.5l-1.2-1.4-1.1-1.3-1.1-1.2-1.1-1.1-1-1-1-.9-.9-.8-.9-.7-.8-.6-.8-.5-.7-.5-.7-.4-.6-.3-.5-.3-.4-.2-.4-.2h-.3c0-.1-.2-.2-.2-.2h0s-2.6-.9-2.6-.9l2.7-9.7,2.7.6h.1s.2,0,.2,0h.3s.4,0,.4,0h.5s.6,0,.6,0h.7s.8,0,.8,0h.9s.9-.1.9-.1h1c0-.1,1.1-.3,1.1-.3l1.2-.2,1.3-.3,1.4-.3,1.5-.4,1.5-.4,1.6-.5,1.7-.6,1.8-.7h.2c0,0,0-.1,0-.1h0s0,0,0,0h0s.8-6.1.8-6.1h0s0,0,0,0h0s0,0,0,0h-.2c0-.1-1.5-1.3-1.5-1.3l-1.5-1-1.4-.9-1.4-.8-1.3-.8-1.3-.7-1.2-.6-1.1-.5-1-.4-1-.4-.9-.3-.8-.3-.7-.2-.6-.2h-.6c0-.1-.5-.2-.5-.2h-.4c0,0-.3-.1-.3-.1h-.2s-.1,0-.1,0h-2.8c0-.1,0-10.2,0-10.2h2.8c0-.1.1-.1.1-.1h.2s.3,0,.3,0h.4c0,0,.5-.2.5-.2h.6c0-.1.6-.3.6-.3l.7-.2.8-.3.9-.3,1-.4,1.1-.4,1.1-.5,1.2-.6,1.3-.7,1.3-.7,1.4-.8,1.4-.9,1.5-1,1.5-1.1h.2c0-.1,0-.2,0-.2h0s0,0,0,0h0s-.8-6.1-.8-6.1h0s0,0,0,0h0s0,0,0,0h-.2c0,0-1.8-.8-1.8-.8l-1.7-.6-1.6-.5-1.5-.5-1.5-.4-1.4-.3-1.3-.3-1.2-.2-1.1-.2h-1c0-.1-.9-.2-.9-.2h-.9s-.8,0-.8,0h-.7s-.6,0-.6,0h-.5s-.4,0-.4,0h-.3s-.2,0-.2,0h-.1s-2.7.6-2.7.6l-2.6-9.8,2.7-.8h0s.2-.1.2-.1h.3c0-.1.4-.3.4-.3l.4-.2.5-.3.6-.3.7-.4.7-.5.8-.5.8-.6.9-.7,1-.8,1-.9,1-1,1.1-1.1,1.1-1.2,1.1-1.3,1.2-1.4,1.2-1.5.2-.2h0s0,0,0,0h0s0,0,0,0l-2.3-5.7h0s0,0,0,0h0s0,0,0,0h-.2s-1.9-.2-1.9-.2h-1.8c0-.1-1.7-.2-1.7-.2h-1.6s-1.5,0-1.5,0h-1.4s-1.3.1-1.3.1h-1.2c0,.1-1.1.3-1.1.3l-1,.2-.9.2-.8.2-.7.2-.6.2-.5.2-.5.2h-.4c0,.1-.3.2-.3.2h-.2c0,0,0,.1,0,.1l-2.5,1.3-5-8.8,2.3-1.5h0c0,0,.2-.2.2-.2l.2-.2.3-.2.4-.3.4-.4.5-.5.5-.5.6-.6.6-.7.7-.8.7-.9.7-1,.7-1.1.8-1.2.8-1.3.8-1.4.8-1.5.8-1.6.8-1.7v-.2c0,0,.1,0,.1,0h0s0,0,0,0h0s-3.7-4.9-3.7-4.9h0s0,0,0,0h0s0,0,0,0h-.2s-1.9.3-1.9.3l-1.8.3-1.7.4-1.6.4-1.5.4-1.4.4-1.3.4-1.2.4-1.1.4-1,.4-.9.4-.8.4-.7.4-.6.3-.5.3-.4.3-.3.2-.2.2h-.2c0,.1,0,.2,0,.2l-2.1,1.9-7.1-7.2,1.9-2h0c0,0,.1-.2.1-.2l.2-.2.2-.3.3-.4.3-.5.3-.6.4-.7.4-.8.4-.9.4-1,.4-1.1.4-1.2.4-1.3.4-1.4.4-1.5.4-1.6.4-1.7.3-1.8.3-1.9v-.2s0,0,0,0h0s0,0,0,0h0s-4.9-3.8-4.9-3.8h0s0,0,0,0h0s0,0,0,0h-.2c0,0-1.7.9-1.7.9l-1.6.8-1.5.8-1.4.8-1.3.8-1.2.8-1.1.7-1,.7-.9.7-.8.7-.7.6-.6.6-.6.5-.5.5-.4.4-.3.4-.2.3-.2.2v.2c-.1,0-.2,0-.2,0l-1.5,2.3-8.7-5.1,1.3-2.5h0c0,0,0-.3,0-.3v-.3c.1,0,.2-.4.2-.4l.2-.5.2-.5.2-.6.2-.7.2-.8.2-.9.2-1v-1.1c.1,0,.3-1.2.3-1.2v-1.3c0,0,.2-1.4.2-1.4v-1.5s0-1.6,0-1.6v-1.7c0,0-.2-1.8-.2-1.8l-.2-1.9v-.2s0,0,0,0h0s0,0,0,0h0s-5.7-2.4-5.7-2.4h0s0,0,0,0h0s0,0,0,0h-.2c0,.1-1.5,1.3-1.5,1.3l-1.4,1.2-1.3,1.1-1.2,1.1-1.1,1.1-1,1-.9,1-.8.9-.7.9-.6.8-.5.8-.5.7-.4.7-.3.6-.3.5-.2.4-.2.4v.3c-.1,0-.2.2-.2.2h0c0,0-.9,2.7-.9,2.7l-9.7-2.7.6-2.7h0c0-.1,0-.3,0-.3v-.3s0-.4,0-.4v-.5s0-.6,0-.6v-.7s0-.8,0-.8v-.9s-.1-.9-.1-.9v-1c-.1,0-.3-1.1-.3-1.1l-.2-1.2-.3-1.3-.3-1.4-.4-1.5-.4-1.5-.5-1.6-.6-1.7-.7-1.8v-.2c0,0-.1,0-.1,0h0s0,0,0,0h0s-6.1-.8-6.1-.8h0s0,0,0,0h0s0,0,0,0v.2c-.1,0-1.3,1.5-1.3,1.5l-1,1.5-.9,1.4-.8,1.4-.8,1.3-.7,1.3-.6,1.2-.5,1.1-.4,1-.4,1-.3.9-.3.8-.2.7-.2.6v.6c-.1,0-.2.5-.2.5v.4c0,0-.1.3-.1.3v.2s0,.1,0,.1v2.8c-.1,0-10.2,0-10.2,0v-2.8c-.1,0-.1-.1-.1-.1v-.2s0-.3,0-.3v-.4c0,0-.2-.5-.2-.5v-.6c-.1,0-.3-.6-.3-.6l-.2-.7-.3-.8-.3-.9-.4-1-.4-1.1-.5-1.1-.6-1.2-.7-1.3-.7-1.3-.8-1.4-.9-1.4-1-1.5-1.1-1.5v-.2c-.1,0-.2,0-.2,0h0s0,0,0,0h0s-6.1.8-6.1.8h0s0,0,0,0h0s0,0,0,0v.2c0,0-.8,1.8-.8,1.8l-.6,1.7-.5,1.6-.5,1.5-.4,1.5-.3,1.4-.3,1.3-.2,1.2-.2,1.1v1c-.1,0-.2.9-.2.9v.9s0,.8,0,.8v.7s0,.6,0,.6v.5s0,.4,0,.4v.3s0,.2,0,.2h0c0,.1.6,2.8.6,2.8l-9.8,2.6-.8-2.7h0c0,0,0-.3,0-.3v-.3c-.1,0-.3-.4-.3-.4l-.2-.4-.3-.5-.3-.6-.4-.7-.5-.7-.5-.8-.6-.8-.7-.9-.8-1-.9-1-1-1-1.1-1.1-1.2-1.1-1.3-1.1-1.4-1.2-1.5-1.2-.2-.2h0s0,0,0,0h0s0,0,0,0l-5.7,2.3h0s0,0,0,0h0s0,0,0,0v.2s-.2,1.9-.2,1.9v1.8c-.1,0-.2,1.7-.2,1.7v1.6s0,1.5,0,1.5v1.4s.1,1.3.1,1.3v1.2c.1,0,.3,1.1.3,1.1l.2,1,.2.9.2.8.2.7.2.6.2.5.2.5v.4c.1,0,.2.3.2.3v.2c0,0,.1,0,.1,0l1.3,2.5-8.8,5-1.5-2.3h0c0,0-.1-.2-.1-.2l-.2-.2-.2-.3-.3-.4-.4-.4-.5-.5-.5-.5-.6-.6-.7-.6-.8-.7-.9-.7-1-.7-1.1-.7-1.2-.8-1.3-.8-1.4-.8-1.5-.8-1.6-.8-1.7-.8h-.2c0,0,0-.1,0-.1h0s0,0,0,0h0s-4.9,3.7-4.9,3.7h0s0,0,0,0h0s0,0,0,0v.2s.3,1.9.3,1.9l.3,1.8.4,1.7.4,1.6.4,1.5.4,1.4.4,1.3.4,1.2.4,1.1.4,1,.4.9.4.8.4.7.3.6.3.5.3.4.2.3.2.2v.2c.1,0,.2,0,.2,0l1.9,2.1-7.2,7.1-2-1.9h0c0,0-.2-.2-.2-.2l-.2-.2-.3-.2-.4-.3-.5-.3-.6-.3-.7-.4-.8-.4-.9-.4-1-.4-1.1-.4-1.2-.4-1.3-.4-1.4-.4-1.5-.4-1.6-.4-1.7-.4-1.8-.3-1.9-.3h-.2s0,0,0,0h0s0,0,0,0h0s-3.8,4.9-3.8,4.9h0s0,0,0,0h0s0,0,0,0v.2c0,0,.9,1.7.9,1.7l.8,1.6.8,1.5.8,1.4.8,1.3.8,1.2.7,1.1.7,1,.7.9.7.8.6.7.6.6.5.6.5.5.4.4.4.3.3.2.2.2h.2c0,.1,0,.2,0,.2l2.3,1.5-5.1,8.7-2.5-1.3h0s-.2-.1-.2-.1h-.3c0-.1-.4-.2-.4-.2l-.5-.2-.5-.2-.6-.2-.7-.2-.8-.2-.9-.2-1-.2h-1.1c0-.1-1.2-.3-1.2-.3h-1.3c0,0-1.4-.2-1.4-.2h-1.5s-1.6,0-1.6,0h-1.7c0,0-1.8.2-1.8.2l-1.9.2h-.2s0,0,0,0h0s0,0,0,0h0s-2.4,5.7-2.4,5.7h0s0,0,0,0h0s0,0,0,0v.2c.1,0,1.3,1.5,1.3,1.5l1.2,1.4,1.1,1.3,1.1,1.2,1.1,1.1,1,1,1,.9.9.8.9.7.8.6.8.5.7.5.7.4.6.3.5.3.4.2.4.2h.3c0,.1.2.2.2.2h0s2.6.9,2.6.9l-2.7,9.7-2.7-.6h-.1s-.2,0-.2,0h-.3s-.4,0-.4,0h-.5s-.6,0-.6,0h-.7s-.8,0-.8,0h-.9s-.9.1-.9.1h-1c0,.1-1.1.3-1.1.3l-1.2.2-1.3.3-1.4.3-1.5.4-1.5.4-1.6.5-1.7.6-1.8.7h-.2c0,0,0,.1,0,.1h0s0,0,0,0h0s-.8,6.1-.8,6.1h0s0,0,0,0h0s0,0,0,0h.2c0,.1,1.5,1.3,1.5,1.3l1.5,1,1.4.9,1.4.8,1.3.8,1.3.7,1.2.6,1.1.5,1,.4,1,.4.9.3.8.3.7.2.6.2h.6c0,.1.5.2.5.2h.4c0,0,.3.1.3.1h.2s.1,0,.1,0h2.8c0,.1,0,10.2,0,10.2h-2.8c0,.1-.1.1-.1.1h-.2s-.3,0-.3,0h-.4c0,0-.5.2-.5.2h-.6c0,.1-.6.3-.6.3l-.7.2-.8.3-.9.3-1,.4-1.1.4-1.1.5-1.2.6-1.3.7-1.3.7-1.4.8-1.4.9-1.5,1-1.5,1.1h-.2c0,.1,0,.2,0,.2h0s0,0,0,0h0s.8,6.1.8,6.1h0s0,0,0,0h0s0,0,0,0h.2c0,0,1.8.8,1.8.8l1.7.6,1.6.5,1.5.5,1.5.4,1.4.3,1.3.3,1.2.2,1.1.2h1c0,.1.9.2.9.2h.9s.8,0,.8,0h.7s.6,0,.6,0h.5s.4,0,.4,0h.3s.2,0,.2,0h.1s2.7-.6,2.7-.6l2.6,9.8-2.7.8h0s-.2.1-.2.1h-.3c0,.1-.4.3-.4.3l-.4.2-.5.3-.6.3-.7.4-.7.5-.8.5-.8.6-.9.7-1,.8-1,.9-1,1-1.1,1.1-1.1,1.2-1.1,1.3-1.2,1.4-1.2,1.5-.2.2h0s0,0,0,0h0s0,0,0,0l2.3,5.7h0s0,0,0,0h0s0,0,0,0h.2s1.9.2,1.9.2h1.8c0,.1,1.7.2,1.7.2h1.6s1.5,0,1.5,0h1.4s1.3-.1,1.3-.1h1.2c0-.1,1.1-.3,1.1-.3l1-.2.9-.2.8-.2.7-.2.6-.2.5-.2.5-.2h.4c0-.1.3-.2.3-.2h.2c0,0,0-.1,0-.1l2.5-1.3,5,8.8-2.3,1.5h0c0,0-.2.2-.2.2l-.2.2-.3.2-.4.3-.4.4-.5.5-.5.5-.6.6-.6.7-.7.8-.7.9-.7,1-.7,1.1-.8,1.2-.8,1.3-.8,1.4-.8,1.5-.8,1.6-.8,1.7v.2c0,0-.1,0-.1,0h0s0,0,0,0h0s3.7,4.9,3.7,4.9h0s0,0,0,0h0s0,0,0,0h.2s1.9-.3,1.9-.3l1.8-.3,1.7-.4,1.6-.4,1.5-.4,1.4-.4,1.3-.4,1.2-.4,1.1-.4,1-.4.9-.4.8-.4.7-.4.6-.3.5-.3.4-.3.3-.2.2-.2h.2c0-.1,0-.2,0-.2l2.1-1.9,7.1,7.2-1.9,2h0c0,0-.1.2-.1.2l-.2.2-.2.3-.3.4-.3.5-.3.6-.4.7-.4.8-.4.9-.4,1-.4,1.1-.4,1.2-.4,1.3-.4,1.4-.4,1.5-.4,1.6-.4,1.7-.3,1.8-.3,1.9v.2s0,0,0,0h0s0,0,0,0h0s4.9,3.8,4.9,3.8h0s0,0,0,0h0s0,0,0,0h.2c0,0,1.7-.9,1.7-.9l1.6-.8,1.5-.8,1.4-.8,1.3-.8,1.2-.8,1.1-.7,1-.7.9-.7.8-.7.7-.6.6-.6.6-.5.5-.5.4-.4.3-.4.2-.3.2-.2v-.2c.1,0,.2,0,.2,0l1.5-2.3,8.7,5.1-1.3,2.5h0c0,0,0,.3,0,.3v.3c-.1,0-.2.4-.2.4l-.2.5-.2.5-.2.6-.2.7-.2.8-.2.9-.2,1v1.1c-.1,0-.3,1.2-.3,1.2v1.3c0,0-.2,1.4-.2,1.4v1.5s0,1.6,0,1.6v1.7c0,0,.2,1.8.2,1.8l.2,1.9v.2s0,0,0,0h0s0,0,0,0h0s5.7,2.4,5.7,2.4h0s0,0,0,0h0s0,0,0,0h.2c0-.1,1.5-1.3,1.5-1.3l1.4-1.2,1.3-1.1,1.2-1.1,1.1-1.1,1-1,.9-1,.8-.9.7-.9.6-.8.5-.8.5-.7.4-.7.3-.6.3-.5.2-.4.2-.4v-.3c.1,0,.2-.2.2-.2h0c0,0,.9-2.7.9-2.7l9.7,2.7-.6,2.7h0c0,.1,0,.3,0,.3v.3s0,.4,0,.4v.5s0,.6,0,.6v.7s0,.8,0,.8v.9s.1.9.1.9v1c.1,0,.3,1.1.3,1.1l.2,1.2.3,1.3.3,1.4.4,1.5.4,1.5.5,1.6.6,1.7.7,1.8v.2c0,0,.1,0,.1,0h0s0,0,0,0h0s6.1.8,6.1.8h0s0,0,0,0h0s0,0,0,0v-.2c.1,0,1.3-1.5,1.3-1.5l1-1.5.9-1.4.8-1.4.8-1.3.7-1.3.6-1.2.5-1.1.4-1,.4-1,.3-.9.3-.8.2-.7.2-.6v-.6c.1,0,.2-.5.2-.5v-.4c0,0,.1-.3.1-.3v-.2s0-.1,0-.1v-2.8c.1,0,10.2,0,10.2,0v2.8c.1,0,.1.1.1.1v.2s0,.3,0,.3v.4c0,0,.2.5.2.5v.6c.1,0,.3.6.3.6l.2.7.3.8.3.9.4,1,.4,1.1.5,1.1.6,1.2.7,1.3.7,1.3.8,1.4.9,1.4,1,1.5,1.1,1.5v.2c.1,0,.2,0,.2,0h0s0,0,0,0h0s6.1-.8,6.1-.8h0s0,0,0,0h0s0,0,0,0v-.2c0,0,.8-1.8.8-1.8l.6-1.7.5-1.6.5-1.5.4-1.5.3-1.4.3-1.3.2-1.2.2-1.1v-1c.1,0,.2-.9.2-.9v-.9s0-.8,0-.8v-.7s0-.6,0-.6v-.5s0-.4,0-.4v-.3s0-.2,0-.2h0c0-.1-.6-2.8-.6-2.8l9.8-2.6Z"/>
      <circle class="st22" cx="253.8" cy="487.5" r="3.9"/>
    </g>
  </g>
  <g id="Layer_2">
    <path id="gearpolyP6" class="st17" d="M86.1,272.6l.7-.2h.7c0-.1.7-.2.7-.2h.7s.7,0,.7,0h.7c0,0,.7.2.7.2l.7.2.7.3.7.3.6.4.6.4.6.5.5.5.5.6.4.6,6.4,3.5,4.1-2.7-.7-7.3-.4-.6-.3-.7-.3-.7-.2-.7-.2-.7v-.7c-.1,0-.1-.7-.1-.7v-.7s.1-.7.1-.7v-.7c.1,0,.3-.7.3-.7l.3-.7.3-.7.4-.6.4-.6.5-.6.5-.5.6-.5.6-.4.6-.4.7-.3.7-.3.7-.2.7-.2h.7c0-.1.7-.2.7-.2h.7s.7,0,.7,0h.7c0,.1.7.3.7.3l.7.2.7.3,7.3-.2,2.2-4.4-4.3-6-.7-.4-.6-.4-.6-.5-.5-.5-.5-.5-.5-.6-.4-.6-.4-.7-.3-.7-.2-.7-.2-.7v-.7c-.1,0-.2-.7-.2-.7v-.7s0-.7,0-.7v-.7c.1,0,.3-.7.3-.7l.2-.7.3-.7.3-.7.4-.6.5-.6.5-.6.5-.5.6-.5.6-.4.6-.4.7-.3.7-.3.7-.2h.7c0-.1.7-.2.7-.2l6.2-3.8-.3-4.9-6.7-3h-.7s-.7,0-.7,0h-.7c0-.1-.7-.3-.7-.3l-.7-.2-.7-.3-.7-.3-.6-.4-.6-.4-.6-.5-.5-.5-.5-.6-.4-.6-.4-.6-.3-.7-.3-.7-.2-.7v-.7c-.1,0-.2-.7-.2-.7v-.7s0-.7,0-.7v-.7c0,0,.2-.7.2-.7l.2-.7.3-.7.3-.7.4-.6.4-.6.5-.6.5-.5.6-.5.6-.4,3.5-6.4-2.7-4.1-7.3.7-.6.4-.7.3-.7.3-.7.2-.7.2h-.7c0,.1-.7.1-.7.1h-.7s-.7-.1-.7-.1h-.7c0-.1-.7-.3-.7-.3l-.7-.3-.7-.3-.6-.4-.6-.4-.6-.5-.5-.5-.5-.6-.4-.6-.4-.6-.3-.7-.3-.7-.2-.7-.2-.7v-.7c-.1,0-.2-.7-.2-.7v-.7s0-.7,0-.7v-.7c.1,0,.3-.7.3-.7l.2-.7.3-.7-.2-7.3-4.4-2.2-6,4.3-.4.7-.4.6-.5.6-.5.5-.5.5-.6.5-.6.4-.7.4-.7.3-.7.2-.7.2h-.7c0,.1-.7.2-.7.2h-.7s-.7,0-.7,0h-.7c0-.1-.7-.3-.7-.3l-.7-.2-.7-.3-.7-.3-.6-.4-.6-.5-.6-.5-.5-.5-.5-.6-.4-.6-.4-.6-.3-.7-.3-.7-.2-.7v-.7c-.1,0-.2-.7-.2-.7l-3.8-6.2-4.9.3-3,6.7v.7s0,.7,0,.7v.7c-.1,0-.3.7-.3.7l-.2.7-.3.7-.3.7-.4.6-.4.6-.5.6-.5.5-.6.5-.6.4-.6.4-.7.3-.7.3-.7.2h-.7c0,.1-.7.2-.7.2h-.7s-.7,0-.7,0h-.7c0,0-.7-.2-.7-.2l-.7-.2-.7-.3-.7-.3-.6-.4-.6-.4-.6-.5-.5-.5-.5-.6-.4-.6-6.4-3.5-4.1,2.7.7,7.3.4.6.3.7.3.7.2.7.2.7v.7c.1,0,.1.7.1.7v.7s-.1.7-.1.7v.7c-.1,0-.3.7-.3.7l-.3.7-.3.7-.4.6-.4.6-.5.6-.5.5-.6.5-.6.4-.6.4-.7.3-.7.3-.7.2-.7.2h-.7c0,.1-.7.2-.7.2h-.7s-.7,0-.7,0h-.7c0-.1-.7-.3-.7-.3l-.7-.2-.7-.3-7.3.2-2.2,4.4,4.3,6,.7.4.6.4.6.5.5.5.5.5.5.6.4.6.4.7.3.7.2.7.2.7v.7c.1,0,.2.7.2.7v.7s0,.7,0,.7v.7c-.1,0-.3.7-.3.7l-.2.7-.3.7-.3.7-.4.6-.5.6-.5.6-.5.5-.6.5-.6.4-.6.4-.7.3-.7.3-.7.2h-.7c0,.1-.7.2-.7.2l-6.2,3.8.3,4.9,6.7,3h.7s.7,0,.7,0h.7c0,.1.7.3.7.3l.7.2.7.3.7.3.6.4.6.4.6.5.5.5.5.6.4.6.4.6.3.7.3.7.2.7v.7c.1,0,.2.7.2.7v.7s0,.7,0,.7v.7c0,0-.2.7-.2.7l-.2.7-.3.7-.3.7-.4.6-.4.6-.5.6-.5.5-.6.5-.6.4-3.5,6.4,2.7,4.1,7.3-.7.6-.4.7-.3.7-.3.7-.2.7-.2h.7c0-.1.7-.1.7-.1h.7s.7.1.7.1h.7c0,.1.7.3.7.3l.7.3.7.3.6.4.6.4.6.5.5.5.5.6.4.6.4.6.3.7.3.7.2.7.2.7v.7c.1,0,.2.7.2.7v.7s0,.7,0,.7v.7c-.1,0-.3.7-.3.7l-.2.7-.3.7.2,7.3,4.4,2.2,6-4.3.4-.7.4-.6.5-.6.5-.5.5-.5.6-.5.6-.4.7-.4.7-.3.7-.2.7-.2h.7c0-.1.7-.2.7-.2h.7s.7,0,.7,0h.7c0,.1.7.3.7.3l.7.2.7.3.7.3.6.4.6.5.6.5.5.5.5.6.4.6.4.6.3.7.3.7.2.7v.7c.1,0,.2.7.2.7l3.8,6.2,4.9-.3,3-6.7v-.7s0-.7,0-.7v-.7c.1,0,.3-.7.3-.7l.2-.7.3-.7.3-.7.4-.6.4-.6.5-.6.5-.5.6-.5.6-.4.6-.4.7-.3.7-.3Z"/>
    <path id="gearpolyS6" class="st16" d="M367.2,241.1l-.5.6-.6.6-.6.5-.7.5-.7.4-.7.4-.8.3-.8.2h-.8c0,.1-.8.2-.8.2h-.8s-.8,0-.8,0h-.8c0-.1-.8-.4-.8-.4l-.8-.3-.7-.4-6.6.6-2.2,4,3.1,5.8.7.4.7.5.6.5.6.6.5.6.5.7.4.7.3.8.3.8.2.8v.8c.1,0,.1.8.1.8v.8s-.2.8-.2.8l-.2.8-.3.8-.3.8-.4.7-.5.7-.5.6-.6.6-.6.5-.7.5-.7.4-.7.4-.8.3-.8.2h-.8c0,.1-.8.2-.8.2h-.8s-.8,0-.8,0l-.8-.2-6.2,2.3-1,4.4,4.5,4.8.8.2.8.3.7.4.7.4.7.5.6.5.6.6.5.6.4.7.4.7.3.8.2.8.2.8v.8c.1,0,.1.8.1.8v.8s-.2.8-.2.8l-.2.8-.3.8-.3.7-.4.7-.5.7-.5.6-.6.6-.6.5-.7.5-.7.4-.7.3-.8.3-.8.2h-.8c0,.1-.8.2-.8.2l-5.4,3.8v4.6c.1,0,5.8,3.5,5.8,3.5h.8s.8,0,.8,0l.8.2.8.2.8.3.7.4.7.4.7.5.6.5.6.6.5.6.4.7.4.7.3.8.2.8.2.8v.8c0,0,.1.8.1.8v.8c0,0-.2.8-.2.8l-.2.8-.3.8-.3.7-.4.7-.5.7-.5.6-.6.6-.6.5-.7.5-.7.4-.7.3-.8.3-4.2,5.1,1.3,4.4,6.3,1.9.8-.2h.8c0-.1.8-.2.8-.2h.8s.8.1.8.1l.8.2.8.2.8.3.7.4.7.4.7.5.6.6.6.6.5.7.4.7.4.7.3.8.2.8.2.8v.8c0,0,.1.8.1.8v.8c0,0-.2.8-.2.8l-.2.8-.3.8-.3.7-.4.7-.5.7-.5.6-.6.6-.6.5-.7.5-2.8,6,2.4,3.9,6.6.2.7-.4.7-.3.8-.3.8-.2h.8c0-.1.8-.2.8-.2h.8s.8.1.8.1l.8.2.8.2.8.3.7.4.7.4.6.5.6.6.5.6.5.7.4.7.4.7.3.8.2.8.2.8v.8c0,0,0,.8,0,.8v.8c0,0-.2.8-.2.8l-.2.8-.3.8-.3.7-.4.7-.5.7-.5.6-1.1,6.5,3.3,3.1,6.4-1.5.6-.6.6-.5.7-.5.7-.4.7-.3.8-.3.8-.2h.8c0-.1.8-.2.8-.2h.8s.8.1.8.1l.8.2.8.2.8.3.7.4.7.4.6.5.6.6.5.6.5.7.4.7.4.7.3.8.2.8v.8c.1,0,.2.8.2.8v.8s0,.8,0,.8v.8c-.1,0-.4.8-.4.8l-.3.8-.4.7.6,6.6,4,2.2,5.8-3.1.4-.7.5-.7.5-.6.6-.6.6-.5.7-.5.7-.4.8-.3.8-.3.8-.2h.8c0-.1.8-.1.8-.1h.8s.8.2.8.2l.8.2.8.3.8.3.7.4.7.5.6.5.6.6.5.6.5.7.4.7.4.7.3.8.2.8v.8c.1,0,.2.8.2.8v.8s0,.8,0,.8l-.2.8,2.3,6.2,4.4,1,4.8-4.5.2-.8.3-.8.4-.7.4-.7.5-.7.5-.6.6-.6.6-.5.7-.4.7-.4.8-.3.8-.2.8-.2h.8c0-.1.8-.1.8-.1h.8s.8.2.8.2l.8.2.8.3.7.3.7.4.7.5.6.5.6.6.5.6.5.7.4.7.3.7.3.8.2.8v.8c.1,0,.2.8.2.8l3.8,5.4h4.6c0-.1,3.5-5.8,3.5-5.8v-.8s0-.8,0-.8l.2-.8.2-.8.3-.8.4-.7.4-.7.5-.7.5-.6.6-.6.6-.5.7-.4.7-.4.8-.3.8-.2.8-.2h.8c0,0,.8-.1.8-.1h.8c0,0,.8.2.8.2l.8.2.8.3.7.3.7.4.7.5.6.5.6.6.5.6.5.7.4.7.3.7.3.8,5.1,4.2,4.4-1.3,1.9-6.3-.2-.8v-.8c-.1,0-.2-.8-.2-.8v-.8s.1-.8.1-.8l.2-.8.2-.8.3-.8.4-.7.4-.7.5-.7.6-.6.6-.6.7-.5.7-.4.7-.4.8-.3.8-.2.8-.2h.8c0,0,.8-.1.8-.1h.8c0,0,.8.2.8.2l.8.2.8.3.7.3.7.4.7.5.6.5.6.6.5.6.5.7,6,2.8,3.9-2.4.2-6.6-.4-.7-.3-.7-.3-.8-.2-.8v-.8c-.1,0-.2-.8-.2-.8v-.8s.1-.8.1-.8l.2-.8.2-.8.3-.8.4-.7.4-.7.5-.6.6-.6.6-.5.7-.5.7-.4.7-.4.8-.3.8-.2.8-.2h.8c0,0,.8,0,.8,0h.8c0,0,.8.2.8.2l.8.2.8.3.7.3.7.4.7.5.6.5,6.5,1.1,3.1-3.3-1.5-6.4-.6-.6-.5-.6-.5-.7-.4-.7-.3-.7-.3-.8-.2-.8v-.8c-.1,0-.2-.8-.2-.8v-.8s.1-.8.1-.8l.2-.8.2-.8.3-.8.4-.7.4-.7.5-.6.6-.6.6-.5.7-.5.7-.4.7-.4.8-.3.8-.2h.8c0-.1.8-.2.8-.2h.8s.8,0,.8,0h.8c0,.1.8.4.8.4l.8.3.7.4,6.6-.6,2.2-4-3.1-5.8-.7-.4-.7-.5-.6-.5-.6-.6-.5-.6-.5-.7-.4-.7-.3-.8-.3-.8-.2-.8v-.8c-.1,0-.1-.8-.1-.8v-.8s.2-.8.2-.8l.2-.8.3-.8.3-.8.4-.7.5-.7.5-.6.6-.6.6-.5.7-.5.7-.4.7-.4.8-.3.8-.2h.8c0-.1.8-.2.8-.2h.8s.8,0,.8,0l.8.2,6.2-2.3,1-4.4-4.5-4.8-.8-.2-.8-.3-.7-.4-.7-.4-.7-.5-.6-.5-.6-.6-.5-.6-.4-.7-.4-.7-.3-.8-.2-.8-.2-.8v-.8c-.1,0-.1-.8-.1-.8v-.8s.2-.8.2-.8l.2-.8.3-.8.3-.7.4-.7.5-.7.5-.6.6-.6.6-.5.7-.5.7-.4.7-.3.8-.3.8-.2h.8c0-.1.8-.2.8-.2l5.4-3.8v-4.6c-.1,0-5.8-3.5-5.8-3.5h-.8s-.8,0-.8,0l-.8-.2-.8-.2-.8-.3-.7-.4-.7-.4-.7-.5-.6-.5-.6-.6-.5-.6-.4-.7-.4-.7-.3-.8-.2-.8-.2-.8v-.8c0,0-.1-.8-.1-.8v-.8c0,0,.2-.8.2-.8l.2-.8.3-.8.3-.7.4-.7.5-.7.5-.6.6-.6.6-.5.7-.5.7-.4.7-.3.8-.3,4.2-5.1-1.3-4.4-6.3-1.9-.8.2h-.8c0,.1-.8.2-.8.2h-.8s-.8-.1-.8-.1l-.8-.2-.8-.2-.8-.3-.7-.4-.7-.4-.7-.5-.6-.6-.6-.6-.5-.7-.4-.7-.4-.7-.3-.8-.2-.8-.2-.8v-.8c0,0-.1-.8-.1-.8v-.8c0,0,.2-.8.2-.8l.2-.8.3-.8.3-.7.4-.7.5-.7.5-.6.6-.6.6-.5.7-.5,2.8-6-2.4-3.9-6.6-.2-.7.4-.7.3-.8.3-.8.2h-.8c0,.1-.8.2-.8.2h-.8s-.8-.1-.8-.1l-.8-.2-.8-.2-.8-.3-.7-.4-.7-.4-.6-.5-.6-.6-.5-.6-.5-.7-.4-.7-.4-.7-.3-.8-.2-.8-.2-.8v-.8c0,0,0-.8,0-.8v-.8c0,0,.2-.8.2-.8l.2-.8.3-.8.3-.7.4-.7.5-.7.5-.6,1.1-6.5-3.3-3.1-6.4,1.5-.6.6-.6.5-.7.5-.7.4-.7.3-.8.3-.8.2h-.8c0,.1-.8.2-.8.2h-.8s-.8-.1-.8-.1l-.8-.2-.8-.2-.8-.3-.7-.4-.7-.4-.6-.5-.6-.6-.5-.6-.5-.7-.4-.7-.4-.7-.3-.8-.2-.8v-.8c-.1,0-.2-.8-.2-.8v-.8s0-.8,0-.8v-.8c.1,0,.4-.8.4-.8l.3-.8.4-.7-.6-6.6-4-2.2-5.8,3.1-.4.7-.5.7-.5.6-.6.6-.6.5-.7.5-.7.4-.8.3-.8.3-.8.2h-.8c0,.1-.8.1-.8.1h-.8s-.8-.2-.8-.2l-.8-.2-.8-.3-.8-.3-.7-.4-.7-.5-.6-.5-.6-.6-.5-.6-.5-.7-.4-.7-.4-.7-.3-.8-.2-.8v-.8c-.1,0-.2-.8-.2-.8v-.8s0-.8,0-.8l.2-.8-2.3-6.2-4.4-1-4.8,4.5-.2.8-.3.8-.4.7-.4.7-.5.7-.5.6-.6.6-.6.5-.7.4-.7.4-.8.3-.8.2-.8.2h-.8c0,.1-.8.1-.8.1h-.8s-.8-.2-.8-.2l-.8-.2-.8-.3-.7-.3-.7-.4-.7-.5-.6-.5-.6-.6-.5-.6-.5-.7-.4-.7-.3-.7-.3-.8-.2-.8v-.8c-.1,0-.2-.8-.2-.8l-3.8-5.4h-4.6c0,.1-3.5,5.8-3.5,5.8v.8s0,.8,0,.8l-.2.8-.2.8-.3.8-.4.7-.4.7-.5.7-.5.6-.6.6-.6.5-.7.4-.7.4-.8.3-.8.2-.8.2h-.8c0,0-.8.1-.8.1h-.8c0,0-.8-.2-.8-.2l-.8-.2-.8-.3-.7-.3-.7-.4-.7-.5-.6-.5-.6-.6-.5-.6-.5-.7-.4-.7-.3-.7-.3-.8-5.1-4.2-4.4,1.3-1.9,6.3.2.8v.8c.1,0,.2.8.2.8v.8s-.1.8-.1.8l-.2.8-.2.8-.3.8-.4.7-.4.7-.5.7-.6.6-.6.6-.7.5-.7.4-.7.4-.8.3-.8.2-.8.2h-.8c0,0-.8.1-.8.1h-.8c0,0-.8-.2-.8-.2l-.8-.2-.8-.3-.7-.3-.7-.4-.7-.5-.6-.5-.6-.6-.5-.6-.5-.7-6-2.8-3.9,2.4-.2,6.6.4.7.3.7.3.8.2.8v.8c.1,0,.2.8.2.8v.8s-.1.8-.1.8l-.2.8-.2.8-.3.8-.4.7-.4.7-.5.6-.6.6-.6.5-.7.5-.7.4-.7.4-.8.3-.8.2-.8.2h-.8c0,0-.8,0-.8,0h-.8c0,0-.8-.2-.8-.2l-.8-.2-.8-.3-.7-.3-.7-.4-.7-.5-.6-.5-6.5-1.1-3.1,3.3,1.5,6.4.6.6.5.6.5.7.4.7.3.7.3.8.2.8v.8c.1,0,.2.8.2.8v.8s-.1.8-.1.8l-.2.8-.2.8-.3.8-.4.7-.4.7Z"/>
  </g>
  <g id="Layer_7">
    <path class="st21" d="M538.2,475.4h1.1s1.1,0,1.1,0l1.1.2,1.1.3,1,.4,1,.5.9.6.9.7.8.8.7.8.6.9.5,1,.4,1,.3,1,.2,1.1v1.1c.1,0,.2,1.1.2,1.1v1.1c0,0-.2,1.1-.2,1.1l-.3,1.1-.4,1-.5,1-.6.9-.7.9-.7.8-.8.7-.9.7-.9.6-1,.5-1,.4-1.1.3-1.1.2h-1.1c0,0-1.1,0-1.1,0h-1.1c0-.1-1.1-.4-1.1-.4l-2.1-.6-2.1-.5-2.1-.5-2.2-.4-2.2-.3-2.2-.3-2.2-.2-2.2-.2h-2.2c0,0-2.2-.1-2.2-.1h-2.2s-2.2.1-2.2.1h-1.1s-1.1,0-1.1,0l-1.1-.2-1.1-.3-1-.4-1-.5-.9-.6-.9-.7-.8-.8-.7-.8-.6-.9-.5-1-.4-1-.3-1-.2-1.1v-1.1c-.1,0-.2-1.1-.2-1.1v-1.1c0,0,.2-1.1.2-1.1l.3-1.1.4-1,.5-1,.6-.9.7-.9.7-.8.8-.7.9-.7.9-.6,1-.5,1-.4,1.1-.3,1.1-.2h1.1c0,0,1.1,0,1.1,0h1.1c0,.1,1.1.4,1.1.4l2.1.6,2.1.5,2.1.5,2.2.4,2.2.3,2.2.3,2.2.2,2.2.2h2.2c0,0,2.2.1,2.2.1h2.2s2.2-.1,2.2-.1Z"/>
    <circle class="st21" cx="538.8" cy="486.9" r="4.3"/>
    <path class="st21" d="M562.9,441.8l1.5-.6,1.6-.4,1.6-.2h1.6s1.6.2,1.6.2l1.6.4,1.6.6,1.5.7,1.4.9,1.3,1.1,1.1,1.2,1,1.3.8,1.4.7,1.5.5,1.6.3,1.6v1.6c.1,0,0,1.6,0,1.6l-.3,1.6-.5,1.6-.6,1.5-.8,1.4-1,1.3-1.1,1.2-1.3,1.1-1.4.9-1.5.7-1.5.6-1.6.4-1.6.2h-1.6s-1.6-.2-1.6-.2l-1.6-.4-1.6-.6-1.5-.7-1.4-.9-1.1-.8-1.2-.7-1.3-.6-1.3-.4-1.3-.3-1.4-.2h-1.4c0,0-1.4,0-1.4,0h-1.4c0,.1-1.4.4-1.4.4l-1.3.4-1.3.5-1.5.6-1.6.4-1.6.2h-1.6s-1.6-.2-1.6-.2l-1.6-.4-1.6-.6-1.5-.7-1.4-.9-1.3-1.1-1.1-1.2-1-1.3-.8-1.4-.7-1.5-.5-1.6-.3-1.6v-1.6c-.1,0,0-1.6,0-1.6l.3-1.6.5-1.6.6-1.5.8-1.4,1-1.3,1.1-1.2,1.3-1.1,1.4-.9,1.5-.7,1.5-.6,1.6-.4,1.6-.2h1.6s1.6.2,1.6.2l1.6.4,1.6.6,1.5.7,1.4.9,1.1.8,1.2.7,1.3.6,1.3.4,1.3.3,1.4.2h1.4c0,0,1.4,0,1.4,0h1.4c0-.1,1.4-.4,1.4-.4l1.3-.4,1.3-.5Z"/>
    <circle class="st21" cx="599.8" cy="454.8" r="9.1"/>
    <circle class="st21" cx="568.6" cy="454.8" r="4.3"/>
    <circle class="st21" cx="599.8" cy="454.8" r="4.3"/>
    <circle class="st21" cx="538.8" cy="451.4" r="4.3"/>
    <circle class="st21" cx="509" cy="483.5" r="4.3"/>
  </g>
  <g id="Layer_4">
    <g>
      <path id="gearpoly7" class="st19" d="M332.5,59.7l-5.7-4.3h-.1c0,0-.3-.3-.3-.3l-.5-.2-.7-.3-.8-.3-1-.3-1.2-.3-1.4-.3-1.6-.2h-1.8c0-.1-2-.1-2-.1h-2.2c0,.1-1.2.2-1.2.2h-.6c0,0-.2,0-.2,0h0s0,0,0,0h0s0,0,0,0l-2.3,4.3h0s0,0,0,0h0s0,0,0,0h0c0,.1.3.7.3.7l.6,1,1.1,1.9,1.1,1.7,1.1,1.5,1.1,1.3,1,1.1.9.9.8.7.7.5.6.4.5.3h.3c0,.1.1.2.1.2l6.7,2.4-2.6,10.9-7.1-.8h-.2s-.3,0-.3,0h-.5s-.7.1-.7.1h-.9c0,.1-1.1.4-1.1.4l-1.2.4-1.4.5-1.5.6-1.7.8-1.8,1-1.9,1.2-1,.7-.5.4h-.1c0,0,0,.1,0,.1h0s0,0,0,0h0s.1,4.8.1,4.8h0s0,0,0,0h0s0,0,0,0h.1c0,0,.5.4.5.4l1,.6,1.9,1.1,1.8.9,1.7.7,1.6.5,1.4.4,1.2.3,1.1.2h.9c0,0,.7.1.7.1h.5s.3,0,.3,0h.1s7-1.3,7-1.3l3.2,10.7-6.6,2.8h-.1c0,0-.3.2-.3.2l-.4.3-.6.4-.7.6-.8.7-.9.9-1,1.1-1,1.3-1,1.5-1,1.8-1,2-.5,1.1-.2.6h0c0,.1,0,.2,0,.2h0s0,0,0,0h0s2.5,4.1,2.5,4.1h0s0,0,0,0h0s0,0,0,0h.2s.6,0,.6,0h1.2s2.2,0,2.2,0h2c0-.1,1.8-.4,1.8-.4l1.6-.3,1.4-.4,1.2-.4,1-.4.8-.4.6-.3.5-.3.3-.2h.1c0,0,5.5-4.7,5.5-4.7l8.2,7.7-4.3,5.7h0c0,.1-.2.4-.2.4l-.2.5-.3.7-.3.8-.3,1-.3,1.2-.3,1.4-.2,1.6v1.8c-.1,0-.1,2-.1,2v2.2c.1,0,.2,1.2.2,1.2v.6c0,0,0,.2,0,.2h0s0,0,0,0h0s0,0,0,0l4.3,2.3h0s0,0,0,0h0s0,0,0,0h.1c0,0,.5-.3.5-.3l1-.6,1.9-1.1,1.7-1.1,1.5-1.1,1.3-1.1,1.1-1,.9-.9.7-.8.5-.7.4-.6.3-.5v-.3c.1,0,.2-.1.2-.1l2.4-6.7,10.9,2.6-.8,7.1v.2s0,.3,0,.3v.5s.1.7.1.7v.9c.1,0,.4,1.1.4,1.1l.4,1.2.5,1.4.6,1.5.8,1.7,1,1.8,1.2,1.9.7,1,.4.5h0c0,.1,0,.1,0,.1h0s0,0,0,0h0s4.8-.1,4.8-.1h0s0,0,0,0h0s0,0,0,0h0c0-.1.3-.6.3-.6l.6-1,1.1-1.9.9-1.8.7-1.7.5-1.6.4-1.4.3-1.2.2-1.1v-.9c0,0,.1-.7.1-.7v-.5s0-.3,0-.3h0c0-.1-1.3-7.2-1.3-7.2l10.7-3.2,2.8,6.6h0c0,.1.2.4.2.4l.3.4.4.6.6.7.7.8.9.9,1.1,1,1.3,1,1.5,1,1.8,1,2,1,1.1.5.6.2h.1c0,0,0,0,0,0h0s0,0,0,0h0s4.1-2.5,4.1-2.5h0s0,0,0,0h0s0,0,0,0v-.2s0-.6,0-.6v-1.2s0-2.2,0-2.2v-2c-.1,0-.4-1.8-.4-1.8l-.3-1.6-.4-1.4-.4-1.2-.4-1-.4-.8-.3-.6-.3-.5-.2-.3h0c0-.1-4.6-5.6-4.6-5.6l7.7-8.2,5.7,4.3h.1c0,0,.3.3.3.3l.5.2.7.3.8.3,1,.3,1.2.3,1.4.3,1.6.2h1.8c0,.1,2,.1,2,.1h2.2c0-.1,1.2-.2,1.2-.2h.6c0,0,.2,0,.2,0h0s0,0,0,0h0s0,0,0,0l2.3-4.3h0s0,0,0,0h0s0,0,0,0h0c0-.1-.3-.7-.3-.7l-.6-1-1.1-1.9-1.1-1.7-1.1-1.5-1.1-1.3-1-1.1-.9-.9-.8-.7-.7-.5-.6-.4-.5-.3h-.3c0-.1-.1-.2-.1-.2l-6.7-2.4,2.6-10.9,7.1.8h.2s.3,0,.3,0h.5s.7-.1.7-.1h.9c0-.1,1.1-.4,1.1-.4l1.2-.4,1.4-.5,1.5-.6,1.7-.8,1.8-1,1.9-1.2,1-.7.5-.4h.1c0,0,0-.1,0-.1h0s0,0,0,0h0s-.1-4.8-.1-4.8h0s0,0,0,0h0s0,0,0,0h-.1c0,0-.5-.4-.5-.4l-1-.6-1.9-1.1-1.8-.9-1.7-.7-1.6-.5-1.4-.4-1.2-.3-1.1-.2h-.9c0,0-.7-.1-.7-.1h-.5s-.3,0-.3,0h-.1s-7,1.3-7,1.3l-3.2-10.7,6.6-2.8h.1c0,0,.3-.2.3-.2l.4-.3.6-.4.7-.6.8-.7.9-.9,1-1.1,1-1.3,1-1.5,1-1.8,1-2,.5-1.1.2-.6h0c0-.1,0-.2,0-.2h0s0,0,0,0h0s-2.5-4.1-2.5-4.1h0s0,0,0,0h0s0,0,0,0h-.2s-.6,0-.6,0h-1.2s-2.2,0-2.2,0h-2c0,.1-1.8.4-1.8.4l-1.6.3-1.4.4-1.2.4-1,.4-.8.4-.6.3-.5.3-.3.2h-.1c0,0-5.5,4.7-5.5,4.7l-8.2-7.7,4.3-5.7h0c0-.1.2-.4.2-.4l.2-.5.3-.7.3-.8.3-1,.3-1.2.3-1.4.2-1.6v-1.8c.1,0,.1-2,.1-2v-2.2c-.1,0-.2-1.2-.2-1.2v-.6c0,0,0-.2,0-.2h0s0,0,0,0h0s0,0,0,0l-4.3-2.3h0s0,0,0,0h0s0,0,0,0h-.1c0,0-.5.3-.5.3l-1,.6-1.9,1.1-1.7,1.1-1.5,1.1-1.3,1.1-1.1,1-.9.9-.7.8-.5.7-.4.6-.3.5v.3c-.1,0-.2.1-.2.1l-2.4,6.7-10.9-2.6.8-7.1v-.2s0-.3,0-.3v-.5s-.1-.7-.1-.7v-.9c-.1,0-.4-1.1-.4-1.1l-.4-1.2-.5-1.4-.6-1.5-.8-1.7-1-1.8-1.2-1.9-.7-1-.4-.5h0c0-.1,0-.1,0-.1h0s0,0,0,0h0s-4.8.1-4.8.1h0s0,0,0,0h0s0,0,0,0h0c0,.1-.3.6-.3.6l-.6,1-1.1,1.9-.9,1.8-.7,1.7-.5,1.6-.4,1.4-.3,1.2-.2,1.1v.9c0,0-.1.7-.1.7v.5s0,.3,0,.3h0c0,.1,1.3,7.2,1.3,7.2l-10.7,3.2-2.8-6.6h0c0-.1-.2-.4-.2-.4l-.3-.4-.4-.6-.6-.7-.7-.8-.9-.9-1.1-1-1.3-1-1.5-1-1.8-1-2-1-1.1-.5-.6-.2h-.1c0,0,0,0,0,0h0s0,0,0,0h0s-4.1,2.5-4.1,2.5h0s0,0,0,0h0s0,0,0,0v.2s0,.6,0,.6v1.2s0,2.2,0,2.2v2c.1,0,.4,1.8.4,1.8l.3,1.6.4,1.4.4,1.2.4,1,.4.8.3.6.3.5.2.3h0c0,.1,4.6,5.6,4.6,5.6l-7.7,8.2Z"/>
      <circle class="st22" cx="318.6" cy="60.3" r="3.9"/>
    </g>
  </g>
  <g id="annotations">
    <g>
      <line class="st1" x1="64.9" y1="77.7" x2="80.6" y2="90"/>
      <line class="st1" x1="78.9" y1="75.9" x2="66.6" y2="91.7"/>
    </g>
    <g>
      <polyline class="st10" points="80.7 118.7 82.1 118.3 83.5 117.9 84.8 117.5 86.2 117"/>
      <line class="st10" x1="82.6" y1="115.2" x2="84.3" y2="120.7"/>
      <polyline class="st10" points="81.3 121.5 82.5 119.7 83.5 117.9 84.4 116.1 85.1 114.3"/>
      <polyline class="st10" points="80.1 115.9 81.7 116.9 83.5 117.9 85.3 118.8 87.3 119.6"/>
      <polyline class="st10" points="73.5 116.7 74.7 115.2 76 115.1 77.4 116.4 78.3 122.1 76.9 123.7 75.3 123.8 73.6 122.4 73.5 116.7"/>
      <polyline class="st10" points="59.9 112.5 56.4 120.4 58.9 118.4 61.3 116.2 61.8 119.4 62.5 122.6 64.7 114.2"/>
      <polyline class="st10" points="53.4 108.6 54.4 109.4 55.5 110.1 56.5 110.8 57.6 111.4 56.3 113.9 54.3 114.5 53.1 113.7 51.9 112.9 49.9 113.2 49 114.3 49.4 116.4 50.7 117.3 52.1 118.2 54.2 117.7"/>
      <polyline class="st10" points="36.9 101.8 44.7 97.9 43.4 100.1 42.2 102.4 41.2 104.8 40.3 107.3 47.3 102.3"/>
      <polyline class="st10" points="36.5 92.1 36.8 93.5 37.3 95 37.7 96.4 38.3 97.8"/>
      <polyline class="st10" points="39.3 91.4 39.6 92.8 40 94.1 40.4 95.4 40.9 96.7"/>
      <polyline class="st10" points="34.5 89.3 32.9 87.9 41.5 87.1"/>
      <polyline class="st10" points="41.4 85.8 41.5 87.1 41.6 88.3"/>
      <polyline class="st10" points="41.8 78.2 41.6 79.5 41.5 80.7 41.4 82 41.3 83.3 38.4 83.2 37 81.7 37.2 80.3 37.3 78.9 36.1 77.2 34.7 76.9 33 78.3 32.9 79.9 32.7 81.5 34.1 83.1"/>
      <polyline class="st10" points="44.6 69.8 45.2 68.7 45.8 67.6 46.5 66.5 46 64.7 41.3 61.3 39.2 61.8 38.4 63.2 37.6 64.6 36.8 66"/>
      <line class="st10" x1="37.6" y1="64.6" x2="45.2" y2="68.7"/>
      <polyline class="st10" points="48.6 55.5 47.4 56.5 46.4 57.6 45.3 58.7 44.3 59.8"/>
      <polyline class="st10" points="50.4 57.7 49.4 58.6 48.4 59.6 47.5 60.6 46.5 61.6"/>
      <polyline class="st10" points="58.6 55.7 57.5 56.3 56.4 56.9 55.3 57.6 54.3 58.3 52.6 56 52.9 54 54.2 53.3 55.4 52.5 56 50.6 55.4 49.3 53.3 48.8 51.9 49.6 50.6 50.4 50.1 52.5"/>
      <polyline class="st10" points="65.1 50.4 63.8 50.7 62.5 51.1 61.1 51.5 59.8 52 60.5 49.7 61.3 47.4 62.3 45.1 64.5 53.5"/>
      <line class="st10" x1="68.2" y1="52.7" x2="67.4" y2="47"/>
      <polyline class="st10" points="67.6 48.4 68.9 46.8 70.5 48.1 71.9 46.6 73.4 48.1 73.3 52.4"/>
      <line class="st10" x1="70.6" y1="49.6" x2="70.5" y2="48.1"/>
      <line class="st10" x1="75.8" y1="52.5" x2="76.4" y2="46.8"/>
      <polyline class="st10" points="76.2 48.2 77.9 47 79.1 48.6 80.8 47.5 81.9 49.2 80.8 53.4"/>
      <line class="st10" x1="78.8" y1="50" x2="79.1" y2="48.6"/>
      <polyline class="st10" points="91.2 53.2 92.4 53.9 93.6 54.7 94.7 55.6 96.8 55.4 97.7 54.3 97.4 52.2 96.1 51.2 94.8 50.3 93.4 49.5 88.9 56.9"/>
      <polyline class="st10" points="94.9 61.5 97 59.5 100 58.5 103.2 57.8 102 60.8 100.5 63.7 98.2 65.4"/>
      <polyline class="st10" points="97 59.5 97.9 60.5 98.8 61.5 99.7 62.6 100.5 63.7"/>
      <polyline class="st10" points="107.2 69.8 106.6 68.5 106 67.1 105.3 65.8 104.5 64.5"/>
      <polyline class="st10" points="104.5 70.9 104 69.6 103.4 68.4 102.8 67.2 102.1 66"/>
      <polyline class="st10" points="103.9 79.3 103.7 78.1 103.4 76.8 103.1 75.6 102.7 74.4 105.5 73.5 107.3 74.5 107.6 75.9 107.9 77.3 109.6 78.5 111 78.3 112.1 76.5 111.8 74.9 111.4 73.3 109.6 72.2"/>
      <polyline class="st10" points="104 86.9 104.1 85.6 104.2 84.4 104.2 83.1 104.1 81.8 107 81.7 108.5 83 108.5 84.4 108.4 85.9 109.8 87.5 111.2 87.6 112.8 86.1 112.8 84.5 112.8 82.9 111.3 81.4"/>
    </g>
    <g>
      <line class="st2" x1="216.1" y1="76" x2="220.1" y2="95.6"/>
      <line class="st2" x1="227.9" y1="83.8" x2="208.3" y2="87.8"/>
    </g>
    <g>
      <polyline class="st9" points="201.6 117.6 202.9 118.2 204.2 118.8 205.5 119.3 206.9 119.8"/>
      <line class="st9" x1="205.3" y1="116.1" x2="203.1" y2="121.4"/>
      <polyline class="st9" points="200.3 120.1 202.3 119.5 204.2 118.8 206 118 207.8 117.1"/>
      <polyline class="st9" points="202.9 115 203.5 116.9 204.2 118.8 205 120.6 206 122.5"/>
      <polyline class="st9" points="194.5 112.7 195.6 113.7 196.8 114.5 197.9 115.4 198.4 117.4 197.6 118.6 195.5 118.9 194.2 118 192.9 117 192.6 114.9 195.5 111.7 197.4 111.4 199.3 111.1 200.3 111.8"/>
      <polyline class="st9" points="189.2 98.4 181.4 101.9 184.6 102.1 187.8 102 186 104.7 184.4 107.5 191.6 102.9"/>
      <polyline class="st9" points="187.1 91.2 187.3 92.4 187.6 93.7 187.9 94.9 188.3 96.1 185.6 97 183.8 96.1 183.4 94.7 183.1 93.4 181.4 92.2 180 92.4 178.9 94.3 179.3 95.8 179.7 97.4 181.6 98.4"/>
      <polyline class="st9" points="179.4 75.2 187.7 77.5 185.3 78.2 182.9 79.1 180.6 80.2 178.2 81.5 186.8 82.4"/>
      <polyline class="st9" points="185.5 67.7 184.9 69 184.2 70.4 183.6 71.8 183.1 73.1"/>
      <polyline class="st9" points="188 69.1 187.4 70.3 186.8 71.6 186.3 72.8 185.8 74.1"/>
      <polyline class="st9" points="185.9 64.4 185.6 62.3 192.6 67.3"/>
      <polyline class="st9" points="193.3 66.3 192.6 67.3 191.9 68.4"/>
      <polyline class="st9" points="198.7 61 197.7 61.8 196.8 62.6 195.8 63.5 195 64.4 192.9 62.5 192.8 60.5 193.8 59.5 194.9 58.5 195.1 56.5 194.3 55.4 192.1 55.3 190.9 56.3 189.8 57.4 189.7 59.6"/>
      <polyline class="st9" points="206.3 56.6 207.4 56.2 208.6 55.8 209.8 55.4 210.7 53.7 209.5 48.1 207.6 47.1 206.1 47.6 204.5 48.1 203 48.6"/>
      <line class="st9" x1="204.5" y1="48.1" x2="207.4" y2="56.2"/>
      <polyline class="st9" points="218.6 48.6 217.2 48.6 215.7 48.7 214.2 48.8 212.7 49"/>
      <polyline class="st9" points="218.6 51.4 217.2 51.4 215.9 51.5 214.5 51.6 213.1 51.8"/>
      <polyline class="st9" points="226 55.3 224.8 55 223.6 54.8 222.3 54.6 221.1 54.4 221.3 51.6 222.9 50.3 224.3 50.6 225.7 50.8 227.5 49.8 227.8 48.4 226.6 46.6 225.1 46.3 223.5 46.1 221.8 47.3"/>
      <polyline class="st9" points="234.4 55.6 233.2 54.9 231.9 54.4 230.7 53.8 229.4 53.4 231.4 52.1 233.5 50.9 235.7 49.8 231.9 57.5"/>
      <line class="st9" x1="235.2" y1="59.4" x2="238.3" y2="54.6"/>
      <polyline class="st9" points="237.5 55.8 239.5 55.4 239.9 57.4 241.9 57.2 242.1 59.2 239.2 62.4"/>
      <line class="st9" x1="239" y1="58.5" x2="239.9" y2="57.4"/>
      <line class="st9" x1="241" y1="64.2" x2="245.1" y2="60.3"/>
      <polyline class="st9" points="244.1 61.2 246.2 61.4 246 63.4 248 63.7 247.7 65.7 244.1 68.1"/>
      <line class="st9" x1="244.9" y1="64.3" x2="246" y2="63.4"/>
      <polyline class="st9" points="252.1 74.6 252.5 76 252.9 77.4 253.2 78.8 254.8 80 256.3 79.8 257.4 78 257 76.4 256.6 74.8 256.2 73.3 248 76"/>
      <polyline class="st9" points="249.5 83.4 252.3 83.2 255.3 84.4 258.2 85.9 255.3 87.4 252.3 88.6 249.5 88.4"/>
      <polyline class="st9" points="252.3 83.2 252.4 84.5 252.4 85.9 252.4 87.3 252.3 88.6"/>
      <polyline class="st9" points="253.4 97.6 253.8 96.2 254.2 94.7 254.5 93.3 254.8 91.8"/>
      <polyline class="st9" points="250.7 96.7 251.1 95.4 251.4 94.1 251.7 92.7 252 91.4"/>
      <polyline class="st9" points="244.7 102.6 245.4 101.5 246 100.4 246.5 99.3 247.1 98.1 249.7 99.3 250.4 101.1 249.8 102.4 249.1 103.7 249.6 105.7 250.8 106.4 252.8 105.8 253.6 104.4 254.3 103 253.6 100.9"/>
      <polyline class="st9" points="240 108.4 240.9 107.5 241.7 106.6 242.5 105.7 243.3 104.7 245.6 106.4 245.9 108.4 244.9 109.5 244 110.5 243.9 112.6 244.9 113.6 247.1 113.5 248.1 112.3 249.2 111.1 249 108.9"/>
    </g>
    <g>
      <line class="st5" x1="726.2" y1="177.2" x2="709.5" y2="188.3"/>
      <line class="st5" x1="723.4" y1="191.1" x2="712.3" y2="174.4"/>
    </g>
    <g>
      <polyline class="st12" points="695 65.7 692.8 66.2 690.7 66.7 688.5 67.2 686.3 67.8"/>
      <line class="st12" x1="691.7" y1="71" x2="689.6" y2="62.3"/>
      <polyline class="st12" points="694.2 61.3 692.4 64 690.7 66.7 689 69.4 687.5 72.1"/>
      <polyline class="st12" points="695.9 70.1 693.3 68.4 690.7 66.7 687.9 65 685.1 63.4"/>
      <polyline class="st12" points="701.7 64.6 699.8 67.2 700.2 69.4 702.6 71.3 704.7 71 706.8 70.8 708.7 68.4 708.6 66.1 706.1 64.1 703.9 64.3 701.7 64.6 699.1 62.7 698.8 60.5 700.8 58 703.1 57.7 705.5 57.4 708 59.4 708.2 61.7 706.1 64.1"/>
      <polyline class="st12" points="732.2 71.2 733.9 57.8 731 62 728.4 66.2 726.5 61.6 724.4 57 723.7 70.4"/>
      <polyline class="st12" points="744.7 73.5 742.6 73 740.5 72.6 738.5 72.2 736.4 71.8 737.1 67.4 739.7 65.5 741.9 66 744.1 66.4 746.8 64.8 747.3 62.6 745.6 59.9 743.2 59.4 740.9 58.9 738.2 60.7"/>
      <polyline class="st12" points="772.4 69.2 766.6 81.4 766 77.4 765.4 73.4 764.6 69.4 763.7 65.4 758.8 78"/>
      <polyline class="st12" points="782.5 79.9 780.5 78.7 778.5 77.5 776.5 76.4 774.5 75.3"/>
      <polyline class="st12" points="780.1 83.7 778.2 82.5 776.3 81.4 774.4 80.3 772.4 79.3"/>
      <polyline class="st12" points="787.6 80.5 790.8 80 792.7 81.4 794.6 82.9 795 86.1 793.6 87.8 790.5 88.2 790.8 91.3 789.4 93.1 786.4 93.6 784.7 92.3 783 91 782.5 88"/>
      <line class="st12" x1="788.7" y1="86.9" x2="790.5" y2="88.2"/>
      <polyline class="st12" points="797.5 103.3 796 101.9 794.5 100.4 792.9 99 791.3 97.6 794.2 94.2 797.4 93.9 799 95.5 800.7 97 803.9 97 805.4 95.4 805.4 92.2 803.6 90.5 801.9 88.9 798.6 89.1"/>
      <polyline class="st12" points="807.2 114.5 808.5 116.2 809.8 117.9 811 119.7 814 120.2 821.5 115.3 822.1 112.1 820.8 110.1 819.4 108.2 818 106.3"/>
      <line class="st12" x1="819.4" y1="108.2" x2="808.5" y2="116.2"/>
      <polyline class="st12" points="826.5 128.4 825.4 126.4 824.4 124.4 823.2 122.4 822.1 120.4"/>
      <polyline class="st12" points="822.5 130.4 821.5 128.5 820.4 126.5 819.4 124.6 818.2 122.7"/>
      <polyline class="st12" points="826.4 133.5 827.3 135.5 828.2 137.6 829 139.7 827.7 142.6 825.6 143.3 822.7 142.1 822 140.2 821.1 138.2 822.3 135.3 828.5 132.6 831.4 133.8 834.4 135.1 835.3 137.3"/>
      <polyline class="st12" points="831.5 155.2 831 153.1 830.4 150.9 829.8 148.8 829.1 146.7 832.7 148 836.2 149.3 839.7 150.8 826.6 154.2"/>
      <line class="st12" x1="828.1" y1="160.4" x2="836.9" y2="158.6"/>
      <polyline class="st12" points="834.7 159.1 837.3 160.9 835.5 163.5 838.1 165.4 836.1 167.9 829.4 168.8"/>
      <line class="st12" x1="833.3" y1="163.8" x2="835.5" y2="163.5"/>
      <line class="st12" x1="829.9" y1="173" x2="838.8" y2="172.2"/>
      <polyline class="st12" points="836.6 172.4 839 174.5 836.9 176.9 839.3 179.1 837.1 181.4 830.3 181.4"/>
      <line class="st12" x1="834.7" y1="177" x2="836.9" y2="176.9"/>
      <polyline class="st12" points="836.2 197 835.9 199.3 835.6 201.5 835.2 203.7 837 206.4 839.2 206.8 841.8 204.9 842.2 202.6 842.6 200.2 842.9 197.9 829.5 196.2"/>
      <polyline class="st12" points="827.3 208.7 831.7 209.8 835.5 213 839.2 216.5 834.2 217.4 829.3 218.3 825 216.9"/>
      <polyline class="st12" points="831.7 209.8 831.1 211.9 830.6 214.1 829.9 216.2 829.3 218.3"/>
      <polyline class="st12" points="828.7 232.5 829.6 230.4 830.5 228.2 831.3 226.1 832.1 224"/>
      <polyline class="st12" points="824.6 230.6 825.5 228.6 826.3 226.6 827.1 224.5 827.9 222.4"/>
      <polyline class="st12" points="814.6 240.1 815.7 238.2 816.7 236.4 817.7 234.5 818.7 232.6 822.7 234.6 823.7 237.6 822.7 239.6 821.6 241.5 822.4 244.6 824.3 245.8 827.4 244.9 828.6 242.8 829.7 240.7 828.7 237.6"/>
      <polyline class="st12" points="807.6 250.6 808.8 248.9 810.1 247.2 811.2 245.4 812.4 243.7 816.2 246.1 816.8 249.2 815.6 251 814.3 252.9 814.7 256 816.5 257.4 819.7 256.8 821.1 254.9 822.4 252.9 821.8 249.7"/>
    </g>
    <g>
      <line class="st3" x1="211.3" y1="386" x2="205.3" y2="366.9"/>
      <line class="st3" x1="198.8" y1="379.5" x2="217.8" y2="373.5"/>
    </g>
    <g>
      <polyline class="st8" points="288.9 348.9 288.2 346.8 287.4 344.7 286.5 342.7 285.6 340.6"/>
      <line class="st8" x1="283.3" y1="346.4" x2="291.5" y2="343.1"/>
      <polyline class="st8" points="293.1 347.4 290.2 346 287.4 344.7 284.5 343.5 281.6 342.5"/>
      <polyline class="st8" points="284.7 350.3 286.1 347.5 287.4 344.7 288.6 341.8 289.6 338.8"/>
      <polyline class="st8" points="294.5 351.9 297.3 353.5 284.4 356.9"/>
      <polyline class="st8" points="284.9 358.8 284.4 356.9 283.9 354.9"/>
      <polyline class="st8" points="286.7 381.1 300 381.9 295.7 379.4 291.3 377.1 295.7 374.8 300.1 372.4 286.8 373"/>
      <polyline class="st8" points="285.1 393.2 285.5 391.2 285.8 389.2 286.1 387.2 286.4 385.2 290.8 385.7 292.7 388.1 292.4 390.3 292 392.5 293.7 395.1 295.9 395.6 298.5 393.7 298.9 391.4 299.3 389 297.4 386.4"/>
      <polyline class="st8" points="288.9 420.6 277.2 414.2 281.2 413.9 285.1 413.4 289.1 412.8 293 412 280.8 406.8"/>
      <polyline class="st8" points="277.6 429.8 278.9 428 280.2 426.2 281.5 424.3 282.7 422.4"/>
      <polyline class="st8" points="274.1 427.1 275.4 425.4 276.6 423.6 277.8 421.9 279 420"/>
      <polyline class="st8" points="262.4 433.5 263.8 432.1 265.3 430.6 266.6 429.1 268 427.6 271.3 430.5 271.6 433.6 270.1 435.2 268.5 436.8 268.5 439.9 270 441.5 273.2 441.5 274.9 439.8 276.5 438 276.4 434.8"/>
      <polyline class="st8" points="255.4 444.8 257.1 443.6 258.9 442.3 260.6 441 262.2 439.6 262.4 443.3 262.5 447 262.3 450.8 254.5 440"/>
      <polyline class="st8" points="240.4 448.2 238.6 449 236.7 449.8 234.8 450.5 233.5 453.2 236.3 461.6 239.2 463 241.5 462.1 243.7 461.3 245.9 460.3"/>
      <line class="st8" x1="243.7" y1="461.3" x2="238.6" y2="449"/>
      <polyline class="st8" points="222.4 462.8 224.6 462.4 226.8 461.9 229 461.4 231.3 460.8"/>
      <polyline class="st8" points="221.7 458.4 223.8 458 225.9 457.6 228 457.1 230.1 456.6"/>
      <polyline class="st8" points="208.8 459.5 210.9 459.5 213.1 459.4 215.3 459.2 217.4 459 215.5 462.1 213.4 465.2 211.2 468.3 210.8 455"/>
      <polyline class="st8" points="202.2 461.5 204.5 459.4 204.6 457.2 202.7 454.9 200.6 454.7 198.6 454.5 196.2 456.4 195.9 458.6 197.8 461.1 200 461.3 202.2 461.5 204.3 463.8 204.2 466 201.7 468.1 199.3 467.9 197 467.6 194.9 465.1 195.3 462.9 197.8 461.1"/>
      <line class="st8" x1="192.6" y1="453.5" x2="190.8" y2="462.1"/>
      <polyline class="st8" points="191.2 460 188.6 461.7 186.9 459 184.2 460.5 182.7 457.8 184.7 451.4"/>
      <line class="st8" x1="187.5" y1="456.8" x2="186.9" y2="459"/>
      <line class="st8" x1="180.8" y1="450.1" x2="177.7" y2="458.4"/>
      <polyline class="st8" points="178.5 456.3 175.6 457.6 174.4 454.7 171.4 455.8 170.4 452.8 173.3 446.9"/>
      <line class="st8" x1="175.3" y1="452.6" x2="174.4" y2="454.7"/>
      <polyline class="st8" points="157.2 444.7 155.5 443.3 153.7 441.9 152 440.5 148.9 440.7 147.4 442.3 147.7 445.5 149.5 447 151.3 448.5 153.2 450 161.2 439.4"/>
      <polyline class="st8" points="152 431.3 148.8 434.4 144.1 435.8 139.2 437.1 141.1 432.4 143.1 427.9 146.6 425.2"/>
      <polyline class="st8" points="148.8 434.4 147.3 432.8 145.9 431.2 144.5 429.6 143.1 427.9"/>
      <polyline class="st8" points="132.1 419.4 133.2 421.3 134.4 423.3 135.7 425.2 137 427"/>
      <polyline class="st8" points="136 417.2 137 419.1 138.2 420.9 139.3 422.7 140.6 424.5"/>
      <polyline class="st8" points="134.7 403.9 135.4 405.8 136.2 407.7 137 409.6 137.9 411.4 133.9 413.4 131 412.4 130.1 410.4 129.2 408.3 126.4 407 124.3 407.8 123.1 410.8 124 413 125 415.2 128 416.3"/>
      <polyline class="st8" points="131.3 392.2 131.7 394.2 132.2 396.2 132.7 398.1 133.3 400.1 129.1 401.4 126.4 399.9 125.8 397.8 125.3 395.7 122.6 393.9 120.5 394.4 118.8 397.2 119.4 399.5 120 401.8 122.8 403.4"/>
    </g>
    <g>
      <line class="st4" x1="73.8" y1="235.7" x2="67.4" y2="216.8"/>
      <line class="st4" x1="61.1" y1="229.4" x2="80.1" y2="223.1"/>
    </g>
    <g>
      <polyline class="st7" points="100.5 215.6 100 214.3 99.5 213 98.8 211.7 98.2 210.4"/>
      <line class="st7" x1="96.9" y1="214.2" x2="102" y2="211.8"/>
      <polyline class="st7" points="103.2 214.6 101.3 213.7 99.5 213 97.6 212.3 95.7 211.9"/>
      <polyline class="st7" points="97.9 216.6 98.7 214.8 99.5 213 100.1 211 100.6 209"/>
      <polyline class="st7" points="101.4 218.3 101.7 219.7 102 221.1 102.2 222.5 103.7 223.8 105.1 223.7 106.4 222 106.2 220.4 105.9 218.8 105.5 217.3 97.2 219.4"/>
      <polyline class="st7" points="102.4 226.8 102.3 228.2 102.2 229.6 102 231 100.4 232.1 99 231.9 97.8 230.4 97.9 229.2 98.1 227.9 99.5 226.7 103.8 226.8 105.1 228.4 106.4 230.1 106.2 231.7"/>
      <polyline class="st7" points="98.4 249.1 91.8 243.7 94.3 244 96.8 244.2 99.4 244.1 102.1 243.8 94.6 239.7"/>
      <polyline class="st7" points="89.7 253.4 90.9 252.5 92.1 251.6 93.2 250.6 94.3 249.5"/>
      <polyline class="st7" points="88.1 251.1 89.2 250.3 90.2 249.4 91.3 248.5 92.2 247.5"/>
      <polyline class="st7" points="87.9 256.2 87.2 258.2 83.3 250.7"/>
      <polyline class="st7" points="82.2 251.2 83.3 250.7 84.4 250.1"/>
      <polyline class="st7" points="75.2 253.4 76.4 253.2 77.6 252.9 78.7 252.5 79.9 252.1 80.9 254.8 80 256.6 78.6 257 77.3 257.3 76.1 259 76.3 260.4 78.1 261.5 79.7 261.1 81.3 260.7 82.3 258.8"/>
      <polyline class="st7" points="65.9 257.7 64.5 257.5 63.1 257.2 61.8 256.8 60 257.7 59.5 259.1 60.6 260.9 62.1 261.3 63.7 261.6 65.3 261.9 66.6 253.5"/>
      <polyline class="st7" points="52 253.8 53.2 254.6 54.5 255.3 55.8 256 57.2 256.6"/>
      <polyline class="st7" points="53.6 251.4 54.7 252.2 55.9 252.8 57.1 253.5 58.3 254"/>
      <polyline class="st7" points="50.5 250.9 49.4 250 48.4 249 47.4 248 47.5 246 48.6 245.1 50.5 245.1 51.4 245.9 52.3 246.8 52.3 248.7 49.6 252 47.5 252.1 45.4 252.1 44.3 250.9"/>
      <line class="st7" x1="48.2" y1="242.2" x2="43.5" y2="245.5"/>
      <polyline class="st7" points="44.7 244.7 42.7 244.3 43.1 242.3 41.2 241.7 41.8 239.8 45.7 238"/>
      <line class="st7" x1="44.4" y1="241.6" x2="43.1" y2="242.3"/>
      <line class="st7" x1="44.7" y1="235.7" x2="39.4" y2="237.6"/>
      <polyline class="st7" points="40.7 237.2 38.9 236.2 39.9 234.4 38.1 233.4 39.3 231.7 43.5 230.9"/>
      <line class="st7" x1="41.2" y1="234.1" x2="39.9" y2="234.4"/>
    </g>
    <g>
      <line class="st6" x1="445" y1="297.1" x2="461.2" y2="308.8"/>
      <line class="st6" x1="458.9" y1="294.8" x2="447.3" y2="311"/>
    </g>
    <g>
      <polyline class="st13" points="391 351.4 392.7 353.5 394.5 355.6 396.4 357.7 398.4 359.6"/>
      <line class="st13" x1="398.7" y1="351.9" x2="390.4" y2="359.3"/>
      <polyline class="st13" points="386.6 354.8 390.6 355.3 394.5 355.6 398.4 355.7 402.3 355.6"/>
      <polyline class="st13" points="395.4 348 394.8 351.7 394.5 355.6 394.4 359.6 394.5 363.6"/>
      <polyline class="st13" points="377.2 339.7 376.1 343.6 377.6 346.3 379.1 348.9 383.1 350 383.9 346 384.8 342.2 385.9 338.4 387.2 334.8 390.8 335.8 392 338 393.3 340.1 392.3 343.8"/>
      <polyline class="st13" points="379.9 332.2 379 329.6 378.1 326.9 377.3 324.3 379.3 321 382 320.3 385.3 322 386 324.4 386.8 326.8 385.1 330.1 377.4 333.2 373.7 331.5 370.1 329.5 369.3 326.6"/>
      <polyline class="st13" points="366.9 290.1 383.4 292.5 379 294.5 374.6 296.8 370.2 299.4 366 302.3 382.6 302.4"/>
      <polyline class="st13" points="376.8 274.2 375.8 276.9 374.9 279.7 374.2 282.4 373.5 285.2"/>
      <polyline class="st13" points="382 276.2 381.1 278.7 380.2 281.2 379.5 283.8 378.9 286.4"/>
      <polyline class="st13" points="393.8 264.8 392.5 267 391.3 269.1 390.1 271.3 389.1 273.6 384 271.2 382.7 267.6 384 265.1 385.4 262.7 384.5 258.8 382.1 257.3 378.2 258.4 376.7 261.1 375.2 263.8 376.4 267.8"/>
      <polyline class="st13" points="399.2 249.3 397.3 251.3 395.6 253.3 393.8 255.3 392.2 257.4 390.9 253 389.9 248.4 389.2 243.7 401.4 255"/>
      <polyline class="st13" points="412.5 235.4 414.9 234 417.3 232.7 419.8 231.5 421.3 227.8 420.2 225.3 416.3 224 413.5 225.3 410.8 226.7 408.2 228.3 416.8 242.5"/>
      <polyline class="st13" points="437.7 222.8 434.9 223.4 432.1 224.1 429.4 224.9 426.6 225.8"/>
      <polyline class="st13" points="438.8 228.3 436.2 228.8 433.6 229.5 431 230.2 428.4 231"/>
      <polyline class="st13" points="443.8 224.7 446.5 224.4 449.3 224.2 452.1 224.1 454.8 226.9 454.7 229.7 452.2 232.5 449.7 232.5 447.2 232.7 444.4 230.2 443.4 221.9 446.1 218.9 448.9 215.9 452 215.8"/>
      <line class="st13" x1="459.6" y1="232.8" x2="460.6" y2="221.7"/>
      <polyline class="st13" points="460.4 224.5 463.5 222 465.9 225.2 469.2 223 471.3 226.3 469.4 234.4"/>
      <line class="st13" x1="465.4" y1="227.9" x2="465.9" y2="225.2"/>
      <line class="st13" x1="474.2" y1="235.7" x2="477.5" y2="225.1"/>
      <polyline class="st13" points="476.7 227.7 480.2 226 481.9 229.6 485.6 228.1 487 231.8 483.4 239.3"/>
      <line class="st13" x1="480.9" y1="232.2" x2="481.9" y2="229.6"/>
    </g>
    <g>
      <line class="st0" x1="363.4" y1="82.7" x2="379.5" y2="94.6"/>
      <line class="st0" x1="377.4" y1="80.6" x2="365.5" y2="96.7"/>
    </g>
    <g>
      <polyline class="st11" points="380.2 123.3 381.6 123 383 122.5 384.3 122 385.6 121.5"/>
      <line class="st11" x1="382" y1="119.8" x2="383.9" y2="125.2"/>
      <polyline class="st11" points="380.9 126.1 382 124.3 383 122.5 383.8 120.7 384.5 118.9"/>
      <polyline class="st11" points="379.5 120.6 381.2 121.6 383 122.5 384.8 123.4 386.8 124.1"/>
      <polyline class="st11" points="378.1 128.2 376.6 128.4 375 128.6 373.4 128.7 371.8 128.7 373.2 124.4 374.2 120"/>
      <polyline class="st11" points="358.3 117.3 354.7 125.1 357.2 123.1 359.6 120.9 360 124.1 360.7 127.3 363 119"/>
      <polyline class="st11" points="351.8 113.3 352.8 114.1 353.9 114.8 354.9 115.5 356 116.1 354.6 118.6 352.7 119.1 351.5 118.4 350.3 117.5 348.3 117.8 347.4 118.9 347.8 121 349.1 121.9 350.4 122.8 352.5 122.4"/>
      <polyline class="st11" points="335.5 106.4 343.2 102.6 341.9 104.8 340.7 107 339.7 109.4 338.8 111.9 345.8 106.9"/>
      <polyline class="st11" points="335.1 96.8 335.5 98.2 335.9 99.7 336.3 101.1 336.9 102.5"/>
      <polyline class="st11" points="337.9 96.2 338.2 97.5 338.6 98.8 339 100.1 339.5 101.4"/>
      <polyline class="st11" points="333.2 94.1 331.6 92.7 340.1 91.8"/>
      <polyline class="st11" points="340 90.5 340.1 91.8 340.2 93"/>
      <polyline class="st11" points="340.4 83 340.2 84.3 340.1 85.5 340 86.8 339.9 88 337.1 88 335.7 86.5 335.8 85.1 336 83.7 334.8 82 333.4 81.8 331.7 83.1 331.5 84.7 331.4 86.3 332.8 87.9"/>
      <polyline class="st11" points="343.2 74.7 343.8 73.6 344.4 72.5 345.1 71.4 344.6 69.5 340 66.2 337.9 66.7 337 68.1 336.2 69.5 335.5 70.9"/>
      <line class="st11" x1="336.2" y1="69.5" x2="343.8" y2="73.6"/>
      <polyline class="st11" points="347.1 60.5 346 61.5 344.9 62.5 343.9 63.6 342.9 64.7"/>
      <polyline class="st11" points="349 62.6 348 63.6 347 64.5 346 65.5 345.1 66.5"/>
      <polyline class="st11" points="357.1 60.6 356 61.2 354.9 61.8 353.8 62.5 352.8 63.2 351.1 60.9 351.5 59 352.7 58.2 353.9 57.5 354.5 55.5 353.9 54.2 351.8 53.7 350.4 54.5 349.1 55.4 348.6 57.5"/>
      <polyline class="st11" points="363.5 55.2 362.2 55.6 360.9 55.9 359.6 56.4 358.3 56.9 358.9 54.6 359.7 52.3 360.6 50.1 363 58.3"/>
      <line class="st11" x1="366.6" y1="57.5" x2="365.8" y2="51.9"/>
      <polyline class="st11" points="366 53.3 367.3 51.7 368.8 53 370.2 51.5 371.7 52.9 371.7 57.2"/>
      <line class="st11" x1="368.9" y1="54.4" x2="368.8" y2="53"/>
      <line class="st11" x1="374.2" y1="57.3" x2="374.7" y2="51.6"/>
      <polyline class="st11" points="374.6 53 376.2 51.7 377.4 53.4 379.1 52.2 380.2 54 379.1 58.1"/>
      <line class="st11" x1="377.1" y1="54.8" x2="377.4" y2="53.4"/>
      <polyline class="st11" points="389.4 57.7 390.6 58.5 391.8 59.3 393 60.1 395 59.9 395.9 58.8 395.6 56.7 394.3 55.7 393 54.8 391.6 54 387.3 61.4"/>
      <polyline class="st11" points="393.3 66 395.3 63.9 398.3 62.9 401.4 62.1 400.3 65.1 398.9 68 396.6 69.7"/>
      <polyline class="st11" points="395.3 63.9 396.2 64.9 397.2 65.9 398.1 66.9 398.9 68"/>
      <polyline class="st11" points="405.6 74 405 72.7 404.4 71.3 403.6 70 402.9 68.7"/>
      <polyline class="st11" points="403 75.1 402.4 73.9 401.8 72.7 401.2 71.4 400.5 70.3"/>
      <polyline class="st11" points="402.5 83.5 402.3 82.3 402 81 401.7 79.8 401.3 78.6 404 77.7 405.8 78.6 406.1 80 406.5 81.4 408.1 82.6 409.5 82.3 410.7 80.5 410.3 78.9 409.9 77.4 408.1 76.3"/>
      <polyline class="st11" points="402.8 91 402.9 89.8 402.9 88.5 402.9 87.2 402.8 86 405.7 85.7 407.2 87.1 407.2 88.5 407.2 89.9 408.5 91.4 410 91.6 411.5 90.1 411.5 88.5 411.5 86.9 409.9 85.4"/>
    </g>
  </g>
</svg>