0
SECTION
2
HEADER
9
$ACADVER
1
AC1027
9
$ACADMAINTVER
70
8
9
$DWGCODEPAGE
3
ANSI_1252
9
$LASTSAVEDBY
1
macc
9
$REQUIREDVERSIONS
160
0
9
$INSBASE
10
0.0
20
0.0
30
0.0
9
$EXTMIN
10
1.000000000000000E+20
20
1.000000000000000E+20
30
1.000000000000000E+20
9
$EXTMAX
10
-1.000000000000000E+20
20
-1.000000000000000E+20
30
-1.000000000000000E+20
9
$LIMMIN
10
0.0
20
0.0
9
$LIMMAX
10
12.0
20
9.0
9
$MEASUREMENT
70
1
9
$CELWEIGHT
370
-1
9
$ENDCAPS
280
0
9
$JOINSTYLE
280
0
9
$LWDISPLAY
290
0
9
$INSUNITS
70
0
9
$HYPERLINKBASE
1

9
$STYLESHEET
1

9
$XEDIT
290
1
9
$CEPSNTYPE
380
0
9
$PSTYLEMODE
290
1
9
$EXTNAMES
290
1
9
$PSVPSCALE
40
0.0
9
$OLESTARTUP
290
0
9
$SORTENTS
280
127
9
$INDEXCTL
280
0
9
$HIDETEXT
280
0
9
$XCLIPFRAME
280
2
9
$HALOGAP
280
0
9
$OBSCOLOR
70
257
9
$OBSLTYPE
280
0
9
$INTERSECTIONDISPLAY
280
0
9
$INTERSECTIONCOLOR
70
257
9
$DIMASSOC
280
1
9
$PROJECTNAME
1

9
$CAMERADISPLAY
290
0
9
$LENSLENGTH
40
50.0
9
$CAMERAHEIGHT
40
0.0
9
$STEPSPERSEC
40
2.0
9
$STEPSIZE
40
6.0
9
$3DDWFPREC
40
2.0
9
$PSOLWIDTH
40
0.25
9
$PSOLHEIGHT
40
4.0
9
$LOFTANG1
40
1.570796326794896
9
$LOFTANG2
40
1.570796326794896
9
$LOFTMAG1
40
0.0
9
$LOFTMAG2
40
0.0
9
$LOFTPARAM
70
7
9
$LOFTNORMALS
280
1
9
$LATITUDE
40
37.795
9
$LONGITUDE
40
-122.394
9
$NORTHDIRECTION
40
0.0
9
$TIMEZONE
70
-8000
9
$LIGHTGLYPHDISPLAY
280
1
9
$TILEMODELIGHTSYNCH
280
1
9
$CMATERIAL
347
222
9
$SOLIDHIST
280
0
9
$SHOWHIST
280
1
9
$DWFFRAME
280
2
9
$DGNFRAME
280
0
9
$REALWORLDSCALE
290
1
9
$INTERFERECOLOR
62
1
9
$INTERFEREOBJVS
345
244
9
$INTERFEREVPVS
346
241
9
$CSHADOW
280
0
9
$SHADOWPLANELOCATION
40
0.0
0
ENDSEC
0
SECTION
2
CLASSES
0
CLASS
1
ACDBDICTIONARYWDFLT
2
AcDbDictionaryWithDefault
3
ObjectDBX Classes
90
0
91
1
280
0
281
0
0
CLASS
1
MATERIAL
2
AcDbMaterial
3
ObjectDBX Classes
90
1153
91
3
280
0
281
0
0
CLASS
1
VISUALSTYLE
2
AcDbVisualStyle
3
ObjectDBX Classes
90
4095
91
24
280
0
281
0
0
CLASS
1
SCALE
2
AcDbScale
3
ObjectDBX Classes
90
1153
91
17
280
0
281
0
0
CLASS
1
TABLESTYLE
2
AcDbTableStyle
3
ObjectDBX Classes
90
4095
91
1
280
0
281
0
0
CLASS
1
MLEADERSTYLE
2
AcDbMLeaderStyle
3
ACDB_MLEADERSTYLE_CLASS
90
4095
91
1
280
0
281
0
0
CLASS
1
ACDBSECTIONVIEWSTYLE
2
AcDbSectionViewStyle
3
ObjectDBX Classes
90
1025
91
1
280
0
281
0
0
CLASS
1
ACDBDETAILVIEWSTYLE
2
AcDbDetailViewStyle
3
ObjectDBX Classes
90
1025
91
1
280
0
281
0
0
CLASS
1
DICTIONARYVAR
2
AcDbDictionaryVar
3
ObjectDBX Classes
90
0
91
9
280
0
281
0
0
CLASS
1
CELLSTYLEMAP
2
AcDbCellStyleMap
3
ObjectDBX Classes
90
1152
91
2
280
0
281
0
0
ENDSEC
0
SECTION
2
TABLES
0
TABLE
2
VPORT
5
219
330
0
100
AcDbSymbolTable
70
1
0
VPORT
5
285
330
219
100
AcDbSymbolTableRecord
100
AcDbViewportTableRecord
2
*ACTIVE
70
0
10
0.0
20
0.0
11
1.0
21
1.0
12
60.85393284500712
22
1.602311788490737
13
0.0
23
0.0
14
0.5
24
0.5
15
0.5
25
0.5
16
0.0
26
0.0
36
1.0
17
0.0
27
0.0
37
0.0
40
135.7601553851812
41
1.367970660146699
42
50.0
43
0.0
44
0.0
50
0.0
51
0.0
71
0
72
1000
73
1
74
3
75
0
76
1
77
0
78
0
281
0
65
1
110
0.0
120
0.0
130
0.0
111
1.0
121
0.0
131
0.0
112
0.0
122
1.0
132
0.0
79
0
146
0.0
348
240
60
3
61
5
292
1
282
0
141
0.0
142
0.0
63
250
421
3355443
1001
ACAD_NAV_VCDISPLAY
1070
3
0
ENDTAB
0
TABLE
2
LTYPE
5
216
330
0
100
AcDbSymbolTable
70
2
0
LTYPE
5
26B
330
216
100
AcDbSymbolTableRecord
100
AcDbLinetypeTableRecord
2
ByBlock
70
0
3

72
65
73
0
40
0.0
0
LTYPE
5
26C
330
216
100
AcDbSymbolTableRecord
100
AcDbLinetypeTableRecord
2
ByLayer
70
0
3

72
65
73
0
40
0.0
0
LTYPE
5
26D
330
216
100
AcDbSymbolTableRecord
100
AcDbLinetypeTableRecord
2
CONTINUOUS
70
0
3
Solid line
72
65
73
0
40
0.0
0
LTYPE
5
103D
330
216
100
AcDbSymbolTableRecord
100
AcDbLinetypeTableRecord
2
DOTTED
70
0
3
Dotted . . . . . . . . . . . . . . . . . . . .
72
65
73
2
40
3.0
49
0.0
74
0
49
-3.0
74
0
0
ENDTAB
0
TABLE
2
LAYER
5
213
102
{ACAD_XDICTIONARY
360
297
102
}
330
0
100
AcDbSymbolTable
70
4
0
LAYER
5
265
102
{ACAD_XDICTIONARY
360
292
102
}
330
213
100
AcDbSymbolTableRecord
100
AcDbLayerTableRecord
2
0
70
0
62
7
6
CONTINUOUS
370
-3
390
220
347
232
348
0
0
LAYER
5
1900
330
213
100
AcDbSymbolTableRecord
100
AcDbLayerTableRecord
2
gear
70
0
62
7
6
CONTINUOUS
370
-3
390
220
347
232
348
0
1001
AcAecLayerStandard
1000

1000

1001
AcCmTransparency
1071
0
0
LAYER
5
1901
330
213
100
AcDbSymbolTableRecord
100
AcDbLayerTableRecord
2
gear_guides
70
0
62
5
6
CONTINUOUS
370
-3
390
220
347
232
348
0
1001
AcAecLayerStandard
1000

1000

1001
AcCmTransparency
1071
0
0
LAYER
5
1902
330
213
100
AcDbSymbolTableRecord
100
AcDbLayerTableRecord
2
gear_texts
70
0
62
7
6
CONTINUOUS
370
-3
390
220
347
232
348
0
1001
AcAecLayerStandard
1000

1000

1001
AcCmTransparency
1071
0
0
ENDTAB
0
TABLE
2
STYLE
5
214
330
0
100
AcDbSymbolTable
70
3
0
STYLE
5
266
330
214
100
AcDbSymbolTableRecord
100
AcDbTextStyleTableRecord
2
STANDARD
70
0
40
0.0
41
1.0
50
0.0
71
0
42
0.2
3
txt
4

0
STYLE
5
26A
330
214
100
AcDbSymbolTableRecord
100
AcDbTextStyleTableRecord
2
ANNOTATIVE
70
0
40
0.0
41
1.0
50
0.0
71
0
42
0.2
3
txt
4

1001
ACADANNOTATIVE
1000
AnnotativeData
1002
{
1070
1
1070
1
1002
}
0
STYLE
5
301
330
214
100
AcDbSymbolTableRecord
100
AcDbTextStyleTableRecord
2

70
1
40
0.0
41
1.0
50
0.0
71
0
42
0.2
3
ltypeshp.shx
4

0
ENDTAB
0
TABLE
2
VIEW
5
217
330
0
100
AcDbSymbolTable
70
1
0
ENDTAB
0
TABLE
2
UCS
5
218
330
0
100
AcDbSymbolTable
70
0
0
ENDTAB
0
TABLE
2
APPID
5
21A
330
0
100
AcDbSymbolTable
70
10
0
APPID
5
267
330
21A
100
AcDbSymbolTableRecord
100
AcDbRegAppTableRecord
2
ACAD
70
0
0
APPID
5
26E
330
21A
100
AcDbSymbolTableRecord
100
AcDbRegAppTableRecord
2
ACADANNOTATIVE
70
0
0
APPID
5
286
330
21A
100
AcDbSymbolTableRecord
100
AcDbRegAppTableRecord
2
ACADANNOPO
70
0
0
APPID
5
287
330
21A
100
AcDbSymbolTableRecord
100
AcDbRegAppTableRecord
2
ACAD_DSTYLE_DIMJAG
70
0
0
APPID
5
288
330
21A
100
AcDbSymbolTableRecord
100
AcDbRegAppTableRecord
2
ACAD_DSTYLE_DIMTALN
70
0
0
APPID
5
289
330
21A
100
AcDbSymbolTableRecord
100
AcDbRegAppTableRecord
2
ACAD_MLEADERVER
70
0
0
APPID
5
28A
330
21A
100
AcDbSymbolTableRecord
100
AcDbRegAppTableRecord
2
ACAD_NAV_VCDISPLAY
70
0
0
APPID
5
2E7
330
21A
100
AcDbSymbolTableRecord
100
AcDbRegAppTableRecord
2
ACAD_EXEMPT_FROM_CAD_STANDARDS
70
0
0
APPID
5
2FC
330
21A
100
AcDbSymbolTableRecord
100
AcDbRegAppTableRecord
2
AcAecLayerStandard
70
0
0
APPID
5
2FD
330
21A
100
AcDbSymbolTableRecord
100
AcDbRegAppTableRecord
2
AcCmTransparency
70
0
0
ENDTAB
0
TABLE
2
DIMSTYLE
5
21B
330
0
100
AcDbSymbolTable
70
2
100
AcDbDimStyleTable
71
1
340
268
0
DIMSTYLE
105
268
330
21B
100
AcDbSymbolTableRecord
100
AcDbDimStyleTableRecord
2
STANDARD
70
0
279
2
340
266
0
DIMSTYLE
105
269
330
21B
100
AcDbSymbolTableRecord
100
AcDbDimStyleTableRecord
2
ANNOTATIVE
70
0
40
0.0
279
2
340
266
1001
ACADANNOTATIVE
1000
AnnotativeData
1002
{
1070
1
1070
1
1002
}
0
ENDTAB
0
TABLE
2
BLOCK_RECORD
5
212
330
0
100
AcDbSymbolTable
70
2
0
BLOCK_RECORD
5
281
330
212
100
AcDbSymbolTableRecord
100
AcDbBlockTableRecord
2
*Model_Space
340
284
70
0
280
1
281
0
0
BLOCK_RECORD
5
27D
330
212
100
AcDbSymbolTableRecord
100
AcDbBlockTableRecord
2
*Paper_Space
340
280
70
0
280
1
281
0
0
BLOCK_RECORD
5
28C
330
212
100
AcDbSymbolTableRecord
100
AcDbBlockTableRecord
2
$MODEL_SPACE
340
0
70
0
280
1
281
0
0
BLOCK_RECORD
5
28E
330
212
100
AcDbSymbolTableRecord
100
AcDbBlockTableRecord
2
$PAPER_SPACE
340
0
70
0
280
1
281
0
0
ENDTAB
0
ENDSEC
0
SECTION
2
BLOCKS
0
BLOCK
5
282
330
281
100
AcDbEntity
8
0
100
AcDbBlockBegin
2
*Model_Space
70
0
10
0.0
20
0.0
30
0.0
3
*Model_Space
1

0
ENDBLK
5
283
330
281
100
AcDbEntity
8
0
100
AcDbBlockEnd
0
BLOCK
5
27E
330
27D
100
AcDbEntity
67
1
8
0
100
AcDbBlockBegin
2
*Paper_Space
70
0
10
0.0
20
0.0
30
0.0
3
*Paper_Space
1

0
ENDBLK
5
27F
330
27D
100
AcDbEntity
67
1
8
0
100
AcDbBlockEnd
0
BLOCK
5
28D
330
28C
100
AcDbEntity
8
0
100
AcDbBlockBegin
2
$MODEL_SPACE
70
0
10
0.0
20
0.0
30
0.0
3
$MODEL_SPACE
1

0
ENDBLK
5
21
330
28C
100
AcDbEntity
8
0
100
AcDbBlockEnd
0
BLOCK
5
28F
330
28E
100
AcDbEntity
8
0
100
AcDbBlockBegin
2
$PAPER_SPACE
70
0
10
0.0
20
0.0
30
0.0
3
$PAPER_SPACE
1

0
ENDBLK
5
5B
330
28E
100
AcDbEntity
8
0
100
AcDbBlockEnd
0
ENDSEC
0
SECTION
2
ENTITIES
0
LWPOLYLINE
5
2000
100
AcDbEntity
100
AcDbPolyline
66
1
90
1856
70
1
43
0
10
29.7
20
0
30
0
10
29.700416
20
0.000924
30
0
10
29.73679
20
0.002999
30
0
10
29.787189
20
0.006969
30
0
10
29.851541
20
0.013447
30
0
10
29.929753
20
0.023041
30
0
10
30.021713
20
0.03636
30
0
10
30.12729
20
0.054006
30
0
10
30.246331
20
0.076579
30
0
10
30.378666
20
0.104673
30
0
10
30.524104
20
0.138879
30
0
10
30.682434
20
0.179779
30
0
10
30.853427
20
0.22795
30
0
10
31.036835
20
0.283963
30
0
10
31.232391
20
0.34838
30
0
10
31.439808
20
0.421755
30
0
10
31.658783
20
0.504636
30
0
10
31.888994
20
0.597558
30
0
10
32.130099
20
0.701048
30
0
10
32.381743
20
0.815624
30
0
10
32.643549
20
0.941792
30
0
10
32.915125
20
1.080047
30
0
10
33.196064
20
1.230872
30
0
10
33.485939
20
1.394738
30
0
10
33.784309
20
1.572103
30
0
10
33.936538
20
1.665988
30
0
10
33.955705
20
1.677972
30
0
10
33.958103
20
1.679473
30
0
10
33.958477
20
1.679838
30
0
10
33.8737
20
2.927871
30
0
10
33.873281
20
2.928181
30
0
10
33.870702
20
2.929345
30
0
10
33.85009
20
2.938626
30
0
10
33.686563
20
3.011063
30
0
10
33.366948
20
3.146449
30
0
10
33.057576
20
3.26961
30
0
10
32.758822
20
3.381057
30
0
10
32.471044
20
3.481316
30
0
10
32.194581
20
3.57092
30
0
10
31.929755
20
3.650414
30
0
10
31.676868
20
3.720348
30
0
10
31.436207
20
3.781285
30
0
10
31.208035
20
3.833791
30
0
10
30.9926
20
3.878444
30
0
10
30.79013
20
3.915823
30
0
10
30.600832
20
3.946519
30
0
10
30.424895
20
3.971124
30
0
10
30.262489
20
3.990237
30
0
10
30.113761
20
4.00446
30
0
10
29.978843
20
4.014401
30
0
10
29.857842
20
4.020668
30
0
10
29.750849
20
4.023875
30
0
10
29.657932
20
4.024635
30
0
10
29.579141
20
4.023565
30
0
10
29.514505
20
4.02128
30
0
10
29.464032
20
4.018398
30
0
10
29.427711
20
4.015535
30
0
10
29.427174
20
4.016395
30
0
10
29.129323
20
5.794183
30
0
10
29.129551
20
5.79517
30
0
10
29.164821
20
5.804302
30
0
10
29.213477
20
5.818028
30
0
10
29.275329
20
5.836935
30
0
10
29.350166
20
5.861603
30
0
10
29.437761
20
5.892607
30
0
10
29.537866
20
5.930511
30
0
10
29.650217
20
5.975874
30
0
10
29.774528
20
6.029246
30
0
10
29.910498
20
6.091168
30
0
10
30.057806
20
6.16217
30
0
10
30.216116
20
6.242775
30
0
10
30.385073
20
6.333493
30
0
10
30.564304
20
6.434823
30
0
10
30.753421
20
6.547254
30
0
10
30.952019
20
6.671262
30
0
10
31.159678
20
6.80731
30
0
10
31.375961
20
6.955849
30
0
10
31.600416
20
7.117317
30
0
10
31.832578
20
7.292137
30
0
10
32.071964
20
7.480717
30
0
10
32.318079
20
7.683452
30
0
10
32.570416
20
7.900721
30
0
10
32.828451
20
8.132888
30
0
10
32.959439
20
8.254667
30
0
10
32.9759
20
8.270159
30
0
10
32.977959
20
8.2721
30
0
10
32.978254
20
8.27253
30
0
10
32.651627
20
9.480044
30
0
10
32.651156
20
9.480266
30
0
10
32.648399
20
9.480905
30
0
10
32.626373
20
9.485987
30
0
10
32.451856
20
9.525128
30
0
10
32.11197
20
9.59556
30
0
10
31.784515
20
9.655998
30
0
10
31.469759
20
9.70702
30
0
10
31.167951
20
9.74921
30
0
10
30.879319
20
9.783157
30
0
10
30.604073
20
9.809458
30
0
10
30.342402
20
9.828713
30
0
10
30.094477
20
9.841528
30
0
10
29.860446
20
9.848512
30
0
10
29.640439
20
9.850277
30
0
10
29.434567
20
9.847438
30
0
10
29.242918
20
9.840614
30
0
10
29.065561
20
9.830423
30
0
10
28.902547
20
9.817484
30
0
10
28.753902
20
9.802419
30
0
10
28.619637
20
9.785847
30
0
10
28.499739
20
9.768388
30
0
10
28.394176
20
9.75066
30
0
10
28.302896
20
9.733278
30
0
10
28.225828
20
9.716857
30
0
10
28.162879
20
9.702007
30
0
10
28.113938
20
9.689333
30
0
10
28.078874
20
9.67944
30
0
10
28.078179
20
9.680178
30
0
10
27.439222
20
11.365698
30
0
10
27.439253
20
11.366711
30
0
10
27.472064
20
11.382548
30
0
10
27.517108
20
11.405503
30
0
10
27.574082
20
11.436113
30
0
10
27.642669
20
11.474908
30
0
10
27.722532
20
11.522404
30
0
10
27.813319
20
11.57911
30
0
10
27.914661
20
11.64552
30
0
10
28.026171
20
11.722118
30
0
10
28.147448
20
11.809376
30
0
10
28.278074
20
11.907753
30
0
10
28.417617
20
12.017694
30
0
10
28.565629
20
12.13963
30
0
10
28.721647
20
12.273979
30
0
10
28.885196
20
12.421145
30
0
10
29.055786
20
12.581514
30
0
10
29.232913
20
12.755461
30
0
10
29.416062
20
12.943341
30
0
10
29.604703
20
13.145495
30
0
10
29.798298
20
13.362248
30
0
10
29.996294
20
13.593907
30
0
10
30.198129
20
13.840761
30
0
10
30.40323
20
14.103084
30
0
10
30.611014
20
14.38113
30
0
10
30.715727
20
14.526123
30
0
10
30.728849
20
14.544529
30
0
10
30.73049
20
14.546835
30
0
10
30.730696
20
14.547314
30
0
10
30.174771
20
15.667904
30
0
10
30.174264
20
15.66803
30
0
10
30.171436
20
15.668118
30
0
10
30.148842
20
15.668806
30
0
10
29.970043
20
15.673149
30
0
10
29.622946
20
15.675919
30
0
10
29.289992
20
15.671312
30
0
10
28.971331
20
15.659948
30
0
10
28.667091
20
15.642447
30
0
10
28.377382
20
15.619433
30
0
10
28.102294
20
15.591531
30
0
10
27.841895
20
15.559366
30
0
10
27.596233
20
15.523567
30
0
10
27.365336
20
15.484759
30
0
10
27.149213
20
15.443569
30
0
10
26.94785
20
15.400622
30
0
10
26.761215
20
15.35654
30
0
10
26.589255
20
15.311944
30
0
10
26.431896
20
15.267451
30
0
10
26.289047
20
15.223676
30
0
10
26.160594
20
15.181229
30
0
10
26.046406
20
15.140714
30
0
10
25.94633
20
15.102733
30
0
10
25.860195
20
15.067877
30
0
10
25.787812
20
15.036736
30
0
10
25.72897
20
15.00989
30
0
10
25.683442
20
14.987913
30
0
10
25.650981
20
14.971368
30
0
10
25.650156
20
14.971957
30
0
10
24.694647
20
16.500436
30
0
10
24.69448
20
16.501435
30
0
10
24.723571
20
16.523369
30
0
10
24.763271
20
16.554671
30
0
10
24.813179
20
16.595808
30
0
10
24.872879
20
16.647238
30
0
10
24.941942
20
16.709402
30
0
10
25.019922
20
16.78273
30
0
10
25.10636
20
16.867634
30
0
10
25.200784
20
16.964515
30
0
10
25.302708
20
17.073757
30
0
10
25.411632
20
17.195727
30
0
10
25.527045
20
17.330779
30
0
10
25.648424
20
17.479248
30
0
10
25.775234
20
17.641454
30
0
10
25.90693
20
17.817698
30
0
10
26.042955
20
18.008267
30
0
10
26.182744
20
18.213427
30
0
10
26.32572
20
18.433427
30
0
10
26.471298
20
18.668499
30
0
10
26.618887
20
18.918856
30
0
10
26.767884
20
19.18469
30
0
10
26.917682
20
19.466177
30
0
10
27.067666
20
19.763473
30
0
10
27.217213
20
20.076713
30
0
10
27.291627
20
20.239349
30
0
10
27.300906
20
20.259961
30
0
10
27.302066
20
20.262542
30
0
10
27.302174
20
20.263053
30
0
10
26.538315
20
21.253655
30
0
10
26.537793
20
21.25368
30
0
10
26.535002
20
21.253215
30
0
10
26.512708
20
21.249481
30
0
10
26.336497
20
21.218859
30
0
10
25.99553
20
21.15386
30
0
10
25.669872
20
21.084386
30
0
10
25.35955
20
21.011073
30
0
10
25.064571
20
20.934554
30
0
10
24.784919
20
20.855463
30
0
10
24.52056
20
20.774429
30
0
10
24.271439
20
20.692082
30
0
10
24.037481
20
20.609044
30
0
10
23.818592
20
20.525936
30
0
10
23.614657
20
20.443374
30
0
10
23.425542
20
20.361968
30
0
10
23.251093
20
20.282322
30
0
10
23.091137
20
20.205035
30
0
10
22.945483
20
20.130698
30
0
10
22.813919
20
20.059896
30
0
10
22.696215
20
19.993205
30
0
10
22.592125
20
19.931192
30
0
10
22.501382
20
19.874416
30
0
10
22.423702
20
19.823426
30
0
10
22.358784
20
19.778762
30
0
10
22.306311
20
19.740953
30
0
10
22.265945
20
19.710515
30
0
10
22.237336
20
19.687956
30
0
10
22.236412
20
19.688372
30
0
10
21.001071
20
21.001071
30
0
10
21.000712
20
21.002019
30
0
10
21.024965
20
21.029207
30
0
10
21.057795
20
21.067652
30
0
10
21.098719
20
21.117735
30
0
10
21.147239
20
21.179824
30
0
10
21.202847
20
21.254267
30
0
10
21.265023
20
21.341399
30
0
10
21.333236
20
21.441535
30
0
10
21.406946
20
21.554976
30
0
10
21.485599
20
21.682003
30
0
10
21.568634
20
21.82288
30
0
10
21.655483
20
21.977852
30
0
10
21.745565
20
22.147148
30
0
10
21.838294
20
22.330977
30
0
10
21.933075
20
22.529528
30
0
10
22.029309
20
22.742972
30
0
10
22.126386
20
22.971461
30
0
10
22.223695
20
23.215127
30
0
10
22.320616
20
23.474083
30
0
10
22.416527
20
23.748422
30
0
10
22.5108
20
24.038217
30
0
10
22.602804
20
24.34352
30
0
10
22.691906
20
24.664363
30
0
10
22.777469
20
25.000759
30
0
10
22.818725
20
25.174788
30
0
10
22.823804
20
25.196814
30
0
10
22.824438
20
25.199572
30
0
10
22.824445
20
25.200094
30
0
10
21.882006
20
26.02264
30
0
10
21.88149
20
26.022564
30
0
10
21.878843
20
26.021563
30
0
10
21.857706
20
26.013551
30
0
10
21.690855
20
25.94914
30
0
10
21.36912
20
25.818871
30
0
10
21.063273
20
25.687199
30
0
10
20.773217
20
25.554754
30
0
10
20.498833
20
25.422157
30
0
10
20.239984
20
25.290028
30
0
10
19.996514
20
25.158978
30
0
10
19.768245
20
25.029612
30
0
10
19.554983
20
24.902527
30
0
10
19.356513
20
24.778313
30
0
10
19.172604
20
24.657552
30
0
10
19.003004
20
24.540815
30
0
10
18.847445
20
24.428666
30
0
10
18.705641
20
24.321658
30
0
10
18.577287
20
24.220334
30
0
10
18.462064
20
24.125226
30
0
10
18.359633
20
24.036853
30
0
10
18.269641
20
23.955724
30
0
10
18.191718
20
23.882336
30
0
10
18.125478
20
23.817172
30
0
10
18.070522
20
23.760701
30
0
10
18.026432
20
23.713381
30
0
10
17.99278
20
23.675653
30
0
10
17.969122
20
23.647946
30
0
10
17.968135
20
23.648174
30
0
10
16.500436
20
24.694647
30
0
10
16.499899
20
24.695507
30
0
10
16.518382
20
24.726904
30
0
10
16.543081
20
24.771015
30
0
10
16.573447
20
24.82812
30
0
10
16.608922
20
24.898481
30
0
10
16.648938
20
24.982342
30
0
10
16.692921
20
25.07993
30
0
10
16.740288
20
25.19145
30
0
10
16.79045
20
25.317091
30
0
10
16.84281
20
25.457022
30
0
10
16.896766
20
25.611391
30
0
10
16.951712
20
25.780329
30
0
10
17.007035
20
25.963946
30
0
10
17.062119
20
26.162333
30
0
10
17.116345
20
26.37556
30
0
10
17.169088
20
26.603677
30
0
10
17.219724
20
26.846714
30
0
10
17.267626
20
27.104683
30
0
10
17.312165
20
27.377572
30
0
10
17.352712
20
27.665351
30
0
10
17.388637
20
27.967968
30
0
10
17.419312
20
28.285354
30
0
10
17.444109
20
28.617415
30
0
10
17.4624
20
28.96404
30
0
10
17.468912
20
29.142774
30
0
10
17.469597
20
29.165368
30
0
10
17.46968
20
29.168196
30
0
10
17.469585
20
29.168709
30
0
10
16.384784
20
29.79159
30
0
10
16.384293
20
29.791414
30
0
10
16.381892
20
29.789916
30
0
10
16.362724
20
29.777935
30
0
10
16.211645
20
29.682211
30
0
10
15.921506
20
29.491677
30
0
10
15.647224
20
29.302868
30
0
10
15.38858
20
29.11638
30
0
10
15.145337
20
28.932802
30
0
10
14.917239
20
28.752713
30
0
10
14.704013
20
28.576682
30
0
10
14.505369
20
28.405268
30
0
10
14.320997
20
28.23902
30
0
10
14.150574
20
28.078473
30
0
10
13.993758
20
27.924153
30
0
10
13.850191
20
27.776572
30
0
10
13.719501
20
27.63623
30
0
10
13.601297
20
27.503614
30
0
10
13.495177
20
27.379196
30
0
10
13.400722
20
27.263436
30
0
10
13.3175
20
27.156778
30
0
10
13.245065
20
27.059652
30
0
10
13.182956
20
26.972472
30
0
10
13.130703
20
26.895637
30
0
10
13.087819
20
26.82953
30
0
10
13.053808
20
26.774518
30
0
10
13.028163
20
26.73095
30
0
10
13.010365
20
26.699159
30
0
10
13.009352
20
26.69919
30
0
10
11.365698
20
27.439222
30
0
10
11.365003
20
27.43996
30
0
10
11.377006
20
27.47436
30
0
10
11.392625
20
27.522442
30
0
10
11.411267
20
27.584373
30
0
10
11.432333
20
27.660303
30
0
10
11.45522
20
27.75036
30
0
10
11.47932
20
27.854653
30
0
10
11.50402
20
27.973272
30
0
10
11.528707
20
28.106285
30
0
10
11.552761
20
28.253741
30
0
10
11.575565
20
28.415671
30
0
10
11.596497
20
28.592082
30
0
10
11.614935
20
28.782965
30
0
10
11.630258
20
28.988286
30
0
10
11.641842
20
29.207994
30
0
10
11.649069
20
29.442017
30
0
10
11.651318
20
29.690264
30
0
10
11.647973
20
29.952621
30
0
10
11.638418
20
30.228955
30
0
10
11.622043
20
30.519115
30
0
10
11.59824
20
30.822927
30
0
10
11.566406
20
31.140198
30
0
10
11.525944
20
31.470716
30
0
10
11.476261
20
31.81425
30
0
10
11.447779
20
31.990819
30
0
10
11.444042
20
32.013113
30
0
10
11.443572
20
32.015903
30
0
10
11.443379
20
32.016388
30
0
10
10.257904
20
32.415666
30
0
10
10.257457
20
32.415397
30
0
10
10.255394
20
32.41346
30
0
10
10.238932
20
32.397969
30
0
10
10.109431
20
32.27461
30
0
10
9.862038
20
32.031135
30
0
10
9.629861
20
31.792443
30
0
10
9.412569
20
31.55908
30
0
10
9.209814
20
31.331575
30
0
10
9.021233
20
31.110446
30
0
10
8.846446
20
30.8962
30
0
10
8.685059
20
30.689326
30
0
10
8.536664
20
30.490303
30
0
10
8.400837
20
30.299593
30
0
10
8.27714
20
30.117645
30
0
10
8.165123
20
29.944892
30
0
10
8.064323
20
29.78175
30
0
10
7.974263
20
29.628621
30
0
10
7.894455
20
29.485891
30
0
10
7.824399
20
29.353928
30
0
10
7.763584
20
29.233084
30
0
10
7.711488
20
29.123692
30
0
10
7.667581
20
29.026071
30
0
10
7.631321
20
28.940518
30
0
10
7.602158
20
28.867315
30
0
10
7.579534
20
28.806724
30
0
10
7.562881
20
28.758991
30
0
10
7.551627
20
28.724339
30
0
10
7.550627
20
28.724171
30
0
10
5.794183
20
29.129323
30
0
10
5.793357
20
29.129911
30
0
10
5.798418
20
29.165991
30
0
10
5.804357
20
29.216197
30
0
10
5.810558
20
29.280575
30
0
10
5.816407
20
29.359156
30
0
10
5.821285
20
29.451948
30
0
10
5.824575
20
29.558938
30
0
10
5.825659
20
29.680096
30
0
10
5.823922
20
29.815369
30
0
10
5.818747
20
29.964686
30
0
10
5.809522
20
30.127953
30
0
10
5.795635
20
30.305058
30
0
10
5.77648
20
30.495869
30
0
10
5.751452
20
30.700235
30
0
10
5.719951
20
30.917981
30
0
10
5.681383
20
31.148918
30
0
10
5.635158
20
31.392833
30
0
10
5.580694
20
31.649496
30
0
10
5.517412
20
31.918657
30
0
10
5.444744
20
32.200047
30
0
10
5.362128
20
32.493377
30
0
10
5.26901
20
32.798342
30
0
10
5.164844
20
33.114616
30
0
10
5.049096
20
33.441855
30
0
10
4.986714
20
33.609475
30
0
10
4.9787
20
33.630612
30
0
10
4.977695
20
33.633257
30
0
10
4.97741
20
33.633694
30
0
10
3.736819
20
33.794026
30
0
10
3.736432
20
33.793675
30
0
10
3.734788
20
33.791373
30
0
10
3.721663
20
33.772968
30
0
10
3.618717
20
33.626715
30
0
10
3.423577
20
33.339653
30
0
10
3.242428
20
33.060253
30
0
10
3.074838
20
32.788982
30
0
10
2.920363
20
32.526293
30
0
10
2.778545
20
32.272623
30
0
10
2.648914
20
32.028394
30
0
10
2.530988
20
31.79401
30
0
10
2.424271
20
31.569861
30
0
10
2.328259
20
31.356317
30
0
10
2.242436
20
31.153733
30
0
10
2.166274
20
30.962445
30
0
10
2.099238
20
30.782773
30
0
10
2.040783
20
30.615017
30
0
10
1.990353
20
30.45946
30
0
10
1.947388
20
30.316365
30
0
10
1.911317
20
30.185978
30
0
10
1.881564
20
30.068525
30
0
10
1.857545
20
29.964214
30
0
10
1.838673
20
29.873231
30
0
10
1.824351
20
29.795745
30
0
10
1.813982
20
29.731905
30
0
10
1.806962
20
29.68184
30
0
10
1.802684
20
29.645658
30
0
10
1.801736
20
29.645299
30
0
10
0
20
29.7
30
0
10
-0.000924
20
29.700416
30
0
10
-0.002999
20
29.73679
30
0
10
-0.006969
20
29.787189
30
0
10
-0.013447
20
29.851541
30
0
10
-0.023041
20
29.929753
30
0
10
-0.03636
20
30.021713
30
0
10
-0.054006
20
30.12729
30
0
10
-0.076579
20
30.246331
30
0
10
-0.104673
20
30.378666
30
0
10
-0.138879
20
30.524104
30
0
10
-0.179779
20
30.682434
30
0
10
-0.22795
20
30.853427
30
0
10
-0.283963
20
31.036835
30
0
10
-0.34838
20
31.232391
30
0
10
-0.421755
20
31.439808
30
0
10
-0.504636
20
31.658783
30
0
10
-0.597558
20
31.888994
30
0
10
-0.701048
20
32.130099
30
0
10
-0.815624
20
32.381743
30
0
10
-0.941792
20
32.643549
30
0
10
-1.080047
20
32.915125
30
0
10
-1.230872
20
33.196064
30
0
10
-1.394738
20
33.485939
30
0
10
-1.572103
20
33.784309
30
0
10
-1.665988
20
33.936538
30
0
10
-1.677972
20
33.955705
30
0
10
-1.679473
20
33.958103
30
0
10
-1.679838
20
33.958477
30
0
10
-2.927871
20
33.8737
30
0
10
-2.928181
20
33.873281
30
0
10
-2.929345
20
33.870702
30
0
10
-2.938626
20
33.85009
30
0
10
-3.011063
20
33.686563
30
0
10
-3.146449
20
33.366948
30
0
10
-3.26961
20
33.057576
30
0
10
-3.381057
20
32.758822
30
0
10
-3.481316
20
32.471044
30
0
10
-3.57092
20
32.194581
30
0
10
-3.650414
20
31.929755
30
0
10
-3.720348
20
31.676868
30
0
10
-3.781285
20
31.436207
30
0
10
-3.833791
20
31.208035
30
0
10
-3.878444
20
30.9926
30
0
10
-3.915823
20
30.79013
30
0
10
-3.946519
20
30.600832
30
0
10
-3.971124
20
30.424895
30
0
10
-3.990237
20
30.262489
30
0
10
-4.00446
20
30.113761
30
0
10
-4.014401
20
29.978843
30
0
10
-4.020668
20
29.857842
30
0
10
-4.023875
20
29.750849
30
0
10
-4.024635
20
29.657932
30
0
10
-4.023565
20
29.579141
30
0
10
-4.02128
20
29.514505
30
0
10
-4.018398
20
29.464032
30
0
10
-4.015535
20
29.427711
30
0
10
-4.016395
20
29.427174
30
0
10
-5.794183
20
29.129323
30
0
10
-5.79517
20
29.129551
30
0
10
-5.804302
20
29.164821
30
0
10
-5.818028
20
29.213477
30
0
10
-5.836935
20
29.275329
30
0
10
-5.861603
20
29.350166
30
0
10
-5.892607
20
29.437761
30
0
10
-5.930511
20
29.537866
30
0
10
-5.975874
20
29.650217
30
0
10
-6.029246
20
29.774528
30
0
10
-6.091168
20
29.910498
30
0
10
-6.16217
20
30.057806
30
0
10
-6.242775
20
30.216116
30
0
10
-6.333493
20
30.385073
30
0
10
-6.434823
20
30.564304
30
0
10
-6.547254
20
30.753421
30
0
10
-6.671262
20
30.952019
30
0
10
-6.80731
20
31.159678
30
0
10
-6.955849
20
31.375961
30
0
10
-7.117317
20
31.600416
30
0
10
-7.292137
20
31.832578
30
0
10
-7.480717
20
32.071964
30
0
10
-7.683452
20
32.318079
30
0
10
-7.900721
20
32.570416
30
0
10
-8.132888
20
32.828451
30
0
10
-8.254667
20
32.959439
30
0
10
-8.270159
20
32.9759
30
0
10
-8.2721
20
32.977959
30
0
10
-8.27253
20
32.978254
30
0
10
-9.480044
20
32.651627
30
0
10
-9.480266
20
32.651156
30
0
10
-9.480905
20
32.648399
30
0
10
-9.485987
20
32.626373
30
0
10
-9.525128
20
32.451856
30
0
10
-9.59556
20
32.11197
30
0
10
-9.655998
20
31.784515
30
0
10
-9.70702
20
31.469759
30
0
10
-9.74921
20
31.167951
30
0
10
-9.783157
20
30.879319
30
0
10
-9.809458
20
30.604073
30
0
10
-9.828713
20
30.342402
30
0
10
-9.841528
20
30.094477
30
0
10
-9.848512
20
29.860446
30
0
10
-9.850277
20
29.640439
30
0
10
-9.847438
20
29.434567
30
0
10
-9.840614
20
29.242918
30
0
10
-9.830423
20
29.065561
30
0
10
-9.817484
20
28.902547
30
0
10
-9.802419
20
28.753902
30
0
10
-9.785847
20
28.619637
30
0
10
-9.768388
20
28.499739
30
0
10
-9.75066
20
28.394176
30
0
10
-9.733278
20
28.302896
30
0
10
-9.716857
20
28.225828
30
0
10
-9.702007
20
28.162879
30
0
10
-9.689333
20
28.113938
30
0
10
-9.67944
20
28.078874
30
0
10
-9.680178
20
28.078179
30
0
10
-11.365698
20
27.439222
30
0
10
-11.366711
20
27.439253
30
0
10
-11.382548
20
27.472064
30
0
10
-11.405503
20
27.517108
30
0
10
-11.436113
20
27.574082
30
0
10
-11.474908
20
27.642669
30
0
10
-11.522404
20
27.722532
30
0
10
-11.57911
20
27.813319
30
0
10
-11.64552
20
27.914661
30
0
10
-11.722118
20
28.026171
30
0
10
-11.809376
20
28.147448
30
0
10
-11.907753
20
28.278074
30
0
10
-12.017694
20
28.417617
30
0
10
-12.13963
20
28.565629
30
0
10
-12.273979
20
28.721647
30
0
10
-12.421145
20
28.885196
30
0
10
-12.581514
20
29.055786
30
0
10
-12.755461
20
29.232913
30
0
10
-12.943341
20
29.416062
30
0
10
-13.145495
20
29.604703
30
0
10
-13.362248
20
29.798298
30
0
10
-13.593907
20
29.996294
30
0
10
-13.840761
20
30.198129
30
0
10
-14.103084
20
30.40323
30
0
10
-14.38113
20
30.611014
30
0
10
-14.526123
20
30.715727
30
0
10
-14.544529
20
30.728849
30
0
10
-14.546835
20
30.73049
30
0
10
-14.547314
20
30.730696
30
0
10
-15.667904
20
30.174771
30
0
10
-15.66803
20
30.174264
30
0
10
-15.668118
20
30.171436
30
0
10
-15.668806
20
30.148842
30
0
10
-15.673149
20
29.970043
30
0
10
-15.675919
20
29.622946
30
0
10
-15.671312
20
29.289992
30
0
10
-15.659948
20
28.971331
30
0
10
-15.642447
20
28.667091
30
0
10
-15.619433
20
28.377382
30
0
10
-15.591531
20
28.102294
30
0
10
-15.559366
20
27.841895
30
0
10
-15.523567
20
27.596233
30
0
10
-15.484759
20
27.365336
30
0
10
-15.443569
20
27.149213
30
0
10
-15.400622
20
26.94785
30
0
10
-15.35654
20
26.761215
30
0
10
-15.311944
20
26.589255
30
0
10
-15.267451
20
26.431896
30
0
10
-15.223676
20
26.289047
30
0
10
-15.181229
20
26.160594
30
0
10
-15.140714
20
26.046406
30
0
10
-15.102733
20
25.94633
30
0
10
-15.067877
20
25.860195
30
0
10
-15.036736
20
25.787812
30
0
10
-15.00989
20
25.72897
30
0
10
-14.987913
20
25.683442
30
0
10
-14.971368
20
25.650981
30
0
10
-14.971957
20
25.650156
30
0
10
-16.500436
20
24.694647
30
0
10
-16.501435
20
24.69448
30
0
10
-16.523369
20
24.723571
30
0
10
-16.554671
20
24.763271
30
0
10
-16.595808
20
24.813179
30
0
10
-16.647238
20
24.872879
30
0
10
-16.709402
20
24.941942
30
0
10
-16.78273
20
25.019922
30
0
10
-16.867634
20
25.10636
30
0
10
-16.964515
20
25.200784
30
0
10
-17.073757
20
25.302708
30
0
10
-17.195727
20
25.411632
30
0
10
-17.330779
20
25.527045
30
0
10
-17.479248
20
25.648424
30
0
10
-17.641454
20
25.775234
30
0
10
-17.817698
20
25.90693
30
0
10
-18.008267
20
26.042955
30
0
10
-18.213427
20
26.182744
30
0
10
-18.433427
20
26.32572
30
0
10
-18.668499
20
26.471298
30
0
10
-18.918856
20
26.618887
30
0
10
-19.18469
20
26.767884
30
0
10
-19.466177
20
26.917682
30
0
10
-19.763473
20
27.067666
30
0
10
-20.076713
20
27.217213
30
0
10
-20.239349
20
27.291627
30
0
10
-20.259961
20
27.300906
30
0
10
-20.262542
20
27.302066
30
0
10
-20.263053
20
27.302174
30
0
10
-21.253655
20
26.538315
30
0
10
-21.25368
20
26.537793
30
0
10
-21.253215
20
26.535002
30
0
10
-21.249481
20
26.512708
30
0
10
-21.218859
20
26.336497
30
0
10
-21.15386
20
25.99553
30
0
10
-21.084386
20
25.669872
30
0
10
-21.011073
20
25.35955
30
0
10
-20.934554
20
25.064571
30
0
10
-20.855463
20
24.784919
30
0
10
-20.774429
20
24.52056
30
0
10
-20.692082
20
24.271439
30
0
10
-20.609044
20
24.037481
30
0
10
-20.525936
20
23.818592
30
0
10
-20.443374
20
23.614657
30
0
10
-20.361968
20
23.425542
30
0
10
-20.282322
20
23.251093
30
0
10
-20.205035
20
23.091137
30
0
10
-20.130698
20
22.945483
30
0
10
-20.059896
20
22.813919
30
0
10
-19.993205
20
22.696215
30
0
10
-19.931192
20
22.592125
30
0
10
-19.874416
20
22.501382
30
0
10
-19.823426
20
22.423702
30
0
10
-19.778762
20
22.358784
30
0
10
-19.740953
20
22.306311
30
0
10
-19.710515
20
22.265945
30
0
10
-19.687956
20
22.237336
30
0
10
-19.688372
20
22.236412
30
0
10
-21.001071
20
21.001071
30
0
10
-21.002019
20
21.000712
30
0
10
-21.029207
20
21.024965
30
0
10
-21.067652
20
21.057795
30
0
10
-21.117735
20
21.098719
30
0
10
-21.179824
20
21.147239
30
0
10
-21.254267
20
21.202847
30
0
10
-21.341399
20
21.265023
30
0
10
-21.441535
20
21.333236
30
0
10
-21.554976
20
21.406946
30
0
10
-21.682003
20
21.485599
30
0
10
-21.82288
20
21.568634
30
0
10
-21.977852
20
21.655483
30
0
10
-22.147148
20
21.745565
30
0
10
-22.330977
20
21.838294
30
0
10
-22.529528
20
21.933075
30
0
10
-22.742972
20
22.029309
30
0
10
-22.971461
20
22.126386
30
0
10
-23.215127
20
22.223695
30
0
10
-23.474083
20
22.320616
30
0
10
-23.748422
20
22.416527
30
0
10
-24.038217
20
22.5108
30
0
10
-24.34352
20
22.602804
30
0
10
-24.664363
20
22.691906
30
0
10
-25.000759
20
22.777469
30
0
10
-25.174788
20
22.818725
30
0
10
-25.196814
20
22.823804
30
0
10
-25.199572
20
22.824438
30
0
10
-25.200094
20
22.824445
30
0
10
-26.02264
20
21.882006
30
0
10
-26.022564
20
21.88149
30
0
10
-26.021563
20
21.878843
30
0
10
-26.013551
20
21.857706
30
0
10
-25.94914
20
21.690855
30
0
10
-25.818871
20
21.36912
30
0
10
-25.687199
20
21.063273
30
0
10
-25.554754
20
20.773217
30
0
10
-25.422157
20
20.498833
30
0
10
-25.290028
20
20.239984
30
0
10
-25.158978
20
19.996514
30
0
10
-25.029612
20
19.768245
30
0
10
-24.902527
20
19.554983
30
0
10
-24.778313
20
19.356513
30
0
10
-24.657552
20
19.172604
30
0
10
-24.540815
20
19.003004
30
0
10
-24.428666
20
18.847445
30
0
10
-24.321658
20
18.705641
30
0
10
-24.220334
20
18.577287
30
0
10
-24.125226
20
18.462064
30
0
10
-24.036853
20
18.359633
30
0
10
-23.955724
20
18.269641
30
0
10
-23.882336
20
18.191718
30
0
10
-23.817172
20
18.125478
30
0
10
-23.760701
20
18.070522
30
0
10
-23.713381
20
18.026432
30
0
10
-23.675653
20
17.99278
30
0
10
-23.647946
20
17.969122
30
0
10
-23.648174
20
17.968135
30
0
10
-24.694647
20
16.500436
30
0
10
-24.695507
20
16.499899
30
0
10
-24.726904
20
16.518382
30
0
10
-24.771015
20
16.543081
30
0
10
-24.82812
20
16.573447
30
0
10
-24.898481
20
16.608922
30
0
10
-24.982342
20
16.648938
30
0
10
-25.07993
20
16.692921
30
0
10
-25.19145
20
16.740288
30
0
10
-25.317091
20
16.79045
30
0
10
-25.457022
20
16.84281
30
0
10
-25.611391
20
16.896766
30
0
10
-25.780329
20
16.951712
30
0
10
-25.963946
20
17.007035
30
0
10
-26.162333
20
17.062119
30
0
10
-26.37556
20
17.116345
30
0
10
-26.603677
20
17.169088
30
0
10
-26.846714
20
17.219724
30
0
10
-27.104683
20
17.267626
30
0
10
-27.377572
20
17.312165
30
0
10
-27.665351
20
17.352712
30
0
10
-27.967968
20
17.388637
30
0
10
-28.285354
20
17.419312
30
0
10
-28.617415
20
17.444109
30
0
10
-28.96404
20
17.4624
30
0
10
-29.142774
20
17.468912
30
0
10
-29.165368
20
17.469597
30
0
10
-29.168196
20
17.46968
30
0
10
-29.168709
20
17.469585
30
0
10
-29.79159
20
16.384784
30
0
10
-29.791414
20
16.384293
30
0
10
-29.789916
20
16.381892
30
0
10
-29.777935
20
16.362724
30
0
10
-29.682211
20
16.211645
30
0
10
-29.491677
20
15.921506
30
0
10
-29.302868
20
15.647224
30
0
10
-29.11638
20
15.38858
30
0
10
-28.932802
20
15.145337
30
0
10
-28.752713
20
14.917239
30
0
10
-28.576682
20
14.704013
30
0
10
-28.405268
20
14.505369
30
0
10
-28.23902
20
14.320997
30
0
10
-28.078473
20
14.150574
30
0
10
-27.924153
20
13.993758
30
0
10
-27.776572
20
13.850191
30
0
10
-27.63623
20
13.719501
30
0
10
-27.503614
20
13.601297
30
0
10
-27.379196
20
13.495177
30
0
10
-27.263436
20
13.400722
30
0
10
-27.156778
20
13.3175
30
0
10
-27.059652
20
13.245065
30
0
10
-26.972472
20
13.182956
30
0
10
-26.895637
20
13.130703
30
0
10
-26.82953
20
13.087819
30
0
10
-26.774518
20
13.053808
30
0
10
-26.73095
20
13.028163
30
0
10
-26.699159
20
13.010365
30
0
10
-26.69919
20
13.009352
30
0
10
-27.439222
20
11.365698
30
0
10
-27.43996
20
11.365003
30
0
10
-27.47436
20
11.377006
30
0
10
-27.522442
20
11.392625
30
0
10
-27.584373
20
11.411267
30
0
10
-27.660303
20
11.432333
30
0
10
-27.75036
20
11.45522
30
0
10
-27.854653
20
11.47932
30
0
10
-27.973272
20
11.50402
30
0
10
-28.106285
20
11.528707
30
0
10
-28.253741
20
11.552761
30
0
10
-28.415671
20
11.575565
30
0
10
-28.592082
20
11.596497
30
0
10
-28.782965
20
11.614935
30
0
10
-28.988286
20
11.630258
30
0
10
-29.207994
20
11.641842
30
0
10
-29.442017
20
11.649069
30
0
10
-29.690264
20
11.651318
30
0
10
-29.952621
20
11.647973
30
0
10
-30.228955
20
11.638418
30
0
10
-30.519115
20
11.622043
30
0
10
-30.822927
20
11.59824
30
0
10
-31.140198
20
11.566406
30
0
10
-31.470716
20
11.525944
30
0
10
-31.81425
20
11.476261
30
0
10
-31.990819
20
11.447779
30
0
10
-32.013113
20
11.444042
30
0
10
-32.015903
20
11.443572
30
0
10
-32.016388
20
11.443379
30
0
10
-32.415666
20
10.257904
30
0
10
-32.415397
20
10.257457
30
0
10
-32.41346
20
10.255394
30
0
10
-32.397969
20
10.238932
30
0
10
-32.27461
20
10.109431
30
0
10
-32.031135
20
9.862038
30
0
10
-31.792443
20
9.629861
30
0
10
-31.55908
20
9.412569
30
0
10
-31.331575
20
9.209814
30
0
10
-31.110446
20
9.021233
30
0
10
-30.8962
20
8.846446
30
0
10
-30.689326
20
8.685059
30
0
10
-30.490303
20
8.536664
30
0
10
-30.299593
20
8.400837
30
0
10
-30.117645
20
8.27714
30
0
10
-29.944892
20
8.165123
30
0
10
-29.78175
20
8.064323
30
0
10
-29.628621
20
7.974263
30
0
10
-29.485891
20
7.894455
30
0
10
-29.353928
20
7.824399
30
0
10
-29.233084
20
7.763584
30
0
10
-29.123692
20
7.711488
30
0
10
-29.026071
20
7.667581
30
0
10
-28.940518
20
7.631321
30
0
10
-28.867315
20
7.602158
30
0
10
-28.806724
20
7.579534
30
0
10
-28.758991
20
7.562881
30
0
10
-28.724339
20
7.551627
30
0
10
-28.724171
20
7.550627
30
0
10
-29.129323
20
5.794183
30
0
10
-29.129911
20
5.793357
30
0
10
-29.165991
20
5.798418
30
0
10
-29.216197
20
5.804357
30
0
10
-29.280575
20
5.810558
30
0
10
-29.359156
20
5.816407
30
0
10
-29.451948
20
5.821285
30
0
10
-29.558938
20
5.824575
30
0
10
-29.680096
20
5.825659
30
0
10
-29.815369
20
5.823922
30
0
10
-29.964686
20
5.818747
30
0
10
-30.127953
20
5.809522
30
0
10
-30.305058
20
5.795635
30
0
10
-30.495869
20
5.77648
30
0
10
-30.700235
20
5.751452
30
0
10
-30.917981
20
5.719951
30
0
10
-31.148918
20
5.681383
30
0
10
-31.392833
20
5.635158
30
0
10
-31.649496
20
5.580694
30
0
10
-31.918657
20
5.517412
30
0
10
-32.200047
20
5.444744
30
0
10
-32.493377
20
5.362128
30
0
10
-32.798342
20
5.26901
30
0
10
-33.114616
20
5.164844
30
0
10
-33.441855
20
5.049096
30
0
10
-33.609475
20
4.986714
30
0
10
-33.630612
20
4.9787
30
0
10
-33.633257
20
4.977695
30
0
10
-33.633694
20
4.97741
30
0
10
-33.794026
20
3.736819
30
0
10
-33.793675
20
3.736432
30
0
10
-33.791373
20
3.734788
30
0
10
-33.772968
20
3.721663
30
0
10
-33.626715
20
3.618717
30
0
10
-33.339653
20
3.423577
30
0
10
-33.060253
20
3.242428
30
0
10
-32.788982
20
3.074838
30
0
10
-32.526293
20
2.920363
30
0
10
-32.272623
20
2.778545
30
0
10
-32.028394
20
2.648914
30
0
10
-31.79401
20
2.530988
30
0
10
-31.569861
20
2.424271
30
0
10
-31.356317
20
2.328259
30
0
10
-31.153733
20
2.242436
30
0
10
-30.962445
20
2.166274
30
0
10
-30.782773
20
2.099238
30
0
10
-30.615017
20
2.040783
30
0
10
-30.45946
20
1.990353
30
0
10
-30.316365
20
1.947388
30
0
10
-30.185978
20
1.911317
30
0
10
-30.068525
20
1.881564
30
0
10
-29.964214
20
1.857545
30
0
10
-29.873231
20
1.838673
30
0
10
-29.795745
20
1.824351
30
0
10
-29.731905
20
1.813982
30
0
10
-29.68184
20
1.806962
30
0
10
-29.645658
20
1.802684
30
0
10
-29.645299
20
1.801736
30
0
10
-29.7
20
0
30
0
10
-29.700416
20
-0.000924
30
0
10
-29.73679
20
-0.002999
30
0
10
-29.787189
20
-0.006969
30
0
10
-29.851541
20
-0.013447
30
0
10
-29.929753
20
-0.023041
30
0
10
-30.021713
20
-0.03636
30
0
10
-30.12729
20
-0.054006
30
0
10
-30.246331
20
-0.076579
30
0
10
-30.378666
20
-0.104673
30
0
10
-30.524104
20
-0.138879
30
0
10
-30.682434
20
-0.179779
30
0
10
-30.853427
20
-0.22795
30
0
10
-31.036835
20
-0.283963
30
0
10
-31.232391
20
-0.34838
30
0
10
-31.439808
20
-0.421755
30
0
10
-31.658783
20
-0.504636
30
0
10
-31.888994
20
-0.597558
30
0
10
-32.130099
20
-0.701048
30
0
10
-32.381743
20
-0.815624
30
0
10
-32.643549
20
-0.941792
30
0
10
-32.915125
20
-1.080047
30
0
10
-33.196064
20
-1.230872
30
0
10
-33.485939
20
-1.394738
30
0
10
-33.784309
20
-1.572103
30
0
10
-33.936538
20
-1.665988
30
0
10
-33.955705
20
-1.677972
30
0
10
-33.958103
20
-1.679473
30
0
10
-33.958477
20
-1.679838
30
0
10
-33.8737
20
-2.927871
30
0
10
-33.873281
20
-2.928181
30
0
10
-33.870702
20
-2.929345
30
0
10
-33.85009
20
-2.938626
30
0
10
-33.686563
20
-3.011063
30
0
10
-33.366948
20
-3.146449
30
0
10
-33.057576
20
-3.26961
30
0
10
-32.758822
20
-3.381057
30
0
10
-32.471044
20
-3.481316
30
0
10
-32.194581
20
-3.57092
30
0
10
-31.929755
20
-3.650414
30
0
10
-31.676868
20
-3.720348
30
0
10
-31.436207
20
-3.781285
30
0
10
-31.208035
20
-3.833791
30
0
10
-30.9926
20
-3.878444
30
0
10
-30.79013
20
-3.915823
30
0
10
-30.600832
20
-3.946519
30
0
10
-30.424895
20
-3.971124
30
0
10
-30.262489
20
-3.990237
30
0
10
-30.113761
20
-4.00446
30
0
10
-29.978843
20
-4.014401
30
0
10
-29.857842
20
-4.020668
30
0
10
-29.750849
20
-4.023875
30
0
10
-29.657932
20
-4.024635
30
0
10
-29.579141
20
-4.023565
30
0
10
-29.514505
20
-4.02128
30
0
10
-29.464032
20
-4.018398
30
0
10
-29.427711
20
-4.015535
30
0
10
-29.427174
20
-4.016395
30
0
10
-29.129323
20
-5.794183
30
0
10
-29.129551
20
-5.79517
30
0
10
-29.164821
20
-5.804302
30
0
10
-29.213477
20
-5.818028
30
0
10
-29.275329
20
-5.836935
30
0
10
-29.350166
20
-5.861603
30
0
10
-29.437761
20
-5.892607
30
0
10
-29.537866
20
-5.930511
30
0
10
-29.650217
20
-5.975874
30
0
10
-29.774528
20
-6.029246
30
0
10
-29.910498
20
-6.091168
30
0
10
-30.057806
20
-6.16217
30
0
10
-30.216116
20
-6.242775
30
0
10
-30.385073
20
-6.333493
30
0
10
-30.564304
20
-6.434823
30
0
10
-30.753421
20
-6.547254
30
0
10
-30.952019
20
-6.671262
30
0
10
-31.159678
20
-6.80731
30
0
10
-31.375961
20
-6.955849
30
0
10
-31.600416
20
-7.117317
30
0
10
-31.832578
20
-7.292137
30
0
10
-32.071964
20
-7.480717
30
0
10
-32.318079
20
-7.683452
30
0
10
-32.570416
20
-7.900721
30
0
10
-32.828451
20
-8.132888
30
0
10
-32.959439
20
-8.254667
30
0
10
-32.9759
20
-8.270159
30
0
10
-32.977959
20
-8.2721
30
0
10
-32.978254
20
-8.27253
30
0
10
-32.651627
20
-9.480044
30
0
10
-32.651156
20
-9.480266
30
0
10
-32.648399
20
-9.480905
30
0
10
-32.626373
20
-9.485987
30
0
10
-32.451856
20
-9.525128
30
0
10
-32.11197
20
-9.59556
30
0
10
-31.784515
20
-9.655998
30
0
10
-31.469759
20
-9.70702
30
0
10
-31.167951
20
-9.74921
30
0
10
-30.879319
20
-9.783157
30
0
10
-30.604073
20
-9.809458
30
0
10
-30.342402
20
-9.828713
30
0
10
-30.094477
20
-9.841528
30
0
10
-29.860446
20
-9.848512
30
0
10
-29.640439
20
-9.850277
30
0
10
-29.434567
20
-9.847438
30
0
10
-29.242918
20
-9.840614
30
0
10
-29.065561
20
-9.830423
30
0
10
-28.902547
20
-9.817484
30
0
10
-28.753902
20
-9.802419
30
0
10
-28.619637
20
-9.785847
30
0
10
-28.499739
20
-9.768388
30
0
10
-28.394176
20
-9.75066
30
0
10
-28.302896
20
-9.733278
30
0
10
-28.225828
20
-9.716857
30
0
10
-28.162879
20
-9.702007
30
0
10
-28.113938
20
-9.689333
30
0
10
-28.078874
20
-9.67944
30
0
10
-28.078179
20
-9.680178
30
0
10
-27.439222
20
-11.365698
30
0
10
-27.439253
20
-11.366711
30
0
10
-27.472064
20
-11.382548
30
0
10
-27.517108
20
-11.405503
30
0
10
-27.574082
20
-11.436113
30
0
10
-27.642669
20
-11.474908
30
0
10
-27.722532
20
-11.522404
30
0
10
-27.813319
20
-11.57911
30
0
10
-27.914661
20
-11.64552
30
0
10
-28.026171
20
-11.722118
30
0
10
-28.147448
20
-11.809376
30
0
10
-28.278074
20
-11.907753
30
0
10
-28.417617
20
-12.017694
30
0
10
-28.565629
20
-12.13963
30
0
10
-28.721647
20
-12.273979
30
0
10
-28.885196
20
-12.421145
30
0
10
-29.055786
20
-12.581514
30
0
10
-29.232913
20
-12.755461
30
0
10
-29.416062
20
-12.943341
30
0
10
-29.604703
20
-13.145495
30
0
10
-29.798298
20
-13.362248
30
0
10
-29.996294
20
-13.593907
30
0
10
-30.198129
20
-13.840761
30
0
10
-30.40323
20
-14.103084
30
0
10
-30.611014
20
-14.38113
30
0
10
-30.715727
20
-14.526123
30
0
10
-30.728849
20
-14.544529
30
0
10
-30.73049
20
-14.546835
30
0
10
-30.730696
20
-14.547314
30
0
10
-30.174771
20
-15.667904
30
0
10
-30.174264
20
-15.66803
30
0
10
-30.171436
20
-15.668118
30
0
10
-30.148842
20
-15.668806
30
0
10
-29.970043
20
-15.673149
30
0
10
-29.622946
20
-15.675919
30
0
10
-29.289992
20
-15.671312
30
0
10
-28.971331
20
-15.659948
30
0
10
-28.667091
20
-15.642447
30
0
10
-28.377382
20
-15.619433
30
0
10
-28.102294
20
-15.591531
30
0
10
-27.841895
20
-15.559366
30
0
10
-27.596233
20
-15.523567
30
0
10
-27.365336
20
-15.484759
30
0
10
-27.149213
20
-15.443569
30
0
10
-26.94785
20
-15.400622
30
0
10
-26.761215
20
-15.35654
30
0
10
-26.589255
20
-15.311944
30
0
10
-26.431896
20
-15.267451
30
0
10
-26.289047
20
-15.223676
30
0
10
-26.160594
20
-15.181229
30
0
10
-26.046406
20
-15.140714
30
0
10
-25.94633
20
-15.102733
30
0
10
-25.860195
20
-15.067877
30
0
10
-25.787812
20
-15.036736
30
0
10
-25.72897
20
-15.00989
30
0
10
-25.683442
20
-14.987913
30
0
10
-25.650981
20
-14.971368
30
0
10
-25.650156
20
-14.971957
30
0
10
-24.694647
20
-16.500436
30
0
10
-24.69448
20
-16.501435
30
0
10
-24.723571
20
-16.523369
30
0
10
-24.763271
20
-16.554671
30
0
10
-24.813179
20
-16.595808
30
0
10
-24.872879
20
-16.647238
30
0
10
-24.941942
20
-16.709402
30
0
10
-25.019922
20
-16.78273
30
0
10
-25.10636
20
-16.867634
30
0
10
-25.200784
20
-16.964515
30
0
10
-25.302708
20
-17.073757
30
0
10
-25.411632
20
-17.195727
30
0
10
-25.527045
20
-17.330779
30
0
10
-25.648424
20
-17.479248
30
0
10
-25.775234
20
-17.641454
30
0
10
-25.90693
20
-17.817698
30
0
10
-26.042955
20
-18.008267
30
0
10
-26.182744
20
-18.213427
30
0
10
-26.32572
20
-18.433427
30
0
10
-26.471298
20
-18.668499
30
0
10
-26.618887
20
-18.918856
30
0
10
-26.767884
20
-19.18469
30
0
10
-26.917682
20
-19.466177
30
0
10
-27.067666
20
-19.763473
30
0
10
-27.217213
20
-20.076713
30
0
10
-27.291627
20
-20.239349
30
0
10
-27.300906
20
-20.259961
30
0
10
-27.302066
20
-20.262542
30
0
10
-27.302174
20
-20.263053
30
0
10
-26.538315
20
-21.253655
30
0
10
-26.537793
20
-21.25368
30
0
10
-26.535002
20
-21.253215
30
0
10
-26.512708
20
-21.249481
30
0
10
-26.336497
20
-21.218859
30
0
10
-25.99553
20
-21.15386
30
0
10
-25.669872
20
-21.084386
30
0
10
-25.35955
20
-21.011073
30
0
10
-25.064571
20
-20.934554
30
0
10
-24.784919
20
-20.855463
30
0
10
-24.52056
20
-20.774429
30
0
10
-24.271439
20
-20.692082
30
0
10
-24.037481
20
-20.609044
30
0
10
-23.818592
20
-20.525936
30
0
10
-23.614657
20
-20.443374
30
0
10
-23.425542
20
-20.361968
30
0
10
-23.251093
20
-20.282322
30
0
10
-23.091137
20
-20.205035
30
0
10
-22.945483
20
-20.130698
30
0
10
-22.813919
20
-20.059896
30
0
10
-22.696215
20
-19.993205
30
0
10
-22.592125
20
-19.931192
30
0
10
-22.501382
20
-19.874416
30
0
10
-22.423702
20
-19.823426
30
0
10
-22.358784
20
-19.778762
30
0
10
-22.306311
20
-19.740953
30
0
10
-22.265945
20
-19.710515
30
0
10
-22.237336
20
-19.687956
30
0
10
-22.236412
20
-19.688372
30
0
10
-21.001071
20
-21.001071
30
0
10
-21.000712
20
-21.002019
30
0
10
-21.024965
20
-21.029207
30
0
10
-21.057795
20
-21.067652
30
0
10
-21.098719
20
-21.117735
30
0
10
-21.147239
20
-21.179824
30
0
10
-21.202847
20
-21.254267
30
0
10
-21.265023
20
-21.341399
30
0
10
-21.333236
20
-21.441535
30
0
10
-21.406946
20
-21.554976
30
0
10
-21.485599
20
-21.682003
30
0
10
-21.568634
20
-21.82288
30
0
10
-21.655483
20
-21.977852
30
0
10
-21.745565
20
-22.147148
30
0
10
-21.838294
20
-22.330977
30
0
10
-21.933075
20
-22.529528
30
0
10
-22.029309
20
-22.742972
30
0
10
-22.126386
20
-22.971461
30
0
10
-22.223695
20
-23.215127
30
0
10
-22.320616
20
-23.474083
30
0
10
-22.416527
20
-23.748422
30
0
10
-22.5108
20
-24.038217
30
0
10
-22.602804
20
-24.34352
30
0
10
-22.691906
20
-24.664363
30
0
10
-22.777469
20
-25.000759
30
0
10
-22.818725
20
-25.174788
30
0
10
-22.823804
20
-25.196814
30
0
10
-22.824438
20
-25.199572
30
0
10
-22.824445
20
-25.200094
30
0
10
-21.882006
20
-26.02264
30
0
10
-21.88149
20
-26.022564
30
0
10
-21.878843
20
-26.021563
30
0
10
-21.857706
20
-26.013551
30
0
10
-21.690855
20
-25.94914
30
0
10
-21.36912
20
-25.818871
30
0
10
-21.063273
20
-25.687199
30
0
10
-20.773217
20
-25.554754
30
0
10
-20.498833
20
-25.422157
30
0
10
-20.239984
20
-25.290028
30
0
10
-19.996514
20
-25.158978
30
0
10
-19.768245
20
-25.029612
30
0
10
-19.554983
20
-24.902527
30
0
10
-19.356513
20
-24.778313
30
0
10
-19.172604
20
-24.657552
30
0
10
-19.003004
20
-24.540815
30
0
10
-18.847445
20
-24.428666
30
0
10
-18.705641
20
-24.321658
30
0
10
-18.577287
20
-24.220334
30
0
10
-18.462064
20
-24.125226
30
0
10
-18.359633
20
-24.036853
30
0
10
-18.269641
20
-23.955724
30
0
10
-18.191718
20
-23.882336
30
0
10
-18.125478
20
-23.817172
30
0
10
-18.070522
20
-23.760701
30
0
10
-18.026432
20
-23.713381
30
0
10
-17.99278
20
-23.675653
30
0
10
-17.969122
20
-23.647946
30
0
10
-17.968135
20
-23.648174
30
0
10
-16.500436
20
-24.694647
30
0
10
-16.499899
20
-24.695507
30
0
10
-16.518382
20
-24.726904
30
0
10
-16.543081
20
-24.771015
30
0
10
-16.573447
20
-24.82812
30
0
10
-16.608922
20
-24.898481
30
0
10
-16.648938
20
-24.982342
30
0
10
-16.692921
20
-25.07993
30
0
10
-16.740288
20
-25.19145
30
0
10
-16.79045
20
-25.317091
30
0
10
-16.84281
20
-25.457022
30
0
10
-16.896766
20
-25.611391
30
0
10
-16.951712
20
-25.780329
30
0
10
-17.007035
20
-25.963946
30
0
10
-17.062119
20
-26.162333
30
0
10
-17.116345
20
-26.37556
30
0
10
-17.169088
20
-26.603677
30
0
10
-17.219724
20
-26.846714
30
0
10
-17.267626
20
-27.104683
30
0
10
-17.312165
20
-27.377572
30
0
10
-17.352712
20
-27.665351
30
0
10
-17.388637
20
-27.967968
30
0
10
-17.419312
20
-28.285354
30
0
10
-17.444109
20
-28.617415
30
0
10
-17.4624
20
-28.96404
30
0
10
-17.468912
20
-29.142774
30
0
10
-17.469597
20
-29.165368
30
0
10
-17.46968
20
-29.168196
30
0
10
-17.469585
20
-29.168709
30
0
10
-16.384784
20
-29.79159
30
0
10
-16.384293
20
-29.791414
30
0
10
-16.381892
20
-29.789916
30
0
10
-16.362724
20
-29.777935
30
0
10
-16.211645
20
-29.682211
30
0
10
-15.921506
20
-29.491677
30
0
10
-15.647224
20
-29.302868
30
0
10
-15.38858
20
-29.11638
30
0
10
-15.145337
20
-28.932802
30
0
10
-14.917239
20
-28.752713
30
0
10
-14.704013
20
-28.576682
30
0
10
-14.505369
20
-28.405268
30
0
10
-14.320997
20
-28.23902
30
0
10
-14.150574
20
-28.078473
30
0
10
-13.993758
20
-27.924153
30
0
10
-13.850191
20
-27.776572
30
0
10
-13.719501
20
-27.63623
30
0
10
-13.601297
20
-27.503614
30
0
10
-13.495177
20
-27.379196
30
0
10
-13.400722
20
-27.263436
30
0
10
-13.3175
20
-27.156778
30
0
10
-13.245065
20
-27.059652
30
0
10
-13.182956
20
-26.972472
30
0
10
-13.130703
20
-26.895637
30
0
10
-13.087819
20
-26.82953
30
0
10
-13.053808
20
-26.774518
30
0
10
-13.028163
20
-26.73095
30
0
10
-13.010365
20
-26.699159
30
0
10
-13.009352
20
-26.69919
30
0
10
-11.365698
20
-27.439222
30
0
10
-11.365003
20
-27.43996
30
0
10
-11.377006
20
-27.47436
30
0
10
-11.392625
20
-27.522442
30
0
10
-11.411267
20
-27.584373
30
0
10
-11.432333
20
-27.660303
30
0
10
-11.45522
20
-27.75036
30
0
10
-11.47932
20
-27.854653
30
0
10
-11.50402
20
-27.973272
30
0
10
-11.528707
20
-28.106285
30
0
10
-11.552761
20
-28.253741
30
0
10
-11.575565
20
-28.415671
30
0
10
-11.596497
20
-28.592082
30
0
10
-11.614935
20
-28.782965
30
0
10
-11.630258
20
-28.988286
30
0
10
-11.641842
20
-29.207994
30
0
10
-11.649069
20
-29.442017
30
0
10
-11.651318
20
-29.690264
30
0
10
-11.647973
20
-29.952621
30
0
10
-11.638418
20
-30.228955
30
0
10
-11.622043
20
-30.519115
30
0
10
-11.59824
20
-30.822927
30
0
10
-11.566406
20
-31.140198
30
0
10
-11.525944
20
-31.470716
30
0
10
-11.476261
20
-31.81425
30
0
10
-11.447779
20
-31.990819
30
0
10
-11.444042
20
-32.013113
30
0
10
-11.443572
20
-32.015903
30
0
10
-11.443379
20
-32.016388
30
0
10
-10.257904
20
-32.415666
30
0
10
-10.257457
20
-32.415397
30
0
10
-10.255394
20
-32.41346
30
0
10
-10.238932
20
-32.397969
30
0
10
-10.109431
20
-32.27461
30
0
10
-9.862038
20
-32.031135
30
0
10
-9.629861
20
-31.792443
30
0
10
-9.412569
20
-31.55908
30
0
10
-9.209814
20
-31.331575
30
0
10
-9.021233
20
-31.110446
30
0
10
-8.846446
20
-30.8962
30
0
10
-8.685059
20
-30.689326
30
0
10
-8.536664
20
-30.490303
30
0
10
-8.400837
20
-30.299593
30
0
10
-8.27714
20
-30.117645
30
0
10
-8.165123
20
-29.944892
30
0
10
-8.064323
20
-29.78175
30
0
10
-7.974263
20
-29.628621
30
0
10
-7.894455
20
-29.485891
30
0
10
-7.824399
20
-29.353928
30
0
10
-7.763584
20
-29.233084
30
0
10
-7.711488
20
-29.123692
30
0
10
-7.667581
20
-29.026071
30
0
10
-7.631321
20
-28.940518
30
0
10
-7.602158
20
-28.867315
30
0
10
-7.579534
20
-28.806724
30
0
10
-7.562881
20
-28.758991
30
0
10
-7.551627
20
-28.724339
30
0
10
-7.550627
20
-28.724171
30
0
10
-5.794183
20
-29.129323
30
0
10
-5.793357
20
-29.129911
30
0
10
-5.798418
20
-29.165991
30
0
10
-5.804357
20
-29.216197
30
0
10
-5.810558
20
-29.280575
30
0
10
-5.816407
20
-29.359156
30
0
10
-5.821285
20
-29.451948
30
0
10
-5.824575
20
-29.558938
30
0
10
-5.825659
20
-29.680096
30
0
10
-5.823922
20
-29.815369
30
0
10
-5.818747
20
-29.964686
30
0
10
-5.809522
20
-30.127953
30
0
10
-5.795635
20
-30.305058
30
0
10
-5.77648
20
-30.495869
30
0
10
-5.751452
20
-30.700235
30
0
10
-5.719951
20
-30.917981
30
0
10
-5.681383
20
-31.148918
30
0
10
-5.635158
20
-31.392833
30
0
10
-5.580694
20
-31.649496
30
0
10
-5.517412
20
-31.918657
30
0
10
-5.444744
20
-32.200047
30
0
10
-5.362128
20
-32.493377
30
0
10
-5.26901
20
-32.798342
30
0
10
-5.164844
20
-33.114616
30
0
10
-5.049096
20
-33.441855
30
0
10
-4.986714
20
-33.609475
30
0
10
-4.9787
20
-33.630612
30
0
10
-4.977695
20
-33.633257
30
0
10
-4.97741
20
-33.633694
30
0
10
-3.736819
20
-33.794026
30
0
10
-3.736432
20
-33.793675
30
0
10
-3.734788
20
-33.791373
30
0
10
-3.721663
20
-33.772968
30
0
10
-3.618717
20
-33.626715
30
0
10
-3.423577
20
-33.339653
30
0
10
-3.242428
20
-33.060253
30
0
10
-3.074838
20
-32.788982
30
0
10
-2.920363
20
-32.526293
30
0
10
-2.778545
20
-32.272623
30
0
10
-2.648914
20
-32.028394
30
0
10
-2.530988
20
-31.79401
30
0
10
-2.424271
20
-31.569861
30
0
10
-2.328259
20
-31.356317
30
0
10
-2.242436
20
-31.153733
30
0
10
-2.166274
20
-30.962445
30
0
10
-2.099238
20
-30.782773
30
0
10
-2.040783
20
-30.615017
30
0
10
-1.990353
20
-30.45946
30
0
10
-1.947388
20
-30.316365
30
0
10
-1.911317
20
-30.185978
30
0
10
-1.881564
20
-30.068525
30
0
10
-1.857545
20
-29.964214
30
0
10
-1.838673
20
-29.873231
30
0
10
-1.824351
20
-29.795745
30
0
10
-1.813982
20
-29.731905
30
0
10
-1.806962
20
-29.68184
30
0
10
-1.802684
20
-29.645658
30
0
10
-1.801736
20
-29.645299
30
0
10
0
20
-29.7
30
0
10
0.000924
20
-29.700416
30
0
10
0.002999
20
-29.73679
30
0
10
0.006969
20
-29.787189
30
0
10
0.013447
20
-29.851541
30
0
10
0.023041
20
-29.929753
30
0
10
0.03636
20
-30.021713
30
0
10
0.054006
20
-30.12729
30
0
10
0.076579
20
-30.246331
30
0
10
0.104673
20
-30.378666
30
0
10
0.138879
20
-30.524104
30
0
10
0.179779
20
-30.682434
30
0
10
0.22795
20
-30.853427
30
0
10
0.283963
20
-31.036835
30
0
10
0.34838
20
-31.232391
30
0
10
0.421755
20
-31.439808
30
0
10
0.504636
20
-31.658783
30
0
10
0.597558
20
-31.888994
30
0
10
0.701048
20
-32.130099
30
0
10
0.815624
20
-32.381743
30
0
10
0.941792
20
-32.643549
30
0
10
1.080047
20
-32.915125
30
0
10
1.230872
20
-33.196064
30
0
10
1.394738
20
-33.485939
30
0
10
1.572103
20
-33.784309
30
0
10
1.665988
20
-33.936538
30
0
10
1.677972
20
-33.955705
30
0
10
1.679473
20
-33.958103
30
0
10
1.679838
20
-33.958477
30
0
10
2.927871
20
-33.8737
30
0
10
2.928181
20
-33.873281
30
0
10
2.929345
20
-33.870702
30
0
10
2.938626
20
-33.85009
30
0
10
3.011063
20
-33.686563
30
0
10
3.146449
20
-33.366948
30
0
10
3.26961
20
-33.057576
30
0
10
3.381057
20
-32.758822
30
0
10
3.481316
20
-32.471044
30
0
10
3.57092
20
-32.194581
30
0
10
3.650414
20
-31.929755
30
0
10
3.720348
20
-31.676868
30
0
10
3.781285
20
-31.436207
30
0
10
3.833791
20
-31.208035
30
0
10
3.878444
20
-30.9926
30
0
10
3.915823
20
-30.79013
30
0
10
3.946519
20
-30.600832
30
0
10
3.971124
20
-30.424895
30
0
10
3.990237
20
-30.262489
30
0
10
4.00446
20
-30.113761
30
0
10
4.014401
20
-29.978843
30
0
10
4.020668
20
-29.857842
30
0
10
4.023875
20
-29.750849
30
0
10
4.024635
20
-29.657932
30
0
10
4.023565
20
-29.579141
30
0
10
4.02128
20
-29.514505
30
0
10
4.018398
20
-29.464032
30
0
10
4.015535
20
-29.427711
30
0
10
4.016395
20
-29.427174
30
0
10
5.794183
20
-29.129323
30
0
10
5.79517
20
-29.129551
30
0
10
5.804302
20
-29.164821
30
0
10
5.818028
20
-29.213477
30
0
10
5.836935
20
-29.275329
30
0
10
5.861603
20
-29.350166
30
0
10
5.892607
20
-29.437761
30
0
10
5.930511
20
-29.537866
30
0
10
5.975874
20
-29.650217
30
0
10
6.029246
20
-29.774528
30
0
10
6.091168
20
-29.910498
30
0
10
6.16217
20
-30.057806
30
0
10
6.242775
20
-30.216116
30
0
10
6.333493
20
-30.385073
30
0
10
6.434823
20
-30.564304
30
0
10
6.547254
20
-30.753421
30
0
10
6.671262
20
-30.952019
30
0
10
6.80731
20
-31.159678
30
0
10
6.955849
20
-31.375961
30
0
10
7.117317
20
-31.600416
30
0
10
7.292137
20
-31.832578
30
0
10
7.480717
20
-32.071964
30
0
10
7.683452
20
-32.318079
30
0
10
7.900721
20
-32.570416
30
0
10
8.132888
20
-32.828451
30
0
10
8.254667
20
-32.959439
30
0
10
8.270159
20
-32.9759
30
0
10
8.2721
20
-32.977959
30
0
10
8.27253
20
-32.978254
30
0
10
9.480044
20
-32.651627
30
0
10
9.480266
20
-32.651156
30
0
10
9.480905
20
-32.648399
30
0
10
9.485987
20
-32.626373
30
0
10
9.525128
20
-32.451856
30
0
10
9.59556
20
-32.11197
30
0
10
9.655998
20
-31.784515
30
0
10
9.70702
20
-31.469759
30
0
10
9.74921
20
-31.167951
30
0
10
9.783157
20
-30.879319
30
0
10
9.809458
20
-30.604073
30
0
10
9.828713
20
-30.342402
30
0
10
9.841528
20
-30.094477
30
0
10
9.848512
20
-29.860446
30
0
10
9.850277
20
-29.640439
30
0
10
9.847438
20
-29.434567
30
0
10
9.840614
20
-29.242918
30
0
10
9.830423
20
-29.065561
30
0
10
9.817484
20
-28.902547
30
0
10
9.802419
20
-28.753902
30
0
10
9.785847
20
-28.619637
30
0
10
9.768388
20
-28.499739
30
0
10
9.75066
20
-28.394176
30
0
10
9.733278
20
-28.302896
30
0
10
9.716857
20
-28.225828
30
0
10
9.702007
20
-28.162879
30
0
10
9.689333
20
-28.113938
30
0
10
9.67944
20
-28.078874
30
0
10
9.680178
20
-28.078179
30
0
10
11.365698
20
-27.439222
30
0
10
11.366711
20
-27.439253
30
0
10
11.382548
20
-27.472064
30
0
10
11.405503
20
-27.517108
30
0
10
11.436113
20
-27.574082
30
0
10
11.474908
20
-27.642669
30
0
10
11.522404
20
-27.722532
30
0
10
11.57911
20
-27.813319
30
0
10
11.64552
20
-27.914661
30
0
10
11.722118
20
-28.026171
30
0
10
11.809376
20
-28.147448
30
0
10
11.907753
20
-28.278074
30
0
10
12.017694
20
-28.417617
30
0
10
12.13963
20
-28.565629
30
0
10
12.273979
20
-28.721647
30
0
10
12.421145
20
-28.885196
30
0
10
12.581514
20
-29.055786
30
0
10
12.755461
20
-29.232913
30
0
10
12.943341
20
-29.416062
30
0
10
13.145495
20
-29.604703
30
0
10
13.362248
20
-29.798298
30
0
10
13.593907
20
-29.996294
30
0
10
13.840761
20
-30.198129
30
0
10
14.103084
20
-30.40323
30
0
10
14.38113
20
-30.611014
30
0
10
14.526123
20
-30.715727
30
0
10
14.544529
20
-30.728849
30
0
10
14.546835
20
-30.73049
30
0
10
14.547314
20
-30.730696
30
0
10
15.667904
20
-30.174771
30
0
10
15.66803
20
-30.174264
30
0
10
15.668118
20
-30.171436
30
0
10
15.668806
20
-30.148842
30
0
10
15.673149
20
-29.970043
30
0
10
15.675919
20
-29.622946
30
0
10
15.671312
20
-29.289992
30
0
10
15.659948
20
-28.971331
30
0
10
15.642447
20
-28.667091
30
0
10
15.619433
20
-28.377382
30
0
10
15.591531
20
-28.102294
30
0
10
15.559366
20
-27.841895
30
0
10
15.523567
20
-27.596233
30
0
10
15.484759
20
-27.365336
30
0
10
15.443569
20
-27.149213
30
0
10
15.400622
20
-26.94785
30
0
10
15.35654
20
-26.761215
30
0
10
15.311944
20
-26.589255
30
0
10
15.267451
20
-26.431896
30
0
10
15.223676
20
-26.289047
30
0
10
15.181229
20
-26.160594
30
0
10
15.140714
20
-26.046406
30
0
10
15.102733
20
-25.94633
30
0
10
15.067877
20
-25.860195
30
0
10
15.036736
20
-25.787812
30
0
10
15.00989
20
-25.72897
30
0
10
14.987913
20
-25.683442
30
0
10
14.971368
20
-25.650981
30
0
10
14.971957
20
-25.650156
30
0
10
16.500436
20
-24.694647
30
0
10
16.501435
20
-24.69448
30
0
10
16.523369
20
-24.723571
30
0
10
16.554671
20
-24.763271
30
0
10
16.595808
20
-24.813179
30
0
10
16.647238
20
-24.872879
30
0
10
16.709402
20
-24.941942
30
0
10
16.78273
20
-25.019922
30
0
10
16.867634
20
-25.10636
30
0
10
16.964515
20
-25.200784
30
0
10
17.073757
20
-25.302708
30
0
10
17.195727
20
-25.411632
30
0
10
17.330779
20
-25.527045
30
0
10
17.479248
20
-25.648424
30
0
10
17.641454
20
-25.775234
30
0
10
17.817698
20
-25.90693
30
0
10
18.008267
20
-26.042955
30
0
10
18.213427
20
-26.182744
30
0
10
18.433427
20
-26.32572
30
0
10
18.668499
20
-26.471298
30
0
10
18.918856
20
-26.618887
30
0
10
19.18469
20
-26.767884
30
0
10
19.466177
20
-26.917682
30
0
10
19.763473
20
-27.067666
30
0
10
20.076713
20
-27.217213
30
0
10
20.239349
20
-27.291627
30
0
10
20.259961
20
-27.300906
30
0
10
20.262542
20
-27.302066
30
0
10
20.263053
20
-27.302174
30
0
10
21.253655
20
-26.538315
30
0
10
21.25368
20
-26.537793
30
0
10
21.253215
20
-26.535002
30
0
10
21.249481
20
-26.512708
30
0
10
21.218859
20
-26.336497
30
0
10
21.15386
20
-25.99553
30
0
10
21.084386
20
-25.669872
30
0
10
21.011073
20
-25.35955
30
0
10
20.934554
20
-25.064571
30
0
10
20.855463
20
-24.784919
30
0
10
20.774429
20
-24.52056
30
0
10
20.692082
20
-24.271439
30
0
10
20.609044
20
-24.037481
30
0
10
20.525936
20
-23.818592
30
0
10
20.443374
20
-23.614657
30
0
10
20.361968
20
-23.425542
30
0
10
20.282322
20
-23.251093
30
0
10
20.205035
20
-23.091137
30
0
10
20.130698
20
-22.945483
30
0
10
20.059896
20
-22.813919
30
0
10
19.993205
20
-22.696215
30
0
10
19.931192
20
-22.592125
30
0
10
19.874416
20
-22.501382
30
0
10
19.823426
20
-22.423702
30
0
10
19.778762
20
-22.358784
30
0
10
19.740953
20
-22.306311
30
0
10
19.710515
20
-22.265945
30
0
10
19.687956
20
-22.237336
30
0
10
19.688372
20
-22.236412
30
0
10
21.001071
20
-21.001071
30
0
10
21.002019
20
-21.000712
30
0
10
21.029207
20
-21.024965
30
0
10
21.067652
20
-21.057795
30
0
10
21.117735
20
-21.098719
30
0
10
21.179824
20
-21.147239
30
0
10
21.254267
20
-21.202847
30
0
10
21.341399
20
-21.265023
30
0
10
21.441535
20
-21.333236
30
0
10
21.554976
20
-21.406946
30
0
10
21.682003
20
-21.485599
30
0
10
21.82288
20
-21.568634
30
0
10
21.977852
20
-21.655483
30
0
10
22.147148
20
-21.745565
30
0
10
22.330977
20
-21.838294
30
0
10
22.529528
20
-21.933075
30
0
10
22.742972
20
-22.029309
30
0
10
22.971461
20
-22.126386
30
0
10
23.215127
20
-22.223695
30
0
10
23.474083
20
-22.320616
30
0
10
23.748422
20
-22.416527
30
0
10
24.038217
20
-22.5108
30
0
10
24.34352
20
-22.602804
30
0
10
24.664363
20
-22.691906
30
0
10
25.000759
20
-22.777469
30
0
10
25.174788
20
-22.818725
30
0
10
25.196814
20
-22.823804
30
0
10
25.199572
20
-22.824438
30
0
10
25.200094
20
-22.824445
30
0
10
26.02264
20
-21.882006
30
0
10
26.022564
20
-21.88149
30
0
10
26.021563
20
-21.878843
30
0
10
26.013551
20
-21.857706
30
0
10
25.94914
20
-21.690855
30
0
10
25.818871
20
-21.36912
30
0
10
25.687199
20
-21.063273
30
0
10
25.554754
20
-20.773217
30
0
10
25.422157
20
-20.498833
30
0
10
25.290028
20
-20.239984
30
0
10
25.158978
20
-19.996514
30
0
10
25.029612
20
-19.768245
30
0
10
24.902527
20
-19.554983
30
0
10
24.778313
20
-19.356513
30
0
10
24.657552
20
-19.172604
30
0
10
24.540815
20
-19.003004
30
0
10
24.428666
20
-18.847445
30
0
10
24.321658
20
-18.705641
30
0
10
24.220334
20
-18.577287
30
0
10
24.125226
20
-18.462064
30
0
10
24.036853
20
-18.359633
30
0
10
23.955724
20
-18.269641
30
0
10
23.882336
20
-18.191718
30
0
10
23.817172
20
-18.125478
30
0
10
23.760701
20
-18.070522
30
0
10
23.713381
20
-18.026432
30
0
10
23.675653
20
-17.99278
30
0
10
23.647946
20
-17.969122
30
0
10
23.648174
20
-17.968135
30
0
10
24.694647
20
-16.500436
30
0
10
24.695507
20
-16.499899
30
0
10
24.726904
20
-16.518382
30
0
10
24.771015
20
-16.543081
30
0
10
24.82812
20
-16.573447
30
0
10
24.898481
20
-16.608922
30
0
10
24.982342
20
-16.648938
30
0
10
25.07993
20
-16.692921
30
0
10
25.19145
20
-16.740288
30
0
10
25.317091
20
-16.79045
30
0
10
25.457022
20
-16.84281
30
0
10
25.611391
20
-16.896766
30
0
10
25.780329
20
-16.951712
30
0
10
25.963946
20
-17.007035
30
0
10
26.162333
20
-17.062119
30
0
10
26.37556
20
-17.116345
30
0
10
26.603677
20
-17.169088
30
0
10
26.846714
20
-17.219724
30
0
10
27.104683
20
-17.267626
30
0
10
27.377572
20
-17.312165
30
0
10
27.665351
20
-17.352712
30
0
10
27.967968
20
-17.388637
30
0
10
28.285354
20
-17.419312
30
0
10
28.617415
20
-17.444109
30
0
10
28.96404
20
-17.4624
30
0
10
29.142774
20
-17.468912
30
0
10
29.165368
20
-17.469597
30
0
10
29.168196
20
-17.46968
30
0
10
29.168709
20
-17.469585
30
0
10
29.79159
20
-16.384784
30
0
10
29.791414
20
-16.384293
30
0
10
29.789916
20
-16.381892
30
0
10
29.777935
20
-16.362724
30
0
10
29.682211
20
-16.211645
30
0
10
29.491677
20
-15.921506
30
0
10
29.302868
20
-15.647224
30
0
10
29.11638
20
-15.38858
30
0
10
28.932802
20
-15.145337
30
0
10
28.752713
20
-14.917239
30
0
10
28.576682
20
-14.704013
30
0
10
28.405268
20
-14.505369
30
0
10
28.23902
20
-14.320997
30
0
10
28.078473
20
-14.150574
30
0
10
27.924153
20
-13.993758
30
0
10
27.776572
20
-13.850191
30
0
10
27.63623
20
-13.719501
30
0
10
27.503614
20
-13.601297
30
0
10
27.379196
20
-13.495177
30
0
10
27.263436
20
-13.400722
30
0
10
27.156778
20
-13.3175
30
0
10
27.059652
20
-13.245065
30
0
10
26.972472
20
-13.182956
30
0
10
26.895637
20
-13.130703
30
0
10
26.82953
20
-13.087819
30
0
10
26.774518
20
-13.053808
30
0
10
26.73095
20
-13.028163
30
0
10
26.699159
20
-13.010365
30
0
10
26.69919
20
-13.009352
30
0
10
27.439222
20
-11.365698
30
0
10
27.43996
20
-11.365003
30
0
10
27.47436
20
-11.377006
30
0
10
27.522442
20
-11.392625
30
0
10
27.584373
20
-11.411267
30
0
10
27.660303
20
-11.432333
30
0
10
27.75036
20
-11.45522
30
0
10
27.854653
20
-11.47932
30
0
10
27.973272
20
-11.50402
30
0
10
28.106285
20
-11.528707
30
0
10
28.253741
20
-11.552761
30
0
10
28.415671
20
-11.575565
30
0
10
28.592082
20
-11.596497
30
0
10
28.782965
20
-11.614935
30
0
10
28.988286
20
-11.630258
30
0
10
29.207994
20
-11.641842
30
0
10
29.442017
20
-11.649069
30
0
10
29.690264
20
-11.651318
30
0
10
29.952621
20
-11.647973
30
0
10
30.228955
20
-11.638418
30
0
10
30.519115
20
-11.622043
30
0
10
30.822927
20
-11.59824
30
0
10
31.140198
20
-11.566406
30
0
10
31.470716
20
-11.525944
30
0
10
31.81425
20
-11.476261
30
0
10
31.990819
20
-11.447779
30
0
10
32.013113
20
-11.444042
30
0
10
32.015903
20
-11.443572
30
0
10
32.016388
20
-11.443379
30
0
10
32.415666
20
-10.257904
30
0
10
32.415397
20
-10.257457
30
0
10
32.41346
20
-10.255394
30
0
10
32.397969
20
-10.238932
30
0
10
32.27461
20
-10.109431
30
0
10
32.031135
20
-9.862038
30
0
10
31.792443
20
-9.629861
30
0
10
31.55908
20
-9.412569
30
0
10
31.331575
20
-9.209814
30
0
10
31.110446
20
-9.021233
30
0
10
30.8962
20
-8.846446
30
0
10
30.689326
20
-8.685059
30
0
10
30.490303
20
-8.536664
30
0
10
30.299593
20
-8.400837
30
0
10
30.117645
20
-8.27714
30
0
10
29.944892
20
-8.165123
30
0
10
29.78175
20
-8.064323
30
0
10
29.628621
20
-7.974263
30
0
10
29.485891
20
-7.894455
30
0
10
29.353928
20
-7.824399
30
0
10
29.233084
20
-7.763584
30
0
10
29.123692
20
-7.711488
30
0
10
29.026071
20
-7.667581
30
0
10
28.940518
20
-7.631321
30
0
10
28.867315
20
-7.602158
30
0
10
28.806724
20
-7.579534
30
0
10
28.758991
20
-7.562881
30
0
10
28.724339
20
-7.551627
30
0
10
28.724171
20
-7.550627
30
0
10
29.129323
20
-5.794183
30
0
10
29.129911
20
-5.793357
30
0
10
29.165991
20
-5.798418
30
0
10
29.216197
20
-5.804357
30
0
10
29.280575
20
-5.810558
30
0
10
29.359156
20
-5.816407
30
0
10
29.451948
20
-5.821285
30
0
10
29.558938
20
-5.824575
30
0
10
29.680096
20
-5.825659
30
0
10
29.815369
20
-5.823922
30
0
10
29.964686
20
-5.818747
30
0
10
30.127953
20
-5.809522
30
0
10
30.305058
20
-5.795635
30
0
10
30.495869
20
-5.77648
30
0
10
30.700235
20
-5.751452
30
0
10
30.917981
20
-5.719951
30
0
10
31.148918
20
-5.681383
30
0
10
31.392833
20
-5.635158
30
0
10
31.649496
20
-5.580694
30
0
10
31.918657
20
-5.517412
30
0
10
32.200047
20
-5.444744
30
0
10
32.493377
20
-5.362128
30
0
10
32.798342
20
-5.26901
30
0
10
33.114616
20
-5.164844
30
0
10
33.441855
20
-5.049096
30
0
10
33.609475
20
-4.986714
30
0
10
33.630612
20
-4.9787
30
0
10
33.633257
20
-4.977695
30
0
10
33.633694
20
-4.97741
30
0
10
33.794026
20
-3.736819
30
0
10
33.793675
20
-3.736432
30
0
10
33.791373
20
-3.734788
30
0
10
33.772968
20
-3.721663
30
0
10
33.626715
20
-3.618717
30
0
10
33.339653
20
-3.423577
30
0
10
33.060253
20
-3.242428
30
0
10
32.788982
20
-3.074838
30
0
10
32.526293
20
-2.920363
30
0
10
32.272623
20
-2.778545
30
0
10
32.028394
20
-2.648914
30
0
10
31.79401
20
-2.530988
30
0
10
31.569861
20
-2.424271
30
0
10
31.356317
20
-2.328259
30
0
10
31.153733
20
-2.242436
30
0
10
30.962445
20
-2.166274
30
0
10
30.782773
20
-2.099238
30
0
10
30.615017
20
-2.040783
30
0
10
30.45946
20
-1.990353
30
0
10
30.316365
20
-1.947388
30
0
10
30.185978
20
-1.911317
30
0
10
30.068525
20
-1.881564
30
0
10
29.964214
20
-1.857545
30
0
10
29.873231
20
-1.838673
30
0
10
29.795745
20
-1.824351
30
0
10
29.731905
20
-1.813982
30
0
10
29.68184
20
-1.806962
30
0
10
29.645658
20
-1.802684
30
0
10
29.645299
20
-1.801736
30
0
8
gear
0
CIRCLE
5
2001
100
AcDbEntity
100
AcDbCircle
10
31.926427
20
2.1687
30
0
40
0.785
8
gear_guides
0
CIRCLE
5
2002
100
AcDbEntity
100
AcDbCircle
10
0
20
0
30
0
40
32
8
gear_guides
0
CIRCLE
5
2003
100
AcDbEntity
100
AcDbCircle
10
0
20
0
30
0
40
34
8
gear_guides
0
CIRCLE
5
2004
100
AcDbEntity
100
AcDbCircle
10
0
20
0
30
0
40
29.669883
8
gear_guides
0
LINE
5
2005
100
AcDbEntity
100
AcDbLine
10
1.6
20
0
30
0
11
-1.6
21
0
31
0
8
gear_guides
0
LINE
5
2006
100
AcDbEntity
100
AcDbLine
10
0
20
1.6
30
0
11
0
21
-1.6
31
0
8
gear_guides
0
LWPOLYLINE
5
2007
100
AcDbEntity
100
AcDbPolyline
66
1
90
5
70
0
43
0
10
9.146971
20
22.02083
30
0
10
8.73064
20
22.189185
30
0
10
8.311213
20
22.34967
30
0
10
7.888838
20
22.502228
30
0
10
7.463665
20
22.646804
30
0
8
gear_texts
0
LWPOLYLINE
5
2008
100
AcDbEntity
100
AcDbPolyline
66
1
90
2
70
0
43
0
10
7.998152
20
21.507818
30
0
10
8.624274
20
23.191522
30
0
8
gear_texts
0
LWPOLYLINE
5
2009
100
AcDbEntity
100
AcDbPolyline
66
1
90
5
70
0
43
0
10
9.491513
20
22.850296
30
0
10
8.89507
20
22.607089
30
0
10
8.311213
20
22.34967
30
0
10
7.740262
20
22.078429
30
0
10
7.182528
20
21.79376
30
0
8
gear_texts
0
LWPOLYLINE
5
2010
100
AcDbEntity
100
AcDbPolyline
66
1
90
5
70
0
43
0
10
8.802429
20
21.191364
30
0
10
8.56621
20
21.771282
30
0
10
8.311213
20
22.34967
30
0
10
8.037414
20
22.926027
30
0
10
7.744801
20
23.499848
30
0
8
gear_texts
0
LWPOLYLINE
5
2011
100
AcDbEntity
100
AcDbPolyline
66
1
90
19
70
0
43
0
10
10.375911
20
21.469152
30
0
10
9.781985
20
21.252798
30
0
10
9.594218
20
20.844847
30
0
10
9.789662
20
20.256124
30
0
10
10.1694
20
20.068168
30
0
10
10.545531
20
19.873093
30
0
10
11.13586
20
20.063631
30
0
10
11.353798
20
20.456293
30
0
10
11.177045
20
21.063183
30
0
10
10.778389
20
21.26994
30
0
10
10.375911
20
21.469152
30
0
10
10.157519
20
22.068701
30
0
10
10.345286
20
22.476652
30
0
10
10.96216
20
22.68218
30
0
10
11.387379
20
22.471712
30
0
10
11.808559
20
22.253274
30
0
10
12.007612
20
21.63428
30
0
10
11.789674
20
21.241618
30
0
10
11.177045
20
21.063183
30
0
8
gear_texts
0
LWPOLYLINE
5
2012
100
AcDbEntity
100
AcDbPolyline
66
1
90
7
70
0
43
0
10
14.730613
20
17.004619
30
0
10
16.494884
20
19.041246
30
0
10
15.558163
20
18.658679
30
0
10
14.641905
20
18.247829
30
0
10
14.844471
20
19.23134
30
0
10
15.014991
20
20.2287
30
0
10
13.409007
20
18.065065
30
0
8
gear_texts
0
LWPOLYLINE
5
2013
100
AcDbEntity
100
AcDbPolyline
66
1
90
15
70
0
43
0
10
16.554131
20
15.235117
30
0
10
16.264279
20
15.544172
30
0
10
15.968658
20
15.847713
30
0
10
15.667373
20
16.145633
30
0
10
15.360531
20
16.437826
30
0
10
15.97377
20
17.094073
30
0
10
16.605606
20
17.112506
30
0
10
16.924933
20
16.796745
30
0
10
17.238257
20
16.475027
30
0
10
17.875912
20
16.451581
30
0
10
18.206357
20
16.755696
30
0
10
18.212236
20
17.405882
30
0
10
17.881209
20
17.745778
30
0
10
17.543839
20
18.079379
30
0
10
16.893628
20
18.078444
30
0
8
gear_texts
0
LWPOLYLINE
5
2014
100
AcDbEntity
100
AcDbPolyline
66
1
90
7
70
0
43
0
10
21.649486
20
12.882158
30
0
10
19.333886
20
11.504299
30
0
10
19.686112
20
12.221671
30
0
10
20.017973
20
12.956264
30
0
10
20.328948
20
13.707562
30
0
10
20.618527
20
14.475034
30
0
10
18.413196
20
12.926804
30
0
8
gear_texts
0
LWPOLYLINE
5
2015
100
AcDbEntity
100
AcDbPolyline
66
1
90
5
70
0
43
0
10
22.145287
20
9.989446
30
0
10
21.953232
20
10.404726
30
0
10
21.753392
20
10.816316
30
0
10
21.545835
20
11.22407
30
0
10
21.330636
20
11.627842
30
0
8
gear_texts
0
LWPOLYLINE
5
2016
100
AcDbEntity
100
AcDbPolyline
66
1
90
5
70
0
43
0
10
21.326553
20
9.620126
30
0
10
21.141599
20
10.020053
30
0
10
20.949147
20
10.416426
30
0
10
20.749263
20
10.809104
30
0
10
20.542021
20
11.197949
30
0
8
gear_texts
0
LWPOLYLINE
5
2017
100
AcDbEntity
100
AcDbPolyline
66
1
90
13
70
0
43
0
10
22.921795
20
9.317516
30
0
10
23.512344
20
9.045436
30
0
10
23.678523
20
8.601035
30
0
10
23.836303
20
8.153583
30
0
10
23.55805
20
7.565917
30
0
10
23.130471
20
7.428596
30
0
10
22.561553
20
7.717534
30
0
10
22.275314
20
7.153953
30
0
10
21.847736
20
7.016631
30
0
10
21.286804
20
7.281486
30
0
10
21.145899
20
7.681079
30
0
10
20.997495
20
8.077948
30
0
10
21.257673
20
8.641065
30
0
8
gear_texts
0
LWPOLYLINE
5
2018
100
AcDbEntity
100
AcDbPolyline
66
1
90
2
70
0
43
0
10
22.412211
20
8.141057
30
0
10
22.561553
20
7.717534
30
0
8
gear_texts
0
LWPOLYLINE
5
2019
100
AcDbEntity
100
AcDbPolyline
66
1
90
15
70
0
43
0
10
22.059263
20
4.420063
30
0
10
21.97211
20
4.834711
30
0
10
21.877163
20
5.247644
30
0
10
21.774457
20
5.658716
30
0
10
21.664027
20
6.067781
30
0
10
22.52892
20
6.310025
30
0
10
23.07841
20
5.997586
30
0
10
23.187266
20
5.561897
30
0
10
23.287899
20
5.124235
30
0
10
23.820607
20
4.772987
30
0
10
24.260943
20
4.861218
30
0
10
24.603688
20
5.41376
30
0
10
24.49737
20
5.87615
30
0
10
24.382362
20
6.336455
30
0
10
23.82626
20
6.673392
30
0
8
gear_texts
0
LWPOLYLINE
5
2020
100
AcDbEntity
100
AcDbPolyline
66
1
90
10
70
0
43
0
10
22.448874
20
1.481928
30
0
10
22.472801
20
1.058895
30
0
10
22.488757
20
0.635487
30
0
10
22.496737
20
0.211854
30
0
10
22.945805
20
-0.216083
30
0
10
24.74208
20
-0.232999
30
0
10
25.191149
20
0.237228
30
0
10
25.182214
20
0.711599
30
0
10
25.164346
20
1.185718
30
0
10
25.137553
20
1.659417
30
0
8
gear_texts
0
LWPOLYLINE
5
2021
100
AcDbEntity
100
AcDbPolyline
66
1
90
2
70
0
43
0
10
25.164346
20
1.185718
30
0
10
22.472801
20
1.058895
30
0
8
gear_texts
0
LWPOLYLINE
5
2022
100
AcDbEntity
100
AcDbPolyline
66
1
90
5
70
0
43
0
10
24.112276
20
-2.96663
30
0
10
24.163869
20
-2.512008
30
0
10
24.206891
20
-2.056496
30
0
10
24.241327
20
-1.600254
30
0
10
24.267165
20
-1.143444
30
0
8
gear_texts
0
LWPOLYLINE
5
2023
100
AcDbEntity
100
AcDbPolyline
66
1
90
5
70
0
43
0
10
23.22082
20
-2.856951
30
0
10
23.270506
20
-2.419137
30
0
10
23.311937
20
-1.980465
30
0
10
23.3451
20
-1.541091
30
0
10
23.369983
20
-1.10117
30
0
8
gear_texts
0
LWPOLYLINE
5
2024
100
AcDbEntity
100
AcDbPolyline
66
1
90
14
70
0
43
0
10
23.540107
20
-3.800969
30
0
10
23.464351
20
-4.243615
30
0
10
23.380271
20
-4.684756
30
0
10
23.287899
20
-5.124235
30
0
10
22.750565
20
-5.457146
30
0
10
22.313864
20
-5.352395
30
0
10
21.97211
20
-4.834711
30
0
10
22.059263
20
-4.420063
30
0
10
22.138592
20
-4.003847
30
0
10
22.653415
20
-3.657797
30
0
10
23.983454
20
-3.872556
30
0
10
24.34819
20
-4.403461
30
0
10
24.701279
20
-4.94945
30
0
10
24.603688
20
-5.41376
30
0
8
gear_texts
0
LWPOLYLINE
5
2025
100
AcDbEntity
100
AcDbPolyline
66
1
90
9
70
0
43
0
10
21.990107
20
-7.987731
30
0
10
22.136637
20
-7.572185
30
0
10
22.275314
20
-7.153953
30
0
10
22.406091
20
-6.733183
30
0
10
22.52892
20
-6.310025
30
0
10
22.979543
20
-6.905509
30
0
10
23.415524
20
-7.520143
30
0
10
23.836303
20
-8.153583
30
0
10
21.286804
20
-7.281486
30
0
8
gear_texts
0
LWPOLYLINE
5
2026
100
AcDbEntity
100
AcDbPolyline
66
1
90
2
70
0
43
0
10
20.841643
20
-8.471952
30
0
10
22.505765
20
-9.148404
30
0
8
gear_texts
0
LWPOLYLINE
5
2027
100
AcDbEntity
100
AcDbPolyline
66
1
90
6
70
0
43
0
10
22.089734
20
-8.979291
30
0
10
22.329486
20
-9.570622
30
0
10
21.73592
20
-9.804786
30
0
10
21.953232
20
-10.404726
30
0
10
21.351269
20
-10.616371
30
0
10
20.144902
20
-10.016536
30
0
8
gear_texts
0
LWPOLYLINE
5
2028
100
AcDbEntity
100
AcDbPolyline
66
1
90
2
70
0
43
0
10
21.326553
20
-9.620126
30
0
10
21.73592
20
-9.804786
30
0
8
gear_texts
0
LWPOLYLINE
5
2029
100
AcDbEntity
100
AcDbPolyline
66
1
90
2
70
0
43
0
10
19.753405
20
-10.768056
30
0
10
21.330636
20
-11.627842
30
0
8
gear_texts
0
LWPOLYLINE
5
2030
100
AcDbEntity
100
AcDbPolyline
66
1
90
6
70
0
43
0
10
20.936328
20
-11.412895
30
0
10
21.107871
20
-12.02749
30
0
10
20.491686
20
-12.193229
30
0
10
20.639963
20
-12.813847
30
0
10
20.017973
20
-12.956264
30
0
10
18.886938
20
-12.224223
30
0
8
gear_texts
0
LWPOLYLINE
5
2031
100
AcDbEntity
100
AcDbPolyline
66
1
90
2
70
0
43
0
10
20.105753
20
-11.963586
30
0
10
20.491686
20
-12.193229
30
0
8
gear_texts
0
LWPOLYLINE
5
2032
100
AcDbEntity
100
AcDbPolyline
66
1
90
11
70
0
43
0
10
18.141109
20
-15.475277
30
0
10
17.846453
20
-15.814175
30
0
10
17.545467
20
-16.147465
30
0
10
17.238257
20
-16.475027
30
0
10
17.243692
20
-17.113089
30
0
10
17.56245
20
-17.429434
30
0
10
18.212236
20
-17.405882
30
0
10
18.536803
20
-17.059812
30
0
10
18.854795
20
-16.707692
30
0
10
19.1661
20
-16.349645
30
0
10
17.116119
20
-14.600908
30
0
8
gear_texts
0
LWPOLYLINE
5
2033
100
AcDbEntity
100
AcDbPolyline
66
1
90
7
70
0
43
0
10
15.360531
20
-16.437826
30
0
10
15.97377
20
-17.094073
30
0
10
16.249783
20
-18.059548
30
0
10
16.494884
20
-19.041246
30
0
10
15.558163
20
-18.658679
30
0
10
14.641905
20
-18.247829
30
0
10
14.079798
20
-17.547289
30
0
8
gear_texts
0
LWPOLYLINE
5
2034
100
AcDbEntity
100
AcDbPolyline
66
1
90
5
70
0
43
0
10
15.97377
20
-17.094073
30
0
10
15.649012
20
-17.391868
30
0
10
15.318704
20
-17.683495
30
0
10
14.982962
20
-17.968849
30
0
10
14.641905
20
-18.247829
30
0
8
gear_texts
0
LWPOLYLINE
5
2035
100
AcDbEntity
100
AcDbPolyline
66
1
90
5
70
0
43
0
10
12.970395
20
-20.541947
30
0
10
13.354951
20
-20.294039
30
0
10
13.734771
20
-20.038932
30
0
10
14.10972
20
-19.776717
30
0
10
14.479663
20
-19.507488
30
0
8
gear_texts
0
LWPOLYLINE
5
2036
100
AcDbEntity
100
AcDbPolyline
66
1
90
5
70
0
43
0
10
12.490866
20
-19.782491
30
0
10
12.861205
20
-19.543748
30
0
10
13.226983
20
-19.298072
30
0
10
13.588069
20
-19.045552
30
0
10
13.944335
20
-18.786276
30
0
8
gear_texts
0
LWPOLYLINE
5
2037
100
AcDbEntity
100
AcDbPolyline
66
1
90
15
70
0
43
0
10
9.789662
20
-20.256124
30
0
10
10.1694
20
-20.068168
30
0
10
10.545531
20
-19.873093
30
0
10
10.917922
20
-19.670969
30
0
10
11.28644
20
-19.461868
30
0
10
11.737029
20
-20.238845
30
0
10
11.571736
20
-20.848956
30
0
10
11.177045
20
-21.063183
30
0
10
10.778389
20
-21.26994
30
0
10
10.571327
20
-21.873495
30
0
10
10.766744
20
-22.277838
30
0
10
11.387379
20
-22.471712
30
0
10
11.808559
20
-22.253274
30
0
10
12.225551
20
-22.026942
30
0
10
12.412911
20
-21.404309
30
0
8
gear_texts
0
LWPOLYLINE
5
2038
100
AcDbEntity
100
AcDbPolyline
66
1
90
15
70
0
43
0
10
7.443111
20
-21.23083
30
0
10
7.841621
20
-21.086892
30
0
10
8.237351
20
-20.935475
30
0
10
8.630158
20
-20.776632
30
0
10
9.019904
20
-20.610419
30
0
10
9.380006
20
-21.433249
30
0
10
9.146971
20
-22.02083
30
0
10
8.73064
20
-22.189185
30
0
10
8.311213
20
-22.34967
30
0
10
8.037414
20
-22.926027
30
0
10
8.185989
20
-23.349826
30
0
10
8.780805
20
-23.612448
30
0
10
9.22393
20
-23.442896
30
0
10
9.663783
20
-23.265028
30
0
10
9.920158
20
-22.667494
30
0
8
gear_texts
0
ENDSEC
0
SECTION
2
OBJECTS
0
DICTIONARY
5
21D
330
0
100
AcDbDictionary
281
1
3
ACAD_CIP_PREVIOUS_PRODUCT_INFO
350
291
3
ACAD_COLOR
350
273
3
ACAD_DETAILVIEWSTYLE
350
27B
3
ACAD_GROUP
350
21E
3
ACAD_LAYOUT
350
272
3
ACAD_MATERIAL
350
221
3
ACAD_MLEADERSTYLE
350
276
3
ACAD_MLINESTYLE
350
26F
3
ACAD_PLOTSETTINGS
350
271
3
ACAD_PLOTSTYLENAME
350
21F
3
ACAD_SCALELIST
350
253
3
ACAD_SECTIONVIEWSTYLE
350
278
3
ACAD_TABLESTYLE
350
274
3
ACAD_VISUALSTYLE
350
23A
3
ACDB_RECOMPOSE_DATA
350
1057
3
AcDbVariableDictionary
350
29D
0
DICTIONARY
5
297
330
213
100
AcDbDictionary
280
1
281
1
3
ACAD_LAYERSTATES
360
298
0
DICTIONARY
5
292
330
265
100
AcDbDictionary
280
1
281
1
3
ADSK_XREC_LAYER_RECONCILED
360
293
0
XRECORD
5
291
102
{ACAD_REACTORS
330
21D
102
}
330
21D
100
AcDbXrecord
280
1
300
ACDMAC
300
2013
300
ACDMAC_F_S
0
DICTIONARY
5
273
102
{ACAD_REACTORS
330
21D
102
}
330
21D
100
AcDbDictionary
281
1
0
DICTIONARY
5
21E
102
{ACAD_REACTORS
330
21D
102
}
330
21D
100
AcDbDictionary
281
1
0
DICTIONARY
5
272
102
{ACAD_REACTORS
330
21D
102
}
330
21D
100
AcDbDictionary
281
1
3
Layout1
350
280
3
Model
350
284
0
DICTIONARY
5
221
102
{ACAD_REACTORS
330
21D
102
}
330
21D
100
AcDbDictionary
281
1
3
ByBlock
350
22A
3
ByLayer
350
222
3
Global
350
232
0
DICTIONARY
5
276
102
{ACAD_REACTORS
330
21D
102
}
330
21D
100
AcDbDictionary
281
1
3
Standard
350
277
0
DICTIONARY
5
26F
102
{ACAD_REACTORS
330
21D
102
}
330
21D
100
AcDbDictionary
281
1
3
Standard
350
270
0
DICTIONARY
5
271
102
{ACAD_REACTORS
330
21D
102
}
330
21D
100
AcDbDictionary
281
1
0
ACDBDICTIONARYWDFLT
5
21F
102
{ACAD_REACTORS
330
21D
102
}
330
21D
100
AcDbDictionary
281
1
3
Normal
350
220
100
AcDbDictionaryWithDefault
340
220
0
DICTIONARY
5
253
102
{ACAD_REACTORS
330
21D
102
}
330
21D
100
AcDbDictionary
281
1
3
A0
350
254
3
A1
350
255
3
A2
350
256
3
A3
350
257
3
A4
350
258
3
A5
350
259
3
A6
350
25A
3
A7
350
25B
3
A8
350
25C
3
A9
350
25D
3
B0
350
25E
3
B1
350
25F
3
B2
350
260
3
B3
350
261
3
B4
350
262
3
B5
350
263
3
B6
350
264
0
DICTIONARY
5
274
102
{ACAD_REACTORS
330
21D
102
}
330
21D
100
AcDbDictionary
281
1
3
Standard
350
275
0
DICTIONARY
5
23A
102
{ACAD_REACTORS
330
21D
102
}
330
21D
100
AcDbDictionary
281
1
3
2dWireframe
350
240
3
Basic
350
23F
3
Brighten
350
246
3
ColorChange
350
24A
3
Conceptual
350
243
3
Dim
350
245
3
EdgeColorOff
350
252
3
Facepattern
350
249
3
Flat
350
23B
3
FlatWithEdges
350
23C
3
Gouraud
350
23D
3
GouraudWithEdges
350
23E
3
Hidden
350
242
3
JitterOff
350
250
3
Linepattern
350
248
3
OverhangOff
350
251
3
Realistic
350
244
3
Shaded
350
24F
3
Shaded with edges
350
24E
3
Shades of Gray
350
24B
3
Sketchy
350
24C
3
Thicken
350
247
3
Wireframe
350
241
3
X-Ray
350
24D
0
XRECORD
5
1057
102
{ACAD_REACTORS
330
21D
102
}
330
21D
100
AcDbXrecord
280
1
90
1
330
275
0
DICTIONARY
5
29D
102
{ACAD_REACTORS
330
21D
102
}
330
21D
100
AcDbDictionary
281
1
3
CANNOSCALE
350
2A3
3
CMLEADERSTYLE
350
29F
3
CTABLESTYLE
350
29E
3
CVIEWDETAILSTYLE
350
2A0
3
CVIEWSECTIONSTYLE
350
2A1
3
LAYEREVAL
350
2A5
3
LAYERNOTIFY
350
2A6
3
LIGHTINGUNITS
350
2A4
3
MSLTSCALE
350
2A2
0
ENDSEC
0
EOF
