0
SECTION
2
HEADER
9
$ACADVER
1
AC1027
9
$ACADMAINTVER
70
8
9
$DWGCODEPAGE
3
ANSI_1252
9
$LASTSAVEDBY
1
macc
9
$REQUIREDVERSIONS
160
0
9
$INSBASE
10
0.0
20
0.0
30
0.0
9
$EXTMIN
10
1.000000000000000E+20
20
1.000000000000000E+20
30
1.000000000000000E+20
9
$EXTMAX
10
-1.000000000000000E+20
20
-1.000000000000000E+20
30
-1.000000000000000E+20
9
$LIMMIN
10
0.0
20
0.0
9
$LIMMAX
10
12.0
20
9.0
9
$MEASUREMENT
70
1
9
$CELWEIGHT
370
-1
9
$ENDCAPS
280
0
9
$JOINSTYLE
280
0
9
$LWDISPLAY
290
0
9
$INSUNITS
70
0
9
$HYPERLINKBASE
1

9
$STYLESHEET
1

9
$XEDIT
290
1
9
$CEPSNTYPE
380
0
9
$PSTYLEMODE
290
1
9
$EXTNAMES
290
1
9
$PSVPSCALE
40
0.0
9
$OLESTARTUP
290
0
9
$SORTENTS
280
127
9
$INDEXCTL
280
0
9
$HIDETEXT
280
0
9
$XCLIPFRAME
280
2
9
$HALOGAP
280
0
9
$OBSCOLOR
70
257
9
$OBSLTYPE
280
0
9
$INTERSECTIONDISPLAY
280
0
9
$INTERSECTIONCOLOR
70
257
9
$DIMASSOC
280
1
9
$PROJECTNAME
1

9
$CAMERADISPLAY
290
0
9
$LENSLENGTH
40
50.0
9
$CAMERAHEIGHT
40
0.0
9
$STEPSPERSEC
40
2.0
9
$STEPSIZE
40
6.0
9
$3DDWFPREC
40
2.0
9
$PSOLWIDTH
40
0.25
9
$PSOLHEIGHT
40
4.0
9
$LOFTANG1
40
1.570796326794896
9
$LOFTANG2
40
1.570796326794896
9
$LOFTMAG1
40
0.0
9
$LOFTMAG2
40
0.0
9
$LOFTPARAM
70
7
9
$LOFTNORMALS
280
1
9
$LATITUDE
40
37.795
9
$LONGITUDE
40
-122.394
9
$NORTHDIRECTION
40
0.0
9
$TIMEZONE
70
-8000
9
$LIGHTGLYPHDISPLAY
280
1
9
$TILEMODELIGHTSYNCH
280
1
9
$CMATERIAL
347
222
9
$SOLIDHIST
280
0
9
$SHOWHIST
280
1
9
$DWFFRAME
280
2
9
$DGNFRAME
280
0
9
$REALWORLDSCALE
290
1
9
$INTERFERECOLOR
62
1
9
$INTERFEREOBJVS
345
244
9
$INTERFEREVPVS
346
241
9
$CSHADOW
280
0
9
$SHADOWPLANELOCATION
40
0.0
0
ENDSEC
0
SECTION
2
CLASSES
0
CLASS
1
ACDBDICTIONARYWDFLT
2
AcDbDictionaryWithDefault
3
ObjectDBX Classes
90
0
91
1
280
0
281
0
0
CLASS
1
MATERIAL
2
AcDbMaterial
3
ObjectDBX Classes
90
1153
91
3
280
0
281
0
0
CLASS
1
VISUALSTYLE
2
AcDbVisualStyle
3
ObjectDBX Classes
90
4095
91
24
280
0
281
0
0
CLASS
1
SCALE
2
AcDbScale
3
ObjectDBX Classes
90
1153
91
17
280
0
281
0
0
CLASS
1
TABLESTYLE
2
AcDbTableStyle
3
ObjectDBX Classes
90
4095
91
1
280
0
281
0
0
CLASS
1
MLEADERSTYLE
2
AcDbMLeaderStyle
3
ACDB_MLEADERSTYLE_CLASS
90
4095
91
1
280
0
281
0
0
CLASS
1
ACDBSECTIONVIEWSTYLE
2
AcDbSectionViewStyle
3
ObjectDBX Classes
90
1025
91
1
280
0
281
0
0
CLASS
1
ACDBDETAILVIEWSTYLE
2
AcDbDetailViewStyle
3
ObjectDBX Classes
90
1025
91
1
280
0
281
0
0
CLASS
1
DICTIONARYVAR
2
AcDbDictionaryVar
3
ObjectDBX Classes
90
0
91
9
280
0
281
0
0
CLASS
1
CELLSTYLEMAP
2
AcDbCellStyleMap
3
ObjectDBX Classes
90
1152
91
2
280
0
281
0
0
ENDSEC
0
SECTION
2
TABLES
0
TABLE
2
VPORT
5
219
330
0
100
AcDbSymbolTable
70
1
0
VPORT
5
285
330
219
100
AcDbSymbolTableRecord
100
AcDbViewportTableRecord
2
*ACTIVE
70
0
10
0.0
20
0.0
11
1.0
21
1.0
12
60.85393284500712
22
1.602311788490737
13
0.0
23
0.0
14
0.5
24
0.5
15
0.5
25
0.5
16
0.0
26
0.0
36
1.0
17
0.0
27
0.0
37
0.0
40
135.7601553851812
41
1.367970660146699
42
50.0
43
0.0
44
0.0
50
0.0
51
0.0
71
0
72
1000
73
1
74
3
75
0
76
1
77
0
78
0
281
0
65
1
110
0.0
120
0.0
130
0.0
111
1.0
121
0.0
131
0.0
112
0.0
122
1.0
132
0.0
79
0
146
0.0
348
240
60
3
61
5
292
1
282
0
141
0.0
142
0.0
63
250
421
3355443
1001
ACAD_NAV_VCDISPLAY
1070
3
0
ENDTAB
0
TABLE
2
LTYPE
5
216
330
0
100
AcDbSymbolTable
70
2
0
LTYPE
5
26B
330
216
100
AcDbSymbolTableRecord
100
AcDbLinetypeTableRecord
2
ByBlock
70
0
3

72
65
73
0
40
0.0
0
LTYPE
5
26C
330
216
100
AcDbSymbolTableRecord
100
AcDbLinetypeTableRecord
2
ByLayer
70
0
3

72
65
73
0
40
0.0
0
LTYPE
5
26D
330
216
100
AcDbSymbolTableRecord
100
AcDbLinetypeTableRecord
2
CONTINUOUS
70
0
3
Solid line
72
65
73
0
40
0.0
0
LTYPE
5
103D
330
216
100
AcDbSymbolTableRecord
100
AcDbLinetypeTableRecord
2
DOTTED
70
0
3
Dotted . . . . . . . . . . . . . . . . . . . .
72
65
73
2
40
3.0
49
0.0
74
0
49
-3.0
74
0
0
ENDTAB
0
TABLE
2
LAYER
5
213
102
{ACAD_XDICTIONARY
360
297
102
}
330
0
100
AcDbSymbolTable
70
4
0
LAYER
5
265
102
{ACAD_XDICTIONARY
360
292
102
}
330
213
100
AcDbSymbolTableRecord
100
AcDbLayerTableRecord
2
0
70
0
62
7
6
CONTINUOUS
370
-3
390
220
347
232
348
0
0
LAYER
5
1900
330
213
100
AcDbSymbolTableRecord
100
AcDbLayerTableRecord
2
gear
70
0
62
7
6
CONTINUOUS
370
-3
390
220
347
232
348
0
1001
AcAecLayerStandard
1000

1000

1001
AcCmTransparency
1071
0
0
LAYER
5
1901
330
213
100
AcDbSymbolTableRecord
100
AcDbLayerTableRecord
2
gear_guides
70
0
62
5
6
CONTINUOUS
370
-3
390
220
347
232
348
0
1001
AcAecLayerStandard
1000

1000

1001
AcCmTransparency
1071
0
0
LAYER
5
1902
330
213
100
AcDbSymbolTableRecord
100
AcDbLayerTableRecord
2
gear_texts
70
0
62
7
6
CONTINUOUS
370
-3
390
220
347
232
348
0
1001
AcAecLayerStandard
1000

1000

1001
AcCmTransparency
1071
0
0
ENDTAB
0
TABLE
2
STYLE
5
214
330
0
100
AcDbSymbolTable
70
3
0
STYLE
5
266
330
214
100
AcDbSymbolTableRecord
100
AcDbTextStyleTableRecord
2
STANDARD
70
0
40
0.0
41
1.0
50
0.0
71
0
42
0.2
3
txt
4

0
STYLE
5
26A
330
214
100
AcDbSymbolTableRecord
100
AcDbTextStyleTableRecord
2
ANNOTATIVE
70
0
40
0.0
41
1.0
50
0.0
71
0
42
0.2
3
txt
4

1001
ACADANNOTATIVE
1000
AnnotativeData
1002
{
1070
1
1070
1
1002
}
0
STYLE
5
301
330
214
100
AcDbSymbolTableRecord
100
AcDbTextStyleTableRecord
2

70
1
40
0.0
41
1.0
50
0.0
71
0
42
0.2
3
ltypeshp.shx
4

0
ENDTAB
0
TABLE
2
VIEW
5
217
330
0
100
AcDbSymbolTable
70
1
0
ENDTAB
0
TABLE
2
UCS
5
218
330
0
100
AcDbSymbolTable
70
0
0
ENDTAB
0
TABLE
2
APPID
5
21A
330
0
100
AcDbSymbolTable
70
10
0
APPID
5
267
330
21A
100
AcDbSymbolTableRecord
100
AcDbRegAppTableRecord
2
ACAD
70
0
0
APPID
5
26E
330
21A
100
AcDbSymbolTableRecord
100
AcDbRegAppTableRecord
2
ACADANNOTATIVE
70
0
0
APPID
5
286
330
21A
100
AcDbSymbolTableRecord
100
AcDbRegAppTableRecord
2
ACADANNOPO
70
0
0
APPID
5
287
330
21A
100
AcDbSymbolTableRecord
100
AcDbRegAppTableRecord
2
ACAD_DSTYLE_DIMJAG
70
0
0
APPID
5
288
330
21A
100
AcDbSymbolTableRecord
100
AcDbRegAppTableRecord
2
ACAD_DSTYLE_DIMTALN
70
0
0
APPID
5
289
330
21A
100
AcDbSymbolTableRecord
100
AcDbRegAppTableRecord
2
ACAD_MLEADERVER
70
0
0
APPID
5
28A
330
21A
100
AcDbSymbolTableRecord
100
AcDbRegAppTableRecord
2
ACAD_NAV_VCDISPLAY
70
0
0
APPID
5
2E7
330
21A
100
AcDbSymbolTableRecord
100
AcDbRegAppTableRecord
2
ACAD_EXEMPT_FROM_CAD_STANDARDS
70
0
0
APPID
5
2FC
330
21A
100
AcDbSymbolTableRecord
100
AcDbRegAppTableRecord
2
AcAecLayerStandard
70
0
0
APPID
5
2FD
330
21A
100
AcDbSymbolTableRecord
100
AcDbRegAppTableRecord
2
AcCmTransparency
70
0
0
ENDTAB
0
TABLE
2
DIMSTYLE
5
21B
330
0
100
AcDbSymbolTable
70
2
100
AcDbDimStyleTable
71
1
340
268
0
DIMSTYLE
105
268
330
21B
100
AcDbSymbolTableRecord
100
AcDbDimStyleTableRecord
2
STANDARD
70
0
279
2
340
266
0
DIMSTYLE
105
269
330
21B
100
AcDbSymbolTableRecord
100
AcDbDimStyleTableRecord
2
ANNOTATIVE
70
0
40
0.0
279
2
340
266
1001
ACADANNOTATIVE
1000
AnnotativeData
1002
{
1070
1
1070
1
1002
}
0
ENDTAB
0
TABLE
2
BLOCK_RECORD
5
212
330
0
100
AcDbSymbolTable
70
2
0
BLOCK_RECORD
5
281
330
212
100
AcDbSymbolTableRecord
100
AcDbBlockTableRecord
2
*Model_Space
340
284
70
0
280
1
281
0
0
BLOCK_RECORD
5
27D
330
212
100
AcDbSymbolTableRecord
100
AcDbBlockTableRecord
2
*Paper_Space
340
280
70
0
280
1
281
0
0
BLOCK_RECORD
5
28C
330
212
100
AcDbSymbolTableRecord
100
AcDbBlockTableRecord
2
$MODEL_SPACE
340
0
70
0
280
1
281
0
0
BLOCK_RECORD
5
28E
330
212
100
AcDbSymbolTableRecord
100
AcDbBlockTableRecord
2
$PAPER_SPACE
340
0
70
0
280
1
281
0
0
ENDTAB
0
ENDSEC
0
SECTION
2
BLOCKS
0
BLOCK
5
282
330
281
100
AcDbEntity
8
0
100
AcDbBlockBegin
2
*Model_Space
70
0
10
0.0
20
0.0
30
0.0
3
*Model_Space
1

0
ENDBLK
5
283
330
281
100
AcDbEntity
8
0
100
AcDbBlockEnd
0
BLOCK
5
27E
330
27D
100
AcDbEntity
67
1
8
0
100
AcDbBlockBegin
2
*Paper_Space
70
0
10
0.0
20
0.0
30
0.0
3
*Paper_Space
1

0
ENDBLK
5
27F
330
27D
100
AcDbEntity
67
1
8
0
100
AcDbBlockEnd
0
BLOCK
5
28D
330
28C
100
AcDbEntity
8
0
100
AcDbBlockBegin
2
$MODEL_SPACE
70
0
10
0.0
20
0.0
30
0.0
3
$MODEL_SPACE
1

0
ENDBLK
5
21
330
28C
100
AcDbEntity
8
0
100
AcDbBlockEnd
0
BLOCK
5
28F
330
28E
100
AcDbEntity
8
0
100
AcDbBlockBegin
2
$PAPER_SPACE
70
0
10
0.0
20
0.0
30
0.0
3
$PAPER_SPACE
1

0
ENDBLK
5
5B
330
28E
100
AcDbEntity
8
0
100
AcDbBlockEnd
0
ENDSEC
0
SECTION
2
ENTITIES
0
LWPOLYLINE
5
2000
100
AcDbEntity
100
AcDbPolyline
66
1
90
504
70
1
43
0
10
9.7
20
0
30
0
10
11.127901
20
0.00002
30
0
10
11.157982
20
0.001604
30
0
10
11.225367
20
0.00887
30
0
10
11.329369
20
0.026148
30
0
10
11.468928
20
0.0577
30
0
10
11.64261
20
0.107693
30
0
10
11.848621
20
0.180165
30
0
10
12.084815
20
0.279003
30
0
10
12.348703
20
0.407914
30
0
10
12.637476
20
0.570395
30
0
10
12.948009
20
0.769716
30
0
10
13.276889
20
1.008887
30
0
10
13.62043
20
1.290642
30
0
10
13.796477
20
1.448261
30
0
10
13.885346
20
1.531379
30
0
10
13.907641
20
1.552613
30
0
10
13.91043
20
1.55528
30
0
10
13.911824
20
1.556615
30
0
10
13.912522
20
1.557282
30
0
10
13.913046
20
1.557931
30
0
10
13.772063
20
2.516006
30
0
10
13.771374
20
2.516476
30
0
10
13.770514
20
2.516914
30
0
10
13.768794
20
2.517791
30
0
10
13.765355
20
2.519541
30
0
10
13.737889
20
2.533453
30
0
10
13.628842
20
2.587447
30
0
10
13.414853
20
2.687671
30
0
10
13.004711
20
2.85852
30
0
10
12.620874
20
2.992813
30
0
10
12.266087
20
3.09423
30
0
10
11.94275
20
3.166638
30
0
10
11.652912
20
3.214066
30
0
10
11.398259
20
3.240675
30
0
10
11.180104
20
3.25073
30
0
10
10.999383
20
3.248571
30
0
10
10.856651
20
3.238584
30
0
10
10.75208
20
3.22517
30
0
10
10.685458
20
3.212716
30
0
10
10.656196
20
3.205568
30
0
10
9.288818
20
2.794255
30
0
10
8.400446
20
4.85
30
0
10
9.637035
20
5.563967
30
0
10
9.662294
20
5.58038
30
0
10
9.717018
20
5.620365
30
0
10
9.798448
20
5.687329
30
0
10
9.903533
20
5.784434
30
0
10
10.02895
20
5.91457
30
0
10
10.171125
20
6.080338
30
0
10
10.326255
20
6.284031
30
0
10
10.490334
20
6.527615
30
0
10
10.659177
20
6.812715
30
0
10
10.828447
20
7.140598
30
0
10
10.99368
20
7.512167
30
0
10
11.150317
20
7.927944
30
0
10
11.223969
20
8.152469
30
0
10
11.259373
20
8.268886
30
0
10
11.268064
20
8.298423
30
0
10
11.269146
20
8.302127
30
0
10
11.269686
20
8.30398
30
0
10
11.269956
20
8.304907
30
0
10
11.270086
20
8.305731
30
0
10
10.668953
20
9.064957
30
0
10
10.668122
20
9.065019
30
0
10
10.667158
20
9.064969
30
0
10
10.66523
20
9.064868
30
0
10
10.661376
20
9.064664
30
0
10
10.630634
20
9.062979
30
0
10
10.5092
20
9.055216
30
0
10
10.273768
20
9.035018
30
0
10
9.83315
20
8.977906
30
0
10
9.433591
20
8.902289
30
0
10
9.075628
20
8.812725
30
0
10
8.759406
20
8.713764
30
0
10
8.484685
20
8.609919
30
0
10
8.250845
20
8.505636
30
0
10
8.056889
20
8.405267
30
0
10
7.90146
20
8.313036
30
0
10
7.782844
20
8.233021
30
0
10
7.698989
20
8.169119
30
0
10
7.64752
20
8.125023
30
0
10
7.625753
20
8.104201
30
0
10
6.647225
20
7.064305
30
0
10
4.85
20
8.400446
30
0
10
5.563933
20
9.637055
30
0
10
5.577602
20
9.663898
30
0
10
5.605002
20
9.725888
30
0
10
5.64204
20
9.824596
30
0
10
5.684494
20
9.961233
30
0
10
5.72804
20
10.136643
30
0
10
5.768283
20
10.35129
30
0
10
5.800783
20
10.605258
30
0
10
5.821088
20
10.898248
30
0
10
5.824761
20
11.229573
30
0
10
5.807411
20
11.598163
30
0
10
5.764723
20
12.002567
30
0
10
5.692486
20
12.440959
30
0
10
5.644008
20
12.67223
30
0
10
5.61646
20
12.790752
30
0
10
5.609218
20
12.820677
30
0
10
5.608303
20
12.824426
30
0
10
5.607844
20
12.826301
30
0
10
5.607615
20
12.827239
30
0
10
5.607315
20
12.828017
30
0
10
4.707106
20
13.184959
30
0
10
4.706355
20
13.184598
30
0
10
4.705545
20
13.184072
30
0
10
4.703926
20
13.183021
30
0
10
4.700691
20
13.180918
30
0
10
4.67491
20
13.164087
30
0
10
4.573626
20
13.096647
30
0
10
4.379835
20
12.96144
30
0
10
4.026805
20
12.69167
30
0
10
3.718585
20
12.426404
30
0
10
3.453362
20
12.169858
30
0
10
3.228986
20
11.926044
30
0
10
3.042993
20
11.698751
30
0
10
2.892623
20
11.491519
30
0
10
2.774837
20
11.307619
30
0
10
2.686347
20
11.150031
30
0
10
2.62363
20
11.021427
30
0
10
2.582961
20
10.924159
30
0
10
2.560435
20
10.860236
30
0
10
2.551995
20
10.83132
30
0
10
2.224513
20
9.44148
30
0
10
0
20
9.7
30
0
10
-0.00002
20
11.127901
30
0
10
-0.001604
20
11.157982
30
0
10
-0.00887
20
11.225367
30
0
10
-0.026148
20
11.329369
30
0
10
-0.0577
20
11.468928
30
0
10
-0.107693
20
11.64261
30
0
10
-0.180165
20
11.848621
30
0
10
-0.279003
20
12.084815
30
0
10
-0.407914
20
12.348703
30
0
10
-0.570395
20
12.637476
30
0
10
-0.769716
20
12.948009
30
0
10
-1.008887
20
13.276889
30
0
10
-1.290642
20
13.62043
30
0
10
-1.448261
20
13.796477
30
0
10
-1.531379
20
13.885346
30
0
10
-1.552613
20
13.907641
30
0
10
-1.55528
20
13.91043
30
0
10
-1.556615
20
13.911824
30
0
10
-1.557282
20
13.912522
30
0
10
-1.557931
20
13.913046
30
0
10
-2.516006
20
13.772063
30
0
10
-2.516476
20
13.771374
30
0
10
-2.516914
20
13.770514
30
0
10
-2.517791
20
13.768794
30
0
10
-2.519541
20
13.765355
30
0
10
-2.533453
20
13.737889
30
0
10
-2.587447
20
13.628842
30
0
10
-2.687671
20
13.414853
30
0
10
-2.85852
20
13.004711
30
0
10
-2.992813
20
12.620874
30
0
10
-3.09423
20
12.266087
30
0
10
-3.166638
20
11.94275
30
0
10
-3.214066
20
11.652912
30
0
10
-3.240675
20
11.398259
30
0
10
-3.25073
20
11.180104
30
0
10
-3.248571
20
10.999383
30
0
10
-3.238584
20
10.856651
30
0
10
-3.22517
20
10.75208
30
0
10
-3.212716
20
10.685458
30
0
10
-3.205568
20
10.656196
30
0
10
-2.794255
20
9.288818
30
0
10
-4.85
20
8.400446
30
0
10
-5.563967
20
9.637035
30
0
10
-5.58038
20
9.662294
30
0
10
-5.620365
20
9.717018
30
0
10
-5.687329
20
9.798448
30
0
10
-5.784434
20
9.903533
30
0
10
-5.91457
20
10.02895
30
0
10
-6.080338
20
10.171125
30
0
10
-6.284031
20
10.326255
30
0
10
-6.527615
20
10.490334
30
0
10
-6.812715
20
10.659177
30
0
10
-7.140598
20
10.828447
30
0
10
-7.512167
20
10.99368
30
0
10
-7.927944
20
11.150317
30
0
10
-8.152469
20
11.223969
30
0
10
-8.268886
20
11.259373
30
0
10
-8.298423
20
11.268064
30
0
10
-8.302127
20
11.269146
30
0
10
-8.30398
20
11.269686
30
0
10
-8.304907
20
11.269956
30
0
10
-8.305731
20
11.270086
30
0
10
-9.064957
20
10.668953
30
0
10
-9.065019
20
10.668122
30
0
10
-9.064969
20
10.667158
30
0
10
-9.064868
20
10.66523
30
0
10
-9.064664
20
10.661376
30
0
10
-9.062979
20
10.630634
30
0
10
-9.055216
20
10.5092
30
0
10
-9.035018
20
10.273768
30
0
10
-8.977906
20
9.83315
30
0
10
-8.902289
20
9.433591
30
0
10
-8.812725
20
9.075628
30
0
10
-8.713764
20
8.759406
30
0
10
-8.609919
20
8.484685
30
0
10
-8.505636
20
8.250845
30
0
10
-8.405267
20
8.056889
30
0
10
-8.313036
20
7.90146
30
0
10
-8.233021
20
7.782844
30
0
10
-8.169119
20
7.698989
30
0
10
-8.125023
20
7.64752
30
0
10
-8.104201
20
7.625753
30
0
10
-7.064305
20
6.647225
30
0
10
-8.400446
20
4.85
30
0
10
-9.637055
20
5.563933
30
0
10
-9.663898
20
5.577602
30
0
10
-9.725888
20
5.605002
30
0
10
-9.824596
20
5.64204
30
0
10
-9.961233
20
5.684494
30
0
10
-10.136643
20
5.72804
30
0
10
-10.35129
20
5.768283
30
0
10
-10.605258
20
5.800783
30
0
10
-10.898248
20
5.821088
30
0
10
-11.229573
20
5.824761
30
0
10
-11.598163
20
5.807411
30
0
10
-12.002567
20
5.764723
30
0
10
-12.440959
20
5.692486
30
0
10
-12.67223
20
5.644008
30
0
10
-12.790752
20
5.61646
30
0
10
-12.820677
20
5.609218
30
0
10
-12.824426
20
5.608303
30
0
10
-12.826301
20
5.607844
30
0
10
-12.827239
20
5.607615
30
0
10
-12.828017
20
5.607315
30
0
10
-13.184959
20
4.707106
30
0
10
-13.184598
20
4.706355
30
0
10
-13.184072
20
4.705545
30
0
10
-13.183021
20
4.703926
30
0
10
-13.180918
20
4.700691
30
0
10
-13.164087
20
4.67491
30
0
10
-13.096647
20
4.573626
30
0
10
-12.96144
20
4.379835
30
0
10
-12.69167
20
4.026805
30
0
10
-12.426404
20
3.718585
30
0
10
-12.169858
20
3.453362
30
0
10
-11.926044
20
3.228986
30
0
10
-11.698751
20
3.042993
30
0
10
-11.491519
20
2.892623
30
0
10
-11.307619
20
2.774837
30
0
10
-11.150031
20
2.686347
30
0
10
-11.021427
20
2.62363
30
0
10
-10.924159
20
2.582961
30
0
10
-10.860236
20
2.560435
30
0
10
-10.83132
20
2.551995
30
0
10
-9.44148
20
2.224513
30
0
10
-9.7
20
0
30
0
10
-11.127901
20
-0.00002
30
0
10
-11.157982
20
-0.001604
30
0
10
-11.225367
20
-0.00887
30
0
10
-11.329369
20
-0.026148
30
0
10
-11.468928
20
-0.0577
30
0
10
-11.64261
20
-0.107693
30
0
10
-11.848621
20
-0.180165
30
0
10
-12.084815
20
-0.279003
30
0
10
-12.348703
20
-0.407914
30
0
10
-12.637476
20
-0.570395
30
0
10
-12.948009
20
-0.769716
30
0
10
-13.276889
20
-1.008887
30
0
10
-13.62043
20
-1.290642
30
0
10
-13.796477
20
-1.448261
30
0
10
-13.885346
20
-1.531379
30
0
10
-13.907641
20
-1.552613
30
0
10
-13.91043
20
-1.55528
30
0
10
-13.911824
20
-1.556615
30
0
10
-13.912522
20
-1.557282
30
0
10
-13.913046
20
-1.557931
30
0
10
-13.772063
20
-2.516006
30
0
10
-13.771374
20
-2.516476
30
0
10
-13.770514
20
-2.516914
30
0
10
-13.768794
20
-2.517791
30
0
10
-13.765355
20
-2.519541
30
0
10
-13.737889
20
-2.533453
30
0
10
-13.628842
20
-2.587447
30
0
10
-13.414853
20
-2.687671
30
0
10
-13.004711
20
-2.85852
30
0
10
-12.620874
20
-2.992813
30
0
10
-12.266087
20
-3.09423
30
0
10
-11.94275
20
-3.166638
30
0
10
-11.652912
20
-3.214066
30
0
10
-11.398259
20
-3.240675
30
0
10
-11.180104
20
-3.25073
30
0
10
-10.999383
20
-3.248571
30
0
10
-10.856651
20
-3.238584
30
0
10
-10.75208
20
-3.22517
30
0
10
-10.685458
20
-3.212716
30
0
10
-10.656196
20
-3.205568
30
0
10
-9.288818
20
-2.794255
30
0
10
-8.400446
20
-4.85
30
0
10
-9.637035
20
-5.563967
30
0
10
-9.662294
20
-5.58038
30
0
10
-9.717018
20
-5.620365
30
0
10
-9.798448
20
-5.687329
30
0
10
-9.903533
20
-5.784434
30
0
10
-10.02895
20
-5.91457
30
0
10
-10.171125
20
-6.080338
30
0
10
-10.326255
20
-6.284031
30
0
10
-10.490334
20
-6.527615
30
0
10
-10.659177
20
-6.812715
30
0
10
-10.828447
20
-7.140598
30
0
10
-10.99368
20
-7.512167
30
0
10
-11.150317
20
-7.927944
30
0
10
-11.223969
20
-8.152469
30
0
10
-11.259373
20
-8.268886
30
0
10
-11.268064
20
-8.298423
30
0
10
-11.269146
20
-8.302127
30
0
10
-11.269686
20
-8.30398
30
0
10
-11.269956
20
-8.304907
30
0
10
-11.270086
20
-8.305731
30
0
10
-10.668953
20
-9.064957
30
0
10
-10.668122
20
-9.065019
30
0
10
-10.667158
20
-9.064969
30
0
10
-10.66523
20
-9.064868
30
0
10
-10.661376
20
-9.064664
30
0
10
-10.630634
20
-9.062979
30
0
10
-10.5092
20
-9.055216
30
0
10
-10.273768
20
-9.035018
30
0
10
-9.83315
20
-8.977906
30
0
10
-9.433591
20
-8.902289
30
0
10
-9.075628
20
-8.812725
30
0
10
-8.759406
20
-8.713764
30
0
10
-8.484685
20
-8.609919
30
0
10
-8.250845
20
-8.505636
30
0
10
-8.056889
20
-8.405267
30
0
10
-7.90146
20
-8.313036
30
0
10
-7.782844
20
-8.233021
30
0
10
-7.698989
20
-8.169119
30
0
10
-7.64752
20
-8.125023
30
0
10
-7.625753
20
-8.104201
30
0
10
-6.647225
20
-7.064305
30
0
10
-4.85
20
-8.400446
30
0
10
-5.563933
20
-9.637055
30
0
10
-5.577602
20
-9.663898
30
0
10
-5.605002
20
-9.725888
30
0
10
-5.64204
20
-9.824596
30
0
10
-5.684494
20
-9.961233
30
0
10
-5.72804
20
-10.136643
30
0
10
-5.768283
20
-10.35129
30
0
10
-5.800783
20
-10.605258
30
0
10
-5.821088
20
-10.898248
30
0
10
-5.824761
20
-11.229573
30
0
10
-5.807411
20
-11.598163
30
0
10
-5.764723
20
-12.002567
30
0
10
-5.692486
20
-12.440959
30
0
10
-5.644008
20
-12.67223
30
0
10
-5.61646
20
-12.790752
30
0
10
-5.609218
20
-12.820677
30
0
10
-5.608303
20
-12.824426
30
0
10
-5.607844
20
-12.826301
30
0
10
-5.607615
20
-12.827239
30
0
10
-5.607315
20
-12.828017
30
0
10
-4.707106
20
-13.184959
30
0
10
-4.706355
20
-13.184598
30
0
10
-4.705545
20
-13.184072
30
0
10
-4.703926
20
-13.183021
30
0
10
-4.700691
20
-13.180918
30
0
10
-4.67491
20
-13.164087
30
0
10
-4.573626
20
-13.096647
30
0
10
-4.379835
20
-12.96144
30
0
10
-4.026805
20
-12.69167
30
0
10
-3.718585
20
-12.426404
30
0
10
-3.453362
20
-12.169858
30
0
10
-3.228986
20
-11.926044
30
0
10
-3.042993
20
-11.698751
30
0
10
-2.892623
20
-11.491519
30
0
10
-2.774837
20
-11.307619
30
0
10
-2.686347
20
-11.150031
30
0
10
-2.62363
20
-11.021427
30
0
10
-2.582961
20
-10.924159
30
0
10
-2.560435
20
-10.860236
30
0
10
-2.551995
20
-10.83132
30
0
10
-2.224513
20
-9.44148
30
0
10
0
20
-9.7
30
0
10
0.00002
20
-11.127901
30
0
10
0.001604
20
-11.157982
30
0
10
0.00887
20
-11.225367
30
0
10
0.026148
20
-11.329369
30
0
10
0.0577
20
-11.468928
30
0
10
0.107693
20
-11.64261
30
0
10
0.180165
20
-11.848621
30
0
10
0.279003
20
-12.084815
30
0
10
0.407914
20
-12.348703
30
0
10
0.570395
20
-12.637476
30
0
10
0.769716
20
-12.948009
30
0
10
1.008887
20
-13.276889
30
0
10
1.290642
20
-13.62043
30
0
10
1.448261
20
-13.796477
30
0
10
1.531379
20
-13.885346
30
0
10
1.552613
20
-13.907641
30
0
10
1.55528
20
-13.91043
30
0
10
1.556615
20
-13.911824
30
0
10
1.557282
20
-13.912522
30
0
10
1.557931
20
-13.913046
30
0
10
2.516006
20
-13.772063
30
0
10
2.516476
20
-13.771374
30
0
10
2.516914
20
-13.770514
30
0
10
2.517791
20
-13.768794
30
0
10
2.519541
20
-13.765355
30
0
10
2.533453
20
-13.737889
30
0
10
2.587447
20
-13.628842
30
0
10
2.687671
20
-13.414853
30
0
10
2.85852
20
-13.004711
30
0
10
2.992813
20
-12.620874
30
0
10
3.09423
20
-12.266087
30
0
10
3.166638
20
-11.94275
30
0
10
3.214066
20
-11.652912
30
0
10
3.240675
20
-11.398259
30
0
10
3.25073
20
-11.180104
30
0
10
3.248571
20
-10.999383
30
0
10
3.238584
20
-10.856651
30
0
10
3.22517
20
-10.75208
30
0
10
3.212716
20
-10.685458
30
0
10
3.205568
20
-10.656196
30
0
10
2.794255
20
-9.288818
30
0
10
4.85
20
-8.400446
30
0
10
5.563967
20
-9.637035
30
0
10
5.58038
20
-9.662294
30
0
10
5.620365
20
-9.717018
30
0
10
5.687329
20
-9.798448
30
0
10
5.784434
20
-9.903533
30
0
10
5.91457
20
-10.02895
30
0
10
6.080338
20
-10.171125
30
0
10
6.284031
20
-10.326255
30
0
10
6.527615
20
-10.490334
30
0
10
6.812715
20
-10.659177
30
0
10
7.140598
20
-10.828447
30
0
10
7.512167
20
-10.99368
30
0
10
7.927944
20
-11.150317
30
0
10
8.152469
20
-11.223969
30
0
10
8.268886
20
-11.259373
30
0
10
8.298423
20
-11.268064
30
0
10
8.302127
20
-11.269146
30
0
10
8.30398
20
-11.269686
30
0
10
8.304907
20
-11.269956
30
0
10
8.305731
20
-11.270086
30
0
10
9.064957
20
-10.668953
30
0
10
9.065019
20
-10.668122
30
0
10
9.064969
20
-10.667158
30
0
10
9.064868
20
-10.66523
30
0
10
9.064664
20
-10.661376
30
0
10
9.062979
20
-10.630634
30
0
10
9.055216
20
-10.5092
30
0
10
9.035018
20
-10.273768
30
0
10
8.977906
20
-9.83315
30
0
10
8.902289
20
-9.433591
30
0
10
8.812725
20
-9.075628
30
0
10
8.713764
20
-8.759406
30
0
10
8.609919
20
-8.484685
30
0
10
8.505636
20
-8.250845
30
0
10
8.405267
20
-8.056889
30
0
10
8.313036
20
-7.90146
30
0
10
8.233021
20
-7.782844
30
0
10
8.169119
20
-7.698989
30
0
10
8.125023
20
-7.64752
30
0
10
8.104201
20
-7.625753
30
0
10
7.064305
20
-6.647225
30
0
10
8.400446
20
-4.85
30
0
10
9.637055
20
-5.563933
30
0
10
9.663898
20
-5.577602
30
0
10
9.725888
20
-5.605002
30
0
10
9.824596
20
-5.64204
30
0
10
9.961233
20
-5.684494
30
0
10
10.136643
20
-5.72804
30
0
10
10.35129
20
-5.768283
30
0
10
10.605258
20
-5.800783
30
0
10
10.898248
20
-5.821088
30
0
10
11.229573
20
-5.824761
30
0
10
11.598163
20
-5.807411
30
0
10
12.002567
20
-5.764723
30
0
10
12.440959
20
-5.692486
30
0
10
12.67223
20
-5.644008
30
0
10
12.790752
20
-5.61646
30
0
10
12.820677
20
-5.609218
30
0
10
12.824426
20
-5.608303
30
0
10
12.826301
20
-5.607844
30
0
10
12.827239
20
-5.607615
30
0
10
12.828017
20
-5.607315
30
0
10
13.184959
20
-4.707106
30
0
10
13.184598
20
-4.706355
30
0
10
13.184072
20
-4.705545
30
0
10
13.183021
20
-4.703926
30
0
10
13.180918
20
-4.700691
30
0
10
13.164087
20
-4.67491
30
0
10
13.096647
20
-4.573626
30
0
10
12.96144
20
-4.379835
30
0
10
12.69167
20
-4.026805
30
0
10
12.426404
20
-3.718585
30
0
10
12.169858
20
-3.453362
30
0
10
11.926044
20
-3.228986
30
0
10
11.698751
20
-3.042993
30
0
10
11.491519
20
-2.892623
30
0
10
11.307619
20
-2.774837
30
0
10
11.150031
20
-2.686347
30
0
10
11.021427
20
-2.62363
30
0
10
10.924159
20
-2.582961
30
0
10
10.860236
20
-2.560435
30
0
10
10.83132
20
-2.551995
30
0
10
9.44148
20
-2.224513
30
0
8
gear
0
CIRCLE
5
2001
100
AcDbEntity
100
AcDbCircle
10
11.872149
20
1.747018
30
0
40
0.785
8
gear_guides
0
CIRCLE
5
2002
100
AcDbEntity
100
AcDbCircle
10
0
20
0
30
0
40
12
8
gear_guides
0
CIRCLE
5
2003
100
AcDbEntity
100
AcDbCircle
10
0
20
0
30
0
40
14
8
gear_guides
0
CIRCLE
5
2004
100
AcDbEntity
100
AcDbCircle
10
0
20
0
30
0
40
11.126206
8
gear_guides
0
LINE
5
2005
100
AcDbEntity
100
AcDbLine
10
1.6
20
0
30
0
11
-1.6
21
0
31
0
8
gear_guides
0
LINE
5
2006
100
AcDbEntity
100
AcDbLine
10
0
20
1.6
30
0
11
0
21
-1.6
31
0
8
gear_guides
0
LWPOLYLINE
5
2007
100
AcDbEntity
100
AcDbPolyline
66
1
90
5
70
0
43
0
10
-5.549056
20
4.519302
30
0
10
-5.72521
20
4.293959
30
0
10
-5.892218
20
4.061757
30
0
10
-6.049815
20
3.823068
30
0
10
-6.197748
20
3.578272
30
0
8
gear_texts
0
LWPOLYLINE
5
2008
100
AcDbEntity
100
AcDbPolyline
66
1
90
2
70
0
43
0
10
-5.421202
20
3.737066
30
0
10
-6.363235
20
4.386449
30
0
8
gear_texts
0
LWPOLYLINE
5
2009
100
AcDbEntity
100
AcDbPolyline
66
1
90
5
70
0
43
0
10
-5.992641
20
4.880569
30
0
10
-5.954043
20
4.465586
30
0
10
-5.892218
20
4.061757
30
0
10
-5.808008
20
3.670262
30
0
10
-5.702308
20
3.292229
30
0
8
gear_texts
0
LWPOLYLINE
5
2010
100
AcDbEntity
100
AcDbPolyline
66
1
90
5
70
0
43
0
10
-5.105471
20
4.158034
30
0
10
-5.496377
20
4.122332
30
0
10
-5.892218
20
4.061757
30
0
10
-6.291622
20
3.975873
30
0
10
-6.693188
20
3.864314
30
0
8
gear_texts
0
LWPOLYLINE
5
2011
100
AcDbEntity
100
AcDbPolyline
66
1
90
14
70
0
43
0
10
-4.316808
20
5.708001
30
0
10
-4.541445
20
5.530948
30
0
10
-4.758827
20
5.345061
30
0
10
-4.968608
20
5.150635
30
0
10
-5.377113
20
5.14575
30
0
10
-5.583772
20
5.343517
30
0
10
-5.564385
20
5.768238
30
0
10
-5.329449
20
5.985977
30
0
10
-5.086001
20
6.194154
30
0
10
-4.661888
20
6.164292
30
0
10
-4.144268
20
5.479856
30
0
10
-4.178407
20
5.088811
30
0
10
-4.188205
20
4.704144
30
0
10
-4.372832
20
4.533032
30
0
8
gear_texts
0
LWPOLYLINE
5
2012
100
AcDbEntity
100
AcDbPolyline
66
1
90
7
70
0
43
0
10
-1.299663
20
6.162866
30
0
10
-1.653808
20
7.842185
30
0
10
-1.825529
20
7.215229
30
0
10
-1.950011
20
6.587961
30
0
10
-2.395862
20
7.046412
30
0
10
-2.881171
20
7.47889
30
0
10
-2.264199
20
5.877367
30
0
8
gear_texts
0
LWPOLYLINE
5
2013
100
AcDbEntity
100
AcDbPolyline
66
1
90
15
70
0
43
0
10
0.201361
20
6.295196
30
0
10
-0.050348
20
6.298214
30
0
10
-0.301977
20
6.291172
30
0
10
-0.553123
20
6.274081
30
0
10
-0.803385
20
6.246968
30
0
10
-0.876357
20
6.81438
30
0
10
-0.628483
20
7.128893
30
0
10
-0.343119
20
7.148313
30
0
10
-0.057208
20
7.156314
30
0
10
0.23794
20
7.438781
30
0
10
0.247085
20
7.724678
30
0
10
-0.064068
20
8.014415
30
0
10
-0.384262
20
8.005454
30
0
10
-0.703843
20
7.983705
30
0
10
-0.985814
20
7.665498
30
0
8
gear_texts
0
LWPOLYLINE
5
2014
100
AcDbEntity
100
AcDbPolyline
66
1
90
7
70
0
43
0
10
3.641438
20
7.139669
30
0
10
2.861664
20
5.610786
30
0
10
2.814693
20
6.110358
30
0
10
2.732082
20
6.614517
30
0
10
2.613415
20
7.1212
30
0
10
2.458383
20
7.628322
30
0
10
1.931947
20
5.994799
30
0
8
gear_texts
0
LWPOLYLINE
5
2015
100
AcDbEntity
100
AcDbPolyline
66
1
90
5
70
0
43
0
10
4.859535
20
5.637109
30
0
10
4.630402
20
5.826788
30
0
10
4.393873
20
6.007159
30
0
10
4.150325
20
6.177935
30
0
10
3.900148
20
6.338843
30
0
8
gear_texts
0
LWPOLYLINE
5
2016
100
AcDbEntity
100
AcDbPolyline
66
1
90
5
70
0
43
0
10
4.486
20
5.203805
30
0
10
4.274479
20
5.378904
30
0
10
4.056131
20
5.54541
30
0
10
3.831304
20
5.703059
30
0
10
3.600357
20
5.851599
30
0
8
gear_texts
0
LWPOLYLINE
5
2017
100
AcDbEntity
100
AcDbPolyline
66
1
90
3
70
0
43
0
10
5.497632
20
5.432103
30
0
10
5.921643
20
5.400841
30
0
10
4.653587
20
4.244309
30
0
8
gear_texts
0
LWPOLYLINE
5
2018
100
AcDbEntity
100
AcDbPolyline
66
1
90
3
70
0
43
0
10
4.819468
20
4.054968
30
0
10
4.653587
20
4.244309
30
0
10
4.480274
20
4.426871
30
0
8
gear_texts
0
LWPOLYLINE
5
2019
100
AcDbEntity
100
AcDbPolyline
66
1
90
15
70
0
43
0
10
5.644695
20
2.794182
30
0
10
5.528535
20
3.017505
30
0
10
5.403544
20
3.236008
30
0
10
5.269922
20
3.449342
30
0
10
5.127881
20
3.657167
30
0
10
5.593647
20
3.989347
30
0
10
5.987922
20
3.919298
30
0
10
6.13975
20
3.676898
30
0
10
6.281771
20
3.428625
30
0
10
6.670111
20
3.301773
30
0
10
6.926465
20
3.42867
30
0
10
7.035006
20
3.839745
30
0
10
6.875956
20
4.117788
30
0
10
6.705923
20
4.389254
30
0
10
6.292295
20
4.487618
30
0
8
gear_texts
0
LWPOLYLINE
5
2020
100
AcDbEntity
100
AcDbPolyline
66
1
90
10
70
0
43
0
10
6.196812
20
1.126749
30
0
10
6.236886
20
0.878232
30
0
10
6.266998
20
0.628312
30
0
10
6.287099
20
0.377389
30
0
10
6.583143
20
0.13158
30
0
10
7.727085
20
0.154444
30
0
10
8.000271
20
0.480224
30
0
10
7.974692
20
0.799521
30
0
10
7.936375
20
1.117541
30
0
10
7.885381
20
1.433776
30
0
8
gear_texts
0
LWPOLYLINE
5
2021
100
AcDbEntity
100
AcDbPolyline
66
1
90
2
70
0
43
0
10
7.936375
20
1.117541
30
0
10
6.236886
20
0.878232
30
0
8
gear_texts
0
LWPOLYLINE
5
2022
100
AcDbEntity
100
AcDbPolyline
66
1
90
5
70
0
43
0
10
7.263474
20
-1.622969
30
0
10
7.322525
20
-1.331434
30
0
10
7.369879
20
-1.037772
30
0
10
7.405461
20
-0.742452
30
0
10
7.429214
20
-0.445946
30
0
8
gear_texts
0
LWPOLYLINE
5
2023
100
AcDbEntity
100
AcDbPolyline
66
1
90
5
70
0
43
0
10
6.705156
20
-1.498217
30
0
10
6.759668
20
-1.229091
30
0
10
6.803382
20
-0.958002
30
0
10
6.836229
20
-0.685382
30
0
10
6.858156
20
-0.411668
30
0
8
gear_texts
0
LWPOLYLINE
5
2024
100
AcDbEntity
100
AcDbPolyline
66
1
90
15
70
0
43
0
10
5.644695
20
-2.794182
30
0
10
5.751839
20
-2.566395
30
0
10
5.849795
20
-2.334509
30
0
10
5.938407
20
-2.098894
30
0
10
6.017534
20
-1.859927
30
0
10
6.564106
20
-2.028864
30
0
10
6.747486
20
-2.384858
30
0
10
6.646801
20
-2.652574
30
0
10
6.535499
20
-2.916054
30
0
10
6.670111
20
-3.301773
30
0
10
6.926465
20
-3.42867
30
0
10
7.319158
20
-3.265712
30
0
10
7.443806
20
-2.97064
30
0
10
7.556564
20
-2.670822
30
0
10
7.383965
20
-2.28227
30
0
8
gear_texts
0
LWPOLYLINE
5
2025
100
AcDbEntity
100
AcDbPolyline
66
1
90
9
70
0
43
0
10
5.25722
20
-4.423281
30
0
10
5.42977
20
-4.209676
30
0
10
5.593647
20
-3.989347
30
0
10
5.748589
20
-3.762646
30
0
10
5.894348
20
-3.529935
30
0
10
6.0677
20
-3.971515
30
0
10
6.214668
20
-4.432255
30
0
10
6.33401
20
-4.910729
30
0
10
4.97765
20
-3.85915
30
0
8
gear_texts
0
LWPOLYLINE
5
2026
100
AcDbEntity
100
AcDbPolyline
66
1
90
2
70
0
43
0
10
4.480274
20
-4.426871
30
0
10
5.29416
20
-5.231056
30
0
8
gear_texts
0
LWPOLYLINE
5
2027
100
AcDbEntity
100
AcDbPolyline
66
1
90
6
70
0
43
0
10
5.090688
20
-5.03001
30
0
10
5.080905
20
-5.438426
30
0
10
4.672767
20
-5.420457
30
0
10
4.630402
20
-5.826788
30
0
10
4.225002
20
-5.776285
30
0
10
3.71839
20
-5.083661
30
0
8
gear_texts
0
LWPOLYLINE
5
2028
100
AcDbEntity
100
AcDbPolyline
66
1
90
2
70
0
43
0
10
4.486
20
-5.203805
30
0
10
4.672767
20
-5.420457
30
0
8
gear_texts
0
LWPOLYLINE
5
2029
100
AcDbEntity
100
AcDbPolyline
66
1
90
2
70
0
43
0
10
3.300567
20
-5.364354
30
0
10
3.900148
20
-6.338843
30
0
8
gear_texts
0
LWPOLYLINE
5
2030
100
AcDbEntity
100
AcDbPolyline
66
1
90
6
70
0
43
0
10
3.750253
20
-6.095221
30
0
10
3.643741
20
-6.489625
30
0
10
3.251551
20
-6.375228
30
0
10
3.113885
20
-6.759867
30
0
10
2.732082
20
-6.614517
30
0
10
2.404484
20
-5.821383
30
0
8
gear_texts
0
LWPOLYLINE
5
2031
100
AcDbEntity
100
AcDbPolyline
66
1
90
2
70
0
43
0
10
3.121589
20
-6.120414
30
0
10
3.251551
20
-6.375228
30
0
8
gear_texts
0
LWPOLYLINE
5
2032
100
AcDbEntity
100
AcDbPolyline
66
1
90
11
70
0
43
0
10
0.799248
20
-7.111773
30
0
10
0.514433
20
-7.13803
30
0
10
0.228795
20
-7.152885
30
0
10
-0.057208
20
-7.156314
30
0
10
-0.356834
20
-7.434027
30
0
10
-0.370548
20
-7.71974
30
0
10
-0.064068
20
-8.014415
30
0
10
0.256229
20
-8.010574
30
0
10
0.576117
20
-7.993937
30
0
10
0.895085
20
-7.964532
30
0
10
0.703412
20
-6.259013
30
0
8
gear_texts
0
LWPOLYLINE
5
2033
100
AcDbEntity
100
AcDbPolyline
66
1
90
7
70
0
43
0
10
-0.803385
20
-6.246968
30
0
10
-0.876357
20
-6.81438
30
0
10
-1.243537
20
-7.337963
30
0
10
-1.653808
20
-7.842185
30
0
10
-1.825529
20
-7.215229
30
0
10
-1.950011
20
-6.587961
30
0
10
-1.78764
20
-6.039402
30
0
8
gear_texts
0
LWPOLYLINE
5
2034
100
AcDbEntity
100
AcDbPolyline
66
1
90
5
70
0
43
0
10
-0.876357
20
-6.81438
30
0
10
-1.147951
20
-6.77392
30
0
10
-1.417711
20
-6.722639
30
0
10
-1.685207
20
-6.66062
30
0
10
-1.950011
20
-6.587961
30
0
8
gear_texts
0
LWPOLYLINE
5
2035
100
AcDbEntity
100
AcDbPolyline
66
1
90
5
70
0
43
0
10
-3.747025
20
-6.430543
30
0
10
-3.487076
20
-6.575134
30
0
10
-3.221557
20
-6.709221
30
0
10
-2.950892
20
-6.832592
30
0
10
-2.675514
20
-6.945049
30
0
8
gear_texts
0
LWPOLYLINE
5
2036
100
AcDbEntity
100
AcDbPolyline
66
1
90
5
70
0
43
0
10
-3.459005
20
-5.93625
30
0
10
-3.219037
20
-6.069726
30
0
10
-2.973928
20
-6.193507
30
0
10
-2.724068
20
-6.307395
30
0
10
-2.469857
20
-6.411208
30
0
8
gear_texts
0
LWPOLYLINE
5
2037
100
AcDbEntity
100
AcDbPolyline
66
1
90
15
70
0
43
0
10
-4.372832
20
-4.533032
30
0
10
-4.188205
20
-4.704144
30
0
10
-3.996889
20
-4.867743
30
0
10
-3.799188
20
-5.023566
30
0
10
-3.595418
20
-5.171364
30
0
10
-3.92199
20
-5.641079
30
0
10
-4.316808
20
-5.708001
30
0
10
-4.541445
20
-5.530948
30
0
10
-4.758827
20
-5.345061
30
0
10
-5.167201
20
-5.356503
30
0
10
-5.365793
20
-5.56237
30
0
10
-5.329449
20
-5.985977
30
0
10
-5.086001
20
-6.194154
30
0
10
-4.834428
20
-6.392437
30
0
10
-4.411848
20
-6.345652
30
0
8
gear_texts
0
LWPOLYLINE
5
2038
100
AcDbEntity
100
AcDbPolyline
66
1
90
15
70
0
43
0
10
-5.324393
20
-3.364651
30
0
10
-5.185693
20
-3.57472
30
0
10
-5.038711
20
-3.779078
30
0
10
-4.883679
20
-3.977401
30
0
10
-4.720847
20
-4.16937
30
0
10
-5.149641
20
-4.548074
30
0
10
-5.549056
20
-4.519302
30
0
10
-5.72521
20
-4.293959
30
0
10
-5.892218
20
-4.061757
30
0
10
-6.291622
20
-3.975873
30
0
10
-6.53343
20
-4.128679
30
0
10
-6.598743
20
-4.548795
30
0
10
-6.411709
20
-4.80884
30
0
10
-6.214433
20
-5.061203
30
0
10
-5.792833
20
-5.116129
30
0
8
gear_texts
0
ENDSEC
0
SECTION
2
OBJECTS
0
DICTIONARY
5
21D
330
0
100
AcDbDictionary
281
1
3
ACAD_CIP_PREVIOUS_PRODUCT_INFO
350
291
3
ACAD_COLOR
350
273
3
ACAD_DETAILVIEWSTYLE
350
27B
3
ACAD_GROUP
350
21E
3
ACAD_LAYOUT
350
272
3
ACAD_MATERIAL
350
221
3
ACAD_MLEADERSTYLE
350
276
3
ACAD_MLINESTYLE
350
26F
3
ACAD_PLOTSETTINGS
350
271
3
ACAD_PLOTSTYLENAME
350
21F
3
ACAD_SCALELIST
350
253
3
ACAD_SECTIONVIEWSTYLE
350
278
3
ACAD_TABLESTYLE
350
274
3
ACAD_VISUALSTYLE
350
23A
3
ACDB_RECOMPOSE_DATA
350
1057
3
AcDbVariableDictionary
350
29D
0
DICTIONARY
5
297
330
213
100
AcDbDictionary
280
1
281
1
3
ACAD_LAYERSTATES
360
298
0
DICTIONARY
5
292
330
265
100
AcDbDictionary
280
1
281
1
3
ADSK_XREC_LAYER_RECONCILED
360
293
0
XRECORD
5
291
102
{ACAD_REACTORS
330
21D
102
}
330
21D
100
AcDbXrecord
280
1
300
ACDMAC
300
2013
300
ACDMAC_F_S
0
DICTIONARY
5
273
102
{ACAD_REACTORS
330
21D
102
}
330
21D
100
AcDbDictionary
281
1
0
DICTIONARY
5
21E
102
{ACAD_REACTORS
330
21D
102
}
330
21D
100
AcDbDictionary
281
1
0
DICTIONARY
5
272
102
{ACAD_REACTORS
330
21D
102
}
330
21D
100
AcDbDictionary
281
1
3
Layout1
350
280
3
Model
350
284
0
DICTIONARY
5
221
102
{ACAD_REACTORS
330
21D
102
}
330
21D
100
AcDbDictionary
281
1
3
ByBlock
350
22A
3
ByLayer
350
222
3
Global
350
232
0
DICTIONARY
5
276
102
{ACAD_REACTORS
330
21D
102
}
330
21D
100
AcDbDictionary
281
1
3
Standard
350
277
0
DICTIONARY
5
26F
102
{ACAD_REACTORS
330
21D
102
}
330
21D
100
AcDbDictionary
281
1
3
Standard
350
270
0
DICTIONARY
5
271
102
{ACAD_REACTORS
330
21D
102
}
330
21D
100
AcDbDictionary
281
1
0
ACDBDICTIONARYWDFLT
5
21F
102
{ACAD_REACTORS
330
21D
102
}
330
21D
100
AcDbDictionary
281
1
3
Normal
350
220
100
AcDbDictionaryWithDefault
340
220
0
DICTIONARY
5
253
102
{ACAD_REACTORS
330
21D
102
}
330
21D
100
AcDbDictionary
281
1
3
A0
350
254
3
A1
350
255
3
A2
350
256
3
A3
350
257
3
A4
350
258
3
A5
350
259
3
A6
350
25A
3
A7
350
25B
3
A8
350
25C
3
A9
350
25D
3
B0
350
25E
3
B1
350
25F
3
B2
350
260
3
B3
350
261
3
B4
350
262
3
B5
350
263
3
B6
350
264
0
DICTIONARY
5
274
102
{ACAD_REACTORS
330
21D
102
}
330
21D
100
AcDbDictionary
281
1
3
Standard
350
275
0
DICTIONARY
5
23A
102
{ACAD_REACTORS
330
21D
102
}
330
21D
100
AcDbDictionary
281
1
3
2dWireframe
350
240
3
Basic
350
23F
3
Brighten
350
246
3
ColorChange
350
24A
3
Conceptual
350
243
3
Dim
350
245
3
EdgeColorOff
350
252
3
Facepattern
350
249
3
Flat
350
23B
3
FlatWithEdges
350
23C
3
Gouraud
350
23D
3
GouraudWithEdges
350
23E
3
Hidden
350
242
3
JitterOff
350
250
3
Linepattern
350
248
3
OverhangOff
350
251
3
Realistic
350
244
3
Shaded
350
24F
3
Shaded with edges
350
24E
3
Shades of Gray
350
24B
3
Sketchy
350
24C
3
Thicken
350
247
3
Wireframe
350
241
3
X-Ray
350
24D
0
XRECORD
5
1057
102
{ACAD_REACTORS
330
21D
102
}
330
21D
100
AcDbXrecord
280
1
90
1
330
275
0
DICTIONARY
5
29D
102
{ACAD_REACTORS
330
21D
102
}
330
21D
100
AcDbDictionary
281
1
3
CANNOSCALE
350
2A3
3
CMLEADERSTYLE
350
29F
3
CTABLESTYLE
350
29E
3
CVIEWDETAILSTYLE
350
2A0
3
CVIEWSECTIONSTYLE
350
2A1
3
LAYEREVAL
350
2A5
3
LAYERNOTIFY
350
2A6
3
LIGHTINGUNITS
350
2A4
3
MSLTSCALE
350
2A2
0
ENDSEC
0
EOF
