0
SECTION
2
HEADER
9
$ACADVER
1
AC1027
9
$ACADMAINTVER
70
8
9
$DWGCODEPAGE
3
ANSI_1252
9
$LASTSAVEDBY
1
macc
9
$REQUIREDVERSIONS
160
0
9
$INSBASE
10
0.0
20
0.0
30
0.0
9
$EXTMIN
10
1.000000000000000E+20
20
1.000000000000000E+20
30
1.000000000000000E+20
9
$EXTMAX
10
-1.000000000000000E+20
20
-1.000000000000000E+20
30
-1.000000000000000E+20
9
$LIMMIN
10
0.0
20
0.0
9
$LIMMAX
10
12.0
20
9.0
9
$MEASUREMENT
70
1
9
$CELWEIGHT
370
-1
9
$ENDCAPS
280
0
9
$JOINSTYLE
280
0
9
$LWDISPLAY
290
0
9
$INSUNITS
70
0
9
$HYPERLINKBASE
1

9
$STYLESHEET
1

9
$XEDIT
290
1
9
$CEPSNTYPE
380
0
9
$PSTYLEMODE
290
1
9
$EXTNAMES
290
1
9
$PSVPSCALE
40
0.0
9
$OLESTARTUP
290
0
9
$SORTENTS
280
127
9
$INDEXCTL
280
0
9
$HIDETEXT
280
0
9
$XCLIPFRAME
280
2
9
$HALOGAP
280
0
9
$OBSCOLOR
70
257
9
$OBSLTYPE
280
0
9
$INTERSECTIONDISPLAY
280
0
9
$INTERSECTIONCOLOR
70
257
9
$DIMASSOC
280
1
9
$PROJECTNAME
1

9
$CAMERADISPLAY
290
0
9
$LENSLENGTH
40
50.0
9
$CAMERAHEIGHT
40
0.0
9
$STEPSPERSEC
40
2.0
9
$STEPSIZE
40
6.0
9
$3DDWFPREC
40
2.0
9
$PSOLWIDTH
40
0.25
9
$PSOLHEIGHT
40
4.0
9
$LOFTANG1
40
1.570796326794896
9
$LOFTANG2
40
1.570796326794896
9
$LOFTMAG1
40
0.0
9
$LOFTMAG2
40
0.0
9
$LOFTPARAM
70
7
9
$LOFTNORMALS
280
1
9
$LATITUDE
40
37.795
9
$LONGITUDE
40
-122.394
9
$NORTHDIRECTION
40
0.0
9
$TIMEZONE
70
-8000
9
$LIGHTGLYPHDISPLAY
280
1
9
$TILEMODELIGHTSYNCH
280
1
9
$CMATERIAL
347
222
9
$SOLIDHIST
280
0
9
$SHOWHIST
280
1
9
$DWFFRAME
280
2
9
$DGNFRAME
280
0
9
$REALWORLDSCALE
290
1
9
$INTERFERECOLOR
62
1
9
$INTERFEREOBJVS
345
244
9
$INTERFEREVPVS
346
241
9
$CSHADOW
280
0
9
$SHADOWPLANELOCATION
40
0.0
0
ENDSEC
0
SECTION
2
CLASSES
0
CLASS
1
ACDBDICTIONARYWDFLT
2
AcDbDictionaryWithDefault
3
ObjectDBX Classes
90
0
91
1
280
0
281
0
0
CLASS
1
MATERIAL
2
AcDbMaterial
3
ObjectDBX Classes
90
1153
91
3
280
0
281
0
0
CLASS
1
VISUALSTYLE
2
AcDbVisualStyle
3
ObjectDBX Classes
90
4095
91
24
280
0
281
0
0
CLASS
1
SCALE
2
AcDbScale
3
ObjectDBX Classes
90
1153
91
17
280
0
281
0
0
CLASS
1
TABLESTYLE
2
AcDbTableStyle
3
ObjectDBX Classes
90
4095
91
1
280
0
281
0
0
CLASS
1
MLEADERSTYLE
2
AcDbMLeaderStyle
3
ACDB_MLEADERSTYLE_CLASS
90
4095
91
1
280
0
281
0
0
CLASS
1
ACDBSECTIONVIEWSTYLE
2
AcDbSectionViewStyle
3
ObjectDBX Classes
90
1025
91
1
280
0
281
0
0
CLASS
1
ACDBDETAILVIEWSTYLE
2
AcDbDetailViewStyle
3
ObjectDBX Classes
90
1025
91
1
280
0
281
0
0
CLASS
1
DICTIONARYVAR
2
AcDbDictionaryVar
3
ObjectDBX Classes
90
0
91
9
280
0
281
0
0
CLASS
1
CELLSTYLEMAP
2
AcDbCellStyleMap
3
ObjectDBX Classes
90
1152
91
2
280
0
281
0
0
ENDSEC
0
SECTION
2
TABLES
0
TABLE
2
VPORT
5
219
330
0
100
AcDbSymbolTable
70
1
0
VPORT
5
285
330
219
100
AcDbSymbolTableRecord
100
AcDbViewportTableRecord
2
*ACTIVE
70
0
10
0.0
20
0.0
11
1.0
21
1.0
12
60.85393284500712
22
1.602311788490737
13
0.0
23
0.0
14
0.5
24
0.5
15
0.5
25
0.5
16
0.0
26
0.0
36
1.0
17
0.0
27
0.0
37
0.0
40
135.7601553851812
41
1.367970660146699
42
50.0
43
0.0
44
0.0
50
0.0
51
0.0
71
0
72
1000
73
1
74
3
75
0
76
1
77
0
78
0
281
0
65
1
110
0.0
120
0.0
130
0.0
111
1.0
121
0.0
131
0.0
112
0.0
122
1.0
132
0.0
79
0
146
0.0
348
240
60
3
61
5
292
1
282
0
141
0.0
142
0.0
63
250
421
3355443
1001
ACAD_NAV_VCDISPLAY
1070
3
0
ENDTAB
0
TABLE
2
LTYPE
5
216
330
0
100
AcDbSymbolTable
70
2
0
LTYPE
5
26B
330
216
100
AcDbSymbolTableRecord
100
AcDbLinetypeTableRecord
2
ByBlock
70
0
3

72
65
73
0
40
0.0
0
LTYPE
5
26C
330
216
100
AcDbSymbolTableRecord
100
AcDbLinetypeTableRecord
2
ByLayer
70
0
3

72
65
73
0
40
0.0
0
LTYPE
5
26D
330
216
100
AcDbSymbolTableRecord
100
AcDbLinetypeTableRecord
2
CONTINUOUS
70
0
3
Solid line
72
65
73
0
40
0.0
0
LTYPE
5
103D
330
216
100
AcDbSymbolTableRecord
100
AcDbLinetypeTableRecord
2
DOTTED
70
0
3
Dotted . . . . . . . . . . . . . . . . . . . .
72
65
73
2
40
3.0
49
0.0
74
0
49
-3.0
74
0
0
ENDTAB
0
TABLE
2
LAYER
5
213
102
{ACAD_XDICTIONARY
360
297
102
}
330
0
100
AcDbSymbolTable
70
4
0
LAYER
5
265
102
{ACAD_XDICTIONARY
360
292
102
}
330
213
100
AcDbSymbolTableRecord
100
AcDbLayerTableRecord
2
0
70
0
62
7
6
CONTINUOUS
370
-3
390
220
347
232
348
0
0
LAYER
5
1900
330
213
100
AcDbSymbolTableRecord
100
AcDbLayerTableRecord
2
gear
70
0
62
7
6
CONTINUOUS
370
-3
390
220
347
232
348
0
1001
AcAecLayerStandard
1000

1000

1001
AcCmTransparency
1071
0
0
LAYER
5
1901
330
213
100
AcDbSymbolTableRecord
100
AcDbLayerTableRecord
2
gear_guides
70
0
62
5
6
CONTINUOUS
370
-3
390
220
347
232
348
0
1001
AcAecLayerStandard
1000

1000

1001
AcCmTransparency
1071
0
0
LAYER
5
1902
330
213
100
AcDbSymbolTableRecord
100
AcDbLayerTableRecord
2
gear_texts
70
0
62
7
6
CONTINUOUS
370
-3
390
220
347
232
348
0
1001
AcAecLayerStandard
1000

1000

1001
AcCmTransparency
1071
0
0
ENDTAB
0
TABLE
2
STYLE
5
214
330
0
100
AcDbSymbolTable
70
3
0
STYLE
5
266
330
214
100
AcDbSymbolTableRecord
100
AcDbTextStyleTableRecord
2
STANDARD
70
0
40
0.0
41
1.0
50
0.0
71
0
42
0.2
3
txt
4

0
STYLE
5
26A
330
214
100
AcDbSymbolTableRecord
100
AcDbTextStyleTableRecord
2
ANNOTATIVE
70
0
40
0.0
41
1.0
50
0.0
71
0
42
0.2
3
txt
4

1001
ACADANNOTATIVE
1000
AnnotativeData
1002
{
1070
1
1070
1
1002
}
0
STYLE
5
301
330
214
100
AcDbSymbolTableRecord
100
AcDbTextStyleTableRecord
2

70
1
40
0.0
41
1.0
50
0.0
71
0
42
0.2
3
ltypeshp.shx
4

0
ENDTAB
0
TABLE
2
VIEW
5
217
330
0
100
AcDbSymbolTable
70
1
0
ENDTAB
0
TABLE
2
UCS
5
218
330
0
100
AcDbSymbolTable
70
0
0
ENDTAB
0
TABLE
2
APPID
5
21A
330
0
100
AcDbSymbolTable
70
10
0
APPID
5
267
330
21A
100
AcDbSymbolTableRecord
100
AcDbRegAppTableRecord
2
ACAD
70
0
0
APPID
5
26E
330
21A
100
AcDbSymbolTableRecord
100
AcDbRegAppTableRecord
2
ACADANNOTATIVE
70
0
0
APPID
5
286
330
21A
100
AcDbSymbolTableRecord
100
AcDbRegAppTableRecord
2
ACADANNOPO
70
0
0
APPID
5
287
330
21A
100
AcDbSymbolTableRecord
100
AcDbRegAppTableRecord
2
ACAD_DSTYLE_DIMJAG
70
0
0
APPID
5
288
330
21A
100
AcDbSymbolTableRecord
100
AcDbRegAppTableRecord
2
ACAD_DSTYLE_DIMTALN
70
0
0
APPID
5
289
330
21A
100
AcDbSymbolTableRecord
100
AcDbRegAppTableRecord
2
ACAD_MLEADERVER
70
0
0
APPID
5
28A
330
21A
100
AcDbSymbolTableRecord
100
AcDbRegAppTableRecord
2
ACAD_NAV_VCDISPLAY
70
0
0
APPID
5
2E7
330
21A
100
AcDbSymbolTableRecord
100
AcDbRegAppTableRecord
2
ACAD_EXEMPT_FROM_CAD_STANDARDS
70
0
0
APPID
5
2FC
330
21A
100
AcDbSymbolTableRecord
100
AcDbRegAppTableRecord
2
AcAecLayerStandard
70
0
0
APPID
5
2FD
330
21A
100
AcDbSymbolTableRecord
100
AcDbRegAppTableRecord
2
AcCmTransparency
70
0
0
ENDTAB
0
TABLE
2
DIMSTYLE
5
21B
330
0
100
AcDbSymbolTable
70
2
100
AcDbDimStyleTable
71
1
340
268
0
DIMSTYLE
105
268
330
21B
100
AcDbSymbolTableRecord
100
AcDbDimStyleTableRecord
2
STANDARD
70
0
279
2
340
266
0
DIMSTYLE
105
269
330
21B
100
AcDbSymbolTableRecord
100
AcDbDimStyleTableRecord
2
ANNOTATIVE
70
0
40
0.0
279
2
340
266
1001
ACADANNOTATIVE
1000
AnnotativeData
1002
{
1070
1
1070
1
1002
}
0
ENDTAB
0
TABLE
2
BLOCK_RECORD
5
212
330
0
100
AcDbSymbolTable
70
2
0
BLOCK_RECORD
5
281
330
212
100
AcDbSymbolTableRecord
100
AcDbBlockTableRecord
2
*Model_Space
340
284
70
0
280
1
281
0
0
BLOCK_RECORD
5
27D
330
212
100
AcDbSymbolTableRecord
100
AcDbBlockTableRecord
2
*Paper_Space
340
280
70
0
280
1
281
0
0
BLOCK_RECORD
5
28C
330
212
100
AcDbSymbolTableRecord
100
AcDbBlockTableRecord
2
$MODEL_SPACE
340
0
70
0
280
1
281
0
0
BLOCK_RECORD
5
28E
330
212
100
AcDbSymbolTableRecord
100
AcDbBlockTableRecord
2
$PAPER_SPACE
340
0
70
0
280
1
281
0
0
ENDTAB
0
ENDSEC
0
SECTION
2
BLOCKS
0
BLOCK
5
282
330
281
100
AcDbEntity
8
0
100
AcDbBlockBegin
2
*Model_Space
70
0
10
0.0
20
0.0
30
0.0
3
*Model_Space
1

0
ENDBLK
5
283
330
281
100
AcDbEntity
8
0
100
AcDbBlockEnd
0
BLOCK
5
27E
330
27D
100
AcDbEntity
67
1
8
0
100
AcDbBlockBegin
2
*Paper_Space
70
0
10
0.0
20
0.0
30
0.0
3
*Paper_Space
1

0
ENDBLK
5
27F
330
27D
100
AcDbEntity
67
1
8
0
100
AcDbBlockEnd
0
BLOCK
5
28D
330
28C
100
AcDbEntity
8
0
100
AcDbBlockBegin
2
$MODEL_SPACE
70
0
10
0.0
20
0.0
30
0.0
3
$MODEL_SPACE
1

0
ENDBLK
5
21
330
28C
100
AcDbEntity
8
0
100
AcDbBlockEnd
0
BLOCK
5
28F
330
28E
100
AcDbEntity
8
0
100
AcDbBlockBegin
2
$PAPER_SPACE
70
0
10
0.0
20
0.0
30
0.0
3
$PAPER_SPACE
1

0
ENDBLK
5
5B
330
28E
100
AcDbEntity
8
0
100
AcDbBlockEnd
0
ENDSEC
0
SECTION
2
ENTITIES
0
LWPOLYLINE
5
2000
100
AcDbEntity
100
AcDbPolyline
66
1
90
1296
70
1
43
0
10
21.7
20
0
30
0
10
22.255801
20
0.000039
30
0
10
22.276501
20
0.000748
30
0
10
22.315964
20
0.003207
30
0
10
22.374091
20
0.008509
30
0
10
22.450733
20
0.017739
30
0
10
22.545697
20
0.031978
30
0
10
22.658739
20
0.052296
30
0
10
22.78957
20
0.079754
30
0
10
22.937856
20
0.115401
30
0
10
23.103215
20
0.160272
30
0
10
23.28522
20
0.215386
30
0
10
23.483401
20
0.281744
30
0
10
23.697243
20
0.36033
30
0
10
23.926185
20
0.452104
30
0
10
24.169629
20
0.558006
30
0
10
24.426931
20
0.678951
30
0
10
24.697407
20
0.815827
30
0
10
24.980335
20
0.969496
30
0
10
25.274951
20
1.140791
30
0
10
25.580458
20
1.330513
30
0
10
25.896018
20
1.539432
30
0
10
25.936127
20
1.566934
30
0
10
25.946176
20
1.573858
30
0
10
25.951204
20
1.577328
30
0
10
25.951833
20
1.577762
30
0
10
25.952059
20
1.578171
30
0
10
25.848654
20
2.801267
30
0
10
25.848362
20
2.801632
30
0
10
25.847669
20
2.801955
30
0
10
25.84213
20
2.804531
30
0
10
25.831061
20
2.80967
30
0
10
25.786904
20
2.830047
30
0
10
25.440748
20
2.983023
30
0
10
25.107726
20
3.118761
30
0
10
24.788533
20
3.238161
30
0
10
24.483822
20
3.342149
30
0
10
24.194205
20
3.431673
30
0
10
23.92025
20
3.507703
30
0
10
23.662482
20
3.57123
30
0
10
23.421381
20
3.623265
30
0
10
23.197381
20
3.664834
30
0
10
22.990873
20
3.696979
30
0
10
22.802198
20
3.720754
30
0
10
22.631653
20
3.737226
30
0
10
22.479487
20
3.747472
30
0
10
22.345903
20
3.752575
30
0
10
22.231054
20
3.753627
30
0
10
22.135048
20
3.75172
30
0
10
22.057943
20
3.747952
30
0
10
21.999751
20
3.743419
30
0
10
21.960436
20
3.739218
30
0
10
21.939911
20
3.736441
30
0
10
21.391992
20
3.643168
30
0
10
20.96059
20
5.616373
30
0
10
21.497443
20
5.760263
30
0
10
21.517254
20
5.766305
30
0
10
21.554736
20
5.778894
30
0
10
21.60951
20
5.79906
30
0
10
21.681152
20
5.827812
30
0
10
21.769195
20
5.866144
30
0
10
21.873126
20
5.915027
30
0
10
21.992393
20
5.975411
30
0
10
22.1264
20
6.048223
30
0
10
22.274511
20
6.134363
30
0
10
22.43605
20
6.234705
30
0
10
22.610303
20
6.350096
30
0
10
22.796518
20
6.48135
30
0
10
22.993907
20
6.629252
30
0
10
23.201646
20
6.794553
30
0
10
23.418878
20
6.977971
30
0
10
23.644712
20
7.180188
30
0
10
23.878226
20
7.401848
30
0
10
24.11847
20
7.643558
30
0
10
24.364463
20
7.905886
30
0
10
24.615198
20
8.18936
30
0
10
24.646822
20
8.226305
30
0
10
24.654737
20
8.235595
30
0
10
24.658696
20
8.240247
30
0
10
24.659191
20
8.240829
30
0
10
24.659303
20
8.241284
30
0
10
24.242861
20
9.39594
30
0
10
24.242485
20
9.396217
30
0
10
24.241732
20
9.39635
30
0
10
24.235715
20
9.397404
30
0
10
24.223693
20
9.399503
30
0
10
24.175767
20
9.407758
30
0
10
23.801813
20
9.465929
30
0
10
23.445006
20
9.510849
30
0
10
23.105786
20
9.543568
30
0
10
22.784544
20
9.565147
30
0
10
22.481625
20
9.576662
30
0
10
22.197327
20
9.579197
30
0
10
21.9319
20
9.573845
30
0
10
21.685547
20
9.561705
30
0
10
21.458421
20
9.543882
30
0
10
21.250629
20
9.521483
30
0
10
21.06223
20
9.495615
30
0
10
20.893232
20
9.467386
30
0
10
20.7436
20
9.437899
30
0
10
20.613246
20
9.408255
30
0
10
20.502039
20
9.379545
30
0
10
20.409798
20
9.352855
30
0
10
20.336296
20
9.329259
30
0
10
20.28126
20
9.30982
30
0
10
20.244371
20
9.295587
30
0
10
20.225265
20
9.287592
30
0
10
19.720156
20
9.055685
30
0
10
18.792751
20
10.85
30
0
10
19.27407
20
11.127935
30
0
10
19.291642
20
11.138898
30
0
10
19.324588
20
11.160759
30
0
10
19.372277
20
11.194414
30
0
10
19.434036
20
11.240729
30
0
10
19.509158
20
11.300542
30
0
10
19.596896
20
11.374659
30
0
10
19.69647
20
11.463854
30
0
10
19.807066
20
11.568868
30
0
10
19.927835
20
11.690407
30
0
10
20.057899
20
11.82914
30
0
10
20.19635
20
11.985698
30
0
10
20.342249
20
12.160676
30
0
10
20.494632
20
12.354627
30
0
10
20.65251
20
12.568062
30
0
10
20.814867
20
12.801454
30
0
10
20.980668
20
13.055231
30
0
10
21.148856
20
13.329776
30
0
10
21.318355
20
13.625429
30
0
10
21.48807
20
13.942487
30
0
10
21.656893
20
14.281196
30
0
10
21.677878
20
14.325068
30
0
10
21.683119
20
14.336089
30
0
10
21.685738
20
14.341608
30
0
10
21.686066
20
14.342298
30
0
10
21.686057
20
14.342766
30
0
10
20.984958
20
15.350295
30
0
10
20.984522
20
15.350466
30
0
10
20.983761
20
15.350399
30
0
10
20.977676
20
15.34986
30
0
10
20.96552
20
15.348776
30
0
10
20.917091
20
15.344345
30
0
10
20.540823
20
15.303747
30
0
10
20.184548
20
15.254789
30
0
10
19.848418
20
15.198596
30
0
10
19.532537
20
15.136297
30
0
10
19.23696
20
15.069018
30
0
10
18.961693
20
14.997885
30
0
10
18.706695
20
14.924017
30
0
10
18.471878
20
14.84853
30
0
10
18.257105
20
14.77253
30
0
10
18.06219
20
14.697114
30
0
10
17.886906
20
14.623366
30
0
10
17.730973
20
14.552359
30
0
10
17.594071
20
14.485149
30
0
10
17.475832
20
14.422777
30
0
10
17.375844
20
14.366263
30
0
10
17.293654
20
14.316609
30
0
10
17.228763
20
14.274793
30
0
10
17.180634
20
14.241772
30
0
10
17.148686
20
14.218476
30
0
10
17.1323
20
14.205809
30
0
10
16.704425
20
13.851072
30
0
10
15.344217
20
15.344217
30
0
10
15.7372
20
15.737256
30
0
10
15.751336
20
15.752393
30
0
10
15.777502
20
15.782037
30
0
10
15.814855
20
15.826888
30
0
10
15.862522
20
15.887609
30
0
10
15.919604
20
15.964827
30
0
10
15.985169
20
16.059126
30
0
10
16.058265
20
16.171054
30
0
10
16.137913
20
16.301114
30
0
10
16.223111
20
16.449769
30
0
10
16.312836
20
16.617438
30
0
10
16.406049
20
16.804496
30
0
10
16.501689
20
17.011273
30
0
10
16.598682
20
17.238054
30
0
10
16.695939
20
17.485079
30
0
10
16.792357
20
17.752539
30
0
10
16.886827
20
18.040581
30
0
10
16.978227
20
18.349301
30
0
10
17.065429
20
18.67875
30
0
10
17.147301
20
19.02893
30
0
10
17.222707
20
19.399793
30
0
10
17.231622
20
19.447601
30
0
10
17.233831
20
19.459603
30
0
10
17.234933
20
19.465612
30
0
10
17.235071
20
19.466363
30
0
10
17.234941
20
19.466813
30
0
10
16.296964
20
20.258553
30
0
10
16.296499
20
20.258605
30
0
10
16.295781
20
20.258344
30
0
10
16.290043
20
20.256248
30
0
10
16.278582
20
20.252055
30
0
10
16.232949
20
20.23524
30
0
10
15.88001
20
20.098641
30
0
10
15.548546
20
19.95914
30
0
10
15.238414
20
19.817865
30
0
10
14.94942
20
19.675933
30
0
10
14.681327
20
19.534445
30
0
10
14.433851
20
19.394491
30
0
10
14.20666
20
19.257143
30
0
10
13.999382
20
19.123453
30
0
10
13.811597
20
18.994455
30
0
10
13.642843
20
18.871161
30
0
10
13.492618
20
18.754559
30
0
10
13.360377
20
18.645613
30
0
10
13.245535
20
18.545261
30
0
10
13.147468
20
18.454411
30
0
10
13.065514
20
18.373944
30
0
10
12.998976
20
18.304709
30
0
10
12.947119
20
18.247523
30
0
10
12.909176
20
18.203171
30
0
10
12.884346
20
18.1724
30
0
10
12.871797
20
18.155923
30
0
10
12.550314
20
17.702531
30
0
10
10.85
20
18.792751
30
0
10
11.127867
20
19.274109
30
0
10
11.137603
20
19.292389
30
0
10
11.155205
20
19.327795
30
0
10
11.179677
20
19.380785
30
0
10
11.210004
20
19.451775
30
0
10
11.245155
20
19.541135
30
0
10
11.28408
20
19.649191
30
0
10
11.325716
20
19.776224
30
0
10
11.368988
20
19.922467
30
0
10
11.412808
20
20.088107
30
0
10
11.456081
20
20.273285
30
0
10
11.497703
20
20.478094
30
0
10
11.536566
20
20.702579
30
0
10
11.571559
20
20.946737
30
0
10
11.601567
20
21.210516
30
0
10
11.625477
20
21.493818
30
0
10
11.642176
20
21.796495
30
0
10
11.650559
20
22.118352
30
0
10
11.649522
20
22.459145
30
0
10
11.637971
20
22.818583
30
0
10
11.614822
20
23.196325
30
0
10
11.611059
20
23.244812
30
0
10
11.610087
20
23.256977
30
0
10
11.609596
20
23.263066
30
0
10
11.609535
20
23.263827
30
0
10
11.609293
20
23.264228
30
0
10
10.498359
20
23.786224
30
0
10
10.497896
20
23.786154
30
0
10
10.497271
20
23.785716
30
0
10
10.49227
20
23.782207
30
0
10
10.482285
20
23.77519
30
0
10
10.442559
20
23.747138
30
0
10
10.137001
20
23.523845
30
0
10
9.852937
20
23.303309
30
0
10
9.589936
20
23.08658
30
0
10
9.347525
20
22.874686
30
0
10
9.125187
20
22.668632
30
0
10
8.922365
20
22.469396
30
0
10
8.738465
20
22.277926
30
0
10
8.572851
20
22.095144
30
0
10
8.424851
20
21.921939
30
0
10
8.293759
20
21.759169
30
0
10
8.178831
20
21.607659
30
0
10
8.079294
20
21.468199
30
0
10
7.994337
20
21.341543
30
0
10
7.923126
20
21.228407
30
0
10
7.864791
20
21.129471
30
0
10
7.818439
20
21.045374
30
0
10
7.78315
20
20.976715
30
0
10
7.757979
20
20.924053
30
0
10
7.74196
20
20.887904
30
0
10
7.734102
20
20.868741
30
0
10
7.54092
20
20.347593
30
0
10
5.616373
20
20.96059
30
0
10
5.760187
20
21.497464
30
0
10
5.76486
20
21.517641
30
0
10
5.772699
20
21.556396
30
0
10
5.782622
20
21.613914
30
0
10
5.793543
20
21.690334
30
0
10
5.804368
20
21.785747
30
0
10
5.814
20
21.900196
30
0
10
5.821339
20
22.033676
30
0
10
5.825285
20
22.186136
30
0
10
5.824741
20
22.357473
30
0
10
5.818612
20
22.547542
30
0
10
5.805807
20
22.756145
30
0
10
5.785246
20
22.983039
30
0
10
5.755853
20
23.227934
30
0
10
5.716567
20
23.490492
30
0
10
5.666339
20
23.770329
30
0
10
5.604131
20
24.067015
30
0
10
5.528925
20
24.380074
30
0
10
5.43972
20
24.708987
30
0
10
5.335533
20
25.053187
30
0
10
5.215405
20
25.412067
30
0
10
5.199222
20
25.457927
30
0
10
5.195134
20
25.469426
30
0
10
5.193084
20
25.475181
30
0
10
5.192828
20
25.4759
30
0
10
5.192491
20
25.476225
30
0
10
3.984308
20
25.692903
30
0
10
3.983879
20
25.692716
30
0
10
3.983389
20
25.692131
30
0
10
3.979467
20
25.687447
30
0
10
3.971638
20
25.678085
30
0
10
3.940526
20
25.640707
30
0
10
3.703172
20
25.345939
30
0
10
3.485866
20
25.059396
30
0
10
3.287921
20
24.781982
30
0
10
3.108611
20
24.514568
30
0
10
2.94718
20
24.257989
30
0
10
2.802836
20
24.013048
30
0
10
2.674757
20
23.780505
30
0
10
2.562094
20
23.561087
30
0
10
2.463966
20
23.355479
30
0
10
2.379469
20
23.164326
30
0
10
2.307671
20
22.988234
30
0
10
2.247619
20
22.827763
30
0
10
2.198339
20
22.683434
30
0
10
2.158836
20
22.555722
30
0
10
2.128095
20
22.445059
30
0
10
2.105089
20
22.351831
30
0
10
2.088772
20
22.276378
30
0
10
2.078089
20
22.218996
30
0
10
2.071971
20
22.179933
30
0
10
2.069342
20
22.159389
30
0
10
2.017625
20
21.605999
30
0
10
0
20
21.7
30
0
10
-0.000039
20
22.255801
30
0
10
-0.000748
20
22.276501
30
0
10
-0.003207
20
22.315964
30
0
10
-0.008509
20
22.374091
30
0
10
-0.017739
20
22.450733
30
0
10
-0.031978
20
22.545697
30
0
10
-0.052296
20
22.658739
30
0
10
-0.079754
20
22.78957
30
0
10
-0.115401
20
22.937856
30
0
10
-0.160272
20
23.103215
30
0
10
-0.215386
20
23.28522
30
0
10
-0.281744
20
23.483401
30
0
10
-0.36033
20
23.697243
30
0
10
-0.452104
20
23.926185
30
0
10
-0.558006
20
24.169629
30
0
10
-0.678951
20
24.426931
30
0
10
-0.815827
20
24.697407
30
0
10
-0.969496
20
24.980335
30
0
10
-1.140791
20
25.274951
30
0
10
-1.330513
20
25.580458
30
0
10
-1.539432
20
25.896018
30
0
10
-1.566934
20
25.936127
30
0
10
-1.573858
20
25.946176
30
0
10
-1.577328
20
25.951204
30
0
10
-1.577762
20
25.951833
30
0
10
-1.578171
20
25.952059
30
0
10
-2.801267
20
25.848654
30
0
10
-2.801632
20
25.848362
30
0
10
-2.801955
20
25.847669
30
0
10
-2.804531
20
25.84213
30
0
10
-2.80967
20
25.831061
30
0
10
-2.830047
20
25.786904
30
0
10
-2.983023
20
25.440748
30
0
10
-3.118761
20
25.107726
30
0
10
-3.238161
20
24.788533
30
0
10
-3.342149
20
24.483822
30
0
10
-3.431673
20
24.194205
30
0
10
-3.507703
20
23.92025
30
0
10
-3.57123
20
23.662482
30
0
10
-3.623265
20
23.421381
30
0
10
-3.664834
20
23.197381
30
0
10
-3.696979
20
22.990873
30
0
10
-3.720754
20
22.802198
30
0
10
-3.737226
20
22.631653
30
0
10
-3.747472
20
22.479487
30
0
10
-3.752575
20
22.345903
30
0
10
-3.753627
20
22.231054
30
0
10
-3.75172
20
22.135048
30
0
10
-3.747952
20
22.057943
30
0
10
-3.743419
20
21.999751
30
0
10
-3.739218
20
21.960436
30
0
10
-3.736441
20
21.939911
30
0
10
-3.643168
20
21.391992
30
0
10
-5.616373
20
20.96059
30
0
10
-5.760263
20
21.497443
30
0
10
-5.766305
20
21.517254
30
0
10
-5.778894
20
21.554736
30
0
10
-5.79906
20
21.60951
30
0
10
-5.827812
20
21.681152
30
0
10
-5.866144
20
21.769195
30
0
10
-5.915027
20
21.873126
30
0
10
-5.975411
20
21.992393
30
0
10
-6.048223
20
22.1264
30
0
10
-6.134363
20
22.274511
30
0
10
-6.234705
20
22.43605
30
0
10
-6.350096
20
22.610303
30
0
10
-6.48135
20
22.796518
30
0
10
-6.629252
20
22.993907
30
0
10
-6.794553
20
23.201646
30
0
10
-6.977971
20
23.418878
30
0
10
-7.180188
20
23.644712
30
0
10
-7.401848
20
23.878226
30
0
10
-7.643558
20
24.11847
30
0
10
-7.905886
20
24.364463
30
0
10
-8.18936
20
24.615198
30
0
10
-8.226305
20
24.646822
30
0
10
-8.235595
20
24.654737
30
0
10
-8.240247
20
24.658696
30
0
10
-8.240829
20
24.659191
30
0
10
-8.241284
20
24.659303
30
0
10
-9.39594
20
24.242861
30
0
10
-9.396217
20
24.242485
30
0
10
-9.39635
20
24.241732
30
0
10
-9.397404
20
24.235715
30
0
10
-9.399503
20
24.223693
30
0
10
-9.407758
20
24.175767
30
0
10
-9.465929
20
23.801813
30
0
10
-9.510849
20
23.445006
30
0
10
-9.543568
20
23.105786
30
0
10
-9.565147
20
22.784544
30
0
10
-9.576662
20
22.481625
30
0
10
-9.579197
20
22.197327
30
0
10
-9.573845
20
21.9319
30
0
10
-9.561705
20
21.685547
30
0
10
-9.543882
20
21.458421
30
0
10
-9.521483
20
21.250629
30
0
10
-9.495615
20
21.06223
30
0
10
-9.467386
20
20.893232
30
0
10
-9.437899
20
20.7436
30
0
10
-9.408255
20
20.613246
30
0
10
-9.379545
20
20.502039
30
0
10
-9.352855
20
20.409798
30
0
10
-9.329259
20
20.336296
30
0
10
-9.30982
20
20.28126
30
0
10
-9.295587
20
20.244371
30
0
10
-9.287592
20
20.225265
30
0
10
-9.055685
20
19.720156
30
0
10
-10.85
20
18.792751
30
0
10
-11.127935
20
19.27407
30
0
10
-11.138898
20
19.291642
30
0
10
-11.160759
20
19.324588
30
0
10
-11.194414
20
19.372277
30
0
10
-11.240729
20
19.434036
30
0
10
-11.300542
20
19.509158
30
0
10
-11.374659
20
19.596896
30
0
10
-11.463854
20
19.69647
30
0
10
-11.568868
20
19.807066
30
0
10
-11.690407
20
19.927835
30
0
10
-11.82914
20
20.057899
30
0
10
-11.985698
20
20.19635
30
0
10
-12.160676
20
20.342249
30
0
10
-12.354627
20
20.494632
30
0
10
-12.568062
20
20.65251
30
0
10
-12.801454
20
20.814867
30
0
10
-13.055231
20
20.980668
30
0
10
-13.329776
20
21.148856
30
0
10
-13.625429
20
21.318355
30
0
10
-13.942487
20
21.48807
30
0
10
-14.281196
20
21.656893
30
0
10
-14.325068
20
21.677878
30
0
10
-14.336089
20
21.683119
30
0
10
-14.341608
20
21.685738
30
0
10
-14.342298
20
21.686066
30
0
10
-14.342766
20
21.686057
30
0
10
-15.350295
20
20.984958
30
0
10
-15.350466
20
20.984522
30
0
10
-15.350399
20
20.983761
30
0
10
-15.34986
20
20.977676
30
0
10
-15.348776
20
20.96552
30
0
10
-15.344345
20
20.917091
30
0
10
-15.303747
20
20.540823
30
0
10
-15.254789
20
20.184548
30
0
10
-15.198596
20
19.848418
30
0
10
-15.136297
20
19.532537
30
0
10
-15.069018
20
19.23696
30
0
10
-14.997885
20
18.961693
30
0
10
-14.924017
20
18.706695
30
0
10
-14.84853
20
18.471878
30
0
10
-14.77253
20
18.257105
30
0
10
-14.697114
20
18.06219
30
0
10
-14.623366
20
17.886906
30
0
10
-14.552359
20
17.730973
30
0
10
-14.485149
20
17.594071
30
0
10
-14.422777
20
17.475832
30
0
10
-14.366263
20
17.375844
30
0
10
-14.316609
20
17.293654
30
0
10
-14.274793
20
17.228763
30
0
10
-14.241772
20
17.180634
30
0
10
-14.218476
20
17.148686
30
0
10
-14.205809
20
17.1323
30
0
10
-13.851072
20
16.704425
30
0
10
-15.344217
20
15.344217
30
0
10
-15.737256
20
15.7372
30
0
10
-15.752393
20
15.751336
30
0
10
-15.782037
20
15.777502
30
0
10
-15.826888
20
15.814855
30
0
10
-15.887609
20
15.862522
30
0
10
-15.964827
20
15.919604
30
0
10
-16.059126
20
15.985169
30
0
10
-16.171054
20
16.058265
30
0
10
-16.301114
20
16.137913
30
0
10
-16.449769
20
16.223111
30
0
10
-16.617438
20
16.312836
30
0
10
-16.804496
20
16.406049
30
0
10
-17.011273
20
16.501689
30
0
10
-17.238054
20
16.598682
30
0
10
-17.485079
20
16.695939
30
0
10
-17.752539
20
16.792357
30
0
10
-18.040581
20
16.886827
30
0
10
-18.349301
20
16.978227
30
0
10
-18.67875
20
17.065429
30
0
10
-19.02893
20
17.147301
30
0
10
-19.399793
20
17.222707
30
0
10
-19.447601
20
17.231622
30
0
10
-19.459603
20
17.233831
30
0
10
-19.465612
20
17.234933
30
0
10
-19.466363
20
17.235071
30
0
10
-19.466813
20
17.234941
30
0
10
-20.258553
20
16.296964
30
0
10
-20.258605
20
16.296499
30
0
10
-20.258344
20
16.295781
30
0
10
-20.256248
20
16.290043
30
0
10
-20.252055
20
16.278582
30
0
10
-20.23524
20
16.232949
30
0
10
-20.098641
20
15.88001
30
0
10
-19.95914
20
15.548546
30
0
10
-19.817865
20
15.238414
30
0
10
-19.675933
20
14.94942
30
0
10
-19.534445
20
14.681327
30
0
10
-19.394491
20
14.433851
30
0
10
-19.257143
20
14.20666
30
0
10
-19.123453
20
13.999382
30
0
10
-18.994455
20
13.811597
30
0
10
-18.871161
20
13.642843
30
0
10
-18.754559
20
13.492618
30
0
10
-18.645613
20
13.360377
30
0
10
-18.545261
20
13.245535
30
0
10
-18.454411
20
13.147468
30
0
10
-18.373944
20
13.065514
30
0
10
-18.304709
20
12.998976
30
0
10
-18.247523
20
12.947119
30
0
10
-18.203171
20
12.909176
30
0
10
-18.1724
20
12.884346
30
0
10
-18.155923
20
12.871797
30
0
10
-17.702531
20
12.550314
30
0
10
-18.792751
20
10.85
30
0
10
-19.274109
20
11.127867
30
0
10
-19.292389
20
11.137603
30
0
10
-19.327795
20
11.155205
30
0
10
-19.380785
20
11.179677
30
0
10
-19.451775
20
11.210004
30
0
10
-19.541135
20
11.245155
30
0
10
-19.649191
20
11.28408
30
0
10
-19.776224
20
11.325716
30
0
10
-19.922467
20
11.368988
30
0
10
-20.088107
20
11.412808
30
0
10
-20.273285
20
11.456081
30
0
10
-20.478094
20
11.497703
30
0
10
-20.702579
20
11.536566
30
0
10
-20.946737
20
11.571559
30
0
10
-21.210516
20
11.601567
30
0
10
-21.493818
20
11.625477
30
0
10
-21.796495
20
11.642176
30
0
10
-22.118352
20
11.650559
30
0
10
-22.459145
20
11.649522
30
0
10
-22.818583
20
11.637971
30
0
10
-23.196325
20
11.614822
30
0
10
-23.244812
20
11.611059
30
0
10
-23.256977
20
11.610087
30
0
10
-23.263066
20
11.609596
30
0
10
-23.263827
20
11.609535
30
0
10
-23.264228
20
11.609293
30
0
10
-23.786224
20
10.498359
30
0
10
-23.786154
20
10.497896
30
0
10
-23.785716
20
10.497271
30
0
10
-23.782207
20
10.49227
30
0
10
-23.77519
20
10.482285
30
0
10
-23.747138
20
10.442559
30
0
10
-23.523845
20
10.137001
30
0
10
-23.303309
20
9.852937
30
0
10
-23.08658
20
9.589936
30
0
10
-22.874686
20
9.347525
30
0
10
-22.668632
20
9.125187
30
0
10
-22.469396
20
8.922365
30
0
10
-22.277926
20
8.738465
30
0
10
-22.095144
20
8.572851
30
0
10
-21.921939
20
8.424851
30
0
10
-21.759169
20
8.293759
30
0
10
-21.607659
20
8.178831
30
0
10
-21.468199
20
8.079294
30
0
10
-21.341543
20
7.994337
30
0
10
-21.228407
20
7.923126
30
0
10
-21.129471
20
7.864791
30
0
10
-21.045374
20
7.818439
30
0
10
-20.976715
20
7.78315
30
0
10
-20.924053
20
7.757979
30
0
10
-20.887904
20
7.74196
30
0
10
-20.868741
20
7.734102
30
0
10
-20.347593
20
7.54092
30
0
10
-20.96059
20
5.616373
30
0
10
-21.497464
20
5.760187
30
0
10
-21.517641
20
5.76486
30
0
10
-21.556396
20
5.772699
30
0
10
-21.613914
20
5.782622
30
0
10
-21.690334
20
5.793543
30
0
10
-21.785747
20
5.804368
30
0
10
-21.900196
20
5.814
30
0
10
-22.033676
20
5.821339
30
0
10
-22.186136
20
5.825285
30
0
10
-22.357473
20
5.824741
30
0
10
-22.547542
20
5.818612
30
0
10
-22.756145
20
5.805807
30
0
10
-22.983039
20
5.785246
30
0
10
-23.227934
20
5.755853
30
0
10
-23.490492
20
5.716567
30
0
10
-23.770329
20
5.666339
30
0
10
-24.067015
20
5.604131
30
0
10
-24.380074
20
5.528925
30
0
10
-24.708987
20
5.43972
30
0
10
-25.053187
20
5.335533
30
0
10
-25.412067
20
5.215405
30
0
10
-25.457927
20
5.199222
30
0
10
-25.469426
20
5.195134
30
0
10
-25.475181
20
5.193084
30
0
10
-25.4759
20
5.192828
30
0
10
-25.476225
20
5.192491
30
0
10
-25.692903
20
3.984308
30
0
10
-25.692716
20
3.983879
30
0
10
-25.692131
20
3.983389
30
0
10
-25.687447
20
3.979467
30
0
10
-25.678085
20
3.971638
30
0
10
-25.640707
20
3.940526
30
0
10
-25.345939
20
3.703172
30
0
10
-25.059396
20
3.485866
30
0
10
-24.781982
20
3.287921
30
0
10
-24.514568
20
3.108611
30
0
10
-24.257989
20
2.94718
30
0
10
-24.013048
20
2.802836
30
0
10
-23.780505
20
2.674757
30
0
10
-23.561087
20
2.562094
30
0
10
-23.355479
20
2.463966
30
0
10
-23.164326
20
2.379469
30
0
10
-22.988234
20
2.307671
30
0
10
-22.827763
20
2.247619
30
0
10
-22.683434
20
2.198339
30
0
10
-22.555722
20
2.158836
30
0
10
-22.445059
20
2.128095
30
0
10
-22.351831
20
2.105089
30
0
10
-22.276378
20
2.088772
30
0
10
-22.218996
20
2.078089
30
0
10
-22.179933
20
2.071971
30
0
10
-22.159389
20
2.069342
30
0
10
-21.605999
20
2.017625
30
0
10
-21.7
20
0
30
0
10
-22.255801
20
-0.000039
30
0
10
-22.276501
20
-0.000748
30
0
10
-22.315964
20
-0.003207
30
0
10
-22.374091
20
-0.008509
30
0
10
-22.450733
20
-0.017739
30
0
10
-22.545697
20
-0.031978
30
0
10
-22.658739
20
-0.052296
30
0
10
-22.78957
20
-0.079754
30
0
10
-22.937856
20
-0.115401
30
0
10
-23.103215
20
-0.160272
30
0
10
-23.28522
20
-0.215386
30
0
10
-23.483401
20
-0.281744
30
0
10
-23.697243
20
-0.36033
30
0
10
-23.926185
20
-0.452104
30
0
10
-24.169629
20
-0.558006
30
0
10
-24.426931
20
-0.678951
30
0
10
-24.697407
20
-0.815827
30
0
10
-24.980335
20
-0.969496
30
0
10
-25.274951
20
-1.140791
30
0
10
-25.580458
20
-1.330513
30
0
10
-25.896018
20
-1.539432
30
0
10
-25.936127
20
-1.566934
30
0
10
-25.946176
20
-1.573858
30
0
10
-25.951204
20
-1.577328
30
0
10
-25.951833
20
-1.577762
30
0
10
-25.952059
20
-1.578171
30
0
10
-25.848654
20
-2.801267
30
0
10
-25.848362
20
-2.801632
30
0
10
-25.847669
20
-2.801955
30
0
10
-25.84213
20
-2.804531
30
0
10
-25.831061
20
-2.80967
30
0
10
-25.786904
20
-2.830047
30
0
10
-25.440748
20
-2.983023
30
0
10
-25.107726
20
-3.118761
30
0
10
-24.788533
20
-3.238161
30
0
10
-24.483822
20
-3.342149
30
0
10
-24.194205
20
-3.431673
30
0
10
-23.92025
20
-3.507703
30
0
10
-23.662482
20
-3.57123
30
0
10
-23.421381
20
-3.623265
30
0
10
-23.197381
20
-3.664834
30
0
10
-22.990873
20
-3.696979
30
0
10
-22.802198
20
-3.720754
30
0
10
-22.631653
20
-3.737226
30
0
10
-22.479487
20
-3.747472
30
0
10
-22.345903
20
-3.752575
30
0
10
-22.231054
20
-3.753627
30
0
10
-22.135048
20
-3.75172
30
0
10
-22.057943
20
-3.747952
30
0
10
-21.999751
20
-3.743419
30
0
10
-21.960436
20
-3.739218
30
0
10
-21.939911
20
-3.736441
30
0
10
-21.391992
20
-3.643168
30
0
10
-20.96059
20
-5.616373
30
0
10
-21.497443
20
-5.760263
30
0
10
-21.517254
20
-5.766305
30
0
10
-21.554736
20
-5.778894
30
0
10
-21.60951
20
-5.79906
30
0
10
-21.681152
20
-5.827812
30
0
10
-21.769195
20
-5.866144
30
0
10
-21.873126
20
-5.915027
30
0
10
-21.992393
20
-5.975411
30
0
10
-22.1264
20
-6.048223
30
0
10
-22.274511
20
-6.134363
30
0
10
-22.43605
20
-6.234705
30
0
10
-22.610303
20
-6.350096
30
0
10
-22.796518
20
-6.48135
30
0
10
-22.993907
20
-6.629252
30
0
10
-23.201646
20
-6.794553
30
0
10
-23.418878
20
-6.977971
30
0
10
-23.644712
20
-7.180188
30
0
10
-23.878226
20
-7.401848
30
0
10
-24.11847
20
-7.643558
30
0
10
-24.364463
20
-7.905886
30
0
10
-24.615198
20
-8.18936
30
0
10
-24.646822
20
-8.226305
30
0
10
-24.654737
20
-8.235595
30
0
10
-24.658696
20
-8.240247
30
0
10
-24.659191
20
-8.240829
30
0
10
-24.659303
20
-8.241284
30
0
10
-24.242861
20
-9.39594
30
0
10
-24.242485
20
-9.396217
30
0
10
-24.241732
20
-9.39635
30
0
10
-24.235715
20
-9.397404
30
0
10
-24.223693
20
-9.399503
30
0
10
-24.175767
20
-9.407758
30
0
10
-23.801813
20
-9.465929
30
0
10
-23.445006
20
-9.510849
30
0
10
-23.105786
20
-9.543568
30
0
10
-22.784544
20
-9.565147
30
0
10
-22.481625
20
-9.576662
30
0
10
-22.197327
20
-9.579197
30
0
10
-21.9319
20
-9.573845
30
0
10
-21.685547
20
-9.561705
30
0
10
-21.458421
20
-9.543882
30
0
10
-21.250629
20
-9.521483
30
0
10
-21.06223
20
-9.495615
30
0
10
-20.893232
20
-9.467386
30
0
10
-20.7436
20
-9.437899
30
0
10
-20.613246
20
-9.408255
30
0
10
-20.502039
20
-9.379545
30
0
10
-20.409798
20
-9.352855
30
0
10
-20.336296
20
-9.329259
30
0
10
-20.28126
20
-9.30982
30
0
10
-20.244371
20
-9.295587
30
0
10
-20.225265
20
-9.287592
30
0
10
-19.720156
20
-9.055685
30
0
10
-18.792751
20
-10.85
30
0
10
-19.27407
20
-11.127935
30
0
10
-19.291642
20
-11.138898
30
0
10
-19.324588
20
-11.160759
30
0
10
-19.372277
20
-11.194414
30
0
10
-19.434036
20
-11.240729
30
0
10
-19.509158
20
-11.300542
30
0
10
-19.596896
20
-11.374659
30
0
10
-19.69647
20
-11.463854
30
0
10
-19.807066
20
-11.568868
30
0
10
-19.927835
20
-11.690407
30
0
10
-20.057899
20
-11.82914
30
0
10
-20.19635
20
-11.985698
30
0
10
-20.342249
20
-12.160676
30
0
10
-20.494632
20
-12.354627
30
0
10
-20.65251
20
-12.568062
30
0
10
-20.814867
20
-12.801454
30
0
10
-20.980668
20
-13.055231
30
0
10
-21.148856
20
-13.329776
30
0
10
-21.318355
20
-13.625429
30
0
10
-21.48807
20
-13.942487
30
0
10
-21.656893
20
-14.281196
30
0
10
-21.677878
20
-14.325068
30
0
10
-21.683119
20
-14.336089
30
0
10
-21.685738
20
-14.341608
30
0
10
-21.686066
20
-14.342298
30
0
10
-21.686057
20
-14.342766
30
0
10
-20.984958
20
-15.350295
30
0
10
-20.984522
20
-15.350466
30
0
10
-20.983761
20
-15.350399
30
0
10
-20.977676
20
-15.34986
30
0
10
-20.96552
20
-15.348776
30
0
10
-20.917091
20
-15.344345
30
0
10
-20.540823
20
-15.303747
30
0
10
-20.184548
20
-15.254789
30
0
10
-19.848418
20
-15.198596
30
0
10
-19.532537
20
-15.136297
30
0
10
-19.23696
20
-15.069018
30
0
10
-18.961693
20
-14.997885
30
0
10
-18.706695
20
-14.924017
30
0
10
-18.471878
20
-14.84853
30
0
10
-18.257105
20
-14.77253
30
0
10
-18.06219
20
-14.697114
30
0
10
-17.886906
20
-14.623366
30
0
10
-17.730973
20
-14.552359
30
0
10
-17.594071
20
-14.485149
30
0
10
-17.475832
20
-14.422777
30
0
10
-17.375844
20
-14.366263
30
0
10
-17.293654
20
-14.316609
30
0
10
-17.228763
20
-14.274793
30
0
10
-17.180634
20
-14.241772
30
0
10
-17.148686
20
-14.218476
30
0
10
-17.1323
20
-14.205809
30
0
10
-16.704425
20
-13.851072
30
0
10
-15.344217
20
-15.344217
30
0
10
-15.7372
20
-15.737256
30
0
10
-15.751336
20
-15.752393
30
0
10
-15.777502
20
-15.782037
30
0
10
-15.814855
20
-15.826888
30
0
10
-15.862522
20
-15.887609
30
0
10
-15.919604
20
-15.964827
30
0
10
-15.985169
20
-16.059126
30
0
10
-16.058265
20
-16.171054
30
0
10
-16.137913
20
-16.301114
30
0
10
-16.223111
20
-16.449769
30
0
10
-16.312836
20
-16.617438
30
0
10
-16.406049
20
-16.804496
30
0
10
-16.501689
20
-17.011273
30
0
10
-16.598682
20
-17.238054
30
0
10
-16.695939
20
-17.485079
30
0
10
-16.792357
20
-17.752539
30
0
10
-16.886827
20
-18.040581
30
0
10
-16.978227
20
-18.349301
30
0
10
-17.065429
20
-18.67875
30
0
10
-17.147301
20
-19.02893
30
0
10
-17.222707
20
-19.399793
30
0
10
-17.231622
20
-19.447601
30
0
10
-17.233831
20
-19.459603
30
0
10
-17.234933
20
-19.465612
30
0
10
-17.235071
20
-19.466363
30
0
10
-17.234941
20
-19.466813
30
0
10
-16.296964
20
-20.258553
30
0
10
-16.296499
20
-20.258605
30
0
10
-16.295781
20
-20.258344
30
0
10
-16.290043
20
-20.256248
30
0
10
-16.278582
20
-20.252055
30
0
10
-16.232949
20
-20.23524
30
0
10
-15.88001
20
-20.098641
30
0
10
-15.548546
20
-19.95914
30
0
10
-15.238414
20
-19.817865
30
0
10
-14.94942
20
-19.675933
30
0
10
-14.681327
20
-19.534445
30
0
10
-14.433851
20
-19.394491
30
0
10
-14.20666
20
-19.257143
30
0
10
-13.999382
20
-19.123453
30
0
10
-13.811597
20
-18.994455
30
0
10
-13.642843
20
-18.871161
30
0
10
-13.492618
20
-18.754559
30
0
10
-13.360377
20
-18.645613
30
0
10
-13.245535
20
-18.545261
30
0
10
-13.147468
20
-18.454411
30
0
10
-13.065514
20
-18.373944
30
0
10
-12.998976
20
-18.304709
30
0
10
-12.947119
20
-18.247523
30
0
10
-12.909176
20
-18.203171
30
0
10
-12.884346
20
-18.1724
30
0
10
-12.871797
20
-18.155923
30
0
10
-12.550314
20
-17.702531
30
0
10
-10.85
20
-18.792751
30
0
10
-11.127867
20
-19.274109
30
0
10
-11.137603
20
-19.292389
30
0
10
-11.155205
20
-19.327795
30
0
10
-11.179677
20
-19.380785
30
0
10
-11.210004
20
-19.451775
30
0
10
-11.245155
20
-19.541135
30
0
10
-11.28408
20
-19.649191
30
0
10
-11.325716
20
-19.776224
30
0
10
-11.368988
20
-19.922467
30
0
10
-11.412808
20
-20.088107
30
0
10
-11.456081
20
-20.273285
30
0
10
-11.497703
20
-20.478094
30
0
10
-11.536566
20
-20.702579
30
0
10
-11.571559
20
-20.946737
30
0
10
-11.601567
20
-21.210516
30
0
10
-11.625477
20
-21.493818
30
0
10
-11.642176
20
-21.796495
30
0
10
-11.650559
20
-22.118352
30
0
10
-11.649522
20
-22.459145
30
0
10
-11.637971
20
-22.818583
30
0
10
-11.614822
20
-23.196325
30
0
10
-11.611059
20
-23.244812
30
0
10
-11.610087
20
-23.256977
30
0
10
-11.609596
20
-23.263066
30
0
10
-11.609535
20
-23.263827
30
0
10
-11.609293
20
-23.264228
30
0
10
-10.498359
20
-23.786224
30
0
10
-10.497896
20
-23.786154
30
0
10
-10.497271
20
-23.785716
30
0
10
-10.49227
20
-23.782207
30
0
10
-10.482285
20
-23.77519
30
0
10
-10.442559
20
-23.747138
30
0
10
-10.137001
20
-23.523845
30
0
10
-9.852937
20
-23.303309
30
0
10
-9.589936
20
-23.08658
30
0
10
-9.347525
20
-22.874686
30
0
10
-9.125187
20
-22.668632
30
0
10
-8.922365
20
-22.469396
30
0
10
-8.738465
20
-22.277926
30
0
10
-8.572851
20
-22.095144
30
0
10
-8.424851
20
-21.921939
30
0
10
-8.293759
20
-21.759169
30
0
10
-8.178831
20
-21.607659
30
0
10
-8.079294
20
-21.468199
30
0
10
-7.994337
20
-21.341543
30
0
10
-7.923126
20
-21.228407
30
0
10
-7.864791
20
-21.129471
30
0
10
-7.818439
20
-21.045374
30
0
10
-7.78315
20
-20.976715
30
0
10
-7.757979
20
-20.924053
30
0
10
-7.74196
20
-20.887904
30
0
10
-7.734102
20
-20.868741
30
0
10
-7.54092
20
-20.347593
30
0
10
-5.616373
20
-20.96059
30
0
10
-5.760187
20
-21.497464
30
0
10
-5.76486
20
-21.517641
30
0
10
-5.772699
20
-21.556396
30
0
10
-5.782622
20
-21.613914
30
0
10
-5.793543
20
-21.690334
30
0
10
-5.804368
20
-21.785747
30
0
10
-5.814
20
-21.900196
30
0
10
-5.821339
20
-22.033676
30
0
10
-5.825285
20
-22.186136
30
0
10
-5.824741
20
-22.357473
30
0
10
-5.818612
20
-22.547542
30
0
10
-5.805807
20
-22.756145
30
0
10
-5.785246
20
-22.983039
30
0
10
-5.755853
20
-23.227934
30
0
10
-5.716567
20
-23.490492
30
0
10
-5.666339
20
-23.770329
30
0
10
-5.604131
20
-24.067015
30
0
10
-5.528925
20
-24.380074
30
0
10
-5.43972
20
-24.708987
30
0
10
-5.335533
20
-25.053187
30
0
10
-5.215405
20
-25.412067
30
0
10
-5.199222
20
-25.457927
30
0
10
-5.195134
20
-25.469426
30
0
10
-5.193084
20
-25.475181
30
0
10
-5.192828
20
-25.4759
30
0
10
-5.192491
20
-25.476225
30
0
10
-3.984308
20
-25.692903
30
0
10
-3.983879
20
-25.692716
30
0
10
-3.983389
20
-25.692131
30
0
10
-3.979467
20
-25.687447
30
0
10
-3.971638
20
-25.678085
30
0
10
-3.940526
20
-25.640707
30
0
10
-3.703172
20
-25.345939
30
0
10
-3.485866
20
-25.059396
30
0
10
-3.287921
20
-24.781982
30
0
10
-3.108611
20
-24.514568
30
0
10
-2.94718
20
-24.257989
30
0
10
-2.802836
20
-24.013048
30
0
10
-2.674757
20
-23.780505
30
0
10
-2.562094
20
-23.561087
30
0
10
-2.463966
20
-23.355479
30
0
10
-2.379469
20
-23.164326
30
0
10
-2.307671
20
-22.988234
30
0
10
-2.247619
20
-22.827763
30
0
10
-2.198339
20
-22.683434
30
0
10
-2.158836
20
-22.555722
30
0
10
-2.128095
20
-22.445059
30
0
10
-2.105089
20
-22.351831
30
0
10
-2.088772
20
-22.276378
30
0
10
-2.078089
20
-22.218996
30
0
10
-2.071971
20
-22.179933
30
0
10
-2.069342
20
-22.159389
30
0
10
-2.017625
20
-21.605999
30
0
10
0
20
-21.7
30
0
10
0.000039
20
-22.255801
30
0
10
0.000748
20
-22.276501
30
0
10
0.003207
20
-22.315964
30
0
10
0.008509
20
-22.374091
30
0
10
0.017739
20
-22.450733
30
0
10
0.031978
20
-22.545697
30
0
10
0.052296
20
-22.658739
30
0
10
0.079754
20
-22.78957
30
0
10
0.115401
20
-22.937856
30
0
10
0.160272
20
-23.103215
30
0
10
0.215386
20
-23.28522
30
0
10
0.281744
20
-23.483401
30
0
10
0.36033
20
-23.697243
30
0
10
0.452104
20
-23.926185
30
0
10
0.558006
20
-24.169629
30
0
10
0.678951
20
-24.426931
30
0
10
0.815827
20
-24.697407
30
0
10
0.969496
20
-24.980335
30
0
10
1.140791
20
-25.274951
30
0
10
1.330513
20
-25.580458
30
0
10
1.539432
20
-25.896018
30
0
10
1.566934
20
-25.936127
30
0
10
1.573858
20
-25.946176
30
0
10
1.577328
20
-25.951204
30
0
10
1.577762
20
-25.951833
30
0
10
1.578171
20
-25.952059
30
0
10
2.801267
20
-25.848654
30
0
10
2.801632
20
-25.848362
30
0
10
2.801955
20
-25.847669
30
0
10
2.804531
20
-25.84213
30
0
10
2.80967
20
-25.831061
30
0
10
2.830047
20
-25.786904
30
0
10
2.983023
20
-25.440748
30
0
10
3.118761
20
-25.107726
30
0
10
3.238161
20
-24.788533
30
0
10
3.342149
20
-24.483822
30
0
10
3.431673
20
-24.194205
30
0
10
3.507703
20
-23.92025
30
0
10
3.57123
20
-23.662482
30
0
10
3.623265
20
-23.421381
30
0
10
3.664834
20
-23.197381
30
0
10
3.696979
20
-22.990873
30
0
10
3.720754
20
-22.802198
30
0
10
3.737226
20
-22.631653
30
0
10
3.747472
20
-22.479487
30
0
10
3.752575
20
-22.345903
30
0
10
3.753627
20
-22.231054
30
0
10
3.75172
20
-22.135048
30
0
10
3.747952
20
-22.057943
30
0
10
3.743419
20
-21.999751
30
0
10
3.739218
20
-21.960436
30
0
10
3.736441
20
-21.939911
30
0
10
3.643168
20
-21.391992
30
0
10
5.616373
20
-20.96059
30
0
10
5.760263
20
-21.497443
30
0
10
5.766305
20
-21.517254
30
0
10
5.778894
20
-21.554736
30
0
10
5.79906
20
-21.60951
30
0
10
5.827812
20
-21.681152
30
0
10
5.866144
20
-21.769195
30
0
10
5.915027
20
-21.873126
30
0
10
5.975411
20
-21.992393
30
0
10
6.048223
20
-22.1264
30
0
10
6.134363
20
-22.274511
30
0
10
6.234705
20
-22.43605
30
0
10
6.350096
20
-22.610303
30
0
10
6.48135
20
-22.796518
30
0
10
6.629252
20
-22.993907
30
0
10
6.794553
20
-23.201646
30
0
10
6.977971
20
-23.418878
30
0
10
7.180188
20
-23.644712
30
0
10
7.401848
20
-23.878226
30
0
10
7.643558
20
-24.11847
30
0
10
7.905886
20
-24.364463
30
0
10
8.18936
20
-24.615198
30
0
10
8.226305
20
-24.646822
30
0
10
8.235595
20
-24.654737
30
0
10
8.240247
20
-24.658696
30
0
10
8.240829
20
-24.659191
30
0
10
8.241284
20
-24.659303
30
0
10
9.39594
20
-24.242861
30
0
10
9.396217
20
-24.242485
30
0
10
9.39635
20
-24.241732
30
0
10
9.397404
20
-24.235715
30
0
10
9.399503
20
-24.223693
30
0
10
9.407758
20
-24.175767
30
0
10
9.465929
20
-23.801813
30
0
10
9.510849
20
-23.445006
30
0
10
9.543568
20
-23.105786
30
0
10
9.565147
20
-22.784544
30
0
10
9.576662
20
-22.481625
30
0
10
9.579197
20
-22.197327
30
0
10
9.573845
20
-21.9319
30
0
10
9.561705
20
-21.685547
30
0
10
9.543882
20
-21.458421
30
0
10
9.521483
20
-21.250629
30
0
10
9.495615
20
-21.06223
30
0
10
9.467386
20
-20.893232
30
0
10
9.437899
20
-20.7436
30
0
10
9.408255
20
-20.613246
30
0
10
9.379545
20
-20.502039
30
0
10
9.352855
20
-20.409798
30
0
10
9.329259
20
-20.336296
30
0
10
9.30982
20
-20.28126
30
0
10
9.295587
20
-20.244371
30
0
10
9.287592
20
-20.225265
30
0
10
9.055685
20
-19.720156
30
0
10
10.85
20
-18.792751
30
0
10
11.127935
20
-19.27407
30
0
10
11.138898
20
-19.291642
30
0
10
11.160759
20
-19.324588
30
0
10
11.194414
20
-19.372277
30
0
10
11.240729
20
-19.434036
30
0
10
11.300542
20
-19.509158
30
0
10
11.374659
20
-19.596896
30
0
10
11.463854
20
-19.69647
30
0
10
11.568868
20
-19.807066
30
0
10
11.690407
20
-19.927835
30
0
10
11.82914
20
-20.057899
30
0
10
11.985698
20
-20.19635
30
0
10
12.160676
20
-20.342249
30
0
10
12.354627
20
-20.494632
30
0
10
12.568062
20
-20.65251
30
0
10
12.801454
20
-20.814867
30
0
10
13.055231
20
-20.980668
30
0
10
13.329776
20
-21.148856
30
0
10
13.625429
20
-21.318355
30
0
10
13.942487
20
-21.48807
30
0
10
14.281196
20
-21.656893
30
0
10
14.325068
20
-21.677878
30
0
10
14.336089
20
-21.683119
30
0
10
14.341608
20
-21.685738
30
0
10
14.342298
20
-21.686066
30
0
10
14.342766
20
-21.686057
30
0
10
15.350295
20
-20.984958
30
0
10
15.350466
20
-20.984522
30
0
10
15.350399
20
-20.983761
30
0
10
15.34986
20
-20.977676
30
0
10
15.348776
20
-20.96552
30
0
10
15.344345
20
-20.917091
30
0
10
15.303747
20
-20.540823
30
0
10
15.254789
20
-20.184548
30
0
10
15.198596
20
-19.848418
30
0
10
15.136297
20
-19.532537
30
0
10
15.069018
20
-19.23696
30
0
10
14.997885
20
-18.961693
30
0
10
14.924017
20
-18.706695
30
0
10
14.84853
20
-18.471878
30
0
10
14.77253
20
-18.257105
30
0
10
14.697114
20
-18.06219
30
0
10
14.623366
20
-17.886906
30
0
10
14.552359
20
-17.730973
30
0
10
14.485149
20
-17.594071
30
0
10
14.422777
20
-17.475832
30
0
10
14.366263
20
-17.375844
30
0
10
14.316609
20
-17.293654
30
0
10
14.274793
20
-17.228763
30
0
10
14.241772
20
-17.180634
30
0
10
14.218476
20
-17.148686
30
0
10
14.205809
20
-17.1323
30
0
10
13.851072
20
-16.704425
30
0
10
15.344217
20
-15.344217
30
0
10
15.737256
20
-15.7372
30
0
10
15.752393
20
-15.751336
30
0
10
15.782037
20
-15.777502
30
0
10
15.826888
20
-15.814855
30
0
10
15.887609
20
-15.862522
30
0
10
15.964827
20
-15.919604
30
0
10
16.059126
20
-15.985169
30
0
10
16.171054
20
-16.058265
30
0
10
16.301114
20
-16.137913
30
0
10
16.449769
20
-16.223111
30
0
10
16.617438
20
-16.312836
30
0
10
16.804496
20
-16.406049
30
0
10
17.011273
20
-16.501689
30
0
10
17.238054
20
-16.598682
30
0
10
17.485079
20
-16.695939
30
0
10
17.752539
20
-16.792357
30
0
10
18.040581
20
-16.886827
30
0
10
18.349301
20
-16.978227
30
0
10
18.67875
20
-17.065429
30
0
10
19.02893
20
-17.147301
30
0
10
19.399793
20
-17.222707
30
0
10
19.447601
20
-17.231622
30
0
10
19.459603
20
-17.233831
30
0
10
19.465612
20
-17.234933
30
0
10
19.466363
20
-17.235071
30
0
10
19.466813
20
-17.234941
30
0
10
20.258553
20
-16.296964
30
0
10
20.258605
20
-16.296499
30
0
10
20.258344
20
-16.295781
30
0
10
20.256248
20
-16.290043
30
0
10
20.252055
20
-16.278582
30
0
10
20.23524
20
-16.232949
30
0
10
20.098641
20
-15.88001
30
0
10
19.95914
20
-15.548546
30
0
10
19.817865
20
-15.238414
30
0
10
19.675933
20
-14.94942
30
0
10
19.534445
20
-14.681327
30
0
10
19.394491
20
-14.433851
30
0
10
19.257143
20
-14.20666
30
0
10
19.123453
20
-13.999382
30
0
10
18.994455
20
-13.811597
30
0
10
18.871161
20
-13.642843
30
0
10
18.754559
20
-13.492618
30
0
10
18.645613
20
-13.360377
30
0
10
18.545261
20
-13.245535
30
0
10
18.454411
20
-13.147468
30
0
10
18.373944
20
-13.065514
30
0
10
18.304709
20
-12.998976
30
0
10
18.247523
20
-12.947119
30
0
10
18.203171
20
-12.909176
30
0
10
18.1724
20
-12.884346
30
0
10
18.155923
20
-12.871797
30
0
10
17.702531
20
-12.550314
30
0
10
18.792751
20
-10.85
30
0
10
19.274109
20
-11.127867
30
0
10
19.292389
20
-11.137603
30
0
10
19.327795
20
-11.155205
30
0
10
19.380785
20
-11.179677
30
0
10
19.451775
20
-11.210004
30
0
10
19.541135
20
-11.245155
30
0
10
19.649191
20
-11.28408
30
0
10
19.776224
20
-11.325716
30
0
10
19.922467
20
-11.368988
30
0
10
20.088107
20
-11.412808
30
0
10
20.273285
20
-11.456081
30
0
10
20.478094
20
-11.497703
30
0
10
20.702579
20
-11.536566
30
0
10
20.946737
20
-11.571559
30
0
10
21.210516
20
-11.601567
30
0
10
21.493818
20
-11.625477
30
0
10
21.796495
20
-11.642176
30
0
10
22.118352
20
-11.650559
30
0
10
22.459145
20
-11.649522
30
0
10
22.818583
20
-11.637971
30
0
10
23.196325
20
-11.614822
30
0
10
23.244812
20
-11.611059
30
0
10
23.256977
20
-11.610087
30
0
10
23.263066
20
-11.609596
30
0
10
23.263827
20
-11.609535
30
0
10
23.264228
20
-11.609293
30
0
10
23.786224
20
-10.498359
30
0
10
23.786154
20
-10.497896
30
0
10
23.785716
20
-10.497271
30
0
10
23.782207
20
-10.49227
30
0
10
23.77519
20
-10.482285
30
0
10
23.747138
20
-10.442559
30
0
10
23.523845
20
-10.137001
30
0
10
23.303309
20
-9.852937
30
0
10
23.08658
20
-9.589936
30
0
10
22.874686
20
-9.347525
30
0
10
22.668632
20
-9.125187
30
0
10
22.469396
20
-8.922365
30
0
10
22.277926
20
-8.738465
30
0
10
22.095144
20
-8.572851
30
0
10
21.921939
20
-8.424851
30
0
10
21.759169
20
-8.293759
30
0
10
21.607659
20
-8.178831
30
0
10
21.468199
20
-8.079294
30
0
10
21.341543
20
-7.994337
30
0
10
21.228407
20
-7.923126
30
0
10
21.129471
20
-7.864791
30
0
10
21.045374
20
-7.818439
30
0
10
20.976715
20
-7.78315
30
0
10
20.924053
20
-7.757979
30
0
10
20.887904
20
-7.74196
30
0
10
20.868741
20
-7.734102
30
0
10
20.347593
20
-7.54092
30
0
10
20.96059
20
-5.616373
30
0
10
21.497464
20
-5.760187
30
0
10
21.517641
20
-5.76486
30
0
10
21.556396
20
-5.772699
30
0
10
21.613914
20
-5.782622
30
0
10
21.690334
20
-5.793543
30
0
10
21.785747
20
-5.804368
30
0
10
21.900196
20
-5.814
30
0
10
22.033676
20
-5.821339
30
0
10
22.186136
20
-5.825285
30
0
10
22.357473
20
-5.824741
30
0
10
22.547542
20
-5.818612
30
0
10
22.756145
20
-5.805807
30
0
10
22.983039
20
-5.785246
30
0
10
23.227934
20
-5.755853
30
0
10
23.490492
20
-5.716567
30
0
10
23.770329
20
-5.666339
30
0
10
24.067015
20
-5.604131
30
0
10
24.380074
20
-5.528925
30
0
10
24.708987
20
-5.43972
30
0
10
25.053187
20
-5.335533
30
0
10
25.412067
20
-5.215405
30
0
10
25.457927
20
-5.199222
30
0
10
25.469426
20
-5.195134
30
0
10
25.475181
20
-5.193084
30
0
10
25.4759
20
-5.192828
30
0
10
25.476225
20
-5.192491
30
0
10
25.692903
20
-3.984308
30
0
10
25.692716
20
-3.983879
30
0
10
25.692131
20
-3.983389
30
0
10
25.687447
20
-3.979467
30
0
10
25.678085
20
-3.971638
30
0
10
25.640707
20
-3.940526
30
0
10
25.345939
20
-3.703172
30
0
10
25.059396
20
-3.485866
30
0
10
24.781982
20
-3.287921
30
0
10
24.514568
20
-3.108611
30
0
10
24.257989
20
-2.94718
30
0
10
24.013048
20
-2.802836
30
0
10
23.780505
20
-2.674757
30
0
10
23.561087
20
-2.562094
30
0
10
23.355479
20
-2.463966
30
0
10
23.164326
20
-2.379469
30
0
10
22.988234
20
-2.307671
30
0
10
22.827763
20
-2.247619
30
0
10
22.683434
20
-2.198339
30
0
10
22.555722
20
-2.158836
30
0
10
22.445059
20
-2.128095
30
0
10
22.351831
20
-2.105089
30
0
10
22.276378
20
-2.088772
30
0
10
22.218996
20
-2.078089
30
0
10
22.179933
20
-2.071971
30
0
10
22.159389
20
-2.069342
30
0
10
21.605999
20
-2.017625
30
0
8
gear
0
CIRCLE
5
2001
100
AcDbEntity
100
AcDbCircle
10
23.914685
20
2.021842
30
0
40
0.785
8
gear_guides
0
CIRCLE
5
2002
100
AcDbEntity
100
AcDbCircle
10
0
20
0
30
0
40
24
8
gear_guides
0
CIRCLE
5
2003
100
AcDbEntity
100
AcDbCircle
10
0
20
0
30
0
40
26
8
gear_guides
0
CIRCLE
5
2004
100
AcDbEntity
100
AcDbCircle
10
0
20
0
30
0
40
22.252413
8
gear_guides
0
LINE
5
2005
100
AcDbEntity
100
AcDbLine
10
1.6
20
0
30
0
11
-1.6
21
0
31
0
8
gear_guides
0
LINE
5
2006
100
AcDbEntity
100
AcDbLine
10
0
20
1.6
30
0
11
0
21
-1.6
31
0
8
gear_guides
0
LWPOLYLINE
5
2007
100
AcDbEntity
100
AcDbPolyline
66
1
90
5
70
0
43
0
10
-0.435788
20
17.039428
30
0
10
-0.877886
20
17.022378
30
0
10
-1.319394
20
16.993858
30
0
10
-1.760012
20
16.95389
30
0
10
-2.199445
20
16.902499
30
0
8
gear_texts
0
LWPOLYLINE
5
2008
100
AcDbEntity
100
AcDbPolyline
66
1
90
2
70
0
43
0
10
-1.250898
20
16.111633
30
0
10
-1.387889
20
17.876083
30
0
8
gear_texts
0
LWPOLYLINE
5
2009
100
AcDbEntity
100
AcDbPolyline
66
1
90
5
70
0
43
0
10
-0.458411
20
17.924019
30
0
10
-0.900674
20
17.46423
30
0
10
-1.319394
20
16.993858
30
0
10
-1.714327
20
16.513815
30
0
10
-2.085262
20
16.025017
30
0
8
gear_texts
0
LWPOLYLINE
5
2010
100
AcDbEntity
100
AcDbPolyline
66
1
90
5
70
0
43
0
10
-0.413164
20
16.154838
30
0
10
-0.855099
20
16.580525
30
0
10
-1.319394
20
16.993858
30
0
10
-1.805697
20
17.393965
30
0
10
-2.313628
20
17.779981
30
0
8
gear_texts
0
LWPOLYLINE
5
2011
100
AcDbEntity
100
AcDbPolyline
66
1
90
3
70
0
43
0
10
0.472302
20
17.923658
30
0
10
0.960468
20
18.347197
30
0
10
0.821689
20
15.696187
30
0
8
gear_texts
0
LWPOLYLINE
5
2012
100
AcDbEntity
100
AcDbPolyline
66
1
90
3
70
0
43
0
10
1.228795
20
15.669573
30
0
10
0.821689
20
15.696187
30
0
10
0.414029
20
15.712226
30
0
8
gear_texts
0
LWPOLYLINE
5
2013
100
AcDbEntity
100
AcDbPolyline
66
1
90
7
70
0
43
0
10
5.592614
20
14.689048
30
0
10
6.53718
20
17.169957
30
0
10
5.796058
20
16.498978
30
0
10
5.094368
20
15.801658
30
0
10
4.932101
20
16.777513
30
0
10
4.722442
20
17.755019
30
0
10
4.04009
20
15.189573
30
0
8
gear_texts
0
LWPOLYLINE
5
2014
100
AcDbEntity
100
AcDbPolyline
66
1
90
15
70
0
43
0
10
7.803404
20
13.643766
30
0
10
7.446661
20
13.841702
30
0
10
7.084902
20
14.030311
30
0
10
6.718369
20
14.209468
30
0
10
6.347309
20
14.379052
30
0
10
6.704653
20
15.188569
30
0
10
7.285719
20
15.409423
30
0
10
7.683204
20
15.215137
30
0
10
8.075514
20
15.0106
30
0
10
8.682042
20
15.18001
30
0
10
8.901701
20
15.564071
30
0
10
8.704366
20
16.179498
30
0
10
8.281507
20
16.399963
30
0
10
7.853069
20
16.609378
30
0
10
7.240667
20
16.402845
30
0
8
gear_texts
0
LWPOLYLINE
5
2015
100
AcDbEntity
100
AcDbPolyline
66
1
90
7
70
0
43
0
10
13.244093
20
12.733269
30
0
10
11.330437
20
10.893423
30
0
10
11.510204
20
11.65605
30
0
10
11.657704
20
12.43503
30
0
10
11.772217
20
13.229193
30
0
10
11.853064
20
14.037344
30
0
10
10.1404
20
12.00907
30
0
8
gear_texts
0
LWPOLYLINE
5
2016
100
AcDbEntity
100
AcDbPolyline
66
1
90
5
70
0
43
0
10
14.333611
20
10.017892
30
0
10
14.068775
20
10.386536
30
0
10
13.794461
20
10.748181
30
0
10
13.510853
20
11.102586
30
0
10
13.218142
20
11.44951
30
0
8
gear_texts
0
LWPOLYLINE
5
2017
100
AcDbEntity
100
AcDbPolyline
66
1
90
5
70
0
43
0
10
13.608317
20
9.510978
30
0
10
13.356883
20
9.860968
30
0
10
13.096449
20
10.204314
30
0
10
12.827192
20
10.540785
30
0
10
12.549293
20
10.870154
30
0
8
gear_texts
0
LWPOLYLINE
5
2018
100
AcDbEntity
100
AcDbPolyline
66
1
90
15
70
0
43
0
10
14.123753
20
6.896744
30
0
10
13.939995
20
7.260992
30
0
10
13.746845
20
7.620348
30
0
10
13.544434
20
7.974571
30
0
10
13.332897
20
8.32342
30
0
10
14.083518
20
8.792015
30
0
10
14.688229
20
8.648004
30
0
10
14.907733
20
8.263868
30
0
10
15.117194
20
7.874165
30
0
10
15.714041
20
7.673295
30
0
10
16.111614
20
7.867433
30
0
10
16.294392
20
8.487339
30
0
10
16.068621
20
8.907388
30
0
10
15.832023
20
9.321437
30
0
10
15.209449
20
9.494908
30
0
8
gear_texts
0
LWPOLYLINE
5
2019
100
AcDbEntity
100
AcDbPolyline
66
1
90
9
70
0
43
0
10
15.868337
20
4.882713
30
0
10
15.736264
20
5.292919
30
0
10
15.593589
20
5.699559
30
0
10
15.440408
20
6.102359
30
0
10
15.276825
20
6.501048
30
0
10
15.989035
20
6.319188
30
0
10
16.701728
20
6.104591
30
0
10
17.413681
20
5.857121
30
0
10
14.897556
20
5.010818
30
0
8
gear_texts
0
LWPOLYLINE
5
2020
100
AcDbEntity
100
AcDbPolyline
66
1
90
10
70
0
43
0
10
15.610576
20
1.831767
30
0
10
15.65286
20
1.425989
30
0
10
15.684597
20
1.019251
30
0
10
15.705768
20
0.611825
30
0
10
16.158759
20
0.20973
30
0
10
17.92837
20
0.232698
30
0
10
18.358396
20
0.715159
30
0
10
18.33365
20
1.191397
30
0
10
18.296552
20
1.666832
30
0
10
18.247127
20
2.141144
30
0
8
gear_texts
0
LWPOLYLINE
5
2021
100
AcDbEntity
100
AcDbPolyline
66
1
90
2
70
0
43
0
10
18.296552
20
1.666832
30
0
10
15.65286
20
1.425989
30
0
8
gear_texts
0
LWPOLYLINE
5
2022
100
AcDbEntity
100
AcDbPolyline
66
1
90
5
70
0
43
0
10
17.309531
20
-2.488112
30
0
10
17.368277
20
-2.038018
30
0
10
17.415321
20
-1.586551
30
0
10
17.450632
20
-1.134015
30
0
10
17.474186
20
-0.680715
30
0
8
gear_texts
0
LWPOLYLINE
5
2023
100
AcDbEntity
100
AcDbPolyline
66
1
90
5
70
0
43
0
10
16.433653
20
-2.362212
30
0
10
16.489427
20
-1.934893
30
0
10
16.534091
20
-1.50627
30
0
10
16.567615
20
-1.076633
30
0
10
16.589977
20
-0.64627
30
0
8
gear_texts
0
LWPOLYLINE
5
2024
100
AcDbEntity
100
AcDbPolyline
66
1
90
9
70
0
43
0
10
15.868337
20
-4.882713
30
0
10
15.989718
20
-4.469218
30
0
10
16.100327
20
-4.052711
30
0
10
16.200089
20
-3.633474
30
0
10
16.288935
20
-3.211788
30
0
10
16.775708
20
-3.762578
30
0
10
17.244477
20
-4.340712
30
0
10
17.694152
20
-4.945617
30
0
10
15.137502
20
-4.231018
30
0
8
gear_texts
0
LWPOLYLINE
5
2025
100
AcDbEntity
100
AcDbPolyline
66
1
90
19
70
0
43
0
10
15.851878
20
-6.264981
30
0
10
15.593589
20
-5.699559
30
0
10
15.178037
20
-5.547672
30
0
10
14.617469
20
-5.777117
30
0
10
14.462604
20
-6.154556
30
0
10
14.297995
20
-6.527849
30
0
10
14.521325
20
-7.090882
30
0
10
14.918897
20
-7.28502
30
0
10
15.505426
20
-7.07911
30
0
10
15.683935
20
-6.674294
30
0
10
15.851878
20
-6.264981
30
0
10
16.424693
20
-6.003333
30
0
10
16.840245
20
-6.15522
30
0
10
17.086288
20
-6.752844
30
0
10
16.905267
20
-7.194031
30
0
10
16.712857
20
-7.630371
30
0
10
16.111614
20
-7.867433
30
0
10
15.714041
20
-7.673295
30
0
10
15.505426
20
-7.07911
30
0
8
gear_texts
0
LWPOLYLINE
5
2026
100
AcDbEntity
100
AcDbPolyline
66
1
90
2
70
0
43
0
10
13.746845
20
-7.620348
30
0
10
15.294696
20
-8.478375
30
0
8
gear_texts
0
LWPOLYLINE
5
2027
100
AcDbEntity
100
AcDbPolyline
66
1
90
6
70
0
43
0
10
14.907733
20
-8.263868
30
0
10
15.069493
20
-8.872481
30
0
10
14.458828
20
-9.026312
30
0
10
14.588789
20
-9.642499
30
0
10
13.970964
20
-9.764435
30
0
10
12.883024
20
-9.004064
30
0
8
gear_texts
0
LWPOLYLINE
5
2028
100
AcDbEntity
100
AcDbPolyline
66
1
90
2
70
0
43
0
10
14.083518
20
-8.792015
30
0
10
14.458828
20
-9.026312
30
0
8
gear_texts
0
LWPOLYLINE
5
2029
100
AcDbEntity
100
AcDbPolyline
66
1
90
2
70
0
43
0
10
12.398437
20
-9.660446
30
0
10
13.794461
20
-10.748181
30
0
8
gear_texts
0
LWPOLYLINE
5
2030
100
AcDbEntity
100
AcDbPolyline
66
1
90
6
70
0
43
0
10
13.445455
20
-10.476248
30
0
10
13.510853
20
-11.102586
30
0
10
12.883717
20
-11.159832
30
0
10
12.916526
20
-11.78872
30
0
10
12.287265
20
-11.813346
30
0
10
11.330437
20
-10.893423
30
0
8
gear_texts
0
LWPOLYLINE
5
2031
100
AcDbEntity
100
AcDbPolyline
66
1
90
2
70
0
43
0
10
12.549293
20
-10.870154
30
0
10
12.883717
20
-11.159832
30
0
8
gear_texts
0
LWPOLYLINE
5
2032
100
AcDbEntity
100
AcDbPolyline
66
1
90
11
70
0
43
0
10
9.950295
20
-13.839207
30
0
10
9.587756
20
-14.092798
30
0
10
9.218758
20
-14.336894
30
0
10
8.843549
20
-14.57133
30
0
10
8.682042
20
-15.18001
30
0
10
8.901701
20
-15.564071
30
0
10
9.53221
20
-15.706021
30
0
10
9.936637
20
-15.453329
30
0
10
10.334369
20
-15.190225
30
0
10
10.725139
20
-14.916887
30
0
10
9.17545
20
-12.761527
30
0
8
gear_texts
0
LWPOLYLINE
5
2033
100
AcDbEntity
100
AcDbPolyline
66
1
90
7
70
0
43
0
10
7.084902
20
-14.030311
30
0
10
7.48377
20
-14.820195
30
0
10
7.474835
20
-15.809408
30
0
10
7.419339
20
-16.807604
30
0
10
6.644398
20
-16.175986
30
0
10
5.907469
20
-15.516018
30
0
10
5.592614
20
-14.689048
30
0
8
gear_texts
0
LWPOLYLINE
5
2034
100
AcDbEntity
100
AcDbPolyline
66
1
90
5
70
0
43
0
10
7.48377
20
-14.820195
30
0
10
7.096602
20
-15.009438
30
0
10
6.704653
20
-15.188569
30
0
10
6.308186
20
-15.357467
30
0
10
5.907469
20
-15.516018
30
0
8
gear_texts
0
LWPOLYLINE
5
2035
100
AcDbEntity
100
AcDbPolyline
66
1
90
5
70
0
43
0
10
3.611984
20
-17.110352
30
0
10
4.054854
20
-17.010841
30
0
10
4.494991
20
-16.89987
30
0
10
4.932101
20
-16.777513
30
0
10
5.365887
20
-16.643852
30
0
8
gear_texts
0
LWPOLYLINE
5
2036
100
AcDbEntity
100
AcDbPolyline
66
1
90
5
70
0
43
0
10
3.429214
20
-16.244553
30
0
10
3.849674
20
-16.150078
30
0
10
4.267541
20
-16.044722
30
0
10
4.682532
20
-15.928556
30
0
10
5.094368
20
-15.801658
30
0
8
gear_texts
0
LWPOLYLINE
5
2037
100
AcDbEntity
100
AcDbPolyline
66
1
90
15
70
0
43
0
10
0.821689
20
-15.696187
30
0
10
1.228795
20
-15.669573
30
0
10
1.635073
20
-15.632402
30
0
10
2.04025
20
-15.584699
30
0
10
2.444052
20
-15.526496
30
0
10
2.581648
20
-16.400613
30
0
10
2.212544
20
-16.900789
30
0
10
1.773151
20
-16.952521
30
0
10
1.332564
20
-16.992831
30
0
10
0.914208
20
-17.463527
30
0
10
0.937338
20
-17.905362
30
0
10
1.436332
20
-18.316088
30
0
10
1.911229
20
-18.272639
30
0
10
2.384838
20
-18.216879
30
0
10
2.788042
20
-17.711788
30
0
8
gear_texts
0
LWPOLYLINE
5
2038
100
AcDbEntity
100
AcDbPolyline
66
1
90
15
70
0
43
0
10
-1.622957
20
-15.633665
30
0
10
-1.216651
20
-15.670521
30
0
10
-0.809524
20
-15.696819
30
0
10
-0.401852
20
-15.712542
30
0
10
0.006091
20
-15.717679
30
0
10
0.006434
20
-16.602559
30
0
10
-0.435788
20
-17.039428
30
0
10
-0.877886
20
-17.022378
30
0
10
-1.319394
20
-16.993858
30
0
10
-1.805697
20
-17.393965
30
0
10
-1.851382
20
-17.83404
30
0
10
-1.422137
20
-18.317196
30
0
10
-0.946249
20
-18.347936
30
0
10
-0.469723
20
-18.366314
30
0
10
0.006948
20
-17.929879
30
0
8
gear_texts
0
ENDSEC
0
SECTION
2
OBJECTS
0
DICTIONARY
5
21D
330
0
100
AcDbDictionary
281
1
3
ACAD_CIP_PREVIOUS_PRODUCT_INFO
350
291
3
ACAD_COLOR
350
273
3
ACAD_DETAILVIEWSTYLE
350
27B
3
ACAD_GROUP
350
21E
3
ACAD_LAYOUT
350
272
3
ACAD_MATERIAL
350
221
3
ACAD_MLEADERSTYLE
350
276
3
ACAD_MLINESTYLE
350
26F
3
ACAD_PLOTSETTINGS
350
271
3
ACAD_PLOTSTYLENAME
350
21F
3
ACAD_SCALELIST
350
253
3
ACAD_SECTIONVIEWSTYLE
350
278
3
ACAD_TABLESTYLE
350
274
3
ACAD_VISUALSTYLE
350
23A
3
ACDB_RECOMPOSE_DATA
350
1057
3
AcDbVariableDictionary
350
29D
0
DICTIONARY
5
297
330
213
100
AcDbDictionary
280
1
281
1
3
ACAD_LAYERSTATES
360
298
0
DICTIONARY
5
292
330
265
100
AcDbDictionary
280
1
281
1
3
ADSK_XREC_LAYER_RECONCILED
360
293
0
XRECORD
5
291
102
{ACAD_REACTORS
330
21D
102
}
330
21D
100
AcDbXrecord
280
1
300
ACDMAC
300
2013
300
ACDMAC_F_S
0
DICTIONARY
5
273
102
{ACAD_REACTORS
330
21D
102
}
330
21D
100
AcDbDictionary
281
1
0
DICTIONARY
5
21E
102
{ACAD_REACTORS
330
21D
102
}
330
21D
100
AcDbDictionary
281
1
0
DICTIONARY
5
272
102
{ACAD_REACTORS
330
21D
102
}
330
21D
100
AcDbDictionary
281
1
3
Layout1
350
280
3
Model
350
284
0
DICTIONARY
5
221
102
{ACAD_REACTORS
330
21D
102
}
330
21D
100
AcDbDictionary
281
1
3
ByBlock
350
22A
3
ByLayer
350
222
3
Global
350
232
0
DICTIONARY
5
276
102
{ACAD_REACTORS
330
21D
102
}
330
21D
100
AcDbDictionary
281
1
3
Standard
350
277
0
DICTIONARY
5
26F
102
{ACAD_REACTORS
330
21D
102
}
330
21D
100
AcDbDictionary
281
1
3
Standard
350
270
0
DICTIONARY
5
271
102
{ACAD_REACTORS
330
21D
102
}
330
21D
100
AcDbDictionary
281
1
0
ACDBDICTIONARYWDFLT
5
21F
102
{ACAD_REACTORS
330
21D
102
}
330
21D
100
AcDbDictionary
281
1
3
Normal
350
220
100
AcDbDictionaryWithDefault
340
220
0
DICTIONARY
5
253
102
{ACAD_REACTORS
330
21D
102
}
330
21D
100
AcDbDictionary
281
1
3
A0
350
254
3
A1
350
255
3
A2
350
256
3
A3
350
257
3
A4
350
258
3
A5
350
259
3
A6
350
25A
3
A7
350
25B
3
A8
350
25C
3
A9
350
25D
3
B0
350
25E
3
B1
350
25F
3
B2
350
260
3
B3
350
261
3
B4
350
262
3
B5
350
263
3
B6
350
264
0
DICTIONARY
5
274
102
{ACAD_REACTORS
330
21D
102
}
330
21D
100
AcDbDictionary
281
1
3
Standard
350
275
0
DICTIONARY
5
23A
102
{ACAD_REACTORS
330
21D
102
}
330
21D
100
AcDbDictionary
281
1
3
2dWireframe
350
240
3
Basic
350
23F
3
Brighten
350
246
3
ColorChange
350
24A
3
Conceptual
350
243
3
Dim
350
245
3
EdgeColorOff
350
252
3
Facepattern
350
249
3
Flat
350
23B
3
FlatWithEdges
350
23C
3
Gouraud
350
23D
3
GouraudWithEdges
350
23E
3
Hidden
350
242
3
JitterOff
350
250
3
Linepattern
350
248
3
OverhangOff
350
251
3
Realistic
350
244
3
Shaded
350
24F
3
Shaded with edges
350
24E
3
Shades of Gray
350
24B
3
Sketchy
350
24C
3
Thicken
350
247
3
Wireframe
350
241
3
X-Ray
350
24D
0
XRECORD
5
1057
102
{ACAD_REACTORS
330
21D
102
}
330
21D
100
AcDbXrecord
280
1
90
1
330
275
0
DICTIONARY
5
29D
102
{ACAD_REACTORS
330
21D
102
}
330
21D
100
AcDbDictionary
281
1
3
CANNOSCALE
350
2A3
3
CMLEADERSTYLE
350
29F
3
CTABLESTYLE
350
29E
3
CVIEWDETAILSTYLE
350
2A0
3
CVIEWSECTIONSTYLE
350
2A1
3
LAYEREVAL
350
2A5
3
LAYERNOTIFY
350
2A6
3
LIGHTINGUNITS
350
2A4
3
MSLTSCALE
350
2A2
0
ENDSEC
0
EOF
