0
SECTION
2
HEADER
9
$INSUNITS
70
4
9
$ACADVER
1
AC1014
9
$HANDSEED
5
FFFF
0
ENDSEC
0
SECTION
2
TABLES
0
TABLE
2
VPORT
5
8
100
AcDbSymbolTable
0
ENDTAB
0
TABLE
2
LTYPE
5
5
100
AcDbSymbolTable
0
LTYPE
5
14
100
AcDbSymbolTableRecord
100
AcDbLinetypeTableRecord
2
BYBLOCK
70
0
0
LTYPE
5
15
100
AcDbSymbolTableRecord
100
AcDbLinetypeTableRecord
2
BYLAYER
70
0
0
LTYPE
5
16
100
AcDbSymbolTableRecord
100
AcDbLinetypeTableRecord
2
DASHED
70
0
3
Dashed __ __ __ __ __ __ __ __ __ __ __ __ __ _
72
65
73
2
40
0.75
49
0.5
74
0
49
-0.25
74
0
0
ENDTAB
0
TABLE
2
LAYER
5
2
100
AcDbSymbolTable
70
2
0
LAYER
5
50
100
AcDbSymbolTableRecord
100
AcDbLayerTableRecord
2
0
70
0
62
7
6
CONTINUOUS
0
ENDTAB
0
TABLE
2
STYLE
5
3
100
AcDbSymbolTable
70
1
0
STYLE
5
11
100
AcDbSymbolTableRecord
100
AcDbTextStyleTableRecord
2
STANDARD
70
0
0
ENDTAB
0
TABLE
2
VIEW
5
6
100
AcDbSymbolTable
70
0
0
ENDTAB
0
TABLE
2
UCS
5
7
100
AcDbSymbolTable
70
0
0
ENDTAB
0
TABLE
2
APPID
5
9
100
AcDbSymbolTable
70
2
0
APPID
5
12
100
AcDbSymbolTableRecord
100
AcDbRegAppTableRecord
2
ACAD
70
0
0
ENDTAB
0
TABLE
2
DIMSTYLE
5
A
100
AcDbSymbolTable
70
1
0
ENDTAB
0
TABLE
2
BLOCK_RECORD
5
1
100
AcDbSymbolTable
70
1
0
BLOCK_RECORD
5
1F
100
AcDbSymbolTableRecord
100
AcDbBlockTableRecord
2
*MODEL_SPACE
0
BLOCK_RECORD
5
1B
100
AcDbSymbolTableRecord
100
AcDbBlockTableRecord
2
*PAPER_SPACE
0
ENDTAB
0
ENDSEC
0
SECTION
2
BLOCKS
0
BLOCK
5
20
100
AcDbEntity
100
AcDbBlockBegin
2
*MODEL_SPACE
0
ENDBLK
5
21
100
AcDbEntity
100
AcDbBlockEnd
0
BLOCK
5
1C
100
AcDbEntity
100
AcDbBlockBegin
2
*PAPER_SPACE
0
ENDBLK
5
1D
100
AcDbEntity
100
AcDbBlockEnd
0
ENDSEC
0
SECTION
2
ENTITIES
0
LINE
5
100
100
AcDbEntity
8
0
100
AcDbLine
10
1.1102230246251565e-15
20
3.0000000000000075
30
0
11
0
21
82
31
0
0
LINE
5
101
100
AcDbEntity
8
0
100
AcDbLine
10
-100
20
82
30
0
11
-100
21
2.9999999999999982
31
0
0
LINE
5
102
100
AcDbEntity
8
0
100
AcDbLine
10
-97
20
5.5511151231257827e-15
30
0
11
-3.0000000000000071
21
5.5511151231257827e-16
31
0
0
LWPOLYLINE
5
103
100
AcDbEntity
8
0
100
AcDbPolyline
90
8
70
1
43
0.0
10
-2.9999999999999982
20
5.5511151231257827e-16
42
0.41421356237309581
10
1.1102230246251565e-15
20
3.0000000000000075
10
0
20
82
42
0.41421356237309209
10
-3.0000000000000075
20
85
10
-97
20
85
42
0.4142135623730881
10
-100
20
82
10
-100
20
2.9999999999999982
42
0.41421356237309359
10
-97
20
5.5511151231257827e-15
0
LINE
5
104
100
AcDbEntity
8
0
100
AcDbLine
10
-23.838279992341995
20
7.5000000000000044
30
0
11
-25.695625096559525
21
7.5000000000000044
31
0
0
SPLINE
5
105
100
AcDbEntity
8
0
100
AcDbSpline
70
0
71
2
72
6
73
3
74
0
42
0.000000001
43
0.0000000001
44
0.0000000001
40
0
40
0
40
0
40
1
40
1
40
1
10
-25.695625096559525
20
7.5000000000000044
30
0
10
-26.084042340517044
20
7.5000000000000044
30
0
10
-26.430087834596634
20
7.5706213712692305
30
0
0
SPLINE
5
106
100
AcDbEntity
8
0
100
AcDbSpline
70
0
71
2
72
6
73
3
74
0
42
0.000000001
43
0.0000000001
44
0.0000000001
40
0
40
0
40
0
40
1
40
1
40
1
10
-26.430087834596634
20
7.5706213712692305
30
0
10
-26.776133328676224
20
7.6412430405616805
30
0
10
-27.030368596315384
20
7.8177964687347457
30
0
0
SPLINE
5
107
100
AcDbEntity
8
0
100
AcDbSpline
70
0
71
2
72
6
73
3
74
0
42
0.000000001
43
0.0000000001
44
0.0000000001
40
0
40
0
40
0
40
1
40
1
40
1
10
-27.030368596315384
20
7.8177964687347457
30
0
10
-27.291668206453323
20
7.9872882366180464
30
0
10
-27.439974099397659
20
8.2838982343673742
30
0
0
SPLINE
5
108
100
AcDbEntity
8
0
100
AcDbSpline
70
0
71
2
72
6
73
3
74
0
42
0.000000001
43
0.0000000001
44
0.0000000001
40
0
40
0
40
0
40
1
40
1
40
1
10
-27.439974099397659
20
8.2838982343673742
30
0
10
-27.595341950654984
20
8.5734462738037145
30
0
10
-27.595341950654984
20
9.0183615684509313
30
0
0
SPLINE
5
109
100
AcDbEntity
8
0
100
AcDbSpline
70
0
71
2
72
6
73
3
74
0
42
0.000000001
43
0.0000000001
44
0.0000000001
40
0
40
0
40
0
40
1
40
1
40
1
10
-27.595341950654984
20
9.0183615684509313
30
0
10
-27.595341950654984
20
9.4562149047851598
30
0
10
-27.454098016023636
20
9.7528249025344884
30
0
0
SPLINE
5
110
100
AcDbEntity
8
0
100
AcDbSpline
70
0
71
2
72
6
73
3
74
0
42
0.000000001
43
0.0000000001
44
0.0000000001
40
0
40
0
40
0
40
1
40
1
40
1
10
-27.454098016023636
20
9.7528249025344884
30
0
10
-27.312856465578079
20
10.049434900283817
30
0
10
-27.065680772066116
20
10.225988626480106
30
0
0
SPLINE
5
111
100
AcDbEntity
8
0
100
AcDbSpline
70
0
71
2
72
6
73
3
74
0
42
0.000000001
43
0.0000000001
44
0.0000000001
40
0
40
0
40
0
40
1
40
1
40
1
10
-27.065680772066116
20
10.225988626480106
30
0
10
-26.818505078554153
20
10.402542352676395
30
0
10
-26.479521542787552
20
10.480226278305057
30
0
0
SPLINE
5
112
100
AcDbEntity
8
0
100
AcDbSpline
70
0
71
2
72
6
73
3
74
0
42
0.000000001
43
0.0000000001
44
0.0000000001
40
0
40
0
40
0
40
1
40
1
40
1
10
-26.479521542787552
20
10.480226278305057
30
0
10
-26.14053800702095
20
10.550847649574283
30
0
10
-25.745058804750443
20
10.550847649574283
30
0
0
LINE
5
113
100
AcDbEntity
8
0
100
AcDbLine
10
-25.745058804750443
20
10.550847649574283
30
0
11
-24.939974099397659
21
10.550847649574283
31
0
0
LINE
5
114
100
AcDbEntity
8
0
100
AcDbLine
10
-24.939974099397659
20
10.550847649574283
30
0
11
-24.939974099397659
21
12.500000000000004
31
0
0
LINE
5
115
100
AcDbEntity
8
0
100
AcDbLine
10
-24.939974099397659
20
12.500000000000004
30
0
11
-23.838279992341995
21
12.500000000000004
31
0
0
LINE
5
116
100
AcDbEntity
8
0
100
AcDbLine
10
-23.838279992341995
20
12.500000000000004
30
0
11
-23.838279992341995
21
7.5000000000000044
31
0
0
LINE
5
117
100
AcDbEntity
8
0
100
AcDbLine
10
-24.939974099397659
20
9.6186441183090245
30
0
11
-25.674436837434769
21
9.6186441183090245
31
0
0
SPLINE
5
118
100
AcDbEntity
8
0
100
AcDbSpline
70
0
71
2
72
6
73
3
74
0
42
0.000000001
43
0.0000000001
44
0.0000000001
40
0
40
0
40
0
40
1
40
1
40
1
10
-25.674436837434769
20
9.6186441183090245
30
0
10
-25.822742730379105
20
9.6186441183090245
30
0
10
-25.956922322511673
20
9.5903956890106237
30
0
0
SPLINE
5
119
100
AcDbEntity
8
0
100
AcDbSpline
70
0
71
2
72
6
73
3
74
0
42
0.000000001
43
0.0000000001
44
0.0000000001
40
0
40
0
40
0
40
1
40
1
40
1
10
-25.956922322511673
20
9.5903956890106237
30
0
10
-26.098166257143021
20
9.562146663665775
30
0
10
-26.204098016023636
20
9.498587846755985
30
0
0
SPLINE
5
120
100
AcDbEntity
8
0
100
AcDbSpline
70
0
71
2
72
6
73
3
74
0
42
0.000000001
43
0.0000000001
44
0.0000000001
40
0
40
0
40
0
40
1
40
1
40
1
10
-26.204098016023636
20
9.498587846755985
30
0
10
-26.317091733217239
20
9.4279658794403112
30
0
10
-26.380651742219925
20
9.3149721622467077
30
0
0
SPLINE
5
121
100
AcDbEntity
8
0
100
AcDbSpline
70
0
71
2
72
6
73
3
74
0
42
0.000000001
43
0.0000000001
44
0.0000000001
40
0
40
0
40
0
40
1
40
1
40
1
10
-26.380651742219925
20
9.3149721622467077
30
0
10
-26.451273709535599
20
9.1949152946472203
30
0
10
-26.451273709535599
20
9.0183615684509313
30
0
0
SPLINE
5
122
100
AcDbEntity
8
0
100
AcDbSpline
70
0
71
2
72
6
73
3
74
0
42
0.000000001
43
0.0000000001
44
0.0000000001
40
0
40
0
40
0
40
1
40
1
40
1
10
-26.451273709535599
20
9.0183615684509313
30
0
10
-26.451273709535599
20
8.8276839256286657
30
0
10
-26.35946586728096
20
8.7146890163421666
30
0
0
SPLINE
5
123
100
AcDbEntity
8
0
100
AcDbSpline
70
0
71
2
72
6
73
3
74
0
42
0.000000001
43
0.0000000001
44
0.0000000001
40
0
40
0
40
0
40
1
40
1
40
1
10
-26.35946586728096
20
8.7146890163421666
30
0
10
-26.27471998333931
20
8.5946327447891271
30
0
10
-26.133476048707962
20
8.5310733318328893
30
0
0
SPLINE
5
124
100
AcDbEntity
8
0
100
AcDbSpline
70
0
71
2
72
6
73
3
74
0
42
0.000000001
43
0.0000000001
44
0.0000000001
40
0
40
0
40
0
40
1
40
1
40
1
10
-26.133476048707962
20
8.5310733318328893
30
0
10
-25.999296456575394
20
8.4675145149230993
30
0
10
-25.829804688692093
20
8.4533894062042272
30
0
0
SPLINE
5
125
100
AcDbEntity
8
0
100
AcDbSpline
70
0
71
2
72
6
73
3
74
0
42
0.000000001
43
0.0000000001
44
0.0000000001
40
0
40
0
40
0
40
1
40
1
40
1
10
-25.829804688692093
20
8.4533894062042272
30
0
10
-25.660312920808792
20
8.4322035312652623
30
0
10
-25.504945069551468
20
8.4322035312652623
30
0
0
LINE
5
126
100
AcDbEntity
8
0
100
AcDbLine
10
-25.504945069551468
20
8.4322035312652623
30
0
11
-24.939974099397659
21
8.4322035312652623
31
0
0
LINE
5
127
100
AcDbEntity
8
0
100
AcDbLine
10
-24.939974099397659
20
8.4322035312652623
30
0
11
-24.939974099397659
21
9.6186441183090245
31
0
0
LINE
5
128
100
AcDbEntity
8
0
100
AcDbLine
10
-29.212573319673538
20
7.1610170602798506
30
0
11
-29.212573319673538
21
9.5338982343673742
31
0
0
LINE
5
129
100
AcDbEntity
8
0
100
AcDbLine
10
-29.212573319673538
20
9.5338982343673742
30
0
11
-29.226697236299515
21
9.5338982343673742
31
0
0
SPLINE
5
130
100
AcDbEntity
8
0
100
AcDbSpline
70
0
71
2
72
6
73
3
74
0
42
0.000000001
43
0.0000000001
44
0.0000000001
40
0
40
0
40
0
40
1
40
1
40
1
10
-29.226697236299515
20
9.5338982343673742
30
0
10
-29.262009412050247
20
9.4350278377532995
30
0
10
-29.346752911806107
20
9.3361580371856725
30
0
0
SPLINE
5
131
100
AcDbEntity
8
0
100
AcDbSpline
70
0
71
2
72
6
73
3
74
0
42
0.000000001
43
0.0000000001
44
0.0000000001
40
0
40
0
40
0
40
1
40
1
40
1
10
-29.346752911806107
20
9.3361580371856725
30
0
10
-29.431501179933548
20
9.2372882366180455
30
0
10
-29.55155685544014
20
9.1596043109893834
30
0
0
SPLINE
5
132
100
AcDbEntity
8
0
100
AcDbSpline
70
0
71
2
72
6
73
3
74
0
42
0.000000001
43
0.0000000001
44
0.0000000001
40
0
40
0
40
0
40
1
40
1
40
1
10
-29.55155685544014
20
9.1596043109893834
30
0
10
-29.671612530946732
20
9.0819209814071691
30
0
10
-29.834042340517044
20
9.0324854850769078
30
0
0
SPLINE
5
133
100
AcDbEntity
8
0
100
AcDbSpline
70
0
71
2
72
6
73
3
74
0
42
0.000000001
43
0.0000000001
44
0.0000000001
40
0
40
0
40
0
40
1
40
1
40
1
10
-29.834042340517044
20
9.0324854850769078
30
0
10
-29.996472150087357
20
8.9830505847930944
30
0
10
-30.187149792909622
20
8.9830505847930944
30
0
0
SPLINE
5
134
100
AcDbEntity
8
0
100
AcDbSpline
70
0
71
2
72
6
73
3
74
0
42
0.000000001
43
0.0000000001
44
0.0000000001
40
0
40
0
40
0
40
1
40
1
40
1
10
-30.187149792909622
20
8.9830505847930944
30
0
10
-30.589690953493118
20
8.9830505847930944
30
0
10
-30.836866647005081
20
9.11016941070557
30
0
0
SPLINE
5
135
100
AcDbEntity
8
0
100
AcDbSpline
70
0
71
2
72
6
73
3
74
0
42
0.000000001
43
0.0000000001
44
0.0000000001
40
0
40
0
40
0
40
1
40
1
40
1
10
-30.836866647005081
20
9.11016941070557
30
0
10
-31.084042340517044
20
9.2302262783050573
30
0
10
-31.218224316835403
20
9.4491529464721715
30
0
0
SPLINE
5
136
100
AcDbEntity
8
0
100
AcDbSpline
70
0
71
2
72
6
73
3
74
0
42
0.000000001
43
0.0000000001
44
0.0000000001
40
0
40
0
40
0
40
1
40
1
40
1
10
-31.218224316835403
20
9.4491529464721715
30
0
10
-31.35946586728096
20
9.668079018592838
30
0
10
-31.408901959657669
20
9.9646890163421666
30
0
0
SPLINE
5
137
100
AcDbEntity
8
0
100
AcDbSpline
70
0
71
2
72
6
73
3
74
0
42
0.000000001
43
0.0000000001
44
0.0000000001
40
0
40
0
40
0
40
1
40
1
40
1
10
-31.408901959657669
20
9.9646890163421666
30
0
10
-31.458335667848587
20
10.261299610137943
30
0
10
-31.458335667848587
20
10.607344508171085
30
0
0
LINE
5
138
100
AcDbEntity
8
0
100
AcDbLine
10
-31.458335667848587
20
10.607344508171085
30
0
11
-31.458335667848587
21
12.500000000000004
31
0
0
LINE
5
139
100
AcDbEntity
8
0
100
AcDbLine
10
-31.458335667848587
20
12.500000000000004
30
0
11
-30.399013310670853
21
12.500000000000004
31
0
0
LINE
5
140
100
AcDbEntity
8
0
100
AcDbLine
10
-30.399013310670853
20
12.500000000000004
30
0
11
-30.399013310670853
21
10.819209218025211
31
0
0
SPLINE
5
141
100
AcDbEntity
8
0
100
AcDbSpline
70
0
71
2
72
6
73
3
74
0
42
0.000000001
43
0.0000000001
44
0.0000000001
40
0
40
0
40
0
40
1
40
1
40
1
10
-30.399013310670853
20
10.819209218025211
30
0
10
-30.399013310670853
20
10.670903921127323
30
0
10
-30.384889394044876
20
10.515536665916446
30
0
0
SPLINE
5
142
100
AcDbEntity
8
0
100
AcDbSpline
70
0
71
2
72
6
73
3
74
0
42
0.000000001
43
0.0000000001
44
0.0000000001
40
0
40
0
40
0
40
1
40
1
40
1
10
-30.384889394044876
20
10.515536665916446
30
0
10
-30.377827435731888
20
10.353107452392582
30
0
10
-30.321331769227982
20
10.218926668167118
30
0
0
SPLINE
5
143
100
AcDbEntity
8
0
100
AcDbSpline
70
0
71
2
72
6
73
3
74
0
42
0.000000001
43
0.0000000001
44
0.0000000001
40
0
40
0
40
0
40
1
40
1
40
1
10
-30.321331769227982
20
10.218926668167118
30
0
10
-30.271895676851273
20
10.084745883941654
30
0
10
-30.158901959657669
20
10.000000000000004
30
0
0
SPLINE
5
144
100
AcDbEntity
8
0
100
AcDbSpline
70
0
71
2
72
6
73
3
74
0
42
0.000000001
43
0.0000000001
44
0.0000000001
40
0
40
0
40
0
40
1
40
1
40
1
10
-30.158901959657669
20
10.000000000000004
30
0
10
-30.052967816591263
20
9.9152541160583532
30
0
10
-29.848166257143021
20
9.9152541160583532
30
0
0
SPLINE
5
145
100
AcDbEntity
8
0
100
AcDbSpline
70
0
71
2
72
6
73
3
74
0
42
0.000000001
43
0.0000000001
44
0.0000000001
40
0
40
0
40
0
40
1
40
1
40
1
10
-29.848166257143021
20
9.9152541160583532
30
0
10
-29.643364697694778
20
9.9152541160583532
30
0
10
-29.516244679689407
20
9.9929380416870153
30
0
0
SPLINE
5
146
100
AcDbEntity
8
0
100
AcDbSpline
70
0
71
2
72
6
73
3
74
0
42
0.000000001
43
0.0000000001
44
0.0000000001
40
0
40
0
40
0
40
1
40
1
40
1
10
-29.516244679689407
20
9.9929380416870153
30
0
10
-29.389127045869827
20
10.063559412956241
30
0
10
-29.318505078554153
20
10.190677642822269
30
0
0
SPLINE
5
147
100
AcDbEntity
8
0
100
AcDbSpline
70
0
71
2
72
6
73
3
74
0
42
0.000000001
43
0.0000000001
44
0.0000000001
40
0
40
0
40
0
40
1
40
1
40
1
10
-29.318505078554153
20
10.190677642822269
30
0
10
-29.254947453737259
20
10.310734510421756
30
0
10
-29.233759194612503
20
10.466101765632633
30
0
0
SPLINE
5
148
100
AcDbEntity
8
0
100
AcDbSpline
70
0
71
2
72
6
73
3
74
0
42
0.000000001
43
0.0000000001
44
0.0000000001
40
0
40
0
40
0
40
1
40
1
40
1
10
-29.233759194612503
20
10.466101765632633
30
0
10
-29.212573319673538
20
10.621469020843509
30
0
10
-29.212573319673538
20
10.79096078872681
30
0
0
LINE
5
149
100
AcDbEntity
8
0
100
AcDbLine
10
-29.212573319673538
20
10.79096078872681
30
0
11
-29.212573319673538
21
12.500000000000004
31
0
0
LINE
5
150
100
AcDbEntity
8
0
100
AcDbLine
10
-29.212573319673538
20
12.500000000000004
30
0
11
-28.153250962495804
21
12.500000000000004
31
0
0
LINE
5
151
100
AcDbEntity
8
0
100
AcDbLine
10
-28.153250962495804
20
12.500000000000004
30
0
11
-28.153250962495804
21
7.1610170602798506
31
0
0
LINE
5
152
100
AcDbEntity
8
0
100
AcDbLine
10
-28.153250962495804
20
7.1610170602798506
30
0
11
-29.212573319673538
21
7.1610170602798506
31
0
0
SPLINE
5
153
100
AcDbEntity
8
0
100
AcDbSpline
70
0
71
2
72
6
73
3
74
0
42
0.000000001
43
0.0000000001
44
0.0000000001
40
0
40
0
40
0
40
1
40
1
40
1
10
-32.079804688692093
20
10.783898234367374
30
0
10
-32.079804688692093
20
10.374293923377994
30
0
10
-32.228110581636429
20
10.042372941970829
30
0
0
SPLINE
5
154
100
AcDbEntity
8
0
100
AcDbSpline
70
0
71
2
72
6
73
3
74
0
42
0.000000001
43
0.0000000001
44
0.0000000001
40
0
40
0
40
0
40
1
40
1
40
1
10
-32.228110581636429
20
10.042372941970829
30
0
10
-32.376414090394974
20
9.7104519605636632
30
0
10
-32.630651742219925
20
9.4774007797241246
30
0
0
SPLINE
5
155
100
AcDbEntity
8
0
100
AcDbSpline
70
0
71
2
72
6
73
3
74
0
42
0.000000001
43
0.0000000001
44
0.0000000001
40
0
40
0
40
0
40
1
40
1
40
1
10
-32.630651742219925
20
9.4774007797241246
30
0
10
-32.891951352357864
20
9.2372882366180455
30
0
10
-33.237996846437454
20
9.11016941070557
30
0
0
SPLINE
5
156
100
AcDbEntity
8
0
100
AcDbSpline
70
0
71
2
72
6
73
3
74
0
42
0.000000001
43
0.0000000001
44
0.0000000001
40
0
40
0
40
0
40
1
40
1
40
1
10
-33.237996846437454
20
9.11016941070557
30
0
10
-33.591104298830032
20
8.9830505847930944
30
0
10
-33.98658350110054
20
8.9830505847930944
30
0
0
SPLINE
5
157
100
AcDbEntity
8
0
100
AcDbSpline
70
0
71
2
72
6
73
3
74
0
42
0.000000001
43
0.0000000001
44
0.0000000001
40
0
40
0
40
0
40
1
40
1
40
1
10
-33.98658350110054
20
8.9830505847930944
30
0
10
-34.382065087556839
20
8.9830505847930944
30
0
10
-34.728110581636429
20
9.11016941070557
30
0
0
SPLINE
5
158
100
AcDbEntity
8
0
100
AcDbSpline
70
0
71
2
72
6
73
3
74
0
42
0.000000001
43
0.0000000001
44
0.0000000001
40
0
40
0
40
0
40
1
40
1
40
1
10
-34.728110581636429
20
9.11016941070557
30
0
10
-35.081215649843216
20
9.2372882366180455
30
0
10
-35.335455685853958
20
9.4774007797241246
30
0
0
SPLINE
5
159
100
AcDbEntity
8
0
100
AcDbSpline
70
0
71
2
72
6
73
3
74
0
42
0.000000001
43
0.0000000001
44
0.0000000001
40
0
40
0
40
0
40
1
40
1
40
1
10
-35.335455685853958
20
9.4774007797241246
30
0
10
-35.596752911806107
20
9.7104519605636632
30
0
10
-35.745058804750443
20
10.042372941970829
30
0
0
SPLINE
5
160
100
AcDbEntity
8
0
100
AcDbSpline
70
0
71
2
72
6
73
3
74
0
42
0.000000001
43
0.0000000001
44
0.0000000001
40
0
40
0
40
0
40
1
40
1
40
1
10
-35.745058804750443
20
10.042372941970829
30
0
10
-35.893364697694778
20
10.374293923377994
30
0
10
-35.893364697694778
20
10.783898234367374
30
0
0
SPLINE
5
161
100
AcDbEntity
8
0
100
AcDbSpline
70
0
71
2
72
6
73
3
74
0
42
0.000000001
43
0.0000000001
44
0.0000000001
40
0
40
0
40
0
40
1
40
1
40
1
10
-35.893364697694778
20
10.783898234367374
30
0
10
-35.893364697694778
20
11.193503141403202
30
0
10
-35.745058804750443
20
11.52542352676392
30
0
0
SPLINE
5
162
100
AcDbEntity
8
0
100
AcDbSpline
70
0
71
2
72
6
73
3
74
0
42
0.000000001
43
0.0000000001
44
0.0000000001
40
0
40
0
40
0
40
1
40
1
40
1
10
-35.745058804750443
20
11.52542352676392
30
0
10
-35.596752911806107
20
11.857344508171085
30
0
10
-35.335455685853958
20
12.097457647323612
30
0
0
SPLINE
5
163
100
AcDbEntity
8
0
100
AcDbSpline
70
0
71
2
72
6
73
3
74
0
42
0.000000001
43
0.0000000001
44
0.0000000001
40
0
40
0
40
0
40
1
40
1
40
1
10
-35.335455685853958
20
12.097457647323612
30
0
10
-35.081215649843216
20
12.330508232116703
30
0
10
-34.728110581636429
20
12.457627058029178
30
0
0
SPLINE
5
164
100
AcDbEntity
8
0
100
AcDbSpline
70
0
71
2
72
6
73
3
74
0
42
0.000000001
43
0.0000000001
44
0.0000000001
40
0
40
0
40
0
40
1
40
1
40
1
10
-34.728110581636429
20
12.457627058029178
30
0
10
-34.382065087556839
20
12.584745883941654
30
0
10
-33.98658350110054
20
12.584745883941654
30
0
0
SPLINE
5
165
100
AcDbEntity
8
0
100
AcDbSpline
70
0
71
2
72
6
73
3
74
0
42
0.000000001
43
0.0000000001
44
0.0000000001
40
0
40
0
40
0
40
1
40
1
40
1
10
-33.98658350110054
20
12.584745883941654
30
0
10
-33.591104298830032
20
12.584745883941654
30
0
10
-33.237996846437454
20
12.457627058029178
30
0
0
SPLINE
5
166
100
AcDbEntity
8
0
100
AcDbSpline
70
0
71
2
72
6
73
3
74
0
42
0.000000001
43
0.0000000001
44
0.0000000001
40
0
40
0
40
0
40
1
40
1
40
1
10
-33.237996846437454
20
12.457627058029178
30
0
10
-32.891951352357864
20
12.330508232116703
30
0
10
-32.630651742219925
20
12.097457647323612
30
0
0
SPLINE
5
167
100
AcDbEntity
8
0
100
AcDbSpline
70
0
71
2
72
6
73
3
74
0
42
0.000000001
43
0.0000000001
44
0.0000000001
40
0
40
0
40
0
40
1
40
1
40
1
10
-32.630651742219925
20
12.097457647323612
30
0
10
-32.376414090394974
20
11.857344508171085
30
0
10
-32.228110581636429
20
11.52542352676392
30
0
0
SPLINE
5
168
100
AcDbEntity
8
0
100
AcDbSpline
70
0
71
2
72
6
73
3
74
0
42
0.000000001
43
0.0000000001
44
0.0000000001
40
0
40
0
40
0
40
1
40
1
40
1
10
-32.228110581636429
20
11.52542352676392
30
0
10
-32.079804688692093
20
11.193503141403202
30
0
10
-32.079804688692093
20
10.783898234367374
30
0
0
SPLINE
5
169
100
AcDbEntity
8
0
100
AcDbSpline
70
0
71
2
72
6
73
3
74
0
42
0.000000001
43
0.0000000001
44
0.0000000001
40
0
40
0
40
0
40
1
40
1
40
1
10
-33.139127045869827
20
10.783898234367374
30
0
10
-33.139127045869827
20
11.172316074371341
30
0
10
-33.358054906129837
20
11.412429213523868
30
0
0
SPLINE
5
170
100
AcDbEntity
8
0
100
AcDbSpline
70
0
71
2
72
6
73
3
74
0
42
0.000000001
43
0.0000000001
44
0.0000000001
40
0
40
0
40
0
40
1
40
1
40
1
10
-33.358054906129837
20
11.412429213523868
30
0
10
-33.584042340517044
20
11.652542352676395
30
0
10
-33.98658350110054
20
11.652542352676395
30
0
0
SPLINE
5
171
100
AcDbEntity
8
0
100
AcDbSpline
70
0
71
2
72
6
73
3
74
0
42
0.000000001
43
0.0000000001
44
0.0000000001
40
0
40
0
40
0
40
1
40
1
40
1
10
-33.98658350110054
20
11.652542352676395
30
0
10
-34.389127045869827
20
11.652542352676395
30
0
10
-34.608054906129837
20
11.412429213523868
30
0
0
SPLINE
5
172
100
AcDbEntity
8
0
100
AcDbSpline
70
0
71
2
72
6
73
3
74
0
42
0.000000001
43
0.0000000001
44
0.0000000001
40
0
40
0
40
0
40
1
40
1
40
1
10
-34.608054906129837
20
11.412429213523868
30
0
10
-34.834042340517044
20
11.172316074371341
30
0
10
-34.834042340517044
20
10.783898234367374
30
0
0
SPLINE
5
173
100
AcDbEntity
8
0
100
AcDbSpline
70
0
71
2
72
6
73
3
74
0
42
0.000000001
43
0.0000000001
44
0.0000000001
40
0
40
0
40
0
40
1
40
1
40
1
10
-34.834042340517044
20
10.783898234367374
30
0
10
-34.834042340517044
20
10.395480394363407
30
0
10
-34.608054906129837
20
10.15536725521088
30
0
0
SPLINE
5
174
100
AcDbEntity
8
0
100
AcDbSpline
70
0
71
2
72
6
73
3
74
0
42
0.000000001
43
0.0000000001
44
0.0000000001
40
0
40
0
40
0
40
1
40
1
40
1
10
-34.608054906129837
20
10.15536725521088
30
0
10
-34.389127045869827
20
9.9152541160583532
30
0
10
-33.98658350110054
20
9.9152541160583532
30
0
0
SPLINE
5
175
100
AcDbEntity
8
0
100
AcDbSpline
70
0
71
2
72
6
73
3
74
0
42
0.000000001
43
0.0000000001
44
0.0000000001
40
0
40
0
40
0
40
1
40
1
40
1
10
-33.98658350110054
20
9.9152541160583532
30
0
10
-33.584042340517044
20
9.9152541160583532
30
0
10
-33.358054906129837
20
10.15536725521088
30
0
0
SPLINE
5
176
100
AcDbEntity
8
0
100
AcDbSpline
70
0
71
2
72
6
73
3
74
0
42
0.000000001
43
0.0000000001
44
0.0000000001
40
0
40
0
40
0
40
1
40
1
40
1
10
-33.358054906129837
20
10.15536725521088
30
0
10
-33.139127045869827
20
10.395480394363407
30
0
10
-33.139127045869827
20
10.783898234367374
30
0
0
LINE
5
177
100
AcDbEntity
8
0
100
AcDbLine
10
-38.852401524782181
20
9.9152541160583532
30
0
11
-37.920199185609818
21
9.9152541160583532
31
0
0
LINE
5
178
100
AcDbEntity
8
0
100
AcDbLine
10
-37.920199185609818
20
9.9152541160583532
30
0
11
-37.920199185609818
21
11.059322357177738
31
0
0
SPLINE
5
179
100
AcDbEntity
8
0
100
AcDbSpline
70
0
71
2
72
6
73
3
74
0
42
0.000000001
43
0.0000000001
44
0.0000000001
40
0
40
0
40
0
40
1
40
1
40
1
10
-37.920199185609818
20
11.059322357177738
30
0
10
-37.920199185609818
20
11.20056509971619
30
0
10
-37.934323102235794
20
11.32062137126923
30
0
0
SPLINE
5
180
100
AcDbEntity
8
0
100
AcDbSpline
70
0
71
2
72
6
73
3
74
0
42
0.000000001
43
0.0000000001
44
0.0000000001
40
0
40
0
40
0
40
1
40
1
40
1
10
-37.934323102235794
20
11.32062137126923
30
0
10
-37.948447018861771
20
11.433615684509281
30
0
10
-37.99788311123848
20
11.518361568450931
30
0
0
SPLINE
5
181
100
AcDbEntity
8
0
100
AcDbSpline
70
0
71
2
72
6
73
3
74
0
42
0.000000001
43
0.0000000001
44
0.0000000001
40
0
40
0
40
0
40
1
40
1
40
1
10
-37.99788311123848
20
11.518361568450931
30
0
10
-38.047319203615189
20
11.603107452392582
30
0
10
-38.146189004182816
20
11.652542352676395
30
0
0
SPLINE
5
182
100
AcDbEntity
8
0
100
AcDbSpline
70
0
71
2
72
6
73
3
74
0
42
0.000000001
43
0.0000000001
44
0.0000000001
40
0
40
0
40
0
40
1
40
1
40
1
10
-38.146189004182816
20
11.652542352676395
30
0
10
-38.252120763063431
20
11.69491529464722
30
0
10
-38.421612530946732
20
11.69491529464722
30
0
0
SPLINE
5
183
100
AcDbEntity
8
0
100
AcDbSpline
70
0
71
2
72
6
73
3
74
0
42
0.000000001
43
0.0000000001
44
0.0000000001
40
0
40
0
40
0
40
1
40
1
40
1
10
-38.421612530946732
20
11.69491529464722
30
0
10
-38.506358414888382
20
11.69491529464722
30
0
10
-38.64053800702095
20
11.680790781974796
30
0
0
SPLINE
5
184
100
AcDbEntity
8
0
100
AcDbSpline
70
0
71
2
72
6
73
3
74
0
42
0.000000001
43
0.0000000001
44
0.0000000001
40
0
40
0
40
0
40
1
40
1
40
1
10
-38.64053800702095
20
11.680790781974796
30
0
10
-38.781781941652298
20
11.659604310989383
30
0
10
-38.852401524782181
20
11.596045494079593
30
0
0
LINE
5
185
100
AcDbEntity
8
0
100
AcDbLine
10
-38.852401524782181
20
11.596045494079593
30
0
11
-38.852401524782181
21
12.478813529014591
31
0
0
SPLINE
5
186
100
AcDbEntity
8
0
100
AcDbSpline
70
0
71
2
72
6
73
3
74
0
42
0.000000001
43
0.0000000001
44
0.0000000001
40
0
40
0
40
0
40
1
40
1
40
1
10
-38.852401524782181
20
12.478813529014591
30
0
10
-38.675847798585892
20
12.542372941970829
30
0
10
-38.485170155763626
20
12.563559412956241
30
0
0
SPLINE
5
187
100
AcDbEntity
8
0
100
AcDbSpline
70
0
71
2
72
6
73
3
74
0
42
0.000000001
43
0.0000000001
44
0.0000000001
40
0
40
0
40
0
40
1
40
1
40
1
10
-38.485170155763626
20
12.563559412956241
30
0
10
-38.29449251294136
20
12.584745883941654
30
0
10
-38.110876828432083
20
12.584745883941654
30
0
0
SPLINE
5
188
100
AcDbEntity
8
0
100
AcDbSpline
70
0
71
2
72
6
73
3
74
0
42
0.000000001
43
0.0000000001
44
0.0000000001
40
0
40
0
40
0
40
1
40
1
40
1
10
-38.110876828432083
20
12.584745883941654
30
0
10
-37.842517644166946
20
12.584745883941654
30
0
10
-37.616527825593948
20
12.528248429298404
30
0
0
SPLINE
5
189
100
AcDbEntity
8
0
100
AcDbSpline
70
0
71
2
72
6
73
3
74
0
42
0.000000001
43
0.0000000001
44
0.0000000001
40
0
40
0
40
0
40
1
40
1
40
1
10
-37.616527825593948
20
12.528248429298404
30
0
10
-37.39053800702095
20
12.471751570701603
30
0
10
-37.22104623913765
20
12.351694703102115
30
0
0
SPLINE
5
190
100
AcDbEntity
8
0
100
AcDbSpline
70
0
71
2
72
6
73
3
74
0
42
0.000000001
43
0.0000000001
44
0.0000000001
40
0
40
0
40
0
40
1
40
1
40
1
10
-37.22104623913765
20
12.351694703102115
30
0
10
-37.051554471254349
20
12.224576473236088
30
0
10
-36.952687054872513
20
12.026836276054386
30
0
0
SPLINE
5
191
100
AcDbEntity
8
0
100
AcDbSpline
70
0
71
2
72
6
73
3
74
0
42
0.000000001
43
0.0000000001
44
0.0000000001
40
0
40
0
40
0
40
1
40
1
40
1
10
-36.952687054872513
20
12.026836276054386
30
0
10
-36.860876828432083
20
11.829096078872684
30
0
10
-36.860876828432083
20
11.546609997749332
30
0
0
LINE
5
192
100
AcDbEntity
8
0
100
AcDbLine
10
-36.860876828432083
20
11.546609997749332
30
0
11
-36.860876828432083
21
9.9152541160583532
31
0
0
LINE
5
193
100
AcDbEntity
8
0
100
AcDbLine
10
-36.860876828432083
20
9.9152541160583532
30
0
11
-36.182912141084671
21
9.9152541160583532
31
0
0
LINE
5
194
100
AcDbEntity
8
0
100
AcDbLine
10
-36.182912141084671
20
9.9152541160583532
30
0
11
-36.182912141084671
21
9.0677964687347448
31
0
0
LINE
5
195
100
AcDbEntity
8
0
100
AcDbLine
10
-36.182912141084671
20
9.0677964687347448
30
0
11
-36.860876828432083
21
9.0677964687347448
31
0
0
LINE
5
196
100
AcDbEntity
8
0
100
AcDbLine
10
-36.860876828432083
20
9.0677964687347448
30
0
11
-36.860876828432083
21
8.0508470535278356
31
0
0
LINE
5
197
100
AcDbEntity
8
0
100
AcDbLine
10
-36.860876828432083
20
8.0508470535278356
30
0
11
-37.920199185609818
21
8.0508470535278356
31
0
0
LINE
5
198
100
AcDbEntity
8
0
100
AcDbLine
10
-37.920199185609818
20
8.0508470535278356
30
0
11
-37.920199185609818
21
9.0677964687347448
31
0
0
LINE
5
199
100
AcDbEntity
8
0
100
AcDbLine
10
-37.920199185609818
20
9.0677964687347448
30
0
11
-38.852401524782181
21
9.0677964687347448
31
0
0
LINE
5
200
100
AcDbEntity
8
0
100
AcDbLine
10
-38.852401524782181
20
9.0677964687347448
30
0
11
-38.852401524782181
21
9.9152541160583532
31
0
0
SPLINE
5
201
100
AcDbEntity
8
0
100
AcDbSpline
70
0
71
2
72
6
73
3
74
0
42
0.000000001
43
0.0000000001
44
0.0000000001
40
0
40
0
40
0
40
1
40
1
40
1
10
-39.262009412050247
20
10.783898234367374
30
0
10
-39.262009412050247
20
10.374293923377994
30
0
10
-39.410312920808792
20
10.042372941970829
30
0
0
SPLINE
5
202
100
AcDbEntity
8
0
100
AcDbSpline
70
0
71
2
72
6
73
3
74
0
42
0.000000001
43
0.0000000001
44
0.0000000001
40
0
40
0
40
0
40
1
40
1
40
1
10
-39.410312920808792
20
10.042372941970829
30
0
10
-39.558616429567337
20
9.7104519605636632
30
0
10
-39.812856465578079
20
9.4774007797241246
30
0
0
SPLINE
5
203
100
AcDbEntity
8
0
100
AcDbSpline
70
0
71
2
72
6
73
3
74
0
42
0.000000001
43
0.0000000001
44
0.0000000001
40
0
40
0
40
0
40
1
40
1
40
1
10
-39.812856465578079
20
9.4774007797241246
30
0
10
-40.074153691530228
20
9.2372882366180455
30
0
10
-40.420199185609818
20
9.11016941070557
30
0
0
SPLINE
5
204
100
AcDbEntity
8
0
100
AcDbSpline
70
0
71
2
72
6
73
3
74
0
42
0.000000001
43
0.0000000001
44
0.0000000001
40
0
40
0
40
0
40
1
40
1
40
1
10
-40.420199185609818
20
9.11016941070557
30
0
10
-40.773306638002396
20
8.9830505847930944
30
0
10
-41.168785840272903
20
8.9830505847930944
30
0
0
SPLINE
5
205
100
AcDbEntity
8
0
100
AcDbSpline
70
0
71
2
72
6
73
3
74
0
42
0.000000001
43
0.0000000001
44
0.0000000001
40
0
40
0
40
0
40
1
40
1
40
1
10
-41.168785840272903
20
8.9830505847930944
30
0
10
-41.564269810914993
20
8.9830505847930944
30
0
10
-41.910310536623001
20
9.11016941070557
30
0
0
SPLINE
5
206
100
AcDbEntity
8
0
100
AcDbSpline
70
0
71
2
72
6
73
3
74
0
42
0.000000001
43
0.0000000001
44
0.0000000001
40
0
40
0
40
0
40
1
40
1
40
1
10
-41.910310536623001
20
9.11016941070557
30
0
10
-42.263417989015579
20
9.2372882366180455
30
0
10
-42.517658025026321
20
9.4774007797241246
30
0
0
SPLINE
5
207
100
AcDbEntity
8
0
100
AcDbSpline
70
0
71
2
72
6
73
3
74
0
42
0.000000001
43
0.0000000001
44
0.0000000001
40
0
40
0
40
0
40
1
40
1
40
1
10
-42.517658025026321
20
9.4774007797241246
30
0
10
-42.77895525097847
20
9.7104519605636632
30
0
10
-42.927261143922806
20
10.042372941970829
30
0
0
SPLINE
5
208
100
AcDbEntity
8
0
100
AcDbSpline
70
0
71
2
72
6
73
3
74
0
42
0.000000001
43
0.0000000001
44
0.0000000001
40
0
40
0
40
0
40
1
40
1
40
1
10
-42.927261143922806
20
10.042372941970829
30
0
10
-43.075567036867142
20
10.374293923377994
30
0
10
-43.075567036867142
20
10.783898234367374
30
0
0
SPLINE
5
209
100
AcDbEntity
8
0
100
AcDbSpline
70
0
71
2
72
6
73
3
74
0
42
0.000000001
43
0.0000000001
44
0.0000000001
40
0
40
0
40
0
40
1
40
1
40
1
10
-43.075567036867142
20
10.783898234367374
30
0
10
-43.075567036867142
20
11.193503141403202
30
0
10
-42.927261143922806
20
11.52542352676392
30
0
0
SPLINE
5
210
100
AcDbEntity
8
0
100
AcDbSpline
70
0
71
2
72
6
73
3
74
0
42
0.000000001
43
0.0000000001
44
0.0000000001
40
0
40
0
40
0
40
1
40
1
40
1
10
-42.927261143922806
20
11.52542352676392
30
0
10
-42.77895525097847
20
11.857344508171085
30
0
10
-42.517658025026321
20
12.097457647323612
30
0
0
SPLINE
5
211
100
AcDbEntity
8
0
100
AcDbSpline
70
0
71
2
72
6
73
3
74
0
42
0.000000001
43
0.0000000001
44
0.0000000001
40
0
40
0
40
0
40
1
40
1
40
1
10
-42.517658025026321
20
12.097457647323612
30
0
10
-42.263417989015579
20
12.330508232116703
30
0
10
-41.910310536623001
20
12.457627058029178
30
0
0
SPLINE
5
212
100
AcDbEntity
8
0
100
AcDbSpline
70
0
71
2
72
6
73
3
74
0
42
0.000000001
43
0.0000000001
44
0.0000000001
40
0
40
0
40
0
40
1
40
1
40
1
10
-41.910310536623001
20
12.457627058029178
30
0
10
-41.564269810914993
20
12.584745883941654
30
0
10
-41.168785840272903
20
12.584745883941654
30
0
0
SPLINE
5
213
100
AcDbEntity
8
0
100
AcDbSpline
70
0
71
2
72
6
73
3
74
0
42
0.000000001
43
0.0000000001
44
0.0000000001
40
0
40
0
40
0
40
1
40
1
40
1
10
-41.168785840272903
20
12.584745883941654
30
0
10
-40.773306638002396
20
12.584745883941654
30
0
10
-40.420199185609818
20
12.457627058029178
30
0
0
SPLINE
5
214
100
AcDbEntity
8
0
100
AcDbSpline
70
0
71
2
72
6
73
3
74
0
42
0.000000001
43
0.0000000001
44
0.0000000001
40
0
40
0
40
0
40
1
40
1
40
1
10
-40.420199185609818
20
12.457627058029178
30
0
10
-40.074153691530228
20
12.330508232116703
30
0
10
-39.812856465578079
20
12.097457647323612
30
0
0
SPLINE
5
215
100
AcDbEntity
8
0
100
AcDbSpline
70
0
71
2
72
6
73
3
74
0
42
0.000000001
43
0.0000000001
44
0.0000000001
40
0
40
0
40
0
40
1
40
1
40
1
10
-39.812856465578079
20
12.097457647323612
30
0
10
-39.558616429567337
20
11.857344508171085
30
0
10
-39.410312920808792
20
11.52542352676392
30
0
0
SPLINE
5
216
100
AcDbEntity
8
0
100
AcDbSpline
70
0
71
2
72
6
73
3
74
0
42
0.000000001
43
0.0000000001
44
0.0000000001
40
0
40
0
40
0
40
1
40
1
40
1
10
-39.410312920808792
20
11.52542352676392
30
0
10
-39.262009412050247
20
11.193503141403202
30
0
10
-39.262009412050247
20
10.783898234367374
30
0
0
SPLINE
5
217
100
AcDbEntity
8
0
100
AcDbSpline
70
0
71
2
72
6
73
3
74
0
42
0.000000001
43
0.0000000001
44
0.0000000001
40
0
40
0
40
0
40
1
40
1
40
1
10
-40.3213270008564
20
10.783898234367374
30
0
10
-40.3213270008564
20
11.172316074371341
30
0
10
-40.5402572453022
20
11.412429213523868
30
0
0
SPLINE
5
218
100
AcDbEntity
8
0
100
AcDbSpline
70
0
71
2
72
6
73
3
74
0
42
0.000000001
43
0.0000000001
44
0.0000000001
40
0
40
0
40
0
40
1
40
1
40
1
10
-40.5402572453022
20
11.412429213523868
30
0
10
-40.766244679689407
20
11.652542352676395
30
0
10
-41.168785840272903
20
11.652542352676395
30
0
0
SPLINE
5
219
100
AcDbEntity
8
0
100
AcDbSpline
70
0
71
2
72
6
73
3
74
0
42
0.000000001
43
0.0000000001
44
0.0000000001
40
0
40
0
40
0
40
1
40
1
40
1
10
-41.168785840272903
20
11.652542352676395
30
0
10
-41.5713270008564
20
11.652542352676395
30
0
10
-41.7902572453022
20
11.412429213523868
30
0
0
SPLINE
5
220
100
AcDbEntity
8
0
100
AcDbSpline
70
0
71
2
72
6
73
3
74
0
42
0.000000001
43
0.0000000001
44
0.0000000001
40
0
40
0
40
0
40
1
40
1
40
1
10
-41.7902572453022
20
11.412429213523868
30
0
10
-42.016244679689407
20
11.172316074371341
30
0
10
-42.016244679689407
20
10.783898234367374
30
0
0
SPLINE
5
221
100
AcDbEntity
8
0
100
AcDbSpline
70
0
71
2
72
6
73
3
74
0
42
0.000000001
43
0.0000000001
44
0.0000000001
40
0
40
0
40
0
40
1
40
1
40
1
10
-42.016244679689407
20
10.783898234367374
30
0
10
-42.016244679689407
20
10.395480394363407
30
0
10
-41.7902572453022
20
10.15536725521088
30
0
0
SPLINE
5
222
100
AcDbEntity
8
0
100
AcDbSpline
70
0
71
2
72
6
73
3
74
0
42
0.000000001
43
0.0000000001
44
0.0000000001
40
0
40
0
40
0
40
1
40
1
40
1
10
-41.7902572453022
20
10.15536725521088
30
0
10
-41.5713270008564
20
9.9152541160583532
30
0
10
-41.168785840272903
20
9.9152541160583532
30
0
0
SPLINE
5
223
100
AcDbEntity
8
0
100
AcDbSpline
70
0
71
2
72
6
73
3
74
0
42
0.000000001
43
0.0000000001
44
0.0000000001
40
0
40
0
40
0
40
1
40
1
40
1
10
-41.168785840272903
20
9.9152541160583532
30
0
10
-40.766244679689407
20
9.9152541160583532
30
0
10
-40.5402572453022
20
10.15536725521088
30
0
0
SPLINE
5
224
100
AcDbEntity
8
0
100
AcDbSpline
70
0
71
2
72
6
73
3
74
0
42
0.000000001
43
0.0000000001
44
0.0000000001
40
0
40
0
40
0
40
1
40
1
40
1
10
-40.5402572453022
20
10.15536725521088
30
0
10
-40.3213270008564
20
10.395480394363407
30
0
10
-40.3213270008564
20
10.783898234367374
30
0
0
SPLINE
5
225
100
AcDbEntity
8
0
100
AcDbSpline
70
0
71
2
72
6
73
3
74
0
42
0.000000001
43
0.0000000001
44
0.0000000001
40
0
40
0
40
0
40
1
40
1
40
1
10
-46.02048471570015
20
10.176553726196293
30
0
10
-45.942798405885696
20
10.063559412956241
30
0
10
-45.801559239625931
20
9.9929380416870153
30
0
0
SPLINE
5
226
100
AcDbEntity
8
0
100
AcDbSpline
70
0
71
2
72
6
73
3
74
0
42
0.000000001
43
0.0000000001
44
0.0000000001
40
0
40
0
40
0
40
1
40
1
40
1
10
-45.801559239625931
20
9.9929380416870153
30
0
10
-45.660310536623001
20
9.9152541160583532
30
0
10
-45.497880727052689
20
9.9152541160583532
30
0
0
SPLINE
5
227
100
AcDbEntity
8
0
100
AcDbSpline
70
0
71
2
72
6
73
3
74
0
42
0.000000001
43
0.0000000001
44
0.0000000001
40
0
40
0
40
0
40
1
40
1
40
1
10
-45.497880727052689
20
9.9152541160583532
30
0
10
-45.095344334840775
20
9.9152541160583532
30
0
10
-44.869352132081985
20
10.15536725521088
30
0
0
SPLINE
5
228
100
AcDbEntity
8
0
100
AcDbSpline
70
0
71
2
72
6
73
3
74
0
42
0.000000001
43
0.0000000001
44
0.0000000001
40
0
40
0
40
0
40
1
40
1
40
1
10
-44.869352132081985
20
10.15536725521088
30
0
10
-44.650426656007767
20
10.395480394363407
30
0
10
-44.650426656007767
20
10.783898234367374
30
0
0
SPLINE
5
229
100
AcDbEntity
8
0
100
AcDbSpline
70
0
71
2
72
6
73
3
74
0
42
0.000000001
43
0.0000000001
44
0.0000000001
40
0
40
0
40
0
40
1
40
1
40
1
10
-44.650426656007767
20
10.783898234367374
30
0
10
-44.650426656007767
20
11.172316074371341
30
0
10
-44.869352132081985
20
11.412429213523868
30
0
0
SPLINE
5
230
100
AcDbEntity
8
0
100
AcDbSpline
70
0
71
2
72
6
73
3
74
0
42
0.000000001
43
0.0000000001
44
0.0000000001
40
0
40
0
40
0
40
1
40
1
40
1
10
-44.869352132081985
20
11.412429213523868
30
0
10
-45.095344334840775
20
11.652542352676395
30
0
10
-45.497880727052689
20
11.652542352676395
30
0
0
SPLINE
5
231
100
AcDbEntity
8
0
100
AcDbSpline
70
0
71
2
72
6
73
3
74
0
42
0.000000001
43
0.0000000001
44
0.0000000001
40
0
40
0
40
0
40
1
40
1
40
1
10
-45.497880727052689
20
11.652542352676395
30
0
10
-45.674434453248978
20
11.652542352676395
30
0
10
-45.801559239625931
20
11.574858427047733
30
0
0
SPLINE
5
232
100
AcDbEntity
8
0
100
AcDbSpline
70
0
71
2
72
6
73
3
74
0
42
0.000000001
43
0.0000000001
44
0.0000000001
40
0
40
0
40
0
40
1
40
1
40
1
10
-45.801559239625931
20
11.574858427047733
30
0
10
-45.92867448925972
20
11.497175097465519
30
0
10
-46.02048471570015
20
11.391242742538456
30
0
0
LINE
5
233
100
AcDbEntity
8
0
100
AcDbLine
10
-46.02048471570015
20
11.391242742538456
30
0
11
-46.719632893800735
21
12.125706076622013
31
0
0
SPLINE
5
234
100
AcDbEntity
8
0
100
AcDbSpline
70
0
71
2
72
6
73
3
74
0
42
0.000000001
43
0.0000000001
44
0.0000000001
40
0
40
0
40
0
40
1
40
1
40
1
10
-46.719632893800735
20
12.125706076622013
30
0
10
-46.472459584474564
20
12.379943728446964
30
0
10
-46.133476048707962
20
12.485875487327579
30
0
0
SPLINE
5
235
100
AcDbEntity
8
0
100
AcDbSpline
70
0
71
2
72
6
73
3
74
0
42
0.000000001
43
0.0000000001
44
0.0000000001
40
0
40
0
40
0
40
1
40
1
40
1
10
-46.133476048707962
20
12.485875487327579
30
0
10
-45.801559239625931
20
12.584745883941654
30
0
10
-45.497880727052689
20
12.584745883941654
30
0
0
SPLINE
5
236
100
AcDbEntity
8
0
100
AcDbSpline
70
0
71
2
72
6
73
3
74
0
42
0.000000001
43
0.0000000001
44
0.0000000001
40
0
40
0
40
0
40
1
40
1
40
1
10
-45.497880727052689
20
12.584745883941654
30
0
10
-45.102401524782181
20
12.584745883941654
30
0
10
-44.749294072389603
20
12.457627058029178
30
0
0
SPLINE
5
237
100
AcDbEntity
8
0
100
AcDbSpline
70
0
71
2
72
6
73
3
74
0
42
0.000000001
43
0.0000000001
44
0.0000000001
40
0
40
0
40
0
40
1
40
1
40
1
10
-44.749294072389603
20
12.457627058029178
30
0
10
-44.403253346681595
20
12.330508232116703
30
0
10
-44.141951352357864
20
12.097457647323612
30
0
0
SPLINE
5
238
100
AcDbEntity
8
0
100
AcDbSpline
70
0
71
2
72
6
73
3
74
0
42
0.000000001
43
0.0000000001
44
0.0000000001
40
0
40
0
40
0
40
1
40
1
40
1
10
-44.141951352357864
20
12.097457647323612
30
0
10
-43.887716084718704
20
11.857344508171085
30
0
10
-43.739410191774368
20
11.52542352676392
30
0
0
SPLINE
5
239
100
AcDbEntity
8
0
100
AcDbSpline
70
0
71
2
72
6
73
3
74
0
42
0.000000001
43
0.0000000001
44
0.0000000001
40
0
40
0
40
0
40
1
40
1
40
1
10
-43.739410191774368
20
11.52542352676392
30
0
10
-43.591104298830032
20
11.193503141403202
30
0
10
-43.591104298830032
20
10.783898234367374
30
0
0
SPLINE
5
240
100
AcDbEntity
8
0
100
AcDbSpline
70
0
71
2
72
6
73
3
74
0
42
0.000000001
43
0.0000000001
44
0.0000000001
40
0
40
0
40
0
40
1
40
1
40
1
10
-43.591104298830032
20
10.783898234367374
30
0
10
-43.591104298830032
20
10.374293923377994
30
0
10
-43.739410191774368
20
10.042372941970829
30
0
0
SPLINE
5
241
100
AcDbEntity
8
0
100
AcDbSpline
70
0
71
2
72
6
73
3
74
0
42
0.000000001
43
0.0000000001
44
0.0000000001
40
0
40
0
40
0
40
1
40
1
40
1
10
-43.739410191774368
20
10.042372941970829
30
0
10
-43.887716084718704
20
9.7104519605636632
30
0
10
-44.141951352357864
20
9.4774007797241246
30
0
0
SPLINE
5
242
100
AcDbEntity
8
0
100
AcDbSpline
70
0
71
2
72
6
73
3
74
0
42
0.000000001
43
0.0000000001
44
0.0000000001
40
0
40
0
40
0
40
1
40
1
40
1
10
-44.141951352357864
20
9.4774007797241246
30
0
10
-44.403253346681595
20
9.2372882366180455
30
0
10
-44.749294072389603
20
9.11016941070557
30
0
0
SPLINE
5
243
100
AcDbEntity
8
0
100
AcDbSpline
70
0
71
2
72
6
73
3
74
0
42
0.000000001
43
0.0000000001
44
0.0000000001
40
0
40
0
40
0
40
1
40
1
40
1
10
-44.749294072389603
20
9.11016941070557
30
0
10
-45.102401524782181
20
8.9830505847930944
30
0
10
-45.497880727052689
20
8.9830505847930944
30
0
0
SPLINE
5
244
100
AcDbEntity
8
0
100
AcDbSpline
70
0
71
2
72
6
73
3
74
0
42
0.000000001
43
0.0000000001
44
0.0000000001
40
0
40
0
40
0
40
1
40
1
40
1
10
-45.497880727052689
20
8.9830505847930944
30
0
10
-45.801559239625931
20
8.9830505847930944
30
0
10
-46.133476048707962
20
9.0889829397201574
30
0
0
SPLINE
5
245
100
AcDbEntity
8
0
100
AcDbSpline
70
0
71
2
72
6
73
3
74
0
42
0.000000001
43
0.0000000001
44
0.0000000001
40
0
40
0
40
0
40
1
40
1
40
1
10
-46.133476048707962
20
9.0889829397201574
30
0
10
-46.472459584474564
20
9.1878533363342321
30
0
10
-46.719632893800735
20
9.4420903921127355
30
0
0
LINE
5
246
100
AcDbEntity
8
0
100
AcDbLine
10
-46.719632893800735
20
9.4420903921127355
30
0
11
-46.02048471570015
21
10.176553726196293
31
0
0
SPLINE
5
247
100
AcDbEntity
8
0
100
AcDbSpline
70
0
71
2
72
6
73
3
74
0
42
0.000000001
43
0.0000000001
44
0.0000000001
40
0
40
0
40
0
40
1
40
1
40
1
10
-50.349579602479935
20
11.906779408454899
30
0
10
-50.095344334840775
20
12.231638431549076
30
0
10
-49.706922322511673
20
12.408192157745365
30
0
0
SPLINE
5
248
100
AcDbEntity
8
0
100
AcDbSpline
70
0
71
2
72
6
73
3
74
0
42
0.000000001
43
0.0000000001
44
0.0000000001
40
0
40
0
40
0
40
1
40
1
40
1
10
-49.706922322511673
20
12.408192157745365
30
0
10
-49.318505078554153
20
12.584745883941654
30
0
10
-48.901840001344681
20
12.584745883941654
30
0
0
SPLINE
5
249
100
AcDbEntity
8
0
100
AcDbSpline
70
0
71
2
72
6
73
3
74
0
42
0.000000001
43
0.0000000001
44
0.0000000001
40
0
40
0
40
0
40
1
40
1
40
1
10
-48.901840001344681
20
12.584745883941654
30
0
10
-48.506360799074173
20
12.584745883941654
30
0
10
-48.153253346681595
20
12.457627058029178
30
0
0
SPLINE
5
250
100
AcDbEntity
8
0
100
AcDbSpline
70
0
71
2
72
6
73
3
74
0
42
0.000000001
43
0.0000000001
44
0.0000000001
40
0
40
0
40
0
40
1
40
1
40
1
10
-48.153253346681595
20
12.457627058029178
30
0
10
-47.807203084230423
20
12.330508232116703
30
0
10
-47.545905858278275
20
12.097457647323612
30
0
0
SPLINE
5
251
100
AcDbEntity
8
0
100
AcDbSpline
70
0
71
2
72
6
73
3
74
0
42
0.000000001
43
0.0000000001
44
0.0000000001
40
0
40
0
40
0
40
1
40
1
40
1
10
-47.545905858278275
20
12.097457647323612
30
0
10
-47.291670590639114
20
11.857344508171085
30
0
10
-47.143364697694778
20
11.52542352676392
30
0
0
SPLINE
5
252
100
AcDbEntity
8
0
100
AcDbSpline
70
0
71
2
72
6
73
3
74
0
42
0.000000001
43
0.0000000001
44
0.0000000001
40
0
40
0
40
0
40
1
40
1
40
1
10
-47.143364697694778
20
11.52542352676392
30
0
10
-46.995058804750443
20
11.193503141403202
30
0
10
-46.995058804750443
20
10.783898234367374
30
0
0
SPLINE
5
253
100
AcDbEntity
8
0
100
AcDbSpline
70
0
71
2
72
6
73
3
74
0
42
0.000000001
43
0.0000000001
44
0.0000000001
40
0
40
0
40
0
40
1
40
1
40
1
10
-46.995058804750443
20
10.783898234367374
30
0
10
-46.995058804750443
20
10.374293923377994
30
0
10
-47.143364697694778
20
10.042372941970829
30
0
0
SPLINE
5
254
100
AcDbEntity
8
0
100
AcDbSpline
70
0
71
2
72
6
73
3
74
0
42
0.000000001
43
0.0000000001
44
0.0000000001
40
0
40
0
40
0
40
1
40
1
40
1
10
-47.143364697694778
20
10.042372941970829
30
0
10
-47.291670590639114
20
9.7104519605636632
30
0
10
-47.545905858278275
20
9.4774007797241246
30
0
0
SPLINE
5
255
100
AcDbEntity
8
0
100
AcDbSpline
70
0
71
2
72
6
73
3
74
0
42
0.000000001
43
0.0000000001
44
0.0000000001
40
0
40
0
40
0
40
1
40
1
40
1
10
-47.545905858278275
20
9.4774007797241246
30
0
10
-47.807203084230423
20
9.2372882366180455
30
0
10
-48.153253346681595
20
9.11016941070557
30
0
0
SPLINE
5
256
100
AcDbEntity
8
0
100
AcDbSpline
70
0
71
2
72
6
73
3
74
0
42
0.000000001
43
0.0000000001
44
0.0000000001
40
0
40
0
40
0
40
1
40
1
40
1
10
-48.153253346681595
20
9.11016941070557
30
0
10
-48.506360799074173
20
8.9830505847930944
30
0
10
-48.901840001344681
20
8.9830505847930944
30
0
0
SPLINE
5
257
100
AcDbEntity
8
0
100
AcDbSpline
70
0
71
2
72
6
73
3
74
0
42
0.000000001
43
0.0000000001
44
0.0000000001
40
0
40
0
40
0
40
1
40
1
40
1
10
-48.901840001344681
20
8.9830505847930944
30
0
10
-49.269071370363235
20
8.9830505847930944
30
0
10
-49.565683156251907
20
9.11016941070557
30
0
0
SPLINE
5
258
100
AcDbEntity
8
0
100
AcDbSpline
70
0
71
2
72
6
73
3
74
0
42
0.000000001
43
0.0000000001
44
0.0000000001
40
0
40
0
40
0
40
1
40
1
40
1
10
-49.565683156251907
20
9.11016941070557
30
0
10
-49.869352132081985
20
9.2372882366180455
30
0
10
-50.074153691530228
20
9.4774007797241246
30
0
0
SPLINE
5
259
100
AcDbEntity
8
0
100
AcDbSpline
70
0
71
2
72
6
73
3
74
0
42
0.000000001
43
0.0000000001
44
0.0000000001
40
0
40
0
40
0
40
1
40
1
40
1
10
-50.074153691530228
20
9.4774007797241246
30
0
10
-50.28602197766304
20
9.7104519605636632
30
0
10
-50.399013310670853
20
10.042372941970829
30
0
0
SPLINE
5
260
100
AcDbEntity
8
0
100
AcDbSpline
70
0
71
2
72
6
73
3
74
0
42
0.000000001
43
0.0000000001
44
0.0000000001
40
0
40
0
40
0
40
1
40
1
40
1
10
-50.399013310670853
20
10.042372941970829
30
0
10
-50.512009412050247
20
10.374293923377994
30
0
10
-50.512009412050247
20
10.783898234367374
30
0
0
LINE
5
261
100
AcDbEntity
8
0
100
AcDbLine
10
-50.512009412050247
20
10.783898234367374
30
0
11
-50.512009412050247
21
11.11581921577454
31
0
0
LINE
5
262
100
AcDbEntity
8
0
100
AcDbLine
10
-50.512009412050247
20
11.11581921577454
30
0
11
-48.054381161928177
21
11.11581921577454
31
0
0
SPLINE
5
263
100
AcDbEntity
8
0
100
AcDbSpline
70
0
71
2
72
6
73
3
74
0
42
0.000000001
43
0.0000000001
44
0.0000000001
40
0
40
0
40
0
40
1
40
1
40
1
10
-48.054381161928177
20
11.11581921577454
30
0
10
-48.117938786745071
20
11.419491767883304
30
0
10
-48.329807072877884
20
11.603107452392582
30
0
0
SPLINE
5
264
100
AcDbEntity
8
0
100
AcDbSpline
70
0
71
2
72
6
73
3
74
0
42
0.000000001
43
0.0000000001
44
0.0000000001
40
0
40
0
40
0
40
1
40
1
40
1
10
-48.329807072877884
20
11.603107452392582
30
0
10
-48.541670590639114
20
11.779661178588871
30
0
10
-48.852401524782181
20
11.779661178588871
30
0
0
SPLINE
5
265
100
AcDbEntity
8
0
100
AcDbSpline
70
0
71
2
72
6
73
3
74
0
42
0.000000001
43
0.0000000001
44
0.0000000001
40
0
40
0
40
0
40
1
40
1
40
1
10
-48.852401524782181
20
11.779661178588871
30
0
10
-49.113703519105911
20
11.779661178588871
30
0
10
-49.2902572453022
20
11.666666865348819
30
0
0
SPLINE
5
266
100
AcDbEntity
8
0
100
AcDbSpline
70
0
71
2
72
6
73
3
74
0
42
0.000000001
43
0.0000000001
44
0.0000000001
40
0
40
0
40
0
40
1
40
1
40
1
10
-49.2902572453022
20
11.666666865348819
30
0
10
-49.473872929811478
20
11.546609997749332
30
0
10
-49.608054906129837
20
11.362994313240055
30
0
0
LINE
5
267
100
AcDbEntity
8
0
100
AcDbLine
10
-49.608054906129837
20
11.362994313240055
30
0
11
-50.349579602479935
21
11.906779408454899
31
0
0
SPLINE
5
268
100
AcDbEntity
8
0
100
AcDbSpline
70
0
71
2
72
6
73
3
74
0
42
0.000000001
43
0.0000000001
44
0.0000000001
40
0
40
0
40
0
40
1
40
1
40
1
10
-49.452687054872513
20
10.395480394363407
30
0
10
-49.459749013185501
20
10.127118825912479
30
0
10
-49.276133328676224
20
9.9364405870437658
30
0
0
SPLINE
5
269
100
AcDbEntity
8
0
100
AcDbSpline
70
0
71
2
72
6
73
3
74
0
42
0.000000001
43
0.0000000001
44
0.0000000001
40
0
40
0
40
0
40
1
40
1
40
1
10
-49.276133328676224
20
9.9364405870437658
30
0
10
-49.092517644166946
20
9.7457623481750524
30
0
10
-48.802972584962845
20
9.7457623481750524
30
0
0
SPLINE
5
270
100
AcDbEntity
8
0
100
AcDbSpline
70
0
71
2
72
6
73
3
74
0
42
0.000000001
43
0.0000000001
44
0.0000000001
40
0
40
0
40
0
40
1
40
1
40
1
10
-48.802972584962845
20
9.7457623481750524
30
0
10
-48.626418858766556
20
9.7457623481750524
30
0
10
-48.492236882448196
20
9.8022598028183019
30
0
0
SPLINE
5
271
100
AcDbEntity
8
0
100
AcDbSpline
70
0
71
2
72
6
73
3
74
0
42
0.000000001
43
0.0000000001
44
0.0000000001
40
0
40
0
40
0
40
1
40
1
40
1
10
-48.492236882448196
20
9.8022598028183019
30
0
10
-48.358054906129837
20
9.8587572574615514
30
0
10
-48.259182721376419
20
9.9505650997161901
30
0
0
SPLINE
5
272
100
AcDbEntity
8
0
100
AcDbSpline
70
0
71
2
72
6
73
3
74
0
42
0.000000001
43
0.0000000001
44
0.0000000001
40
0
40
0
40
0
40
1
40
1
40
1
10
-48.259182721376419
20
9.9505650997161901
30
0
10
-48.167377263307571
20
10.03531098365784
30
0
10
-48.110881596803665
20
10.15536725521088
30
0
0
SPLINE
5
273
100
AcDbEntity
8
0
100
AcDbSpline
70
0
71
2
72
6
73
3
74
0
42
0.000000001
43
0.0000000001
44
0.0000000001
40
0
40
0
40
0
40
1
40
1
40
1
10
-48.110881596803665
20
10.15536725521088
30
0
10
-48.061443120241165
20
10.268361568450931
30
0
10
-48.054381161928177
20
10.395480394363407
30
0
0
LINE
5
274
100
AcDbEntity
8
0
100
AcDbLine
10
-48.054381161928177
20
10.395480394363407
30
0
11
-49.452687054872513
21
10.395480394363407
31
0
0
LINE
5
275
100
AcDbEntity
8
0
100
AcDbLine
10
-51.168790608644485
20
7.1610170602798506
30
0
11
-52.22811296582222
21
7.1610170602798506
31
0
0
LINE
5
276
100
AcDbEntity
8
0
100
AcDbLine
10
-52.22811296582222
20
7.1610170602798506
30
0
11
-52.22811296582222
21
12.500000000000004
31
0
0
LINE
5
277
100
AcDbEntity
8
0
100
AcDbLine
10
-52.22811296582222
20
12.500000000000004
30
0
11
-51.168790608644485
21
12.500000000000004
31
0
0
LINE
5
278
100
AcDbEntity
8
0
100
AcDbLine
10
-51.168790608644485
20
12.500000000000004
30
0
11
-51.168790608644485
21
7.1610170602798506
31
0
0
LINE
5
279
100
AcDbEntity
8
0
100
AcDbLine
10
-53.004947453737259
20
7.1610170602798506
30
0
11
-54.064269810914993
21
7.1610170602798506
31
0
0
LINE
5
280
100
AcDbEntity
8
0
100
AcDbLine
10
-54.064269810914993
20
7.1610170602798506
30
0
11
-54.064269810914993
21
12.500000000000004
31
0
0
LINE
5
281
100
AcDbEntity
8
0
100
AcDbLine
10
-54.064269810914993
20
12.500000000000004
30
0
11
-53.004947453737259
21
12.500000000000004
31
0
0
LINE
5
282
100
AcDbEntity
8
0
100
AcDbLine
10
-53.004947453737259
20
12.500000000000004
30
0
11
-53.004947453737259
21
7.1610170602798506
31
0
0
LINE
5
283
100
AcDbEntity
8
0
100
AcDbLine
10
-57.051554471254349
20
7.5000000000000044
30
0
11
-58.704095631837845
21
7.5000000000000044
31
0
0
SPLINE
5
284
100
AcDbEntity
8
0
100
AcDbSpline
70
0
71
2
72
6
73
3
74
0
42
0.000000001
43
0.0000000001
44
0.0000000001
40
0
40
0
40
0
40
1
40
1
40
1
10
-58.704095631837845
20
7.5000000000000044
30
0
10
-59.304381161928177
20
7.5000000000000044
30
0
10
-59.841104298830032
20
7.6341807842254683
30
0
0
SPLINE
5
285
100
AcDbEntity
8
0
100
AcDbSpline
70
0
71
2
72
6
73
3
74
0
42
0.000000001
43
0.0000000001
44
0.0000000001
40
0
40
0
40
0
40
1
40
1
40
1
10
-59.841104298830032
20
7.6341807842254683
30
0
10
-60.384889394044876
20
7.7683615684509322
30
0
10
-60.787430554628372
20
8.0720341205596959
30
0
0
SPLINE
5
286
100
AcDbEntity
8
0
100
AcDbSpline
70
0
71
2
72
6
73
3
74
0
42
0.000000001
43
0.0000000001
44
0.0000000001
40
0
40
0
40
0
40
1
40
1
40
1
10
-60.787430554628372
20
8.0720341205596959
30
0
10
-61.189971715211868
20
8.3686441183090245
30
0
10
-61.423021107912064
20
8.8488698005676305
30
0
0
SPLINE
5
287
100
AcDbEntity
8
0
100
AcDbSpline
70
0
71
2
72
6
73
3
74
0
42
0.000000001
43
0.0000000001
44
0.0000000001
40
0
40
0
40
0
40
1
40
1
40
1
10
-61.423021107912064
20
8.8488698005676305
30
0
10
-61.663137227296829
20
9.3290960788726842
30
0
10
-61.663137227296829
20
10.01412391662598
30
0
0
SPLINE
5
288
100
AcDbEntity
8
0
100
AcDbSpline
70
0
71
2
72
6
73
3
74
0
42
0.000000001
43
0.0000000001
44
0.0000000001
40
0
40
0
40
0
40
1
40
1
40
1
10
-61.663137227296829
20
10.01412391662598
30
0
10
-61.663137227296829
20
10.621469020843509
30
0
10
-61.430087834596634
20
11.087570786476139
30
0
0
SPLINE
5
289
100
AcDbEntity
8
0
100
AcDbSpline
70
0
71
2
72
6
73
3
74
0
42
0.000000001
43
0.0000000001
44
0.0000000001
40
0
40
0
40
0
40
1
40
1
40
1
10
-61.430087834596634
20
11.087570786476139
30
0
10
-61.204095631837845
20
11.546609997749332
30
0
10
-60.815683156251907
20
11.864407062530521
30
0
0
SPLINE
5
290
100
AcDbEntity
8
0
100
AcDbSpline
70
0
71
2
72
6
73
3
74
0
42
0.000000001
43
0.0000000001
44
0.0000000001
40
0
40
0
40
0
40
1
40
1
40
1
10
-60.815683156251907
20
11.864407062530521
30
0
10
-60.427261143922806
20
12.175140976905826
30
0
10
-59.918785840272903
20
12.337570786476139
30
0
0
SPLINE
5
291
100
AcDbEntity
8
0
100
AcDbSpline
70
0
71
2
72
6
73
3
74
0
42
0.000000001
43
0.0000000001
44
0.0000000001
40
0
40
0
40
0
40
1
40
1
40
1
10
-59.918785840272903
20
12.337570786476139
30
0
10
-59.410310536623001
20
12.500000000000004
30
0
10
-58.852401524782181
20
12.500000000000004
30
0
0
LINE
5
292
100
AcDbEntity
8
0
100
AcDbLine
10
-58.852401524782181
20
12.500000000000004
30
0
11
-57.051554471254349
21
12.500000000000004
31
0
0
LINE
5
293
100
AcDbEntity
8
0
100
AcDbLine
10
-57.051554471254349
20
12.500000000000004
30
0
11
-57.051554471254349
21
7.5000000000000044
31
0
0
LINE
5
294
100
AcDbEntity
8
0
100
AcDbLine
10
-58.153253346681595
20
11.483050584793094
30
0
11
-58.725286275148392
21
11.483050584793094
31
0
0
SPLINE
5
295
100
AcDbEntity
8
0
100
AcDbSpline
70
0
71
2
72
6
73
3
74
0
42
0.000000001
43
0.0000000001
44
0.0000000001
40
0
40
0
40
0
40
1
40
1
40
1
10
-58.725286275148392
20
11.483050584793094
30
0
10
-59.106641560792923
20
11.483050584793094
30
0
10
-59.431501179933548
20
11.40536725521088
30
0
0
SPLINE
5
296
100
AcDbEntity
8
0
100
AcDbSpline
70
0
71
2
72
6
73
3
74
0
42
0.000000001
43
0.0000000001
44
0.0000000001
40
0
40
0
40
0
40
1
40
1
40
1
10
-59.431501179933548
20
11.40536725521088
30
0
10
-59.763417989015579
20
11.327683925628666
30
0
10
-60.003534108400345
20
11.151130199432377
30
0
0
SPLINE
5
297
100
AcDbEntity
8
0
100
AcDbSpline
70
0
71
2
72
6
73
3
74
0
42
0.000000001
43
0.0000000001
44
0.0000000001
40
0
40
0
40
0
40
1
40
1
40
1
10
-60.003534108400345
20
11.151130199432377
30
0
10
-60.243645459413528
20
10.967513918876652
30
0
10
-60.377827435731888
20
10.677965879440311
30
0
0
SPLINE
5
298
100
AcDbEntity
8
0
100
AcDbSpline
70
0
71
2
72
6
73
3
74
0
42
0.000000001
43
0.0000000001
44
0.0000000001
40
0
40
0
40
0
40
1
40
1
40
1
10
-60.377827435731888
20
10.677965879440311
30
0
10
-60.519071370363235
20
10.381355881690983
30
0
10
-60.519071370363235
20
9.9576270580291784
30
0
0
SPLINE
5
299
100
AcDbEntity
8
0
100
AcDbSpline
70
0
71
2
72
6
73
3
74
0
42
0.000000001
43
0.0000000001
44
0.0000000001
40
0
40
0
40
0
40
1
40
1
40
1
10
-60.519071370363235
20
9.9576270580291784
30
0
10
-60.519071370363235
20
9.5903956890106237
30
0
10
-60.377827435731888
20
9.3220341205596959
30
0
0
SPLINE
5
300
100
AcDbEntity
8
0
100
AcDbSpline
70
0
71
2
72
6
73
3
74
0
42
0.000000001
43
0.0000000001
44
0.0000000001
40
0
40
0
40
0
40
1
40
1
40
1
10
-60.377827435731888
20
9.3220341205596959
30
0
10
-60.243645459413528
20
9.0466105937957799
30
0
10
-60.010591298341751
20
8.8700568675994909
30
0
0
SPLINE
5
301
100
AcDbEntity
8
0
100
AcDbSpline
70
0
71
2
72
6
73
3
74
0
42
0.000000001
43
0.0000000001
44
0.0000000001
40
0
40
0
40
0
40
1
40
1
40
1
10
-60.010591298341751
20
8.8700568675994909
30
0
10
-59.777541905641556
20
8.6935031414032018
30
0
10
-59.459749013185501
20
8.6087572574615514
30
0
0
SPLINE
5
302
100
AcDbEntity
8
0
100
AcDbSpline
70
0
71
2
72
6
73
3
74
0
42
0.000000001
43
0.0000000001
44
0.0000000001
40
0
40
0
40
0
40
1
40
1
40
1
10
-59.459749013185501
20
8.6087572574615514
30
0
10
-59.149013310670853
20
8.5169494152069127
30
0
10
-58.802967816591263
20
8.5169494152069127
30
0
0
LINE
5
303
100
AcDbEntity
8
0
100
AcDbLine
10
-58.802967816591263
20
8.5169494152069127
30
0
11
-58.153253346681595
21
8.5169494152069127
31
0
0
LINE
5
304
100
AcDbEntity
8
0
100
AcDbLine
10
-58.153253346681595
20
8.5169494152069127
30
0
11
-58.153253346681595
21
11.483050584793094
31
0
0
SPLINE
5
305
100
AcDbEntity
8
0
100
AcDbSpline
70
0
71
2
72
6
73
3
74
0
42
0.000000001
43
0.0000000001
44
0.0000000001
40
0
40
0
40
0
40
1
40
1
40
1
10
-65.526128560304642
20
11.906779408454899
30
0
10
-65.271898061037064
20
12.231638431549076
30
0
10
-64.883476048707962
20
12.408192157745365
30
0
0
SPLINE
5
306
100
AcDbEntity
8
0
100
AcDbSpline
70
0
71
2
72
6
73
3
74
0
42
0.000000001
43
0.0000000001
44
0.0000000001
40
0
40
0
40
0
40
1
40
1
40
1
10
-64.883476048707962
20
12.408192157745365
30
0
10
-64.495063573122025
20
12.584745883941654
30
0
10
-64.07839372754097
20
12.584745883941654
30
0
0
SPLINE
5
307
100
AcDbEntity
8
0
100
AcDbSpline
70
0
71
2
72
6
73
3
74
0
42
0.000000001
43
0.0000000001
44
0.0000000001
40
0
40
0
40
0
40
1
40
1
40
1
10
-64.07839372754097
20
12.584745883941654
30
0
10
-63.682914525270462
20
12.584745883941654
30
0
10
-63.329807072877884
20
12.457627058029178
30
0
0
SPLINE
5
308
100
AcDbEntity
8
0
100
AcDbSpline
70
0
71
2
72
6
73
3
74
0
42
0.000000001
43
0.0000000001
44
0.0000000001
40
0
40
0
40
0
40
1
40
1
40
1
10
-63.329807072877884
20
12.457627058029178
30
0
10
-62.983756810426712
20
12.330508232116703
30
0
10
-62.722459584474564
20
12.097457647323612
30
0
0
SPLINE
5
309
100
AcDbEntity
8
0
100
AcDbSpline
70
0
71
2
72
6
73
3
74
0
42
0.000000001
43
0.0000000001
44
0.0000000001
40
0
40
0
40
0
40
1
40
1
40
1
10
-62.722459584474564
20
12.097457647323612
30
0
10
-62.468224316835403
20
11.857344508171085
30
0
10
-62.319918423891068
20
11.52542352676392
30
0
0
SPLINE
5
310
100
AcDbEntity
8
0
100
AcDbSpline
70
0
71
2
72
6
73
3
74
0
42
0.000000001
43
0.0000000001
44
0.0000000001
40
0
40
0
40
0
40
1
40
1
40
1
10
-62.319918423891068
20
11.52542352676392
30
0
10
-62.171612530946732
20
11.193503141403202
30
0
10
-62.171612530946732
20
10.783898234367374
30
0
0
SPLINE
5
311
100
AcDbEntity
8
0
100
AcDbSpline
70
0
71
2
72
6
73
3
74
0
42
0.000000001
43
0.0000000001
44
0.0000000001
40
0
40
0
40
0
40
1
40
1
40
1
10
-62.171612530946732
20
10.783898234367374
30
0
10
-62.171612530946732
20
10.374293923377994
30
0
10
-62.319918423891068
20
10.042372941970829
30
0
0
SPLINE
5
312
100
AcDbEntity
8
0
100
AcDbSpline
70
0
71
2
72
6
73
3
74
0
42
0.000000001
43
0.0000000001
44
0.0000000001
40
0
40
0
40
0
40
1
40
1
40
1
10
-62.319918423891068
20
10.042372941970829
30
0
10
-62.468224316835403
20
9.7104519605636632
30
0
10
-62.722459584474564
20
9.4774007797241246
30
0
0
SPLINE
5
313
100
AcDbEntity
8
0
100
AcDbSpline
70
0
71
2
72
6
73
3
74
0
42
0.000000001
43
0.0000000001
44
0.0000000001
40
0
40
0
40
0
40
1
40
1
40
1
10
-62.722459584474564
20
9.4774007797241246
30
0
10
-62.983756810426712
20
9.2372882366180455
30
0
10
-63.329807072877884
20
9.11016941070557
30
0
0
SPLINE
5
314
100
AcDbEntity
8
0
100
AcDbSpline
70
0
71
2
72
6
73
3
74
0
42
0.000000001
43
0.0000000001
44
0.0000000001
40
0
40
0
40
0
40
1
40
1
40
1
10
-63.329807072877884
20
9.11016941070557
30
0
10
-63.682914525270462
20
8.9830505847930944
30
0
10
-64.07839372754097
20
8.9830505847930944
30
0
0
SPLINE
5
315
100
AcDbEntity
8
0
100
AcDbSpline
70
0
71
2
72
6
73
3
74
0
42
0.000000001
43
0.0000000001
44
0.0000000001
40
0
40
0
40
0
40
1
40
1
40
1
10
-64.07839372754097
20
8.9830505847930944
30
0
10
-64.445625096559525
20
8.9830505847930944
30
0
10
-64.742236882448196
20
9.11016941070557
30
0
0
SPLINE
5
316
100
AcDbEntity
8
0
100
AcDbSpline
70
0
71
2
72
6
73
3
74
0
42
0.000000001
43
0.0000000001
44
0.0000000001
40
0
40
0
40
0
40
1
40
1
40
1
10
-64.742236882448196
20
9.11016941070557
30
0
10
-65.045905858278275
20
9.2372882366180455
30
0
10
-65.250707417726517
20
9.4774007797241246
30
0
0
SPLINE
5
317
100
AcDbEntity
8
0
100
AcDbSpline
70
0
71
2
72
6
73
3
74
0
42
0.000000001
43
0.0000000001
44
0.0000000001
40
0
40
0
40
0
40
1
40
1
40
1
10
-65.250707417726517
20
9.4774007797241246
30
0
10
-65.462575703859329
20
9.7104519605636632
30
0
10
-65.575567036867142
20
10.042372941970829
30
0
0
SPLINE
5
318
100
AcDbEntity
8
0
100
AcDbSpline
70
0
71
2
72
6
73
3
74
0
42
0.000000001
43
0.0000000001
44
0.0000000001
40
0
40
0
40
0
40
1
40
1
40
1
10
-65.575567036867142
20
10.042372941970829
30
0
10
-65.688558369874954
20
10.374293923377994
30
0
10
-65.688558369874954
20
10.783898234367374
30
0
0
LINE
5
319
100
AcDbEntity
8
0
100
AcDbLine
10
-65.688558369874954
20
10.783898234367374
30
0
11
-65.688558369874954
21
11.11581921577454
31
0
0
LINE
5
320
100
AcDbEntity
8
0
100
AcDbLine
10
-65.688558369874954
20
11.11581921577454
30
0
11
-63.230934888124466
21
11.11581921577454
31
0
0
SPLINE
5
321
100
AcDbEntity
8
0
100
AcDbSpline
70
0
71
2
72
6
73
3
74
0
42
0.000000001
43
0.0000000001
44
0.0000000001
40
0
40
0
40
0
40
1
40
1
40
1
10
-63.230934888124466
20
11.11581921577454
30
0
10
-63.29449251294136
20
11.419491767883304
30
0
10
-63.506360799074173
20
11.603107452392582
30
0
0
SPLINE
5
322
100
AcDbEntity
8
0
100
AcDbSpline
70
0
71
2
72
6
73
3
74
0
42
0.000000001
43
0.0000000001
44
0.0000000001
40
0
40
0
40
0
40
1
40
1
40
1
10
-63.506360799074173
20
11.603107452392582
30
0
10
-63.718219548463821
20
11.779661178588871
30
0
10
-64.02895525097847
20
11.779661178588871
30
0
0
SPLINE
5
323
100
AcDbEntity
8
0
100
AcDbSpline
70
0
71
2
72
6
73
3
74
0
42
0.000000001
43
0.0000000001
44
0.0000000001
40
0
40
0
40
0
40
1
40
1
40
1
10
-64.02895525097847
20
11.779661178588871
30
0
10
-64.290262013673782
20
11.779661178588871
30
0
10
-64.466806203126907
20
11.666666865348819
30
0
0
SPLINE
5
324
100
AcDbEntity
8
0
100
AcDbSpline
70
0
71
2
72
6
73
3
74
0
42
0.000000001
43
0.0000000001
44
0.0000000001
40
0
40
0
40
0
40
1
40
1
40
1
10
-64.466806203126907
20
11.666666865348819
30
0
10
-64.650426656007767
20
11.546609997749332
30
0
10
-64.784608632326126
20
11.362994313240055
30
0
0
LINE
5
325
100
AcDbEntity
8
0
100
AcDbLine
10
-64.784608632326126
20
11.362994313240055
30
0
11
-65.526128560304642
21
11.906779408454899
31
0
0
SPLINE
5
326
100
AcDbEntity
8
0
100
AcDbSpline
70
0
71
2
72
6
73
3
74
0
42
0.000000001
43
0.0000000001
44
0.0000000001
40
0
40
0
40
0
40
1
40
1
40
1
10
-64.62923601269722
20
10.395480394363407
30
0
10
-64.63630273938179
20
10.127118825912479
30
0
10
-64.452682286500931
20
9.9364405870437658
30
0
0
SPLINE
5
327
100
AcDbEntity
8
0
100
AcDbSpline
70
0
71
2
72
6
73
3
74
0
42
0.000000001
43
0.0000000001
44
0.0000000001
40
0
40
0
40
0
40
1
40
1
40
1
10
-64.452682286500931
20
9.9364405870437658
30
0
10
-64.269071370363235
20
9.7457623481750524
30
0
10
-63.979526311159134
20
9.7457623481750524
30
0
0
SPLINE
5
328
100
AcDbEntity
8
0
100
AcDbSpline
70
0
71
2
72
6
73
3
74
0
42
0.000000001
43
0.0000000001
44
0.0000000001
40
0
40
0
40
0
40
1
40
1
40
1
10
-63.979526311159134
20
9.7457623481750524
30
0
10
-63.802972584962845
20
9.7457623481750524
30
0
10
-63.668790608644485
20
9.8022598028183019
30
0
0
SPLINE
5
329
100
AcDbEntity
8
0
100
AcDbSpline
70
0
71
2
72
6
73
3
74
0
42
0.000000001
43
0.0000000001
44
0.0000000001
40
0
40
0
40
0
40
1
40
1
40
1
10
-63.668790608644485
20
9.8022598028183019
30
0
10
-63.534608632326126
20
9.8587572574615514
30
0
10
-63.43574121594429
20
9.9505650997161901
30
0
0
SPLINE
5
330
100
AcDbEntity
8
0
100
AcDbSpline
70
0
71
2
72
6
73
3
74
0
42
0.000000001
43
0.0000000001
44
0.0000000001
40
0
40
0
40
0
40
1
40
1
40
1
10
-63.43574121594429
20
9.9505650997161901
30
0
10
-63.34393098950386
20
10.03531098365784
30
0
10
-63.287435322999954
20
10.15536725521088
30
0
0
SPLINE
5
331
100
AcDbEntity
8
0
100
AcDbSpline
70
0
71
2
72
6
73
3
74
0
42
0.000000001
43
0.0000000001
44
0.0000000001
40
0
40
0
40
0
40
1
40
1
40
1
10
-63.287435322999954
20
10.15536725521088
30
0
10
-63.237996846437454
20
10.268361568450931
30
0
10
-63.230934888124466
20
10.395480394363407
30
0
0
LINE
5
332
100
AcDbEntity
8
0
100
AcDbLine
10
-63.230934888124466
20
10.395480394363407
30
0
11
-64.62923601269722
21
10.395480394363407
31
0
0
LINE
5
333
100
AcDbEntity
8
0
100
AcDbLine
10
-66.331220418214798
20
9.0677964687347448
30
0
11
-67.348161488771439
21
9.0677964687347448
31
0
0
LINE
5
334
100
AcDbEntity
8
0
100
AcDbLine
10
-67.348161488771439
20
9.0677964687347448
30
0
11
-67.348161488771439
21
9.5338982343673742
31
0
0
LINE
5
335
100
AcDbEntity
8
0
100
AcDbLine
10
-67.348161488771439
20
9.5338982343673742
30
0
11
-67.362285405397415
21
9.5338982343673742
31
0
0
SPLINE
5
336
100
AcDbEntity
8
0
100
AcDbSpline
70
0
71
2
72
6
73
3
74
0
42
0.000000001
43
0.0000000001
44
0.0000000001
40
0
40
0
40
0
40
1
40
1
40
1
10
-67.362285405397415
20
9.5338982343673742
30
0
10
-67.411723881959915
20
9.4350278377532995
30
0
10
-67.503534108400345
20
9.3361580371856725
30
0
0
SPLINE
5
337
100
AcDbEntity
8
0
100
AcDbSpline
70
0
71
2
72
6
73
3
74
0
42
0.000000001
43
0.0000000001
44
0.0000000001
40
0
40
0
40
0
40
1
40
1
40
1
10
-67.503534108400345
20
9.3361580371856725
30
0
10
-67.595344334840775
20
9.2372882366180455
30
0
10
-67.722459584474564
20
9.1596043109893834
30
0
0
SPLINE
5
338
100
AcDbEntity
8
0
100
AcDbSpline
70
0
71
2
72
6
73
3
74
0
42
0.000000001
43
0.0000000001
44
0.0000000001
40
0
40
0
40
0
40
1
40
1
40
1
10
-67.722459584474564
20
9.1596043109893834
30
0
10
-67.849574834108353
20
9.0819209814071691
30
0
10
-68.012004643678665
20
9.0324854850769078
30
0
0
SPLINE
5
339
100
AcDbEntity
8
0
100
AcDbSpline
70
0
71
2
72
6
73
3
74
0
42
0.000000001
43
0.0000000001
44
0.0000000001
40
0
40
0
40
0
40
1
40
1
40
1
10
-68.012004643678665
20
9.0324854850769078
30
0
10
-68.174434453248978
20
8.9830505847930944
30
0
10
-68.365112096071243
20
8.9830505847930944
30
0
0
SPLINE
5
340
100
AcDbEntity
8
0
100
AcDbSpline
70
0
71
2
72
6
73
3
74
0
42
0.000000001
43
0.0000000001
44
0.0000000001
40
0
40
0
40
0
40
1
40
1
40
1
10
-68.365112096071243
20
8.9830505847930944
30
0
10
-68.725286275148392
20
8.9830505847930944
30
0
10
-69.000707417726517
20
9.1313558816909826
30
0
0
SPLINE
5
341
100
AcDbEntity
8
0
100
AcDbSpline
70
0
71
2
72
6
73
3
74
0
42
0.000000001
43
0.0000000001
44
0.0000000001
40
0
40
0
40
0
40
1
40
1
40
1
10
-69.000707417726517
20
9.1313558816909826
30
0
10
-69.283195286989212
20
9.2796611785888707
30
0
10
-69.424434453248978
20
9.597457647323612
30
0
0
SPLINE
5
342
100
AcDbEntity
8
0
100
AcDbSpline
70
0
71
2
72
6
73
3
74
0
42
0.000000001
43
0.0000000001
44
0.0000000001
40
0
40
0
40
0
40
1
40
1
40
1
10
-69.424434453248978
20
9.597457647323612
30
0
10
-69.608054906129837
20
9.2655366659164464
30
0
10
-69.869352132081985
20
9.1242939233779943
30
0
0
SPLINE
5
343
100
AcDbEntity
8
0
100
AcDbSpline
70
0
71
2
72
6
73
3
74
0
42
0.000000001
43
0.0000000001
44
0.0000000001
40
0
40
0
40
0
40
1
40
1
40
1
10
-69.869352132081985
20
9.1242939233779943
30
0
10
-70.130649358034134
20
8.9830505847930944
30
0
10
-70.512004643678665
20
8.9830505847930944
30
0
0
SPLINE
5
344
100
AcDbEntity
8
0
100
AcDbSpline
70
0
71
2
72
6
73
3
74
0
42
0.000000001
43
0.0000000001
44
0.0000000001
40
0
40
0
40
0
40
1
40
1
40
1
10
-70.512004643678665
20
8.9830505847930944
30
0
10
-70.858054906129837
20
8.9830505847930944
30
0
10
-71.091104298830032
20
9.1031074523925817
30
0
0
SPLINE
5
345
100
AcDbEntity
8
0
100
AcDbSpline
70
0
71
2
72
6
73
3
74
0
42
0.000000001
43
0.0000000001
44
0.0000000001
40
0
40
0
40
0
40
1
40
1
40
1
10
-71.091104298830032
20
9.1031074523925817
30
0
10
-71.331220418214798
20
9.2161017656326329
30
0
10
-71.465392857789993
20
9.4209039211273229
30
0
0
SPLINE
5
346
100
AcDbEntity
8
0
100
AcDbSpline
70
0
71
2
72
6
73
3
74
0
42
0.000000001
43
0.0000000001
44
0.0000000001
40
0
40
0
40
0
40
1
40
1
40
1
10
-71.465392857789993
20
9.4209039211273229
30
0
10
-71.606641560792923
20
9.6186441183090245
30
0
10
-71.663137227296829
20
9.8940676450729406
30
0
0
SPLINE
5
347
100
AcDbEntity
8
0
100
AcDbSpline
70
0
71
2
72
6
73
3
74
0
42
0.000000001
43
0.0000000001
44
0.0000000001
40
0
40
0
40
0
40
1
40
1
40
1
10
-71.663137227296829
20
9.8940676450729406
30
0
10
-71.726699620485306
20
10.162429213523868
30
0
10
-71.726699620485306
20
10.473163723945621
30
0
0
LINE
5
348
100
AcDbEntity
8
0
100
AcDbLine
10
-71.726699620485306
20
10.473163723945621
30
0
11
-71.726699620485306
21
12.500000000000004
31
0
0
LINE
5
349
100
AcDbEntity
8
0
100
AcDbLine
10
-71.726699620485306
20
12.500000000000004
30
0
11
-70.667377263307571
21
12.500000000000004
31
0
0
LINE
5
350
100
AcDbEntity
8
0
100
AcDbLine
10
-70.667377263307571
20
12.500000000000004
30
0
11
-70.667377263307571
21
10.501412153244022
31
0
0
SPLINE
5
351
100
AcDbEntity
8
0
100
AcDbSpline
70
0
71
2
72
6
73
3
74
0
42
0.000000001
43
0.0000000001
44
0.0000000001
40
0
40
0
40
0
40
1
40
1
40
1
10
-70.667377263307571
20
10.501412153244022
30
0
10
-70.667377263307571
20
10.261299610137943
30
0
10
-70.561443120241165
20
10.091807842254642
30
0
0
SPLINE
5
352
100
AcDbEntity
8
0
100
AcDbSpline
70
0
71
2
72
6
73
3
74
0
42
0.000000001
43
0.0000000001
44
0.0000000001
40
0
40
0
40
0
40
1
40
1
40
1
10
-70.561443120241165
20
10.091807842254642
30
0
10
-70.462575703859329
20
9.9152541160583532
30
0
10
-70.201268941164017
20
9.9152541160583532
30
0
0
SPLINE
5
353
100
AcDbEntity
8
0
100
AcDbSpline
70
0
71
2
72
6
73
3
74
0
42
0.000000001
43
0.0000000001
44
0.0000000001
40
0
40
0
40
0
40
1
40
1
40
1
10
-70.201268941164017
20
9.9152541160583532
30
0
10
-70.017658025026321
20
9.9152541160583532
30
0
10
-69.890542775392532
20
9.978813529014591
30
0
0
SPLINE
5
354
100
AcDbEntity
8
0
100
AcDbSpline
70
0
71
2
72
6
73
3
74
0
42
0.000000001
43
0.0000000001
44
0.0000000001
40
0
40
0
40
0
40
1
40
1
40
1
10
-69.890542775392532
20
9.978813529014591
30
0
10
-69.77048471570015
20
10.03531098365784
30
0
10
-69.692798405885696
20
10.141242742538456
30
0
0
SPLINE
5
355
100
AcDbEntity
8
0
100
AcDbSpline
70
0
71
2
72
6
73
3
74
0
42
0.000000001
43
0.0000000001
44
0.0000000001
40
0
40
0
40
0
40
1
40
1
40
1
10
-69.692798405885696
20
10.141242742538456
30
0
10
-69.622178822755814
20
10.247175097465519
30
0
10
-69.58686426281929
20
10.388418436050419
30
0
0
SPLINE
5
356
100
AcDbEntity
8
0
100
AcDbSpline
70
0
71
2
72
6
73
3
74
0
42
0.000000001
43
0.0000000001
44
0.0000000001
40
0
40
0
40
0
40
1
40
1
40
1
10
-69.58686426281929
20
10.388418436050419
30
0
10
-69.558616429567337
20
10.529661178588871
30
0
10
-69.558616429567337
20
10.685028433799747
30
0
0
LINE
5
357
100
AcDbEntity
8
0
100
AcDbLine
10
-69.558616429567337
20
10.685028433799747
30
0
11
-69.558616429567337
21
12.500000000000004
31
0
0
LINE
5
358
100
AcDbEntity
8
0
100
AcDbLine
10
-69.558616429567337
20
12.500000000000004
30
0
11
-68.499294072389603
21
12.500000000000004
31
0
0
LINE
5
359
100
AcDbEntity
8
0
100
AcDbLine
10
-68.499294072389603
20
12.500000000000004
30
0
11
-68.499294072389603
21
10.685028433799747
31
0
0
SPLINE
5
360
100
AcDbEntity
8
0
100
AcDbSpline
70
0
71
2
72
6
73
3
74
0
42
0.000000001
43
0.0000000001
44
0.0000000001
40
0
40
0
40
0
40
1
40
1
40
1
10
-68.499294072389603
20
10.685028433799747
30
0
10
-68.499294072389603
20
10.593219995498661
30
0
10
-68.492236882448196
20
10.459039211273197
30
0
0
SPLINE
5
361
100
AcDbEntity
8
0
100
AcDbSpline
70
0
71
2
72
6
73
3
74
0
42
0.000000001
43
0.0000000001
44
0.0000000001
40
0
40
0
40
0
40
1
40
1
40
1
10
-68.492236882448196
20
10.459039211273197
30
0
10
-68.485170155763626
20
10.324858427047733
30
0
10
-68.442798405885696
20
10.204802155494693
30
0
0
SPLINE
5
362
100
AcDbEntity
8
0
100
AcDbSpline
70
0
71
2
72
6
73
3
74
0
42
0.000000001
43
0.0000000001
44
0.0000000001
40
0
40
0
40
0
40
1
40
1
40
1
10
-68.442798405885696
20
10.204802155494693
30
0
10
-68.400426656007767
20
10.084745883941654
30
0
10
-68.301559239625931
20
10.000000000000004
30
0
0
SPLINE
5
363
100
AcDbEntity
8
0
100
AcDbSpline
70
0
71
2
72
6
73
3
74
0
42
0.000000001
43
0.0000000001
44
0.0000000001
40
0
40
0
40
0
40
1
40
1
40
1
10
-68.301559239625931
20
10.000000000000004
30
0
10
-68.209749013185501
20
9.9152541160583532
30
0
10
-68.026128560304642
20
9.9152541160583532
30
0
0
SPLINE
5
364
100
AcDbEntity
8
0
100
AcDbSpline
70
0
71
2
72
6
73
3
74
0
42
0.000000001
43
0.0000000001
44
0.0000000001
40
0
40
0
40
0
40
1
40
1
40
1
10
-68.026128560304642
20
9.9152541160583532
30
0
10
-67.8213270008564
20
9.9152541160583532
30
0
10
-67.69421175122261
20
9.9929380416870153
30
0
0
SPLINE
5
365
100
AcDbEntity
8
0
100
AcDbSpline
70
0
71
2
72
6
73
3
74
0
42
0.000000001
43
0.0000000001
44
0.0000000001
40
0
40
0
40
0
40
1
40
1
40
1
10
-67.69421175122261
20
9.9929380416870153
30
0
10
-67.567096501588821
20
10.063559412956241
30
0
10
-67.496467381715775
20
10.190677642822269
30
0
0
SPLINE
5
366
100
AcDbEntity
8
0
100
AcDbSpline
70
0
71
2
72
6
73
3
74
0
42
0.000000001
43
0.0000000001
44
0.0000000001
40
0
40
0
40
0
40
1
40
1
40
1
10
-67.496467381715775
20
10.190677642822269
30
0
10
-67.432914525270462
20
10.310734510421756
30
0
10
-67.411723881959915
20
10.466101765632633
30
0
0
SPLINE
5
367
100
AcDbEntity
8
0
100
AcDbSpline
70
0
71
2
72
6
73
3
74
0
42
0.000000001
43
0.0000000001
44
0.0000000001
40
0
40
0
40
0
40
1
40
1
40
1
10
-67.411723881959915
20
10.466101765632633
30
0
10
-67.390542775392532
20
10.621469020843509
30
0
10
-67.390542775392532
20
10.79096078872681
30
0
0
LINE
5
368
100
AcDbEntity
8
0
100
AcDbLine
10
-67.390542775392532
20
10.79096078872681
30
0
11
-67.390542775392532
21
12.500000000000004
31
0
0
LINE
5
369
100
AcDbEntity
8
0
100
AcDbLine
10
-67.390542775392532
20
12.500000000000004
30
0
11
-66.331220418214798
21
12.500000000000004
31
0
0
LINE
5
370
100
AcDbEntity
8
0
100
AcDbLine
10
-66.331220418214798
20
12.500000000000004
30
0
11
-66.331220418214798
21
9.0677964687347448
31
0
0
SPLINE
5
371
100
AcDbEntity
8
0
100
AcDbSpline
70
0
71
2
72
6
73
3
74
0
42
0.000000001
43
0.0000000001
44
0.0000000001
40
0
40
0
40
0
40
1
40
1
40
1
10
-72.348161488771439
20
10.783898234367374
30
0
10
-72.348161488771439
20
10.374293923377994
30
0
10
-72.496467381715775
20
10.042372941970829
30
0
0
SPLINE
5
372
100
AcDbEntity
8
0
100
AcDbSpline
70
0
71
2
72
6
73
3
74
0
42
0.000000001
43
0.0000000001
44
0.0000000001
40
0
40
0
40
0
40
1
40
1
40
1
10
-72.496467381715775
20
10.042372941970829
30
0
10
-72.64477327466011
20
9.7104519605636632
30
0
10
-72.899013310670853
20
9.4774007797241246
30
0
0
SPLINE
5
373
100
AcDbEntity
8
0
100
AcDbSpline
70
0
71
2
72
6
73
3
74
0
42
0.000000001
43
0.0000000001
44
0.0000000001
40
0
40
0
40
0
40
1
40
1
40
1
10
-72.899013310670853
20
9.4774007797241246
30
0
10
-73.160310536623001
20
9.2372882366180455
30
0
10
-73.506360799074173
20
9.11016941070557
30
0
0
SPLINE
5
374
100
AcDbEntity
8
0
100
AcDbSpline
70
0
71
2
72
6
73
3
74
0
42
0.000000001
43
0.0000000001
44
0.0000000001
40
0
40
0
40
0
40
1
40
1
40
1
10
-73.506360799074173
20
9.11016941070557
30
0
10
-73.859468251466751
20
8.9830505847930944
30
0
10
-74.254947453737259
20
8.9830505847930944
30
0
0
SPLINE
5
375
100
AcDbEntity
8
0
100
AcDbSpline
70
0
71
2
72
6
73
3
74
0
42
0.000000001
43
0.0000000001
44
0.0000000001
40
0
40
0
40
0
40
1
40
1
40
1
10
-74.254947453737259
20
8.9830505847930944
30
0
10
-74.650426656007767
20
8.9830505847930944
30
0
10
-74.996467381715775
20
9.11016941070557
30
0
0
SPLINE
5
376
100
AcDbEntity
8
0
100
AcDbSpline
70
0
71
2
72
6
73
3
74
0
42
0.000000001
43
0.0000000001
44
0.0000000001
40
0
40
0
40
0
40
1
40
1
40
1
10
-74.996467381715775
20
9.11016941070557
30
0
10
-75.349574834108353
20
9.2372882366180455
30
0
10
-75.603814870119095
20
9.4774007797241246
30
0
0
SPLINE
5
377
100
AcDbEntity
8
0
100
AcDbSpline
70
0
71
2
72
6
73
3
74
0
42
0.000000001
43
0.0000000001
44
0.0000000001
40
0
40
0
40
0
40
1
40
1
40
1
10
-75.603814870119095
20
9.4774007797241246
30
0
10
-75.865112096071243
20
9.7104519605636632
30
0
10
-76.013417989015579
20
10.042372941970829
30
0
0
SPLINE
5
378
100
AcDbEntity
8
0
100
AcDbSpline
70
0
71
2
72
6
73
3
74
0
42
0.000000001
43
0.0000000001
44
0.0000000001
40
0
40
0
40
0
40
1
40
1
40
1
10
-76.013417989015579
20
10.042372941970829
30
0
10
-76.161723881959915
20
10.374293923377994
30
0
10
-76.161723881959915
20
10.783898234367374
30
0
0
SPLINE
5
379
100
AcDbEntity
8
0
100
AcDbSpline
70
0
71
2
72
6
73
3
74
0
42
0.000000001
43
0.0000000001
44
0.0000000001
40
0
40
0
40
0
40
1
40
1
40
1
10
-76.161723881959915
20
10.783898234367374
30
0
10
-76.161723881959915
20
11.193503141403202
30
0
10
-76.013417989015579
20
11.52542352676392
30
0
0
SPLINE
5
380
100
AcDbEntity
8
0
100
AcDbSpline
70
0
71
2
72
6
73
3
74
0
42
0.000000001
43
0.0000000001
44
0.0000000001
40
0
40
0
40
0
40
1
40
1
40
1
10
-76.013417989015579
20
11.52542352676392
30
0
10
-75.865112096071243
20
11.857344508171085
30
0
10
-75.603814870119095
20
12.097457647323612
30
0
0
SPLINE
5
381
100
AcDbEntity
8
0
100
AcDbSpline
70
0
71
2
72
6
73
3
74
0
42
0.000000001
43
0.0000000001
44
0.0000000001
40
0
40
0
40
0
40
1
40
1
40
1
10
-75.603814870119095
20
12.097457647323612
30
0
10
-75.349574834108353
20
12.330508232116703
30
0
10
-74.996467381715775
20
12.457627058029178
30
0
0
SPLINE
5
382
100
AcDbEntity
8
0
100
AcDbSpline
70
0
71
2
72
6
73
3
74
0
42
0.000000001
43
0.0000000001
44
0.0000000001
40
0
40
0
40
0
40
1
40
1
40
1
10
-74.996467381715775
20
12.457627058029178
30
0
10
-74.650426656007767
20
12.584745883941654
30
0
10
-74.254947453737259
20
12.584745883941654
30
0
0
SPLINE
5
383
100
AcDbEntity
8
0
100
AcDbSpline
70
0
71
2
72
6
73
3
74
0
42
0.000000001
43
0.0000000001
44
0.0000000001
40
0
40
0
40
0
40
1
40
1
40
1
10
-74.254947453737259
20
12.584745883941654
30
0
10
-73.859468251466751
20
12.584745883941654
30
0
10
-73.506360799074173
20
12.457627058029178
30
0
0
SPLINE
5
384
100
AcDbEntity
8
0
100
AcDbSpline
70
0
71
2
72
6
73
3
74
0
42
0.000000001
43
0.0000000001
44
0.0000000001
40
0
40
0
40
0
40
1
40
1
40
1
10
-73.506360799074173
20
12.457627058029178
30
0
10
-73.160310536623001
20
12.330508232116703
30
0
10
-72.899013310670853
20
12.097457647323612
30
0
0
SPLINE
5
385
100
AcDbEntity
8
0
100
AcDbSpline
70
0
71
2
72
6
73
3
74
0
42
0.000000001
43
0.0000000001
44
0.0000000001
40
0
40
0
40
0
40
1
40
1
40
1
10
-72.899013310670853
20
12.097457647323612
30
0
10
-72.64477327466011
20
11.857344508171085
30
0
10
-72.496467381715775
20
11.52542352676392
30
0
0
SPLINE
5
386
100
AcDbEntity
8
0
100
AcDbSpline
70
0
71
2
72
6
73
3
74
0
42
0.000000001
43
0.0000000001
44
0.0000000001
40
0
40
0
40
0
40
1
40
1
40
1
10
-72.496467381715775
20
11.52542352676392
30
0
10
-72.348161488771439
20
11.193503141403202
30
0
10
-72.348161488771439
20
10.783898234367374
30
0
0
SPLINE
5
387
100
AcDbEntity
8
0
100
AcDbSpline
70
0
71
2
72
6
73
3
74
0
42
0.000000001
43
0.0000000001
44
0.0000000001
40
0
40
0
40
0
40
1
40
1
40
1
10
-73.407483845949173
20
10.783898234367374
30
0
10
-73.407483845949173
20
11.172316074371341
30
0
10
-73.626418858766556
20
11.412429213523868
30
0
0
SPLINE
5
388
100
AcDbEntity
8
0
100
AcDbSpline
70
0
71
2
72
6
73
3
74
0
42
0.000000001
43
0.0000000001
44
0.0000000001
40
0
40
0
40
0
40
1
40
1
40
1
10
-73.626418858766556
20
11.412429213523868
30
0
10
-73.852401524782181
20
11.652542352676395
30
0
10
-74.254947453737259
20
11.652542352676395
30
0
0
SPLINE
5
389
100
AcDbEntity
8
0
100
AcDbSpline
70
0
71
2
72
6
73
3
74
0
42
0.000000001
43
0.0000000001
44
0.0000000001
40
0
40
0
40
0
40
1
40
1
40
1
10
-74.254947453737259
20
11.652542352676395
30
0
10
-74.657483845949173
20
11.652542352676395
30
0
10
-74.876418858766556
20
11.412429213523868
30
0
0
SPLINE
5
390
100
AcDbEntity
8
0
100
AcDbSpline
70
0
71
2
72
6
73
3
74
0
42
0.000000001
43
0.0000000001
44
0.0000000001
40
0
40
0
40
0
40
1
40
1
40
1
10
-74.876418858766556
20
11.412429213523868
30
0
10
-75.102401524782181
20
11.172316074371341
30
0
10
-75.102401524782181
20
10.783898234367374
30
0
0
SPLINE
5
391
100
AcDbEntity
8
0
100
AcDbSpline
70
0
71
2
72
6
73
3
74
0
42
0.000000001
43
0.0000000001
44
0.0000000001
40
0
40
0
40
0
40
1
40
1
40
1
10
-75.102401524782181
20
10.783898234367374
30
0
10
-75.102401524782181
20
10.395480394363407
30
0
10
-74.876418858766556
20
10.15536725521088
30
0
0
SPLINE
5
392
100
AcDbEntity
8
0
100
AcDbSpline
70
0
71
2
72
6
73
3
74
0
42
0.000000001
43
0.0000000001
44
0.0000000001
40
0
40
0
40
0
40
1
40
1
40
1
10
-74.876418858766556
20
10.15536725521088
30
0
10
-74.657483845949173
20
9.9152541160583532
30
0
10
-74.254947453737259
20
9.9152541160583532
30
0
0
SPLINE
5
393
100
AcDbEntity
8
0
100
AcDbSpline
70
0
71
2
72
6
73
3
74
0
42
0.000000001
43
0.0000000001
44
0.0000000001
40
0
40
0
40
0
40
1
40
1
40
1
10
-74.254947453737259
20
9.9152541160583532
30
0
10
-73.852401524782181
20
9.9152541160583532
30
0
10
-73.626418858766556
20
10.15536725521088
30
0
0
SPLINE
5
394
100
AcDbEntity
8
0
100
AcDbSpline
70
0
71
2
72
6
73
3
74
0
42
0.000000001
43
0.0000000001
44
0.0000000001
40
0
40
0
40
0
40
1
40
1
40
1
10
-73.626418858766556
20
10.15536725521088
30
0
10
-73.407483845949173
20
10.395480394363407
30
0
10
-73.407483845949173
20
10.783898234367374
30
0
0
ENDSEC
0
SECTION
2
OBJECTS
0
DICTIONARY
5
C
100
AcDbDictionary
3
ACAD_GROUP
350
D
3
ACAD_MLINESTYLE
350
17
0
DICTIONARY
5
D
100
AcDbDictionary
0
DICTIONARY
5
1A
330
C
100
AcDbDictionary
0
DICTIONARY
5
17
100
AcDbDictionary
0
ENDSEC
0
EOF
