0
SECTION
2
HEADER
9
$INSUNITS
70
4
9
$ACADVER
1
AC1014
9
$HANDSEED
5
FFFF
0
ENDSEC
0
SECTION
2
TABLES
0
TABLE
2
VPORT
5
8
100
AcDbSymbolTable
0
ENDTAB
0
TABLE
2
LTYPE
5
5
100
AcDbSymbolTable
0
LTYPE
5
14
100
AcDbSymbolTableRecord
100
AcDbLinetypeTableRecord
2
BYBLOCK
70
0
0
LTYPE
5
15
100
AcDbSymbolTableRecord
100
AcDbLinetypeTableRecord
2
BYLAYER
70
0
0
LTYPE
5
16
100
AcDbSymbolTableRecord
100
AcDbLinetypeTableRecord
2
DASHED
70
0
3
Dashed __ __ __ __ __ __ __ __ __ __ __ __ __ _
72
65
73
2
40
0.75
49
0.5
74
0
49
-0.25
74
0
0
ENDTAB
0
TABLE
2
LAYER
5
2
100
AcDbSymbolTable
70
2
0
LAYER
5
50
100
AcDbSymbolTableRecord
100
AcDbLayerTableRecord
2
0
70
0
62
7
6
CONTINUOUS
0
ENDTAB
0
TABLE
2
STYLE
5
3
100
AcDbSymbolTable
70
1
0
STYLE
5
11
100
AcDbSymbolTableRecord
100
AcDbTextStyleTableRecord
2
STANDARD
70
0
0
ENDTAB
0
TABLE
2
VIEW
5
6
100
AcDbSymbolTable
70
0
0
ENDTAB
0
TABLE
2
UCS
5
7
100
AcDbSymbolTable
70
0
0
ENDTAB
0
TABLE
2
APPID
5
9
100
AcDbSymbolTable
70
2
0
APPID
5
12
100
AcDbSymbolTableRecord
100
AcDbRegAppTableRecord
2
ACAD
70
0
0
ENDTAB
0
TABLE
2
DIMSTYLE
5
A
100
AcDbSymbolTable
70
1
0
ENDTAB
0
TABLE
2
BLOCK_RECORD
5
1
100
AcDbSymbolTable
70
1
0
BLOCK_RECORD
5
1F
100
AcDbSymbolTableRecord
100
AcDbBlockTableRecord
2
*MODEL_SPACE
0
BLOCK_RECORD
5
1B
100
AcDbSymbolTableRecord
100
AcDbBlockTableRecord
2
*PAPER_SPACE
0
ENDTAB
0
ENDSEC
0
SECTION
2
BLOCKS
0
BLOCK
5
20
100
AcDbEntity
100
AcDbBlockBegin
2
*MODEL_SPACE
0
ENDBLK
5
21
100
AcDbEntity
100
AcDbBlockEnd
0
BLOCK
5
1C
100
AcDbEntity
100
AcDbBlockBegin
2
*PAPER_SPACE
0
ENDBLK
5
1D
100
AcDbEntity
100
AcDbBlockEnd
0
ENDSEC
0
SECTION
2
ENTITIES
0
LINE
5
100
100
AcDbEntity
8
0
100
AcDbLine
10
5.8968953415751457
20
42.788733132715848
30
0
11
5.8968953415751457
21
43.01472175919595
31
0
0
LINE
5
101
100
AcDbEntity
8
0
100
AcDbLine
10
5.8968953415751457
20
43.01472175919595
30
0
11
5.6355933472514153
21
43.01472175919595
31
0
0
SPLINE
5
102
100
AcDbEntity
8
0
100
AcDbSpline
70
0
71
3
72
9
73
5
74
0
42
0.000000001
43
0.0000000001
44
0.0000000001
40
0
40
0
40
0
40
0
40
0.013599212173841961
40
0.030405383631755684
40
0.030405383631755684
40
0.030405383631755684
40
0.030405383631755684
10
5.6355933472514153
20
43.01472175919595
30
0
10
5.5902611789267098
20
43.013920584724339
30
0
10
5.4889066334462733
20
43.012129303225528
30
0
10
5.3878031880005484
20
43.004701995854646
30
0
10
5.3319196030497551
20
43.000596650477078
30
0
0
SPLINE
5
103
100
AcDbEntity
8
0
100
AcDbSpline
70
0
71
3
72
9
73
5
74
0
42
0.000000001
43
0.0000000001
44
0.0000000001
40
0
40
0
40
0
40
0
40
0.017567879705355966
40
0.035127977882316329
40
0.035127977882316329
40
0.035127977882316329
40
0.035127977882316329
10
5.3319196030497551
20
43.000596650477078
30
0
10
5.2733678759052616
20
42.996479099924585
30
0
10
5.1562903565574914
20
42.988245822650207
30
0
10
5.0426743143613617
20
42.958812962153772
30
0
10
4.9858788773417473
20
42.944099791880276
30
0
0
SPLINE
5
104
100
AcDbEntity
8
0
100
AcDbSpline
70
0
71
3
72
9
73
5
74
0
42
0.000000001
43
0.0000000001
44
0.0000000001
40
0
40
0
40
0
40
0
40
0.016392720037603691
40
0.032062603191563489
40
0.032062603191563489
40
0.032062603191563489
40
0.032062603191563489
10
4.9858788773417473
20
42.944099791880276
30
0
10
4.9339760618653905
20
42.925948346054341
30
0
10
4.8324590852241744
20
42.890445842288337
30
0
10
4.7457621863397037
20
42.826867560246853
30
0
10
4.703391008079052
20
42.795795091028836
30
0
0
SPLINE
5
105
100
AcDbEntity
8
0
100
AcDbSpline
70
0
71
3
72
9
73
5
74
0
42
0.000000001
43
0.0000000001
44
0.0000000001
40
0
40
0
40
0
40
0
40
0.014551298511759595
40
0.030516519113297794
40
0.030516519113297794
40
0.030516519113297794
40
0.030516519113297794
10
4.703391008079052
20
42.795795091028836
30
0
10
4.6704545211864712
20
42.758346034717022
30
0
10
4.6013811714115427
20
42.679809068288186
30
0
10
4.5941715220951185
20
42.575134035280556
30
0
10
4.5903996750712395
20
42.52037156426492
30
0
0
SPLINE
5
106
100
AcDbEntity
8
0
100
AcDbSpline
70
0
71
3
72
9
73
5
74
0
42
0.000000001
43
0.0000000001
44
0.0000000001
40
0
40
0
40
0
40
0
40
0.017085651460988911
40
0.033943233618574174
40
0.033943233618574174
40
0.033943233618574174
40
0.033943233618574174
10
4.5903996750712395
20
42.52037156426492
30
0
10
4.5969842454735854
20
42.461036304061857
30
0
10
4.6100654915680295
20
42.343157825533233
30
0
10
4.7054519463174049
20
42.272818326284565
30
0
10
4.7528247162699699
20
42.23788488709512
30
0
0
SPLINE
5
107
100
AcDbEntity
8
0
100
AcDbSpline
70
0
71
3
72
9
73
5
74
0
42
0.000000001
43
0.0000000001
44
0.0000000001
40
0
40
0
40
0
40
0
40
0.017967538061456664
40
0.035421625230532973
40
0.035421625230532973
40
0.035421625230532973
40
0.035421625230532973
10
4.7528247162699699
20
42.23788488709512
30
0
10
4.8071164459277238
20
42.211109531892106
30
0
10
4.914148432974379
20
42.158323969720392
30
0
10
5.0331633690150746
20
42.150119711779723
30
0
10
5.0918082520365715
20
42.146077044840482
30
0
0
SPLINE
5
108
100
AcDbEntity
8
0
100
AcDbSpline
70
0
71
3
72
9
73
5
74
0
42
0.000000001
43
0.0000000001
44
0.0000000001
40
0
40
0
40
0
40
0
40
0.015220355463869597
40
0.030042782624983066
40
0.030042782624983066
40
0.030042782624983066
40
0.030042782624983066
10
5.0918082520365715
20
42.146077044840482
30
0
10
5.1426874512924847
20
42.147747009309867
30
0
10
5.2431156395175815
20
42.151043277893365
30
0
10
5.3404148269420482
20
42.176091675752104
30
0
10
5.3884200379252434
20
42.188449986811307
30
0
0
SPLINE
5
109
100
AcDbEntity
8
0
100
AcDbSpline
70
0
71
3
72
9
73
5
74
0
42
0.000000001
43
0.0000000001
44
0.0000000001
40
0
40
0
40
0
40
0
40
0.014857604455069499
40
0.028851080459811669
40
0.028851080459811669
40
0.028851080459811669
40
0.028851080459811669
10
5.3884200379252434
20
42.188449986811307
30
0
10
5.4357810864176592
20
42.20363703281371
30
0
10
5.527748632387004
20
42.233127835822174
30
0
10
5.6098810452552161
20
42.283887286024004
30
0
10
5.6497172638773918
20
42.308506854410794
30
0
0
SPLINE
5
110
100
AcDbEntity
8
0
100
AcDbSpline
70
0
71
3
72
9
73
5
74
0
42
0.000000001
43
0.0000000001
44
0.0000000001
40
0
40
0
40
0
40
0
40
0.013386749462002613
40
0.026707980241734028
40
0.026707980241734028
40
0.026707980241734028
40
0.026707980241734028
10
5.6497172638773918
20
42.308506854410794
30
0
10
5.6852965557525525
20
42.336117679981228
30
0
10
5.7562810040021972
20
42.391204195635098
30
0
10
5.8029791805941322
20
42.46796180154989
30
0
10
5.8262709900736809
20
42.506246455546048
30
0
0
SPLINE
5
111
100
AcDbEntity
8
0
100
AcDbSpline
70
0
71
3
72
9
73
5
74
0
42
0.000000001
43
0.0000000001
44
0.0000000001
40
0
40
0
40
0
40
0
40
0.014097830411578671
40
0.029383842077556625
40
0.029383842077556625
40
0.029383842077556625
40
0.029383842077556625
10
5.8262709900736809
20
42.506246455546048
30
0
10
5.8468599294228252
20
42.549045948680714
30
0
10
5.889773067453099
20
42.63825212513148
30
0
10
5.8944581013293451
20
42.737238573305618
30
0
10
5.8968953415751457
20
42.788733132715848
30
0
0
SPLINE
5
112
100
AcDbEntity
8
0
100
AcDbSpline
70
0
71
3
72
9
73
5
74
0
42
0.000000001
43
0.0000000001
44
0.0000000001
40
0
40
0
40
0
40
0
40
0.036339745404538812
40
0.068804679794585738
40
0.068804679794585738
40
0.068804679794585738
40
0.068804679794585738
10
15.600283555686474
20
44.09522999131265
30
0
10
15.475882066404756
20
44.087680395508656
30
0
10
15.240343689877527
20
44.07338619734935
30
0
10
15.057858927244618
20
43.925089064626761
30
0
10
14.971754960715771
20
43.855116256113675
30
0
0
SPLINE
5
113
100
AcDbEntity
8
0
100
AcDbSpline
70
0
71
3
72
9
73
5
74
0
42
0.000000001
43
0.0000000001
44
0.0000000001
40
0
40
0
40
0
40
0
40
0.032217234746686162
40
0.067775173043059869
40
0.067775173043059869
40
0.067775173043059869
40
0.067775173043059869
10
14.971754960715771
20
43.855116256113675
30
0
10
14.907941972526348
20
43.765979583365457
30
0
10
14.773699032344219
20
43.578463383806636
30
0
10
14.760007773407482
20
43.347669988808128
30
0
10
14.75282471626997
20
43.226585276957181
30
0
0
SPLINE
5
114
100
AcDbEntity
8
0
100
AcDbSpline
70
0
71
3
72
9
73
5
74
0
42
0.000000001
43
0.0000000001
44
0.0000000001
40
0
40
0
40
0
40
0
40
0.035557820507699504
40
0.067775157819129128
40
0.067775157819129128
40
0.067775157819129128
40
0.067775157819129128
10
14.75282471626997
20
43.226585276957181
30
0
10
14.760007910502679
20
43.105501020238407
30
0
10
14.773699473028623
20
42.874707780063602
30
0
10
14.907941967101959
20
42.687191372986256
30
0
10
14.971754960715771
20
42.598054297800687
30
0
0
SPLINE
5
115
100
AcDbEntity
8
0
100
AcDbSpline
70
0
71
3
72
9
73
5
74
0
42
0.000000001
43
0.0000000001
44
0.0000000001
40
0
40
0
40
0
40
0
40
0.032464934390046919
40
0.068804660102788767
40
0.068804660102788767
40
0.068804660102788767
40
0.068804660102788767
10
14.971754960715771
20
42.598054297800687
30
0
10
15.057858912473359
20
42.528081404976078
30
0
10
15.240343591573877
20
42.379784136010045
30
0
10
15.475882053243399
20
42.365490860999806
30
0
10
15.600283555686474
20
42.357941754694608
30
0
0
SPLINE
5
116
100
AcDbEntity
8
0
100
AcDbSpline
70
0
71
3
72
9
73
5
74
0
42
0.000000001
43
0.0000000001
44
0.0000000001
40
0
40
0
40
0
40
0
40
0.036165261174812578
40
0.068191542222115764
40
0.068191542222115764
40
0.068191542222115764
40
0.068191542222115764
10
15.600283555686474
20
42.357941754694608
30
0
10
15.724251297246212
20
42.365281857756536
30
0
10
15.957999131718879
20
42.379122016284434
30
0
10
16.137467375616161
20
42.528090826739074
30
0
10
16.221754960715771
20
42.598054297800687
30
0
0
SPLINE
5
117
100
AcDbEntity
8
0
100
AcDbSpline
70
0
71
3
72
9
73
5
74
0
42
0.000000001
43
0.0000000001
44
0.0000000001
40
0
40
0
40
0
40
0
40
0.032490037650910256
40
0.068075441611642945
40
0.068075441611642945
40
0.068075441611642945
40
0.068075441611642945
10
16.221754960715771
20
42.598054297800687
30
0
10
16.287629330269368
20
42.686983743637271
30
0
10
16.425654002522208
20
42.873315054257795
30
0
10
16.4401566091923
20
43.105312259043409
30
0
10
16.447737626731396
20
43.226585276957181
30
0
0
SPLINE
5
118
100
AcDbEntity
8
0
100
AcDbSpline
70
0
71
3
72
9
73
5
74
0
42
0.000000001
43
0.0000000001
44
0.0000000001
40
0
40
0
40
0
40
0
40
0.03558552165810519
40
0.068075457605136752
40
0.068075457605136752
40
0.068075457605136752
40
0.068075457605136752
10
16.447737626731396
20
43.226585276957181
30
0
10
16.440156747879044
20
43.347858752345722
30
0
10
16.425654451077509
20
43.579856119470442
30
0
10
16.287629325121742
20
43.766187213105745
30
0
10
16.221754960715771
20
43.855116256113675
30
0
0
SPLINE
5
119
100
AcDbEntity
8
0
100
AcDbSpline
70
0
71
3
72
9
73
5
74
0
42
0.000000001
43
0.0000000001
44
0.0000000001
40
0
40
0
40
0
40
0
40
0.032026281047303193
40
0.068191562008907719
40
0.068191562008907719
40
0.068191562008907719
40
0.068191562008907719
10
16.221754960715771
20
43.855116256113675
30
0
10
16.137467360932813
20
43.925079643936741
30
0
10
15.957999033695804
20
44.074048320382317
30
0
10
15.724251284091002
20
44.087889398605675
30
0
10
15.600283555686474
20
44.09522999131265
30
0
0
LWPOLYLINE
5
120
100
AcDbEntity
8
0
100
AcDbPolyline
90
3
70
1
43
0.0
10
-8.2415242865681648
20
-20.018958560590121
10
-7.019772119820118
20
-20.018958560590121
10
-7.6341791823506355
20
-18.465286008481357
0
LWPOLYLINE
5
121
100
AcDbEntity
8
0
100
AcDbPolyline
90
3
70
1
43
0.0
10
-3.0084725096821785
20
-20.018958560590121
10
-1.7867203429341316
20
-20.018958560590121
10
-2.4011274054646492
20
-18.465286008481357
0
SPLINE
5
122
100
AcDbEntity
8
0
100
AcDbSpline
70
0
71
3
72
9
73
5
74
0
42
0.000000001
43
0.0000000001
44
0.0000000001
40
0
40
0
40
0
40
0
40
0.012263979801528584
40
0.025325501268807914
40
0.025325501268807914
40
0.025325501268807914
40
0.025325501268807914
10
5.204804353415966
20
-18.048619441155765
30
0
10
5.1676524505229615
20
-18.031156644226964
30
0
10
5.0909326108720343
20
-17.995095423242063
30
0
10
5.0076439914903403
20
-17.979156332833607
30
0
10
4.9646882340312004
20
-17.970935813550327
30
0
0
LINE
5
123
100
AcDbEntity
8
0
100
AcDbLine
10
4.7881345078349113
20
-19.941274634961459
30
0
11
3.954804353415966
21
-19.941274634961459
31
0
0
LINE
5
124
100
AcDbEntity
8
0
100
AcDbLine
10
3.954804353415966
20
-19.941274634961459
30
0
11
3.954804353415966
21
-21.078280321721408
31
0
0
LINE
5
125
100
AcDbEntity
8
0
100
AcDbLine
10
3.954804353415966
20
-21.078280321721408
30
0
11
4.9435071274638176
21
-21.078280321721408
31
0
0
SPLINE
5
126
100
AcDbEntity
8
0
100
AcDbSpline
70
0
71
3
72
9
73
5
74
0
42
0.000000001
43
0.0000000001
44
0.0000000001
40
0
40
0
40
0
40
0
40
0.01273112640133421
40
0.025618471174599804
40
0.025618471174599804
40
0.025618471174599804
40
0.025618471174599804
10
4.9435071274638176
20
-21.078280321721408
30
0
10
4.9860061101104503
20
-21.07707492978858
30
0
10
5.0715255627936351
20
-21.074649355058455
30
0
10
5.155499430134709
20
-21.058271004375744
30
0
10
5.1977423951029778
20
-21.050031892423007
30
0
0
SPLINE
5
127
100
AcDbEntity
8
0
100
AcDbSpline
70
0
71
3
72
9
73
5
74
0
42
0.000000001
43
0.0000000001
44
0.0000000001
40
0
40
0
40
0
40
0
40
0.013291721019014199
40
0.026086849698082892
40
0.026086849698082892
40
0.026086849698082892
40
0.026086849698082892
10
5.1977423951029778
20
-21.050031892423007
30
0
10
5.2409407234966299
20
-21.039081562752315
30
0
10
5.3257234463962089
20
-21.017590018966889
30
0
10
5.4009543476384714
20
-20.973021533215519
30
0
10
5.4378537461161613
20
-20.951161495808933
30
0
0
SPLINE
5
128
100
AcDbEntity
8
0
100
AcDbSpline
70
0
71
3
72
9
73
5
74
0
42
0.000000001
43
0.0000000001
44
0.0000000001
40
0
40
0
40
0
40
0
40
0.012524117384999979
40
0.025167130933443319
40
0.025167130933443319
40
0.025167130933443319
40
0.025167130933443319
10
5.4378537461161613
20
-20.951161495808933
30
0
10
5.471448339467786
20
-20.925767140006684
30
0
10
5.5389564522988444
20
-20.874737350217984
30
0
10
5.5844774756596305
20
-20.80338868091556
30
0
10
5.6073455139994621
20
-20.767545811299655
30
0
0
SPLINE
5
129
100
AcDbEntity
8
0
100
AcDbSpline
70
0
71
3
72
9
73
5
74
0
42
0.000000001
43
0.0000000001
44
0.0000000001
40
0
40
0
40
0
40
0
40
0.013608442084575909
40
0.028718981979457311
40
0.028718981979457311
40
0.028718981979457311
40
0.028718981979457311
10
5.6073455139994621
20
-20.767545811299655
30
0
10
5.6279284069194535
20
-20.726535222060644
30
0
10
5.6713661294141016
20
-20.63998730085099
30
0
10
5.6756931804419075
20
-20.543099802257579
30
0
10
5.677969865500927
20
-20.492122284535739
30
0
0
SPLINE
5
130
100
AcDbEntity
8
0
100
AcDbSpline
70
0
71
3
72
9
73
5
74
0
42
0.000000001
43
0.0000000001
44
0.0000000001
40
0
40
0
40
0
40
0
40
0.016054774427568592
40
0.03020221455890329
40
0.03020221455890329
40
0.03020221455890329
40
0.03020221455890329
10
5.677969865500927
20
-20.492122284535739
30
0
10
5.6752072388033348
20
-20.437504025460616
30
0
10
5.6700101901220812
20
-20.334756248662952
30
0
10
5.6129077763212809
20
-20.249549216529985
30
0
10
5.5861596390604973
20
-20.209636203412387
30
0
0
SPLINE
5
131
100
AcDbEntity
8
0
100
AcDbSpline
70
0
71
3
72
9
73
5
74
0
42
0.000000001
43
0.0000000001
44
0.0000000001
40
0
40
0
40
0
40
0
40
0.01385794110382459
40
0.027939157240325502
40
0.027939157240325502
40
0.027939157240325502
40
0.027939157240325502
10
5.5861596390604973
20
-20.209636203412387
30
0
10
5.5556757234484699
20
-20.174251809654493
30
0
10
5.4942167444266587
20
-20.102912919292002
30
0
10
5.4097865972256809
20
-20.061178833094651
30
0
10
5.3672341629862785
20
-20.040145031575534
30
0
0
SPLINE
5
132
100
AcDbEntity
8
0
100
AcDbSpline
70
0
71
3
72
9
73
5
74
0
42
0.000000001
43
0.0000000001
44
0.0000000001
40
0
40
0
40
0
40
0
40
0.014740061701158073
40
0.030044287640966789
40
0.030044287640966789
40
0.030044287640966789
40
0.030044287640966789
10
5.3672341629862785
20
-20.040145031575534
30
0
10
5.3211545743071387
20
-20.022721141827695
30
0
10
5.2272317370272425
20
-19.987206476691156
30
0
10
5.128153624089169
20
-19.970812178891311
30
0
10
5.0776843354105949
20
-19.962461105946872
30
0
0
SPLINE
5
133
100
AcDbEntity
8
0
100
AcDbSpline
70
0
71
3
72
9
73
5
74
0
42
0.000000001
43
0.0000000001
44
0.0000000001
40
0
40
0
40
0
40
0
40
0.015090909259262349
40
0.029048925507797391
40
0.029048925507797391
40
0.029048925507797391
40
0.029048925507797391
10
5.0776843354105949
20
-19.962461105946872
30
0
10
5.0277241632561243
20
-19.956284436344113
30
0
10
4.9315543901603665
20
-19.944394787278288
30
0
10
4.834681808482415
20
-19.942287288615908
30
0
10
4.7881345078349113
20
-19.941274634961459
30
0
0
LINE
5
134
100
AcDbEntity
8
0
100
AcDbLine
10
4.703391008079052
20
-17.942687384251926
30
0
11
3.954804353415966
21
-17.942687384251926
31
0
0
LINE
5
135
100
AcDbEntity
8
0
100
AcDbLine
10
3.954804353415966
20
-17.942687384251926
30
0
11
3.954804353415966
21
-19.009071401719424
31
0
0
LINE
5
136
100
AcDbEntity
8
0
100
AcDbLine
10
3.954804353415966
20
-19.009071401719424
30
0
11
4.752829484641552
21
-19.009071401719424
31
0
0
SPLINE
5
137
100
AcDbEntity
8
0
100
AcDbSpline
70
0
71
3
72
9
73
5
74
0
42
0.000000001
43
0.0000000001
44
0.0000000001
40
0
40
0
40
0
40
0
40
0.012554973782958783
40
0.024920061988516908
40
0.024920061988516908
40
0.024920061988516908
40
0.024920061988516908
10
4.752829484641552
20
-19.009071401719424
30
0
10
4.7947523396352842
20
-19.007930596632171
30
0
10
4.8779639944933351
20
-19.005666240371248
30
0
10
4.959530366951963
20
-18.989061887858401
30
0
10
5.0000027939677238
20
-18.980822972421024
30
0
0
SPLINE
5
138
100
AcDbEntity
8
0
100
AcDbSpline
70
0
71
3
72
9
73
5
74
0
42
0.000000001
43
0.0000000001
44
0.0000000001
40
0
40
0
40
0
40
0
40
0.012564815010410266
40
0.024488571987297182
40
0.024488571987297182
40
0.024488571987297182
40
0.024488571987297182
10
5.0000027939677238
20
-18.980822972421024
30
0
10
5.0407409175932294
20
-18.970225559824122
30
0
10
5.1201387019779609
20
-18.949571415609242
30
0
10
5.1913275766637046
20
-18.908844983224967
30
0
10
5.2259902283549309
20
-18.889014832143161
30
0
0
SPLINE
5
139
100
AcDbEntity
8
0
100
AcDbSpline
70
0
71
3
72
9
73
5
74
0
42
0.000000001
43
0.0000000001
44
0.0000000001
40
0
40
0
40
0
40
0
40
0.011528822850624152
40
0.023186759369019559
40
0.023186759369019559
40
0.023186759369019559
40
0.023186759369019559
10
5.2259902283549309
20
-18.889014832143161
30
0
10
5.2572330835359526
20
-18.865965613212882
30
0
10
5.3200686890847404
20
-18.819609042389928
30
0
10
5.3608525821233499
20
-18.753008874937752
30
0
10
5.3813580796122551
20
-18.719523362283084
30
0
0
SPLINE
5
140
100
AcDbEntity
8
0
100
AcDbSpline
70
0
71
3
72
9
73
5
74
0
42
0.000000001
43
0.0000000001
44
0.0000000001
40
0
40
0
40
0
40
0
40
0.012589911016243044
40
0.026452437885979237
40
0.026452437885979237
40
0.026452437885979237
40
0.026452437885979237
10
5.3813580796122551
20
-18.719523362283084
30
0
10
5.3998846018396307
20
-18.68135923499392
30
0
10
5.4388103478461503
20
-18.601173266619185
30
0
10
5.4428163433061982
20
-18.512011604760676
30
0
10
5.4449157044291496
20
-18.465286008481357
30
0
0
SPLINE
5
141
100
AcDbEntity
8
0
100
AcDbSpline
70
0
71
3
72
9
73
5
74
0
42
0.000000001
43
0.0000000001
44
0.0000000001
40
0
40
0
40
0
40
0
40
0.01423418690083075
40
0.026713432928385489
40
0.026713432928385489
40
0.026713432928385489
40
0.026713432928385489
10
5.4449157044291496
20
-18.465286008481357
30
0
10
5.4428292495975761
20
-18.417107434071632
30
0
10
5.4389135801189248
20
-18.3266902486682
30
0
10
5.3948708099341669
20
-18.247870017803283
30
0
10
5.3742961212992668
20
-18.211048952702853
30
0
0
SPLINE
5
142
100
AcDbEntity
8
0
100
AcDbSpline
70
0
71
3
72
9
73
5
74
0
42
0.000000001
43
0.0000000001
44
0.0000000001
40
0
40
0
40
0
40
0
40
0.011939298000700215
40
0.023699665049183853
40
0.023699665049183853
40
0.023699665049183853
40
0.023699665049183853
10
5.3742961212992668
20
-18.211048952702853
30
0
10
5.3514790836521442
20
-18.177870340117771
30
0
10
5.3061869609813073
20
-18.112010353624683
30
0
10
5.2384280307441955
20
-18.069643122017631
30
0
10
5.204804353415966
20
-18.048619441155765
30
0
0
SPLINE
5
143
100
AcDbEntity
8
0
100
AcDbSpline
70
0
71
3
72
9
73
5
74
0
42
0.000000001
43
0.0000000001
44
0.0000000001
40
0
40
0
40
0
40
0
40
0.012263979801528584
40
0.025325501268807914
40
0.025325501268807914
40
0.025325501268807914
40
0.025325501268807914
10
5.204804353415966
20
-18.048619441155765
30
0
10
5.1676524505229615
20
-18.031156644226964
30
0
10
5.0909326108720343
20
-17.995095423242063
30
0
10
5.0076439914903403
20
-17.979156332833607
30
0
10
4.9646882340312004
20
-17.970935813550327
30
0
0
SPLINE
5
144
100
AcDbEntity
8
0
100
AcDbSpline
70
0
71
3
72
9
73
5
74
0
42
0.000000001
43
0.0000000001
44
0.0000000001
40
0
40
0
40
0
40
0
40
0.013409714914822497
40
0.026317479258319988
40
0.026317479258319988
40
0.026317479258319988
40
0.026317479258319988
10
4.9646882340312004
20
-17.970935813550327
30
0
10
4.9206765709857336
20
-17.962697485857475
30
0
10
4.8343006833042601
20
-17.946529206400601
30
0
10
4.7464691659929681
20
-17.943951604187642
30
0
10
4.703391008079052
20
-17.942687384251926
30
0
0
LINE
5
145
100
AcDbEntity
8
0
100
AcDbLine
10
9.4491509720683098
20
-20.732235423688266
30
0
11
9.4491509720683098
21
-20.506246201161716
31
0
0
LINE
5
146
100
AcDbEntity
8
0
100
AcDbLine
10
9.4491509720683098
20
-20.506246201161716
30
0
11
9.1878537461161613
21
-20.506246201161716
31
0
0
SPLINE
5
147
100
AcDbEntity
8
0
100
AcDbSpline
70
0
71
3
72
9
73
5
74
0
42
0.000000001
43
0.0000000001
44
0.0000000001
40
0
40
0
40
0
40
0
40
0.013599212173841961
40
0.030404903985659378
40
0.030404903985659378
40
0.030404903985659378
40
0.030404903985659378
10
9.1878537461161613
20
-20.506246201161716
30
0
10
9.1425215786463099
20
-20.507047387420752
30
0
10
9.0411686339489705
20
-20.508838667016146
30
0
10
8.9400667685447743
20
-20.516265617901567
30
0
10
8.8841847702860832
20
-20.52037071383414
30
0
0
SPLINE
5
148
100
AcDbEntity
8
0
100
AcDbSpline
70
0
71
3
72
9
73
5
74
0
42
0.000000001
43
0.0000000001
44
0.0000000001
40
0
40
0
40
0
40
0
40
0.017567885695443521
40
0.035128913925211294
40
0.035128913925211294
40
0.035128913925211294
40
0.035128913925211294
10
8.8841847702860832
20
-20.52037071383414
30
0
10
8.825633094507257
20
-20.524488729672321
30
0
10
8.7085525980679712
20
-20.53272315391834
30
0
10
8.5949331447482624
20
-20.562155078745867
30
0
10
8.5381345078349113
20
-20.57686816847739
30
0
0
SPLINE
5
149
100
AcDbEntity
8
0
100
AcDbSpline
70
0
71
3
72
9
73
5
74
0
42
0.000000001
43
0.0000000001
44
0.0000000001
40
0
40
0
40
0
40
0
40
0.016392720037603691
40
0.032062205613356085
40
0.032062205613356085
40
0.032062205613356085
40
0.032062205613356085
10
8.5381345078349113
20
-20.57686816847739
30
0
10
8.4862315467792904
20
-20.59501938829451
30
0
10
8.3847155442189969
20
-20.630521009781042
30
0
10
8.2980209226051738
20
-20.694100307034191
30
0
10
8.2556514069437981
20
-20.72517286932883
30
0
0
SPLINE
5
150
100
AcDbEntity
8
0
100
AcDbSpline
70
0
71
3
72
9
73
5
74
0
42
0.000000001
43
0.0000000001
44
0.0000000001
40
0
40
0
40
0
40
0
40
0.014551673121935036
40
0.030516835059226487
40
0.030516835059226487
40
0.030516835059226487
40
0.030516835059226487
10
8.2556514069437981
20
-20.72517286932883
30
0
10
8.2227129396681065
20
-20.762622095588739
30
0
10
8.1536364998296484
20
-20.841158209703803
30
0
10
8.1464270140975525
20
-20.945834586366132
30
0
10
8.1426553055644035
20
-21.000596992139194
30
0
0
SPLINE
5
151
100
AcDbEntity
8
0
100
AcDbSpline
70
0
71
3
72
9
73
5
74
0
42
0.000000001
43
0.0000000001
44
0.0000000001
40
0
40
0
40
0
40
0
40
0.017085593564262654
40
0.033943479100841639
40
0.033943479100841639
40
0.033943479100841639
40
0.033943479100841639
10
8.1426553055644035
20
-21.000596992139194
30
0
10
8.1492397658606563
20
-21.059932223571984
30
0
10
8.1623209321435475
20
-21.177811896906551
30
0
10
8.2577103591066958
20
-21.248149569293378
30
0
10
8.305085115134716
20
-21.283082477216098
30
0
0
SPLINE
5
152
100
AcDbEntity
8
0
100
AcDbSpline
70
0
71
3
72
9
73
5
74
0
42
0.000000001
43
0.0000000001
44
0.0000000001
40
0
40
0
40
0
40
0
40
0.017967583745235233
40
0.035421663076253246
40
0.035421663076253246
40
0.035421663076253246
40
0.035421663076253246
10
8.305085115134716
20
-21.283082477216098
30
0
10
8.3593767982290146
20
-21.309858382098362
30
0
10
8.4664085357000385
20
-21.362644950106031
30
0
10
8.5854237297426383
20
-21.370848569404579
30
0
10
8.6440686509013176
20
-21.374890915517184
30
0
0
SPLINE
5
153
100
AcDbEntity
8
0
100
AcDbSpline
70
0
71
3
72
9
73
5
74
0
42
0.000000001
43
0.0000000001
44
0.0000000001
40
0
40
0
40
0
40
0
40
0.015220355463869597
40
0.030042782624983066
40
0.030042782624983066
40
0.030042782624983066
40
0.030042782624983066
10
8.6440686509013176
20
-21.374890915517184
30
0
10
8.6949478501572308
20
-21.373220951047802
30
0
10
8.7953760383823276
20
-21.369924682464301
30
0
10
8.8926752258067943
20
-21.344876284605569
30
0
10
8.9406804367899895
20
-21.332517973546359
30
0
0
SPLINE
5
154
100
AcDbEntity
8
0
100
AcDbSpline
70
0
71
3
72
9
73
5
74
0
42
0.000000001
43
0.0000000001
44
0.0000000001
40
0
40
0
40
0
40
0
40
0.01485756337414282
40
0.028851098036530388
40
0.028851098036530388
40
0.028851098036530388
40
0.028851098036530388
10
8.9406804367899895
20
-21.332517973546359
30
0
10
8.9880415595794094
20
-21.317331485862457
30
0
10
9.0800095601396968
20
-21.28784166751435
30
0
10
9.1621415207575208
20
-21.237081237681398
30
0
10
9.2019776627421379
20
-21.212461105946872
30
0
0
SPLINE
5
155
100
AcDbEntity
8
0
100
AcDbSpline
70
0
71
3
72
9
73
5
74
0
42
0.000000001
43
0.0000000001
44
0.0000000001
40
0
40
0
40
0
40
0
40
0.013386749462002613
40
0.026708029219891481
40
0.026708029219891481
40
0.026708029219891481
40
0.026708029219891481
10
9.2019776627421379
20
-21.212461105946872
30
0
10
9.2375569743196539
20
-21.184850293299498
30
0
10
9.3085415920517889
20
-21.129763702408695
30
0
10
9.3552396137783234
20
-21.053005787455064
30
0
10
9.378531388938427
20
-21.01472090876517
30
0
0
SPLINE
5
156
100
AcDbEntity
8
0
100
AcDbSpline
70
0
71
3
72
9
73
5
74
0
42
0.000000001
43
0.0000000001
44
0.0000000001
40
0
40
0
40
0
40
0
40
0.014097775173769121
40
0.029383672560489175
40
0.029383672560489175
40
0.029383672560489175
40
0.029383672560489175
10
9.378531388938427
20
-21.01472090876517
30
0
10
9.3991206807436001
20
-20.971921659246718
30
0
10
9.4420344739626483
20
-20.882716155670188
30
0
10
9.4467157111082312
20
-20.78372983096536
30
0
10
9.4491509720683098
20
-20.732235423688266
30
0
0
SPLINE
5
157
100
AcDbEntity
8
0
100
AcDbSpline
70
0
71
3
72
9
73
5
74
0
42
0.000000001
43
0.0000000001
44
0.0000000001
40
0
40
0
40
0
40
0
40
0.012282916553417851
40
0.024767103898793053
40
0.024767103898793053
40
0.024767103898793053
40
0.024767103898793053
10
17.846043519675732
20
-19.665851108197543
30
0
10
17.831320741473036
20
-19.704273948718242
30
0
10
17.801633934122414
20
-19.781749235562721
30
0
10
17.79359831407719
20
-19.864335529889065
30
0
10
17.789547853171825
20
-19.90596424735007
30
0
0
LINE
5
158
100
AcDbEntity
8
0
100
AcDbLine
10
17.789547853171825
20
-19.90596424735007
30
0
11
19.187853746116161
21
-19.90596424735007
31
0
0
SPLINE
5
159
100
AcDbEntity
8
0
100
AcDbSpline
70
0
71
3
72
9
73
5
74
0
42
0.000000001
43
0.0000000001
44
0.0000000001
40
0
40
0
40
0
40
0
40
0.025223080911638936
40
0.050247683150564895
40
0.050247683150564895
40
0.050247683150564895
40
0.050247683150564895
10
19.187853746116161
20
-19.90596424735007
30
0
10
19.182384420799448
20
-19.819873898374567
30
0
10
19.171488807907267
20
-19.648370639403275
30
0
10
19.064555486812871
20
-19.513896114741303
30
0
10
19.011300019919872
20
-19.446924440030429
30
0
0
SPLINE
5
160
100
AcDbEntity
8
0
100
AcDbSpline
70
0
71
3
72
9
73
5
74
0
42
0.000000001
43
0.0000000001
44
0.0000000001
40
0
40
0
40
0
40
0
40
0.025415571159892056
40
0.052150143875810732
40
0.052150143875810732
40
0.052150143875810732
40
0.052150143875810732
10
19.011300019919872
20
-19.446924440030429
30
0
10
18.94451266763614
20
-19.391319918026088
30
0
10
18.807471874463737
20
-19.277225145005673
30
0
10
18.629414792842702
20
-19.263356306463308
30
0
10
18.538134507834911
20
-19.25624649918494
30
0
0
SPLINE
5
161
100
AcDbEntity
8
0
100
AcDbSpline
70
0
71
3
72
9
73
5
74
0
42
0.000000001
43
0.0000000001
44
0.0000000001
40
0
40
0
40
0
40
0
40
0.016655835457057112
40
0.031740904969594662
40
0.031740904969594662
40
0.031740904969594662
40
0.031740904969594662
10
18.538134507834911
20
-19.25624649918494
30
0
10
18.482281038488715
20
-19.258098137666657
30
0
10
18.375841486578501
20
-19.261626791707318
30
0
10
18.275219874506181
20
-19.296276268704027
30
0
10
18.227398805320263
20
-19.312743655804965
30
0
0
SPLINE
5
162
100
AcDbEntity
8
0
100
AcDbSpline
70
0
71
3
72
9
73
5
74
0
42
0.000000001
43
0.0000000001
44
0.0000000001
40
0
40
0
40
0
40
0
40
0.0141351349819023
40
0.027730979915552598
40
0.027730979915552598
40
0.027730979915552598
40
0.027730979915552598
10
18.227398805320263
20
-19.312743655804965
30
0
10
18.184478422807409
20
-19.33273909535222
30
0
10
18.100275175582983
20
-19.371967099414256
30
0
10
18.02919724457853
20
-19.431742489694063
30
0
10
17.994349412620068
20
-19.461048952702853
30
0
0
SPLINE
5
163
100
AcDbEntity
8
0
100
AcDbSpline
70
0
71
3
72
9
73
5
74
0
42
0.000000001
43
0.0000000001
44
0.0000000001
40
0
40
0
40
0
40
0
40
0.012506604830951203
40
0.025405995408642364
40
0.025405995408642364
40
0.025405995408642364
40
0.025405995408642364
10
17.994349412620068
20
-19.461048952702853
30
0
10
17.965078175360993
20
-19.491069398079091
30
0
10
17.905616400605879
20
-19.55205311889727
30
0
10
17.866104767961559
20
-19.627529481273754
30
0
10
17.846043519675732
20
-19.665851108197543
30
0
0
LWPOLYLINE
5
164
100
AcDbEntity
8
0
100
AcDbPolyline
90
7
70
1
43
0.0
10
-14.887005873024464
20
41.510484107370999
10
-15.903954096138477
20
41.510484107370999
10
-15.903954096138477
20
45.324043520327237
10
-16.90677959471941
20
44.441275485392239
10
-17.507061548531055
20
45.133365281458524
10
-15.875706262886524
20
46.510484107370999
10
-14.887005873024464
20
46.510484107370999
0
LINE
5
165
100
AcDbEntity
8
0
100
AcDbLine
10
-11.038136072456837
20
46.510484107370999
30
0
11
-8.0155368521809578
21
46.510484107370999
31
0
0
LINE
5
166
100
AcDbEntity
8
0
100
AcDbLine
10
-8.0155368521809578
20
46.510484107370999
30
0
11
-8.0155368521809578
21
45.57828057610574
31
0
0
LINE
5
167
100
AcDbEntity
8
0
100
AcDbLine
10
-8.0155368521809578
20
45.57828057610574
30
0
11
-9.9999995902180672
21
45.57828057610574
31
0
0
LINE
5
168
100
AcDbEntity
8
0
100
AcDbLine
10
-9.9999995902180672
20
45.57828057610574
30
0
11
-10.021185465157032
21
44.808506854410794
31
0
0
SPLINE
5
169
100
AcDbEntity
8
0
100
AcDbSpline
70
0
71
3
72
9
73
5
74
0
42
0.000000001
43
0.0000000001
44
0.0000000001
40
0
40
0
40
0
40
0
40
0.01970516850996799
40
0.044991979236579313
40
0.044991979236579313
40
0.044991979236579313
40
0.044991979236579313
10
-10.021185465157032
20
44.808506854410794
30
0
10
-9.9573521859812075
20
44.824920780271604
30
0
10
-9.8116043549068976
20
44.862398004135322
30
0
10
-9.6609450913709658
20
44.864066160339192
30
0
10
-9.5762701705098152
20
44.865003713007596
30
0
0
SPLINE
5
170
100
AcDbEntity
8
0
100
AcDbSpline
70
0
71
3
72
9
73
5
74
0
42
0.000000001
43
0.0000000001
44
0.0000000001
40
0
40
0
40
0
40
0
40
0.03665572094612099
40
0.071083635198778555
40
0.071083635198778555
40
0.071083635198778555
40
0.071083635198778555
10
-9.5762701705098152
20
44.865003713007596
30
0
10
-9.4535721524665703
20
44.860914306362297
30
0
10
-9.2156332733753832
20
44.852984032924738
30
0
10
-8.9875733928678834
20
44.784956538359992
30
0
10
-8.8771172240376472
20
44.752008803721097
30
0
0
SPLINE
5
171
100
AcDbEntity
8
0
100
AcDbSpline
70
0
71
3
72
9
73
5
74
0
42
0.000000001
43
0.0000000001
44
0.0000000001
40
0
40
0
40
0
40
0
40
0.032616887290028006
40
0.06408221191411656
40
0.06408221191411656
40
0.06408221191411656
40
0.06408221191411656
10
-8.8771172240376472
20
44.752008803721097
30
0
10
-8.7757154252218896
20
44.710606989855023
30
0
10
-8.5764918910322674
20
44.629265082940279
30
0
10
-8.4134085089226485
20
44.4889736234976
30
0
10
-8.3333321288228035
20
44.420088418360379
30
0
0
SPLINE
5
172
100
AcDbEntity
8
0
100
AcDbSpline
70
0
71
3
72
9
73
5
74
0
42
0.000000001
43
0.0000000001
44
0.0000000001
40
0
40
0
40
0
40
0
40
0.031407208510147451
40
0.063872380173149307
40
0.063872380173149307
40
0.063872380173149307
40
0.063872380173149307
10
-8.3333321288228035
20
44.420088418360379
30
0
10
-8.2597250209600404
20
44.344515385283714
30
0
10
-8.1100313232429322
20
44.190823614238496
30
0
10
-8.0192866093309014
20
43.996341910608407
30
0
10
-7.9731627181172371
20
43.897490390177396
30
0
0
SPLINE
5
173
100
AcDbEntity
8
0
100
AcDbSpline
70
0
71
3
72
9
73
5
74
0
42
0.000000001
43
0.0000000001
44
0.0000000001
40
0
40
0
40
0
40
0
40
0.033686575532505939
40
0.070019429519360993
40
0.070019429519360993
40
0.070019429519360993
40
0.070019429519360993
10
-7.9731627181172371
20
43.897490390177396
30
0
10
-7.9361010304641955
20
43.79079358252136
30
0
10
-7.8590662418141388
20
43.569018306004956
30
0
10
-7.8504934684713579
20
43.334270982260072
30
0
10
-7.846045084297657
20
43.212461360331204
30
0
0
SPLINE
5
174
100
AcDbEntity
8
0
100
AcDbSpline
70
0
71
3
72
9
73
5
74
0
42
0.000000001
43
0.0000000001
44
0.0000000001
40
0
40
0
40
0
40
0
40
0.040248820959428729
40
0.077438441655486273
40
0.077438441655486273
40
0.077438441655486273
40
0.077438441655486273
10
-7.846045084297657
20
43.212461360331204
30
0
10
-7.8511877846004241
20
43.07742136762316
30
0
10
-7.8610823029454213
20
42.817605394205728
30
0
10
-7.9511136464690413
20
42.573866539395468
30
0
10
-7.994350977241993
20
42.456811555262234
30
0
0
SPLINE
5
175
100
AcDbEntity
8
0
100
AcDbSpline
70
0
71
3
72
9
73
5
74
0
42
0.000000001
43
0.0000000001
44
0.0000000001
40
0
40
0
40
0
40
0
40
0.035085818930452733
40
0.069366188393466754
40
0.069366188393466754
40
0.069366188393466754
40
0.069366188393466754
10
-7.994350977241993
20
42.456811555262234
30
0
10
-8.0456379739512229
20
42.350753435746007
30
0
10
-8.1470345947033174
20
42.141071925572291
30
0
10
-8.3095272488278979
20
41.97427209667579
30
0
10
-8.3898301795125008
20
41.891840585108426
30
0
0
SPLINE
5
176
100
AcDbEntity
8
0
100
AcDbSpline
70
0
71
3
72
9
73
5
74
0
42
0.000000001
43
0.0000000001
44
0.0000000001
40
0
40
0
40
0
40
0
40
0.034295729095172922
40
0.070255784657949391
40
0.070255784657949391
40
0.070255784657949391
40
0.070255784657949391
10
-8.3898301795125008
20
41.891840585108426
30
0
10
-8.480030668406755
20
41.820477335747185
30
0
10
-8.6648089568697486
20
41.674287672722329
30
0
10
-8.8846505270058493
20
41.589297080633216
30
0
10
-8.9971752837300301
20
41.545795091028836
30
0
0
SPLINE
5
177
100
AcDbEntity
8
0
100
AcDbSpline
70
0
71
3
72
9
73
5
74
0
42
0.000000001
43
0.0000000001
44
0.0000000001
40
0
40
0
40
0
40
0
40
0.037296599630573329
40
0.076782330895937195
40
0.076782330895937195
40
0.076782330895937195
40
0.076782330895937195
10
-8.9971752837300301
20
41.545795091028836
30
0
10
-9.1170140663241028
20
41.510786558018246
30
0
10
-9.3637255936602859
20
41.438714658906122
30
0
10
-9.6206824406236748
20
41.430145143390796
30
0
10
-9.7528238967061043
20
41.425738223429349
30
0
0
SPLINE
5
178
100
AcDbEntity
8
0
100
AcDbSpline
70
0
71
3
72
9
73
5
74
0
42
0.000000001
43
0.0000000001
44
0.0000000001
40
0
40
0
40
0
40
0
40
0.060201773902037854
40
0.11476473297650069
40
0.11476473297650069
40
0.11476473297650069
40
0.11476473297650069
10
-9.7528238967061043
20
41.425738223429349
30
0
10
-9.9565682187667992
20
41.436175767793237
30
0
10
-10.344973097912442
20
41.456073221210502
30
0
10
-10.680753128045133
20
41.650905138869263
30
0
10
-10.840394087135792
20
41.74353469216409
30
0
0
SPLINE
5
179
100
AcDbEntity
8
0
100
AcDbSpline
70
0
71
3
72
9
73
5
74
0
42
0.000000001
43
0.0000000001
44
0.0000000001
40
0
40
0
40
0
40
0
40
0.054347919703612531
40
0.11506933251147414
40
0.11506933251147414
40
0.11506933251147414
40
0.11506933251147414
10
-10.840394087135792
20
41.74353469216409
30
0
10
-10.976144853253928
20
41.868391259438539
30
0
10
-11.263566158987866
20
42.132746582223596
30
0
10
-11.379499753982216
20
42.50667003356331
30
0
10
-11.440677233040333
20
42.703987248774197
30
0
0
LINE
5
180
100
AcDbEntity
8
0
100
AcDbLine
10
-11.440677233040333
20
42.703987248774197
30
0
11
-10.33192116767168
21
42.958223708506253
31
0
0
SPLINE
5
181
100
AcDbEntity
8
0
100
AcDbSpline
70
0
71
3
72
9
73
5
74
0
42
0.000000001
43
0.0000000001
44
0.0000000001
40
0
40
0
40
0
40
0
40
0.025572828987343681
40
0.050008791569756031
40
0.050008791569756031
40
0.050008791569756031
40
0.050008791569756031
10
-10.33192116767168
20
42.958223708506253
30
0
10
-10.312633536292806
20
42.873566043419785
30
0
10
-10.274915725018271
20
42.708014256787706
30
0
10
-10.161399272043834
20
42.581963947308822
30
0
10
-10.105931349098682
20
42.52037156426492
30
0
0
SPLINE
5
182
100
AcDbEntity
8
0
100
AcDbSpline
70
0
71
3
72
9
73
5
74
0
42
0.000000001
43
0.0000000001
44
0.0000000001
40
0
40
0
40
0
40
0
40
0.023981477216280019
40
0.04955305439881235
40
0.04955305439881235
40
0.04955305439881235
40
0.04955305439881235
10
-10.105931349098682
20
42.52037156426492
30
0
10
-10.039511460681334
20
42.473009707543753
30
0
10
-9.9022676906573004
20
42.375145650156192
30
0
10
-9.7338190953666945
20
42.363797766649341
30
0
10
-9.646892137825489
20
42.357941754694608
30
0
0
SPLINE
5
183
100
AcDbEntity
8
0
100
AcDbSpline
70
0
71
3
72
9
73
5
74
0
42
0.000000001
43
0.0000000001
44
0.0000000001
40
0
40
0
40
0
40
0
40
0.030825586657640892
40
0.059032317949407928
40
0.059032317949407928
40
0.059032317949407928
40
0.059032317949407928
10
-9.646892137825489
20
42.357941754694608
30
0
10
-9.5414054456274844
20
42.365093721194427
30
0
10
-9.3393939146735327
20
42.378790043184011
30
0
10
-9.1842835815358939
20
42.508045717307503
30
0
10
-9.1101690009236336
20
42.569806464548734
30
0
0
SPLINE
5
184
100
AcDbEntity
8
0
100
AcDbSpline
70
0
71
3
72
9
73
5
74
0
42
0.000000001
43
0.0000000001
44
0.0000000001
40
0
40
0
40
0
40
0
40
0.028503921248682895
40
0.05860364288758016
40
0.05860364288758016
40
0.05860364288758016
40
0.05860364288758016
10
-9.1101690009236336
20
42.569806464548734
30
0
10
-9.0504475322222078
20
42.64653878237786
30
0
10
-8.9276610708800952
20
42.804299299352436
30
0
10
-8.9129323409917092
20
43.003973762531089
30
0
10
-8.9053674414753914
20
43.106529601450589
30
0
0
SPLINE
5
185
100
AcDbEntity
8
0
100
AcDbSpline
70
0
71
3
72
9
73
5
74
0
42
0.000000001
43
0.0000000001
44
0.0000000001
40
0
40
0
40
0
40
0
40
0.022578145741214906
40
0.042099964743232458
40
0.042099964743232458
40
0.042099964743232458
40
0.042099964743232458
10
-8.9053674414753914
20
43.106529601450589
30
0
10
-8.9083481055181188
20
43.182878322272018
30
0
10
-8.9139059512574583
20
43.325240697447285
30
0
10
-8.9804449591224156
20
43.450834098912487
30
0
10
-9.0112992003560066
20
43.509071954126981
30
0
0
SPLINE
5
186
100
AcDbEntity
8
0
100
AcDbSpline
70
0
71
3
72
9
73
5
74
0
42
0.000000001
43
0.0000000001
44
0.0000000001
40
0
40
0
40
0
40
0
40
0.018584250147070294
40
0.037302296719280939
40
0.037302296719280939
40
0.037302296719280939
40
0.037302296719280939
10
-9.0112992003560066
20
43.509071954126981
30
0
10
-9.0472987589873242
20
43.560326858182648
30
0
10
-9.1195570533603245
20
43.663205673538251
30
0
10
-9.2261654021948445
20
43.729861140150263
30
0
10
-9.2796607688069344
20
43.763308413859036
30
0
0
SPLINE
5
187
100
AcDbEntity
8
0
100
AcDbSpline
70
0
71
3
72
9
73
5
74
0
42
0.000000001
43
0.0000000001
44
0.0000000001
40
0
40
0
40
0
40
0
40
0.019189271659966946
40
0.03927371060481074
40
0.03927371060481074
40
0.03927371060481074
40
0.03927371060481074
10
-9.2796607688069344
20
43.763308413859036
30
0
10
-9.3363146541837025
20
43.793742842984543
30
0
10
-9.4522652925587423
20
43.856031447944552
30
0
10
-9.5810381477593474
20
43.883462331683134
30
0
10
-9.646892137825489
20
43.897490390177396
30
0
0
SPLINE
5
188
100
AcDbEntity
8
0
100
AcDbSpline
70
0
71
3
72
9
73
5
74
0
42
0.000000001
43
0.0000000001
44
0.0000000001
40
0
40
0
40
0
40
0
40
0.020650900671521456
40
0.041150072017872102
40
0.041150072017872102
40
0.041150072017872102
40
0.041150072017872102
10
-9.646892137825489
20
43.897490390177396
30
0
10
-9.7150335288527412
20
43.907789039231005
30
0
10
-9.8508156524884694
20
43.928310669593969
30
0
10
-9.9881057176110701
20
43.931307360845139
30
0
10
-10.056497640907764
20
43.932800181742337
30
0
0
SPLINE
5
189
100
AcDbEntity
8
0
100
AcDbSpline
70
0
71
3
72
9
73
5
74
0
42
0.000000001
43
0.0000000001
44
0.0000000001
40
0
40
0
40
0
40
0
40
0.026335642123418056
40
0.053251715114245028
40
0.053251715114245028
40
0.053251715114245028
40
0.053251715114245028
10
-10.056497640907764
20
43.932800181742337
30
0
10
-10.144369419928987
20
43.930652189864084
30
0
10
-10.322049649675847
20
43.926308864911825
30
0
10
-10.497485028433244
20
43.897783449329154
30
0
10
-10.586158819496632
20
43.883365281458524
30
0
0
SPLINE
5
190
100
AcDbEntity
8
0
100
AcDbSpline
70
0
71
3
72
9
73
5
74
0
42
0.000000001
43
0.0000000001
44
0.0000000001
40
0
40
0
40
0
40
0
40
0.026427127585608487
40
0.052622024731921999
40
0.052622024731921999
40
0.052622024731921999
40
0.052622024731921999
10
-10.586158819496632
20
43.883365281458524
30
0
10
-10.672486753085209
20
43.865478070203991
30
0
10
-10.844384006830934
20
43.829860832955198
30
0
10
-11.011463201198231
20
43.775997372768181
30
0
10
-11.094634123146534
20
43.74918449723306
30
0
0
LINE
5
191
100
AcDbEntity
8
0
100
AcDbLine
10
-11.094634123146534
20
43.74918449723306
30
0
11
-11.038136072456837
21
46.510484107370999
31
0
0
LINE
5
192
100
AcDbEntity
8
0
100
AcDbLine
10
14.837572984397411
20
39.900314696665433
30
0
11
13.778250627219677
21
39.900314696665433
31
0
0
LINE
5
193
100
AcDbEntity
8
0
100
AcDbLine
10
13.778250627219677
20
39.900314696665433
30
0
11
13.778250627219677
21
44.942687638636258
31
0
0
LINE
5
194
100
AcDbEntity
8
0
100
AcDbLine
10
13.778250627219677
20
44.942687638636258
30
0
11
14.75282471626997
21
44.942687638636258
31
0
0
LINE
5
195
100
AcDbEntity
8
0
100
AcDbLine
10
14.75282471626997
20
44.942687638636258
30
0
11
14.75282471626997
21
44.490710385676053
31
0
0
LINE
5
196
100
AcDbEntity
8
0
100
AcDbLine
10
14.75282471626997
20
44.490710385676053
30
0
11
14.766948632895947
21
44.490710385676053
31
0
0
SPLINE
5
197
100
AcDbEntity
8
0
100
AcDbSpline
70
0
71
3
72
9
73
5
74
0
42
0.000000001
43
0.0000000001
44
0.0000000001
40
0
40
0
40
0
40
0
40
0.011691067561336355
40
0.024550674561877078
40
0.024550674561877078
40
0.024550674561877078
40
0.024550674561877078
10
14.766948632895947
20
44.490710385676053
30
0
10
14.790324221259485
20
44.521975117081908
30
0
10
14.83941182250673
20
44.587629535892063
30
0
10
14.89845284320511
20
44.644524547375077
30
0
10
14.929378442466259
20
44.67432607018533
30
0
0
SPLINE
5
198
100
AcDbEntity
8
0
100
AcDbSpline
70
0
71
3
72
9
73
5
74
0
42
0.000000001
43
0.0000000001
44
0.0000000001
40
0
40
0
40
0
40
0
40
0.014670722465233172
40
0.029851382802119644
40
0.029851382802119644
40
0.029851382802119644
40
0.029851382802119644
10
14.929378442466259
20
44.67432607018533
30
0
10
14.966234707553454
20
44.706613162863533
30
0
10
15.041228320198048
20
44.772309611377814
30
0
10
15.126251829477164
20
44.824393161354486
30
0
10
15.169489793479443
20
44.850879796381619
30
0
0
SPLINE
5
199
100
AcDbEntity
8
0
100
AcDbSpline
70
0
71
3
72
9
73
5
74
0
42
0.000000001
43
0.0000000001
44
0.0000000001
40
0
40
0
40
0
40
0
40
0.016267062762751857
40
0.032965129087996224
40
0.032965129087996224
40
0.032965129087996224
40
0.032965129087996224
10
15.169489793479443
20
44.850879796381619
30
0
10
15.217799551549573
20
44.875701497635859
30
0
10
15.315699057699996
20
44.926002562921219
30
0
10
15.420219857583284
20
44.960516186038532
30
0
10
15.473163537681103
20
44.977998622294095
30
0
0
SPLINE
5
200
100
AcDbEntity
8
0
100
AcDbSpline
70
0
71
3
72
9
73
5
74
0
42
0.000000001
43
0.0000000001
44
0.0000000001
40
0
40
0
40
0
40
0
40
0.017177650943514072
40
0.03505222738292102
40
0.03505222738292102
40
0.03505222738292102
40
0.03505222738292102
10
15.473163537681103
20
44.977998622294095
30
0
10
15.528775557495225
20
44.992415685176759
30
0
10
15.642255868054473
20
45.021834734848852
30
0
10
15.759447953773078
20
45.025542685572766
30
0
10
15.819209031760693
20
45.027433522577908
30
0
0
SPLINE
5
201
100
AcDbEntity
8
0
100
AcDbSpline
70
0
71
3
72
9
73
5
74
0
42
0.000000001
43
0.0000000001
44
0.0000000001
40
0
40
0
40
0
40
0
40
0.036524650309502811
40
0.070870870012691656
40
0.070870870012691656
40
0.070870870012691656
40
0.070870870012691656
10
15.819209031760693
20
45.027433522577908
30
0
10
15.941687590770997
20
45.022562612631738
30
0
10
16.179339750652247
20
45.013111307206152
30
0
10
16.402937582108834
20
44.932378404632274
30
0
10
16.511300019919872
20
44.893252738352444
30
0
0
SPLINE
5
202
100
AcDbEntity
8
0
100
AcDbSpline
70
0
71
3
72
9
73
5
74
0
42
0.000000001
43
0.0000000001
44
0.0000000001
40
0
40
0
40
0
40
0
40
0.032704271283693506
40
0.06485894220774821
40
0.06485894220774821
40
0.06485894220774821
40
0.06485894220774821
10
16.511300019919872
20
44.893252738352444
30
0
10
16.61073693592261
20
44.846515649525962
30
0
10
16.807939715106784
20
44.753826895911487
30
0
10
16.963727407547413
20
44.601526357812482
30
0
10
17.040961198508739
20
44.52602136933389
30
0
0
SPLINE
5
203
100
AcDbEntity
8
0
100
AcDbSpline
70
0
71
3
72
9
73
5
74
0
42
0.000000001
43
0.0000000001
44
0.0000000001
40
0
40
0
40
0
40
0
40
0.032456033949502631
40
0.066015282094458214
40
0.066015282094458214
40
0.066015282094458214
40
0.066015282094458214
10
17.040961198508739
20
44.52602136933389
30
0
10
17.112197004073664
20
44.443635145178462
30
0
10
17.2570899939846
20
44.276062303814655
30
0
10
17.343221331852689
20
44.071898837264897
30
0
10
17.387006692588329
20
43.968111165400174
30
0
0
SPLINE
5
204
100
AcDbEntity
8
0
100
AcDbSpline
70
0
71
3
72
9
73
5
74
0
42
0.000000001
43
0.0000000001
44
0.0000000001
40
0
40
0
40
0
40
0
40
0.035244360749646715
40
0.07261796186989436
40
0.07261796186989436
40
0.07261796186989436
40
0.07261796186989436
10
17.387006692588329
20
43.968111165400174
30
0
10
17.422014464525446
20
43.855382554092145
30
0
10
17.494144955577244
20
43.623114984940834
30
0
10
17.502671637164966
20
43.379970948777988
30
0
10
17.50705998390913
20
43.254834302302029
30
0
0
SPLINE
5
205
100
AcDbEntity
8
0
100
AcDbSpline
70
0
71
3
72
9
73
5
74
0
42
0.000000001
43
0.0000000001
44
0.0000000001
40
0
40
0
40
0
40
0
40
0.035423553325239263
40
0.070365002933604093
40
0.070365002933604093
40
0.070365002933604093
40
0.070365002933604093
10
17.50705998390913
20
43.254834302302029
30
0
10
17.502482373000472
20
43.136339089700755
30
0
10
17.493389451066328
20
42.900961348067874
30
0
10
17.427024017360413
20
42.674967323074704
30
0
10
17.394068650901318
20
42.562744506235745
30
0
0
SPLINE
5
206
100
AcDbEntity
8
0
100
AcDbSpline
70
0
71
3
72
9
73
5
74
0
42
0.000000001
43
0.0000000001
44
0.0000000001
40
0
40
0
40
0
40
0
40
0.03338327660362609
40
0.065995421556288417
40
0.065995421556288417
40
0.065995421556288417
40
0.065995421556288417
10
17.394068650901318
20
42.562744506235745
30
0
10
17.355043723468278
20
42.457908378048671
30
0
10
17.27789531866291
20
42.250657767026141
30
0
10
17.147679899096644
20
42.071955517752684
30
0
10
17.083332948386669
20
41.983648427363065
30
0
0
SPLINE
5
207
100
AcDbEntity
8
0
100
AcDbSpline
70
0
71
3
72
9
73
5
74
0
42
0.000000001
43
0.0000000001
44
0.0000000001
40
0
40
0
40
0
40
0
40
0.031840818573673144
40
0.064013147869020515
40
0.064013147869020515
40
0.064013147869020515
40
0.064013147869020515
10
17.083332948386669
20
41.983648427363065
30
0
10
17.013347961315013
20
41.902889320164675
30
0
10
16.872649338392904
20
41.740530282224135
30
0
10
16.688563240397922
20
41.629729980800896
30
0
10
16.596043519675732
20
41.574042924280789
30
0
0
SPLINE
5
208
100
AcDbEntity
8
0
100
AcDbSpline
70
0
71
3
72
9
73
5
74
0
42
0.000000001
43
0.0000000001
44
0.0000000001
40
0
40
0
40
0
40
0
40
0.032837798523353223
40
0.067815836772528088
40
0.067815836772528088
40
0.067815836772528088
40
0.067815836772528088
10
16.596043519675732
20
41.574042924280789
30
0
10
16.494471899616883
20
41.530799465293349
30
0
10
16.284708617168651
20
41.441494107198565
30
0
10
16.056811710690184
20
41.431099534159316
30
0
10
15.939267091453075
20
41.425738223429349
30
0
0
SPLINE
5
209
100
AcDbEntity
8
0
100
AcDbSpline
70
0
71
3
72
9
73
5
74
0
42
0.000000001
43
0.0000000001
44
0.0000000001
40
0
40
0
40
0
40
0
40
0.032228032658147249
40
0.063144489586445918
40
0.063144489586445918
40
0.063144489586445918
40
0.063144489586445918
10
15.939267091453075
20
41.425738223429349
30
0
10
15.83143730033834
20
41.429504939333761
30
0
10
15.620166038627232
20
41.436885078100651
30
0
10
15.417180397259393
20
41.495774775141648
30
0
10
15.317795686423779
20
41.524608023996976
30
0
0
SPLINE
5
210
100
AcDbEntity
8
0
100
AcDbSpline
70
0
71
3
72
9
73
5
74
0
42
0.000000001
43
0.0000000001
44
0.0000000001
40
0
40
0
40
0
40
0
40
0.029392886798991352
40
0.059106201747309489
40
0.059106201747309489
40
0.059106201747309489
40
0.059106201747309489
10
15.317795686423779
20
41.524608023996976
30
0
10
15.227589066883178
20
41.566025042477072
30
0
10
15.046192435447407
20
41.64931058931014
30
0
10
14.916762635282979
20
41.801305847087214
30
0
10
14.851696901023388
20
41.877715476389554
30
0
0
LINE
5
211
100
AcDbEntity
8
0
100
AcDbLine
10
14.851696901023388
20
41.877715476389554
30
0
11
14.837572984397411
21
41.877715476389554
31
0
0
LINE
5
212
100
AcDbEntity
8
0
100
AcDbLine
10
14.837572984397411
20
41.877715476389554
30
0
11
14.837572984397411
21
39.900314696665433
31
0
0
LINE
5
213
100
AcDbEntity
8
0
100
AcDbLine
10
6.8714694306254387
20
41.510484107370999
30
0
11
5.8968953415751457
21
41.510484107370999
31
0
0
LINE
5
214
100
AcDbEntity
8
0
100
AcDbLine
10
5.8968953415751457
20
41.510484107370999
30
0
11
5.8968953415751457
21
41.941275485392239
31
0
0
LINE
5
215
100
AcDbEntity
8
0
100
AcDbLine
10
5.8968953415751457
20
41.941275485392239
30
0
11
5.8827714249491692
21
41.941275485392239
31
0
0
SPLINE
5
216
100
AcDbEntity
8
0
100
AcDbSpline
70
0
71
3
72
9
73
5
74
0
42
0.000000001
43
0.0000000001
44
0.0000000001
40
0
40
0
40
0
40
0
40
0.031407141497972357
40
0.062443223014619187
40
0.062443223014619187
40
0.062443223014619187
40
0.062443223014619187
10
5.8827714249491692
20
41.941275485392239
30
0
10
5.8192158795586746
20
41.856061590101532
30
0
10
5.6928556663921537
20
41.686640559921969
30
0
10
5.5036477169206677
20
41.592557221702968
30
0
10
5.4096059128642082
20
41.545795091028836
30
0
0
SPLINE
5
217
100
AcDbEntity
8
0
100
AcDbSpline
70
0
71
3
72
9
73
5
74
0
42
0.000000001
43
0.0000000001
44
0.0000000001
40
0
40
0
40
0
40
0
40
0.031166634788684176
40
0.06291170431849076
40
0.06291170431849076
40
0.06291170431849076
40
0.06291170431849076
10
5.4096059128642082
20
41.545795091028836
30
0
10
5.311129278226856
20
41.510779490815402
30
0
10
5.1123483394892943
20
41.440098421072136
30
0
10
4.9015629505291436
20
41.430554207052062
30
0
10
4.7952012345194817
20
41.425738223429349
30
0
0
SPLINE
5
218
100
AcDbEntity
8
0
100
AcDbSpline
70
0
71
3
72
9
73
5
74
0
42
0.000000001
43
0.0000000001
44
0.0000000001
40
0
40
0
40
0
40
0
40
0.023724067504481285
40
0.04727936011044729
40
0.04727936011044729
40
0.04727936011044729
40
0.04727936011044729
10
4.7952012345194817
20
41.425738223429349
30
0
10
4.7158872517850448
20
41.428638861366167
30
0
10
4.5578235322821925
20
41.434419501871396
30
0
10
4.4051579726080226
20
41.475762488989147
30
0
10
4.329097680747509
20
41.496360190745023
30
0
0
SPLINE
5
219
100
AcDbEntity
8
0
100
AcDbSpline
70
0
71
3
72
9
73
5
74
0
42
0.000000001
43
0.0000000001
44
0.0000000001
40
0
40
0
40
0
40
0
40
0.022196012929897629
40
0.043794145215354185
40
0.043794145215354185
40
0.043794145215354185
40
0.043794145215354185
10
4.329097680747509
20
41.496360190745023
30
0
10
4.2585789715629119
20
41.520176698776567
30
0
10
4.1194410732303055
20
41.567168183893742
30
0
10
3.9997209169115733
20
41.652176100501507
30
0
10
3.9406780526041985
20
41.694099791880276
30
0
0
SPLINE
5
220
100
AcDbEntity
8
0
100
AcDbSpline
70
0
71
3
72
9
73
5
74
0
42
0.000000001
43
0.0000000001
44
0.0000000001
40
0
40
0
40
0
40
0
40
0.021348418626438471
40
0.042946550911895032
40
0.042946550911895032
40
0.042946550911895032
40
0.042946550911895032
10
3.9406780526041985
20
41.694099791880276
30
0
10
3.8870285739005883
20
41.741664347286438
30
0
10
3.7791020755093685
20
41.837349823391108
30
0
10
3.7080493937290626
20
41.962887540087038
30
0
10
3.6723164841532707
20
42.02602136933389
30
0
0
SPLINE
5
221
100
AcDbEntity
8
0
100
AcDbSpline
70
0
71
3
72
9
73
5
74
0
42
0.000000001
43
0.0000000001
44
0.0000000001
40
0
40
0
40
0
40
0
40
0.022613307585778192
40
0.047278388942605928
40
0.047278388942605928
40
0.047278388942605928
40
0.047278388942605928
10
3.6723164841532707
20
42.02602136933389
30
0
10
3.6434952001554555
20
42.096325503593768
30
0
10
3.5832375899184221
20
42.243312678787106
30
0
10
3.5768033954630418
20
42.402179790433706
30
0
10
3.5734466835856438
20
42.485060580607083
30
0
0
SPLINE
5
222
100
AcDbEntity
8
0
100
AcDbSpline
70
0
71
3
72
9
73
5
74
0
42
0.000000001
43
0.0000000001
44
0.0000000001
40
0
40
0
40
0
40
0
40
0.027493630663366166
40
0.051615060219225406
40
0.051615060219225406
40
0.051615060219225406
40
0.051615060219225406
10
3.5734466835856438
20
42.485060580607083
30
0
10
3.5765851423014317
20
42.577528466962718
30
0
10
3.5824771155222113
20
42.751122692513661
30
0
10
3.6485161918035747
20
42.911515742050341
30
0
10
3.679378442466259
20
42.986472733851102
30
0
0
SPLINE
5
223
100
AcDbEntity
8
0
100
AcDbSpline
70
0
71
3
72
9
73
5
74
0
42
0.000000001
43
0.0000000001
44
0.0000000001
40
0
40
0
40
0
40
0
40
0.022823876487967906
40
0.045317922476313492
40
0.045317922476313492
40
0.045317922476313492
40
0.045317922476313492
10
3.679378442466259
20
42.986472733851102
30
0
10
3.7197594121038158
20
43.051631971018764
30
0
10
3.7999378012796337
20
43.181008821622413
30
0
10
3.917591519680732
20
43.27754131283838
30
0
10
3.9759902283549309
20
43.325456269617703
30
0
0
SPLINE
5
224
100
AcDbEntity
8
0
100
AcDbSpline
70
0
71
3
72
9
73
5
74
0
42
0.000000001
43
0.0000000001
44
0.0000000001
40
0
40
0
40
0
40
0
40
0.023498233514958063
40
0.047861129303277038
40
0.047861129303277038
40
0.047861129303277038
40
0.047861129303277038
10
3.9759902283549309
20
43.325456269617703
30
0
10
4.0423084088406469
20
43.367737964550557
30
0
10
4.1773850736190665
20
43.453857189940635
30
0
10
4.3293990743932342
20
43.504486061197696
30
0
10
4.4067792221903801
20
43.530257829065945
30
0
0
SPLINE
5
225
100
AcDbEntity
8
0
100
AcDbSpline
70
0
71
3
72
9
73
5
74
0
42
0.000000001
43
0.0000000001
44
0.0000000001
40
0
40
0
40
0
40
0
40
0.025271317244166983
40
0.050758766252522451
40
0.050758766252522451
40
0.050758766252522451
40
0.050758766252522451
10
4.4067792221903801
20
43.530257829065945
30
0
10
4.4875845464789421
20
43.554411863171296
30
0
10
4.649886278830051
20
43.602926507634152
30
0
10
4.8171451020334288
20
43.62977255778722
30
0
10
4.9011306092143059
20
43.643252738352444
30
0
0
SPLINE
5
226
100
AcDbEntity
8
0
100
AcDbSpline
70
0
71
3
72
9
73
5
74
0
42
0.000000001
43
0.0000000001
44
0.0000000001
40
0
40
0
40
0
40
0
40
0.026106579322363436
40
0.051745944328080079
40
0.051745944328080079
40
0.051745944328080079
40
0.051745944328080079
10
4.9011306092143059
20
43.643252738352444
30
0
10
4.9875460257944315
20
43.653835159045222
30
0
10
5.158830332337514
20
43.674810612982057
30
0
10
5.3312409235123503
20
43.682042423223052
30
0
10
5.4166678711771965
20
43.68562568032327
30
0
0
SPLINE
5
227
100
AcDbEntity
8
0
100
AcDbSpline
70
0
71
3
72
9
73
5
74
0
42
0.000000001
43
0.0000000001
44
0.0000000001
40
0
40
0
40
0
40
0
40
0.025076261344456226
40
0.048029020120654214
40
0.048029020120654214
40
0.048029020120654214
40
0.048029020120654214
10
5.4166678711771965
20
43.68562568032327
30
0
10
5.5002325397434504
20
43.687684214568193
30
0
10
5.6602854715905782
20
43.691626962703964
30
0
10
5.8203848715048601
20
43.692344657110681
30
0
10
5.8968953415751457
20
43.692687638636258
30
0
0
SPLINE
5
228
100
AcDbEntity
8
0
100
AcDbSpline
70
0
71
3
72
9
73
5
74
0
42
0.000000001
43
0.0000000001
44
0.0000000001
40
0
40
0
40
0
40
0
40
0.025761194999401993
40
0.050383734690627291
40
0.050383734690627291
40
0.050383734690627291
40
0.050383734690627291
10
5.8968953415751457
20
43.692687638636258
30
0
10
5.889158895400648
20
43.781202119275775
30
0
10
5.8740279571226228
20
43.954318704470055
30
0
10
5.7518178716372947
20
44.07743565746653
30
0
10
5.6920937821269035
20
44.137602933283475
30
0
0
SPLINE
5
229
100
AcDbEntity
8
0
100
AcDbSpline
70
0
71
3
72
9
73
5
74
0
42
0.000000001
43
0.0000000001
44
0.0000000001
40
0
40
0
40
0
40
0
40
0.025163102628148252
40
0.051111837660908925
40
0.051111837660908925
40
0.051111837660908925
40
0.051111837660908925
10
5.6920937821269035
20
44.137602933283475
30
0
10
5.6222579200123057
20
44.187034745712957
30
0
10
5.4804058082095963
20
44.287441711003233
30
0
10
5.3069760371134755
20
44.300476917045408
30
0
10
5.2189282700419426
20
44.307094701166776
30
0
0
SPLINE
5
230
100
AcDbEntity
8
0
100
AcDbSpline
70
0
71
3
72
9
73
5
74
0
42
0.000000001
43
0.0000000001
44
0.0000000001
40
0
40
0
40
0
40
0
40
0.025229316905818668
40
0.049695959796790479
40
0.049695959796790479
40
0.049695959796790479
40
0.049695959796790479
10
5.2189282700419426
20
44.307094701166776
30
0
10
5.1341721633886284
20
44.302682204747541
30
0
10
4.9672220995205141
20
44.293990600235524
30
0
10
4.8140912098295541
20
44.227054308679101
30
0
10
4.7387007996439934
20
44.194099791880276
30
0
0
SPLINE
5
231
100
AcDbEntity
8
0
100
AcDbSpline
70
0
71
3
72
9
73
5
74
0
42
0.000000001
43
0.0000000001
44
0.0000000001
40
0
40
0
40
0
40
0
40
0.023805398349421827
40
0.04853536029381196
40
0.04853536029381196
40
0.04853536029381196
40
0.04853536029381196
10
4.7387007996439934
20
44.194099791880276
30
0
10
4.6693271989743756
20
44.154673160945997
30
0
10
4.527885637948792
20
44.07428863179517
30
0
10
4.4149095926988879
20
43.957166832639857
30
0
10
4.3573455139994621
20
43.897490390177396
30
0
0
LINE
5
232
100
AcDbEntity
8
0
100
AcDbLine
10
4.3573455139994621
20
43.897490390177396
30
0
11
3.7923745438456535
21
44.476585276957181
31
0
0
SPLINE
5
233
100
AcDbEntity
8
0
100
AcDbSpline
70
0
71
3
72
9
73
5
74
0
42
0.000000001
43
0.0000000001
44
0.0000000001
40
0
40
0
40
0
40
0
40
0.040112986487742773
40
0.080879661383358531
40
0.080879661383358531
40
0.080879661383358531
40
0.080879661383358531
10
3.7923745438456535
20
44.476585276957181
30
0
10
3.8958883406582157
20
44.562685438444447
30
0
10
4.1046028136447621
20
44.736288865062185
30
0
10
4.357162620547026
20
44.835954966770942
30
0
10
4.4844631478190422
20
44.886190780039456
30
0
0
SPLINE
5
234
100
AcDbEntity
8
0
100
AcDbSpline
70
0
71
3
72
9
73
5
74
0
42
0.000000001
43
0.0000000001
44
0.0000000001
40
0
40
0
40
0
40
0
40
0.041624853510248402
40
0.0834407179797126
40
0.0834407179797126
40
0.0834407179797126
40
0.0834407179797126
10
4.4844631478190422
20
44.886190780039456
30
0
10
4.617628473113653
20
44.927386369622511
30
0
10
4.8845702018058201
20
45.009966589912324
30
0
10
5.1637582097802781
20
45.021602332912984
30
0
10
5.303671769797802
20
45.027433522577908
30
0
0
SPLINE
5
235
100
AcDbEntity
8
0
100
AcDbSpline
70
0
71
3
72
9
73
5
74
0
42
0.000000001
43
0.0000000001
44
0.0000000001
40
0
40
0
40
0
40
0
40
0.042478873777293299
40
0.077552719131962711
40
0.077552719131962711
40
0.077552719131962711
40
0.077552719131962711
10
5.303671769797802
20
45.027433522577908
30
0
10
5.4461168643112501
20
45.024644105740123
30
0
10
5.7061756517556628
20
45.019551530506199
30
0
10
5.9542077952778261
20
44.942309836638316
30
0
10
6.0663823410868645
20
44.907376654978421
30
0
0
SPLINE
5
236
100
AcDbEntity
8
0
100
AcDbSpline
70
0
71
3
72
9
73
5
74
0
42
0.000000001
43
0.0000000001
44
0.0000000001
40
0
40
0
40
0
40
0
40
0.030639461933325424
40
0.059363121407813128
40
0.059363121407813128
40
0.059363121407813128
40
0.059363121407813128
10
6.0663823410868645
20
44.907376654978421
30
0
10
6.1612872639932448
20
44.866290398114131
30
0
10
6.3451629623638794
20
44.786686896599164
30
0
10
6.4809245001023008
20
44.639575152023887
30
0
10
6.5466145798563957
20
44.568393119211819
30
0
0
SPLINE
5
237
100
AcDbEntity
8
0
100
AcDbSpline
70
0
71
3
72
9
73
5
74
0
42
0.000000001
43
0.0000000001
44
0.0000000001
40
0
40
0
40
0
40
0
40
0.02964443932581072
40
0.061748514352451191
40
0.061748514352451191
40
0.061748514352451191
40
0.061748514352451191
10
6.5466145798563957
20
44.568393119211819
30
0
10
6.6035287922331687
20
44.486601828921053
30
0
10
6.7220794593981203
20
44.316232924084744
30
0
10
6.7739017909107435
20
44.115071343759723
30
0
10
6.8008450791239738
20
44.010484107370999
30
0
0
SPLINE
5
238
100
AcDbEntity
8
0
100
AcDbSpline
70
0
71
3
72
9
73
5
74
0
42
0.000000001
43
0.0000000001
44
0.0000000001
40
0
40
0
40
0
40
0
40
0.035531209591151025
40
0.076000532645098859
40
0.076000532645098859
40
0.076000532645098859
40
0.076000532645098859
10
6.8008450791239738
20
44.010484107370999
30
0
10
6.82141994607667
20
43.893653102855232
30
0
10
6.8654291668574974
20
43.643753967001686
30
0
10
6.869370643911159
20
43.38997068981017
30
0
10
6.8714694306254387
20
43.254834302302029
30
0
0
LINE
5
239
100
AcDbEntity
8
0
100
AcDbLine
10
6.8714694306254387
20
43.254834302302029
30
0
11
6.8714694306254387
21
41.510484107370999
31
0
0
LWPOLYLINE
5
240
100
AcDbEntity
8
0
100
AcDbPolyline
90
12
70
1
43
0.0
10
-0.44491526505218704
20
12.496582761054768
10
-1.9350284042047139
20
12.496582761054768
10
-1.9350284042047139
20
13.386413350349201
10
-0.44491526505218704
20
13.386413350349201
10
-0.44491526505218704
20
14.876526191478504
10
0.44491562226547043
20
14.876526191478504
10
0.44491562226547043
20
13.386413350349201
10
1.9350281653715495
20
13.386413350349201
10
1.9350281653715495
20
12.496582761054768
10
0.44491562226547043
20
12.496582761054768
10
0.44491562226547043
20
11.006469621902241
10
-0.44491526505218704
20
11.006469621902241
0
LWPOLYLINE
5
241
100
AcDbEntity
8
0
100
AcDbPolyline
90
12
70
1
43
0.0
10
-33.239320930169455
20
-0.34251421689987405
10
-34.72943392031037
20
-0.34251421689987416
10
-34.72943392031037
20
0.54731637239455955
10
-33.239320930169455
20
0.54731637239455966
10
-33.239320930169455
20
2.0374292135238625
10
-32.34949019186341
20
2.0374292135238625
10
-32.34949019186341
20
0.5473163723945601
10
-30.859377648757331
20
0.54731637239456021
10
-30.859377648757331
20
-0.34251421689987349
10
-32.34949019186341
20
-0.34251421689987416
10
-32.34949019186341
20
-1.8326273560524009
10
-33.239320930169455
20
-1.8326273560524009
0
LINE
5
242
100
AcDbEntity
8
0
100
AcDbLine
10
21.94915097206831
20
-22.010483852986667
30
0
11
20.889828614890575
21
-22.010483852986667
31
0
0
LINE
5
243
100
AcDbEntity
8
0
100
AcDbLine
10
20.889828614890575
20
-22.010483852986667
30
0
11
20.889828614890575
21
-18.578280321721408
31
0
0
LINE
5
244
100
AcDbEntity
8
0
100
AcDbLine
10
20.889828614890575
20
-18.578280321721408
30
0
11
21.94915097206831
21
-18.578280321721408
31
0
0
LINE
5
245
100
AcDbEntity
8
0
100
AcDbLine
10
21.94915097206831
20
-18.578280321721408
30
0
11
21.94915097206831
21
-19.129127971295688
31
0
0
LINE
5
246
100
AcDbEntity
8
0
100
AcDbLine
10
21.94915097206831
20
-19.129127971295688
30
0
11
21.963274888694286
21
-19.129127971295688
31
0
0
SPLINE
5
247
100
AcDbEntity
8
0
100
AcDbSpline
70
0
71
3
72
9
73
5
74
0
42
0.000000001
43
0.0000000001
44
0.0000000001
40
0
40
0
40
0
40
0
40
0.033346877165140315
40
0.062598383708627164
40
0.062598383708627164
40
0.062598383708627164
40
0.062598383708627164
10
21.963274888694286
20
-19.129127971295688
30
0
10
22.019549123041564
20
-19.031956922129609
30
0
10
22.12518648443929
20
-18.849548518759622
30
0
10
22.289185812935017
20
-18.717614978891909
30
0
10
22.365820817649364
20
-18.655963949326846
30
0
0
SPLINE
5
248
100
AcDbEntity
8
0
100
AcDbSpline
70
0
71
3
72
9
73
5
74
0
42
0.000000001
43
0.0000000001
44
0.0000000001
40
0
40
0
40
0
40
0
40
0.028989994689530976
40
0.061553705758986985
40
0.061553705758986985
40
0.061553705758986985
40
0.061553705758986985
10
22.365820817649364
20
-18.655963949326846
30
0
10
22.451578928610019
20
-18.60863181287182
30
0
10
22.633666907067813
20
-18.50813271200964
30
0
10
22.84184523638185
20
-18.498585493626681
30
0
10
22.951977662742138
20
-18.493534735802982
30
0
0
SPLINE
5
249
100
AcDbEntity
8
0
100
AcDbSpline
70
0
71
3
72
9
73
5
74
0
42
0.000000001
43
0.0000000001
44
0.0000000001
40
0
40
0
40
0
40
0
40
0.0091822432360953304
40
0.018378054626227817
40
0.018378054626227817
40
0.018378054626227817
40
0.018378054626227817
10
22.951977662742138
20
-18.493534735802982
30
0
10
22.982590761789794
20
-18.493829852055118
30
0
10
23.043862195371982
20
-18.494420520638318
30
0
10
23.10499807257445
20
-18.498536956595686
30
0
10
23.135588578879833
20
-18.50059669411597
30
0
0
SPLINE
5
250
100
AcDbEntity
8
0
100
AcDbSpline
70
0
71
3
72
9
73
5
74
0
42
0.000000001
43
0.0000000001
44
0.0000000001
40
0
40
0
40
0
40
0
40
0.0088914920531711367
40
0.017202675573574834
40
0.017202675573574834
40
0.017202675573574834
40
0.017202675573574834
10
23.135588578879833
20
-18.50059669411597
30
0
10
23.165136054799873
20
-18.50341320348398
30
0
10
23.222302572998483
20
-18.508862401055993
30
0
10
23.278118559528771
20
-18.522335918148748
30
0
10
23.305085115134716
20
-18.528845421437595
30
0
0
LINE
5
251
100
AcDbEntity
8
0
100
AcDbLine
10
23.305085115134716
20
-18.528845421437595
30
0
11
23.305085115134716
21
-19.496359638337466
31
0
0
SPLINE
5
252
100
AcDbEntity
8
0
100
AcDbSpline
70
0
71
3
72
9
73
5
74
0
42
0.000000001
43
0.0000000001
44
0.0000000001
40
0
40
0
40
0
40
0
40
0.011691437953928062
40
0.023156730556282298
40
0.023156730556282298
40
0.023156730556282298
40
0.023156730556282298
10
23.305085115134716
20
-19.496359638337466
30
0
10
23.26760729297731
20
-19.485495742663876
30
0
10
23.19337657533972
20
-19.463978089668899
30
0
10
23.116938639344138
20
-19.452571859366593
30
0
10
23.079092912375927
20
-19.446924440030429
30
0
0
SPLINE
5
253
100
AcDbEntity
8
0
100
AcDbSpline
70
0
71
3
72
9
73
5
74
0
42
0.000000001
43
0.0000000001
44
0.0000000001
40
0
40
0
40
0
40
0
40
0.011061005013156433
40
0.022725029274609492
40
0.022725029274609492
40
0.022725029274609492
40
0.022725029274609492
10
23.079092912375927
20
-19.446924440030429
30
0
10
23.042689149755429
20
-19.440746190473316
30
0
10
22.967896979399072
20
-19.428052868131967
30
0
10
22.892043427166023
20
-19.426523132820599
30
0
10
22.853110246360302
20
-19.425737969045016
30
0
0
SPLINE
5
254
100
AcDbEntity
8
0
100
AcDbSpline
70
0
71
3
72
9
73
5
74
0
42
0.000000001
43
0.0000000001
44
0.0000000001
40
0
40
0
40
0
40
0
40
0.027272150078312862
40
0.049053619043806569
40
0.049053619043806569
40
0.049053619043806569
40
0.049053619043806569
10
22.853110246360302
20
-19.425737969045016
30
0
10
22.761454344006466
20
-19.427389183648295
30
0
10
22.596595552005432
20
-19.430359175081907
30
0
10
22.441670139959761
20
-19.485845877172711
30
0
10
22.372878007590771
20
-19.510483852986667
30
0
0
SPLINE
5
255
100
AcDbEntity
8
0
100
AcDbSpline
70
0
71
3
72
9
73
5
74
0
42
0.000000001
43
0.0000000001
44
0.0000000001
40
0
40
0
40
0
40
0
40
0.018755413599330629
40
0.036909425782969629
40
0.036909425782969629
40
0.036909425782969629
40
0.036909425782969629
10
22.372878007590771
20
-19.510483852986667
30
0
10
22.317542827431048
20
-19.541240799209522
30
0
10
22.208646816448628
20
-19.601768455286575
30
0
10
22.134115377586649
20
-19.701529313638371
30
0
10
22.097456865012646
20
-19.750596992139194
30
0
0
SPLINE
5
256
100
AcDbEntity
8
0
100
AcDbSpline
70
0
71
3
72
9
73
5
74
0
42
0.000000001
43
0.0000000001
44
0.0000000001
40
0
40
0
40
0
40
0
40
0.018089790624241868
40
0.038178114769653632
40
0.038178114769653632
40
0.038178114769653632
40
0.038178114769653632
10
22.097456865012646
20
-19.750596992139194
30
0
10
22.069292597142727
20
-19.80435855817316
30
0
10
22.009852514420043
20
-19.91782118916074
30
0
10
21.988587761437319
20
-20.044245330560933
30
0
10
21.977398805320263
20
-20.11076640284476
30
0
0
SPLINE
5
257
100
AcDbEntity
8
0
100
AcDbSpline
70
0
71
3
72
9
73
5
74
0
42
0.000000001
43
0.0000000001
44
0.0000000001
40
0
40
0
40
0
40
0
40
0.022346374231220097
40
0.046721032180125688
40
0.046721032180125688
40
0.046721032180125688
40
0.046721032180125688
10
21.977398805320263
20
-20.11076640284476
30
0
10
21.969166423882935
20
-20.184846238568063
30
0
10
21.951954443358819
20
-20.339729816231014
30
0
10
21.950112122507271
20
-20.495566950188604
30
0
10
21.94915097206831
20
-20.57686816847739
30
0
0
LINE
5
258
100
AcDbEntity
8
0
100
AcDbLine
10
21.949150972068313
20
-20.57686816847739
30
0
11
21.94915097206831
21
-22.010483852986667
31
0
0
LINE
5
259
100
AcDbEntity
8
0
100
AcDbLine
10
15.367234162986279
20
-18.578280321721408
30
0
11
16.29943173378706
21
-18.578280321721408
31
0
0
LINE
5
260
100
AcDbEntity
8
0
100
AcDbLine
10
16.29943173378706
20
-18.578280321721408
30
0
11
16.29943173378706
21
-19.425737969045016
31
0
0
LINE
5
261
100
AcDbEntity
8
0
100
AcDbLine
10
16.29943173378706
20
-19.425737969045016
30
0
11
15.367234162986279
21
-19.425737969045016
31
0
0
LINE
5
262
100
AcDbEntity
8
0
100
AcDbLine
10
15.367234162986279
20
-19.425737969045016
30
0
11
15.367234162986279
21
-20.569806210164401
31
0
0
SPLINE
5
263
100
AcDbEntity
8
0
100
AcDbSpline
70
0
71
3
72
9
73
5
74
0
42
0.000000001
43
0.0000000001
44
0.0000000001
40
0
40
0
40
0
40
0
40
0.013599205985490775
40
0.026179178298113136
40
0.026179178298113136
40
0.026179178298113136
40
0.026179178298113136
10
15.367234162986279
20
-20.569806210164401
30
0
10
15.36772421851162
20
-20.615159504867897
30
0
10
15.368667600866992
20
-20.702466954267258
30
0
10
15.377239158822364
20
-20.789353383740782
30
0
10
15.381358079612255
20
-20.831105224255893
30
0
0
SPLINE
5
264
100
AcDbEntity
8
0
100
AcDbSpline
70
0
71
3
72
9
73
5
74
0
42
0.000000001
43
0.0000000001
44
0.0000000001
40
0
40
0
40
0
40
0
40
0.010839092732944233
40
0.020877840209232355
40
0.020877840209232355
40
0.020877840209232355
40
0.020877840209232355
10
15.381358079612255
20
-20.831105224255893
30
0
10
15.387202161915443
20
-20.867004838143455
30
0
10
15.398458806682847
20
-20.936153282647453
30
0
10
15.429834172261048
20
-20.998747889853053
30
0
10
15.444920472800732
20
-21.028845421437595
30
0
0
SPLINE
5
265
100
AcDbEntity
8
0
100
AcDbSpline
70
0
71
3
72
9
73
5
74
0
42
0.000000001
43
0.0000000001
44
0.0000000001
40
0
40
0
40
0
40
0
40
0.0097884804493289599
40
0.020218293582073513
40
0.020218293582073513
40
0.020218293582073513
40
0.020218293582073513
10
15.444920472800732
20
-21.028845421437595
30
0
10
15.463951286298956
20
-21.055865313451822
30
0
10
15.503259795561908
20
-21.111675417188298
30
0
10
15.562603680284912
20
-21.145551092665237
30
0
10
15.593216829001904
20
-21.163026205663058
30
0
0
SPLINE
5
266
100
AcDbEntity
8
0
100
AcDbSpline
70
0
71
3
72
9
73
5
74
0
42
0.000000001
43
0.0000000001
44
0.0000000001
40
0
40
0
40
0
40
0
40
0.012589938599709237
40
0.027987252312169093
40
0.027987252312169093
40
0.027987252312169093
40
0.027987252312169093
10
15.593216829001904
20
-21.163026205663058
30
0
10
15.63354097395611
20
-21.17535282998794
30
0
10
15.723180967842332
20
-21.202754738456797
30
0
10
15.817020993097053
20
-21.204460638818084
30
0
10
15.868647508323193
20
-21.205399147633884
30
0
0
SPLINE
5
267
100
AcDbEntity
8
0
100
AcDbSpline
70
0
71
3
72
9
73
5
74
0
42
0.000000001
43
0.0000000001
44
0.0000000001
40
0
40
0
40
0
40
0
40
0.0097167296521146335
40
0.021944938703603992
40
0.021944938703603992
40
0.021944938703603992
40
0.021944938703603992
10
15.868647508323193
20
-21.205399147633884
30
0
10
15.901037437178109
20
-21.204582783097866
30
0
10
15.974189107419399
20
-21.202739048596214
30
0
10
16.047000726884228
20
-21.195376956690303
30
0
10
16.087572984397411
20
-21.191274634961459
30
0
0
SPLINE
5
268
100
AcDbEntity
8
0
100
AcDbSpline
70
0
71
3
72
9
73
5
74
0
42
0.000000001
43
0.0000000001
44
0.0000000001
40
0
40
0
40
0
40
0
40
0.01276071785306607
40
0.023055059547560396
40
0.023055059547560396
40
0.023055059547560396
40
0.023055059547560396
10
16.087572984397411
20
-21.191274634961459
30
0
10
16.130075307948673
20
-21.183806527502142
30
0
10
16.206865157208501
20
-21.170313739387492
30
0
10
16.270858148256295
20
-21.126218406086078
30
0
10
16.29943173378706
20
-21.106529347066257
30
0
0
LINE
5
269
100
AcDbEntity
8
0
100
AcDbLine
10
16.29943173378706
20
-21.106529347066264
30
0
11
16.29943173378706
21
-21.989297382001254
31
0
0
SPLINE
5
270
100
AcDbEntity
8
0
100
AcDbSpline
70
0
71
3
72
9
73
5
74
0
42
0.000000001
43
0.0000000001
44
0.0000000001
40
0
40
0
40
0
40
0
40
0.018771012205627265
40
0.037753819404113341
40
0.037753819404113341
40
0.037753819404113341
40
0.037753819404113341
10
16.29943173378706
20
-21.989297382001254
30
0
10
16.239816854844918
20
-22.008737939658545
30
0
10
16.119914457002746
20
-22.047838404506606
30
0
10
15.995005304622971
20
-22.065275704984579
30
0
10
15.932200364768505
20
-22.074043265942905
30
0
0
SPLINE
5
271
100
AcDbEntity
8
0
100
AcDbSpline
70
0
71
3
72
9
73
5
74
0
42
0.000000001
43
0.0000000001
44
0.0000000001
40
0
40
0
40
0
40
0
40
0.01895804426039524
40
0.037503130511704064
40
0.037503130511704064
40
0.037503130511704064
40
0.037503130511704064
10
15.932200364768505
20
-22.074043265942905
30
0
10
15.869278937815121
20
-22.080222511919896
30
0
10
15.74480668452761
20
-22.092446403010968
30
0
10
15.61975109073046
20
-22.094308794737032
30
0
10
15.557911805808544
20
-22.095229736928317
30
0
0
SPLINE
5
272
100
AcDbEntity
8
0
100
AcDbSpline
70
0
71
3
72
9
73
5
74
0
42
0.000000001
43
0.0000000001
44
0.0000000001
40
0
40
0
40
0
40
0
40
0.025815531948089315
40
0.049850740064441776
40
0.049850740064441776
40
0.049850740064441776
40
0.049850740064441776
10
15.557911805808544
20
-22.095229736928317
30
0
10
15.471673319883932
20
-22.093230564804756
30
0
10
15.305143637132348
20
-22.089370090030258
30
0
10
15.142144579460828
20
-22.055204835966499
30
0
10
15.063555650413036
20
-22.038732282285068
30
0
0
SPLINE
5
273
100
AcDbEntity
8
0
100
AcDbSpline
70
0
71
3
72
9
73
5
74
0
42
0.000000001
43
0.0000000001
44
0.0000000001
40
0
40
0
40
0
40
0
40
0.022388387015659993
40
0.043499333596230524
40
0.043499333596230524
40
0.043499333596230524
40
0.043499333596230524
10
15.063555650413036
20
-22.038732282285068
30
0
10
14.9914668798296
20
-22.017870129656206
30
0
10
14.851402592127343
20
-21.977336180689555
30
0
10
14.727976953478441
20
-21.899805485652308
30
0
10
14.668076448142529
20
-21.862178556088779
30
0
0
SPLINE
5
274
100
AcDbEntity
8
0
100
AcDbSpline
70
0
71
3
72
9
73
5
74
0
42
0.000000001
43
0.0000000001
44
0.0000000001
40
0
40
0
40
0
40
0
40
0.020979309381823776
40
0.042428643804625153
40
0.042428643804625153
40
0.042428643804625153
40
0.042428643804625153
10
14.668076448142529
20
-21.862178556088779
30
0
10
14.614344252878118
20
-21.816505422194652
30
0
10
14.505676034481496
20
-21.724135883514137
30
0
10
14.435299908856596
20
-21.600050254576249
30
0
10
14.399722032248974
20
-21.537320129041049
30
0
0
SPLINE
5
275
100
AcDbEntity
8
0
100
AcDbSpline
70
0
71
3
72
9
73
5
74
0
42
0.000000001
43
0.0000000001
44
0.0000000001
40
0
40
0
40
0
40
0
40
0.022949931676574498
40
0.049180527469499663
40
0.049180527469499663
40
0.049180527469499663
40
0.049180527469499663
10
14.399722032248974
20
-21.537320129041049
30
0
10
14.372977107458382
20
-21.465098375803851
30
0
10
14.31566410422727
20
-21.310330859759215
30
0
10
14.310608323211955
20
-21.145178437414035
30
0
10
14.307911805808544
20
-21.057093850735995
30
0
0
LINE
5
276
100
AcDbEntity
8
0
100
AcDbLine
10
14.307911805808544
20
-21.057093850735995
30
0
11
14.307911805808544
21
-19.425737969045016
31
0
0
LINE
5
277
100
AcDbEntity
8
0
100
AcDbLine
10
14.307911805808544
20
-19.425737969045016
30
0
11
13.629944734275341
21
-19.425737969045016
31
0
0
LINE
5
278
100
AcDbEntity
8
0
100
AcDbLine
10
13.629944734275341
20
-19.425737969045016
30
0
11
13.629944734275341
21
-18.578280321721408
31
0
0
LINE
5
279
100
AcDbEntity
8
0
100
AcDbLine
10
13.629944734275341
20
-18.578280321721408
30
0
11
14.307911805808544
21
-18.578280321721408
31
0
0
LINE
5
280
100
AcDbEntity
8
0
100
AcDbLine
10
14.307911805808544
20
-18.578280321721408
30
0
11
14.307911805808544
21
-17.561331204537723
31
0
0
LINE
5
281
100
AcDbEntity
8
0
100
AcDbLine
10
14.307911805808544
20
-17.561331204537723
30
0
11
15.367234162986279
21
-17.561331204537723
31
0
0
LINE
5
282
100
AcDbEntity
8
0
100
AcDbLine
10
15.367234162986279
20
-17.561331204537723
30
0
11
15.367234162986279
21
-18.578280321721408
31
0
0
LINE
5
283
100
AcDbEntity
8
0
100
AcDbLine
10
10.423729829490185
20
-22.010483852986667
30
0
11
9.4491509720683098
21
-22.010483852986667
31
0
0
LINE
5
284
100
AcDbEntity
8
0
100
AcDbLine
10
9.4491509720683098
20
-22.010483852986667
30
0
11
9.4491509720683098
21
-21.579693071011874
31
0
0
LINE
5
285
100
AcDbEntity
8
0
100
AcDbLine
10
9.4491509720683098
20
-21.579693071011874
30
0
11
9.4350270554423332
21
-21.579693071011874
31
0
0
SPLINE
5
286
100
AcDbEntity
8
0
100
AcDbSpline
70
0
71
3
72
9
73
5
74
0
42
0.000000001
43
0.0000000001
44
0.0000000001
40
0
40
0
40
0
40
0
40
0.031407096599192094
40
0.062442768514118195
40
0.062442768514118195
40
0.062442768514118195
40
0.062442768514118195
10
9.4350270554423332
20
-21.579693071011874
30
0
10
9.3714714026877655
20
-21.664906596184537
30
0
10
9.2451117151507844
20
-21.834325899551956
30
0
10
9.0559062996840733
20
-21.928410425238589
30
0
10
8.9618663117289543
20
-21.97517286932883
30
0
0
SPLINE
5
287
100
AcDbEntity
8
0
100
AcDbSpline
70
0
71
3
72
9
73
5
74
0
42
0.000000001
43
0.0000000001
44
0.0000000001
40
0
40
0
40
0
40
0
40
0.031166634788684176
40
0.062912179019568859
40
0.062912179019568859
40
0.062912179019568859
40
0.062912179019568859
10
8.9618663117289543
20
-21.97517286932883
30
0
10
8.8633896731368278
20
-22.010188468185774
30
0
10
8.6646072265121177
20
-22.080870068515797
30
0
10
8.4538201968475324
20
-22.090413907082883
30
0
10
8.3474568650126457
20
-22.095229736928317
30
0
0
SPLINE
5
288
100
AcDbEntity
8
0
100
AcDbSpline
70
0
71
3
72
9
73
5
74
0
42
0.000000001
43
0.0000000001
44
0.0000000001
40
0
40
0
40
0
40
0
40
0.023723587553768671
40
0.047278880159734679
40
0.047278880159734679
40
0.047278880159734679
40
0.047278880159734679
10
8.3474568650126457
20
-22.095229736928317
30
0
10
8.2681444839768492
20
-22.092329227183207
30
0
10
8.1100823633268604
20
-22.086548783886819
30
0
10
7.9574183654690334
20
-22.045206116977738
30
0
10
7.8813580796122551
20
-22.024608365659091
30
0
0
SPLINE
5
289
100
AcDbEntity
8
0
100
AcDbSpline
70
0
71
3
72
9
73
5
74
0
42
0.000000001
43
0.0000000001
44
0.0000000001
40
0
40
0
40
0
40
0
40
0.022195791044694019
40
0.043794356974712498
40
0.043794356974712498
40
0.043794356974712498
40
0.043794356974712498
10
7.8813580796122551
20
-22.024608365659091
30
0
10
7.8108403303769336
20
-22.000791556882042
30
0
10
7.6717022624051001
20
-21.953798781383291
30
0
10
7.5519805828039654
20
-21.868791959150883
30
0
10
7.4929360672831535
20
-21.82686816847739
30
0
0
SPLINE
5
290
100
AcDbEntity
8
0
100
AcDbSpline
70
0
71
3
72
9
73
5
74
0
42
0.000000001
43
0.0000000001
44
0.0000000001
40
0
40
0
40
0
40
0
40
0.021348290955949593
40
0.042946322869977356
40
0.042946322869977356
40
0.042946322869977356
40
0.042946322869977356
10
7.4929360672831535
20
-21.82686816847739
30
0
10
7.4392875701502437
20
-21.779303245884989
30
0
10
7.3313629740262165
20
-21.68361696696207
30
0
10
7.2603099755446632
20
-21.558080453193238
30
0
10
7.2245768830180168
20
-21.494947187070224
30
0
0
SPLINE
5
291
100
AcDbEntity
8
0
100
AcDbSpline
70
0
71
3
72
9
73
5
74
0
42
0.000000001
43
0.0000000001
44
0.0000000001
40
0
40
0
40
0
40
0
40
0.022613385765961648
40
0.047278526427346063
40
0.047278526427346063
40
0.047278526427346063
40
0.047278526427346063
10
7.2245768830180168
20
-21.494947187070224
30
0
10
7.195754613879366
20
-21.424643115754549
30
0
10
7.1354949770752452
20
-21.27765615289772
30
0
10
7.1290611938916637
20
-21.118788441221042
30
0
10
7.1257046982645988
20
-21.035907379750583
30
0
0
SPLINE
5
292
100
AcDbEntity
8
0
100
AcDbSpline
70
0
71
3
72
9
73
5
74
0
42
0.000000001
43
0.0000000001
44
0.0000000001
40
0
40
0
40
0
40
0
40
0.027493653628249161
40
0.051615083184108401
40
0.051615083184108401
40
0.051615083184108401
40
0.051615083184108401
10
7.1257046982645988
20
-21.035907379750583
30
0
10
7.1288441544360204
20
-20.943439512157632
30
0
10
7.1347379979255621
20
-20.769845389593886
30
0
10
7.2007767540292988
20
-20.609452234355103
30
0
10
7.2316388413310051
20
-20.534495226506564
30
0
0
SPLINE
5
293
100
AcDbEntity
8
0
100
AcDbSpline
70
0
71
3
72
9
73
5
74
0
42
0.000000001
43
0.0000000001
44
0.0000000001
40
0
40
0
40
0
40
0
40
0.022824149442817247
40
0.045317803384287494
40
0.045317803384287494
40
0.045317803384287494
40
0.045317803384287494
10
7.2316388413310051
20
-20.534495226506564
30
0
10
7.272021745191104
20
-20.469336278122682
30
0
10
7.3522028052478383
20
-20.339961888115905
30
0
10
7.4698540237436273
20
-20.243427483899495
30
0
10
7.528250627219677
20
-20.195512286786411
30
0
0
SPLINE
5
294
100
AcDbEntity
8
0
100
AcDbSpline
70
0
71
3
72
9
73
5
74
0
42
0.000000001
43
0.0000000001
44
0.0000000001
40
0
40
0
40
0
40
0
40
0.023498263520012573
40
0.047861159308331548
40
0.047861159308331548
40
0.047861159308331548
40
0.047861159308331548
10
7.528250627219677
20
-20.195512286786411
30
0
10
7.5945687838683984
20
-20.153230351263126
30
0
10
7.7296453122976772
20
-20.067110691815905
30
0
10
7.8816594513704885
20
-20.016481861939202
30
0
10
7.9590396210551262
20
-19.990710131291721
30
0
0
SPLINE
5
295
100
AcDbEntity
8
0
100
AcDbSpline
70
0
71
3
72
9
73
5
74
0
42
0.000000001
43
0.0000000001
44
0.0000000001
40
0
40
0
40
0
40
0
40
0.025271309332180792
40
0.05075875834053626
40
0.05075875834053626
40
0.05075875834053626
40
0.05075875834053626
10
7.9590396210551262
20
-19.990710131291721
30
0
10
8.0398449518659643
20
-19.966556220355997
30
0
10
8.2021467228324418
20
-19.91804181565896
30
0
10
8.3694055072716189
20
-19.891195723691236
30
0
10
8.453391008079052
20
-19.877715520028445
30
0
0
SPLINE
5
296
100
AcDbEntity
8
0
100
AcDbSpline
70
0
71
3
72
9
73
5
74
0
42
0.000000001
43
0.0000000001
44
0.0000000001
40
0
40
0
40
0
40
0
40
0.026106576097574153
40
0.051745942745023907
40
0.051745942745023907
40
0.051745942745023907
40
0.051745942745023907
10
8.453391008079052
20
-19.877715520028445
30
0
10
8.539806428779011
20
-19.867133249133961
30
0
10
8.7110907594056819
20
-19.846158090163595
30
0
10
8.883501326316221
20
-19.838925982744403
30
0
10
8.9689282700419426
20
-19.83534257805762
30
0
0
SPLINE
5
297
100
AcDbEntity
8
0
100
AcDbSpline
70
0
71
3
72
9
73
5
74
0
42
0.000000001
43
0.0000000001
44
0.0000000001
40
0
40
0
40
0
40
0
40
0.025075785243171899
40
0.048028544019369887
40
0.048028544019369887
40
0.048028544019369887
40
0.048028544019369887
10
8.9689282700419426
20
-19.83534257805762
30
0
10
9.0524913485367353
20
-19.833283918010839
30
0
10
9.2125426871074367
20
-19.829340893147652
30
0
10
9.3726405013490233
20
-19.828623271754061
30
0
10
9.4491509720683098
20
-19.828280321721408
30
0
0
SPLINE
5
298
100
AcDbEntity
8
0
100
AcDbSpline
70
0
71
3
72
9
73
5
74
0
42
0.000000001
43
0.0000000001
44
0.0000000001
40
0
40
0
40
0
40
0
40
0.025761165791686289
40
0.050383705482911587
40
0.050383705482911587
40
0.050383705482911587
40
0.050383705482911587
10
9.4491509720683098
20
-19.828280321721408
30
0
10
9.4414145051969811
20
-19.739765948780462
30
0
10
9.4262835180562821
20
-19.566649478302232
30
0
10
9.3040735025527166
20
-19.443532599523444
30
0
10
9.2443494126200676
20
-19.383365325097415
30
0
0
SPLINE
5
299
100
AcDbEntity
8
0
100
AcDbSpline
70
0
71
3
72
9
73
5
74
0
42
0.000000001
43
0.0000000001
44
0.0000000001
40
0
40
0
40
0
40
0
40
0.025162691112006304
40
0.051111426144766978
40
0.051111426144766978
40
0.051111426144766978
40
0.051111426144766978
10
9.2443494126200676
20
-19.383365325097415
30
0
10
9.1745151769100453
20
-19.333933516138316
30
0
10
9.0326651909534217
20
-19.23352572423844
30
0
10
8.859236564008377
20
-19.220491099497202
30
0
10
8.7711886689066887
20
-19.213873557214114
30
0
0
SPLINE
5
300
100
AcDbEntity
8
0
100
AcDbSpline
70
0
71
3
72
9
73
5
74
0
42
0.000000001
43
0.0000000001
44
0.0000000001
40
0
40
0
40
0
40
0
40
0.025229313568898456
40
0.049695956459870266
40
0.049695956459870266
40
0.049695956459870266
40
0.049695956459870266
10
8.7711886689066887
20
-19.213873557214114
30
0
10
8.686432559682018
20
-19.218285930379665
30
0
10
8.519482479877647
20
-19.226977292676185
30
0
10
8.3663516059807108
20
-19.293913627945006
30
0
10
8.2909611985087395
20
-19.32686816847739
30
0
0
SPLINE
5
301
100
AcDbEntity
8
0
100
AcDbSpline
70
0
71
3
72
9
73
5
74
0
42
0.000000001
43
0.0000000001
44
0.0000000001
40
0
40
0
40
0
40
0
40
0.023805430177555917
40
0.048535392121946047
40
0.048535392121946047
40
0.048535392121946047
40
0.048535392121946047
10
8.2909611985087395
20
-19.32686816847739
30
0
10
8.2215876152304546
20
-19.36629502697922
30
0
10
8.0801461860185952
20
-19.446679965342021
30
0
10
7.9671700169191073
20
-19.563801763438075
30
0
10
7.9096059128642082
20
-19.623478166226718
30
0
0
LINE
5
302
100
AcDbEntity
8
0
100
AcDbLine
10
7.9096059128642082
20
-19.623478166226718
30
0
11
7.3446349427103996
21
-19.044382087354037
31
0
0
SPLINE
5
303
100
AcDbEntity
8
0
100
AcDbSpline
70
0
71
3
72
9
73
5
74
0
42
0.000000001
43
0.0000000001
44
0.0000000001
40
0
40
0
40
0
40
0
40
0.040112950808817452
40
0.080879384087673895
40
0.080879384087673895
40
0.080879384087673895
40
0.080879384087673895
10
7.3446349427103996
20
-19.044382087354037
30
0
10
7.4481487724064266
20
-18.958282179389521
30
0
10
7.656862781761502
20
-18.784679704733254
30
0
10
7.9094215013263369
20
-18.685013510675173
30
0
10
8.0367211624979973
20
-18.634777776364658
30
0
0
SPLINE
5
304
100
AcDbEntity
8
0
100
AcDbSpline
70
0
71
3
72
9
73
5
74
0
42
0.000000001
43
0.0000000001
44
0.0000000001
40
0
40
0
40
0
40
0
40
0.041625099247773578
40
0.083441436334673769
40
0.083441436334673769
40
0.083441436334673769
40
0.083441436334673769
10
8.0367211624979973
20
-18.634777776364658
30
0
10
8.1698872750248164
20
-18.593581914022511
30
0
10
8.4368313040156018
20
-18.511000923538546
30
0
10
8.7160217689244668
20
-18.499365687240346
30
0
10
8.8559369370341301
20
-18.493534735802982
30
0
0
SPLINE
5
305
100
AcDbEntity
8
0
100
AcDbSpline
70
0
71
3
72
9
73
5
74
0
42
0.000000001
43
0.0000000001
44
0.0000000001
40
0
40
0
40
0
40
0
40
0.042478871671545779
40
0.07755271702621519
40
0.07755271702621519
40
0.07755271702621519
40
0.07755271702621519
10
8.8559369370341301
20
-18.493534735802982
30
0
10
8.9983820333785225
20
-18.496324026748333
30
0
10
9.2584408299959797
20
-18.501416372257445
30
0
10
9.5064729638436951
20
-18.578658105130454
30
0
10
9.6186475083231926
20
-18.613591305379245
30
0
0
SPLINE
5
306
100
AcDbEntity
8
0
100
AcDbSpline
70
0
71
3
72
9
73
5
74
0
42
0.000000001
43
0.0000000001
44
0.0000000001
40
0
40
0
40
0
40
0
40
0.030639038784569868
40
0.059362311373479346
40
0.059362311373479346
40
0.059362311373479346
40
0.059362311373479346
10
9.6186475083231926
20
-18.613591305379245
30
0
10
9.7135508749507959
20
-18.654677624120801
30
0
10
9.8974235884439121
20
-18.734281258669363
30
0
10
10.033181751775206
20
-18.881392461753848
30
0
10
10.09887021034956
20
-18.952574245099399
30
0
0
SPLINE
5
307
100
AcDbEntity
8
0
100
AcDbSpline
70
0
71
3
72
9
73
5
74
0
42
0.000000001
43
0.0000000001
44
0.0000000001
40
0
40
0
40
0
40
0
40
0.029644989908913649
40
0.06174906493555412
40
0.06174906493555412
40
0.06174906493555412
40
0.06174906493555412
10
10.09887021034956
20
-18.952574245099399
30
0
10
10.155788278552675
20
-19.034365339784411
30
0
10
10.274345832469196
20
-19.204732192071191
30
0
10
10.326167528684493
20
-19.405896257243953
30
0
10
10.353110246360302
20
-19.510483852986667
30
0
0
SPLINE
5
308
100
AcDbEntity
8
0
100
AcDbSpline
70
0
71
3
72
9
73
5
74
0
42
0.000000001
43
0.0000000001
44
0.0000000001
40
0
40
0
40
0
40
0
40
0.035531180121829639
40
0.076000512147527149
40
0.076000512147527149
40
0.076000512147527149
40
0.076000512147527149
10
10.353110246360302
20
-19.510483852986667
30
0
10
10.373685439157541
20
-19.627314743782168
30
0
10
10.417695381545107
20
-19.877213776256319
30
0
10
10.421633062904689
20
-20.13099715178091
30
0
10
10.423729829490185
20
-20.266133658055637
30
0
0
LINE
5
309
100
AcDbEntity
8
0
100
AcDbLine
10
10.423729829490183
20
-20.266133658055637
30
0
11
10.423729829490185
21
-22.010483852986667
31
0
0
LINE
5
310
100
AcDbEntity
8
0
100
AcDbLine
10
4.9011306092143059
20
-22.010483852986667
30
0
11
2.853107862174511
21
-22.010483852986667
31
0
0
LINE
5
311
100
AcDbEntity
8
0
100
AcDbLine
10
2.853107862174511
20
-22.010483852986667
30
0
11
2.853107862174511
21
-17.010483852986667
31
0
0
LINE
5
312
100
AcDbEntity
8
0
100
AcDbLine
10
2.853107862174511
20
-17.010483852986667
30
0
11
4.7175149247050285
21
-17.010483852986667
31
0
0
SPLINE
5
313
100
AcDbEntity
8
0
100
AcDbSpline
70
0
71
3
72
9
73
5
74
0
42
0.000000001
43
0.0000000001
44
0.0000000001
40
0
40
0
40
0
40
0
40
0.032509461735558055
40
0.065206314017789535
40
0.065206314017789535
40
0.065206314017789535
40
0.065206314017789535
10
4.7175149247050285
20
-17.010483852986667
30
0
10
4.8259561701278031
20
-17.012567216473407
30
0
10
5.0434637363568502
20
-17.016745952339118
30
0
10
5.2591041176267961
20
-17.045500274808436
30
0
10
5.3672341629862785
20
-17.05991875327048
30
0
0
SPLINE
5
314
100
AcDbEntity
8
0
100
AcDbSpline
70
0
71
3
72
9
73
5
74
0
42
0.000000001
43
0.0000000001
44
0.0000000001
40
0
40
0
40
0
40
0
40
0.032134587190098096
40
0.062365999594412913
40
0.062365999594412913
40
0.062365999594412913
40
0.062365999594412913
10
5.3672341629862785
20
-17.05991875327048
30
0
10
5.4735131150920502
20
-17.077406939681946
30
0
10
5.679776635600744
20
-17.111347572564281
30
0
10
5.868817123390313
20
-17.200377971913291
30
0
10
5.9604529663920403
20
-17.243534735802982
30
0
0
SPLINE
5
315
100
AcDbEntity
8
0
100
AcDbSpline
70
0
71
3
72
9
73
5
74
0
42
0.000000001
43
0.0000000001
44
0.0000000001
40
0
40
0
40
0
40
0
40
0.028697516735439257
40
0.057499169753300251
40
0.057499169753300251
40
0.057499169753300251
40
0.057499169753300251
10
5.9604529663920403
20
-17.243534735802982
30
0
10
6.0434821864449528
20
-17.293044205219065
30
0
10
6.2098419193207643
20
-17.392242801829195
30
0
10
6.3260003620914773
20
-17.547247769523583
30
0
10
6.3841847702860832
20
-17.624890617493961
30
0
0
SPLINE
5
316
100
AcDbEntity
8
0
100
AcDbSpline
70
0
71
3
72
9
73
5
74
0
42
0.000000001
43
0.0000000001
44
0.0000000001
40
0
40
0
40
0
40
0
40
0.031250489784879799
40
0.068373001381350815
40
0.068373001381350815
40
0.068373001381350815
40
0.068373001381350815
10
6.3841847702860832
20
-17.624890617493961
30
0
10
6.4314681907083315
20
-17.719077603549746
30
0
10
6.5349196691363609
20
-17.925149475447682
30
0
10
6.5424992914752078
20
-18.15621523152172
30
0
10
6.5466145798563957
20
-18.281670323972079
30
0
0
SPLINE
5
317
100
AcDbEntity
8
0
100
AcDbSpline
70
0
71
3
72
9
73
5
74
0
42
0.000000001
43
0.0000000001
44
0.0000000001
40
0
40
0
40
0
40
0
40
0.039302913741556422
40
0.075830457428518308
40
0.075830457428518308
40
0.075830457428518308
40
0.075830457428518308
10
6.5466145798563957
20
-18.281670323972079
30
0
10
6.5381579027290204
20
-18.415157585181412
30
0
10
6.5218417156109254
20
-18.672705922308399
30
0
10
6.3765064713093178
20
-18.885420354244729
30
0
10
6.3064984604716301
20
-18.987884930734012
30
0
0
SPLINE
5
318
100
AcDbEntity
8
0
100
AcDbSpline
70
0
71
3
72
9
73
5
74
0
42
0.000000001
43
0.0000000001
44
0.0000000001
40
0
40
0
40
0
40
0
40
0.036041161865147373
40
0.074440917222736352
40
0.074440917222736352
40
0.074440917222736352
40
0.074440917222736352
10
6.3064984604716301
20
-18.987884930734012
30
0
10
6.2204037228785491
20
-19.073801605655433
30
0
10
6.0425800650713946
20
-19.251257485402277
30
0
10
5.8067025806156902
20
-19.3384089400537
30
0
10
5.6850270554423332
20
-19.383365325097415
30
0
0
LINE
5
319
100
AcDbEntity
8
0
100
AcDbLine
10
5.6850270554423341
20
-19.383365325097419
30
0
11
5.6850270554423332
21
-19.397489539746616
31
0
0
SPLINE
5
320
100
AcDbEntity
8
0
100
AcDbSpline
70
0
71
3
72
9
73
5
74
0
42
0.000000001
43
0.0000000001
44
0.0000000001
40
0
40
0
40
0
40
0
40
0.024071786984773538
40
0.046860926266234088
40
0.046860926266234088
40
0.046860926266234088
40
0.046860926266234088
10
5.6850270554423332
20
-19.397489539746616
30
0
10
5.7644037994721664
20
-19.411696332829784
30
0
10
5.9189277553209241
20
-19.43935292033494
30
0
10
6.0609010760055249
20
-19.506215871806841
30
0
10
6.129944734275341
20
-19.538732282285068
30
0
0
SPLINE
5
321
100
AcDbEntity
8
0
100
AcDbSpline
70
0
71
3
72
9
73
5
74
0
42
0.000000001
43
0.0000000001
44
0.0000000001
40
0
40
0
40
0
40
0
40
0.022103860384394141
40
0.043589769091676674
40
0.043589769091676674
40
0.043589769091676674
40
0.043589769091676674
10
6.129944734275341
20
-19.538732282285068
30
0
10
6.1952198853856899
20
-19.573943476264787
30
0
10
6.3239453077708951
20
-19.643381474348679
30
0
10
6.4257898555955872
20
-19.74831093160412
30
0
10
6.4759902283549309
20
-19.800031892423007
30
0
0
SPLINE
5
322
100
AcDbEntity
8
0
100
AcDbSpline
70
0
71
3
72
9
73
5
74
0
42
0.000000001
43
0.0000000001
44
0.0000000001
40
0
40
0
40
0
40
0
40
0.021400074159498062
40
0.043352502766502259
40
0.043352502766502259
40
0.043352502766502259
40
0.043352502766502259
10
6.4759902283549309
20
-19.800031892423007
30
0
10
6.5226421165397586
20
-19.854614146014477
30
0
10
6.617150018546134
20
-19.965187468433356
30
0
10
6.6734626216273529
20
-20.099335334931084
30
0
10
6.7019776627421379
20
-20.16726385748801
30
0
0
SPLINE
5
323
100
AcDbEntity
8
0
100
AcDbSpline
70
0
71
3
72
9
73
5
74
0
42
0.000000001
43
0.0000000001
44
0.0000000001
40
0
40
0
40
0
40
0
40
0.0226547268956909
40
0.04604057149091309
40
0.04604057149091309
40
0.04604057149091309
40
0.04604057149091309
10
6.7019776627421379
20
-20.16726385748801
30
0
10
6.7246345627780002
20
-20.239678629410143
30
0
10
6.7706795506812423
20
-20.386845156688533
30
0
10
6.7766376274620299
20
-20.540960018530129
30
0
10
6.779663972556591
20
-20.619241110448215
30
0
0
SPLINE
5
324
100
AcDbEntity
8
0
100
AcDbSpline
70
0
71
3
72
9
73
5
74
0
42
0.000000001
43
0.0000000001
44
0.0000000001
40
0
40
0
40
0
40
0
40
0.036616026378285871
40
0.069211320107498919
40
0.069211320107498919
40
0.069211320107498919
40
0.069211320107498919
10
6.779663972556591
20
-20.619241110448215
30
0
10
6.7743957948624001
20
-20.742814377794822
30
0
10
6.764437927533784
20
-20.976391579064462
30
0
10
6.6595600227551266
20
-21.184889643444393
30
0
10
6.6101674363017082
20
-21.283082477216098
30
0
0
SPLINE
5
325
100
AcDbEntity
8
0
100
AcDbSpline
70
0
71
3
72
9
73
5
74
0
42
0.000000001
43
0.0000000001
44
0.0000000001
40
0
40
0
40
0
40
0
40
0.030608361802959588
40
0.061330767397995173
40
0.061330767397995173
40
0.061330767397995173
40
0.061330767397995173
10
6.6101674363017082
20
-21.283082477216098
30
0
10
6.5494690071458006
20
-21.36611294569893
30
0
10
6.4278459923647535
20
-21.532483246149798
30
0
10
6.2575985112417598
20
-21.648629958184202
30
0
10
6.1723164841532707
20
-21.706811300877902
30
0
0
SPLINE
5
326
100
AcDbEntity
8
0
100
AcDbSpline
70
0
71
3
72
9
73
5
74
0
42
0.000000001
43
0.0000000001
44
0.0000000001
40
0
40
0
40
0
40
0
40
0.031821269915875437
40
0.065288663397314484
40
0.065288663397314484
40
0.065288663397314484
40
0.065288663397314484
10
6.1723164841532707
20
-21.706811300877902
30
0
10
6.0785621037279824
20
-21.757406421690622
30
0
10
5.8862034014576814
20
-21.861213963659274
30
0
10
5.6738351242285656
20
-21.913209322571809
30
0
10
5.5649737641215324
20
-21.939862481717441
30
0
0
SPLINE
5
327
100
AcDbEntity
8
0
100
AcDbSpline
70
0
71
3
72
9
73
5
74
0
42
0.000000001
43
0.0000000001
44
0.0000000001
40
0
40
0
40
0
40
0
40
0.033612098709271371
40
0.06685117961879955
40
0.06685117961879955
40
0.06685117961879955
40
0.06685117961879955
10
5.5649737641215324
20
-21.939862481717441
30
0
10
5.454645379679377
20
-21.960460122628632
30
0
10
5.2352130047720546
20
-22.001426817513931
30
0
10
5.0120763867332929
20
-22.007476092458425
30
0
10
4.9011306092143059
20
-22.010483852986667
30
0
0
LWPOLYLINE
5
328
100
AcDbEntity
8
0
100
AcDbPolyline
90
8
70
1
43
0.0
10
-14.378530569374561
20
-22.010483852986667
10
-15.261299200356007
20
-22.010483852986667
10
-17.259885855019093
20
-17.010483852986667
10
-16.002823896706104
20
-17.010483852986667
10
-14.766947813332081
20
-20.287320129041049
10
-14.752823896706104
20
-20.287320129041049
10
-13.495761938393116
20
-17.010483852986667
10
-12.316381521522999
20
-17.010483852986667
0
SPLINE
5
329
100
AcDbEntity
8
0
100
AcDbSpline
70
0
71
3
72
9
73
5
74
0
42
0.000000001
43
0.0000000001
44
0.0000000001
40
0
40
0
40
0
40
0
40
0.012465538198956912
40
0.02517860865398918
40
0.02517860865398918
40
0.02517860865398918
40
0.02517860865398918
10
-22.966099567711353
20
-21.869241110448215
30
0
10
-22.992956193530567
20
-21.837268196198071
30
0
10
-23.047202745943771
20
-21.772687471115589
30
0
10
-23.082472237848428
20
-21.696064518889592
30
0
10
-23.100280351936817
20
-21.657376400594089
30
0
0
SPLINE
5
330
100
AcDbEntity
8
0
100
AcDbSpline
70
0
71
3
72
9
73
5
74
0
42
0.000000001
43
0.0000000001
44
0.0000000001
40
0
40
0
40
0
40
0
40
0.012902896343676945
40
0.026026197103643484
40
0.026026197103643484
40
0.026026197103643484
40
0.026026197103643484
10
-23.100280351936817
20
-21.657376400594089
30
0
10
-23.114698719736406
20
-21.616582906814742
30
0
10
-23.143781746699474
20
-21.534299093834413
30
0
10
-23.147726282201493
20
-21.447105396180341
30
0
10
-23.149715252220631
20
-21.403139344815585
30
0
0
SPLINE
5
331
100
AcDbEntity
8
0
100
AcDbSpline
70
0
71
3
72
9
73
5
74
0
42
0.000000001
43
0.0000000001
44
0.0000000001
40
0
40
0
40
0
40
0
40
0.01312330075996654
40
0.026026254194512446
40
0.026026254194512446
40
0.026026254194512446
40
0.026026254194512446
10
-23.149715252220631
20
-21.403139344815585
30
0
10
-23.147726263505973
20
-21.359173298570262
30
0
10
-23.143781682274124
20
-21.271979419801657
30
0
10
-23.114698719889013
20
-21.189695386841393
30
0
10
-23.100280351936817
20
-21.148901692990634
30
0
0
SPLINE
5
332
100
AcDbEntity
8
0
100
AcDbSpline
70
0
71
3
72
9
73
5
74
0
42
0.000000001
43
0.0000000001
44
0.0000000001
40
0
40
0
40
0
40
0
40
0.012556413671132116
40
0.024606134565264191
40
0.024606134565264191
40
0.024606134565264191
40
0.024606134565264191
10
-23.100280351936817
20
-21.148901692990634
30
0
10
-23.082632717983831
20
-21.110658480401604
30
0
10
-23.048049590414198
20
-21.035715295203971
30
0
10
-22.993038644387134
20
-20.974215989452958
30
0
10
-22.966099567711353
20
-20.944099537495944
30
0
0
SPLINE
5
333
100
AcDbEntity
8
0
100
AcDbSpline
70
0
71
3
72
9
73
5
74
0
42
0.000000001
43
0.0000000001
44
0.0000000001
40
0
40
0
40
0
40
0
40
0.012795051367204073
40
0.025589941531079678
40
0.025589941531079678
40
0.025589941531079678
40
0.025589941531079678
10
-22.966099567711353
20
-20.944099537495944
30
0
10
-22.934319589917862
20
-20.915262365550767
30
0
10
-22.870760034723034
20
-20.857588384976509
30
0
10
-22.793076420357036
20
-20.821100581679101
30
0
10
-22.754234857857227
20
-20.802856794957492
30
0
0
SPLINE
5
334
100
AcDbEntity
8
0
100
AcDbSpline
70
0
71
3
72
9
73
5
74
0
42
0.000000001
43
0.0000000001
44
0.0000000001
40
0
40
0
40
0
40
0
40
0.012902839252830717
40
0.026026258692322762
40
0.026026258692322762
40
0.026026258692322762
40
0.026026258692322762
10
-22.754234857857227
20
-20.802856794957492
30
0
10
-22.713441563173831
20
-20.788438427622673
30
0
10
-22.631157592991897
20
-20.759355204091484
30
0
10
-22.543963666398099
20
-20.755410807785353
30
0
10
-22.499997206032276
20
-20.753421894673679
30
0
0
SPLINE
5
335
100
AcDbEntity
8
0
100
AcDbSpline
70
0
71
3
72
9
73
5
74
0
42
0.000000001
43
0.0000000001
44
0.0000000001
40
0
40
0
40
0
40
0
40
0.013123182080450642
40
0.026026135514996551
40
0.026026135514996551
40
0.026026135514996551
40
0.026026135514996551
10
-22.499997206032276
20
-20.753421894673679
30
0
10
-22.456031563668365
20
-20.755410921599413
30
0
10
-22.368838094953812
20
-20.759355596297571
30
0
10
-22.286554439175568
20
-20.788438426693506
30
0
10
-22.24576074630022
20
-20.802856794957492
30
0
0
SPLINE
5
336
100
AcDbEntity
8
0
100
AcDbSpline
70
0
71
3
72
9
73
5
74
0
42
0.000000001
43
0.0000000001
44
0.0000000001
40
0
40
0
40
0
40
0
40
0.012639248365227087
40
0.025029588266617445
40
0.025029588266617445
40
0.025029588266617445
40
0.025029588266617445
10
-22.24576074630022
20
-20.802856794957492
30
0
10
-22.207357107281787
20
-20.820945615274166
30
0
10
-22.131306123489452
20
-20.856767027408196
30
0
10
-22.070873712913265
20
-20.91518233916327
30
0
10
-22.040957994759083
20
-20.944099537495944
30
0
0
SPLINE
5
337
100
AcDbEntity
8
0
100
AcDbSpline
70
0
71
3
72
9
73
5
74
0
42
0.000000001
43
0.0000000001
44
0.0000000001
40
0
40
0
40
0
40
0
40
0.012390249872205703
40
0.025029494075253605
40
0.025029494075253605
40
0.025029494075253605
40
0.025029494075253605
10
-22.040957994759083
20
-20.944099537495944
30
0
10
-22.012040672797735
20
-20.974014778598168
30
0
10
-21.953624906677682
20
-21.034446437172505
30
0
10
-21.917804711974558
20
-21.110497753949204
30
0
10
-21.899716444313526
20
-21.148901692990634
30
0
0
SPLINE
5
338
100
AcDbEntity
8
0
100
AcDbSpline
70
0
71
3
72
9
73
5
74
0
42
0.000000001
43
0.0000000001
44
0.0000000001
40
0
40
0
40
0
40
0
40
0.012902953434545908
40
0.026026265421182929
40
0.026026265421182929
40
0.026026265421182929
40
0.026026265421182929
10
-21.899716444313526
20
-21.148901692990634
30
0
10
-21.885298173236862
20
-21.189695396094965
30
0
10
-21.856215393712048
20
-21.271979483214395
30
0
10
-21.8522698345833
20
-21.359173307430652
30
0
10
-21.850280351936817
20
-21.403139344815585
30
0
0
SPLINE
5
339
100
AcDbEntity
8
0
100
AcDbSpline
70
0
71
3
72
9
73
5
74
0
42
0.000000001
43
0.0000000001
44
0.0000000001
40
0
40
0
40
0
40
0
40
0.013123311986637021
40
0.026026208330313966
40
0.026026208330313966
40
0.026026208330313966
40
0.026026208330313966
10
-21.850280351936817
20
-21.403139344815585
30
0
10
-21.852269815887979
20
-21.44710538731994
30
0
10
-21.856215329285156
20
-21.534299030421835
30
0
10
-21.885298173388836
20
-21.61658289756123
30
0
10
-21.899716444313526
20
-21.657376400594089
30
0
0
SPLINE
5
340
100
AcDbEntity
8
0
100
AcDbSpline
70
0
71
3
72
9
73
5
74
0
42
0.000000001
43
0.0000000001
44
0.0000000001
40
0
40
0
40
0
40
0
40
0.012794939512910332
40
0.025589898763937403
40
0.025589898763937403
40
0.025589898763937403
40
0.025589898763937403
10
-21.899716444313526
20
-21.657376400594089
30
0
10
-21.917959649742343
20
-21.696218474551671
30
0
10
-21.954446088742856
20
-21.773902682386574
30
0
10
-22.012120677925068
20
-21.837461618086145
30
0
10
-22.040957994759083
20
-21.869241110448215
30
0
0
SPLINE
5
341
100
AcDbEntity
8
0
100
AcDbSpline
70
0
71
3
72
9
73
5
74
0
42
0.000000001
43
0.0000000001
44
0.0000000001
40
0
40
0
40
0
40
0
40
0.012049683340725316
40
0.024606177468463237
40
0.024606177468463237
40
0.024606177468463237
40
0.024606177468463237
10
-22.040957994759083
20
-21.869241110448215
30
0
10
-22.071074488227261
20
-21.896179928635494
30
0
10
-22.13257417764245
20
-21.951190614174962
30
0
10
-22.207517357877215
20
-21.985774030871191
30
0
10
-22.24576074630022
20
-22.003421894673679
30
0
0
SPLINE
5
342
100
AcDbEntity
8
0
100
AcDbSpline
70
0
71
3
72
9
73
5
74
0
42
0.000000001
43
0.0000000001
44
0.0000000001
40
0
40
0
40
0
40
0
40
0.012902953434545908
40
0.026026135514996551
40
0.026026135514996551
40
0.026026135514996551
40
0.026026135514996551
10
-22.24576074630022
20
-22.003421894673679
30
0
10
-22.286554439175564
20
-22.017840262937668
30
0
10
-22.368838094953809
20
-22.046923093333604
30
0
10
-22.456031563668361
20
-22.050867768031761
30
0
10
-22.499997206032276
20
-22.052856794957492
30
0
0
SPLINE
5
343
100
AcDbEntity
8
0
100
AcDbSpline
70
0
71
3
72
9
73
5
74
0
42
0.000000001
43
0.0000000001
44
0.0000000001
40
0
40
0
40
0
40
0
40
0.013123425052642364
40
0.026026247178128653
40
0.026026247178128653
40
0.026026247178128653
40
0.026026247178128653
10
-22.499997206032276
20
-22.052856794957492
30
0
10
-22.543963648219432
20
-22.050867589540296
30
0
10
-22.631157462891721
20
-22.046922616968846
30
0
10
-22.713441544189163
20
-22.017839965594597
30
0
10
-22.754234857857227
20
-22.003421894673679
30
0
0
SPLINE
5
344
100
AcDbEntity
8
0
100
AcDbSpline
70
0
71
3
72
9
73
5
74
0
42
0.000000001
43
0.0000000001
44
0.0000000001
40
0
40
0
40
0
40
0
40
0.012713123431924492
40
0.025178614355519633
40
0.025178614355519633
40
0.025178614355519633
40
0.025178614355519633
10
-22.754234857857227
20
-22.003421894673679
30
0
10
-22.792923212641007
20
-21.985613838802269
30
0
10
-22.869546331292085
20
-21.950344601182668
30
0
10
-22.934126872828472
20
-21.896097767556313
30
0
10
-22.966099567711353
20
-21.869241110448215
30
0
0
LINE
5
345
100
AcDbEntity
8
0
100
AcDbLine
10
-20.826270170509815
20
-17.010483852986667
30
0
11
-17.803670950233936
21
-17.010483852986667
31
0
0
LINE
5
346
100
AcDbEntity
8
0
100
AcDbLine
10
-17.803670950233936
20
-17.010483852986667
30
0
11
-17.803670950233936
21
-17.942687384251926
31
0
0
LINE
5
347
100
AcDbEntity
8
0
100
AcDbLine
10
-17.803670950233936
20
-17.942687384251926
30
0
11
-19.788133688271046
21
-17.942687384251926
31
0
0
LINE
5
348
100
AcDbEntity
8
0
100
AcDbLine
10
-19.788133688271046
20
-17.942687384251926
30
0
11
-19.809319563210011
21
-18.712461105946872
31
0
0
SPLINE
5
349
100
AcDbEntity
8
0
100
AcDbSpline
70
0
71
3
72
9
73
5
74
0
42
0.000000001
43
0.0000000001
44
0.0000000001
40
0
40
0
40
0
40
0
40
0.019705278522069016
40
0.044991854531611863
40
0.044991854531611863
40
0.044991854531611863
40
0.044991854531611863
10
-19.809319563210011
20
-18.712461105946872
30
0
10
-19.745485880140613
20
-18.696047327901081
30
0
10
-19.599738344542025
20
-18.6585707546406
30
0
10
-19.449079560662117
20
-18.656901892593378
30
0
10
-19.364405460655689
20
-18.655963949326846
30
0
0
SPLINE
5
350
100
AcDbEntity
8
0
100
AcDbSpline
70
0
71
3
72
9
73
5
74
0
42
0.000000001
43
0.0000000001
44
0.0000000001
40
0
40
0
40
0
40
0
40
0.036655599794624689
40
0.071083629588584274
40
0.071083629588584274
40
0.071083629588584274
40
0.071083629588584274
10
-19.364405460655689
20
-18.655963949326846
30
0
10
-19.24170785094595
20
-18.660053299858831
30
0
10
-19.003768996067603
20
-18.667983490064476
30
0
10
-18.775709079763608
20
-18.736010801481338
30
0
10
-18.665252514183521
20
-18.768958560590121
30
0
0
SPLINE
5
351
100
AcDbEntity
8
0
100
AcDbSpline
70
0
71
3
72
9
73
5
74
0
42
0.000000001
43
0.0000000001
44
0.0000000001
40
0
40
0
40
0
40
0
40
0.032617007794292503
40
0.064082238104346601
40
0.064082238104346601
40
0.064082238104346601
40
0.064082238104346601
10
-18.665252514183521
20
-18.768958560590121
30
0
10
-18.563850248286947
20
-18.810360369106576
30
0
10
-18.364626451043296
20
-18.891701998235604
30
0
10
-18.201543375696431
20
-19.031994004814852
30
0
10
-18.121467418968678
20
-19.100879243974063
30
0
0
SPLINE
5
352
100
AcDbEntity
8
0
100
AcDbSpline
70
0
71
3
72
9
73
5
74
0
42
0.000000001
43
0.0000000001
44
0.0000000001
40
0
40
0
40
0
40
0
40
0.031407152554479241
40
0.063872433129967141
40
0.063872433129967141
40
0.063872433129967141
40
0.063872433129967141
10
-18.121467418968678
20
-19.100879243974063
30
0
10
-18.047860850530789
20
-19.176452478614642
30
0
10
-17.898167859027645
20
-19.330145060825728
30
0
10
-17.807422396485375
20
-19.524626520255147
30
0
10
-17.761298008263111
20
-19.623478166226718
30
0
0
SPLINE
5
353
100
AcDbEntity
8
0
100
AcDbSpline
70
0
71
3
72
9
73
5
74
0
42
0.000000001
43
0.0000000001
44
0.0000000001
40
0
40
0
40
0
40
0
40
0.033686632700208163
40
0.070019378361602838
40
0.070019378361602838
40
0.070019378361602838
40
0.070019378361602838
10
-17.761298008263111
20
-19.623478166226718
30
0
10
-17.724236407465511
20
-19.730175180665057
30
0
10
-17.647201986363584
20
-19.951950348592874
30
0
10
-17.638628122419743
20
-20.186697395778552
30
0
10
-17.634179182350636
20
-20.308506600026462
30
0
0
SPLINE
5
354
100
AcDbEntity
8
0
100
AcDbSpline
70
0
71
3
72
9
73
5
74
0
42
0.000000001
43
0.0000000001
44
0.0000000001
40
0
40
0
40
0
40
0
40
0.040248820959428729
40
0.077438441655486273
40
0.077438441655486273
40
0.077438441655486273
40
0.077438441655486273
10
-17.634179182350636
20
-20.308506600026462
30
0
10
-17.639321882653402
20
-20.443546592734499
30
0
10
-17.649216400998405
20
-20.703362566151945
30
0
10
-17.739247744522022
20
-20.947101420962202
30
0
10
-17.782485075294971
20
-21.064156405095432
30
0
0
SPLINE
5
355
100
AcDbEntity
8
0
100
AcDbSpline
70
0
71
3
72
9
73
5
74
0
42
0.000000001
43
0.0000000001
44
0.0000000001
40
0
40
0
40
0
40
0
40
0.035085709154699454
40
0.069366246842491319
40
0.069366246842491319
40
0.069366246842491319
40
0.069366246842491319
10
-17.782485075294971
20
-21.064156405095432
30
0
10
-17.833771648674265
20
-21.170214337030888
30
0
10
-17.935167835168535
20
-21.379896309078283
30
0
10
-18.097660844788763
20
-21.546696129069673
30
0
10
-18.177964277565479
20
-21.629127971295688
30
0
0
SPLINE
5
356
100
AcDbEntity
8
0
100
AcDbSpline
70
0
71
3
72
9
73
5
74
0
42
0.000000001
43
0.0000000001
44
0.0000000001
40
0
40
0
40
0
40
0
40
0.034295500495379702
40
0.07025577378278805
40
0.07025577378278805
40
0.07025577378278805
40
0.07025577378278805
10
-18.177964277565479
20
-21.629127971295688
30
0
10
-18.268163935012829
20
-21.700491086464563
30
0
10
-18.452941723275757
20
-21.846681426401862
30
0
10
-18.672783712060827
20
-21.931671086592619
30
0
10
-18.785309381783009
20
-21.97517286932883
30
0
0
SPLINE
5
357
100
AcDbEntity
8
0
100
AcDbSpline
70
0
71
3
72
9
73
5
74
0
42
0.000000001
43
0.0000000001
44
0.0000000001
40
0
40
0
40
0
40
0
40
0.037296599630573329
40
0.076782330895937195
40
0.076782330895937195
40
0.076782330895937195
40
0.076782330895937195
10
-18.785309381783009
20
-21.97517286932883
30
0
10
-18.905148164377085
20
-22.010181402339416
30
0
10
-19.151859691713263
20
-22.082253301451544
30
0
10
-19.408816538676657
20
-22.09082281696687
30
0
10
-19.540957994759083
20
-22.095229736928317
30
0
0
SPLINE
5
358
100
AcDbEntity
8
0
100
AcDbSpline
70
0
71
3
72
9
73
5
74
0
42
0.000000001
43
0.0000000001
44
0.0000000001
40
0
40
0
40
0
40
0
40
0.060201892068660633
40
0.11476485114312349
40
0.11476485114312349
40
0.11476485114312349
40
0.11476485114312349
10
-19.540957994759083
20
-22.095229736928317
30
0
10
-19.744702729978286
20
-22.08479225266727
30
0
10
-20.13310803428265
20
-22.064894932394324
30
0
10
-20.468888415599498
20
-21.870062819116768
30
0
10
-20.628529377281666
20
-21.777433268193576
30
0
0
SPLINE
5
359
100
AcDbEntity
8
0
100
AcDbSpline
70
0
71
3
72
9
73
5
74
0
42
0.000000001
43
0.0000000001
44
0.0000000001
40
0
40
0
40
0
40
0
40
0.054347838765910761
40
0.11506925157377237
40
0.11506925157377237
40
0.11506925157377237
40
0.11506925157377237
10
-20.628529377281666
20
-21.777433268193576
30
0
10
-20.764279666443571
20
-21.652576635607019
30
0
10
-21.051700188206471
20
-21.388220966789355
30
0
10
-21.167633800091114
20
-21.014297875557098
30
0
10
-21.228811331093311
20
-20.816980711583469
30
0
0
LINE
5
360
100
AcDbEntity
8
0
100
AcDbLine
10
-21.228811331093315
20
-20.816980711583465
30
0
11
-20.120055265724659
21
-20.562743655804965
31
0
0
SPLINE
5
361
100
AcDbEntity
8
0
100
AcDbSpline
70
0
71
3
72
9
73
5
74
0
42
0.000000001
43
0.0000000001
44
0.0000000001
40
0
40
0
40
0
40
0
40
0.025572885775301098
40
0.050008895729460844
40
0.050008895729460844
40
0.050008895729460844
40
0.050008895729460844
10
-20.120055265724659
20
-20.562743655804965
30
0
10
-20.100767638986909
20
-20.647401512799341
30
0
10
-20.063049841986125
20
-20.812953651901296
30
0
10
-19.949533370931718
20
-20.939004402454525
30
0
10
-19.894065447151661
20
-21.000596992139194
30
0
0
SPLINE
5
362
100
AcDbEntity
8
0
100
AcDbSpline
70
0
71
3
72
9
73
5
74
0
42
0.000000001
43
0.0000000001
44
0.0000000001
40
0
40
0
40
0
40
0
40
0.023981344255199762
40
0.049553039134370674
40
0.049553039134370674
40
0.049553039134370674
40
0.049553039134370674
10
-19.894065447151661
20
-21.000596992139194
30
0
10
-19.827645935884732
20
-21.0479585979019
30
0
10
-19.69040222652167
20
-21.145822649176552
30
0
10
-19.521953624014269
20
-21.157170290123574
30
0
10
-19.435026235878468
20
-21.163026205663058
30
0
0
SPLINE
5
363
100
AcDbEntity
8
0
100
AcDbSpline
70
0
71
3
72
9
73
5
74
0
42
0.000000001
43
0.0000000001
44
0.0000000001
40
0
40
0
40
0
40
0
40
0.030825704094008231
40
0.059032336891859341
40
0.059032336891859341
40
0.059032336891859341
40
0.059032336891859341
10
-19.435026235878468
20
-21.163026205663058
30
0
10
-19.329539076158579
20
-21.155874386156462
30
0
10
-19.12752735466281
20
-21.142178393448042
30
0
10
-18.972417275605451
20
-21.012922237700487
30
0
10
-18.898303098976612
20
-20.951161495808933
30
0
0
SPLINE
5
364
100
AcDbEntity
8
0
100
AcDbSpline
70
0
71
3
72
9
73
5
74
0
42
0.000000001
43
0.0000000001
44
0.0000000001
40
0
40
0
40
0
40
0
40
0.028503921248682895
40
0.05860364288758016
40
0.05860364288758016
40
0.05860364288758016
40
0.05860364288758016
10
-18.898303098976612
20
-20.951161495808933
30
0
10
-18.838581630275186
20
-20.874429177979806
30
0
10
-18.715795168933077
20
-20.716668661005237
30
0
10
-18.701066439044688
20
-20.51699419782657
30
0
10
-18.69350153952837
20
-20.414438358907077
30
0
0
SPLINE
5
365
100
AcDbEntity
8
0
100
AcDbSpline
70
0
71
3
72
9
73
5
74
0
42
0.000000001
43
0.0000000001
44
0.0000000001
40
0
40
0
40
0
40
0
40
0.0225781737057737
40
0.042099895676547608
40
0.042099895676547608
40
0.042099895676547608
40
0.042099895676547608
10
-18.69350153952837
20
-20.414438358907077
30
0
10
-18.696483390048762
20
-20.338089747914463
30
0
10
-18.702043432126018
20
-20.195727987405174
30
0
10
-18.768580199043306
20
-20.070133958476021
30
0
10
-18.799433298408985
20
-20.011896006230685
30
0
0
SPLINE
5
366
100
AcDbEntity
8
0
100
AcDbSpline
70
0
71
3
72
9
73
5
74
0
42
0.000000001
43
0.0000000001
44
0.0000000001
40
0
40
0
40
0
40
0
40
0.018584324892455643
40
0.037302309621629975
40
0.037302309621629975
40
0.037302309621629975
40
0.037302309621629975
10
-18.799433298408985
20
-20.011896006230685
30
0
10
-18.835433349517444
20
-19.96064120640785
30
0
10
-18.907692366759843
20
-19.857762978457671
30
0
10
-19.014300036339932
20
-19.791106573126246
30
0
10
-19.067794866859913
20
-19.757658950452182
30
0
0
SPLINE
5
367
100
AcDbEntity
8
0
100
AcDbSpline
70
0
71
3
72
9
73
5
74
0
42
0.000000001
43
0.0000000001
44
0.0000000001
40
0
40
0
40
0
40
0
40
0.01918922010971337
40
0.039273659054557167
40
0.039273659054557167
40
0.039273659054557167
40
0.039273659054557167
10
-19.067794866859913
20
-19.757658950452182
30
0
10
-19.12444879423084
20
-19.727225008876868
30
0
10
-19.240399677849144
20
-19.664937316188915
30
0
10
-19.369172285810453
20
-19.637506307191231
30
0
10
-19.435026235878468
20
-19.623478166226718
30
0
0
SPLINE
5
368
100
AcDbEntity
8
0
100
AcDbSpline
70
0
71
3
72
9
73
5
74
0
42
0.000000001
43
0.0000000001
44
0.0000000001
40
0
40
0
40
0
40
0
40
0.020650908315198523
40
0.04115008094493218
40
0.04115008094493218
40
0.04115008094493218
40
0.04115008094493218
10
-19.435026235878468
20
-19.623478166226718
30
0
10
-19.503167621579415
20
-19.613179293751969
30
0
10
-19.638949713800034
20
-19.592657221332249
30
0
10
-19.776239810492445
20
-19.589660377345243
30
0
10
-19.844631738960743
20
-19.588167480592105
30
0
0
SPLINE
5
369
100
AcDbEntity
8
0
100
AcDbSpline
70
0
71
3
72
9
73
5
74
0
42
0.000000001
43
0.0000000001
44
0.0000000001
40
0
40
0
40
0
40
0
40
0.026335643521957178
40
0.053251716512784153
40
0.053251716512784153
40
0.053251716512784153
40
0.053251716512784153
10
-19.844631738960743
20
-19.588167480592105
30
0
10
-19.93250351684512
20
-19.590315596164299
30
0
10
-20.110183739524004
20
-19.594659171114031
30
0
10
-20.285619125278409
20
-19.623184536685379
30
0
10
-20.37429291754961
20
-19.637602678899142
30
0
0
SPLINE
5
370
100
AcDbEntity
8
0
100
AcDbSpline
70
0
71
3
72
9
73
5
74
0
42
0.000000001
43
0.0000000001
44
0.0000000001
40
0
40
0
40
0
40
0
40
0.026426991598210221
40
0.0526219146563153
40
0.0526219146563153
40
0.0526219146563153
40
0.0526219146563153
10
-20.37429291754961
20
-19.637602678899142
30
0
10
-20.460620482636728
20
-19.65548948581241
30
0
10
-20.632517527581093
20
-19.691106026702659
30
0
10
-20.799596140399537
20
-19.744970166614848
30
0
10
-20.882767029106617
20
-19.771783463124606
30
0
0
LINE
5
371
100
AcDbEntity
8
0
100
AcDbLine
10
-20.882767029106617
20
-19.771783463124606
30
0
11
-20.826270170509815
21
-17.010483852986667
31
0
0
LWPOLYLINE
5
372
100
AcDbEntity
8
0
100
AcDbPolyline
90
15
70
1
43
0.0
10
-3.3545180037617683
20
-20.951161495808933
10
-3.771183080971241
20
-22.010483852986667
10
-6.2146874144673347
20
-22.010483852986667
10
-6.645478792488575
20
-20.951161495808933
10
-8.5875697806477547
20
-20.951161495808933
10
-9.0042372420430183
20
-22.010483852986667
10
-10.218927450478077
20
-22.010483852986667
10
-8.0579086020588875
20
-17.010483852986667
10
-7.146892137825489
20
-17.010483852986667
10
-4.9788355218177074
20
-21.994200387068954
10
-2.8248568251729012
20
-17.010483852986667
10
-1.9138379767537117
20
-17.010483852986667
10
0.2613024041056633
20
-22.010483852986667
10
-0.98163563758134842
20
-22.010483852986667
10
-1.4124270156025887
20
-20.951161495808933
0
LWPOLYLINE
5
373
100
AcDbEntity
8
0
100
AcDbPolyline
90
7
70
1
43
0.0
10
-24.675139971077442
20
-22.010483852986667
10
-25.692088790237904
20
-22.010483852986667
10
-25.692088790237904
20
-18.196924440030429
10
-26.694913692772388
20
-19.079692772988651
10
-27.295196242630482
20
-18.387602380875919
10
-25.663840360939503
20
-17.010483852986667
10
-24.675139971077442
20
-17.010483852986667
0
LINE
5
374
100
AcDbEntity
8
0
100
AcDbLine
10
12.492945604026318
20
-18.578280321721408
30
0
11
13.425143174827099
21
-18.578280321721408
31
0
0
LINE
5
375
100
AcDbEntity
8
0
100
AcDbLine
10
13.425143174827099
20
-18.578280321721408
30
0
11
13.425143174827099
21
-19.425737969045016
31
0
0
LINE
5
376
100
AcDbEntity
8
0
100
AcDbLine
10
13.425143174827099
20
-19.425737969045016
30
0
11
12.492945604026318
21
-19.425737969045016
31
0
0
LINE
5
377
100
AcDbEntity
8
0
100
AcDbLine
10
12.492945604026318
20
-19.425737969045016
30
0
11
12.492945604026318
21
-20.569806210164401
31
0
0
SPLINE
5
378
100
AcDbEntity
8
0
100
AcDbSpline
70
0
71
3
72
9
73
5
74
0
42
0.000000001
43
0.0000000001
44
0.0000000001
40
0
40
0
40
0
40
0
40
0.013599205985490775
40
0.026179178298113136
40
0.026179178298113136
40
0.026179178298113136
40
0.026179178298113136
10
12.492945604026318
20
-20.569806210164401
30
0
10
12.493435659551659
20
-20.615159504867897
30
0
10
12.494379041907031
20
-20.702466954267258
30
0
10
12.502950599862404
20
-20.789353383740782
30
0
10
12.507069520652294
20
-20.831105224255893
30
0
0
SPLINE
5
379
100
AcDbEntity
8
0
100
AcDbSpline
70
0
71
3
72
9
73
5
74
0
42
0.000000001
43
0.0000000001
44
0.0000000001
40
0
40
0
40
0
40
0
40
0.010838991758784163
40
0.020877546360499228
40
0.020877546360499228
40
0.020877546360499228
40
0.020877546360499228
10
12.507069520652294
20
-20.831105224255893
30
0
10
12.51291200024597
20
-20.867004756052037
30
0
10
12.524165504381015
20
-20.936152713359668
30
0
10
12.555537685339084
20
-20.998747809440587
30
0
10
12.570622377097607
20
-21.028845421437595
30
0
0
SPLINE
5
380
100
AcDbEntity
8
0
100
AcDbSpline
70
0
71
3
72
9
73
5
74
0
42
0.000000001
43
0.0000000001
44
0.0000000001
40
0
40
0
40
0
40
0
40
0.0097890824722614098
40
0.020218895605005963
40
0.020218895605005963
40
0.020218895605005963
40
0.020218895605005963
10
12.570622377097607
20
-21.028845421437595
30
0
10
12.589656686465132
20
-21.055865096454866
30
0
10
12.62897116921728
20
-21.111672981412756
30
0
10
12.688315699718249
20
-21.145550607024383
30
0
10
12.718928270041943
20
-21.163026205663058
30
0
0
SPLINE
5
381
100
AcDbEntity
8
0
100
AcDbSpline
70
0
71
3
72
9
73
5
74
0
42
0.000000001
43
0.0000000001
44
0.0000000001
40
0
40
0
40
0
40
0
40
0.012589938599709237
40
0.027986300897572852
40
0.027986300897572852
40
0.027986300897572852
40
0.027986300897572852
10
12.718928270041943
20
-21.163026205663058
30
0
10
12.759252408132413
20
-21.175352848781962
30
0
10
12.848889339488165
20
-21.202753867512154
30
0
10
12.942726118408663
20
-21.204460346552217
30
0
10
12.994349412620068
20
-21.205399147633884
30
0
0
SPLINE
5
382
100
AcDbEntity
8
0
100
AcDbSpline
70
0
71
3
72
9
73
5
74
0
42
0.000000001
43
0.0000000001
44
0.0000000001
40
0
40
0
40
0
40
0
40
0.0097176826966044426
40
0.021945891748093801
40
0.021945891748093801
40
0.021945891748093801
40
0.021945891748093801
10
12.994349412620068
20
-21.205399147633884
30
0
10
13.026742524713004
20
-21.204582863739336
30
0
10
13.099897386172303
20
-21.202739412111534
30
0
10
13.172712167867449
20
-21.195376972358488
30
0
10
13.21328442543745
20
-21.191274634961459
30
0
0
SPLINE
5
383
100
AcDbEntity
8
0
100
AcDbSpline
70
0
71
3
72
9
73
5
74
0
42
0.000000001
43
0.0000000001
44
0.0000000001
40
0
40
0
40
0
40
0
40
0.01276071785306607
40
0.023055059547560396
40
0.023055059547560396
40
0.023055059547560396
40
0.023055059547560396
10
13.21328442543745
20
-21.191274634961459
30
0
10
13.255786748988703
20
-21.183806527502142
30
0
10
13.332576598248531
20
-21.170313739387492
30
0
10
13.396569589296332
20
-21.126218406086078
30
0
10
13.425143174827099
20
-21.106529347066257
30
0
0
LINE
5
384
100
AcDbEntity
8
0
100
AcDbLine
10
13.425143174827099
20
-21.106529347066264
30
0
11
13.425143174827099
21
-21.989297382001254
31
0
0
SPLINE
5
385
100
AcDbEntity
8
0
100
AcDbSpline
70
0
71
3
72
9
73
5
74
0
42
0.000000001
43
0.0000000001
44
0.0000000001
40
0
40
0
40
0
40
0
40
0.018771012205627265
40
0.037753819404113341
40
0.037753819404113341
40
0.037753819404113341
40
0.037753819404113341
10
13.425143174827099
20
-21.989297382001254
30
0
10
13.365528295884959
20
-22.008737939658545
30
0
10
13.245625898042785
20
-22.047838404506606
30
0
10
13.12071674566301
20
-22.065275704984579
30
0
10
13.057911805808544
20
-22.074043265942905
30
0
0
SPLINE
5
386
100
AcDbEntity
8
0
100
AcDbSpline
70
0
71
3
72
9
73
5
74
0
42
0.000000001
43
0.0000000001
44
0.0000000001
40
0
40
0
40
0
40
0
40
0.01895804426039524
40
0.037503130511704064
40
0.037503130511704064
40
0.037503130511704064
40
0.037503130511704064
10
13.057911805808544
20
-22.074043265942905
30
0
10
12.994990378855151
20
-22.080222511919896
30
0
10
12.870518125567649
20
-22.092446403010968
30
0
10
12.745462531770508
20
-22.094308794737032
30
0
10
12.683623246848583
20
-22.095229736928317
30
0
0
SPLINE
5
387
100
AcDbEntity
8
0
100
AcDbSpline
70
0
71
3
72
9
73
5
74
0
42
0.000000001
43
0.0000000001
44
0.0000000001
40
0
40
0
40
0
40
0
40
0.025815531948089315
40
0.049850740064441776
40
0.049850740064441776
40
0.049850740064441776
40
0.049850740064441776
10
12.683623246848583
20
-22.095229736928317
30
0
10
12.597384760923962
20
-22.093230564804756
30
0
10
12.430855078172378
20
-22.089370090030258
30
0
10
12.267856020500867
20
-22.055204835966499
30
0
10
12.189267091453075
20
-22.038732282285068
30
0
0
SPLINE
5
388
100
AcDbEntity
8
0
100
AcDbSpline
70
0
71
3
72
9
73
5
74
0
42
0.000000001
43
0.0000000001
44
0.0000000001
40
0
40
0
40
0
40
0
40
0.022388838241747751
40
0.043499370076452631
40
0.043499370076452631
40
0.043499370076452631
40
0.043499370076452631
10
12.189267091453075
20
-22.038732282285068
30
0
10
12.117176525042286
20
-22.01787056992864
30
0
10
11.977111453623062
20
-21.977338259300367
30
0
10
11.853686725563621
20
-21.899805645881713
30
0
10
11.793787889182568
20
-21.862178556088779
30
0
0
SPLINE
5
389
100
AcDbEntity
8
0
100
AcDbSpline
70
0
71
3
72
9
73
5
74
0
42
0.000000001
43
0.0000000001
44
0.0000000001
40
0
40
0
40
0
40
0
40
0.020979309381823776
40
0.042429161887218757
40
0.042429161887218757
40
0.042429161887218757
40
0.042429161887218757
10
11.793787889182568
20
-21.862178556088779
30
0
10
11.740056273853776
20
-21.816505040039289
30
0
10
11.631387901422867
20
-21.724133600581823
30
0
10
11.561005440723884
20
-21.60004998560931
30
0
10
11.525423936545849
20
-21.537320129041049
30
0
0
SPLINE
5
390
100
AcDbEntity
8
0
100
AcDbSpline
70
0
71
3
72
9
73
5
74
0
42
0.000000001
43
0.0000000001
44
0.0000000001
40
0
40
0
40
0
40
0
40
0.022949931676574498
40
0.049180485744787582
40
0.049180485744787582
40
0.049180485744787582
40
0.049180485744787582
10
11.525423936545849
20
-21.537320129041049
30
0
10
11.498678686546748
20
-21.465098404727012
30
0
10
11.441365035035354
20
-21.310331081967785
30
0
10
11.43631299735846
20
-21.145178472064412
30
0
10
11.433618478477001
20
-21.057093850735995
30
0
0
LINE
5
391
100
AcDbEntity
8
0
100
AcDbLine
10
11.433618478477001
20
-21.057093850735995
30
0
11
11.433618478477001
21
-19.425737969045016
31
0
0
LINE
5
392
100
AcDbEntity
8
0
100
AcDbLine
10
11.433618478477001
20
-19.425737969045016
30
0
11
10.75565617531538
21
-19.425737969045016
31
0
0
LINE
5
393
100
AcDbEntity
8
0
100
AcDbLine
10
10.75565617531538
20
-19.425737969045016
30
0
11
10.75565617531538
21
-18.578280321721408
31
0
0
LINE
5
394
100
AcDbEntity
8
0
100
AcDbLine
10
10.75565617531538
20
-18.578280321721408
30
0
11
11.433618478477001
21
-18.578280321721408
31
0
0
LINE
5
395
100
AcDbEntity
8
0
100
AcDbLine
10
11.433618478477001
20
-18.578280321721408
30
0
11
11.433618478477001
21
-17.561331204537723
31
0
0
LINE
5
396
100
AcDbEntity
8
0
100
AcDbLine
10
11.433618478477001
20
-17.561331204537723
30
0
11
12.492945604026318
21
-17.561331204537723
31
0
0
LINE
5
397
100
AcDbEntity
8
0
100
AcDbLine
10
12.492945604026318
20
-17.561331204537723
30
0
11
12.492945604026318
21
-18.578280321721408
31
0
0
SPLINE
5
398
100
AcDbEntity
8
0
100
AcDbSpline
70
0
71
3
72
9
73
5
74
0
42
0.000000001
43
0.0000000001
44
0.0000000001
40
0
40
0
40
0
40
0
40
0.021865168223737675
40
0.044137649829696965
40
0.044137649829696965
40
0.044137649829696965
40
0.044137649829696965
10
19.025423936545849
20
-21.177150718335483
30
0
10
19.084769107047421
20
-21.13420563935621
30
0
10
19.204564954391419
20
-21.047515482733576
30
0
10
19.296716072865223
20
-20.93184641286097
30
0
10
19.343216829001904
20
-20.873478166226718
30
0
0
LINE
5
399
100
AcDbEntity
8
0
100
AcDbLine
10
19.343216829001904
20
-20.873478166226718
30
0
11
20.084746293723583
21
-21.417263261441562
31
0
0
SPLINE
5
400
100
AcDbEntity
8
0
100
AcDbSpline
70
0
71
3
72
9
73
5
74
0
42
0.000000001
43
0.0000000001
44
0.0000000001
40
0
40
0
40
0
40
0
40
0.040698809237150822
40
0.082120446736700686
40
0.082120446736700686
40
0.082120446736700686
40
0.082120446736700686
10
20.084746293723583
20
-21.417263261441562
30
0
10
19.993847965905562
20
-21.519623677876567
30
0
10
19.81043691708253
20
-21.726162475530725
30
0
10
19.565586863405954
20
-21.854129375323026
30
0
10
19.442084245383739
20
-21.918676010732028
30
0
0
SPLINE
5
401
100
AcDbEntity
8
0
100
AcDbSpline
70
0
71
3
72
9
73
5
74
0
42
0.000000001
43
0.0000000001
44
0.0000000001
40
0
40
0
40
0
40
0
40
0.041705828092129582
40
0.082903269292929863
40
0.082903269292929863
40
0.082903269292929863
40
0.082903269292929863
10
19.442084245383739
20
-21.918676010732028
30
0
10
19.311865855580752
20
-21.970170290850547
30
0
10
19.053016415812269
20
-22.072531144644895
30
0
10
18.775105344318064
20
-22.08769453493619
30
0
10
18.637001924216747
20
-22.095229736928317
30
0
0
SPLINE
5
402
100
AcDbEntity
8
0
100
AcDbSpline
70
0
71
3
72
9
73
5
74
0
42
0.000000001
43
0.0000000001
44
0.0000000001
40
0
40
0
40
0
40
0
40
0.03861936952405455
40
0.076218465087401072
40
0.076218465087401072
40
0.076218465087401072
40
0.076218465087401072
10
18.637001924216747
20
-22.095229736928317
30
0
10
18.507752027671476
20
-22.090222346561337
30
0
10
18.252666850238679
20
-22.080339854626104
30
0
10
18.00874406515404
20
-22.005185214415512
30
0
10
17.888415269553661
20
-21.968110911015842
30
0
0
SPLINE
5
403
100
AcDbEntity
8
0
100
AcDbSpline
70
0
71
3
72
9
73
5
74
0
42
0.000000001
43
0.0000000001
44
0.0000000001
40
0
40
0
40
0
40
0
40
0.035934309185175935
40
0.070929929200270636
40
0.070929929200270636
40
0.070929929200270636
40
0.070929929200270636
10
17.888415269553661
20
-21.968110911015842
30
0
10
17.777190810099164
20
-21.921850099471179
30
0
10
17.557647337208351
20
-21.830536918224222
30
0
10
17.372443970553626
20
-21.681482442227697
30
0
10
17.281067781150341
20
-21.607941500310275
30
0
0
SPLINE
5
404
100
AcDbEntity
8
0
100
AcDbSpline
70
0
71
3
72
9
73
5
74
0
42
0.000000001
43
0.0000000001
44
0.0000000001
40
0
40
0
40
0
40
0
40
0.034795391371933486
40
0.070293729393605814
40
0.070293729393605814
40
0.070293729393605814
40
0.070293729393605814
10
17.281067781150341
20
-21.607941500310275
30
0
10
17.2004975798062
20
-21.523535448767745
30
0
10
17.037729474400116
20
-21.353018149999858
30
0
10
16.931950020298927
20
-21.142313328586368
30
0
10
16.878531388938427
20
-21.035907379750583
30
0
0
SPLINE
5
405
100
AcDbEntity
8
0
100
AcDbSpline
70
0
71
3
72
9
73
5
74
0
42
0.000000001
43
0.0000000001
44
0.0000000001
40
0
40
0
40
0
40
0
40
0.036852708100414966
40
0.0760468833675009
40
0.0760468833675009
40
0.0760468833675009
40
0.0760468833675009
10
16.878531388938427
20
-21.035907379750583
30
0
10
16.835288038183222
20
-20.920048144615588
30
0
10
16.746053834760744
20
-20.680968462401957
30
0
10
16.735608808948328
20
-20.425862432285097
30
0
10
16.730225495994091
20
-20.294382087354037
30
0
0
SPLINE
5
406
100
AcDbEntity
8
0
100
AcDbSpline
70
0
71
3
72
9
73
5
74
0
42
0.000000001
43
0.0000000001
44
0.0000000001
40
0
40
0
40
0
40
0
40
0.03919414559842465
40
0.076046882111375974
40
0.076046882111375974
40
0.076046882111375974
40
0.076046882111375974
10
16.730225495994091
20
-20.294382087354037
30
0
10
16.735608829639837
20
-20.162901846598167
30
0
10
16.746053903333227
20
-19.907795829715411
30
0
10
16.835288037628693
20
-19.668716129873584
30
0
10
16.878531388938427
20
-19.552856794957492
30
0
0
SPLINE
5
407
100
AcDbEntity
8
0
100
AcDbSpline
70
0
71
3
72
9
73
5
74
0
42
0.000000001
43
0.0000000001
44
0.0000000001
40
0
40
0
40
0
40
0
40
0.035344780945839899
40
0.069741465794815632
40
0.069741465794815632
40
0.069741465794815632
40
0.069741465794815632
10
16.878531388938427
20
-19.552856794957492
30
0
10
16.931791171345587
20
-19.446880148465603
30
0
10
17.036882084164652
20
-19.237769596113079
30
0
10
17.200413588504126
20
-19.070421484633798
30
0
10
17.281067781150341
20
-18.987884930734012
30
0
0
SPLINE
5
408
100
AcDbEntity
8
0
100
AcDbSpline
70
0
71
3
72
9
73
5
74
0
42
0.000000001
43
0.0000000001
44
0.0000000001
40
0
40
0
40
0
40
0
40
0.035310894251070979
40
0.071320997852692775
40
0.071320997852692775
40
0.071320997852692775
40
0.071320997852692775
10
17.281067781150341
20
-18.987884930734012
30
0
10
17.372254539219732
20
-18.912352587521294
30
0
10
17.556433691699382
20
-18.759792245951367
30
0
10
17.777033844688177
20
-18.667335065129894
30
0
10
17.888415269553661
20
-18.620653263692233
30
0
0
SPLINE
5
409
100
AcDbEntity
8
0
100
AcDbSpline
70
0
71
3
72
9
73
5
74
0
42
0.000000001
43
0.0000000001
44
0.0000000001
40
0
40
0
40
0
40
0
40
0.03759910312023694
40
0.076218467739451623
40
0.076218467739451623
40
0.076218467739451623
40
0.076218467739451623
10
17.888415269553661
20
-18.620653263692233
30
0
10
18.008744054898713
20
-18.583578788692105
30
0
10
18.25266677865681
20
-18.508423813114149
30
0
10
18.507752017478687
20
-18.498541854917946
30
0
10
18.637001924216747
20
-18.493534735802982
30
0
0
SPLINE
5
410
100
AcDbEntity
8
0
100
AcDbSpline
70
0
71
3
72
9
73
5
74
0
42
0.000000001
43
0.0000000001
44
0.0000000001
40
0
40
0
40
0
40
0
40
0.03510204086662469
40
0.067942799009826166
40
0.067942799009826166
40
0.067942799009826166
40
0.067942799009826166
10
18.637001924216747
20
-18.493534735802982
30
0
10
18.754705771297672
20
-18.498089835193475
30
0
10
18.982530952610883
20
-18.506906593271278
30
0
10
19.197121043798376
20
-18.583588419005149
30
0
10
19.300845079123974
20
-18.620653263692233
30
0
0
SPLINE
5
411
100
AcDbEntity
8
0
100
AcDbSpline
70
0
71
3
72
9
73
5
74
0
42
0.000000001
43
0.0000000001
44
0.0000000001
40
0
40
0
40
0
40
0
40
0.031929913884995324
40
0.063165522665814142
40
0.063165522665814142
40
0.063165522665814142
40
0.063165522665814142
10
19.300845079123974
20
-18.620653263692233
30
0
10
19.397562857339594
20
-18.667285744568659
30
0
10
19.588895318619297
20
-18.759536698904839
30
0
10
19.73638256772243
20
-18.912328674935956
30
0
10
19.809315614402294
20
-18.987884930734012
30
0
0
SPLINE
5
412
100
AcDbEntity
8
0
100
AcDbSpline
70
0
71
3
72
9
73
5
74
0
42
0.000000001
43
0.0000000001
44
0.0000000001
40
0
40
0
40
0
40
0
40
0.031854242980772114
40
0.065519983885526434
40
0.065519983885526434
40
0.065519983885526434
40
0.065519983885526434
10
19.809315614402294
20
-18.987884930734012
30
0
10
19.87630502266013
20
-19.071141431459019
30
0
10
20.014093415628817
20
-19.24238909190916
30
0
10
20.093416914966163
20
-19.447477464693794
30
0
10
20.134175233542919
20
-19.552856794957492
30
0
0
SPLINE
5
413
100
AcDbEntity
8
0
100
AcDbSpline
70
0
71
3
72
9
73
5
74
0
42
0.000000001
43
0.0000000001
44
0.0000000001
40
0
40
0
40
0
40
0
40
0.036141865445052428
40
0.075262351150416712
40
0.075262351150416712
40
0.075262351150416712
40
0.075262351150416712
10
20.134175233542919
20
-19.552856794957492
30
0
10
20.16711847079355
20
-19.669239824810603
30
0
10
20.23571995163735
20
-19.911597554631474
30
0
10
20.243257943634294
20
-20.163464571647651
30
0
10
20.247176103293896
20
-20.294382087354037
30
0
0
LINE
5
414
100
AcDbEntity
8
0
100
AcDbLine
10
20.247176103293896
20
-20.294382087354037
30
0
11
20.247176103293896
21
-20.626303068761203
31
0
0
LINE
5
415
100
AcDbEntity
8
0
100
AcDbLine
10
20.247176103293896
20
-20.626303068761203
30
0
11
17.789547853171825
21
-20.626303068761203
31
0
0
SPLINE
5
416
100
AcDbEntity
8
0
100
AcDbSpline
70
0
71
3
72
9
73
5
74
0
42
0.000000001
43
0.0000000001
44
0.0000000001
40
0
40
0
40
0
40
0
40
0.029157411262346399
40
0.056759803640292802
40
0.056759803640292802
40
0.056759803640292802
40
0.056759803640292802
10
17.789547853171825
20
-20.626303068761203
30
0
10
17.815899578434369
20
-20.721631374174297
30
0
10
17.86719764251923
20
-20.907203949459685
30
0
10
18.000260361425021
20
-21.046063608747133
30
0
10
18.06496899574995
20
-21.113591305379245
30
0
0
SPLINE
5
417
100
AcDbEntity
8
0
100
AcDbSpline
70
0
71
3
72
9
73
5
74
0
42
0.000000001
43
0.0000000001
44
0.0000000001
40
0
40
0
40
0
40
0
40
0.027112260504222784
40
0.056052478014149525
40
0.056052478014149525
40
0.056052478014149525
40
0.056052478014149525
10
18.06496899574995
20
-21.113591305379245
30
0
10
18.141303135596225
20
-21.16507098910386
30
0
10
18.299117999273697
20
-21.271501208734556
30
0
10
18.489353367289993
20
-21.283796764999128
30
0
10
18.587572984397411
20
-21.290145031575534
30
0
0
SPLINE
5
418
100
AcDbEntity
8
0
100
AcDbSpline
70
0
71
3
72
9
73
5
74
0
42
0.000000001
43
0.0000000001
44
0.0000000001
40
0
40
0
40
0
40
0
40
0.024176731508457262
40
0.045690172586578863
40
0.045690172586578863
40
0.045690172586578863
40
0.045690172586578863
10
18.587572984397411
20
-21.290145031575534
30
0
10
18.669188035366943
20
-21.28663667947059
30
0
10
18.823427485110411
20
-21.280006452671174
30
0
10
18.960760170433097
20
-21.210077233138961
30
0
10
19.025423936545849
20
-21.177150718335483
30
0
0
LINE
5
419
100
AcDbEntity
8
0
100
AcDbLine
10
26.20762150734663
20
-18.578280321721408
30
0
11
27.295191697776318
21
-18.578280321721408
31
0
0
LINE
5
420
100
AcDbEntity
8
0
100
AcDbLine
10
27.295191697776318
20
-18.578280321721408
30
0
11
25.741522721946239
21
-22.568393460873935
31
0
0
SPLINE
5
421
100
AcDbEntity
8
0
100
AcDbSpline
70
0
71
3
72
9
73
5
74
0
42
0.000000001
43
0.0000000001
44
0.0000000001
40
0
40
0
40
0
40
0
40
0.027965928638805062
40
0.052865462613835137
40
0.052865462613835137
40
0.052865462613835137
40
0.052865462613835137
10
25.741522721946239
20
-22.568393460873935
30
0
10
25.707580135120295
20
-22.655233867307523
30
0
10
25.643416681868327
20
-22.819392845147242
30
0
10
25.570883945576234
20
-22.980024492258835
30
0
10
25.536721162497997
20
-23.055681697491977
30
0
0
SPLINE
5
422
100
AcDbEntity
8
0
100
AcDbSpline
70
0
71
3
72
9
73
5
74
0
42
0.000000001
43
0.0000000001
44
0.0000000001
40
0
40
0
40
0
40
0
40
0.022468703055771814
40
0.043728958224766773
40
0.043728958224766773
40
0.043728958224766773
40
0.043728958224766773
10
25.536721162497997
20
-23.055681697491977
30
0
10
25.502164785590296
20
-23.122668546644309
30
0
10
25.434910598357263
20
-23.253039450604369
30
0
10
25.332346162514028
20
-23.357837950812055
30
0
10
25.282481126487255
20
-23.408789149884555
30
0
0
SPLINE
5
423
100
AcDbEntity
8
0
100
AcDbSpline
70
0
71
3
72
9
73
5
74
0
42
0.000000001
43
0.0000000001
44
0.0000000001
40
0
40
0
40
0
40
0
40
0.021292832718545759
40
0.044313209655873029
40
0.044313209655873029
40
0.044313209655873029
40
0.044313209655873029
10
25.282481126487255
20
-23.408789149884555
30
0
10
25.228103920858658
20
-23.455402128472194
30
0
10
25.114937742108658
20
-23.552409920725211
30
0
10
24.974225029670514
20
-23.601969431404193
30
0
10
24.901125840842724
20
-23.627715222005222
30
0
0
SPLINE
5
424
100
AcDbEntity
8
0
100
AcDbSpline
70
0
71
3
72
9
73
5
74
0
42
0.000000001
43
0.0000000001
44
0.0000000001
40
0
40
0
40
0
40
0
40
0.027634008428631739
40
0.06211638560140903
40
0.06211638560140903
40
0.06211638560140903
40
0.06211638560140903
10
24.901125840842724
20
-23.627715222005222
30
0
10
24.811511148924001
20
-23.650302159014434
30
0
10
24.610073099386209
20
-23.701073616671128
30
0
10
24.40214648604373
20
-23.703855084481866
30
0
10
24.286721162497997
20
-23.705399147633884
30
0
0
SPLINE
5
425
100
AcDbEntity
8
0
100
AcDbSpline
70
0
71
3
72
9
73
5
74
0
42
0.000000001
43
0.0000000001
44
0.0000000001
40
0
40
0
40
0
40
0
40
0.040379845666422769
40
0.080374063005790766
40
0.080374063005790766
40
0.080374063005790766
40
0.080374063005790766
10
24.286721162497997
20
-23.705399147633884
30
0
10
24.151669337592175
20
-23.700204766487509
30
0
10
23.882855435387125
20
-23.689865610637742
30
0
10
23.624380269374665
20
-23.615356254716374
30
0
10
23.495762757956982
20
-23.578280321721408
30
0
0
LINE
5
426
100
AcDbEntity
8
0
100
AcDbLine
10
23.495762757956982
20
-23.578280321721405
30
0
11
23.637001924216747
21
-22.709636203412387
31
0
0
SPLINE
5
427
100
AcDbEntity
8
0
100
AcDbSpline
70
0
71
3
72
9
73
5
74
0
42
0.000000001
43
0.0000000001
44
0.0000000001
40
0
40
0
40
0
40
0
40
0.025627125552835184
40
0.050837752828766715
40
0.050837752828766715
40
0.050837752828766715
40
0.050837752828766715
10
23.637001924216747
20
-22.709636203412387
30
0
10
23.717275121085688
20
-22.740532617770405
30
0
10
23.876516895305919
20
-22.801823310446402
30
0
10
24.046876252343097
20
-22.811011902155979
30
0
10
24.131358079612255
20
-22.81556855833945
30
0
0
SPLINE
5
428
100
AcDbEntity
8
0
100
AcDbSpline
70
0
71
3
72
9
73
5
74
0
42
0.000000001
43
0.0000000001
44
0.0000000001
40
0
40
0
40
0
40
0
40
0.016101433817444673
40
0.029375433347254877
40
0.029375433347254877
40
0.029375433347254877
40
0.029375433347254877
10
24.131358079612255
20
-22.81556855833945
30
0
10
24.185309172430038
20
-22.814591514971902
30
0
10
24.283737470744882
20
-22.812808998418021
30
0
10
24.37821237153851
20
-22.785524690385003
30
0
10
24.420903138816357
20
-22.773195616368625
30
0
0
SPLINE
5
429
100
AcDbEntity
8
0
100
AcDbSpline
70
0
71
3
72
9
73
5
74
0
42
0.000000001
43
0.0000000001
44
0.0000000001
40
0
40
0
40
0
40
0
40
0.011221893629406369
40
0.021755747136149028
40
0.021755747136149028
40
0.021755747136149028
40
0.021755747136149028
10
24.420903138816357
20
-22.773195616368625
30
0
10
24.456402452939898
20
-22.760092412779951
30
0
10
24.525224536545707
20
-22.734689393168203
30
0
10
24.578647393400352
20
-22.684501592164427
30
0
10
24.604514054954052
20
-22.660201303128574
30
0
0
SPLINE
5
430
100
AcDbEntity
8
0
100
AcDbSpline
70
0
71
3
72
9
73
5
74
0
42
0.000000001
43
0.0000000001
44
0.0000000001
40
0
40
0
40
0
40
0
40
0.010630149858643721
40
0.021864715428278132
40
0.021864715428278132
40
0.021864715428278132
40
0.021864715428278132
10
24.604514054954052
20
-22.660201303128574
30
0
10
24.629446268704793
20
-22.634725422229657
30
0
10
24.68072830761356
20
-22.582325136857705
30
0
10
24.714358776266458
20
-22.517140737019467
30
0
10
24.731638841331005
20
-22.483647576932285
30
0
0
SPLINE
5
431
100
AcDbEntity
8
0
100
AcDbSpline
70
0
71
3
72
9
73
5
74
0
42
0.000000001
43
0.0000000001
44
0.0000000001
40
0
40
0
40
0
40
0
40
0.012566243722020531
40
0.026894486807933458
40
0.026894486807933458
40
0.026894486807933458
40
0.026894486807933458
10
24.731638841331005
20
-22.483647576932285
30
0
10
24.748953492666423
20
-22.445501142104035
30
0
10
24.786010601554747
20
-22.363859498749605
30
0
10
24.81965087304377
20
-22.280749803723911
30
0
10
24.837572984397411
20
-22.236472479466769
30
0
0
LINE
5
432
100
AcDbEntity
8
0
100
AcDbLine
10
24.837572984397411
20
-22.236472479466766
30
0
11
24.9152497574687
21
-22.038732282285068
31
0
0
LINE
5
433
100
AcDbEntity
8
0
100
AcDbLine
10
24.9152497574687
20
-22.038732282285068
30
0
11
23.411019258201122
21
-18.578280321721408
31
0
0
LINE
5
434
100
AcDbEntity
8
0
100
AcDbLine
10
23.411019258201122
20
-18.578280321721408
30
0
11
24.555085115134716
21
-18.578280321721408
31
0
0
LINE
5
435
100
AcDbEntity
8
0
100
AcDbLine
10
24.555085115134716
20
-18.578280321721408
30
0
11
25.437853746116161
21
-20.845229736928317
31
0
0
LINE
5
436
100
AcDbEntity
8
0
100
AcDbLine
10
25.437853746116161
20
-20.845229736928317
30
0
11
25.451977662742138
21
-20.845229736928317
31
0
0
LINE
5
437
100
AcDbEntity
8
0
100
AcDbLine
10
25.451977662742138
20
-20.845229736928317
30
0
11
26.20762150734663
21
-18.578280321721408
31
0
0
LWPOLYLINE
5
438
100
AcDbEntity
8
0
100
AcDbPolyline
90
4
70
1
43
0.0
10
33.871130993141286
20
0.24364411830902211
10
30.3400576613084
20
0.24364411830902152
10
30.3400576613084
20
1.0911017656326294
10
33.871130993141286
20
1.0911017656326298
0
LINE
5
439
100
AcDbEntity
8
0
100
AcDbLine
10
8.5946301743388176
20
41.510484107370999
30
0
11
7.5353078171610832
21
41.510484107370999
31
0
0
LINE
5
440
100
AcDbEntity
8
0
100
AcDbLine
10
7.5353078171610832
20
41.510484107370999
30
0
11
7.5353078171610832
21
44.942687638636258
31
0
0
LINE
5
441
100
AcDbEntity
8
0
100
AcDbLine
10
7.5353078171610832
20
44.942687638636258
30
0
11
8.5522584244608879
21
44.942687638636258
31
0
0
LINE
5
442
100
AcDbEntity
8
0
100
AcDbLine
10
8.5522584244608879
20
44.942687638636258
30
0
11
8.5522584244608879
21
44.476585276957181
31
0
0
LINE
5
443
100
AcDbEntity
8
0
100
AcDbLine
10
8.5522584244608879
20
44.476585276957181
30
0
11
8.5663823410868645
21
44.476585276957181
31
0
0
SPLINE
5
444
100
AcDbEntity
8
0
100
AcDbSpline
70
0
71
3
72
9
73
5
74
0
42
0.000000001
43
0.0000000001
44
0.0000000001
40
0
40
0
40
0
40
0
40
0.011566744405385651
40
0.024361703656412721
40
0.024361703656412721
40
0.024361703656412721
40
0.024361703656412721
10
8.5663823410868645
20
44.476585276957181
30
0
10
8.5853324489672111
20
44.510293388538066
30
0
10
8.6252448820821925
20
44.581288907793123
30
0
10
8.6792581045172223
20
44.642288567124169
30
0
10
8.7076262757182121
20
44.67432607018533
30
0
0
SPLINE
5
445
100
AcDbEntity
8
0
100
AcDbSpline
70
0
71
3
72
9
73
5
74
0
42
0.000000001
43
0.0000000001
44
0.0000000001
40
0
40
0
40
0
40
0
40
0.013741786633368138
40
0.028191409474743478
40
0.028191409474743478
40
0.028191409474743478
40
0.028191409474743478
10
8.7076262757182121
20
44.67432607018533
30
0
10
8.7402080499104162
20
44.706707999335407
30
0
10
8.8070498778453477
20
44.773139843214828
30
0
10
8.8860597072411451
20
44.824536320580215
30
0
10
8.9265565201640129
20
44.850879796381619
30
0
0
SPLINE
5
446
100
AcDbEntity
8
0
100
AcDbSpline
70
0
71
3
72
9
73
5
74
0
42
0.000000001
43
0.0000000001
44
0.0000000001
40
0
40
0
40
0
40
0
40
0.015319491915262634
40
0.031685498333509837
40
0.031685498333509837
40
0.031685498333509837
40
0.031685498333509837
10
8.9265565201640129
20
44.850879796381619
30
0
10
8.9712409369102275
20
44.875849195507641
30
0
10
9.0636622796138866
20
44.927493718627133
30
0
10
9.1641818201210423
20
44.960797005365826
30
0
10
9.2161015793681145
20
44.977998622294095
30
0
0
SPLINE
5
447
100
AcDbEntity
8
0
100
AcDbSpline
70
0
71
3
72
9
73
5
74
0
42
0.000000001
43
0.0000000001
44
0.0000000001
40
0
40
0
40
0
40
0
40
0.017349963760144506
40
0.035753074996265566
40
0.035753074996265566
40
0.035753074996265566
40
0.035753074996265566
10
9.2161015793681145
20
44.977998622294095
30
0
10
9.2723063606914202
20
44.992413808914613
30
0
10
9.3881275687112975
20
45.022119187868334
30
0
10
9.5076747447450316
20
45.02562762929756
30
0
10
9.5692090317606926
20
45.027433522577908
30
0
0
SPLINE
5
448
100
AcDbEntity
8
0
100
AcDbSpline
70
0
71
3
72
9
73
5
74
0
42
0.000000001
43
0.0000000001
44
0.0000000001
40
0
40
0
40
0
40
0
40
0.034100513542827018
40
0.065778624305074335
40
0.065778624305074335
40
0.065778624305074335
40
0.065778624305074335
10
9.5692090317606926
20
45.027433522577908
30
0
10
9.6839048081492063
20
45.022216471945541
30
0
10
9.9051487015868567
20
45.012152975010373
30
0
10
10.107401901726831
20
44.922368048434301
30
0
10
10.204804353415966
20
44.879128821726468
30
0
0
SPLINE
5
449
100
AcDbEntity
8
0
100
AcDbSpline
70
0
71
3
72
9
73
5
74
0
42
0.000000001
43
0.0000000001
44
0.0000000001
40
0
40
0
40
0
40
0
40
0.031217473140511345
40
0.063932811642331527
40
0.063932811642331527
40
0.063932811642331527
40
0.063932811642331527
10
10.204804353415966
20
44.879128821726468
30
0
10
10.293600385454491
20
44.821439581715609
30
0
10
10.475453028214954
20
44.70329307771118
30
0
10
10.576714459375856
20
44.511281528959579
30
0
10
10.628531388938427
20
44.413026460047391
30
0
0
SPLINE
5
450
100
AcDbEntity
8
0
100
AcDbSpline
70
0
71
3
72
9
73
5
74
0
42
0.000000001
43
0.0000000001
44
0.0000000001
40
0
40
0
40
0
40
0
40
0.034931754370170272
40
0.06562285863698443
40
0.06562285863698443
40
0.06562285863698443
40
0.06562285863698443
10
10.628531388938427
20
44.413026460047391
30
0
10
10.689799303460665
20
44.513919216639543
30
0
10
10.804897321472309
20
44.703456536557162
30
0
10
10.98787321357328
20
44.827961261174842
30
0
10
11.073449067771435
20
44.886190780039456
30
0
0
SPLINE
5
451
100
AcDbEntity
8
0
100
AcDbSpline
70
0
71
3
72
9
73
5
74
0
42
0.000000001
43
0.0000000001
44
0.0000000001
40
0
40
0
40
0
40
0
40
0.030997206137709222
40
0.066308518498912603
40
0.066308518498912603
40
0.066308518498912603
40
0.066308518498912603
10
11.073449067771435
20
44.886190780039456
30
0
10
11.16921919917214
20
44.927339657739253
30
0
10
11.374088486469001
20
45.015364401196592
30
0
10
11.597257343427527
20
45.023239690415295
30
0
10
11.716101579368114
20
45.027433522577908
30
0
0
SPLINE
5
452
100
AcDbEntity
8
0
100
AcDbSpline
70
0
71
3
72
9
73
5
74
0
42
0.000000001
43
0.0000000001
44
0.0000000001
40
0
40
0
40
0
40
0
40
0.031921188000070794
40
0.059559269972787092
40
0.059559269972787092
40
0.059559269972787092
40
0.059559269972787092
10
11.716101579368114
20
45.027433522577908
30
0
10
11.823463474883855
20
45.024037191415324
30
0
10
12.023781712406789
20
45.017700240402441
30
0
10
12.209172073842289
20
44.942344830381025
30
0
10
12.295201234519482
20
44.907376654978421
30
0
0
SPLINE
5
453
100
AcDbEntity
8
0
100
AcDbSpline
70
0
71
3
72
9
73
5
74
0
42
0.000000001
43
0.0000000001
44
0.0000000001
40
0
40
0
40
0
40
0
40
0.025321176022703208
40
0.049586975034888334
40
0.049586975034888334
40
0.049586975034888334
40
0.049586975034888334
10
12.295201234519482
20
44.907376654978421
30
0
10
12.370321267077253
20
44.866641091850887
30
0
10
12.517430357734129
20
44.786867808413113
30
0
10
12.619527638999637
20
44.654402961676645
30
0
10
12.669489793479443
20
44.58958018624368
30
0
0
SPLINE
5
454
100
AcDbEntity
8
0
100
AcDbSpline
70
0
71
3
72
9
73
5
74
0
42
0.000000001
43
0.0000000001
44
0.0000000001
40
0
40
0
40
0
40
0
40
0.024813994627472431
40
0.051566968440352003
40
0.051566968440352003
40
0.051566968440352003
40
0.051566968440352003
10
12.669489793479443
20
44.58958018624368
30
0
10
12.713358920962232
20
44.518819607442538
30
0
10
12.804525133672957
20
44.371769179301516
30
0
10
12.845813654099461
20
44.203640911374443
30
0
10
12.867234162986279
20
44.116415866251614
30
0
0
SPLINE
5
455
100
AcDbEntity
8
0
100
AcDbSpline
70
0
71
3
72
9
73
5
74
0
42
0.000000001
43
0.0000000001
44
0.0000000001
40
0
40
0
40
0
40
0
40
0.028299821393485174
40
0.058356001982826616
40
0.058356001982826616
40
0.058356001982826616
40
0.058356001982826616
10
12.867234162986279
20
44.116415866251614
30
0
10
12.885767730377156
20
44.023725883926311
30
0
10
12.923985105687512
20
43.832593342234418
30
0
10
12.928477820870894
20
43.637699565705852
30
0
10
12.930791787803173
20
43.537319787378934
30
0
0
LINE
5
456
100
AcDbEntity
8
0
100
AcDbLine
10
12.930791787803171
20
43.537319787378934
30
0
11
12.930791787803173
21
41.510484107370999
31
0
0
LINE
5
457
100
AcDbEntity
8
0
100
AcDbLine
10
12.930791787803173
20
41.510484107370999
30
0
11
11.871469430625439
21
41.510484107370999
31
0
0
LINE
5
458
100
AcDbEntity
8
0
100
AcDbLine
10
11.871469430625439
20
41.510484107370999
30
0
11
11.871469430625439
21
43.509071954126981
31
0
0
SPLINE
5
459
100
AcDbEntity
8
0
100
AcDbSpline
70
0
71
3
72
9
73
5
74
0
42
0.000000001
43
0.0000000001
44
0.0000000001
40
0
40
0
40
0
40
0
40
0.022402853059254706
40
0.042733990519868779
40
0.042733990519868779
40
0.042733990519868779
40
0.042733990519868779
10
11.871469430625439
20
43.509071954126981
30
0
10
11.867976399176881
20
43.584643531773054
30
0
10
11.861313356196881
20
43.728798165745673
30
0
10
11.796415758480086
20
43.857462756753058
30
0
10
11.765540055930614
20
43.91867626511636
30
0
0
SPLINE
5
460
100
AcDbEntity
8
0
100
AcDbSpline
70
0
71
3
72
9
73
5
74
0
42
0.000000001
43
0.0000000001
44
0.0000000001
40
0
40
0
40
0
40
0
40
0.019232709023718271
40
0.041738747611925336
40
0.041738747611925336
40
0.041738747611925336
40
0.041738747611925336
10
11.765540055930614
20
43.91867626511636
30
0
10
11.722816629649273
20
43.970087193291867
30
0
10
11.63009842211677
20
44.081658982422887
30
0
10
11.484093500289951
20
44.09047583665172
30
0
10
11.405365876853466
20
44.09522999131265
30
0
0
SPLINE
5
461
100
AcDbEntity
8
0
100
AcDbSpline
70
0
71
3
72
9
73
5
74
0
42
0.000000001
43
0.0000000001
44
0.0000000001
40
0
40
0
40
0
40
0
40
0.01702302972967085
40
0.031930601234455194
40
0.031930601234455194
40
0.031930601234455194
40
0.031930601234455194
10
11.405365876853466
20
44.09522999131265
30
0
10
11.348142102034968
20
44.093357867002602
30
0
10
11.240805772140936
20
44.089846267965598
30
0
10
11.141154687338535
20
44.050186228516289
30
0
10
11.094630174338818
20
44.031669982309964
30
0
0
SPLINE
5
462
100
AcDbEntity
8
0
100
AcDbSpline
70
0
71
3
72
9
73
5
74
0
42
0.000000001
43
0.0000000001
44
0.0000000001
40
0
40
0
40
0
40
0
40
0.012931798552317006
40
0.025795674771296483
40
0.025795674771296483
40
0.025795674771296483
40
0.025795674771296483
10
11.094630174338818
20
44.031669982309964
30
0
10
11.056411000913178
20
44.010824762672229
30
0
10
10.980173394541017
20
43.969243809788082
30
0
10
10.924605921177584
20
43.902516947206145
30
0
10
10.896895341575146
20
43.869241364832547
30
0
0
SPLINE
5
463
100
AcDbEntity
8
0
100
AcDbSpline
70
0
71
3
72
9
73
5
74
0
42
0.000000001
43
0.0000000001
44
0.0000000001
40
0
40
0
40
0
40
0
40
0.013034168090111549
40
0.026991890301619789
40
0.026991890301619789
40
0.026991890301619789
40
0.026991890301619789
10
10.896895341575146
20
43.869241364832547
30
0
10
10.874639460305042
20
43.831703644679855
30
0
10
10.828550726321016
20
43.753968416966842
30
0
10
10.803773632010945
20
43.667024872877754
30
0
10
10.790961198508739
20
43.622065671320584
30
0
0
SPLINE
5
464
100
AcDbEntity
8
0
100
AcDbSpline
70
0
71
3
72
9
73
5
74
0
42
0.000000001
43
0.0000000001
44
0.0000000001
40
0
40
0
40
0
40
0
40
0.014631565804907969
40
0.02983154770578084
40
0.02983154770578084
40
0.02983154770578084
40
0.02983154770578084
10
10.790961198508739
20
43.622065671320584
30
0
10
10.782723085807158
20
43.573920894563464
30
0
10
10.765926821118903
20
43.475760983056766
30
0
10
10.763798037959882
20
43.37619025409137
30
0
10
10.762713365256786
20
43.325456269617703
30
0
0
LINE
5
465
100
AcDbEntity
8
0
100
AcDbLine
10
10.762713365256788
20
43.325456269617703
30
0
11
10.762713365256786
21
41.510484107370999
31
0
0
LINE
5
466
100
AcDbEntity
8
0
100
AcDbLine
10
10.762713365256786
20
41.510484107370999
30
0
11
9.703391008079052
21
41.510484107370999
31
0
0
LINE
5
467
100
AcDbEntity
8
0
100
AcDbLine
10
9.703391008079052
20
41.510484107370999
30
0
11
9.703391008079052
21
43.325456269617703
31
0
0
SPLINE
5
468
100
AcDbEntity
8
0
100
AcDbSpline
70
0
71
3
72
9
73
5
74
0
42
0.000000001
43
0.0000000001
44
0.0000000001
40
0
40
0
40
0
40
0
40
0.010241716934982083
40
0.022611752087003917
40
0.022611752087003917
40
0.022611752087003917
40
0.022611752087003917
10
9.703391008079052
20
43.325456269617703
30
0
10
9.7030011315354603
20
43.359596219170029
30
0
10
9.7021403586978394
20
43.434970697925962
30
0
10
9.6983809253331632
20
43.510258037466357
30
0
10
9.6963242813944817
20
43.551444896097806
30
0
0
SPLINE
5
469
100
AcDbEntity
8
0
100
AcDbSpline
70
0
71
3
72
9
73
5
74
0
42
0.000000001
43
0.0000000001
44
0.0000000001
40
0
40
0
40
0
40
0
40
0.013161233571442759
40
0.025966951626996176
40
0.025966951626996176
40
0.025966951626996176
40
0.025966951626996176
10
9.6963242813944817
20
43.551444896097806
30
0
10
9.6925980523637723
20
43.59530165066657
30
0
10
9.685246248411179
20
43.681830486905369
30
0
10
9.6595617610953344
20
43.764776271878517
30
0
10
9.6468953415751457
20
43.805681355829861
30
0
0
SPLINE
5
470
100
AcDbEntity
8
0
100
AcDbSpline
70
0
71
3
72
9
73
5
74
0
42
0.000000001
43
0.0000000001
44
0.0000000001
40
0
40
0
40
0
40
0
40
0.012475689539962816
40
0.025100362755895198
40
0.025100362755895198
40
0.025100362755895198
40
0.025100362755895198
10
9.6468953415751457
20
43.805681355829861
30
0
10
9.6303190291340623
20
43.844311911873454
30
0
10
9.5969684512687436
20
43.922034346938055
30
0
10
9.5362074588095069
20
43.98088441865692
30
0
10
9.505646638572216
20
44.010484107370999
30
0
0
SPLINE
5
471
100
AcDbEntity
8
0
100
AcDbSpline
70
0
71
3
72
9
73
5
74
0
42
0.000000001
43
0.0000000001
44
0.0000000001
40
0
40
0
40
0
40
0
40
0.013118204707316117
40
0.029323835849129811
40
0.029323835849129811
40
0.029323835849129811
40
0.029323835849129811
10
9.505646638572216
20
44.010484107370999
30
0
10
9.4685355641937363
20
44.035131106499549
30
0
10
9.3855791629529062
20
44.090225883013929
30
0
10
9.2855216457110146
20
44.09344884300053
30
0
10
9.230225495994091
20
44.09522999131265
30
0
0
SPLINE
5
472
100
AcDbEntity
8
0
100
AcDbSpline
70
0
71
3
72
9
73
5
74
0
42
0.000000001
43
0.0000000001
44
0.0000000001
40
0
40
0
40
0
40
0
40
0.018639456911379054
40
0.034409346072224553
40
0.034409346072224553
40
0.034409346072224553
40
0.034409346072224553
10
9.230225495994091
20
44.09522999131265
30
0
10
9.1673331595534169
20
44.093219943360928
30
0
10
9.0512308406839903
20
44.089509296858665
30
0
10
8.9463644479748439
20
44.040162037689335
30
0
10
8.8983039185404778
20
44.017546065683987
30
0
0
SPLINE
5
473
100
AcDbEntity
8
0
100
AcDbSpline
70
0
71
3
72
9
73
5
74
0
42
0.000000001
43
0.0000000001
44
0.0000000001
40
0
40
0
40
0
40
0
40
0.014124441147172543
40
0.028248548508736808
40
0.028248548508736808
40
0.028248548508736808
40
0.028248548508736808
10
8.8983039185404778
20
44.017546065683987
30
0
10
8.8582843070184492
20
43.991651674150589
30
0
10
8.7782460297088338
20
43.939863503014209
30
0
10
8.7264580175302342
20
43.859825162125496
30
0
10
8.7005643174052238
20
43.819806464548734
30
0
0
SPLINE
5
474
100
AcDbEntity
8
0
100
AcDbSpline
70
0
71
3
72
9
73
5
74
0
42
0.000000001
43
0.0000000001
44
0.0000000001
40
0
40
0
40
0
40
0
40
0.013934373845392404
40
0.02892886677818584
40
0.02892886677818584
40
0.02892886677818584
40
0.02892886677818584
10
8.7005643174052238
20
43.819806464548734
30
0
10
8.681027095256999
20
43.777430624320942
30
0
10
8.6404662704210278
20
43.689455014496986
30
0
10
8.624234246627509
20
43.593907433254195
30
0
10
8.6158208176493645
20
43.544382937784817
30
0
0
SPLINE
5
475
100
AcDbEntity
8
0
100
AcDbSpline
70
0
71
3
72
9
73
5
74
0
42
0.000000001
43
0.0000000001
44
0.0000000001
40
0
40
0
40
0
40
0
40
0.015969165663578512
40
0.032573697757277642
40
0.032573697757277642
40
0.032573697757277642
40
0.032573697757277642
10
8.6158208176493645
20
43.544382937784817
30
0
10
8.6096408723539675
20
43.491474798470328
30
0
10
8.5970350998014311
20
43.383553459607846
30
0
10
8.5954421731063224
20
43.274906437317199
30
0
10
8.5946301743388176
20
43.219523318644192
30
0
0
LINE
5
476
100
AcDbEntity
8
0
100
AcDbLine
10
8.5946301743388158
20
43.219523318644192
30
0
11
8.5946301743388176
21
41.510484107370999
31
0
0
LWPOLYLINE
5
477
100
AcDbEntity
8
0
100
AcDbPolyline
90
6
70
1
43
0.0
10
3.2697729393839836
20
41.510484107370999
10
0.12711804360151291
20
41.510484107370999
10
0.12711804360151291
20
46.510484107370999
10
1.228812150657177
20
46.510484107370999
10
1.228812150657177
20
42.527433522577908
10
3.2697729393839836
20
42.527433522577908
0
LWPOLYLINE
5
478
100
AcDbEntity
8
0
100
AcDbPolyline
90
8
70
1
43
0.0
10
-4.5903940871357918
20
41.510484107370999
10
-5.4731627181172371
20
41.510484107370999
10
-7.471751756966114
20
46.510484107370999
10
-6.2146897986531258
20
46.510484107370999
10
-4.9788137152791023
20
43.233648427363065
10
-4.9646897986531258
20
43.233648427363065
10
-3.7076254561543465
20
46.510484107370999
10
-2.5282498076558113
20
46.510484107370999
0
SPLINE
5
479
100
AcDbEntity
8
0
100
AcDbSpline
70
0
71
3
72
9
73
5
74
0
42
0.000000001
43
0.0000000001
44
0.0000000001
40
0
40
0
40
0
40
0
40
0.012465418322057172
40
0.025178541753981664
40
0.025178541753981664
40
0.025178541753981664
40
0.025178541753981664
10
-13.17796666175127
20
41.651726849909451
30
0
10
-13.204822846025692
20
41.683699600930581
30
0
10
-13.259068884115703
20
41.748280445774817
30
0
10
-13.294338138299748
20
41.824903251450401
30
0
10
-13.312146253883839
20
41.863591559763577
30
0
0
SPLINE
5
480
100
AcDbEntity
8
0
100
AcDbSpline
70
0
71
3
72
9
73
5
74
0
42
0.000000001
43
0.0000000001
44
0.0000000001
40
0
40
0
40
0
40
0
40
0.012902953434545908
40
0.026026265421182929
40
0.026026265421182929
40
0.026026265421182929
40
0.026026265421182929
10
-13.312146253883839
20
41.863591559763577
30
0
10
-13.326564524960505
20
41.904385262867905
30
0
10
-13.355647304485316
20
41.986669349987338
30
0
10
-13.359592863614065
20
42.073863174203595
30
0
10
-13.361582346260548
20
42.117829211588528
30
0
0
SPLINE
5
481
100
AcDbEntity
8
0
100
AcDbSpline
70
0
71
3
72
9
73
5
74
0
42
0.000000001
43
0.0000000001
44
0.0000000001
40
0
40
0
40
0
40
0
40
0.013123311986637021
40
0.026026151239467738
40
0.026026151239467738
40
0.026026151239467738
40
0.026026151239467738
10
-13.361582346260548
20
42.117829211588528
30
0
10
-13.359592901004902
20
42.161795259212376
30
0
10
-13.355647433339515
20
42.248988721200092
30
0
10
-13.326564524656522
20
42.331272368359194
30
0
10
-13.312146253883839
20
42.372065671320584
30
0
0
SPLINE
5
482
100
AcDbEntity
8
0
100
AcDbSpline
70
0
71
3
72
9
73
5
74
0
42
0.000000001
43
0.0000000001
44
0.0000000001
40
0
40
0
40
0
40
0
40
0.012556466470908559
40
0.024606112258404922
40
0.024606112258404922
40
0.024606112258404922
40
0.024606112258404922
10
-13.312146253883839
20
42.372065671320584
30
0
10
-13.294498593574197
20
42.410309052686408
30
0
10
-13.259915591128145
20
42.485252185550152
30
0
10
-13.204905282701883
20
42.546751920930284
30
0
10
-13.17796666175127
20
42.576868422861722
30
0
0
SPLINE
5
483
100
AcDbEntity
8
0
100
AcDbSpline
70
0
71
3
72
9
73
5
74
0
42
0.000000001
43
0.0000000001
44
0.0000000001
40
0
40
0
40
0
40
0
40
0.012794959251027071
40
0.025590059966644131
40
0.025590059966644131
40
0.025590059966644131
40
0.025590059966644131
10
-13.17796666175127
20
42.576868422861722
30
0
10
-13.146187142680791
20
42.605705692255171
30
0
10
-13.082627753176727
20
42.663380549874852
30
0
10
-13.004943234077855
20
42.699867559657037
30
0
10
-12.966100759804249
20
42.718111165400174
30
0
0
SPLINE
5
484
100
AcDbEntity
8
0
100
AcDbSpline
70
0
71
3
72
9
73
5
74
0
42
0.000000001
43
0.0000000001
44
0.0000000001
40
0
40
0
40
0
40
0
40
0.012902839252830717
40
0.026026258692322762
40
0.026026258692322762
40
0.026026258692322762
40
0.026026258692322762
10
-12.966100759804249
20
42.718111165400174
30
0
10
-12.925307465120852
20
42.732529532734993
30
0
10
-12.843023494938915
20
42.761612756266175
30
0
10
-12.755829568345117
20
42.765557152572313
30
0
10
-12.711863107979298
20
42.767546065683987
30
0
0
SPLINE
5
485
100
AcDbEntity
8
0
100
AcDbSpline
70
0
71
3
72
9
73
5
74
0
42
0.000000001
43
0.0000000001
44
0.0000000001
40
0
40
0
40
0
40
0
40
0.013123182080450642
40
0.026026249696802679
40
0.026026249696802679
40
0.026026249696802679
40
0.026026249696802679
10
-12.711863107979298
20
42.767546065683987
30
0
10
-12.667897475853875
20
42.765557001368322
30
0
10
-12.580703644909583
20
42.761612235211373
30
0
10
-12.498419549172525
20
42.732529533969092
30
0
10
-12.457625456154346
20
42.718111165400174
30
0
0
SPLINE
5
486
100
AcDbEntity
8
0
100
AcDbSpline
70
0
71
3
72
9
73
5
74
0
42
0.000000001
43
0.0000000001
44
0.0000000001
40
0
40
0
40
0
40
0
40
0.012639143458498604
40
0.025029483359888964
40
0.025029483359888964
40
0.025029483359888964
40
0.025029483359888964
10
-12.457625456154346
20
42.718111165400174
30
0
10
-12.419222253603962
20
42.7000222793205
30
0
10
-12.34317182167735
20
42.66420058977193
30
0
10
-12.282739631261087
20
42.605785588632031
30
0
10
-12.252823896706104
20
42.576868422861722
30
0
0
SPLINE
5
487
100
AcDbEntity
8
0
100
AcDbSpline
70
0
71
3
72
9
73
5
74
0
42
0.000000001
43
0.0000000001
44
0.0000000001
40
0
40
0
40
0
40
0
40
0.012390249872205703
40
0.025029546529011307
40
0.025029546529011307
40
0.025029546529011307
40
0.025029546529011307
10
-12.252823896706104
20
42.576868422861722
30
0
10
-12.223906558464686
20
42.546953189958913
30
0
10
-12.165490637036624
20
42.486521421302911
30
0
10
-12.129670581039065
20
42.410469828596348
30
0
10
-12.111582346260548
20
42.372065671320584
30
0
0
SPLINE
5
488
100
AcDbEntity
8
0
100
AcDbSpline
70
0
71
3
72
9
73
5
74
0
42
0.000000001
43
0.0000000001
44
0.0000000001
40
0
40
0
40
0
40
0
40
0.012902953434545908
40
0.026026146741768556
40
0.026026146741768556
40
0.026026146741768556
40
0.026026146741768556
10
-12.111582346260548
20
42.372065671320584
30
0
10
-12.097164074873392
20
42.331271969191455
30
0
10
-12.068081427339376
20
42.248988259253402
30
0
10
-12.064135774740929
20
42.161794845092011
30
0
10
-12.062146253883839
20
42.117829211588528
30
0
0
SPLINE
5
489
100
AcDbEntity
8
0
100
AcDbSpline
70
0
71
3
72
9
73
5
74
0
42
0.000000001
43
0.0000000001
44
0.0000000001
40
0
40
0
40
0
40
0
40
0.013123311986637021
40
0.026026265421182929
40
0.026026265421182929
40
0.026026265421182929
40
0.026026265421182929
10
-12.062146253883839
20
42.117829211588528
30
0
10
-12.064135736530321
20
42.073863174203588
30
0
10
-12.068081295659066
20
41.986669349987338
30
0
10
-12.097164075183887
20
41.904385262867905
30
0
10
-12.111582346260548
20
41.863591559763577
30
0
0
SPLINE
5
490
100
AcDbEntity
8
0
100
AcDbSpline
70
0
71
3
72
9
73
5
74
0
42
0.000000001
43
0.0000000001
44
0.0000000001
40
0
40
0
40
0
40
0
40
0.012794939512910332
40
0.025589898763937403
40
0.025589898763937403
40
0.025589898763937403
40
0.025589898763937403
10
-12.111582346260548
20
41.863591559763577
30
0
10
-12.129825551689365
20
41.824749485805995
30
0
10
-12.166311990689875
20
41.747065277971096
30
0
10
-12.223986579872088
20
41.683506342271521
30
0
10
-12.252823896706104
20
41.651726849909451
30
0
0
SPLINE
5
491
100
AcDbEntity
8
0
100
AcDbSpline
70
0
71
3
72
9
73
5
74
0
42
0.000000001
43
0.0000000001
44
0.0000000001
40
0
40
0
40
0
40
0
40
0.012049813467551091
40
0.024606068739719385
40
0.024606068739719385
40
0.024606068739719385
40
0.024606068739719385
10
-12.252823896706104
20
41.651726849909451
30
0
10
-12.28294079541687
20
41.624787848946816
30
0
10
-12.344440376460174
20
41.569777627315517
30
0
10
-12.419382940611294
20
41.535193853828233
30
0
10
-12.457625456154346
20
41.517546065683987
30
0
0
SPLINE
5
492
100
AcDbEntity
8
0
100
AcDbSpline
70
0
71
3
72
9
73
5
74
0
42
0.000000001
43
0.0000000001
44
0.0000000001
40
0
40
0
40
0
40
0
40
0.012903033362522041
40
0.02602622666974469
40
0.02602622666974469
40
0.02602622666974469
40
0.02602622666974469
10
-12.457625456154346
20
41.517546065683987
30
0
10
-12.498419587142443
20
41.503128289949281
30
0
10
-12.580703905105629
20
41.474046733015939
30
0
10
-12.667897512209422
20
41.470100814321036
30
0
10
-12.711863107979298
20
41.468111165400174
30
0
0
SPLINE
5
493
100
AcDbEntity
8
0
100
AcDbSpline
70
0
71
3
72
9
73
5
74
0
42
0.000000001
43
0.0000000001
44
0.0000000001
40
0
40
0
40
0
40
0
40
0.013123419439492044
40
0.026026258692322762
40
0.026026258692322762
40
0.026026258692322762
40
0.026026258692322762
10
-12.711863107979298
20
41.468111165400174
30
0
10
-12.755829568345117
20
41.470100078511848
30
0
10
-12.843023494938915
20
41.47404447481798
30
0
10
-12.925307465120852
20
41.503127698349161
30
0
10
-12.966100759804249
20
41.517546065683987
30
0
0
SPLINE
5
494
100
AcDbEntity
8
0
100
AcDbSpline
70
0
71
3
72
9
73
5
74
0
42
0.000000001
43
0.0000000001
44
0.0000000001
40
0
40
0
40
0
40
0
40
0.012713229385885013
40
0.025178720309480151
40
0.025178720309480151
40
0.025178720309480151
40
0.025178720309480151
10
-12.966100759804249
20
41.517546065683987
30
0
10
-13.004789545773399
20
41.53535406059784
30
0
10
-13.08141320223886
20
41.570623031966065
30
0
10
-13.14599398298423
20
41.624870160040651
30
0
10
-13.17796666175127
20
41.651726849909451
30
0
0
LWPOLYLINE
5
495
100
AcDbEntity
8
0
100
AcDbPolyline
90
7
70
1
43
0.0
10
-1.7500000000000031
20
19.250625446086662
10
-2.4980018054066022e-15
20
22.250625446086659
10
1.7499999999999969
20
19.250625446086662
10
0.49999999999999906
20
19.250625446086662
10
0.49999999999999933
20
16.250625446086662
10
-0.50000000000000044
20
16.250625446086662
10
-0.50000000000000455
20
19.250625446086662
0
LWPOLYLINE
5
496
100
AcDbEntity
8
0
100
AcDbPolyline
90
4
70
1
43
0.0
10
-18.294405672775291
20
-3.0104838529863938
10
-13.544405672775291
20
-3.0104838529863933
10
-13.544405672775291
20
-8.0104838529863915
10
-18.294405672775291
20
-8.0104838529863933
0
LWPOLYLINE
5
497
100
AcDbEntity
8
0
100
AcDbPolyline
90
4
70
1
43
0.0
10
17.705594327224755
20
3.0104838529866731
10
12.955594327224755
20
3.0104838529866731
10
12.955594327224755
20
8.0104838529866758
10
17.705594327224755
20
8.0104838529866722
0
LWPOLYLINE
5
498
100
AcDbEntity
8
0
100
AcDbPolyline
90
4
70
1
43
0.0
10
17.705594327224755
20
-8.0104838529863915
10
12.955594327224755
20
-8.0104838529863933
10
12.955594327224755
20
-3.0104838529863938
10
17.705594327224755
20
-3.0104838529863933
0
LWPOLYLINE
5
499
100
AcDbEntity
8
0
100
AcDbPolyline
90
4
70
1
43
0.0
10
-18.294405672775291
20
8.0104838529866722
10
-13.544405672775291
20
8.010483852986674
10
-13.544405672775291
20
3.0104838529866718
10
-18.294405672775291
20
3.0104838529866731
0
LWPOLYLINE
5
500
100
AcDbEntity
8
0
100
AcDbPolyline
90
4
70
1
43
0.0
10
7.7499999999999956
20
36.270342259886661
10
7.7499999999999947
20
27.01048385298666
10
2.9999999999999938
20
27.01048385298666
10
2.9999999999999956
20
36.270342259886661
0
LWPOLYLINE
5
501
100
AcDbEntity
8
0
100
AcDbPolyline
90
4
70
1
43
0.0
10
-3.0000000000000049
20
36.270342259886661
10
-3.0000000000000067
20
27.01048385298666
10
-7.7500000000000071
20
27.01048385298666
10
-7.7500000000000053
20
36.270342259886661
0
LWPOLYLINE
5
502
100
AcDbEntity
8
0
100
AcDbPolyline
90
8
70
1
43
0.0
10
-37.000000000000007
20
56.010483852986674
42
0.4142135623730942
10
-39.999999999999993
20
53.010483852986674
10
-40
20
-25.0104838529864
42
0.41421356237309509
10
-37
20
-28.01048385298639
10
36.999999999999993
20
-28.01048385298639
42
0.41421356237309509
10
39.999999999999986
20
-25.010483852986397
10
39.999999999999986
20
53.010483852986653
42
0.41421356237309681
10
36.999999999999986
20
56.010483852986653
0
ENDSEC
0
SECTION
2
OBJECTS
0
DICTIONARY
5
C
100
AcDbDictionary
3
ACAD_GROUP
350
D
3
ACAD_MLINESTYLE
350
17
0
DICTIONARY
5
D
100
AcDbDictionary
0
DICTIONARY
5
1A
330
C
100
AcDbDictionary
0
DICTIONARY
5
17
100
AcDbDictionary
0
ENDSEC
0
EOF
